M48
; DRILL file {KiCad 6.0.11+dfsg-1} date Wed Nov  1 17:04:38 2023
; FORMAT={-:-/ absolute / inch / decimal}
; #@! TF.CreationDate,2023-11-01T17:04:38+00:00
; #@! TF.GenerationSoftware,Kicad,Pcbnew,6.0.11+dfsg-1
; #@! TF.FileFunction,Plated,1,2,PTH
FMAT,2
INCH
; #@! TA.AperFunction,Plated,PTH,ViaDrill
T1C0.0138
; #@! TA.AperFunction,Plated,PTH,ViaDrill
T2C0.0157
; #@! TA.AperFunction,Plated,PTH,ComponentDrill
T3C0.0354
; #@! TA.AperFunction,Plated,PTH,ComponentDrill
T4C0.0394
; #@! TA.AperFunction,Plated,PTH,ComponentDrill
T5C0.0512
; #@! TA.AperFunction,Plated,PTH,ComponentDrill
T6C0.0630
%
G90
G05
T1
X4.6Y-2.5367
X4.735Y-3.0012
X4.7543Y-1.8793
X4.7862Y-1.6182
X4.8596Y-2.1256
X4.8596Y-2.1638
X4.8598Y-2.0867
X4.8607Y-2.0491
X5.0039Y-2.3409
X5.0135Y-2.2263
X5.0145Y-1.4923
X5.015Y-2.2639
X5.0185Y-2.3033
X5.7704Y-1.2718
X5.8216Y-2.0509
X5.8216Y-2.0885
X5.8216Y-2.1261
X5.8216Y-2.1638
X5.8216Y-2.2268
X5.8216Y-2.2645
X5.8216Y-2.3021
X5.8216Y-2.3397
X6.0106Y-1.2639
X6.0972Y-1.6734
X6.4276Y-2.6474
X6.505Y-2.655
X6.6576Y-2.7324
X6.7551Y-2.7599
X6.924Y-1.8387
X6.9248Y-1.8003
X7.0539Y-1.5828
T2
X4.585Y-3.505
X4.608Y-3.4054
X4.615Y-3.56
X4.6799Y-2.5355
X4.745Y-2.7548
X4.7488Y-1.0434
X4.773Y-3.4104
X4.7797Y-3.45
X4.78Y-3.555
X4.8778Y-1.9098
X4.9051Y-1.9663
X4.915Y-2.9598
X4.933Y-3.4098
X4.9355Y-3.4551
X4.945Y-3.55
X4.98Y-2.9698
X5.0025Y-2.7273
X5.0381Y-2.7948
X5.04Y-2.9992
X5.0737Y-2.8448
X5.0834Y-1.0434
X5.098Y-3.4104
X5.1047Y-3.455
X5.105Y-3.555
X5.1056Y-2.8898
X5.22Y-2.9698
X5.2616Y-3.4081
X5.2629Y-3.455
X5.27Y-3.555
X5.29Y-2.9698
X5.3393Y-1.8598
X5.3393Y-1.9686
X5.355Y-2.9698
X5.395Y-2.5798
X5.41Y-2.6548
X5.41Y-2.7298
X5.4125Y-2.7973
X5.44Y-3.41
X5.445Y-3.455
X5.45Y-3.555
X5.52Y-1.8553
X5.52Y-1.9648
X5.6201Y-3.4099
X5.625Y-3.455
X5.635Y-3.555
X5.7285Y-1.8013
X5.73Y-1.7525
X5.745Y-2.9598
X5.76Y-1.9098
X5.7991Y-3.4106
X5.8029Y-3.455
X5.81Y-2.9648
X5.81Y-3.555
X5.83Y-2.5948
X5.855Y-2.6798
X5.865Y-2.7698
X5.875Y-2.9798
X5.925Y-2.9198
X5.948Y-1.9698
X5.9795Y-1.6667
X5.9795Y-3.4105
X5.9809Y-3.4551
X5.99Y-3.555
X6.0649Y-1.9545
X6.0984Y-1.8509
X6.1501Y-3.4099
X6.1562Y-3.455
X6.165Y-3.555
X6.21Y-3.0398
X6.313Y-3.4204
X6.325Y-3.555
X6.35Y-3.505
X6.48Y-3.0348
X6.4894Y-3.4153
X6.49Y-3.55
X6.5177Y-1.8454
X6.5198Y-3.4998
X6.595Y-2.0848
X6.595Y-2.3248
X6.62Y-1.7169
X6.6231Y-1.9998
X6.658Y-3.4254
X6.665Y-3.555
X6.685Y-1.4248
X6.695Y-3.505
X6.7074Y-2.0174
X6.7468Y-0.9549
X6.77Y-1.8698
X6.78Y-2.6298
X6.828Y-3.4304
X6.84Y-3.555
X6.8656Y-3.505
X6.983Y-0.9549
X6.998Y-3.4304
X7.01Y-3.555
X7.035Y-2.7598
X7.0356Y-3.505
X7.175Y-3.4231
X7.18Y-2.5448
X7.185Y-2.2798
X7.185Y-3.555
X7.205Y-3.5
T3
X4.89Y-4.2005
X4.94Y-4.1005
X4.99Y-4.2005
X5.04Y-4.1005
X5.09Y-4.2005
X5.14Y-4.1005
X5.19Y-4.2005
X5.24Y-4.1005
X5.44Y-4.2005
X5.49Y-4.1005
X5.54Y-4.2005
X5.59Y-4.1005
X5.64Y-4.2005
X5.69Y-4.1005
X5.74Y-4.2005
X5.79Y-4.1005
X5.99Y-4.2005
X6.04Y-4.1005
X6.09Y-4.2005
X6.14Y-4.1005
X6.19Y-4.2005
X6.24Y-4.1005
X6.29Y-4.2005
X6.34Y-4.1005
X6.54Y-4.2005
X6.59Y-4.1005
X6.64Y-4.2005
X6.69Y-4.1005
X6.74Y-4.2005
X6.79Y-4.1005
X6.84Y-4.2005
X6.89Y-4.1005
T4
X4.696Y-2.7068
X4.696Y-2.8068
X4.696Y-2.9068
X4.796Y-2.7068
X4.796Y-2.8068
X4.796Y-2.9068
X6.9834Y-2.7068
X6.9834Y-2.8068
X6.9834Y-2.9068
X7.0834Y-2.7068
X7.0834Y-2.8068
X7.0834Y-2.9068
T5
X5.2704Y-1.0198
X5.4673Y-1.0198
X6.3137Y-1.0198
X6.5106Y-1.0198
T6
X4.7325Y-4.6304
X5.34Y-4.0505
X5.89Y-4.0505
X6.44Y-4.0505
X7.0475Y-4.6304
T0
M30
