G04 #@! TF.GenerationSoftware,KiCad,Pcbnew,6.0.11+dfsg-1*
G04 #@! TF.CreationDate,2023-11-01T17:04:38+00:00*
G04 #@! TF.ProjectId,Modular-I2C-4PxRJ45-Relay-Driver,4d6f6475-6c61-4722-9d49-32432d345078,rev?*
G04 #@! TF.SameCoordinates,Original*
G04 #@! TF.FileFunction,Soldermask,Bot*
G04 #@! TF.FilePolarity,Negative*
%FSLAX46Y46*%
G04 Gerber Fmt 4.6, Leading zero omitted, Abs format (unit mm)*
G04 Created by KiCad (PCBNEW 6.0.11+dfsg-1) date 2023-11-01 17:04:38*
%MOMM*%
%LPD*%
G01*
G04 APERTURE LIST*
%ADD10C,1.700000*%
%ADD11C,3.250000*%
%ADD12C,1.500000*%
%ADD13C,2.600000*%
G04 APERTURE END LIST*
G36*
G01*
X180768995Y-73231501D02*
X180768995Y-74431501D01*
G75*
G02*
X180518995Y-74681501I-250000J0D01*
G01*
X179318995Y-74681501D01*
G75*
G02*
X179068995Y-74431501I0J250000D01*
G01*
X179068995Y-73231501D01*
G75*
G02*
X179318995Y-72981501I250000J0D01*
G01*
X180518995Y-72981501D01*
G75*
G02*
X180768995Y-73231501I0J-250000D01*
G01*
G37*
D10*
X177378995Y-73831501D03*
X179918995Y-71291501D03*
X177378995Y-71291501D03*
X179918995Y-68751501D03*
X177378995Y-68751501D03*
G36*
X164674281Y-27255696D02*
G01*
X164662158Y-27245342D01*
X164027158Y-26610342D01*
X163998651Y-26554394D01*
X163997400Y-26538500D01*
X163997400Y-25268500D01*
X164016804Y-25208781D01*
X164027158Y-25196658D01*
X164662158Y-24561658D01*
X164718106Y-24533151D01*
X164734000Y-24531900D01*
X166004000Y-24531900D01*
X166063719Y-24551304D01*
X166075842Y-24561658D01*
X166710842Y-25196658D01*
X166739349Y-25252606D01*
X166740600Y-25268500D01*
X166740600Y-26538500D01*
X166721196Y-26598219D01*
X166710842Y-26610342D01*
X166075842Y-27245342D01*
X166019894Y-27273849D01*
X166004000Y-27275100D01*
X164734000Y-27275100D01*
X164674281Y-27255696D01*
G37*
G36*
X159674281Y-27255696D02*
G01*
X159662158Y-27245342D01*
X159027158Y-26610342D01*
X158998651Y-26554394D01*
X158997400Y-26538500D01*
X158997400Y-25268500D01*
X159016804Y-25208781D01*
X159027158Y-25196658D01*
X159662158Y-24561658D01*
X159718106Y-24533151D01*
X159734000Y-24531900D01*
X161004000Y-24531900D01*
X161063719Y-24551304D01*
X161075842Y-24561658D01*
X161710842Y-25196658D01*
X161739349Y-25252606D01*
X161740600Y-25268500D01*
X161740600Y-26538500D01*
X161721196Y-26598219D01*
X161710842Y-26610342D01*
X161075842Y-27245342D01*
X161019894Y-27273849D01*
X161004000Y-27275100D01*
X159734000Y-27275100D01*
X159674281Y-27255696D01*
G37*
G36*
G01*
X122669010Y-73231501D02*
X122669010Y-74431501D01*
G75*
G02*
X122419010Y-74681501I-250000J0D01*
G01*
X121219010Y-74681501D01*
G75*
G02*
X120969010Y-74431501I0J250000D01*
G01*
X120969010Y-73231501D01*
G75*
G02*
X121219010Y-72981501I250000J0D01*
G01*
X122419010Y-72981501D01*
G75*
G02*
X122669010Y-73231501I0J-250000D01*
G01*
G37*
X119279010Y-73831501D03*
X121819010Y-71291501D03*
X119279010Y-71291501D03*
X121819010Y-68751501D03*
X119279010Y-68751501D03*
G36*
X138174281Y-27255696D02*
G01*
X138162158Y-27245342D01*
X137527158Y-26610342D01*
X137498651Y-26554394D01*
X137497400Y-26538500D01*
X137497400Y-25268500D01*
X137516804Y-25208781D01*
X137527158Y-25196658D01*
X138162158Y-24561658D01*
X138218106Y-24533151D01*
X138234000Y-24531900D01*
X139504000Y-24531900D01*
X139563719Y-24551304D01*
X139575842Y-24561658D01*
X140210842Y-25196658D01*
X140239349Y-25252606D01*
X140240600Y-25268500D01*
X140240600Y-26538500D01*
X140221196Y-26598219D01*
X140210842Y-26610342D01*
X139575842Y-27245342D01*
X139519894Y-27273849D01*
X139504000Y-27275100D01*
X138234000Y-27275100D01*
X138174281Y-27255696D01*
G37*
G36*
X133174281Y-27255696D02*
G01*
X133162158Y-27245342D01*
X132527158Y-26610342D01*
X132498651Y-26554394D01*
X132497400Y-26538500D01*
X132497400Y-25268500D01*
X132516804Y-25208781D01*
X132527158Y-25196658D01*
X133162158Y-24561658D01*
X133218106Y-24533151D01*
X133234000Y-24531900D01*
X134504000Y-24531900D01*
X134563719Y-24551304D01*
X134575842Y-24561658D01*
X135210842Y-25196658D01*
X135239349Y-25252606D01*
X135240600Y-25268500D01*
X135240600Y-26538500D01*
X135221196Y-26598219D01*
X135210842Y-26610342D01*
X134575842Y-27245342D01*
X134519894Y-27273849D01*
X134504000Y-27275100D01*
X133234000Y-27275100D01*
X133174281Y-27255696D01*
G37*
D11*
X122936000Y-113042500D03*
X176276000Y-113042500D03*
D12*
X124206000Y-106692500D03*
X125476000Y-104152500D03*
X126746000Y-106692500D03*
X128016000Y-104152500D03*
X129286000Y-106692500D03*
X130556000Y-104152500D03*
X131826000Y-106692500D03*
X133096000Y-104152500D03*
X138176000Y-106692500D03*
X139446000Y-104152500D03*
X140716000Y-106692500D03*
X141986000Y-104152500D03*
X143256000Y-106692500D03*
X144526000Y-104152500D03*
X145796000Y-106692500D03*
X147066000Y-104152500D03*
X152146000Y-106692500D03*
X153416000Y-104152500D03*
X154686000Y-106692500D03*
X155956000Y-104152500D03*
X157226000Y-106692500D03*
X158496000Y-104152500D03*
X159766000Y-106692500D03*
X161036000Y-104152500D03*
X166116000Y-106692500D03*
X167386000Y-104152500D03*
X168656000Y-106692500D03*
X169926000Y-104152500D03*
X171196000Y-106692500D03*
X172466000Y-104152500D03*
X173736000Y-106692500D03*
X175006000Y-104152500D03*
D13*
X163576000Y-102882500D03*
X179006000Y-117612500D03*
X120206000Y-117612500D03*
X149606000Y-102882500D03*
X135636000Y-102882500D03*
M02*
