G04 #@! TF.GenerationSoftware,KiCad,Pcbnew,6.0.11+dfsg-1*
G04 #@! TF.CreationDate,2023-11-01T17:04:38+00:00*
G04 #@! TF.ProjectId,Modular-I2C-4PxRJ45-Relay-Driver,4d6f6475-6c61-4722-9d49-32432d345078,rev?*
G04 #@! TF.SameCoordinates,Original*
G04 #@! TF.FileFunction,Legend,Bot*
G04 #@! TF.FilePolarity,Positive*
%FSLAX46Y46*%
G04 Gerber Fmt 4.6, Leading zero omitted, Abs format (unit mm)*
G04 Created by KiCad (PCBNEW 6.0.11+dfsg-1) date 2023-11-01 17:04:38*
%MOMM*%
%LPD*%
G01*
G04 APERTURE LIST*
%ADD10C,0.254000*%
%ADD11C,0.406400*%
%ADD12C,0.391000*%
%ADD13C,0.476000*%
%ADD14C,0.200000*%
%ADD15C,0.215900*%
%ADD16C,0.240000*%
%ADD17C,0.252000*%
%ADD18C,0.241808*%
%ADD19C,1.700000*%
%ADD20C,3.250000*%
%ADD21C,1.500000*%
%ADD22C,2.600000*%
G04 APERTURE END LIST*
D10*
X168683214Y-31789286D02*
X168683214Y-46789286D01*
X166683214Y-48789314D02*
G75*
G03*
X168683214Y-46789286I-14J2000014D01*
G01*
X152183214Y-46789286D02*
G75*
G03*
X154183214Y-48789286I1999986J-14D01*
G01*
X173949001Y-71931500D02*
X171155001Y-70153500D01*
X173441001Y-71677500D02*
X173187001Y-71677500D01*
X169377001Y-71677500D02*
X171155001Y-70407500D01*
X168683214Y-31789286D02*
G75*
G03*
X166683214Y-29789286I-2000014J-14D01*
G01*
X168615001Y-71931500D02*
X173949001Y-71931500D01*
D11*
X170393001Y-71169500D02*
X171663001Y-71169500D01*
D10*
X171155001Y-70153500D02*
X168615001Y-71931500D01*
D11*
X171663001Y-71169500D02*
X171155001Y-70915500D01*
D10*
X154183214Y-29789314D02*
G75*
G03*
X152183214Y-31789286I-14J-1999986D01*
G01*
X166683214Y-48789286D02*
X154183214Y-48789286D01*
D11*
X172679001Y-71423500D02*
X171155001Y-70661500D01*
D10*
X171155001Y-70407500D02*
X173187001Y-71677500D01*
X173187001Y-71677500D02*
X169377001Y-71677500D01*
D11*
X171155001Y-70661500D02*
X170393001Y-71169500D01*
D10*
X154183214Y-29789286D02*
X166683214Y-29789286D01*
D11*
X169885001Y-71423500D02*
X172679001Y-71423500D01*
D12*
X165692558Y-116781428D02*
X165328939Y-118054095D01*
X164965320Y-117145047D01*
X164601701Y-118054095D01*
X164238082Y-116781428D01*
X163692653Y-116781428D02*
X163329034Y-118054095D01*
X162965415Y-117145047D01*
X162601796Y-118054095D01*
X162238177Y-116781428D01*
X161692749Y-116781428D02*
X161329130Y-118054095D01*
X160965511Y-117145047D01*
X160601891Y-118054095D01*
X160238272Y-116781428D01*
X159511034Y-117872285D02*
X159420130Y-117963190D01*
X159511034Y-118054095D01*
X159601939Y-117963190D01*
X159511034Y-117872285D01*
X159511034Y-118054095D01*
X158692891Y-117963190D02*
X158511082Y-118054095D01*
X158147463Y-118054095D01*
X157965653Y-117963190D01*
X157874749Y-117781380D01*
X157874749Y-117690476D01*
X157965653Y-117508666D01*
X158147463Y-117417761D01*
X158420177Y-117417761D01*
X158601987Y-117326857D01*
X158692891Y-117145047D01*
X158692891Y-117054142D01*
X158601987Y-116872333D01*
X158420177Y-116781428D01*
X158147463Y-116781428D01*
X157965653Y-116872333D01*
X156238463Y-116781428D02*
X156238463Y-118054095D01*
X157056606Y-116781428D02*
X157056606Y-117781380D01*
X156965701Y-117963190D01*
X156783891Y-118054095D01*
X156511177Y-118054095D01*
X156329368Y-117963190D01*
X156238463Y-117872285D01*
X155329415Y-116781428D02*
X155329415Y-118690428D01*
X155329415Y-116872333D02*
X155147606Y-116781428D01*
X154783987Y-116781428D01*
X154602177Y-116872333D01*
X154511272Y-116963238D01*
X154420368Y-117145047D01*
X154420368Y-117690476D01*
X154511272Y-117872285D01*
X154602177Y-117963190D01*
X154783987Y-118054095D01*
X155147606Y-118054095D01*
X155329415Y-117963190D01*
X152874987Y-117963190D02*
X153056796Y-118054095D01*
X153420415Y-118054095D01*
X153602225Y-117963190D01*
X153693130Y-117781380D01*
X153693130Y-117054142D01*
X153602225Y-116872333D01*
X153420415Y-116781428D01*
X153056796Y-116781428D01*
X152874987Y-116872333D01*
X152784082Y-117054142D01*
X152784082Y-117235952D01*
X153693130Y-117417761D01*
X151965939Y-118054095D02*
X151965939Y-116781428D01*
X151965939Y-117145047D02*
X151875034Y-116963238D01*
X151784130Y-116872333D01*
X151602320Y-116781428D01*
X151420511Y-116781428D01*
X150784177Y-118054095D02*
X150784177Y-116145095D01*
X149966034Y-118054095D02*
X149966034Y-117054142D01*
X150056939Y-116872333D01*
X150238749Y-116781428D01*
X150511463Y-116781428D01*
X150693272Y-116872333D01*
X150784177Y-116963238D01*
X148784272Y-118054095D02*
X148966082Y-117963190D01*
X149056987Y-117872285D01*
X149147891Y-117690476D01*
X149147891Y-117145047D01*
X149056987Y-116963238D01*
X148966082Y-116872333D01*
X148784272Y-116781428D01*
X148511558Y-116781428D01*
X148329749Y-116872333D01*
X148238844Y-116963238D01*
X148147939Y-117145047D01*
X148147939Y-117690476D01*
X148238844Y-117872285D01*
X148329749Y-117963190D01*
X148511558Y-118054095D01*
X148784272Y-118054095D01*
X146511653Y-116781428D02*
X146511653Y-118054095D01*
X147329796Y-116781428D02*
X147329796Y-117781380D01*
X147238891Y-117963190D01*
X147057082Y-118054095D01*
X146784368Y-118054095D01*
X146602558Y-117963190D01*
X146511653Y-117872285D01*
X145693511Y-117963190D02*
X145511701Y-118054095D01*
X145148082Y-118054095D01*
X144966272Y-117963190D01*
X144875368Y-117781380D01*
X144875368Y-117690476D01*
X144966272Y-117508666D01*
X145148082Y-117417761D01*
X145420796Y-117417761D01*
X145602606Y-117326857D01*
X145693511Y-117145047D01*
X145693511Y-117054142D01*
X145602606Y-116872333D01*
X145420796Y-116781428D01*
X145148082Y-116781428D01*
X144966272Y-116872333D01*
X143329987Y-117963190D02*
X143511796Y-118054095D01*
X143875415Y-118054095D01*
X144057225Y-117963190D01*
X144148130Y-117781380D01*
X144148130Y-117054142D01*
X144057225Y-116872333D01*
X143875415Y-116781428D01*
X143511796Y-116781428D01*
X143329987Y-116872333D01*
X143239082Y-117054142D01*
X143239082Y-117235952D01*
X144148130Y-117417761D01*
X142420939Y-117872285D02*
X142330034Y-117963190D01*
X142420939Y-118054095D01*
X142511844Y-117963190D01*
X142420939Y-117872285D01*
X142420939Y-118054095D01*
X141784606Y-116781428D02*
X141057368Y-116781428D01*
X141511891Y-116145095D02*
X141511891Y-117781380D01*
X141420987Y-117963190D01*
X141239177Y-118054095D01*
X141057368Y-118054095D01*
X140602844Y-116781428D02*
X140148320Y-118054095D01*
X139693796Y-116781428D01*
X137602987Y-116054190D02*
X139239272Y-118508619D01*
X136966653Y-118054095D02*
X136966653Y-116781428D01*
X136966653Y-116145095D02*
X137057558Y-116236000D01*
X136966653Y-116326904D01*
X136875749Y-116236000D01*
X136966653Y-116145095D01*
X136966653Y-116326904D01*
X136148511Y-116326904D02*
X136057606Y-116236000D01*
X135875796Y-116145095D01*
X135421272Y-116145095D01*
X135239463Y-116236000D01*
X135148558Y-116326904D01*
X135057653Y-116508714D01*
X135057653Y-116690523D01*
X135148558Y-116963238D01*
X136239415Y-118054095D01*
X135057653Y-118054095D01*
X133421368Y-117963190D02*
X133603177Y-118054095D01*
X133966796Y-118054095D01*
X134148606Y-117963190D01*
X134239511Y-117872285D01*
X134330415Y-117690476D01*
X134330415Y-117145047D01*
X134239511Y-116963238D01*
X134148606Y-116872333D01*
X133966796Y-116781428D01*
X133603177Y-116781428D01*
X133421368Y-116872333D01*
X132603225Y-118054095D02*
X132603225Y-116781428D01*
X132603225Y-117145047D02*
X132512320Y-116963238D01*
X132421415Y-116872333D01*
X132239606Y-116781428D01*
X132057796Y-116781428D01*
X131421463Y-116781428D02*
X131421463Y-118417714D01*
X131512368Y-118599523D01*
X131694177Y-118690428D01*
X131785082Y-118690428D01*
X131421463Y-116145095D02*
X131512368Y-116236000D01*
X131421463Y-116326904D01*
X131330558Y-116236000D01*
X131421463Y-116145095D01*
X131421463Y-116326904D01*
X129694272Y-116781428D02*
X129694272Y-118054095D01*
X130148796Y-116054190D02*
X130603320Y-117417761D01*
X129421558Y-117417761D01*
X127785272Y-116145095D02*
X128694320Y-116145095D01*
X128785225Y-117054142D01*
X128694320Y-116963238D01*
X128512510Y-116872333D01*
X128057987Y-116872333D01*
X127876177Y-116963238D01*
X127785272Y-117054142D01*
X127694368Y-117235952D01*
X127694368Y-117690476D01*
X127785272Y-117872285D01*
X127876177Y-117963190D01*
X128057987Y-118054095D01*
X128512510Y-118054095D01*
X128694320Y-117963190D01*
X128785225Y-117872285D01*
D13*
X150083409Y-30417913D02*
X150083409Y-28093913D01*
X149416742Y-29753913D01*
X148750076Y-28093913D01*
X148750076Y-30417913D01*
X147511980Y-30417913D02*
X147702457Y-30307246D01*
X147797695Y-30196580D01*
X147892933Y-29975246D01*
X147892933Y-29311246D01*
X147797695Y-29089913D01*
X147702457Y-28979246D01*
X147511980Y-28868580D01*
X147226266Y-28868580D01*
X147035790Y-28979246D01*
X146940552Y-29089913D01*
X146845314Y-29311246D01*
X146845314Y-29975246D01*
X146940552Y-30196580D01*
X147035790Y-30307246D01*
X147226266Y-30417913D01*
X147511980Y-30417913D01*
X145131028Y-30417913D02*
X145131028Y-28093913D01*
X145131028Y-30307246D02*
X145321504Y-30417913D01*
X145702457Y-30417913D01*
X145892933Y-30307246D01*
X145988171Y-30196580D01*
X146083409Y-29975246D01*
X146083409Y-29311246D01*
X145988171Y-29089913D01*
X145892933Y-28979246D01*
X145702457Y-28868580D01*
X145321504Y-28868580D01*
X145131028Y-28979246D01*
X143321504Y-28868580D02*
X143321504Y-30417913D01*
X144178647Y-28868580D02*
X144178647Y-30085913D01*
X144083409Y-30307246D01*
X143892933Y-30417913D01*
X143607219Y-30417913D01*
X143416742Y-30307246D01*
X143321504Y-30196580D01*
X142083409Y-30417913D02*
X142273885Y-30307246D01*
X142369123Y-30085913D01*
X142369123Y-28093913D01*
X140464361Y-30417913D02*
X140464361Y-29200580D01*
X140559600Y-28979246D01*
X140750076Y-28868580D01*
X141131028Y-28868580D01*
X141321504Y-28979246D01*
X140464361Y-30307246D02*
X140654838Y-30417913D01*
X141131028Y-30417913D01*
X141321504Y-30307246D01*
X141416742Y-30085913D01*
X141416742Y-29864580D01*
X141321504Y-29643246D01*
X141131028Y-29532580D01*
X140654838Y-29532580D01*
X140464361Y-29421913D01*
X139511980Y-30417913D02*
X139511980Y-28868580D01*
X139511980Y-29311246D02*
X139416742Y-29089913D01*
X139321504Y-28979246D01*
X139131028Y-28868580D01*
X138940552Y-28868580D01*
X149226266Y-32610220D02*
X149226266Y-34159553D01*
X149702457Y-31724886D02*
X150178647Y-33384886D01*
X148940552Y-33384886D01*
X148178647Y-33274220D02*
X146654838Y-33274220D01*
X145702457Y-34159553D02*
X145702457Y-31835553D01*
X144940552Y-31835553D01*
X144750076Y-31946220D01*
X144654838Y-32056886D01*
X144559600Y-32278220D01*
X144559600Y-32610220D01*
X144654838Y-32831553D01*
X144750076Y-32942220D01*
X144940552Y-33052886D01*
X145702457Y-33052886D01*
X143416742Y-34159553D02*
X143607219Y-34048886D01*
X143702457Y-33938220D01*
X143797695Y-33716886D01*
X143797695Y-33052886D01*
X143702457Y-32831553D01*
X143607219Y-32720886D01*
X143416742Y-32610220D01*
X143131028Y-32610220D01*
X142940552Y-32720886D01*
X142845314Y-32831553D01*
X142750076Y-33052886D01*
X142750076Y-33716886D01*
X142845314Y-33938220D01*
X142940552Y-34048886D01*
X143131028Y-34159553D01*
X143416742Y-34159553D01*
X141892933Y-34159553D02*
X141892933Y-32610220D01*
X141892933Y-33052886D02*
X141797695Y-32831553D01*
X141702457Y-32720886D01*
X141511980Y-32610220D01*
X141321504Y-32610220D01*
X140940552Y-32610220D02*
X140178647Y-32610220D01*
X140654838Y-31835553D02*
X140654838Y-33827553D01*
X140559600Y-34048886D01*
X140369123Y-34159553D01*
X140178647Y-34159553D01*
X150083409Y-37901193D02*
X150083409Y-35577193D01*
X149226266Y-35798526D02*
X149131028Y-35687860D01*
X148940552Y-35577193D01*
X148464361Y-35577193D01*
X148273885Y-35687860D01*
X148178647Y-35798526D01*
X148083409Y-36019860D01*
X148083409Y-36241193D01*
X148178647Y-36573193D01*
X149321504Y-37901193D01*
X148083409Y-37901193D01*
X146083409Y-37679860D02*
X146178647Y-37790526D01*
X146464361Y-37901193D01*
X146654838Y-37901193D01*
X146940552Y-37790526D01*
X147131028Y-37569193D01*
X147226266Y-37347860D01*
X147321504Y-36905193D01*
X147321504Y-36573193D01*
X147226266Y-36130526D01*
X147131028Y-35909193D01*
X146940552Y-35687860D01*
X146654838Y-35577193D01*
X146464361Y-35577193D01*
X146178647Y-35687860D01*
X146083409Y-35798526D01*
X142559600Y-37901193D02*
X143226266Y-36794526D01*
X143702457Y-37901193D02*
X143702457Y-35577193D01*
X142940552Y-35577193D01*
X142750076Y-35687860D01*
X142654838Y-35798526D01*
X142559600Y-36019860D01*
X142559600Y-36351860D01*
X142654838Y-36573193D01*
X142750076Y-36683860D01*
X142940552Y-36794526D01*
X143702457Y-36794526D01*
X141131028Y-35577193D02*
X141131028Y-37237193D01*
X141226266Y-37569193D01*
X141416742Y-37790526D01*
X141702457Y-37901193D01*
X141892933Y-37901193D01*
X139321504Y-36351860D02*
X139321504Y-37901193D01*
X139797695Y-35466526D02*
X140273885Y-37126526D01*
X139035790Y-37126526D01*
X137321504Y-35577193D02*
X138273885Y-35577193D01*
X138369123Y-36683860D01*
X138273885Y-36573193D01*
X138083409Y-36462526D01*
X137607219Y-36462526D01*
X137416742Y-36573193D01*
X137321504Y-36683860D01*
X137226266Y-36905193D01*
X137226266Y-37458526D01*
X137321504Y-37679860D01*
X137416742Y-37790526D01*
X137607219Y-37901193D01*
X138083409Y-37901193D01*
X138273885Y-37790526D01*
X138369123Y-37679860D01*
X148940552Y-41642833D02*
X149607219Y-40536166D01*
X150083409Y-41642833D02*
X150083409Y-39318833D01*
X149321504Y-39318833D01*
X149131028Y-39429500D01*
X149035790Y-39540166D01*
X148940552Y-39761500D01*
X148940552Y-40093500D01*
X149035790Y-40314833D01*
X149131028Y-40425500D01*
X149321504Y-40536166D01*
X150083409Y-40536166D01*
X147321504Y-41532166D02*
X147511980Y-41642833D01*
X147892933Y-41642833D01*
X148083409Y-41532166D01*
X148178647Y-41310833D01*
X148178647Y-40425500D01*
X148083409Y-40204166D01*
X147892933Y-40093500D01*
X147511980Y-40093500D01*
X147321504Y-40204166D01*
X147226266Y-40425500D01*
X147226266Y-40646833D01*
X148178647Y-40868166D01*
X146083409Y-41642833D02*
X146273885Y-41532166D01*
X146369123Y-41310833D01*
X146369123Y-39318833D01*
X144464361Y-41642833D02*
X144464361Y-40425500D01*
X144559600Y-40204166D01*
X144750076Y-40093500D01*
X145131028Y-40093500D01*
X145321504Y-40204166D01*
X144464361Y-41532166D02*
X144654838Y-41642833D01*
X145131028Y-41642833D01*
X145321504Y-41532166D01*
X145416742Y-41310833D01*
X145416742Y-41089500D01*
X145321504Y-40868166D01*
X145131028Y-40757500D01*
X144654838Y-40757500D01*
X144464361Y-40646833D01*
X143702457Y-40093500D02*
X143226266Y-41642833D01*
X142750076Y-40093500D02*
X143226266Y-41642833D01*
X143416742Y-42196166D01*
X143511980Y-42306833D01*
X143702457Y-42417500D01*
X140464361Y-41642833D02*
X140464361Y-39318833D01*
X139988171Y-39318833D01*
X139702457Y-39429500D01*
X139511980Y-39650833D01*
X139416742Y-39872166D01*
X139321504Y-40314833D01*
X139321504Y-40646833D01*
X139416742Y-41089500D01*
X139511980Y-41310833D01*
X139702457Y-41532166D01*
X139988171Y-41642833D01*
X140464361Y-41642833D01*
X138464361Y-41642833D02*
X138464361Y-40093500D01*
X138464361Y-40536166D02*
X138369123Y-40314833D01*
X138273885Y-40204166D01*
X138083409Y-40093500D01*
X137892933Y-40093500D01*
X137226266Y-41642833D02*
X137226266Y-40093500D01*
X137226266Y-39318833D02*
X137321504Y-39429500D01*
X137226266Y-39540166D01*
X137131028Y-39429500D01*
X137226266Y-39318833D01*
X137226266Y-39540166D01*
X136464361Y-40093500D02*
X135988171Y-41642833D01*
X135511980Y-40093500D01*
X133988171Y-41532166D02*
X134178647Y-41642833D01*
X134559600Y-41642833D01*
X134750076Y-41532166D01*
X134845314Y-41310833D01*
X134845314Y-40425500D01*
X134750076Y-40204166D01*
X134559600Y-40093500D01*
X134178647Y-40093500D01*
X133988171Y-40204166D01*
X133892933Y-40425500D01*
X133892933Y-40646833D01*
X134845314Y-40868166D01*
X133035790Y-41642833D02*
X133035790Y-40093500D01*
X133035790Y-40536166D02*
X132940552Y-40314833D01*
X132845314Y-40204166D01*
X132654838Y-40093500D01*
X132464361Y-40093500D01*
X129607219Y-40425500D02*
X129321504Y-40536166D01*
X129226266Y-40646833D01*
X129131028Y-40868166D01*
X129131028Y-41200166D01*
X129226266Y-41421500D01*
X129321504Y-41532166D01*
X129511980Y-41642833D01*
X130273885Y-41642833D01*
X130273885Y-39318833D01*
X129607219Y-39318833D01*
X129416742Y-39429500D01*
X129321504Y-39540166D01*
X129226266Y-39761500D01*
X129226266Y-39982833D01*
X129321504Y-40204166D01*
X129416742Y-40314833D01*
X129607219Y-40425500D01*
X130273885Y-40425500D01*
X128273885Y-41642833D02*
X128273885Y-40093500D01*
X128273885Y-40536166D02*
X128178647Y-40314833D01*
X128083409Y-40204166D01*
X127892933Y-40093500D01*
X127702457Y-40093500D01*
X126273885Y-41532166D02*
X126464361Y-41642833D01*
X126845314Y-41642833D01*
X127035790Y-41532166D01*
X127131028Y-41310833D01*
X127131028Y-40425500D01*
X127035790Y-40204166D01*
X126845314Y-40093500D01*
X126464361Y-40093500D01*
X126273885Y-40204166D01*
X126178647Y-40425500D01*
X126178647Y-40646833D01*
X127131028Y-40868166D01*
X124464361Y-41642833D02*
X124464361Y-40425500D01*
X124559600Y-40204166D01*
X124750076Y-40093500D01*
X125131028Y-40093500D01*
X125321504Y-40204166D01*
X124464361Y-41532166D02*
X124654838Y-41642833D01*
X125131028Y-41642833D01*
X125321504Y-41532166D01*
X125416742Y-41310833D01*
X125416742Y-41089500D01*
X125321504Y-40868166D01*
X125131028Y-40757500D01*
X124654838Y-40757500D01*
X124464361Y-40646833D01*
X123511980Y-41642833D02*
X123511980Y-39318833D01*
X123321504Y-40757500D02*
X122750076Y-41642833D01*
X122750076Y-40093500D02*
X123511980Y-40978833D01*
X121607219Y-41642833D02*
X121797695Y-41532166D01*
X121892933Y-41421500D01*
X121988171Y-41200166D01*
X121988171Y-40536166D01*
X121892933Y-40314833D01*
X121797695Y-40204166D01*
X121607219Y-40093500D01*
X121321504Y-40093500D01*
X121131028Y-40204166D01*
X121035790Y-40314833D01*
X120940552Y-40536166D01*
X120940552Y-41200166D01*
X121035790Y-41421500D01*
X121131028Y-41532166D01*
X121321504Y-41642833D01*
X121607219Y-41642833D01*
X119226266Y-40093500D02*
X119226266Y-41642833D01*
X120083409Y-40093500D02*
X120083409Y-41310833D01*
X119988171Y-41532166D01*
X119797695Y-41642833D01*
X119511980Y-41642833D01*
X119321504Y-41532166D01*
X119226266Y-41421500D01*
X118559600Y-40093500D02*
X117797695Y-40093500D01*
X118273885Y-39318833D02*
X118273885Y-41310833D01*
X118178647Y-41532166D01*
X117988171Y-41642833D01*
X117797695Y-41642833D01*
D14*
X122207095Y-67398166D02*
X121407095Y-67131500D01*
X122207095Y-66864833D01*
X121483285Y-66141023D02*
X121445190Y-66179119D01*
X121407095Y-66293404D01*
X121407095Y-66369595D01*
X121445190Y-66483880D01*
X121521380Y-66560071D01*
X121597571Y-66598166D01*
X121749952Y-66636261D01*
X121864238Y-66636261D01*
X122016619Y-66598166D01*
X122092809Y-66560071D01*
X122169000Y-66483880D01*
X122207095Y-66369595D01*
X122207095Y-66293404D01*
X122169000Y-66179119D01*
X122130904Y-66141023D01*
X121483285Y-65341023D02*
X121445190Y-65379119D01*
X121407095Y-65493404D01*
X121407095Y-65569595D01*
X121445190Y-65683880D01*
X121521380Y-65760071D01*
X121597571Y-65798166D01*
X121749952Y-65836261D01*
X121864238Y-65836261D01*
X122016619Y-65798166D01*
X122092809Y-65760071D01*
X122169000Y-65683880D01*
X122207095Y-65569595D01*
X122207095Y-65493404D01*
X122169000Y-65379119D01*
X122130904Y-65341023D01*
D15*
X170154356Y-109403111D02*
X170204552Y-109453306D01*
X170355137Y-109503501D01*
X170455528Y-109503501D01*
X170606114Y-109453306D01*
X170706504Y-109352916D01*
X170756699Y-109252525D01*
X170806895Y-109051744D01*
X170806895Y-108901158D01*
X170756699Y-108700377D01*
X170706504Y-108599987D01*
X170606114Y-108499597D01*
X170455528Y-108449401D01*
X170355137Y-108449401D01*
X170204552Y-108499597D01*
X170154356Y-108549792D01*
X169552014Y-109503501D02*
X169652404Y-109453306D01*
X169702599Y-109403111D01*
X169752795Y-109302720D01*
X169752795Y-109001549D01*
X169702599Y-108901158D01*
X169652404Y-108850963D01*
X169552014Y-108800768D01*
X169401428Y-108800768D01*
X169301037Y-108850963D01*
X169250842Y-108901158D01*
X169200647Y-109001549D01*
X169200647Y-109302720D01*
X169250842Y-109403111D01*
X169301037Y-109453306D01*
X169401428Y-109503501D01*
X169552014Y-109503501D01*
X168748890Y-108800768D02*
X168748890Y-109854868D01*
X168748890Y-108850963D02*
X168648499Y-108800768D01*
X168447718Y-108800768D01*
X168347328Y-108850963D01*
X168297133Y-108901158D01*
X168246937Y-109001549D01*
X168246937Y-109302720D01*
X168297133Y-109403111D01*
X168347328Y-109453306D01*
X168447718Y-109503501D01*
X168648499Y-109503501D01*
X168748890Y-109453306D01*
X167895571Y-108800768D02*
X167644595Y-109503501D01*
X167393618Y-108800768D02*
X167644595Y-109503501D01*
X167744985Y-109754477D01*
X167795180Y-109804673D01*
X167895571Y-109854868D01*
X166992056Y-109503501D02*
X166992056Y-108800768D01*
X166992056Y-109001549D02*
X166941861Y-108901158D01*
X166891666Y-108850963D01*
X166791276Y-108800768D01*
X166690885Y-108800768D01*
X166339518Y-109503501D02*
X166339518Y-108800768D01*
X166339518Y-108449401D02*
X166389714Y-108499597D01*
X166339518Y-108549792D01*
X166289323Y-108499597D01*
X166339518Y-108449401D01*
X166339518Y-108549792D01*
X165385809Y-108800768D02*
X165385809Y-109654087D01*
X165436004Y-109754477D01*
X165486199Y-109804673D01*
X165586590Y-109854868D01*
X165737176Y-109854868D01*
X165837566Y-109804673D01*
X165385809Y-109453306D02*
X165486199Y-109503501D01*
X165686980Y-109503501D01*
X165787371Y-109453306D01*
X165837566Y-109403111D01*
X165887761Y-109302720D01*
X165887761Y-109001549D01*
X165837566Y-108901158D01*
X165787371Y-108850963D01*
X165686980Y-108800768D01*
X165486199Y-108800768D01*
X165385809Y-108850963D01*
X164883856Y-109503501D02*
X164883856Y-108449401D01*
X164432099Y-109503501D02*
X164432099Y-108951354D01*
X164482295Y-108850963D01*
X164582685Y-108800768D01*
X164733271Y-108800768D01*
X164833661Y-108850963D01*
X164883856Y-108901158D01*
X164080733Y-108800768D02*
X163679171Y-108800768D01*
X163930147Y-108449401D02*
X163930147Y-109352916D01*
X163879952Y-109453306D01*
X163779561Y-109503501D01*
X163679171Y-109503501D01*
X162574876Y-108549792D02*
X162524680Y-108499597D01*
X162424290Y-108449401D01*
X162173314Y-108449401D01*
X162072923Y-108499597D01*
X162022728Y-108549792D01*
X161972533Y-108650182D01*
X161972533Y-108750573D01*
X162022728Y-108901158D01*
X162625071Y-109503501D01*
X161972533Y-109503501D01*
X161319995Y-108449401D02*
X161219604Y-108449401D01*
X161119214Y-108499597D01*
X161069018Y-108549792D01*
X161018823Y-108650182D01*
X160968628Y-108850963D01*
X160968628Y-109101939D01*
X161018823Y-109302720D01*
X161069018Y-109403111D01*
X161119214Y-109453306D01*
X161219604Y-109503501D01*
X161319995Y-109503501D01*
X161420385Y-109453306D01*
X161470580Y-109403111D01*
X161520776Y-109302720D01*
X161570971Y-109101939D01*
X161570971Y-108850963D01*
X161520776Y-108650182D01*
X161470580Y-108549792D01*
X161420385Y-108499597D01*
X161319995Y-108449401D01*
X159964723Y-109503501D02*
X160567066Y-109503501D01*
X160265895Y-109503501D02*
X160265895Y-108449401D01*
X160366285Y-108599987D01*
X160466676Y-108700377D01*
X160567066Y-108750573D01*
X159462771Y-109503501D02*
X159261990Y-109503501D01*
X159161599Y-109453306D01*
X159111404Y-109403111D01*
X159011014Y-109252525D01*
X158960818Y-109051744D01*
X158960818Y-108650182D01*
X159011014Y-108549792D01*
X159061209Y-108499597D01*
X159161599Y-108449401D01*
X159362380Y-108449401D01*
X159462771Y-108499597D01*
X159512966Y-108549792D01*
X159563161Y-108650182D01*
X159563161Y-108901158D01*
X159512966Y-109001549D01*
X159462771Y-109051744D01*
X159362380Y-109101939D01*
X159161599Y-109101939D01*
X159061209Y-109051744D01*
X159011014Y-109001549D01*
X158960818Y-108901158D01*
X158509061Y-109101939D02*
X157705937Y-109101939D01*
X157254180Y-108549792D02*
X157203985Y-108499597D01*
X157103595Y-108449401D01*
X156852618Y-108449401D01*
X156752228Y-108499597D01*
X156702033Y-108549792D01*
X156651837Y-108650182D01*
X156651837Y-108750573D01*
X156702033Y-108901158D01*
X157304376Y-109503501D01*
X156651837Y-109503501D01*
X155999299Y-108449401D02*
X155898909Y-108449401D01*
X155798518Y-108499597D01*
X155748323Y-108549792D01*
X155698128Y-108650182D01*
X155647933Y-108850963D01*
X155647933Y-109101939D01*
X155698128Y-109302720D01*
X155748323Y-109403111D01*
X155798518Y-109453306D01*
X155898909Y-109503501D01*
X155999299Y-109503501D01*
X156099690Y-109453306D01*
X156149885Y-109403111D01*
X156200080Y-109302720D01*
X156250276Y-109101939D01*
X156250276Y-108850963D01*
X156200080Y-108650182D01*
X156149885Y-108549792D01*
X156099690Y-108499597D01*
X155999299Y-108449401D01*
X155246371Y-108549792D02*
X155196176Y-108499597D01*
X155095785Y-108449401D01*
X154844809Y-108449401D01*
X154744418Y-108499597D01*
X154694223Y-108549792D01*
X154644028Y-108650182D01*
X154644028Y-108750573D01*
X154694223Y-108901158D01*
X155296566Y-109503501D01*
X154644028Y-109503501D01*
X153640123Y-109503501D02*
X154242466Y-109503501D01*
X153941295Y-109503501D02*
X153941295Y-108449401D01*
X154041685Y-108599987D01*
X154142076Y-108700377D01*
X154242466Y-108750573D01*
X152435437Y-109453306D02*
X152284852Y-109503501D01*
X152033876Y-109503501D01*
X151933485Y-109453306D01*
X151883290Y-109403111D01*
X151833095Y-109302720D01*
X151833095Y-109202330D01*
X151883290Y-109101939D01*
X151933485Y-109051744D01*
X152033876Y-109001549D01*
X152234656Y-108951354D01*
X152335047Y-108901158D01*
X152385242Y-108850963D01*
X152435437Y-108750573D01*
X152435437Y-108650182D01*
X152385242Y-108549792D01*
X152335047Y-108499597D01*
X152234656Y-108449401D01*
X151983680Y-108449401D01*
X151833095Y-108499597D01*
X150929580Y-108800768D02*
X150929580Y-109503501D01*
X151381337Y-108800768D02*
X151381337Y-109352916D01*
X151331142Y-109453306D01*
X151230752Y-109503501D01*
X151080166Y-109503501D01*
X150979776Y-109453306D01*
X150929580Y-109403111D01*
X150427628Y-108800768D02*
X150427628Y-109854868D01*
X150427628Y-108850963D02*
X150327237Y-108800768D01*
X150126456Y-108800768D01*
X150026066Y-108850963D01*
X149975871Y-108901158D01*
X149925676Y-109001549D01*
X149925676Y-109302720D01*
X149975871Y-109403111D01*
X150026066Y-109453306D01*
X150126456Y-109503501D01*
X150327237Y-109503501D01*
X150427628Y-109453306D01*
X149072356Y-109453306D02*
X149172747Y-109503501D01*
X149373528Y-109503501D01*
X149473918Y-109453306D01*
X149524114Y-109352916D01*
X149524114Y-108951354D01*
X149473918Y-108850963D01*
X149373528Y-108800768D01*
X149172747Y-108800768D01*
X149072356Y-108850963D01*
X149022161Y-108951354D01*
X149022161Y-109051744D01*
X149524114Y-109152135D01*
X148570404Y-109503501D02*
X148570404Y-108800768D01*
X148570404Y-109001549D02*
X148520209Y-108901158D01*
X148470014Y-108850963D01*
X148369623Y-108800768D01*
X148269233Y-108800768D01*
X147917866Y-109503501D02*
X147917866Y-108449401D01*
X147917866Y-108951354D02*
X147315523Y-108951354D01*
X147315523Y-109503501D02*
X147315523Y-108449401D01*
X146662985Y-109503501D02*
X146763376Y-109453306D01*
X146813571Y-109403111D01*
X146863766Y-109302720D01*
X146863766Y-109001549D01*
X146813571Y-108901158D01*
X146763376Y-108850963D01*
X146662985Y-108800768D01*
X146512399Y-108800768D01*
X146412009Y-108850963D01*
X146361814Y-108901158D01*
X146311618Y-109001549D01*
X146311618Y-109302720D01*
X146361814Y-109403111D01*
X146412009Y-109453306D01*
X146512399Y-109503501D01*
X146662985Y-109503501D01*
X145408104Y-108800768D02*
X145408104Y-109503501D01*
X145859861Y-108800768D02*
X145859861Y-109352916D01*
X145809666Y-109453306D01*
X145709276Y-109503501D01*
X145558690Y-109503501D01*
X145458299Y-109453306D01*
X145408104Y-109403111D01*
X144956347Y-109453306D02*
X144855956Y-109503501D01*
X144655176Y-109503501D01*
X144554785Y-109453306D01*
X144504590Y-109352916D01*
X144504590Y-109302720D01*
X144554785Y-109202330D01*
X144655176Y-109152135D01*
X144805761Y-109152135D01*
X144906152Y-109101939D01*
X144956347Y-109001549D01*
X144956347Y-108951354D01*
X144906152Y-108850963D01*
X144805761Y-108800768D01*
X144655176Y-108800768D01*
X144554785Y-108850963D01*
X143651271Y-109453306D02*
X143751661Y-109503501D01*
X143952442Y-109503501D01*
X144052833Y-109453306D01*
X144103028Y-109352916D01*
X144103028Y-108951354D01*
X144052833Y-108850963D01*
X143952442Y-108800768D01*
X143751661Y-108800768D01*
X143651271Y-108850963D01*
X143601076Y-108951354D01*
X143601076Y-109051744D01*
X144103028Y-109152135D01*
X142396390Y-109202330D02*
X141894437Y-109202330D01*
X142496780Y-109503501D02*
X142145414Y-108449401D01*
X141794047Y-109503501D01*
X140990923Y-108800768D02*
X140990923Y-109503501D01*
X141442680Y-108800768D02*
X141442680Y-109352916D01*
X141392485Y-109453306D01*
X141292095Y-109503501D01*
X141141509Y-109503501D01*
X141041118Y-109453306D01*
X140990923Y-109403111D01*
X140639556Y-108800768D02*
X140237995Y-108800768D01*
X140488971Y-108449401D02*
X140488971Y-109352916D01*
X140438776Y-109453306D01*
X140338385Y-109503501D01*
X140237995Y-109503501D01*
X139736042Y-109503501D02*
X139836433Y-109453306D01*
X139886628Y-109403111D01*
X139936823Y-109302720D01*
X139936823Y-109001549D01*
X139886628Y-108901158D01*
X139836433Y-108850963D01*
X139736042Y-108800768D01*
X139585456Y-108800768D01*
X139485066Y-108850963D01*
X139434871Y-108901158D01*
X139384676Y-109001549D01*
X139384676Y-109302720D01*
X139434871Y-109403111D01*
X139485066Y-109453306D01*
X139585456Y-109503501D01*
X139736042Y-109503501D01*
X138932918Y-109503501D02*
X138932918Y-108800768D01*
X138932918Y-108901158D02*
X138882723Y-108850963D01*
X138782333Y-108800768D01*
X138631747Y-108800768D01*
X138531356Y-108850963D01*
X138481161Y-108951354D01*
X138481161Y-109503501D01*
X138481161Y-108951354D02*
X138430966Y-108850963D01*
X138330576Y-108800768D01*
X138179990Y-108800768D01*
X138079599Y-108850963D01*
X138029404Y-108951354D01*
X138029404Y-109503501D01*
X137075695Y-109503501D02*
X137075695Y-108951354D01*
X137125890Y-108850963D01*
X137226280Y-108800768D01*
X137427061Y-108800768D01*
X137527452Y-108850963D01*
X137075695Y-109453306D02*
X137176085Y-109503501D01*
X137427061Y-109503501D01*
X137527452Y-109453306D01*
X137577647Y-109352916D01*
X137577647Y-109252525D01*
X137527452Y-109152135D01*
X137427061Y-109101939D01*
X137176085Y-109101939D01*
X137075695Y-109051744D01*
X136724328Y-108800768D02*
X136322766Y-108800768D01*
X136573742Y-108449401D02*
X136573742Y-109352916D01*
X136523547Y-109453306D01*
X136423156Y-109503501D01*
X136322766Y-109503501D01*
X135971399Y-109503501D02*
X135971399Y-108800768D01*
X135971399Y-108449401D02*
X136021595Y-108499597D01*
X135971399Y-108549792D01*
X135921204Y-108499597D01*
X135971399Y-108449401D01*
X135971399Y-108549792D01*
X135318861Y-109503501D02*
X135419252Y-109453306D01*
X135469447Y-109403111D01*
X135519642Y-109302720D01*
X135519642Y-109001549D01*
X135469447Y-108901158D01*
X135419252Y-108850963D01*
X135318861Y-108800768D01*
X135168276Y-108800768D01*
X135067885Y-108850963D01*
X135017690Y-108901158D01*
X134967495Y-109001549D01*
X134967495Y-109302720D01*
X135017690Y-109403111D01*
X135067885Y-109453306D01*
X135168276Y-109503501D01*
X135318861Y-109503501D01*
X134515737Y-108800768D02*
X134515737Y-109503501D01*
X134515737Y-108901158D02*
X134465542Y-108850963D01*
X134365152Y-108800768D01*
X134214566Y-108800768D01*
X134114176Y-108850963D01*
X134063980Y-108951354D01*
X134063980Y-109503501D01*
X132758904Y-109503501D02*
X132758904Y-108449401D01*
X132357342Y-108449401D01*
X132256952Y-108499597D01*
X132206756Y-108549792D01*
X132156561Y-108650182D01*
X132156561Y-108800768D01*
X132206756Y-108901158D01*
X132256952Y-108951354D01*
X132357342Y-109001549D01*
X132758904Y-109001549D01*
X131855390Y-108800768D02*
X131453828Y-108800768D01*
X131704804Y-108449401D02*
X131704804Y-109352916D01*
X131654609Y-109453306D01*
X131554218Y-109503501D01*
X131453828Y-109503501D01*
X131202852Y-108800768D02*
X130951876Y-109503501D01*
X130700899Y-108800768D02*
X130951876Y-109503501D01*
X131052266Y-109754477D01*
X131102461Y-109804673D01*
X131202852Y-109854868D01*
X128994261Y-109503501D02*
X129496214Y-109503501D01*
X129496214Y-108449401D01*
X128793480Y-108800768D02*
X128391918Y-108800768D01*
X128642895Y-108449401D02*
X128642895Y-109352916D01*
X128592699Y-109453306D01*
X128492309Y-109503501D01*
X128391918Y-109503501D01*
X127588795Y-109503501D02*
X127588795Y-108449401D01*
X127588795Y-109453306D02*
X127689185Y-109503501D01*
X127889966Y-109503501D01*
X127990356Y-109453306D01*
X128040552Y-109403111D01*
X128090747Y-109302720D01*
X128090747Y-109001549D01*
X128040552Y-108901158D01*
X127990356Y-108850963D01*
X127889966Y-108800768D01*
X127689185Y-108800768D01*
X127588795Y-108850963D01*
X170154356Y-112897703D02*
X170505723Y-112395751D01*
X170756699Y-112897703D02*
X170756699Y-111843603D01*
X170355137Y-111843603D01*
X170254747Y-111893799D01*
X170204552Y-111943994D01*
X170154356Y-112044384D01*
X170154356Y-112194970D01*
X170204552Y-112295360D01*
X170254747Y-112345556D01*
X170355137Y-112395751D01*
X170756699Y-112395751D01*
X169301037Y-112847508D02*
X169401428Y-112897703D01*
X169602209Y-112897703D01*
X169702599Y-112847508D01*
X169752795Y-112747118D01*
X169752795Y-112345556D01*
X169702599Y-112245165D01*
X169602209Y-112194970D01*
X169401428Y-112194970D01*
X169301037Y-112245165D01*
X169250842Y-112345556D01*
X169250842Y-112445946D01*
X169752795Y-112546337D01*
X168648499Y-112897703D02*
X168748890Y-112847508D01*
X168799085Y-112747118D01*
X168799085Y-111843603D01*
X167845376Y-112847508D02*
X167945766Y-112897703D01*
X168146547Y-112897703D01*
X168246937Y-112847508D01*
X168297133Y-112747118D01*
X168297133Y-112345556D01*
X168246937Y-112245165D01*
X168146547Y-112194970D01*
X167945766Y-112194970D01*
X167845376Y-112245165D01*
X167795180Y-112345556D01*
X167795180Y-112445946D01*
X168297133Y-112546337D01*
X166891666Y-112897703D02*
X166891666Y-112345556D01*
X166941861Y-112245165D01*
X167042252Y-112194970D01*
X167243033Y-112194970D01*
X167343423Y-112245165D01*
X166891666Y-112847508D02*
X166992056Y-112897703D01*
X167243033Y-112897703D01*
X167343423Y-112847508D01*
X167393618Y-112747118D01*
X167393618Y-112646727D01*
X167343423Y-112546337D01*
X167243033Y-112496141D01*
X166992056Y-112496141D01*
X166891666Y-112445946D01*
X166439909Y-112847508D02*
X166339518Y-112897703D01*
X166138737Y-112897703D01*
X166038347Y-112847508D01*
X165988152Y-112747118D01*
X165988152Y-112696922D01*
X166038347Y-112596532D01*
X166138737Y-112546337D01*
X166289323Y-112546337D01*
X166389714Y-112496141D01*
X166439909Y-112395751D01*
X166439909Y-112345556D01*
X166389714Y-112245165D01*
X166289323Y-112194970D01*
X166138737Y-112194970D01*
X166038347Y-112245165D01*
X165134833Y-112847508D02*
X165235223Y-112897703D01*
X165436004Y-112897703D01*
X165536395Y-112847508D01*
X165586590Y-112747118D01*
X165586590Y-112345556D01*
X165536395Y-112245165D01*
X165436004Y-112194970D01*
X165235223Y-112194970D01*
X165134833Y-112245165D01*
X165084637Y-112345556D01*
X165084637Y-112445946D01*
X165586590Y-112546337D01*
X164181123Y-112897703D02*
X164181123Y-111843603D01*
X164181123Y-112847508D02*
X164281514Y-112897703D01*
X164482295Y-112897703D01*
X164582685Y-112847508D01*
X164632880Y-112797313D01*
X164683076Y-112696922D01*
X164683076Y-112395751D01*
X164632880Y-112295360D01*
X164582685Y-112245165D01*
X164482295Y-112194970D01*
X164281514Y-112194970D01*
X164181123Y-112245165D01*
X162424290Y-112194970D02*
X162424290Y-112897703D01*
X162876047Y-112194970D02*
X162876047Y-112747118D01*
X162825852Y-112847508D01*
X162725461Y-112897703D01*
X162574876Y-112897703D01*
X162474485Y-112847508D01*
X162424290Y-112797313D01*
X161922337Y-112194970D02*
X161922337Y-112897703D01*
X161922337Y-112295360D02*
X161872142Y-112245165D01*
X161771752Y-112194970D01*
X161621166Y-112194970D01*
X161520776Y-112245165D01*
X161470580Y-112345556D01*
X161470580Y-112897703D01*
X160516871Y-112897703D02*
X160516871Y-111843603D01*
X160516871Y-112847508D02*
X160617261Y-112897703D01*
X160818042Y-112897703D01*
X160918433Y-112847508D01*
X160968628Y-112797313D01*
X161018823Y-112696922D01*
X161018823Y-112395751D01*
X160968628Y-112295360D01*
X160918433Y-112245165D01*
X160818042Y-112194970D01*
X160617261Y-112194970D01*
X160516871Y-112245165D01*
X159613356Y-112847508D02*
X159713747Y-112897703D01*
X159914528Y-112897703D01*
X160014918Y-112847508D01*
X160065114Y-112747118D01*
X160065114Y-112345556D01*
X160014918Y-112245165D01*
X159914528Y-112194970D01*
X159713747Y-112194970D01*
X159613356Y-112245165D01*
X159563161Y-112345556D01*
X159563161Y-112445946D01*
X160065114Y-112546337D01*
X159111404Y-112897703D02*
X159111404Y-112194970D01*
X159111404Y-112395751D02*
X159061209Y-112295360D01*
X159011014Y-112245165D01*
X158910623Y-112194970D01*
X158810233Y-112194970D01*
X157806328Y-112194970D02*
X157404766Y-112194970D01*
X157655742Y-111843603D02*
X157655742Y-112747118D01*
X157605547Y-112847508D01*
X157505156Y-112897703D01*
X157404766Y-112897703D01*
X157053399Y-112897703D02*
X157053399Y-111843603D01*
X156601642Y-112897703D02*
X156601642Y-112345556D01*
X156651837Y-112245165D01*
X156752228Y-112194970D01*
X156902814Y-112194970D01*
X157003204Y-112245165D01*
X157053399Y-112295360D01*
X155698128Y-112847508D02*
X155798518Y-112897703D01*
X155999299Y-112897703D01*
X156099690Y-112847508D01*
X156149885Y-112747118D01*
X156149885Y-112345556D01*
X156099690Y-112245165D01*
X155999299Y-112194970D01*
X155798518Y-112194970D01*
X155698128Y-112245165D01*
X155647933Y-112345556D01*
X155647933Y-112445946D01*
X156149885Y-112546337D01*
X154543637Y-112194970D02*
X154142076Y-112194970D01*
X154393052Y-111843603D02*
X154393052Y-112747118D01*
X154342856Y-112847508D01*
X154242466Y-112897703D01*
X154142076Y-112897703D01*
X153389147Y-112847508D02*
X153489537Y-112897703D01*
X153690318Y-112897703D01*
X153790709Y-112847508D01*
X153840904Y-112747118D01*
X153840904Y-112345556D01*
X153790709Y-112245165D01*
X153690318Y-112194970D01*
X153489537Y-112194970D01*
X153389147Y-112245165D01*
X153338952Y-112345556D01*
X153338952Y-112445946D01*
X153840904Y-112546337D01*
X152887195Y-112897703D02*
X152887195Y-112194970D01*
X152887195Y-112395751D02*
X152836999Y-112295360D01*
X152786804Y-112245165D01*
X152686414Y-112194970D01*
X152586023Y-112194970D01*
X152234656Y-112897703D02*
X152234656Y-112194970D01*
X152234656Y-112295360D02*
X152184461Y-112245165D01*
X152084071Y-112194970D01*
X151933485Y-112194970D01*
X151833095Y-112245165D01*
X151782899Y-112345556D01*
X151782899Y-112897703D01*
X151782899Y-112345556D02*
X151732704Y-112245165D01*
X151632314Y-112194970D01*
X151481728Y-112194970D01*
X151381337Y-112245165D01*
X151331142Y-112345556D01*
X151331142Y-112897703D01*
X150879385Y-112847508D02*
X150778995Y-112897703D01*
X150578214Y-112897703D01*
X150477823Y-112847508D01*
X150427628Y-112747118D01*
X150427628Y-112696922D01*
X150477823Y-112596532D01*
X150578214Y-112546337D01*
X150728799Y-112546337D01*
X150829190Y-112496141D01*
X150879385Y-112395751D01*
X150879385Y-112345556D01*
X150829190Y-112245165D01*
X150728799Y-112194970D01*
X150578214Y-112194970D01*
X150477823Y-112245165D01*
X149022161Y-112897703D02*
X149122552Y-112847508D01*
X149172747Y-112797313D01*
X149222942Y-112696922D01*
X149222942Y-112395751D01*
X149172747Y-112295360D01*
X149122552Y-112245165D01*
X149022161Y-112194970D01*
X148871576Y-112194970D01*
X148771185Y-112245165D01*
X148720990Y-112295360D01*
X148670795Y-112395751D01*
X148670795Y-112696922D01*
X148720990Y-112797313D01*
X148771185Y-112847508D01*
X148871576Y-112897703D01*
X149022161Y-112897703D01*
X148369623Y-112194970D02*
X147968061Y-112194970D01*
X148219037Y-112897703D02*
X148219037Y-111994189D01*
X148168842Y-111893799D01*
X148068452Y-111843603D01*
X147968061Y-111843603D01*
X146964156Y-112194970D02*
X146562595Y-112194970D01*
X146813571Y-111843603D02*
X146813571Y-112747118D01*
X146763376Y-112847508D01*
X146662985Y-112897703D01*
X146562595Y-112897703D01*
X146211228Y-112897703D02*
X146211228Y-111843603D01*
X145759471Y-112897703D02*
X145759471Y-112345556D01*
X145809666Y-112245165D01*
X145910056Y-112194970D01*
X146060642Y-112194970D01*
X146161033Y-112245165D01*
X146211228Y-112295360D01*
X144855956Y-112847508D02*
X144956347Y-112897703D01*
X145157128Y-112897703D01*
X145257518Y-112847508D01*
X145307714Y-112747118D01*
X145307714Y-112345556D01*
X145257518Y-112245165D01*
X145157128Y-112194970D01*
X144956347Y-112194970D01*
X144855956Y-112245165D01*
X144805761Y-112345556D01*
X144805761Y-112445946D01*
X145307714Y-112546337D01*
X143701466Y-111843603D02*
X143099123Y-111843603D01*
X143400295Y-112897703D02*
X143400295Y-111843603D01*
X142797952Y-112596532D02*
X142295999Y-112596532D01*
X142898342Y-112897703D02*
X142546976Y-111843603D01*
X142195609Y-112897703D01*
X141844242Y-112897703D02*
X141844242Y-111843603D01*
X141442680Y-111843603D01*
X141342290Y-111893799D01*
X141292095Y-111943994D01*
X141241899Y-112044384D01*
X141241899Y-112194970D01*
X141292095Y-112295360D01*
X141342290Y-112345556D01*
X141442680Y-112395751D01*
X141844242Y-112395751D01*
X140187799Y-112897703D02*
X140539166Y-112395751D01*
X140790142Y-112897703D02*
X140790142Y-111843603D01*
X140388580Y-111843603D01*
X140288190Y-111893799D01*
X140237995Y-111943994D01*
X140187799Y-112044384D01*
X140187799Y-112194970D01*
X140237995Y-112295360D01*
X140288190Y-112345556D01*
X140388580Y-112395751D01*
X140790142Y-112395751D01*
X170555918Y-113540704D02*
X170355137Y-113540704D01*
X170254747Y-113590900D01*
X170154356Y-113691290D01*
X170104161Y-113892071D01*
X170104161Y-114243438D01*
X170154356Y-114444219D01*
X170254747Y-114544609D01*
X170355137Y-114594804D01*
X170555918Y-114594804D01*
X170656309Y-114544609D01*
X170756699Y-114444219D01*
X170806895Y-114243438D01*
X170806895Y-113892071D01*
X170756699Y-113691290D01*
X170656309Y-113590900D01*
X170555918Y-113540704D01*
X169652404Y-113892071D02*
X169652404Y-114946171D01*
X169652404Y-113942266D02*
X169552014Y-113892071D01*
X169351233Y-113892071D01*
X169250842Y-113942266D01*
X169200647Y-113992461D01*
X169150452Y-114092852D01*
X169150452Y-114394023D01*
X169200647Y-114494414D01*
X169250842Y-114544609D01*
X169351233Y-114594804D01*
X169552014Y-114594804D01*
X169652404Y-114544609D01*
X168297133Y-114544609D02*
X168397523Y-114594804D01*
X168598304Y-114594804D01*
X168698695Y-114544609D01*
X168748890Y-114444219D01*
X168748890Y-114042657D01*
X168698695Y-113942266D01*
X168598304Y-113892071D01*
X168397523Y-113892071D01*
X168297133Y-113942266D01*
X168246937Y-114042657D01*
X168246937Y-114143047D01*
X168748890Y-114243438D01*
X167795180Y-113892071D02*
X167795180Y-114594804D01*
X167795180Y-113992461D02*
X167744985Y-113942266D01*
X167644595Y-113892071D01*
X167494009Y-113892071D01*
X167393618Y-113942266D01*
X167343423Y-114042657D01*
X167343423Y-114594804D01*
X166038347Y-114594804D02*
X166038347Y-113540704D01*
X166038347Y-114042657D02*
X165436004Y-114042657D01*
X165436004Y-114594804D02*
X165436004Y-113540704D01*
X164482295Y-114594804D02*
X164482295Y-114042657D01*
X164532490Y-113942266D01*
X164632880Y-113892071D01*
X164833661Y-113892071D01*
X164934052Y-113942266D01*
X164482295Y-114544609D02*
X164582685Y-114594804D01*
X164833661Y-114594804D01*
X164934052Y-114544609D01*
X164984247Y-114444219D01*
X164984247Y-114343828D01*
X164934052Y-114243438D01*
X164833661Y-114193242D01*
X164582685Y-114193242D01*
X164482295Y-114143047D01*
X163980342Y-114594804D02*
X163980342Y-113892071D01*
X163980342Y-114092852D02*
X163930147Y-113992461D01*
X163879952Y-113942266D01*
X163779561Y-113892071D01*
X163679171Y-113892071D01*
X162876047Y-114594804D02*
X162876047Y-113540704D01*
X162876047Y-114544609D02*
X162976437Y-114594804D01*
X163177218Y-114594804D01*
X163277609Y-114544609D01*
X163327804Y-114494414D01*
X163377999Y-114394023D01*
X163377999Y-114092852D01*
X163327804Y-113992461D01*
X163277609Y-113942266D01*
X163177218Y-113892071D01*
X162976437Y-113892071D01*
X162876047Y-113942266D01*
X162474485Y-113892071D02*
X162273704Y-114594804D01*
X162072923Y-114092852D01*
X161872142Y-114594804D01*
X161671361Y-113892071D01*
X160818042Y-114594804D02*
X160818042Y-114042657D01*
X160868237Y-113942266D01*
X160968628Y-113892071D01*
X161169409Y-113892071D01*
X161269799Y-113942266D01*
X160818042Y-114544609D02*
X160918433Y-114594804D01*
X161169409Y-114594804D01*
X161269799Y-114544609D01*
X161319995Y-114444219D01*
X161319995Y-114343828D01*
X161269799Y-114243438D01*
X161169409Y-114193242D01*
X160918433Y-114193242D01*
X160818042Y-114143047D01*
X160316090Y-114594804D02*
X160316090Y-113892071D01*
X160316090Y-114092852D02*
X160265895Y-113992461D01*
X160215699Y-113942266D01*
X160115309Y-113892071D01*
X160014918Y-113892071D01*
X159261990Y-114544609D02*
X159362380Y-114594804D01*
X159563161Y-114594804D01*
X159663552Y-114544609D01*
X159713747Y-114444219D01*
X159713747Y-114042657D01*
X159663552Y-113942266D01*
X159563161Y-113892071D01*
X159362380Y-113892071D01*
X159261990Y-113942266D01*
X159211795Y-114042657D01*
X159211795Y-114143047D01*
X159713747Y-114243438D01*
X157454961Y-114594804D02*
X157956914Y-114594804D01*
X157956914Y-113540704D01*
X157103595Y-114594804D02*
X157103595Y-113892071D01*
X157103595Y-113540704D02*
X157153790Y-113590900D01*
X157103595Y-113641095D01*
X157053399Y-113590900D01*
X157103595Y-113540704D01*
X157103595Y-113641095D01*
X156149885Y-114544609D02*
X156250276Y-114594804D01*
X156451056Y-114594804D01*
X156551447Y-114544609D01*
X156601642Y-114494414D01*
X156651837Y-114394023D01*
X156651837Y-114092852D01*
X156601642Y-113992461D01*
X156551447Y-113942266D01*
X156451056Y-113892071D01*
X156250276Y-113892071D01*
X156149885Y-113942266D01*
X155296566Y-114544609D02*
X155396956Y-114594804D01*
X155597737Y-114594804D01*
X155698128Y-114544609D01*
X155748323Y-114444219D01*
X155748323Y-114042657D01*
X155698128Y-113942266D01*
X155597737Y-113892071D01*
X155396956Y-113892071D01*
X155296566Y-113942266D01*
X155246371Y-114042657D01*
X155246371Y-114143047D01*
X155748323Y-114243438D01*
X154794614Y-113892071D02*
X154794614Y-114594804D01*
X154794614Y-113992461D02*
X154744418Y-113942266D01*
X154644028Y-113892071D01*
X154493442Y-113892071D01*
X154393052Y-113942266D01*
X154342856Y-114042657D01*
X154342856Y-114594804D01*
X153891099Y-114544609D02*
X153790709Y-114594804D01*
X153589928Y-114594804D01*
X153489537Y-114544609D01*
X153439342Y-114444219D01*
X153439342Y-114394023D01*
X153489537Y-114293633D01*
X153589928Y-114243438D01*
X153740514Y-114243438D01*
X153840904Y-114193242D01*
X153891099Y-114092852D01*
X153891099Y-114042657D01*
X153840904Y-113942266D01*
X153740514Y-113892071D01*
X153589928Y-113892071D01*
X153489537Y-113942266D01*
X152586023Y-114544609D02*
X152686414Y-114594804D01*
X152887195Y-114594804D01*
X152987585Y-114544609D01*
X153037780Y-114444219D01*
X153037780Y-114042657D01*
X152987585Y-113942266D01*
X152887195Y-113892071D01*
X152686414Y-113892071D01*
X152586023Y-113942266D01*
X152535828Y-114042657D01*
X152535828Y-114143047D01*
X153037780Y-114243438D01*
X152084071Y-114494414D02*
X152033876Y-114544609D01*
X152084071Y-114594804D01*
X152134266Y-114544609D01*
X152084071Y-114494414D01*
X152084071Y-114594804D01*
X152084071Y-113942266D02*
X152033876Y-113992461D01*
X152084071Y-114042657D01*
X152134266Y-113992461D01*
X152084071Y-113942266D01*
X152084071Y-114042657D01*
X150879385Y-113892071D02*
X150678604Y-114594804D01*
X150477823Y-114092852D01*
X150277042Y-114594804D01*
X150076261Y-113892071D01*
X149775090Y-113892071D02*
X149574309Y-114594804D01*
X149373528Y-114092852D01*
X149172747Y-114594804D01*
X148971966Y-113892071D01*
X148670795Y-113892071D02*
X148470014Y-114594804D01*
X148269233Y-114092852D01*
X148068452Y-114594804D01*
X147867671Y-113892071D01*
X147466109Y-114494414D02*
X147415914Y-114544609D01*
X147466109Y-114594804D01*
X147516304Y-114544609D01*
X147466109Y-114494414D01*
X147466109Y-114594804D01*
X147114742Y-113892071D02*
X146713180Y-113892071D01*
X146964156Y-113540704D02*
X146964156Y-114444219D01*
X146913961Y-114544609D01*
X146813571Y-114594804D01*
X146713180Y-114594804D01*
X145910056Y-114594804D02*
X145910056Y-114042657D01*
X145960252Y-113942266D01*
X146060642Y-113892071D01*
X146261423Y-113892071D01*
X146361814Y-113942266D01*
X145910056Y-114544609D02*
X146010447Y-114594804D01*
X146261423Y-114594804D01*
X146361814Y-114544609D01*
X146412009Y-114444219D01*
X146412009Y-114343828D01*
X146361814Y-114243438D01*
X146261423Y-114193242D01*
X146010447Y-114193242D01*
X145910056Y-114143047D01*
X145408104Y-113892071D02*
X145408104Y-114946171D01*
X145408104Y-113942266D02*
X145307714Y-113892071D01*
X145106933Y-113892071D01*
X145006542Y-113942266D01*
X144956347Y-113992461D01*
X144906152Y-114092852D01*
X144906152Y-114394023D01*
X144956347Y-114494414D01*
X145006542Y-114544609D01*
X145106933Y-114594804D01*
X145307714Y-114594804D01*
X145408104Y-114544609D01*
X144454395Y-114594804D02*
X144454395Y-113892071D01*
X144454395Y-114092852D02*
X144404199Y-113992461D01*
X144354004Y-113942266D01*
X144253614Y-113892071D01*
X144153223Y-113892071D01*
X143801856Y-114494414D02*
X143751661Y-114544609D01*
X143801856Y-114594804D01*
X143852052Y-114544609D01*
X143801856Y-114494414D01*
X143801856Y-114594804D01*
X143149318Y-114594804D02*
X143249709Y-114544609D01*
X143299904Y-114494414D01*
X143350099Y-114394023D01*
X143350099Y-114092852D01*
X143299904Y-113992461D01*
X143249709Y-113942266D01*
X143149318Y-113892071D01*
X142998733Y-113892071D01*
X142898342Y-113942266D01*
X142848147Y-113992461D01*
X142797952Y-114092852D01*
X142797952Y-114394023D01*
X142848147Y-114494414D01*
X142898342Y-114544609D01*
X142998733Y-114594804D01*
X143149318Y-114594804D01*
X142346195Y-114594804D02*
X142346195Y-113892071D01*
X142346195Y-114092852D02*
X142295999Y-113992461D01*
X142245804Y-113942266D01*
X142145414Y-113892071D01*
X142045023Y-113892071D01*
X141241899Y-113892071D02*
X141241899Y-114745390D01*
X141292095Y-114845780D01*
X141342290Y-114895976D01*
X141442680Y-114946171D01*
X141593266Y-114946171D01*
X141693656Y-114895976D01*
X141241899Y-114544609D02*
X141342290Y-114594804D01*
X141543071Y-114594804D01*
X141643461Y-114544609D01*
X141693656Y-114494414D01*
X141743852Y-114394023D01*
X141743852Y-114092852D01*
X141693656Y-113992461D01*
X141643461Y-113942266D01*
X141543071Y-113892071D01*
X141342290Y-113892071D01*
X141241899Y-113942266D01*
X139987018Y-113490509D02*
X140890533Y-114845780D01*
X139434871Y-113540704D02*
X139234090Y-113540704D01*
X139133699Y-113590900D01*
X139033309Y-113691290D01*
X138983114Y-113892071D01*
X138983114Y-114243438D01*
X139033309Y-114444219D01*
X139133699Y-114544609D01*
X139234090Y-114594804D01*
X139434871Y-114594804D01*
X139535261Y-114544609D01*
X139635652Y-114444219D01*
X139685847Y-114243438D01*
X139685847Y-113892071D01*
X139635652Y-113691290D01*
X139535261Y-113590900D01*
X139434871Y-113540704D01*
X138531356Y-114594804D02*
X138531356Y-113540704D01*
X138531356Y-114042657D02*
X137929014Y-114042657D01*
X137929014Y-114594804D02*
X137929014Y-113540704D01*
X136925109Y-114594804D02*
X137427061Y-114594804D01*
X137427061Y-113540704D01*
D14*
X118907095Y-66969595D02*
X119288047Y-67236261D01*
X118907095Y-67426738D02*
X119707095Y-67426738D01*
X119707095Y-67121976D01*
X119669000Y-67045785D01*
X119630904Y-67007690D01*
X119554714Y-66969595D01*
X119440428Y-66969595D01*
X119364238Y-67007690D01*
X119326142Y-67045785D01*
X119288047Y-67121976D01*
X119288047Y-67426738D01*
X118945190Y-66664833D02*
X118907095Y-66550547D01*
X118907095Y-66360071D01*
X118945190Y-66283880D01*
X118983285Y-66245785D01*
X119059476Y-66207690D01*
X119135666Y-66207690D01*
X119211857Y-66245785D01*
X119249952Y-66283880D01*
X119288047Y-66360071D01*
X119326142Y-66512452D01*
X119364238Y-66588642D01*
X119402333Y-66626738D01*
X119478523Y-66664833D01*
X119554714Y-66664833D01*
X119630904Y-66626738D01*
X119669000Y-66588642D01*
X119707095Y-66512452D01*
X119707095Y-66321976D01*
X119669000Y-66207690D01*
X119707095Y-65979119D02*
X119707095Y-65521976D01*
X118907095Y-65750547D02*
X119707095Y-65750547D01*
X177830904Y-65957404D02*
X177449952Y-65690738D01*
X177830904Y-65500261D02*
X177030904Y-65500261D01*
X177030904Y-65805023D01*
X177069000Y-65881214D01*
X177107095Y-65919309D01*
X177183285Y-65957404D01*
X177297571Y-65957404D01*
X177373761Y-65919309D01*
X177411857Y-65881214D01*
X177449952Y-65805023D01*
X177449952Y-65500261D01*
X177792809Y-66262166D02*
X177830904Y-66376452D01*
X177830904Y-66566928D01*
X177792809Y-66643119D01*
X177754714Y-66681214D01*
X177678523Y-66719309D01*
X177602333Y-66719309D01*
X177526142Y-66681214D01*
X177488047Y-66643119D01*
X177449952Y-66566928D01*
X177411857Y-66414547D01*
X177373761Y-66338357D01*
X177335666Y-66300261D01*
X177259476Y-66262166D01*
X177183285Y-66262166D01*
X177107095Y-66300261D01*
X177069000Y-66338357D01*
X177030904Y-66414547D01*
X177030904Y-66605023D01*
X177069000Y-66719309D01*
X177030904Y-66947880D02*
X177030904Y-67405023D01*
X177830904Y-67176452D02*
X177030904Y-67176452D01*
D16*
X164567214Y-33529086D02*
X165287214Y-33529086D01*
X164927214Y-33529086D02*
X164927214Y-32269086D01*
X165047214Y-32449086D01*
X165167214Y-32569086D01*
X165287214Y-32629086D01*
X164027214Y-33409086D02*
X163967214Y-33469086D01*
X164027214Y-33529086D01*
X164087214Y-33469086D01*
X164027214Y-33409086D01*
X164027214Y-33529086D01*
X164027214Y-32749086D02*
X163967214Y-32809086D01*
X164027214Y-32869086D01*
X164087214Y-32809086D01*
X164027214Y-32749086D01*
X164027214Y-32869086D01*
X162467214Y-33529086D02*
X162467214Y-32269086D01*
X162167214Y-32269086D01*
X161987214Y-32329086D01*
X161867214Y-32449086D01*
X161807214Y-32569086D01*
X161747214Y-32809086D01*
X161747214Y-32989086D01*
X161807214Y-33229086D01*
X161867214Y-33349086D01*
X161987214Y-33469086D01*
X162167214Y-33529086D01*
X162467214Y-33529086D01*
X160667214Y-33529086D02*
X160667214Y-32869086D01*
X160727214Y-32749086D01*
X160847214Y-32689086D01*
X161087214Y-32689086D01*
X161207214Y-32749086D01*
X160667214Y-33469086D02*
X160787214Y-33529086D01*
X161087214Y-33529086D01*
X161207214Y-33469086D01*
X161267214Y-33349086D01*
X161267214Y-33229086D01*
X161207214Y-33109086D01*
X161087214Y-33049086D01*
X160787214Y-33049086D01*
X160667214Y-32989086D01*
X160247214Y-32689086D02*
X159767214Y-32689086D01*
X160067214Y-32269086D02*
X160067214Y-33349086D01*
X160007214Y-33469086D01*
X159887214Y-33529086D01*
X159767214Y-33529086D01*
X158807214Y-33529086D02*
X158807214Y-32869086D01*
X158867214Y-32749086D01*
X158987214Y-32689086D01*
X159227214Y-32689086D01*
X159347214Y-32749086D01*
X158807214Y-33469086D02*
X158927214Y-33529086D01*
X159227214Y-33529086D01*
X159347214Y-33469086D01*
X159407214Y-33349086D01*
X159407214Y-33229086D01*
X159347214Y-33109086D01*
X159227214Y-33049086D01*
X158927214Y-33049086D01*
X158807214Y-32989086D01*
X156587214Y-33529086D02*
X157307214Y-33529086D01*
X156947214Y-33529086D02*
X156947214Y-32269086D01*
X157067214Y-32449086D01*
X157187214Y-32569086D01*
X157307214Y-32629086D01*
X165287214Y-34417686D02*
X165227214Y-34357686D01*
X165107214Y-34297686D01*
X164807214Y-34297686D01*
X164687214Y-34357686D01*
X164627214Y-34417686D01*
X164567214Y-34537686D01*
X164567214Y-34657686D01*
X164627214Y-34837686D01*
X165347214Y-35557686D01*
X164567214Y-35557686D01*
X164027214Y-35437686D02*
X163967214Y-35497686D01*
X164027214Y-35557686D01*
X164087214Y-35497686D01*
X164027214Y-35437686D01*
X164027214Y-35557686D01*
X164027214Y-34777686D02*
X163967214Y-34837686D01*
X164027214Y-34897686D01*
X164087214Y-34837686D01*
X164027214Y-34777686D01*
X164027214Y-34897686D01*
X162467214Y-35557686D02*
X162467214Y-34297686D01*
X162167214Y-34297686D01*
X161987214Y-34357686D01*
X161867214Y-34477686D01*
X161807214Y-34597686D01*
X161747214Y-34837686D01*
X161747214Y-35017686D01*
X161807214Y-35257686D01*
X161867214Y-35377686D01*
X161987214Y-35497686D01*
X162167214Y-35557686D01*
X162467214Y-35557686D01*
X160667214Y-35557686D02*
X160667214Y-34897686D01*
X160727214Y-34777686D01*
X160847214Y-34717686D01*
X161087214Y-34717686D01*
X161207214Y-34777686D01*
X160667214Y-35497686D02*
X160787214Y-35557686D01*
X161087214Y-35557686D01*
X161207214Y-35497686D01*
X161267214Y-35377686D01*
X161267214Y-35257686D01*
X161207214Y-35137686D01*
X161087214Y-35077686D01*
X160787214Y-35077686D01*
X160667214Y-35017686D01*
X160247214Y-34717686D02*
X159767214Y-34717686D01*
X160067214Y-34297686D02*
X160067214Y-35377686D01*
X160007214Y-35497686D01*
X159887214Y-35557686D01*
X159767214Y-35557686D01*
X158807214Y-35557686D02*
X158807214Y-34897686D01*
X158867214Y-34777686D01*
X158987214Y-34717686D01*
X159227214Y-34717686D01*
X159347214Y-34777686D01*
X158807214Y-35497686D02*
X158927214Y-35557686D01*
X159227214Y-35557686D01*
X159347214Y-35497686D01*
X159407214Y-35377686D01*
X159407214Y-35257686D01*
X159347214Y-35137686D01*
X159227214Y-35077686D01*
X158927214Y-35077686D01*
X158807214Y-35017686D01*
X157307214Y-34417686D02*
X157247214Y-34357686D01*
X157127214Y-34297686D01*
X156827214Y-34297686D01*
X156707214Y-34357686D01*
X156647214Y-34417686D01*
X156587214Y-34537686D01*
X156587214Y-34657686D01*
X156647214Y-34837686D01*
X157367214Y-35557686D01*
X156587214Y-35557686D01*
X165347214Y-36326286D02*
X164567214Y-36326286D01*
X164987214Y-36806286D01*
X164807214Y-36806286D01*
X164687214Y-36866286D01*
X164627214Y-36926286D01*
X164567214Y-37046286D01*
X164567214Y-37346286D01*
X164627214Y-37466286D01*
X164687214Y-37526286D01*
X164807214Y-37586286D01*
X165167214Y-37586286D01*
X165287214Y-37526286D01*
X165347214Y-37466286D01*
X164027214Y-37466286D02*
X163967214Y-37526286D01*
X164027214Y-37586286D01*
X164087214Y-37526286D01*
X164027214Y-37466286D01*
X164027214Y-37586286D01*
X164027214Y-36806286D02*
X163967214Y-36866286D01*
X164027214Y-36926286D01*
X164087214Y-36866286D01*
X164027214Y-36806286D01*
X164027214Y-36926286D01*
X162467214Y-37586286D02*
X162467214Y-36326286D01*
X162167214Y-36326286D01*
X161987214Y-36386286D01*
X161867214Y-36506286D01*
X161807214Y-36626286D01*
X161747214Y-36866286D01*
X161747214Y-37046286D01*
X161807214Y-37286286D01*
X161867214Y-37406286D01*
X161987214Y-37526286D01*
X162167214Y-37586286D01*
X162467214Y-37586286D01*
X160667214Y-37586286D02*
X160667214Y-36926286D01*
X160727214Y-36806286D01*
X160847214Y-36746286D01*
X161087214Y-36746286D01*
X161207214Y-36806286D01*
X160667214Y-37526286D02*
X160787214Y-37586286D01*
X161087214Y-37586286D01*
X161207214Y-37526286D01*
X161267214Y-37406286D01*
X161267214Y-37286286D01*
X161207214Y-37166286D01*
X161087214Y-37106286D01*
X160787214Y-37106286D01*
X160667214Y-37046286D01*
X160247214Y-36746286D02*
X159767214Y-36746286D01*
X160067214Y-36326286D02*
X160067214Y-37406286D01*
X160007214Y-37526286D01*
X159887214Y-37586286D01*
X159767214Y-37586286D01*
X158807214Y-37586286D02*
X158807214Y-36926286D01*
X158867214Y-36806286D01*
X158987214Y-36746286D01*
X159227214Y-36746286D01*
X159347214Y-36806286D01*
X158807214Y-37526286D02*
X158927214Y-37586286D01*
X159227214Y-37586286D01*
X159347214Y-37526286D01*
X159407214Y-37406286D01*
X159407214Y-37286286D01*
X159347214Y-37166286D01*
X159227214Y-37106286D01*
X158927214Y-37106286D01*
X158807214Y-37046286D01*
X157367214Y-36326286D02*
X156587214Y-36326286D01*
X157007214Y-36806286D01*
X156827214Y-36806286D01*
X156707214Y-36866286D01*
X156647214Y-36926286D01*
X156587214Y-37046286D01*
X156587214Y-37346286D01*
X156647214Y-37466286D01*
X156707214Y-37526286D01*
X156827214Y-37586286D01*
X157187214Y-37586286D01*
X157307214Y-37526286D01*
X157367214Y-37466286D01*
X164687214Y-38774886D02*
X164687214Y-39614886D01*
X164987214Y-38294886D02*
X165287214Y-39194886D01*
X164507214Y-39194886D01*
X164027214Y-39494886D02*
X163967214Y-39554886D01*
X164027214Y-39614886D01*
X164087214Y-39554886D01*
X164027214Y-39494886D01*
X164027214Y-39614886D01*
X164027214Y-38834886D02*
X163967214Y-38894886D01*
X164027214Y-38954886D01*
X164087214Y-38894886D01*
X164027214Y-38834886D01*
X164027214Y-38954886D01*
X162647214Y-38354886D02*
X162227214Y-39614886D01*
X161807214Y-38354886D01*
X161387214Y-39614886D02*
X161387214Y-38354886D01*
X160787214Y-39614886D02*
X160787214Y-38354886D01*
X160067214Y-39614886D01*
X160067214Y-38354886D01*
X164627214Y-40383486D02*
X165227214Y-40383486D01*
X165287214Y-40983486D01*
X165227214Y-40923486D01*
X165107214Y-40863486D01*
X164807214Y-40863486D01*
X164687214Y-40923486D01*
X164627214Y-40983486D01*
X164567214Y-41103486D01*
X164567214Y-41403486D01*
X164627214Y-41523486D01*
X164687214Y-41583486D01*
X164807214Y-41643486D01*
X165107214Y-41643486D01*
X165227214Y-41583486D01*
X165287214Y-41523486D01*
X164027214Y-41523486D02*
X163967214Y-41583486D01*
X164027214Y-41643486D01*
X164087214Y-41583486D01*
X164027214Y-41523486D01*
X164027214Y-41643486D01*
X164027214Y-40863486D02*
X163967214Y-40923486D01*
X164027214Y-40983486D01*
X164087214Y-40923486D01*
X164027214Y-40863486D01*
X164027214Y-40983486D01*
X162647214Y-40383486D02*
X162227214Y-41643486D01*
X161807214Y-40383486D01*
X161387214Y-41643486D02*
X161387214Y-40383486D01*
X160787214Y-41643486D02*
X160787214Y-40383486D01*
X160067214Y-41643486D01*
X160067214Y-40383486D01*
X164687214Y-42412086D02*
X164927214Y-42412086D01*
X165047214Y-42472086D01*
X165107214Y-42532086D01*
X165227214Y-42712086D01*
X165287214Y-42952086D01*
X165287214Y-43432086D01*
X165227214Y-43552086D01*
X165167214Y-43612086D01*
X165047214Y-43672086D01*
X164807214Y-43672086D01*
X164687214Y-43612086D01*
X164627214Y-43552086D01*
X164567214Y-43432086D01*
X164567214Y-43132086D01*
X164627214Y-43012086D01*
X164687214Y-42952086D01*
X164807214Y-42892086D01*
X165047214Y-42892086D01*
X165167214Y-42952086D01*
X165227214Y-43012086D01*
X165287214Y-43132086D01*
X164027214Y-43552086D02*
X163967214Y-43612086D01*
X164027214Y-43672086D01*
X164087214Y-43612086D01*
X164027214Y-43552086D01*
X164027214Y-43672086D01*
X164027214Y-42892086D02*
X163967214Y-42952086D01*
X164027214Y-43012086D01*
X164087214Y-42952086D01*
X164027214Y-42892086D01*
X164027214Y-43012086D01*
X162467214Y-43672086D02*
X162467214Y-42412086D01*
X162167214Y-42412086D01*
X161987214Y-42472086D01*
X161867214Y-42592086D01*
X161807214Y-42712086D01*
X161747214Y-42952086D01*
X161747214Y-43132086D01*
X161807214Y-43372086D01*
X161867214Y-43492086D01*
X161987214Y-43612086D01*
X162167214Y-43672086D01*
X162467214Y-43672086D01*
X160667214Y-43672086D02*
X160667214Y-43012086D01*
X160727214Y-42892086D01*
X160847214Y-42832086D01*
X161087214Y-42832086D01*
X161207214Y-42892086D01*
X160667214Y-43612086D02*
X160787214Y-43672086D01*
X161087214Y-43672086D01*
X161207214Y-43612086D01*
X161267214Y-43492086D01*
X161267214Y-43372086D01*
X161207214Y-43252086D01*
X161087214Y-43192086D01*
X160787214Y-43192086D01*
X160667214Y-43132086D01*
X160247214Y-42832086D02*
X159767214Y-42832086D01*
X160067214Y-42412086D02*
X160067214Y-43492086D01*
X160007214Y-43612086D01*
X159887214Y-43672086D01*
X159767214Y-43672086D01*
X158807214Y-43672086D02*
X158807214Y-43012086D01*
X158867214Y-42892086D01*
X158987214Y-42832086D01*
X159227214Y-42832086D01*
X159347214Y-42892086D01*
X158807214Y-43612086D02*
X158927214Y-43672086D01*
X159227214Y-43672086D01*
X159347214Y-43612086D01*
X159407214Y-43492086D01*
X159407214Y-43372086D01*
X159347214Y-43252086D01*
X159227214Y-43192086D01*
X158927214Y-43192086D01*
X158807214Y-43132086D01*
X156707214Y-42832086D02*
X156707214Y-43672086D01*
X157007214Y-42352086D02*
X157307214Y-43252086D01*
X156527214Y-43252086D01*
X165347214Y-44440686D02*
X164507214Y-44440686D01*
X165047214Y-45700686D01*
X164027214Y-45580686D02*
X163967214Y-45640686D01*
X164027214Y-45700686D01*
X164087214Y-45640686D01*
X164027214Y-45580686D01*
X164027214Y-45700686D01*
X164027214Y-44920686D02*
X163967214Y-44980686D01*
X164027214Y-45040686D01*
X164087214Y-44980686D01*
X164027214Y-44920686D01*
X164027214Y-45040686D01*
X161807214Y-44500686D02*
X161927214Y-44440686D01*
X162107214Y-44440686D01*
X162287214Y-44500686D01*
X162407214Y-44620686D01*
X162467214Y-44740686D01*
X162527214Y-44980686D01*
X162527214Y-45160686D01*
X162467214Y-45400686D01*
X162407214Y-45520686D01*
X162287214Y-45640686D01*
X162107214Y-45700686D01*
X161987214Y-45700686D01*
X161807214Y-45640686D01*
X161747214Y-45580686D01*
X161747214Y-45160686D01*
X161987214Y-45160686D01*
X161207214Y-45700686D02*
X161207214Y-44440686D01*
X160487214Y-45700686D01*
X160487214Y-44440686D01*
X159887214Y-45700686D02*
X159887214Y-44440686D01*
X159587214Y-44440686D01*
X159407214Y-44500686D01*
X159287214Y-44620686D01*
X159227214Y-44740686D01*
X159167214Y-44980686D01*
X159167214Y-45160686D01*
X159227214Y-45400686D01*
X159287214Y-45520686D01*
X159407214Y-45640686D01*
X159587214Y-45700686D01*
X159887214Y-45700686D01*
X165047214Y-47009286D02*
X165167214Y-46949286D01*
X165227214Y-46889286D01*
X165287214Y-46769286D01*
X165287214Y-46709286D01*
X165227214Y-46589286D01*
X165167214Y-46529286D01*
X165047214Y-46469286D01*
X164807214Y-46469286D01*
X164687214Y-46529286D01*
X164627214Y-46589286D01*
X164567214Y-46709286D01*
X164567214Y-46769286D01*
X164627214Y-46889286D01*
X164687214Y-46949286D01*
X164807214Y-47009286D01*
X165047214Y-47009286D01*
X165167214Y-47069286D01*
X165227214Y-47129286D01*
X165287214Y-47249286D01*
X165287214Y-47489286D01*
X165227214Y-47609286D01*
X165167214Y-47669286D01*
X165047214Y-47729286D01*
X164807214Y-47729286D01*
X164687214Y-47669286D01*
X164627214Y-47609286D01*
X164567214Y-47489286D01*
X164567214Y-47249286D01*
X164627214Y-47129286D01*
X164687214Y-47069286D01*
X164807214Y-47009286D01*
X164027214Y-47609286D02*
X163967214Y-47669286D01*
X164027214Y-47729286D01*
X164087214Y-47669286D01*
X164027214Y-47609286D01*
X164027214Y-47729286D01*
X164027214Y-46949286D02*
X163967214Y-47009286D01*
X164027214Y-47069286D01*
X164087214Y-47009286D01*
X164027214Y-46949286D01*
X164027214Y-47069286D01*
X161807214Y-46529286D02*
X161927214Y-46469286D01*
X162107214Y-46469286D01*
X162287214Y-46529286D01*
X162407214Y-46649286D01*
X162467214Y-46769286D01*
X162527214Y-47009286D01*
X162527214Y-47189286D01*
X162467214Y-47429286D01*
X162407214Y-47549286D01*
X162287214Y-47669286D01*
X162107214Y-47729286D01*
X161987214Y-47729286D01*
X161807214Y-47669286D01*
X161747214Y-47609286D01*
X161747214Y-47189286D01*
X161987214Y-47189286D01*
X161207214Y-47729286D02*
X161207214Y-46469286D01*
X160487214Y-47729286D01*
X160487214Y-46469286D01*
X159887214Y-47729286D02*
X159887214Y-46469286D01*
X159587214Y-46469286D01*
X159407214Y-46529286D01*
X159287214Y-46649286D01*
X159227214Y-46769286D01*
X159167214Y-47009286D01*
X159167214Y-47189286D01*
X159227214Y-47429286D01*
X159287214Y-47549286D01*
X159407214Y-47669286D01*
X159587214Y-47729286D01*
X159887214Y-47729286D01*
D14*
X117569000Y-71941023D02*
X117607095Y-72017214D01*
X117607095Y-72131500D01*
X117569000Y-72245785D01*
X117492809Y-72321976D01*
X117416619Y-72360071D01*
X117264238Y-72398166D01*
X117149952Y-72398166D01*
X116997571Y-72360071D01*
X116921380Y-72321976D01*
X116845190Y-72245785D01*
X116807095Y-72131500D01*
X116807095Y-72055309D01*
X116845190Y-71941023D01*
X116883285Y-71902928D01*
X117149952Y-71902928D01*
X117149952Y-72055309D01*
X116807095Y-71560071D02*
X117607095Y-71560071D01*
X116807095Y-71102928D01*
X117607095Y-71102928D01*
X116807095Y-70721976D02*
X117607095Y-70721976D01*
X117607095Y-70531500D01*
X117569000Y-70417214D01*
X117492809Y-70341023D01*
X117416619Y-70302928D01*
X117264238Y-70264833D01*
X117149952Y-70264833D01*
X116997571Y-70302928D01*
X116921380Y-70341023D01*
X116845190Y-70417214D01*
X116807095Y-70531500D01*
X116807095Y-70721976D01*
X118845190Y-77202928D02*
X118807095Y-77088642D01*
X118807095Y-76898166D01*
X118845190Y-76821976D01*
X118883285Y-76783880D01*
X118959476Y-76745785D01*
X119035666Y-76745785D01*
X119111857Y-76783880D01*
X119149952Y-76821976D01*
X119188047Y-76898166D01*
X119226142Y-77050547D01*
X119264238Y-77126738D01*
X119302333Y-77164833D01*
X119378523Y-77202928D01*
X119454714Y-77202928D01*
X119530904Y-77164833D01*
X119569000Y-77126738D01*
X119607095Y-77050547D01*
X119607095Y-76860071D01*
X119569000Y-76745785D01*
X118807095Y-76402928D02*
X119607095Y-76402928D01*
X119607095Y-76212452D01*
X119569000Y-76098166D01*
X119492809Y-76021976D01*
X119416619Y-75983880D01*
X119264238Y-75945785D01*
X119149952Y-75945785D01*
X118997571Y-75983880D01*
X118921380Y-76021976D01*
X118845190Y-76098166D01*
X118807095Y-76212452D01*
X118807095Y-76402928D01*
X119035666Y-75641023D02*
X119035666Y-75260071D01*
X118807095Y-75717214D02*
X119607095Y-75450547D01*
X118807095Y-75183880D01*
D17*
X165890080Y-31734619D02*
X166272747Y-31187952D01*
X166546080Y-31734619D02*
X166546080Y-30586619D01*
X166108747Y-30586619D01*
X165999414Y-30641286D01*
X165944747Y-30695952D01*
X165890080Y-30805286D01*
X165890080Y-30969286D01*
X165944747Y-31078619D01*
X165999414Y-31133286D01*
X166108747Y-31187952D01*
X166546080Y-31187952D01*
X165070080Y-30586619D02*
X165070080Y-31406619D01*
X165124747Y-31570619D01*
X165234080Y-31679952D01*
X165398080Y-31734619D01*
X165507414Y-31734619D01*
X164031414Y-30969286D02*
X164031414Y-31734619D01*
X164304747Y-30531952D02*
X164578080Y-31351952D01*
X163867414Y-31351952D01*
X162883414Y-30586619D02*
X163430080Y-30586619D01*
X163484747Y-31133286D01*
X163430080Y-31078619D01*
X163320747Y-31023952D01*
X163047414Y-31023952D01*
X162938080Y-31078619D01*
X162883414Y-31133286D01*
X162828747Y-31242619D01*
X162828747Y-31515952D01*
X162883414Y-31625286D01*
X162938080Y-31679952D01*
X163047414Y-31734619D01*
X163320747Y-31734619D01*
X163430080Y-31679952D01*
X163484747Y-31625286D01*
X161462080Y-31734619D02*
X161462080Y-30586619D01*
X161024747Y-30586619D01*
X160915414Y-30641286D01*
X160860747Y-30695952D01*
X160806080Y-30805286D01*
X160806080Y-30969286D01*
X160860747Y-31078619D01*
X160915414Y-31133286D01*
X161024747Y-31187952D01*
X161462080Y-31187952D01*
X160314080Y-31734619D02*
X160314080Y-30969286D01*
X160314080Y-30586619D02*
X160368747Y-30641286D01*
X160314080Y-30695952D01*
X160259414Y-30641286D01*
X160314080Y-30586619D01*
X160314080Y-30695952D01*
X159767414Y-30969286D02*
X159767414Y-31734619D01*
X159767414Y-31078619D02*
X159712747Y-31023952D01*
X159603414Y-30969286D01*
X159439414Y-30969286D01*
X159330080Y-31023952D01*
X159275414Y-31133286D01*
X159275414Y-31734619D01*
X158564747Y-31734619D02*
X158674080Y-31679952D01*
X158728747Y-31625286D01*
X158783414Y-31515952D01*
X158783414Y-31187952D01*
X158728747Y-31078619D01*
X158674080Y-31023952D01*
X158564747Y-30969286D01*
X158400747Y-30969286D01*
X158291414Y-31023952D01*
X158236747Y-31078619D01*
X158182080Y-31187952D01*
X158182080Y-31515952D01*
X158236747Y-31625286D01*
X158291414Y-31679952D01*
X158400747Y-31734619D01*
X158564747Y-31734619D01*
X157198080Y-30969286D02*
X157198080Y-31734619D01*
X157690080Y-30969286D02*
X157690080Y-31570619D01*
X157635414Y-31679952D01*
X157526080Y-31734619D01*
X157362080Y-31734619D01*
X157252747Y-31679952D01*
X157198080Y-31625286D01*
X156815414Y-30969286D02*
X156378080Y-30969286D01*
X156651414Y-30586619D02*
X156651414Y-31570619D01*
X156596747Y-31679952D01*
X156487414Y-31734619D01*
X156378080Y-31734619D01*
D18*
X143430731Y-43546528D02*
X143430731Y-42365936D01*
X143430731Y-42815685D02*
X143318294Y-42759467D01*
X143093419Y-42759467D01*
X142980982Y-42815685D01*
X142924763Y-42871904D01*
X142868544Y-42984341D01*
X142868544Y-43321653D01*
X142924763Y-43434091D01*
X142980982Y-43490309D01*
X143093419Y-43546528D01*
X143318294Y-43546528D01*
X143430731Y-43490309D01*
X142475014Y-42759467D02*
X142193920Y-43546528D01*
X141912827Y-42759467D02*
X142193920Y-43546528D01*
X142306358Y-43827621D01*
X142362576Y-43883840D01*
X142475014Y-43940059D01*
X140226267Y-42365936D02*
X140226267Y-43209216D01*
X140282486Y-43377872D01*
X140394923Y-43490309D01*
X140563579Y-43546528D01*
X140676016Y-43546528D01*
X139495424Y-43546528D02*
X139607862Y-43490309D01*
X139664080Y-43434091D01*
X139720299Y-43321653D01*
X139720299Y-42984341D01*
X139664080Y-42871904D01*
X139607862Y-42815685D01*
X139495424Y-42759467D01*
X139326768Y-42759467D01*
X139214331Y-42815685D01*
X139158112Y-42871904D01*
X139101894Y-42984341D01*
X139101894Y-43321653D01*
X139158112Y-43434091D01*
X139214331Y-43490309D01*
X139326768Y-43546528D01*
X139495424Y-43546528D01*
X138595926Y-42759467D02*
X138595926Y-43546528D01*
X138595926Y-42871904D02*
X138539707Y-42815685D01*
X138427270Y-42759467D01*
X138258614Y-42759467D01*
X138146176Y-42815685D01*
X138089958Y-42928123D01*
X138089958Y-43546528D01*
X136403398Y-42365936D02*
X136178523Y-42365936D01*
X136066086Y-42422155D01*
X135953648Y-42534592D01*
X135897430Y-42759467D01*
X135897430Y-43152997D01*
X135953648Y-43377872D01*
X136066086Y-43490309D01*
X136178523Y-43546528D01*
X136403398Y-43546528D01*
X136515835Y-43490309D01*
X136628272Y-43377872D01*
X136684491Y-43152997D01*
X136684491Y-42759467D01*
X136628272Y-42534592D01*
X136515835Y-42422155D01*
X136403398Y-42365936D01*
X135503899Y-43546528D02*
X134885494Y-42759467D01*
X135503899Y-42759467D02*
X134885494Y-43546528D01*
X133985995Y-43490309D02*
X134098432Y-43546528D01*
X134323307Y-43546528D01*
X134435744Y-43490309D01*
X134491963Y-43377872D01*
X134491963Y-42928123D01*
X134435744Y-42815685D01*
X134323307Y-42759467D01*
X134098432Y-42759467D01*
X133985995Y-42815685D01*
X133929776Y-42928123D01*
X133929776Y-43040560D01*
X134491963Y-43152997D01*
X133423808Y-43546528D02*
X133423808Y-42759467D01*
X133423808Y-42984341D02*
X133367590Y-42871904D01*
X133311371Y-42815685D01*
X133198934Y-42759467D01*
X133086496Y-42759467D01*
X143430731Y-45447281D02*
X143430731Y-44266689D01*
X143037200Y-45109969D01*
X142643670Y-44266689D01*
X142643670Y-45447281D01*
X141912827Y-45447281D02*
X142025264Y-45391062D01*
X142081483Y-45334844D01*
X142137702Y-45222406D01*
X142137702Y-44885094D01*
X142081483Y-44772657D01*
X142025264Y-44716438D01*
X141912827Y-44660220D01*
X141744171Y-44660220D01*
X141631734Y-44716438D01*
X141575515Y-44772657D01*
X141519296Y-44885094D01*
X141519296Y-45222406D01*
X141575515Y-45334844D01*
X141631734Y-45391062D01*
X141744171Y-45447281D01*
X141912827Y-45447281D01*
X140507360Y-45447281D02*
X140507360Y-44266689D01*
X140507360Y-45391062D02*
X140619798Y-45447281D01*
X140844672Y-45447281D01*
X140957110Y-45391062D01*
X141013328Y-45334844D01*
X141069547Y-45222406D01*
X141069547Y-44885094D01*
X141013328Y-44772657D01*
X140957110Y-44716438D01*
X140844672Y-44660220D01*
X140619798Y-44660220D01*
X140507360Y-44716438D01*
X139945174Y-45447281D02*
X139945174Y-44660220D01*
X139945174Y-44266689D02*
X140001392Y-44322908D01*
X139945174Y-44379126D01*
X139888955Y-44322908D01*
X139945174Y-44266689D01*
X139945174Y-44379126D01*
X139551643Y-44660220D02*
X139101894Y-44660220D01*
X139382987Y-45447281D02*
X139382987Y-44435345D01*
X139326768Y-44322908D01*
X139214331Y-44266689D01*
X139101894Y-44266689D01*
X138708363Y-45447281D02*
X138708363Y-44660220D01*
X138708363Y-44266689D02*
X138764582Y-44322908D01*
X138708363Y-44379126D01*
X138652144Y-44322908D01*
X138708363Y-44266689D01*
X138708363Y-44379126D01*
X137696427Y-45391062D02*
X137808864Y-45447281D01*
X138033739Y-45447281D01*
X138146176Y-45391062D01*
X138202395Y-45278625D01*
X138202395Y-44828876D01*
X138146176Y-44716438D01*
X138033739Y-44660220D01*
X137808864Y-44660220D01*
X137696427Y-44716438D01*
X137640208Y-44828876D01*
X137640208Y-44941313D01*
X138202395Y-45053750D01*
X136628272Y-45447281D02*
X136628272Y-44266689D01*
X136628272Y-45391062D02*
X136740710Y-45447281D01*
X136965584Y-45447281D01*
X137078022Y-45391062D01*
X137134240Y-45334844D01*
X137190459Y-45222406D01*
X137190459Y-44885094D01*
X137134240Y-44772657D01*
X137078022Y-44716438D01*
X136965584Y-44660220D01*
X136740710Y-44660220D01*
X136628272Y-44716438D01*
X134773056Y-44828876D02*
X134604400Y-44885094D01*
X134548182Y-44941313D01*
X134491963Y-45053750D01*
X134491963Y-45222406D01*
X134548182Y-45334844D01*
X134604400Y-45391062D01*
X134716838Y-45447281D01*
X135166587Y-45447281D01*
X135166587Y-44266689D01*
X134773056Y-44266689D01*
X134660619Y-44322908D01*
X134604400Y-44379126D01*
X134548182Y-44491564D01*
X134548182Y-44604001D01*
X134604400Y-44716438D01*
X134660619Y-44772657D01*
X134773056Y-44828876D01*
X135166587Y-44828876D01*
X134098432Y-44660220D02*
X133817339Y-45447281D01*
X133536246Y-44660220D02*
X133817339Y-45447281D01*
X133929776Y-45728374D01*
X133985995Y-45784593D01*
X134098432Y-45840812D01*
X132243216Y-45109969D02*
X131681030Y-45109969D01*
X132355654Y-45447281D02*
X131962123Y-44266689D01*
X131568592Y-45447281D01*
X130669094Y-44660220D02*
X130669094Y-45447281D01*
X131175062Y-44660220D02*
X131175062Y-45278625D01*
X131118843Y-45391062D01*
X131006406Y-45447281D01*
X130837750Y-45447281D01*
X130725312Y-45391062D01*
X130669094Y-45334844D01*
X130163126Y-45391062D02*
X130050688Y-45447281D01*
X129825814Y-45447281D01*
X129713376Y-45391062D01*
X129657158Y-45278625D01*
X129657158Y-45222406D01*
X129713376Y-45109969D01*
X129825814Y-45053750D01*
X129994470Y-45053750D01*
X130106907Y-44997532D01*
X130163126Y-44885094D01*
X130163126Y-44828876D01*
X130106907Y-44716438D01*
X129994470Y-44660220D01*
X129825814Y-44660220D01*
X129713376Y-44716438D01*
X129319846Y-44660220D02*
X128870096Y-44660220D01*
X129151190Y-44266689D02*
X129151190Y-45278625D01*
X129094971Y-45391062D01*
X128982534Y-45447281D01*
X128870096Y-45447281D01*
X128476566Y-45447281D02*
X128476566Y-44660220D01*
X128476566Y-44266689D02*
X128532784Y-44322908D01*
X128476566Y-44379126D01*
X128420347Y-44322908D01*
X128476566Y-44266689D01*
X128476566Y-44379126D01*
X127914379Y-44660220D02*
X127914379Y-45447281D01*
X127914379Y-44772657D02*
X127858160Y-44716438D01*
X127745723Y-44660220D01*
X127577067Y-44660220D01*
X127464630Y-44716438D01*
X127408411Y-44828876D01*
X127408411Y-45447281D01*
X126790006Y-44266689D02*
X126902443Y-44491564D01*
X126340256Y-45391062D02*
X126227819Y-45447281D01*
X126002944Y-45447281D01*
X125890507Y-45391062D01*
X125834288Y-45278625D01*
X125834288Y-45222406D01*
X125890507Y-45109969D01*
X126002944Y-45053750D01*
X126171600Y-45053750D01*
X126284038Y-44997532D01*
X126340256Y-44885094D01*
X126340256Y-44828876D01*
X126284038Y-44716438D01*
X126171600Y-44660220D01*
X126002944Y-44660220D01*
X125890507Y-44716438D01*
X123754198Y-45334844D02*
X123810416Y-45391062D01*
X123979072Y-45447281D01*
X124091510Y-45447281D01*
X124260166Y-45391062D01*
X124372603Y-45278625D01*
X124428822Y-45166188D01*
X124485040Y-44941313D01*
X124485040Y-44772657D01*
X124428822Y-44547782D01*
X124372603Y-44435345D01*
X124260166Y-44322908D01*
X124091510Y-44266689D01*
X123979072Y-44266689D01*
X123810416Y-44322908D01*
X123754198Y-44379126D01*
X123248230Y-45447281D02*
X123248230Y-44660220D01*
X123248230Y-44885094D02*
X123192011Y-44772657D01*
X123135792Y-44716438D01*
X123023355Y-44660220D01*
X122910918Y-44660220D01*
X122067638Y-45391062D02*
X122180075Y-45447281D01*
X122404950Y-45447281D01*
X122517387Y-45391062D01*
X122573606Y-45278625D01*
X122573606Y-44828876D01*
X122517387Y-44716438D01*
X122404950Y-44660220D01*
X122180075Y-44660220D01*
X122067638Y-44716438D01*
X122011419Y-44828876D01*
X122011419Y-44941313D01*
X122573606Y-45053750D01*
X120999483Y-45447281D02*
X120999483Y-44828876D01*
X121055702Y-44716438D01*
X121168139Y-44660220D01*
X121393014Y-44660220D01*
X121505451Y-44716438D01*
X120999483Y-45391062D02*
X121111920Y-45447281D01*
X121393014Y-45447281D01*
X121505451Y-45391062D01*
X121561670Y-45278625D01*
X121561670Y-45166188D01*
X121505451Y-45053750D01*
X121393014Y-44997532D01*
X121111920Y-44997532D01*
X120999483Y-44941313D01*
X120605952Y-44660220D02*
X120156203Y-44660220D01*
X120437296Y-44266689D02*
X120437296Y-45278625D01*
X120381078Y-45391062D01*
X120268640Y-45447281D01*
X120156203Y-45447281D01*
X119762672Y-45447281D02*
X119762672Y-44660220D01*
X119762672Y-44266689D02*
X119818891Y-44322908D01*
X119762672Y-44379126D01*
X119706454Y-44322908D01*
X119762672Y-44266689D01*
X119762672Y-44379126D01*
X119031830Y-45447281D02*
X119144267Y-45391062D01*
X119200486Y-45334844D01*
X119256704Y-45222406D01*
X119256704Y-44885094D01*
X119200486Y-44772657D01*
X119144267Y-44716438D01*
X119031830Y-44660220D01*
X118863174Y-44660220D01*
X118750736Y-44716438D01*
X118694518Y-44772657D01*
X118638299Y-44885094D01*
X118638299Y-45222406D01*
X118694518Y-45334844D01*
X118750736Y-45391062D01*
X118863174Y-45447281D01*
X119031830Y-45447281D01*
X118132331Y-44660220D02*
X118132331Y-45447281D01*
X118132331Y-44772657D02*
X118076112Y-44716438D01*
X117963675Y-44660220D01*
X117795019Y-44660220D01*
X117682582Y-44716438D01*
X117626363Y-44828876D01*
X117626363Y-45447281D01*
X117120395Y-45391062D02*
X117007958Y-45447281D01*
X116783083Y-45447281D01*
X116670646Y-45391062D01*
X116614427Y-45278625D01*
X116614427Y-45222406D01*
X116670646Y-45109969D01*
X116783083Y-45053750D01*
X116951739Y-45053750D01*
X117064176Y-44997532D01*
X117120395Y-44885094D01*
X117120395Y-44828876D01*
X117064176Y-44716438D01*
X116951739Y-44660220D01*
X116783083Y-44660220D01*
X116670646Y-44716438D01*
D14*
X121545190Y-77183880D02*
X121507095Y-77069595D01*
X121507095Y-76879119D01*
X121545190Y-76802928D01*
X121583285Y-76764833D01*
X121659476Y-76726738D01*
X121735666Y-76726738D01*
X121811857Y-76764833D01*
X121849952Y-76802928D01*
X121888047Y-76879119D01*
X121926142Y-77031500D01*
X121964238Y-77107690D01*
X122002333Y-77145785D01*
X122078523Y-77183880D01*
X122154714Y-77183880D01*
X122230904Y-77145785D01*
X122269000Y-77107690D01*
X122307095Y-77031500D01*
X122307095Y-76841023D01*
X122269000Y-76726738D01*
X121583285Y-75926738D02*
X121545190Y-75964833D01*
X121507095Y-76079119D01*
X121507095Y-76155309D01*
X121545190Y-76269595D01*
X121621380Y-76345785D01*
X121697571Y-76383880D01*
X121849952Y-76421976D01*
X121964238Y-76421976D01*
X122116619Y-76383880D01*
X122192809Y-76345785D01*
X122269000Y-76269595D01*
X122307095Y-76155309D01*
X122307095Y-76079119D01*
X122269000Y-75964833D01*
X122230904Y-75926738D01*
X121507095Y-75202928D02*
X121507095Y-75583880D01*
X122307095Y-75583880D01*
X180292809Y-75243119D02*
X180330904Y-75357404D01*
X180330904Y-75547880D01*
X180292809Y-75624071D01*
X180254714Y-75662166D01*
X180178523Y-75700261D01*
X180102333Y-75700261D01*
X180026142Y-75662166D01*
X179988047Y-75624071D01*
X179949952Y-75547880D01*
X179911857Y-75395500D01*
X179873761Y-75319309D01*
X179835666Y-75281214D01*
X179759476Y-75243119D01*
X179683285Y-75243119D01*
X179607095Y-75281214D01*
X179569000Y-75319309D01*
X179530904Y-75395500D01*
X179530904Y-75585976D01*
X179569000Y-75700261D01*
X180254714Y-76500261D02*
X180292809Y-76462166D01*
X180330904Y-76347880D01*
X180330904Y-76271690D01*
X180292809Y-76157404D01*
X180216619Y-76081214D01*
X180140428Y-76043119D01*
X179988047Y-76005023D01*
X179873761Y-76005023D01*
X179721380Y-76043119D01*
X179645190Y-76081214D01*
X179569000Y-76157404D01*
X179530904Y-76271690D01*
X179530904Y-76347880D01*
X179569000Y-76462166D01*
X179607095Y-76500261D01*
X180330904Y-77224071D02*
X180330904Y-76843119D01*
X179530904Y-76843119D01*
X177692809Y-75224071D02*
X177730904Y-75338357D01*
X177730904Y-75528833D01*
X177692809Y-75605023D01*
X177654714Y-75643119D01*
X177578523Y-75681214D01*
X177502333Y-75681214D01*
X177426142Y-75643119D01*
X177388047Y-75605023D01*
X177349952Y-75528833D01*
X177311857Y-75376452D01*
X177273761Y-75300261D01*
X177235666Y-75262166D01*
X177159476Y-75224071D01*
X177083285Y-75224071D01*
X177007095Y-75262166D01*
X176969000Y-75300261D01*
X176930904Y-75376452D01*
X176930904Y-75566928D01*
X176969000Y-75681214D01*
X177730904Y-76024071D02*
X176930904Y-76024071D01*
X176930904Y-76214547D01*
X176969000Y-76328833D01*
X177045190Y-76405023D01*
X177121380Y-76443119D01*
X177273761Y-76481214D01*
X177388047Y-76481214D01*
X177540428Y-76443119D01*
X177616619Y-76405023D01*
X177692809Y-76328833D01*
X177730904Y-76214547D01*
X177730904Y-76024071D01*
X177502333Y-76785976D02*
X177502333Y-77166928D01*
X177730904Y-76709785D02*
X176930904Y-76976452D01*
X177730904Y-77243119D01*
X175169000Y-70685976D02*
X175130904Y-70609785D01*
X175130904Y-70495500D01*
X175169000Y-70381214D01*
X175245190Y-70305023D01*
X175321380Y-70266928D01*
X175473761Y-70228833D01*
X175588047Y-70228833D01*
X175740428Y-70266928D01*
X175816619Y-70305023D01*
X175892809Y-70381214D01*
X175930904Y-70495500D01*
X175930904Y-70571690D01*
X175892809Y-70685976D01*
X175854714Y-70724071D01*
X175588047Y-70724071D01*
X175588047Y-70571690D01*
X175930904Y-71066928D02*
X175130904Y-71066928D01*
X175930904Y-71524071D01*
X175130904Y-71524071D01*
X175930904Y-71905023D02*
X175130904Y-71905023D01*
X175130904Y-72095500D01*
X175169000Y-72209785D01*
X175245190Y-72285976D01*
X175321380Y-72324071D01*
X175473761Y-72362166D01*
X175588047Y-72362166D01*
X175740428Y-72324071D01*
X175816619Y-72285976D01*
X175892809Y-72209785D01*
X175930904Y-72095500D01*
X175930904Y-71905023D01*
X179530904Y-65328833D02*
X180330904Y-65595500D01*
X179530904Y-65862166D01*
X180254714Y-66585976D02*
X180292809Y-66547880D01*
X180330904Y-66433595D01*
X180330904Y-66357404D01*
X180292809Y-66243119D01*
X180216619Y-66166928D01*
X180140428Y-66128833D01*
X179988047Y-66090738D01*
X179873761Y-66090738D01*
X179721380Y-66128833D01*
X179645190Y-66166928D01*
X179569000Y-66243119D01*
X179530904Y-66357404D01*
X179530904Y-66433595D01*
X179569000Y-66547880D01*
X179607095Y-66585976D01*
X180254714Y-67385976D02*
X180292809Y-67347880D01*
X180330904Y-67233595D01*
X180330904Y-67157404D01*
X180292809Y-67043119D01*
X180216619Y-66966928D01*
X180140428Y-66928833D01*
X179988047Y-66890738D01*
X179873761Y-66890738D01*
X179721380Y-66928833D01*
X179645190Y-66966928D01*
X179569000Y-67043119D01*
X179530904Y-67157404D01*
X179530904Y-67233595D01*
X179569000Y-67347880D01*
X179607095Y-67385976D01*
%LPC*%
G36*
G01*
X180768995Y-73231501D02*
X180768995Y-74431501D01*
G75*
G02*
X180518995Y-74681501I-250000J0D01*
G01*
X179318995Y-74681501D01*
G75*
G02*
X179068995Y-74431501I0J250000D01*
G01*
X179068995Y-73231501D01*
G75*
G02*
X179318995Y-72981501I250000J0D01*
G01*
X180518995Y-72981501D01*
G75*
G02*
X180768995Y-73231501I0J-250000D01*
G01*
G37*
D19*
X177378995Y-73831501D03*
X179918995Y-71291501D03*
X177378995Y-71291501D03*
X179918995Y-68751501D03*
X177378995Y-68751501D03*
G36*
X164674281Y-27255696D02*
G01*
X164662158Y-27245342D01*
X164027158Y-26610342D01*
X163998651Y-26554394D01*
X163997400Y-26538500D01*
X163997400Y-25268500D01*
X164016804Y-25208781D01*
X164027158Y-25196658D01*
X164662158Y-24561658D01*
X164718106Y-24533151D01*
X164734000Y-24531900D01*
X166004000Y-24531900D01*
X166063719Y-24551304D01*
X166075842Y-24561658D01*
X166710842Y-25196658D01*
X166739349Y-25252606D01*
X166740600Y-25268500D01*
X166740600Y-26538500D01*
X166721196Y-26598219D01*
X166710842Y-26610342D01*
X166075842Y-27245342D01*
X166019894Y-27273849D01*
X166004000Y-27275100D01*
X164734000Y-27275100D01*
X164674281Y-27255696D01*
G37*
G36*
X159674281Y-27255696D02*
G01*
X159662158Y-27245342D01*
X159027158Y-26610342D01*
X158998651Y-26554394D01*
X158997400Y-26538500D01*
X158997400Y-25268500D01*
X159016804Y-25208781D01*
X159027158Y-25196658D01*
X159662158Y-24561658D01*
X159718106Y-24533151D01*
X159734000Y-24531900D01*
X161004000Y-24531900D01*
X161063719Y-24551304D01*
X161075842Y-24561658D01*
X161710842Y-25196658D01*
X161739349Y-25252606D01*
X161740600Y-25268500D01*
X161740600Y-26538500D01*
X161721196Y-26598219D01*
X161710842Y-26610342D01*
X161075842Y-27245342D01*
X161019894Y-27273849D01*
X161004000Y-27275100D01*
X159734000Y-27275100D01*
X159674281Y-27255696D01*
G37*
G36*
G01*
X122669010Y-73231501D02*
X122669010Y-74431501D01*
G75*
G02*
X122419010Y-74681501I-250000J0D01*
G01*
X121219010Y-74681501D01*
G75*
G02*
X120969010Y-74431501I0J250000D01*
G01*
X120969010Y-73231501D01*
G75*
G02*
X121219010Y-72981501I250000J0D01*
G01*
X122419010Y-72981501D01*
G75*
G02*
X122669010Y-73231501I0J-250000D01*
G01*
G37*
X119279010Y-73831501D03*
X121819010Y-71291501D03*
X119279010Y-71291501D03*
X121819010Y-68751501D03*
X119279010Y-68751501D03*
G36*
X138174281Y-27255696D02*
G01*
X138162158Y-27245342D01*
X137527158Y-26610342D01*
X137498651Y-26554394D01*
X137497400Y-26538500D01*
X137497400Y-25268500D01*
X137516804Y-25208781D01*
X137527158Y-25196658D01*
X138162158Y-24561658D01*
X138218106Y-24533151D01*
X138234000Y-24531900D01*
X139504000Y-24531900D01*
X139563719Y-24551304D01*
X139575842Y-24561658D01*
X140210842Y-25196658D01*
X140239349Y-25252606D01*
X140240600Y-25268500D01*
X140240600Y-26538500D01*
X140221196Y-26598219D01*
X140210842Y-26610342D01*
X139575842Y-27245342D01*
X139519894Y-27273849D01*
X139504000Y-27275100D01*
X138234000Y-27275100D01*
X138174281Y-27255696D01*
G37*
G36*
X133174281Y-27255696D02*
G01*
X133162158Y-27245342D01*
X132527158Y-26610342D01*
X132498651Y-26554394D01*
X132497400Y-26538500D01*
X132497400Y-25268500D01*
X132516804Y-25208781D01*
X132527158Y-25196658D01*
X133162158Y-24561658D01*
X133218106Y-24533151D01*
X133234000Y-24531900D01*
X134504000Y-24531900D01*
X134563719Y-24551304D01*
X134575842Y-24561658D01*
X135210842Y-25196658D01*
X135239349Y-25252606D01*
X135240600Y-25268500D01*
X135240600Y-26538500D01*
X135221196Y-26598219D01*
X135210842Y-26610342D01*
X134575842Y-27245342D01*
X134519894Y-27273849D01*
X134504000Y-27275100D01*
X133234000Y-27275100D01*
X133174281Y-27255696D01*
G37*
D20*
X122936000Y-113042500D03*
X176276000Y-113042500D03*
D21*
X124206000Y-106692500D03*
X125476000Y-104152500D03*
X126746000Y-106692500D03*
X128016000Y-104152500D03*
X129286000Y-106692500D03*
X130556000Y-104152500D03*
X131826000Y-106692500D03*
X133096000Y-104152500D03*
X138176000Y-106692500D03*
X139446000Y-104152500D03*
X140716000Y-106692500D03*
X141986000Y-104152500D03*
X143256000Y-106692500D03*
X144526000Y-104152500D03*
X145796000Y-106692500D03*
X147066000Y-104152500D03*
X152146000Y-106692500D03*
X153416000Y-104152500D03*
X154686000Y-106692500D03*
X155956000Y-104152500D03*
X157226000Y-106692500D03*
X158496000Y-104152500D03*
X159766000Y-106692500D03*
X161036000Y-104152500D03*
X166116000Y-106692500D03*
X167386000Y-104152500D03*
X168656000Y-106692500D03*
X169926000Y-104152500D03*
X171196000Y-106692500D03*
X172466000Y-104152500D03*
X173736000Y-106692500D03*
X175006000Y-104152500D03*
D22*
X163576000Y-102882500D03*
X179006000Y-117612500D03*
X120206000Y-117612500D03*
X149606000Y-102882500D03*
X135636000Y-102882500D03*
M02*
