M48
; DRILL file {KiCad (6.0.9)} date Thu Nov  9 20:34:28 2023
; FORMAT={-:-/ absolute / metric / decimal}
; #@! TF.CreationDate,2023-11-09T20:34:28+05:30
; #@! TF.GenerationSoftware,Kicad,Pcbnew,(6.0.9)
; #@! TF.FileFunction,Plated,1,2,PTH
FMAT,2
METRIC
; #@! TA.AperFunction,Plated,PTH,ViaDrill
T1C0.350
; #@! TA.AperFunction,Plated,PTH,ViaDrill
T2C0.400
; #@! TA.AperFunction,Plated,PTH,ComponentDrill
T3C0.900
; #@! TA.AperFunction,Plated,PTH,ComponentDrill
T4C1.000
; #@! TA.AperFunction,Plated,PTH,ComponentDrill
T5C1.600
; #@! TA.AperFunction,Plated,PTH,ComponentDrill
T6C1.700
%
G90
G05
T1
X119.126Y-57.531
X120.498Y-31.933
X128.577Y-39.001
X130.406Y-38.17
X131.434Y-43.665
X131.464Y-42.7
X131.485Y-41.744
X131.486Y-37.303
X131.572Y-40.792
X131.598Y-36.247
X151.646Y-39.159
X151.654Y-38.103
X151.756Y-36.202
X151.796Y-37.157
X151.839Y-41.609
X151.873Y-42.564
X151.877Y-40.654
X151.892Y-43.629
X157.378Y-50.089
X160.852Y-52.458
X163.271Y-51.968
X164.154Y-50.902
X173.99Y-34.798
X174.879Y-33.983
T2
X116.205Y-92.71
X117.094Y-94.615
X117.856Y-40.259
X120.294Y-92.71
X121.031Y-94.615
X124.333Y-92.583
X125.222Y-94.742
X125.984Y-31.039
X126.374Y-49.022
X127.177Y-51.816
X127.254Y-65.024
X128.524Y-92.71
X129.413Y-51.181
X129.413Y-94.742
X129.845Y-65.176
X130.556Y-53.34
X132.093Y-52.464
X132.334Y-65.024
X132.588Y-92.71
X133.604Y-94.488
X134.874Y-65.024
X136.772Y-49.727
X137.287Y-92.71
X138.176Y-94.488
X139.065Y-65.024
X139.319Y-52.633
X139.827Y-51.054
X141.605Y-65.024
X141.859Y-92.71
X142.063Y-53.537
X142.748Y-94.615
X142.926Y-51.994
X144.145Y-65.024
X146.304Y-92.71
X146.685Y-65.024
X147.32Y-94.488
X147.821Y-50.108
X147.968Y-83.251
X150.622Y-51.181
X150.632Y-53.071
X150.724Y-65.278
X150.978Y-92.659
X151.892Y-70.561
X151.892Y-72.034
X151.892Y-73.355
X151.892Y-74.625
X151.892Y-75.895
X151.892Y-77.064
X151.892Y-94.488
X152.857Y-70.561
X152.857Y-72.034
X152.857Y-73.355
X152.857Y-74.625
X152.857Y-75.895
X152.857Y-77.064
X152.857Y-78.13
X153.289Y-52.959
X153.289Y-65.024
X153.772Y-70.561
X153.772Y-72.034
X153.772Y-73.355
X153.772Y-74.625
X153.772Y-75.895
X153.772Y-77.064
X153.772Y-78.13
X153.797Y-29.953
X153.808Y-28.713
X153.873Y-51.867
X153.975Y-31.344
X155.321Y-92.71
X155.829Y-65.024
X156.21Y-94.615
X156.972Y-83.922
X157.937Y-83.922
X158.369Y-65.024
X158.852Y-51.206
X158.953Y-83.922
X159.385Y-92.71
X160.401Y-94.488
X160.426Y-77.368
X160.426Y-78.435
X160.426Y-79.451
X160.426Y-80.569
X161.392Y-77.368
X161.392Y-78.435
X161.392Y-79.451
X161.392Y-80.569
X162.052Y-65.024
X162.306Y-71.933
X162.306Y-73.203
X162.306Y-74.574
X162.357Y-70.612
X162.357Y-75.743
X162.357Y-77.318
X162.357Y-78.384
X162.357Y-79.4
X162.357Y-80.518
X163.271Y-71.984
X163.271Y-73.254
X163.271Y-74.625
X163.322Y-75.794
X163.322Y-77.318
X163.322Y-78.384
X163.322Y-79.4
X163.322Y-80.518
X163.703Y-92.71
X164.287Y-71.984
X164.287Y-73.254
X164.287Y-74.625
X164.338Y-75.794
X164.592Y-65.024
X164.592Y-94.615
X167.132Y-65.024
X167.887Y-27.808
X167.965Y-34.995
X168.148Y-92.837
X169.164Y-94.615
X169.774Y-65.227
X170.046Y-31.312
X170.078Y-83.82
X170.636Y-77.565
X171.951Y-47.632
X172.466Y-92.837
X173.355Y-94.615
X176.784Y-92.71
X177.673Y-94.615
X181.102Y-92.761
X181.991Y-94.615
T3
X124.206Y-106.692
X125.476Y-104.152
X126.746Y-106.692
X128.016Y-104.152
X129.286Y-106.692
X130.556Y-104.152
X131.826Y-106.692
X133.096Y-104.152
X138.176Y-106.692
X139.446Y-104.152
X140.716Y-106.692
X141.986Y-104.152
X143.256Y-106.692
X144.526Y-104.152
X145.796Y-106.692
X147.066Y-104.152
X152.146Y-106.692
X153.416Y-104.152
X154.686Y-106.692
X155.956Y-104.152
X157.226Y-106.692
X158.496Y-104.152
X159.766Y-106.692
X161.036Y-104.152
X166.116Y-106.692
X167.386Y-104.152
X168.656Y-106.692
X169.926Y-104.152
X171.196Y-106.692
X172.466Y-104.152
X173.736Y-106.692
X175.006Y-104.152
T4
X119.253Y-49.784
X119.253Y-52.324
X119.253Y-54.864
X121.793Y-49.784
X121.793Y-52.324
X121.793Y-54.864
X177.394Y-49.784
X177.394Y-52.324
X177.394Y-54.864
X179.934Y-49.784
X179.934Y-52.324
X179.934Y-54.864
T5
X120.206Y-117.612
X135.636Y-102.882
X149.606Y-102.882
X163.576Y-102.882
X179.006Y-117.612
T6
X119.939Y-78.07
X119.939Y-83.068
X179.368Y-78.136
X179.368Y-83.134
T0
M30
