%TF.GenerationSoftware,KiCad,Pcbnew,(6.0.9)*%
%TF.CreationDate,2023-11-09T20:34:28+05:30*%
%TF.ProjectId,Modular-I2C-4PxRJ45-Relay-Driver,4d6f6475-6c61-4722-9d49-32432d345078,2*%
%TF.SameCoordinates,Original*%
%TF.FileFunction,Soldermask,Top*%
%TF.FilePolarity,Negative*%
%FSLAX46Y46*%
G04 Gerber Fmt 4.6, Leading zero omitted, Abs format (unit mm)*
G04 Created by KiCad (PCBNEW (6.0.9)) date 2023-11-09 20:34:28*
%MOMM*%
%LPD*%
G01*
G04 APERTURE LIST*
G04 Aperture macros list*
%AMRoundRect*
0 Rectangle with rounded corners*
0 $1 Rounding radius*
0 $2 $3 $4 $5 $6 $7 $8 $9 X,Y pos of 4 corners*
0 Add a 4 corners polygon primitive as box body*
4,1,4,$2,$3,$4,$5,$6,$7,$8,$9,$2,$3,0*
0 Add four circle primitives for the rounded corners*
1,1,$1+$1,$2,$3*
1,1,$1+$1,$4,$5*
1,1,$1+$1,$6,$7*
1,1,$1+$1,$8,$9*
0 Add four rect primitives between the rounded corners*
20,1,$1+$1,$2,$3,$4,$5,0*
20,1,$1+$1,$4,$5,$6,$7,0*
20,1,$1+$1,$6,$7,$8,$9,0*
20,1,$1+$1,$8,$9,$2,$3,0*%
G04 Aperture macros list end*
%ADD10RoundRect,0.250000X0.600000X0.600000X-0.600000X0.600000X-0.600000X-0.600000X0.600000X-0.600000X0*%
%ADD11C,1.700000*%
%ADD12RoundRect,0.218750X0.218750X0.256250X-0.218750X0.256250X-0.218750X-0.256250X0.218750X-0.256250X0*%
%ADD13RoundRect,0.200000X-0.200000X-0.275000X0.200000X-0.275000X0.200000X0.275000X-0.200000X0.275000X0*%
%ADD14R,2.000000X1.100000*%
%ADD15R,0.800000X0.800000*%
%ADD16RoundRect,0.150000X-0.150000X0.837500X-0.150000X-0.837500X0.150000X-0.837500X0.150000X0.837500X0*%
%ADD17R,0.650000X0.400000*%
%ADD18RoundRect,0.150000X-0.150000X0.587500X-0.150000X-0.587500X0.150000X-0.587500X0.150000X0.587500X0*%
%ADD19C,3.000000*%
%ADD20R,0.800000X0.500000*%
%ADD21R,0.800000X0.400000*%
%ADD22RoundRect,0.200000X-0.275000X0.200000X-0.275000X-0.200000X0.275000X-0.200000X0.275000X0.200000X0*%
%ADD23RoundRect,0.218750X-0.218750X-0.256250X0.218750X-0.256250X0.218750X0.256250X-0.218750X0.256250X0*%
%ADD24RoundRect,0.225000X0.250000X-0.225000X0.250000X0.225000X-0.250000X0.225000X-0.250000X-0.225000X0*%
%ADD25R,0.500000X0.800000*%
%ADD26R,0.400000X0.800000*%
%ADD27RoundRect,0.225000X0.225000X0.250000X-0.225000X0.250000X-0.225000X-0.250000X0.225000X-0.250000X0*%
%ADD28RoundRect,0.200000X0.200000X0.275000X-0.200000X0.275000X-0.200000X-0.275000X0.200000X-0.275000X0*%
%ADD29RoundRect,0.150000X0.150000X-0.512500X0.150000X0.512500X-0.150000X0.512500X-0.150000X-0.512500X0*%
%ADD30RoundRect,0.225000X-0.225000X-0.250000X0.225000X-0.250000X0.225000X0.250000X-0.225000X0.250000X0*%
%ADD31R,1.500000X2.400000*%
%ADD32RoundRect,0.250000X1.000000X-1.750000X1.000000X1.750000X-1.000000X1.750000X-1.000000X-1.750000X0*%
%ADD33RoundRect,0.150000X0.875000X0.150000X-0.875000X0.150000X-0.875000X-0.150000X0.875000X-0.150000X0*%
%ADD34R,1.200000X3.300000*%
%ADD35R,3.300000X1.200000*%
%ADD36RoundRect,0.200000X0.275000X-0.200000X0.275000X0.200000X-0.275000X0.200000X-0.275000X-0.200000X0*%
%ADD37R,1.100000X1.100000*%
%ADD38C,3.250000*%
%ADD39C,1.500000*%
%ADD40C,2.600000*%
%ADD41RoundRect,0.225000X-0.250000X0.225000X-0.250000X-0.225000X0.250000X-0.225000X0.250000X0.225000X0*%
G04 APERTURE END LIST*
D10*
%TO.C,J1*%
X179933600Y-54864000D03*
D11*
X177393600Y-54864000D03*
X179933600Y-52324000D03*
X177393600Y-52324000D03*
X179933600Y-49784000D03*
X177393600Y-49784000D03*
%TD*%
D12*
%TO.C,LED56*%
X138836500Y-88519000D03*
X137261500Y-88519000D03*
%TD*%
D13*
%TO.C,TH59*%
X150893000Y-97468400D03*
X152543000Y-97468400D03*
%TD*%
D14*
%TO.C,D57*%
X141982150Y-99441000D03*
D15*
X143882150Y-99441000D03*
%TD*%
D14*
%TO.C,D61*%
X159607000Y-99441000D03*
D15*
X161507000Y-99441000D03*
%TD*%
D16*
%TO.C,U5*%
X159639000Y-57497500D03*
X158369000Y-57497500D03*
X157099000Y-57497500D03*
X155829000Y-57497500D03*
X154559000Y-57497500D03*
X153289000Y-57497500D03*
X152019000Y-57497500D03*
X150749000Y-57497500D03*
X150749000Y-64422500D03*
X152019000Y-64422500D03*
X153289000Y-64422500D03*
X154559000Y-64422500D03*
X155829000Y-64422500D03*
X157099000Y-64422500D03*
X158369000Y-64422500D03*
X159639000Y-64422500D03*
%TD*%
D12*
%TO.C,LED66*%
X182767300Y-88519000D03*
X181192300Y-88519000D03*
%TD*%
D17*
%TO.C,D8*%
X128463000Y-50473800D03*
X128463000Y-51123800D03*
X128463000Y-51773800D03*
X130363000Y-51773800D03*
X130363000Y-51123800D03*
X130363000Y-50473800D03*
%TD*%
D16*
%TO.C,U4*%
X147955000Y-57497500D03*
X146685000Y-57497500D03*
X145415000Y-57497500D03*
X144145000Y-57497500D03*
X142875000Y-57497500D03*
X141605000Y-57497500D03*
X140335000Y-57497500D03*
X139065000Y-57497500D03*
X139065000Y-64422500D03*
X140335000Y-64422500D03*
X141605000Y-64422500D03*
X142875000Y-64422500D03*
X144145000Y-64422500D03*
X145415000Y-64422500D03*
X146685000Y-64422500D03*
X147955000Y-64422500D03*
%TD*%
D14*
%TO.C,D63*%
X168339300Y-99441000D03*
D15*
X170239300Y-99441000D03*
%TD*%
D12*
%TO.C,LED60*%
X156881800Y-88519000D03*
X155306800Y-88519000D03*
%TD*%
%TO.C,D3*%
X166547900Y-82397600D03*
X164972900Y-82397600D03*
%TD*%
D13*
%TO.C,R58*%
X146313500Y-90721700D03*
X147963500Y-90721700D03*
%TD*%
D18*
%TO.C,Q54*%
X130308500Y-93169500D03*
X128408500Y-93169500D03*
X129358500Y-95044500D03*
%TD*%
D17*
%TO.C,D7*%
X160086000Y-50150000D03*
X160086000Y-50800000D03*
X160086000Y-51450000D03*
X161986000Y-51450000D03*
X161986000Y-50800000D03*
X161986000Y-50150000D03*
%TD*%
D13*
%TO.C,TH54*%
X128533500Y-97468400D03*
X130183500Y-97468400D03*
%TD*%
D12*
%TO.C,LED55*%
X134357000Y-88519000D03*
X132782000Y-88519000D03*
%TD*%
D13*
%TO.C,TH61*%
X159409500Y-97468400D03*
X161059500Y-97468400D03*
%TD*%
D12*
%TO.C,LED58*%
X147946000Y-88519000D03*
X146371000Y-88519000D03*
%TD*%
D13*
%TO.C,R61*%
X159417000Y-90721700D03*
X161067000Y-90721700D03*
%TD*%
D18*
%TO.C,Q53*%
X126117500Y-93155262D03*
X124217500Y-93155262D03*
X125167500Y-95030262D03*
%TD*%
%TO.C,Q63*%
X169916800Y-93169500D03*
X168016800Y-93169500D03*
X168966800Y-95044500D03*
%TD*%
D12*
%TO.C,LED63*%
X169781800Y-88519000D03*
X168206800Y-88519000D03*
%TD*%
%TO.C,LED65*%
X178441000Y-88519000D03*
X176866000Y-88519000D03*
%TD*%
D19*
%TO.C,J4*%
X179367900Y-83133800D03*
X179367900Y-78135800D03*
%TD*%
D10*
%TO.C,J2*%
X121793000Y-54864000D03*
D11*
X119253000Y-54864000D03*
X121793000Y-52324000D03*
X119253000Y-52324000D03*
X121793000Y-49784000D03*
X119253000Y-49784000D03*
%TD*%
D20*
%TO.C,RN9*%
X128182800Y-40811600D03*
D21*
X128182800Y-41611600D03*
X128182800Y-42411600D03*
D20*
X128182800Y-43211600D03*
X129982800Y-43211600D03*
D21*
X129982800Y-42411600D03*
X129982800Y-41611600D03*
D20*
X129982800Y-40811600D03*
%TD*%
D22*
%TO.C,R5*%
X166420800Y-79083400D03*
X166420800Y-80733400D03*
%TD*%
D23*
%TO.C,D2*%
X149986900Y-82448400D03*
X151561900Y-82448400D03*
%TD*%
D24*
%TO.C,C1*%
X137922000Y-24847800D03*
X137922000Y-23297800D03*
%TD*%
D25*
%TO.C,RN1*%
X136074000Y-23230000D03*
D26*
X135274000Y-23230000D03*
X134474000Y-23230000D03*
D25*
X133674000Y-23230000D03*
X133674000Y-25030000D03*
D26*
X134474000Y-25030000D03*
X135274000Y-25030000D03*
D25*
X136074000Y-25030000D03*
%TD*%
D14*
%TO.C,D64*%
X172680500Y-99441000D03*
D15*
X174580500Y-99441000D03*
%TD*%
D27*
%TO.C,C9*%
X162928600Y-82397600D03*
X161378600Y-82397600D03*
%TD*%
D28*
%TO.C,R4*%
X177348350Y-36396300D03*
X175698350Y-36396300D03*
%TD*%
D13*
%TO.C,R60*%
X155249300Y-90721700D03*
X156899300Y-90721700D03*
%TD*%
D12*
%TO.C,LED57*%
X143408500Y-88519000D03*
X141833500Y-88519000D03*
%TD*%
D20*
%TO.C,RN7*%
X125490400Y-36595200D03*
D21*
X125490400Y-37395200D03*
X125490400Y-38195200D03*
D20*
X125490400Y-38995200D03*
X127290400Y-38995200D03*
D21*
X127290400Y-38195200D03*
X127290400Y-37395200D03*
D20*
X127290400Y-36595200D03*
%TD*%
D29*
%TO.C,U2*%
X157241200Y-82404500D03*
X158191200Y-82404500D03*
X159141200Y-82404500D03*
X159141200Y-80129500D03*
X158191200Y-80129500D03*
X157241200Y-80129500D03*
%TD*%
D14*
%TO.C,D53*%
X124540000Y-99441000D03*
D15*
X126440000Y-99441000D03*
%TD*%
D13*
%TO.C,TH60*%
X155241800Y-97468400D03*
X156891800Y-97468400D03*
%TD*%
D30*
%TO.C,C7*%
X153606200Y-79616000D03*
X155156200Y-79616000D03*
%TD*%
%TO.C,C8*%
X153593200Y-82410000D03*
X155143200Y-82410000D03*
%TD*%
D13*
%TO.C,R53*%
X124342500Y-90721700D03*
X125992500Y-90721700D03*
%TD*%
D17*
%TO.C,D6*%
X149731350Y-50458800D03*
X149731350Y-51108800D03*
X149731350Y-51758800D03*
X151631350Y-51758800D03*
X151631350Y-51108800D03*
X151631350Y-50458800D03*
%TD*%
D13*
%TO.C,TH56*%
X137210500Y-97468400D03*
X138860500Y-97468400D03*
%TD*%
D12*
%TO.C,LED53*%
X126009500Y-88519000D03*
X124434500Y-88519000D03*
%TD*%
D20*
%TO.C,RN16*%
X132754800Y-36502800D03*
D21*
X132754800Y-37302800D03*
X132754800Y-38102800D03*
D20*
X132754800Y-38902800D03*
X134554800Y-38902800D03*
D21*
X134554800Y-38102800D03*
X134554800Y-37302800D03*
D20*
X134554800Y-36502800D03*
%TD*%
D16*
%TO.C,U3*%
X136144000Y-57497500D03*
X134874000Y-57497500D03*
X133604000Y-57497500D03*
X132334000Y-57497500D03*
X131064000Y-57497500D03*
X129794000Y-57497500D03*
X128524000Y-57497500D03*
X127254000Y-57497500D03*
X127254000Y-64422500D03*
X128524000Y-64422500D03*
X129794000Y-64422500D03*
X131064000Y-64422500D03*
X132334000Y-64422500D03*
X133604000Y-64422500D03*
X134874000Y-64422500D03*
X136144000Y-64422500D03*
%TD*%
D18*
%TO.C,Q58*%
X148088500Y-93169500D03*
X146188500Y-93169500D03*
X147138500Y-95044500D03*
%TD*%
D13*
%TO.C,R51*%
X116142000Y-90721700D03*
X117792000Y-90721700D03*
%TD*%
%TO.C,TH53*%
X124342500Y-97468400D03*
X125992500Y-97468400D03*
%TD*%
D12*
%TO.C,LED61*%
X161049500Y-88519000D03*
X159474500Y-88519000D03*
%TD*%
%TO.C,LED64*%
X174123000Y-88519000D03*
X172548000Y-88519000D03*
%TD*%
D31*
%TO.C,L1*%
X160801200Y-72885000D03*
X155301200Y-72885000D03*
%TD*%
D13*
%TO.C,R54*%
X128533500Y-90721700D03*
X130183500Y-90721700D03*
%TD*%
%TO.C,TH57*%
X141784650Y-97468400D03*
X143434650Y-97468400D03*
%TD*%
D14*
%TO.C,D55*%
X132922000Y-99441000D03*
D15*
X134822000Y-99441000D03*
%TD*%
D12*
%TO.C,LED52*%
X121911000Y-88519000D03*
X120336000Y-88519000D03*
%TD*%
D13*
%TO.C,R65*%
X176808500Y-90721700D03*
X178458500Y-90721700D03*
%TD*%
%TO.C,TH66*%
X181127300Y-97468400D03*
X182777300Y-97468400D03*
%TD*%
D32*
%TO.C,C5*%
X141986000Y-83349600D03*
X141986000Y-75349600D03*
%TD*%
D20*
%TO.C,RN15*%
X150379000Y-38792000D03*
D21*
X150379000Y-37992000D03*
X150379000Y-37192000D03*
D20*
X150379000Y-36392000D03*
X148579000Y-36392000D03*
D21*
X148579000Y-37192000D03*
X148579000Y-37992000D03*
D20*
X148579000Y-38792000D03*
%TD*%
D13*
%TO.C,TH55*%
X132724500Y-97468400D03*
X134374500Y-97468400D03*
%TD*%
%TO.C,TH58*%
X146313500Y-97468400D03*
X147963500Y-97468400D03*
%TD*%
%TO.C,R56*%
X137210500Y-90721700D03*
X138860500Y-90721700D03*
%TD*%
D28*
%TO.C,R3*%
X177348350Y-38301300D03*
X175698350Y-38301300D03*
%TD*%
D12*
%TO.C,LED59*%
X152552500Y-88519000D03*
X150977500Y-88519000D03*
%TD*%
D18*
%TO.C,Q65*%
X178576000Y-93169500D03*
X176676000Y-93169500D03*
X177626000Y-95044500D03*
%TD*%
D12*
%TO.C,LED51*%
X117774500Y-88519000D03*
X116199500Y-88519000D03*
%TD*%
%TO.C,D4*%
X176682500Y-41275000D03*
X175107500Y-41275000D03*
%TD*%
D13*
%TO.C,TH62*%
X163720000Y-97468400D03*
X165370000Y-97468400D03*
%TD*%
%TO.C,TH63*%
X168141800Y-97468400D03*
X169791800Y-97468400D03*
%TD*%
%TO.C,R64*%
X172490500Y-90721700D03*
X174140500Y-90721700D03*
%TD*%
D14*
%TO.C,D58*%
X146511000Y-99441000D03*
D15*
X148411000Y-99441000D03*
%TD*%
D13*
%TO.C,R62*%
X163727500Y-90721700D03*
X165377500Y-90721700D03*
%TD*%
D20*
%TO.C,RN5*%
X154976400Y-38944400D03*
D21*
X154976400Y-38144400D03*
X154976400Y-37344400D03*
D20*
X154976400Y-36544400D03*
X153176400Y-36544400D03*
D21*
X153176400Y-37344400D03*
X153176400Y-38144400D03*
D20*
X153176400Y-38944400D03*
%TD*%
D14*
%TO.C,D65*%
X176998500Y-99441000D03*
D15*
X178898500Y-99441000D03*
%TD*%
D14*
%TO.C,D60*%
X155290500Y-99441000D03*
D15*
X157190500Y-99441000D03*
%TD*%
D18*
%TO.C,Q57*%
X143559650Y-93169500D03*
X141659650Y-93169500D03*
X142609650Y-95044500D03*
%TD*%
D14*
%TO.C,D52*%
X120476000Y-99441000D03*
D15*
X122376000Y-99441000D03*
%TD*%
D13*
%TO.C,R66*%
X181134800Y-90721700D03*
X182784800Y-90721700D03*
%TD*%
D18*
%TO.C,Q61*%
X161184500Y-93169500D03*
X159284500Y-93169500D03*
X160234500Y-95044500D03*
%TD*%
D33*
%TO.C,U1*%
X146255000Y-43942000D03*
X146255000Y-42672000D03*
X146255000Y-41402000D03*
X146255000Y-40132000D03*
X146255000Y-38862000D03*
X146255000Y-37592000D03*
X146255000Y-36322000D03*
X146255000Y-35052000D03*
X146255000Y-33782000D03*
X146255000Y-32512000D03*
X146255000Y-31242000D03*
X146255000Y-29972000D03*
X146255000Y-28702000D03*
X146255000Y-27432000D03*
X136955000Y-27432000D03*
X136955000Y-28702000D03*
X136955000Y-29972000D03*
X136955000Y-31242000D03*
X136955000Y-32512000D03*
X136955000Y-33782000D03*
X136955000Y-35052000D03*
X136955000Y-36322000D03*
X136955000Y-37592000D03*
X136955000Y-38862000D03*
X136955000Y-40132000D03*
X136955000Y-41402000D03*
X136955000Y-42672000D03*
X136955000Y-43942000D03*
%TD*%
D14*
%TO.C,D54*%
X128731000Y-99441000D03*
D15*
X130631000Y-99441000D03*
%TD*%
D13*
%TO.C,R57*%
X141784650Y-90721700D03*
X143434650Y-90721700D03*
%TD*%
%TO.C,R59*%
X150900500Y-90721700D03*
X152550500Y-90721700D03*
%TD*%
D18*
%TO.C,Q60*%
X157016800Y-93169500D03*
X155116800Y-93169500D03*
X156066800Y-95044500D03*
%TD*%
D20*
%TO.C,RN3*%
X154976400Y-43364000D03*
D21*
X154976400Y-42564000D03*
X154976400Y-41764000D03*
D20*
X154976400Y-40964000D03*
X153176400Y-40964000D03*
D21*
X153176400Y-41764000D03*
X153176400Y-42564000D03*
D20*
X153176400Y-43364000D03*
%TD*%
%TO.C,RN11*%
X150379000Y-43364000D03*
D21*
X150379000Y-42564000D03*
X150379000Y-41764000D03*
D20*
X150379000Y-40964000D03*
X148579000Y-40964000D03*
D21*
X148579000Y-41764000D03*
X148579000Y-42564000D03*
D20*
X148579000Y-43364000D03*
%TD*%
D18*
%TO.C,Q52*%
X122053500Y-93169500D03*
X120153500Y-93169500D03*
X121103500Y-95044500D03*
%TD*%
%TO.C,Q59*%
X152668000Y-93169500D03*
X150768000Y-93169500D03*
X151718000Y-95044500D03*
%TD*%
%TO.C,Q56*%
X138985500Y-93169500D03*
X137085500Y-93169500D03*
X138035500Y-95044500D03*
%TD*%
D13*
%TO.C,R55*%
X132724500Y-90721700D03*
X134374500Y-90721700D03*
%TD*%
%TO.C,TH51*%
X116142000Y-97468400D03*
X117792000Y-97468400D03*
%TD*%
D19*
%TO.C,J3*%
X119938800Y-78069800D03*
X119938800Y-83067800D03*
%TD*%
D13*
%TO.C,R52*%
X120278500Y-90721700D03*
X121928500Y-90721700D03*
%TD*%
D34*
%TO.C,SW5*%
X175133000Y-31456300D03*
X177673000Y-31456300D03*
X177673000Y-23556300D03*
X175133000Y-23556300D03*
%TD*%
D16*
%TO.C,U6*%
X170942000Y-57497500D03*
X169672000Y-57497500D03*
X168402000Y-57497500D03*
X167132000Y-57497500D03*
X165862000Y-57497500D03*
X164592000Y-57497500D03*
X163322000Y-57497500D03*
X162052000Y-57497500D03*
X162052000Y-64422500D03*
X163322000Y-64422500D03*
X164592000Y-64422500D03*
X165862000Y-64422500D03*
X167132000Y-64422500D03*
X168402000Y-64422500D03*
X169672000Y-64422500D03*
X170942000Y-64422500D03*
%TD*%
D20*
%TO.C,RN12*%
X132754800Y-40862400D03*
D21*
X132754800Y-41662400D03*
X132754800Y-42462400D03*
D20*
X132754800Y-43262400D03*
X134554800Y-43262400D03*
D21*
X134554800Y-42462400D03*
X134554800Y-41662400D03*
D20*
X134554800Y-40862400D03*
%TD*%
D18*
%TO.C,Q62*%
X165495000Y-93169500D03*
X163595000Y-93169500D03*
X164545000Y-95044500D03*
%TD*%
D35*
%TO.C,SW1*%
X122415000Y-25400000D03*
X122415000Y-27940000D03*
X122415000Y-30480000D03*
X122415000Y-33020000D03*
X130315000Y-33020000D03*
X130315000Y-30480000D03*
X130315000Y-27940000D03*
X130315000Y-25400000D03*
%TD*%
D14*
%TO.C,D59*%
X151090500Y-99441000D03*
D15*
X152990500Y-99441000D03*
%TD*%
D14*
%TO.C,D56*%
X137408000Y-99441000D03*
D15*
X139308000Y-99441000D03*
%TD*%
D27*
%TO.C,C6*%
X159093200Y-78092000D03*
X157543200Y-78092000D03*
%TD*%
D18*
%TO.C,Q55*%
X134372500Y-93169500D03*
X132472500Y-93169500D03*
X133422500Y-95044500D03*
%TD*%
D36*
%TO.C,R6*%
X178435000Y-41592000D03*
X178435000Y-39942000D03*
%TD*%
D13*
%TO.C,R63*%
X168149300Y-90721700D03*
X169799300Y-90721700D03*
%TD*%
D12*
%TO.C,LED62*%
X165506500Y-88519000D03*
X163931500Y-88519000D03*
%TD*%
D18*
%TO.C,Q51*%
X117917000Y-93169500D03*
X116017000Y-93169500D03*
X116967000Y-95044500D03*
%TD*%
D37*
%TO.C,D1*%
X133858000Y-33658000D03*
X133858000Y-30858000D03*
%TD*%
D38*
%TO.C,RJ45-1*%
X122936000Y-113042500D03*
X176276000Y-113042500D03*
D39*
X124206000Y-106692500D03*
X125476000Y-104152500D03*
X126746000Y-106692500D03*
X128016000Y-104152500D03*
X129286000Y-106692500D03*
X130556000Y-104152500D03*
X131826000Y-106692500D03*
X133096000Y-104152500D03*
X138176000Y-106692500D03*
X139446000Y-104152500D03*
X140716000Y-106692500D03*
X141986000Y-104152500D03*
X143256000Y-106692500D03*
X144526000Y-104152500D03*
X145796000Y-106692500D03*
X147066000Y-104152500D03*
X152146000Y-106692500D03*
X153416000Y-104152500D03*
X154686000Y-106692500D03*
X155956000Y-104152500D03*
X157226000Y-106692500D03*
X158496000Y-104152500D03*
X159766000Y-106692500D03*
X161036000Y-104152500D03*
X166116000Y-106692500D03*
X167386000Y-104152500D03*
X168656000Y-106692500D03*
X169926000Y-104152500D03*
X171196000Y-106692500D03*
X172466000Y-104152500D03*
X173736000Y-106692500D03*
X175006000Y-104152500D03*
D40*
X163576000Y-102882500D03*
X179006000Y-117612500D03*
X120206000Y-117612500D03*
X149606000Y-102882500D03*
X135636000Y-102882500D03*
%TD*%
D41*
%TO.C,C3*%
X151765000Y-31864000D03*
X151765000Y-33414000D03*
%TD*%
D12*
%TO.C,LED54*%
X130166000Y-88519000D03*
X128591000Y-88519000D03*
%TD*%
D22*
%TO.C,R1*%
X150063200Y-79134200D03*
X150063200Y-80784200D03*
%TD*%
D13*
%TO.C,TH65*%
X176801000Y-97468400D03*
X178451000Y-97468400D03*
%TD*%
D18*
%TO.C,Q66*%
X182902300Y-93169500D03*
X181002300Y-93169500D03*
X181952300Y-95044500D03*
%TD*%
D14*
%TO.C,D51*%
X116339500Y-99441000D03*
D15*
X118239500Y-99441000D03*
%TD*%
D13*
%TO.C,TH52*%
X120278500Y-97468400D03*
X121928500Y-97468400D03*
%TD*%
%TO.C,TH64*%
X172483000Y-97468400D03*
X174133000Y-97468400D03*
%TD*%
D14*
%TO.C,D66*%
X181324800Y-99441000D03*
D15*
X183224800Y-99441000D03*
%TD*%
D14*
%TO.C,D62*%
X163917500Y-99441000D03*
D15*
X165817500Y-99441000D03*
%TD*%
D17*
%TO.C,D5*%
X138870350Y-50473800D03*
X138870350Y-51123800D03*
X138870350Y-51773800D03*
X140770350Y-51773800D03*
X140770350Y-51123800D03*
X140770350Y-50473800D03*
%TD*%
D18*
%TO.C,Q64*%
X174258000Y-93169500D03*
X172358000Y-93169500D03*
X173308000Y-95044500D03*
%TD*%
M02*
