%TF.GenerationSoftware,KiCad,Pcbnew,(6.0.9)*%
%TF.CreationDate,2023-11-09T20:34:28+05:30*%
%TF.ProjectId,Modular-I2C-4PxRJ45-Relay-Driver,4d6f6475-6c61-4722-9d49-32432d345078,2*%
%TF.SameCoordinates,Original*%
%TF.FileFunction,Soldermask,Bot*%
%TF.FilePolarity,Negative*%
%FSLAX46Y46*%
G04 Gerber Fmt 4.6, Leading zero omitted, Abs format (unit mm)*
G04 Created by KiCad (PCBNEW (6.0.9)) date 2023-11-09 20:34:28*
%MOMM*%
%LPD*%
G01*
G04 APERTURE LIST*
G04 Aperture macros list*
%AMRoundRect*
0 Rectangle with rounded corners*
0 $1 Rounding radius*
0 $2 $3 $4 $5 $6 $7 $8 $9 X,Y pos of 4 corners*
0 Add a 4 corners polygon primitive as box body*
4,1,4,$2,$3,$4,$5,$6,$7,$8,$9,$2,$3,0*
0 Add four circle primitives for the rounded corners*
1,1,$1+$1,$2,$3*
1,1,$1+$1,$4,$5*
1,1,$1+$1,$6,$7*
1,1,$1+$1,$8,$9*
0 Add four rect primitives between the rounded corners*
20,1,$1+$1,$2,$3,$4,$5,0*
20,1,$1+$1,$4,$5,$6,$7,0*
20,1,$1+$1,$6,$7,$8,$9,0*
20,1,$1+$1,$8,$9,$2,$3,0*%
G04 Aperture macros list end*
%ADD10RoundRect,0.250000X0.600000X0.600000X-0.600000X0.600000X-0.600000X-0.600000X0.600000X-0.600000X0*%
%ADD11C,1.700000*%
%ADD12C,3.000000*%
%ADD13C,3.250000*%
%ADD14C,1.500000*%
%ADD15C,2.600000*%
G04 APERTURE END LIST*
D10*
%TO.C,J1*%
X179933600Y-54864000D03*
D11*
X177393600Y-54864000D03*
X179933600Y-52324000D03*
X177393600Y-52324000D03*
X179933600Y-49784000D03*
X177393600Y-49784000D03*
%TD*%
D12*
%TO.C,J4*%
X179367900Y-83133800D03*
X179367900Y-78135800D03*
%TD*%
D10*
%TO.C,J2*%
X121793000Y-54864000D03*
D11*
X119253000Y-54864000D03*
X121793000Y-52324000D03*
X119253000Y-52324000D03*
X121793000Y-49784000D03*
X119253000Y-49784000D03*
%TD*%
D12*
%TO.C,J3*%
X119938800Y-78069800D03*
X119938800Y-83067800D03*
%TD*%
D13*
%TO.C,RJ45-1*%
X122936000Y-113042500D03*
X176276000Y-113042500D03*
D14*
X124206000Y-106692500D03*
X125476000Y-104152500D03*
X126746000Y-106692500D03*
X128016000Y-104152500D03*
X129286000Y-106692500D03*
X130556000Y-104152500D03*
X131826000Y-106692500D03*
X133096000Y-104152500D03*
X138176000Y-106692500D03*
X139446000Y-104152500D03*
X140716000Y-106692500D03*
X141986000Y-104152500D03*
X143256000Y-106692500D03*
X144526000Y-104152500D03*
X145796000Y-106692500D03*
X147066000Y-104152500D03*
X152146000Y-106692500D03*
X153416000Y-104152500D03*
X154686000Y-106692500D03*
X155956000Y-104152500D03*
X157226000Y-106692500D03*
X158496000Y-104152500D03*
X159766000Y-106692500D03*
X161036000Y-104152500D03*
X166116000Y-106692500D03*
X167386000Y-104152500D03*
X168656000Y-106692500D03*
X169926000Y-104152500D03*
X171196000Y-106692500D03*
X172466000Y-104152500D03*
X173736000Y-106692500D03*
X175006000Y-104152500D03*
D15*
X163576000Y-102882500D03*
X179006000Y-117612500D03*
X120206000Y-117612500D03*
X149606000Y-102882500D03*
X135636000Y-102882500D03*
%TD*%
M02*
