%TF.GenerationSoftware,KiCad,Pcbnew,(6.0.9)*%
%TF.CreationDate,2023-11-09T20:34:28+05:30*%
%TF.ProjectId,Modular-I2C-4PxRJ45-Relay-Driver,4d6f6475-6c61-4722-9d49-32432d345078,2*%
%TF.SameCoordinates,Original*%
%TF.FileFunction,Legend,Bot*%
%TF.FilePolarity,Positive*%
%FSLAX46Y46*%
G04 Gerber Fmt 4.6, Leading zero omitted, Abs format (unit mm)*
G04 Created by KiCad (PCBNEW (6.0.9)) date 2023-11-09 20:34:28*
%MOMM*%
%LPD*%
G01*
G04 APERTURE LIST*
%ADD10C,0.254000*%
%ADD11C,0.406400*%
%ADD12C,0.391000*%
%ADD13C,0.476000*%
%ADD14C,0.200000*%
%ADD15C,0.240000*%
%ADD16C,0.252000*%
%ADD17C,0.215900*%
%ADD18C,0.241808*%
%ADD19C,0.350000*%
G04 APERTURE END LIST*
D10*
X348456014Y-74534986D02*
X348456014Y-89534986D01*
X346456014Y-91535014D02*
G75*
G03*
X348456014Y-89534986I-14J2000014D01*
G01*
X331956014Y-89534986D02*
G75*
G03*
X333956014Y-91534986I1999986J-14D01*
G01*
X173688351Y-56130800D02*
X170894351Y-54352800D01*
X173180351Y-55876800D02*
X172926351Y-55876800D01*
X169116351Y-55876800D02*
X170894351Y-54606800D01*
X348456014Y-74534986D02*
G75*
G03*
X346456014Y-72534986I-2000014J-14D01*
G01*
X168354351Y-56130800D02*
X173688351Y-56130800D01*
D11*
X170132351Y-55368800D02*
X171402351Y-55368800D01*
D10*
X170894351Y-54352800D02*
X168354351Y-56130800D01*
D11*
X171402351Y-55368800D02*
X170894351Y-55114800D01*
D10*
X333956014Y-72535014D02*
G75*
G03*
X331956014Y-74534986I-14J-1999986D01*
G01*
X346451014Y-91559986D02*
X333951014Y-91559986D01*
D11*
X172418351Y-55622800D02*
X170894351Y-54860800D01*
D10*
X170894351Y-54606800D02*
X172926351Y-55876800D01*
X172926351Y-55876800D02*
X169116351Y-55876800D01*
D11*
X170894351Y-54860800D02*
X170132351Y-55368800D01*
D10*
X333956014Y-72534986D02*
X346456014Y-72534986D01*
D11*
X169624351Y-55622800D02*
X172418351Y-55622800D01*
D12*
X360801547Y-107221428D02*
X360437928Y-108494095D01*
X360074309Y-107585047D01*
X359710690Y-108494095D01*
X359347071Y-107221428D01*
X358801642Y-107221428D02*
X358438023Y-108494095D01*
X358074404Y-107585047D01*
X357710785Y-108494095D01*
X357347166Y-107221428D01*
X356801738Y-107221428D02*
X356438119Y-108494095D01*
X356074500Y-107585047D01*
X355710880Y-108494095D01*
X355347261Y-107221428D01*
X354620023Y-108312285D02*
X354529119Y-108403190D01*
X354620023Y-108494095D01*
X354710928Y-108403190D01*
X354620023Y-108312285D01*
X354620023Y-108494095D01*
X353801880Y-108403190D02*
X353620071Y-108494095D01*
X353256452Y-108494095D01*
X353074642Y-108403190D01*
X352983738Y-108221380D01*
X352983738Y-108130476D01*
X353074642Y-107948666D01*
X353256452Y-107857761D01*
X353529166Y-107857761D01*
X353710976Y-107766857D01*
X353801880Y-107585047D01*
X353801880Y-107494142D01*
X353710976Y-107312333D01*
X353529166Y-107221428D01*
X353256452Y-107221428D01*
X353074642Y-107312333D01*
X351347452Y-107221428D02*
X351347452Y-108494095D01*
X352165595Y-107221428D02*
X352165595Y-108221380D01*
X352074690Y-108403190D01*
X351892880Y-108494095D01*
X351620166Y-108494095D01*
X351438357Y-108403190D01*
X351347452Y-108312285D01*
X350438404Y-107221428D02*
X350438404Y-109130428D01*
X350438404Y-107312333D02*
X350256595Y-107221428D01*
X349892976Y-107221428D01*
X349711166Y-107312333D01*
X349620261Y-107403238D01*
X349529357Y-107585047D01*
X349529357Y-108130476D01*
X349620261Y-108312285D01*
X349711166Y-108403190D01*
X349892976Y-108494095D01*
X350256595Y-108494095D01*
X350438404Y-108403190D01*
X347983976Y-108403190D02*
X348165785Y-108494095D01*
X348529404Y-108494095D01*
X348711214Y-108403190D01*
X348802119Y-108221380D01*
X348802119Y-107494142D01*
X348711214Y-107312333D01*
X348529404Y-107221428D01*
X348165785Y-107221428D01*
X347983976Y-107312333D01*
X347893071Y-107494142D01*
X347893071Y-107675952D01*
X348802119Y-107857761D01*
X347074928Y-108494095D02*
X347074928Y-107221428D01*
X347074928Y-107585047D02*
X346984023Y-107403238D01*
X346893119Y-107312333D01*
X346711309Y-107221428D01*
X346529500Y-107221428D01*
X345893166Y-108494095D02*
X345893166Y-106585095D01*
X345075023Y-108494095D02*
X345075023Y-107494142D01*
X345165928Y-107312333D01*
X345347738Y-107221428D01*
X345620452Y-107221428D01*
X345802261Y-107312333D01*
X345893166Y-107403238D01*
X343893261Y-108494095D02*
X344075071Y-108403190D01*
X344165976Y-108312285D01*
X344256880Y-108130476D01*
X344256880Y-107585047D01*
X344165976Y-107403238D01*
X344075071Y-107312333D01*
X343893261Y-107221428D01*
X343620547Y-107221428D01*
X343438738Y-107312333D01*
X343347833Y-107403238D01*
X343256928Y-107585047D01*
X343256928Y-108130476D01*
X343347833Y-108312285D01*
X343438738Y-108403190D01*
X343620547Y-108494095D01*
X343893261Y-108494095D01*
X341620642Y-107221428D02*
X341620642Y-108494095D01*
X342438785Y-107221428D02*
X342438785Y-108221380D01*
X342347880Y-108403190D01*
X342166071Y-108494095D01*
X341893357Y-108494095D01*
X341711547Y-108403190D01*
X341620642Y-108312285D01*
X340802500Y-108403190D02*
X340620690Y-108494095D01*
X340257071Y-108494095D01*
X340075261Y-108403190D01*
X339984357Y-108221380D01*
X339984357Y-108130476D01*
X340075261Y-107948666D01*
X340257071Y-107857761D01*
X340529785Y-107857761D01*
X340711595Y-107766857D01*
X340802500Y-107585047D01*
X340802500Y-107494142D01*
X340711595Y-107312333D01*
X340529785Y-107221428D01*
X340257071Y-107221428D01*
X340075261Y-107312333D01*
X338438976Y-108403190D02*
X338620785Y-108494095D01*
X338984404Y-108494095D01*
X339166214Y-108403190D01*
X339257119Y-108221380D01*
X339257119Y-107494142D01*
X339166214Y-107312333D01*
X338984404Y-107221428D01*
X338620785Y-107221428D01*
X338438976Y-107312333D01*
X338348071Y-107494142D01*
X338348071Y-107675952D01*
X339257119Y-107857761D01*
X337529928Y-108312285D02*
X337439023Y-108403190D01*
X337529928Y-108494095D01*
X337620833Y-108403190D01*
X337529928Y-108312285D01*
X337529928Y-108494095D01*
X336893595Y-107221428D02*
X336166357Y-107221428D01*
X336620880Y-106585095D02*
X336620880Y-108221380D01*
X336529976Y-108403190D01*
X336348166Y-108494095D01*
X336166357Y-108494095D01*
X335711833Y-107221428D02*
X335257309Y-108494095D01*
X334802785Y-107221428D01*
X332711976Y-106494190D02*
X334348261Y-108948619D01*
X332075642Y-108494095D02*
X332075642Y-107221428D01*
X332075642Y-106585095D02*
X332166547Y-106676000D01*
X332075642Y-106766904D01*
X331984738Y-106676000D01*
X332075642Y-106585095D01*
X332075642Y-106766904D01*
X331257500Y-106766904D02*
X331166595Y-106676000D01*
X330984785Y-106585095D01*
X330530261Y-106585095D01*
X330348452Y-106676000D01*
X330257547Y-106766904D01*
X330166642Y-106948714D01*
X330166642Y-107130523D01*
X330257547Y-107403238D01*
X331348404Y-108494095D01*
X330166642Y-108494095D01*
X328530357Y-108403190D02*
X328712166Y-108494095D01*
X329075785Y-108494095D01*
X329257595Y-108403190D01*
X329348500Y-108312285D01*
X329439404Y-108130476D01*
X329439404Y-107585047D01*
X329348500Y-107403238D01*
X329257595Y-107312333D01*
X329075785Y-107221428D01*
X328712166Y-107221428D01*
X328530357Y-107312333D01*
X327712214Y-108494095D02*
X327712214Y-107221428D01*
X327712214Y-107585047D02*
X327621309Y-107403238D01*
X327530404Y-107312333D01*
X327348595Y-107221428D01*
X327166785Y-107221428D01*
X326530452Y-107221428D02*
X326530452Y-108857714D01*
X326621357Y-109039523D01*
X326803166Y-109130428D01*
X326894071Y-109130428D01*
X326530452Y-106585095D02*
X326621357Y-106676000D01*
X326530452Y-106766904D01*
X326439547Y-106676000D01*
X326530452Y-106585095D01*
X326530452Y-106766904D01*
X324803261Y-107221428D02*
X324803261Y-108494095D01*
X325257785Y-106494190D02*
X325712309Y-107857761D01*
X324530547Y-107857761D01*
X322894261Y-106585095D02*
X323803309Y-106585095D01*
X323894214Y-107494142D01*
X323803309Y-107403238D01*
X323621500Y-107312333D01*
X323166976Y-107312333D01*
X322985166Y-107403238D01*
X322894261Y-107494142D01*
X322803357Y-107675952D01*
X322803357Y-108130476D01*
X322894261Y-108312285D01*
X322985166Y-108403190D01*
X323166976Y-108494095D01*
X323621500Y-108494095D01*
X323803309Y-108403190D01*
X323894214Y-108312285D01*
D13*
X344654409Y-41369413D02*
X344654409Y-39045413D01*
X343987742Y-40705413D01*
X343321076Y-39045413D01*
X343321076Y-41369413D01*
X342082980Y-41369413D02*
X342273457Y-41258746D01*
X342368695Y-41148080D01*
X342463933Y-40926746D01*
X342463933Y-40262746D01*
X342368695Y-40041413D01*
X342273457Y-39930746D01*
X342082980Y-39820080D01*
X341797266Y-39820080D01*
X341606790Y-39930746D01*
X341511552Y-40041413D01*
X341416314Y-40262746D01*
X341416314Y-40926746D01*
X341511552Y-41148080D01*
X341606790Y-41258746D01*
X341797266Y-41369413D01*
X342082980Y-41369413D01*
X339702028Y-41369413D02*
X339702028Y-39045413D01*
X339702028Y-41258746D02*
X339892504Y-41369413D01*
X340273457Y-41369413D01*
X340463933Y-41258746D01*
X340559171Y-41148080D01*
X340654409Y-40926746D01*
X340654409Y-40262746D01*
X340559171Y-40041413D01*
X340463933Y-39930746D01*
X340273457Y-39820080D01*
X339892504Y-39820080D01*
X339702028Y-39930746D01*
X337892504Y-39820080D02*
X337892504Y-41369413D01*
X338749647Y-39820080D02*
X338749647Y-41037413D01*
X338654409Y-41258746D01*
X338463933Y-41369413D01*
X338178219Y-41369413D01*
X337987742Y-41258746D01*
X337892504Y-41148080D01*
X336654409Y-41369413D02*
X336844885Y-41258746D01*
X336940123Y-41037413D01*
X336940123Y-39045413D01*
X335035361Y-41369413D02*
X335035361Y-40152080D01*
X335130600Y-39930746D01*
X335321076Y-39820080D01*
X335702028Y-39820080D01*
X335892504Y-39930746D01*
X335035361Y-41258746D02*
X335225838Y-41369413D01*
X335702028Y-41369413D01*
X335892504Y-41258746D01*
X335987742Y-41037413D01*
X335987742Y-40816080D01*
X335892504Y-40594746D01*
X335702028Y-40484080D01*
X335225838Y-40484080D01*
X335035361Y-40373413D01*
X334082980Y-41369413D02*
X334082980Y-39820080D01*
X334082980Y-40262746D02*
X333987742Y-40041413D01*
X333892504Y-39930746D01*
X333702028Y-39820080D01*
X333511552Y-39820080D01*
X343797266Y-43561720D02*
X343797266Y-45111053D01*
X344273457Y-42676386D02*
X344749647Y-44336386D01*
X343511552Y-44336386D01*
X342749647Y-44225720D02*
X341225838Y-44225720D01*
X340273457Y-45111053D02*
X340273457Y-42787053D01*
X339511552Y-42787053D01*
X339321076Y-42897720D01*
X339225838Y-43008386D01*
X339130600Y-43229720D01*
X339130600Y-43561720D01*
X339225838Y-43783053D01*
X339321076Y-43893720D01*
X339511552Y-44004386D01*
X340273457Y-44004386D01*
X337987742Y-45111053D02*
X338178219Y-45000386D01*
X338273457Y-44889720D01*
X338368695Y-44668386D01*
X338368695Y-44004386D01*
X338273457Y-43783053D01*
X338178219Y-43672386D01*
X337987742Y-43561720D01*
X337702028Y-43561720D01*
X337511552Y-43672386D01*
X337416314Y-43783053D01*
X337321076Y-44004386D01*
X337321076Y-44668386D01*
X337416314Y-44889720D01*
X337511552Y-45000386D01*
X337702028Y-45111053D01*
X337987742Y-45111053D01*
X336463933Y-45111053D02*
X336463933Y-43561720D01*
X336463933Y-44004386D02*
X336368695Y-43783053D01*
X336273457Y-43672386D01*
X336082980Y-43561720D01*
X335892504Y-43561720D01*
X335511552Y-43561720D02*
X334749647Y-43561720D01*
X335225838Y-42787053D02*
X335225838Y-44779053D01*
X335130600Y-45000386D01*
X334940123Y-45111053D01*
X334749647Y-45111053D01*
X344654409Y-48852693D02*
X344654409Y-46528693D01*
X343797266Y-46750026D02*
X343702028Y-46639360D01*
X343511552Y-46528693D01*
X343035361Y-46528693D01*
X342844885Y-46639360D01*
X342749647Y-46750026D01*
X342654409Y-46971360D01*
X342654409Y-47192693D01*
X342749647Y-47524693D01*
X343892504Y-48852693D01*
X342654409Y-48852693D01*
X340654409Y-48631360D02*
X340749647Y-48742026D01*
X341035361Y-48852693D01*
X341225838Y-48852693D01*
X341511552Y-48742026D01*
X341702028Y-48520693D01*
X341797266Y-48299360D01*
X341892504Y-47856693D01*
X341892504Y-47524693D01*
X341797266Y-47082026D01*
X341702028Y-46860693D01*
X341511552Y-46639360D01*
X341225838Y-46528693D01*
X341035361Y-46528693D01*
X340749647Y-46639360D01*
X340654409Y-46750026D01*
X337130600Y-48852693D02*
X337797266Y-47746026D01*
X338273457Y-48852693D02*
X338273457Y-46528693D01*
X337511552Y-46528693D01*
X337321076Y-46639360D01*
X337225838Y-46750026D01*
X337130600Y-46971360D01*
X337130600Y-47303360D01*
X337225838Y-47524693D01*
X337321076Y-47635360D01*
X337511552Y-47746026D01*
X338273457Y-47746026D01*
X335702028Y-46528693D02*
X335702028Y-48188693D01*
X335797266Y-48520693D01*
X335987742Y-48742026D01*
X336273457Y-48852693D01*
X336463933Y-48852693D01*
X333892504Y-47303360D02*
X333892504Y-48852693D01*
X334368695Y-46418026D02*
X334844885Y-48078026D01*
X333606790Y-48078026D01*
X331892504Y-46528693D02*
X332844885Y-46528693D01*
X332940123Y-47635360D01*
X332844885Y-47524693D01*
X332654409Y-47414026D01*
X332178219Y-47414026D01*
X331987742Y-47524693D01*
X331892504Y-47635360D01*
X331797266Y-47856693D01*
X331797266Y-48410026D01*
X331892504Y-48631360D01*
X331987742Y-48742026D01*
X332178219Y-48852693D01*
X332654409Y-48852693D01*
X332844885Y-48742026D01*
X332940123Y-48631360D01*
X343511552Y-52594333D02*
X344178219Y-51487666D01*
X344654409Y-52594333D02*
X344654409Y-50270333D01*
X343892504Y-50270333D01*
X343702028Y-50381000D01*
X343606790Y-50491666D01*
X343511552Y-50713000D01*
X343511552Y-51045000D01*
X343606790Y-51266333D01*
X343702028Y-51377000D01*
X343892504Y-51487666D01*
X344654409Y-51487666D01*
X341892504Y-52483666D02*
X342082980Y-52594333D01*
X342463933Y-52594333D01*
X342654409Y-52483666D01*
X342749647Y-52262333D01*
X342749647Y-51377000D01*
X342654409Y-51155666D01*
X342463933Y-51045000D01*
X342082980Y-51045000D01*
X341892504Y-51155666D01*
X341797266Y-51377000D01*
X341797266Y-51598333D01*
X342749647Y-51819666D01*
X340654409Y-52594333D02*
X340844885Y-52483666D01*
X340940123Y-52262333D01*
X340940123Y-50270333D01*
X339035361Y-52594333D02*
X339035361Y-51377000D01*
X339130600Y-51155666D01*
X339321076Y-51045000D01*
X339702028Y-51045000D01*
X339892504Y-51155666D01*
X339035361Y-52483666D02*
X339225838Y-52594333D01*
X339702028Y-52594333D01*
X339892504Y-52483666D01*
X339987742Y-52262333D01*
X339987742Y-52041000D01*
X339892504Y-51819666D01*
X339702028Y-51709000D01*
X339225838Y-51709000D01*
X339035361Y-51598333D01*
X338273457Y-51045000D02*
X337797266Y-52594333D01*
X337321076Y-51045000D02*
X337797266Y-52594333D01*
X337987742Y-53147666D01*
X338082980Y-53258333D01*
X338273457Y-53369000D01*
X335035361Y-52594333D02*
X335035361Y-50270333D01*
X334559171Y-50270333D01*
X334273457Y-50381000D01*
X334082980Y-50602333D01*
X333987742Y-50823666D01*
X333892504Y-51266333D01*
X333892504Y-51598333D01*
X333987742Y-52041000D01*
X334082980Y-52262333D01*
X334273457Y-52483666D01*
X334559171Y-52594333D01*
X335035361Y-52594333D01*
X333035361Y-52594333D02*
X333035361Y-51045000D01*
X333035361Y-51487666D02*
X332940123Y-51266333D01*
X332844885Y-51155666D01*
X332654409Y-51045000D01*
X332463933Y-51045000D01*
X331797266Y-52594333D02*
X331797266Y-51045000D01*
X331797266Y-50270333D02*
X331892504Y-50381000D01*
X331797266Y-50491666D01*
X331702028Y-50381000D01*
X331797266Y-50270333D01*
X331797266Y-50491666D01*
X331035361Y-51045000D02*
X330559171Y-52594333D01*
X330082980Y-51045000D01*
X328559171Y-52483666D02*
X328749647Y-52594333D01*
X329130600Y-52594333D01*
X329321076Y-52483666D01*
X329416314Y-52262333D01*
X329416314Y-51377000D01*
X329321076Y-51155666D01*
X329130600Y-51045000D01*
X328749647Y-51045000D01*
X328559171Y-51155666D01*
X328463933Y-51377000D01*
X328463933Y-51598333D01*
X329416314Y-51819666D01*
X327606790Y-52594333D02*
X327606790Y-51045000D01*
X327606790Y-51487666D02*
X327511552Y-51266333D01*
X327416314Y-51155666D01*
X327225838Y-51045000D01*
X327035361Y-51045000D01*
X324178219Y-51377000D02*
X323892504Y-51487666D01*
X323797266Y-51598333D01*
X323702028Y-51819666D01*
X323702028Y-52151666D01*
X323797266Y-52373000D01*
X323892504Y-52483666D01*
X324082980Y-52594333D01*
X324844885Y-52594333D01*
X324844885Y-50270333D01*
X324178219Y-50270333D01*
X323987742Y-50381000D01*
X323892504Y-50491666D01*
X323797266Y-50713000D01*
X323797266Y-50934333D01*
X323892504Y-51155666D01*
X323987742Y-51266333D01*
X324178219Y-51377000D01*
X324844885Y-51377000D01*
X322844885Y-52594333D02*
X322844885Y-51045000D01*
X322844885Y-51487666D02*
X322749647Y-51266333D01*
X322654409Y-51155666D01*
X322463933Y-51045000D01*
X322273457Y-51045000D01*
X320844885Y-52483666D02*
X321035361Y-52594333D01*
X321416314Y-52594333D01*
X321606790Y-52483666D01*
X321702028Y-52262333D01*
X321702028Y-51377000D01*
X321606790Y-51155666D01*
X321416314Y-51045000D01*
X321035361Y-51045000D01*
X320844885Y-51155666D01*
X320749647Y-51377000D01*
X320749647Y-51598333D01*
X321702028Y-51819666D01*
X319035361Y-52594333D02*
X319035361Y-51377000D01*
X319130600Y-51155666D01*
X319321076Y-51045000D01*
X319702028Y-51045000D01*
X319892504Y-51155666D01*
X319035361Y-52483666D02*
X319225838Y-52594333D01*
X319702028Y-52594333D01*
X319892504Y-52483666D01*
X319987742Y-52262333D01*
X319987742Y-52041000D01*
X319892504Y-51819666D01*
X319702028Y-51709000D01*
X319225838Y-51709000D01*
X319035361Y-51598333D01*
X318082980Y-52594333D02*
X318082980Y-50270333D01*
X317892504Y-51709000D02*
X317321076Y-52594333D01*
X317321076Y-51045000D02*
X318082980Y-51930333D01*
X316178219Y-52594333D02*
X316368695Y-52483666D01*
X316463933Y-52373000D01*
X316559171Y-52151666D01*
X316559171Y-51487666D01*
X316463933Y-51266333D01*
X316368695Y-51155666D01*
X316178219Y-51045000D01*
X315892504Y-51045000D01*
X315702028Y-51155666D01*
X315606790Y-51266333D01*
X315511552Y-51487666D01*
X315511552Y-52151666D01*
X315606790Y-52373000D01*
X315702028Y-52483666D01*
X315892504Y-52594333D01*
X316178219Y-52594333D01*
X313797266Y-51045000D02*
X313797266Y-52594333D01*
X314654409Y-51045000D02*
X314654409Y-52262333D01*
X314559171Y-52483666D01*
X314368695Y-52594333D01*
X314082980Y-52594333D01*
X313892504Y-52483666D01*
X313797266Y-52373000D01*
X313130600Y-51045000D02*
X312368695Y-51045000D01*
X312844885Y-50270333D02*
X312844885Y-52262333D01*
X312749647Y-52483666D01*
X312559171Y-52594333D01*
X312368695Y-52594333D01*
D14*
X122005095Y-48263666D02*
X121205095Y-47997000D01*
X122005095Y-47730333D01*
X121281285Y-47006523D02*
X121243190Y-47044619D01*
X121205095Y-47158904D01*
X121205095Y-47235095D01*
X121243190Y-47349380D01*
X121319380Y-47425571D01*
X121395571Y-47463666D01*
X121547952Y-47501761D01*
X121662238Y-47501761D01*
X121814619Y-47463666D01*
X121890809Y-47425571D01*
X121967000Y-47349380D01*
X122005095Y-47235095D01*
X122005095Y-47158904D01*
X121967000Y-47044619D01*
X121928904Y-47006523D01*
X121281285Y-46206523D02*
X121243190Y-46244619D01*
X121205095Y-46358904D01*
X121205095Y-46435095D01*
X121243190Y-46549380D01*
X121319380Y-46625571D01*
X121395571Y-46663666D01*
X121547952Y-46701761D01*
X121662238Y-46701761D01*
X121814619Y-46663666D01*
X121890809Y-46625571D01*
X121967000Y-46549380D01*
X122005095Y-46435095D01*
X122005095Y-46358904D01*
X121967000Y-46244619D01*
X121928904Y-46206523D01*
X118705095Y-47835095D02*
X119086047Y-48101761D01*
X118705095Y-48292238D02*
X119505095Y-48292238D01*
X119505095Y-47987476D01*
X119467000Y-47911285D01*
X119428904Y-47873190D01*
X119352714Y-47835095D01*
X119238428Y-47835095D01*
X119162238Y-47873190D01*
X119124142Y-47911285D01*
X119086047Y-47987476D01*
X119086047Y-48292238D01*
X118743190Y-47530333D02*
X118705095Y-47416047D01*
X118705095Y-47225571D01*
X118743190Y-47149380D01*
X118781285Y-47111285D01*
X118857476Y-47073190D01*
X118933666Y-47073190D01*
X119009857Y-47111285D01*
X119047952Y-47149380D01*
X119086047Y-47225571D01*
X119124142Y-47377952D01*
X119162238Y-47454142D01*
X119200333Y-47492238D01*
X119276523Y-47530333D01*
X119352714Y-47530333D01*
X119428904Y-47492238D01*
X119467000Y-47454142D01*
X119505095Y-47377952D01*
X119505095Y-47187476D01*
X119467000Y-47073190D01*
X119505095Y-46844619D02*
X119505095Y-46387476D01*
X118705095Y-46616047D02*
X119505095Y-46616047D01*
X177140904Y-47112904D02*
X176759952Y-46846238D01*
X177140904Y-46655761D02*
X176340904Y-46655761D01*
X176340904Y-46960523D01*
X176379000Y-47036714D01*
X176417095Y-47074809D01*
X176493285Y-47112904D01*
X176607571Y-47112904D01*
X176683761Y-47074809D01*
X176721857Y-47036714D01*
X176759952Y-46960523D01*
X176759952Y-46655761D01*
X177102809Y-47417666D02*
X177140904Y-47531952D01*
X177140904Y-47722428D01*
X177102809Y-47798619D01*
X177064714Y-47836714D01*
X176988523Y-47874809D01*
X176912333Y-47874809D01*
X176836142Y-47836714D01*
X176798047Y-47798619D01*
X176759952Y-47722428D01*
X176721857Y-47570047D01*
X176683761Y-47493857D01*
X176645666Y-47455761D01*
X176569476Y-47417666D01*
X176493285Y-47417666D01*
X176417095Y-47455761D01*
X176379000Y-47493857D01*
X176340904Y-47570047D01*
X176340904Y-47760523D01*
X176379000Y-47874809D01*
X176340904Y-48103380D02*
X176340904Y-48560523D01*
X177140904Y-48331952D02*
X176340904Y-48331952D01*
D15*
X343657014Y-76537786D02*
X344377014Y-76537786D01*
X344017014Y-76537786D02*
X344017014Y-75277786D01*
X344137014Y-75457786D01*
X344257014Y-75577786D01*
X344377014Y-75637786D01*
X343117014Y-76417786D02*
X343057014Y-76477786D01*
X343117014Y-76537786D01*
X343177014Y-76477786D01*
X343117014Y-76417786D01*
X343117014Y-76537786D01*
X343117014Y-75757786D02*
X343057014Y-75817786D01*
X343117014Y-75877786D01*
X343177014Y-75817786D01*
X343117014Y-75757786D01*
X343117014Y-75877786D01*
X341557014Y-76537786D02*
X341557014Y-75277786D01*
X341257014Y-75277786D01*
X341077014Y-75337786D01*
X340957014Y-75457786D01*
X340897014Y-75577786D01*
X340837014Y-75817786D01*
X340837014Y-75997786D01*
X340897014Y-76237786D01*
X340957014Y-76357786D01*
X341077014Y-76477786D01*
X341257014Y-76537786D01*
X341557014Y-76537786D01*
X339757014Y-76537786D02*
X339757014Y-75877786D01*
X339817014Y-75757786D01*
X339937014Y-75697786D01*
X340177014Y-75697786D01*
X340297014Y-75757786D01*
X339757014Y-76477786D02*
X339877014Y-76537786D01*
X340177014Y-76537786D01*
X340297014Y-76477786D01*
X340357014Y-76357786D01*
X340357014Y-76237786D01*
X340297014Y-76117786D01*
X340177014Y-76057786D01*
X339877014Y-76057786D01*
X339757014Y-75997786D01*
X339337014Y-75697786D02*
X338857014Y-75697786D01*
X339157014Y-75277786D02*
X339157014Y-76357786D01*
X339097014Y-76477786D01*
X338977014Y-76537786D01*
X338857014Y-76537786D01*
X337897014Y-76537786D02*
X337897014Y-75877786D01*
X337957014Y-75757786D01*
X338077014Y-75697786D01*
X338317014Y-75697786D01*
X338437014Y-75757786D01*
X337897014Y-76477786D02*
X338017014Y-76537786D01*
X338317014Y-76537786D01*
X338437014Y-76477786D01*
X338497014Y-76357786D01*
X338497014Y-76237786D01*
X338437014Y-76117786D01*
X338317014Y-76057786D01*
X338017014Y-76057786D01*
X337897014Y-75997786D01*
X335677014Y-76537786D02*
X336397014Y-76537786D01*
X336037014Y-76537786D02*
X336037014Y-75277786D01*
X336157014Y-75457786D01*
X336277014Y-75577786D01*
X336397014Y-75637786D01*
X344377014Y-77426386D02*
X344317014Y-77366386D01*
X344197014Y-77306386D01*
X343897014Y-77306386D01*
X343777014Y-77366386D01*
X343717014Y-77426386D01*
X343657014Y-77546386D01*
X343657014Y-77666386D01*
X343717014Y-77846386D01*
X344437014Y-78566386D01*
X343657014Y-78566386D01*
X343117014Y-78446386D02*
X343057014Y-78506386D01*
X343117014Y-78566386D01*
X343177014Y-78506386D01*
X343117014Y-78446386D01*
X343117014Y-78566386D01*
X343117014Y-77786386D02*
X343057014Y-77846386D01*
X343117014Y-77906386D01*
X343177014Y-77846386D01*
X343117014Y-77786386D01*
X343117014Y-77906386D01*
X341557014Y-78566386D02*
X341557014Y-77306386D01*
X341257014Y-77306386D01*
X341077014Y-77366386D01*
X340957014Y-77486386D01*
X340897014Y-77606386D01*
X340837014Y-77846386D01*
X340837014Y-78026386D01*
X340897014Y-78266386D01*
X340957014Y-78386386D01*
X341077014Y-78506386D01*
X341257014Y-78566386D01*
X341557014Y-78566386D01*
X339757014Y-78566386D02*
X339757014Y-77906386D01*
X339817014Y-77786386D01*
X339937014Y-77726386D01*
X340177014Y-77726386D01*
X340297014Y-77786386D01*
X339757014Y-78506386D02*
X339877014Y-78566386D01*
X340177014Y-78566386D01*
X340297014Y-78506386D01*
X340357014Y-78386386D01*
X340357014Y-78266386D01*
X340297014Y-78146386D01*
X340177014Y-78086386D01*
X339877014Y-78086386D01*
X339757014Y-78026386D01*
X339337014Y-77726386D02*
X338857014Y-77726386D01*
X339157014Y-77306386D02*
X339157014Y-78386386D01*
X339097014Y-78506386D01*
X338977014Y-78566386D01*
X338857014Y-78566386D01*
X337897014Y-78566386D02*
X337897014Y-77906386D01*
X337957014Y-77786386D01*
X338077014Y-77726386D01*
X338317014Y-77726386D01*
X338437014Y-77786386D01*
X337897014Y-78506386D02*
X338017014Y-78566386D01*
X338317014Y-78566386D01*
X338437014Y-78506386D01*
X338497014Y-78386386D01*
X338497014Y-78266386D01*
X338437014Y-78146386D01*
X338317014Y-78086386D01*
X338017014Y-78086386D01*
X337897014Y-78026386D01*
X336397014Y-77426386D02*
X336337014Y-77366386D01*
X336217014Y-77306386D01*
X335917014Y-77306386D01*
X335797014Y-77366386D01*
X335737014Y-77426386D01*
X335677014Y-77546386D01*
X335677014Y-77666386D01*
X335737014Y-77846386D01*
X336457014Y-78566386D01*
X335677014Y-78566386D01*
X344437014Y-79334986D02*
X343657014Y-79334986D01*
X344077014Y-79814986D01*
X343897014Y-79814986D01*
X343777014Y-79874986D01*
X343717014Y-79934986D01*
X343657014Y-80054986D01*
X343657014Y-80354986D01*
X343717014Y-80474986D01*
X343777014Y-80534986D01*
X343897014Y-80594986D01*
X344257014Y-80594986D01*
X344377014Y-80534986D01*
X344437014Y-80474986D01*
X343117014Y-80474986D02*
X343057014Y-80534986D01*
X343117014Y-80594986D01*
X343177014Y-80534986D01*
X343117014Y-80474986D01*
X343117014Y-80594986D01*
X343117014Y-79814986D02*
X343057014Y-79874986D01*
X343117014Y-79934986D01*
X343177014Y-79874986D01*
X343117014Y-79814986D01*
X343117014Y-79934986D01*
X341557014Y-80594986D02*
X341557014Y-79334986D01*
X341257014Y-79334986D01*
X341077014Y-79394986D01*
X340957014Y-79514986D01*
X340897014Y-79634986D01*
X340837014Y-79874986D01*
X340837014Y-80054986D01*
X340897014Y-80294986D01*
X340957014Y-80414986D01*
X341077014Y-80534986D01*
X341257014Y-80594986D01*
X341557014Y-80594986D01*
X339757014Y-80594986D02*
X339757014Y-79934986D01*
X339817014Y-79814986D01*
X339937014Y-79754986D01*
X340177014Y-79754986D01*
X340297014Y-79814986D01*
X339757014Y-80534986D02*
X339877014Y-80594986D01*
X340177014Y-80594986D01*
X340297014Y-80534986D01*
X340357014Y-80414986D01*
X340357014Y-80294986D01*
X340297014Y-80174986D01*
X340177014Y-80114986D01*
X339877014Y-80114986D01*
X339757014Y-80054986D01*
X339337014Y-79754986D02*
X338857014Y-79754986D01*
X339157014Y-79334986D02*
X339157014Y-80414986D01*
X339097014Y-80534986D01*
X338977014Y-80594986D01*
X338857014Y-80594986D01*
X337897014Y-80594986D02*
X337897014Y-79934986D01*
X337957014Y-79814986D01*
X338077014Y-79754986D01*
X338317014Y-79754986D01*
X338437014Y-79814986D01*
X337897014Y-80534986D02*
X338017014Y-80594986D01*
X338317014Y-80594986D01*
X338437014Y-80534986D01*
X338497014Y-80414986D01*
X338497014Y-80294986D01*
X338437014Y-80174986D01*
X338317014Y-80114986D01*
X338017014Y-80114986D01*
X337897014Y-80054986D01*
X336457014Y-79334986D02*
X335677014Y-79334986D01*
X336097014Y-79814986D01*
X335917014Y-79814986D01*
X335797014Y-79874986D01*
X335737014Y-79934986D01*
X335677014Y-80054986D01*
X335677014Y-80354986D01*
X335737014Y-80474986D01*
X335797014Y-80534986D01*
X335917014Y-80594986D01*
X336277014Y-80594986D01*
X336397014Y-80534986D01*
X336457014Y-80474986D01*
X343777014Y-81783586D02*
X343777014Y-82623586D01*
X344077014Y-81303586D02*
X344377014Y-82203586D01*
X343597014Y-82203586D01*
X343117014Y-82503586D02*
X343057014Y-82563586D01*
X343117014Y-82623586D01*
X343177014Y-82563586D01*
X343117014Y-82503586D01*
X343117014Y-82623586D01*
X343117014Y-81843586D02*
X343057014Y-81903586D01*
X343117014Y-81963586D01*
X343177014Y-81903586D01*
X343117014Y-81843586D01*
X343117014Y-81963586D01*
X341737014Y-81363586D02*
X341317014Y-82623586D01*
X340897014Y-81363586D01*
X340477014Y-82623586D02*
X340477014Y-81363586D01*
X339877014Y-82623586D02*
X339877014Y-81363586D01*
X339157014Y-82623586D01*
X339157014Y-81363586D01*
X343717014Y-83392186D02*
X344317014Y-83392186D01*
X344377014Y-83992186D01*
X344317014Y-83932186D01*
X344197014Y-83872186D01*
X343897014Y-83872186D01*
X343777014Y-83932186D01*
X343717014Y-83992186D01*
X343657014Y-84112186D01*
X343657014Y-84412186D01*
X343717014Y-84532186D01*
X343777014Y-84592186D01*
X343897014Y-84652186D01*
X344197014Y-84652186D01*
X344317014Y-84592186D01*
X344377014Y-84532186D01*
X343117014Y-84532186D02*
X343057014Y-84592186D01*
X343117014Y-84652186D01*
X343177014Y-84592186D01*
X343117014Y-84532186D01*
X343117014Y-84652186D01*
X343117014Y-83872186D02*
X343057014Y-83932186D01*
X343117014Y-83992186D01*
X343177014Y-83932186D01*
X343117014Y-83872186D01*
X343117014Y-83992186D01*
X341737014Y-83392186D02*
X341317014Y-84652186D01*
X340897014Y-83392186D01*
X340477014Y-84652186D02*
X340477014Y-83392186D01*
X339877014Y-84652186D02*
X339877014Y-83392186D01*
X339157014Y-84652186D01*
X339157014Y-83392186D01*
X343777014Y-85420786D02*
X344017014Y-85420786D01*
X344137014Y-85480786D01*
X344197014Y-85540786D01*
X344317014Y-85720786D01*
X344377014Y-85960786D01*
X344377014Y-86440786D01*
X344317014Y-86560786D01*
X344257014Y-86620786D01*
X344137014Y-86680786D01*
X343897014Y-86680786D01*
X343777014Y-86620786D01*
X343717014Y-86560786D01*
X343657014Y-86440786D01*
X343657014Y-86140786D01*
X343717014Y-86020786D01*
X343777014Y-85960786D01*
X343897014Y-85900786D01*
X344137014Y-85900786D01*
X344257014Y-85960786D01*
X344317014Y-86020786D01*
X344377014Y-86140786D01*
X343117014Y-86560786D02*
X343057014Y-86620786D01*
X343117014Y-86680786D01*
X343177014Y-86620786D01*
X343117014Y-86560786D01*
X343117014Y-86680786D01*
X343117014Y-85900786D02*
X343057014Y-85960786D01*
X343117014Y-86020786D01*
X343177014Y-85960786D01*
X343117014Y-85900786D01*
X343117014Y-86020786D01*
X341557014Y-86680786D02*
X341557014Y-85420786D01*
X341257014Y-85420786D01*
X341077014Y-85480786D01*
X340957014Y-85600786D01*
X340897014Y-85720786D01*
X340837014Y-85960786D01*
X340837014Y-86140786D01*
X340897014Y-86380786D01*
X340957014Y-86500786D01*
X341077014Y-86620786D01*
X341257014Y-86680786D01*
X341557014Y-86680786D01*
X339757014Y-86680786D02*
X339757014Y-86020786D01*
X339817014Y-85900786D01*
X339937014Y-85840786D01*
X340177014Y-85840786D01*
X340297014Y-85900786D01*
X339757014Y-86620786D02*
X339877014Y-86680786D01*
X340177014Y-86680786D01*
X340297014Y-86620786D01*
X340357014Y-86500786D01*
X340357014Y-86380786D01*
X340297014Y-86260786D01*
X340177014Y-86200786D01*
X339877014Y-86200786D01*
X339757014Y-86140786D01*
X339337014Y-85840786D02*
X338857014Y-85840786D01*
X339157014Y-85420786D02*
X339157014Y-86500786D01*
X339097014Y-86620786D01*
X338977014Y-86680786D01*
X338857014Y-86680786D01*
X337897014Y-86680786D02*
X337897014Y-86020786D01*
X337957014Y-85900786D01*
X338077014Y-85840786D01*
X338317014Y-85840786D01*
X338437014Y-85900786D01*
X337897014Y-86620786D02*
X338017014Y-86680786D01*
X338317014Y-86680786D01*
X338437014Y-86620786D01*
X338497014Y-86500786D01*
X338497014Y-86380786D01*
X338437014Y-86260786D01*
X338317014Y-86200786D01*
X338017014Y-86200786D01*
X337897014Y-86140786D01*
X335797014Y-85840786D02*
X335797014Y-86680786D01*
X336097014Y-85360786D02*
X336397014Y-86260786D01*
X335617014Y-86260786D01*
X344437014Y-87449386D02*
X343597014Y-87449386D01*
X344137014Y-88709386D01*
X343117014Y-88589386D02*
X343057014Y-88649386D01*
X343117014Y-88709386D01*
X343177014Y-88649386D01*
X343117014Y-88589386D01*
X343117014Y-88709386D01*
X343117014Y-87929386D02*
X343057014Y-87989386D01*
X343117014Y-88049386D01*
X343177014Y-87989386D01*
X343117014Y-87929386D01*
X343117014Y-88049386D01*
X340897014Y-87509386D02*
X341017014Y-87449386D01*
X341197014Y-87449386D01*
X341377014Y-87509386D01*
X341497014Y-87629386D01*
X341557014Y-87749386D01*
X341617014Y-87989386D01*
X341617014Y-88169386D01*
X341557014Y-88409386D01*
X341497014Y-88529386D01*
X341377014Y-88649386D01*
X341197014Y-88709386D01*
X341077014Y-88709386D01*
X340897014Y-88649386D01*
X340837014Y-88589386D01*
X340837014Y-88169386D01*
X341077014Y-88169386D01*
X340297014Y-88709386D02*
X340297014Y-87449386D01*
X339577014Y-88709386D01*
X339577014Y-87449386D01*
X338977014Y-88709386D02*
X338977014Y-87449386D01*
X338677014Y-87449386D01*
X338497014Y-87509386D01*
X338377014Y-87629386D01*
X338317014Y-87749386D01*
X338257014Y-87989386D01*
X338257014Y-88169386D01*
X338317014Y-88409386D01*
X338377014Y-88529386D01*
X338497014Y-88649386D01*
X338677014Y-88709386D01*
X338977014Y-88709386D01*
X344137014Y-90017986D02*
X344257014Y-89957986D01*
X344317014Y-89897986D01*
X344377014Y-89777986D01*
X344377014Y-89717986D01*
X344317014Y-89597986D01*
X344257014Y-89537986D01*
X344137014Y-89477986D01*
X343897014Y-89477986D01*
X343777014Y-89537986D01*
X343717014Y-89597986D01*
X343657014Y-89717986D01*
X343657014Y-89777986D01*
X343717014Y-89897986D01*
X343777014Y-89957986D01*
X343897014Y-90017986D01*
X344137014Y-90017986D01*
X344257014Y-90077986D01*
X344317014Y-90137986D01*
X344377014Y-90257986D01*
X344377014Y-90497986D01*
X344317014Y-90617986D01*
X344257014Y-90677986D01*
X344137014Y-90737986D01*
X343897014Y-90737986D01*
X343777014Y-90677986D01*
X343717014Y-90617986D01*
X343657014Y-90497986D01*
X343657014Y-90257986D01*
X343717014Y-90137986D01*
X343777014Y-90077986D01*
X343897014Y-90017986D01*
X343117014Y-90617986D02*
X343057014Y-90677986D01*
X343117014Y-90737986D01*
X343177014Y-90677986D01*
X343117014Y-90617986D01*
X343117014Y-90737986D01*
X343117014Y-89957986D02*
X343057014Y-90017986D01*
X343117014Y-90077986D01*
X343177014Y-90017986D01*
X343117014Y-89957986D01*
X343117014Y-90077986D01*
X340897014Y-89537986D02*
X341017014Y-89477986D01*
X341197014Y-89477986D01*
X341377014Y-89537986D01*
X341497014Y-89657986D01*
X341557014Y-89777986D01*
X341617014Y-90017986D01*
X341617014Y-90197986D01*
X341557014Y-90437986D01*
X341497014Y-90557986D01*
X341377014Y-90677986D01*
X341197014Y-90737986D01*
X341077014Y-90737986D01*
X340897014Y-90677986D01*
X340837014Y-90617986D01*
X340837014Y-90197986D01*
X341077014Y-90197986D01*
X340297014Y-90737986D02*
X340297014Y-89477986D01*
X339577014Y-90737986D01*
X339577014Y-89477986D01*
X338977014Y-90737986D02*
X338977014Y-89477986D01*
X338677014Y-89477986D01*
X338497014Y-89537986D01*
X338377014Y-89657986D01*
X338317014Y-89777986D01*
X338257014Y-90017986D01*
X338257014Y-90197986D01*
X338317014Y-90437986D01*
X338377014Y-90557986D01*
X338497014Y-90677986D01*
X338677014Y-90737986D01*
X338977014Y-90737986D01*
D14*
X117367000Y-52806523D02*
X117405095Y-52882714D01*
X117405095Y-52997000D01*
X117367000Y-53111285D01*
X117290809Y-53187476D01*
X117214619Y-53225571D01*
X117062238Y-53263666D01*
X116947952Y-53263666D01*
X116795571Y-53225571D01*
X116719380Y-53187476D01*
X116643190Y-53111285D01*
X116605095Y-52997000D01*
X116605095Y-52920809D01*
X116643190Y-52806523D01*
X116681285Y-52768428D01*
X116947952Y-52768428D01*
X116947952Y-52920809D01*
X116605095Y-52425571D02*
X117405095Y-52425571D01*
X116605095Y-51968428D01*
X117405095Y-51968428D01*
X116605095Y-51587476D02*
X117405095Y-51587476D01*
X117405095Y-51397000D01*
X117367000Y-51282714D01*
X117290809Y-51206523D01*
X117214619Y-51168428D01*
X117062238Y-51130333D01*
X116947952Y-51130333D01*
X116795571Y-51168428D01*
X116719380Y-51206523D01*
X116643190Y-51282714D01*
X116605095Y-51397000D01*
X116605095Y-51587476D01*
X118643190Y-58068428D02*
X118605095Y-57954142D01*
X118605095Y-57763666D01*
X118643190Y-57687476D01*
X118681285Y-57649380D01*
X118757476Y-57611285D01*
X118833666Y-57611285D01*
X118909857Y-57649380D01*
X118947952Y-57687476D01*
X118986047Y-57763666D01*
X119024142Y-57916047D01*
X119062238Y-57992238D01*
X119100333Y-58030333D01*
X119176523Y-58068428D01*
X119252714Y-58068428D01*
X119328904Y-58030333D01*
X119367000Y-57992238D01*
X119405095Y-57916047D01*
X119405095Y-57725571D01*
X119367000Y-57611285D01*
X118605095Y-57268428D02*
X119405095Y-57268428D01*
X119405095Y-57077952D01*
X119367000Y-56963666D01*
X119290809Y-56887476D01*
X119214619Y-56849380D01*
X119062238Y-56811285D01*
X118947952Y-56811285D01*
X118795571Y-56849380D01*
X118719380Y-56887476D01*
X118643190Y-56963666D01*
X118605095Y-57077952D01*
X118605095Y-57268428D01*
X118833666Y-56506523D02*
X118833666Y-56125571D01*
X118605095Y-56582714D02*
X119405095Y-56316047D01*
X118605095Y-56049380D01*
D16*
X343679880Y-74360319D02*
X344062547Y-73813652D01*
X344335880Y-74360319D02*
X344335880Y-73212319D01*
X343898547Y-73212319D01*
X343789214Y-73266986D01*
X343734547Y-73321652D01*
X343679880Y-73430986D01*
X343679880Y-73594986D01*
X343734547Y-73704319D01*
X343789214Y-73758986D01*
X343898547Y-73813652D01*
X344335880Y-73813652D01*
X342859880Y-73212319D02*
X342859880Y-74032319D01*
X342914547Y-74196319D01*
X343023880Y-74305652D01*
X343187880Y-74360319D01*
X343297214Y-74360319D01*
X341821214Y-73594986D02*
X341821214Y-74360319D01*
X342094547Y-73157652D02*
X342367880Y-73977652D01*
X341657214Y-73977652D01*
X340673214Y-73212319D02*
X341219880Y-73212319D01*
X341274547Y-73758986D01*
X341219880Y-73704319D01*
X341110547Y-73649652D01*
X340837214Y-73649652D01*
X340727880Y-73704319D01*
X340673214Y-73758986D01*
X340618547Y-73868319D01*
X340618547Y-74141652D01*
X340673214Y-74250986D01*
X340727880Y-74305652D01*
X340837214Y-74360319D01*
X341110547Y-74360319D01*
X341219880Y-74305652D01*
X341274547Y-74250986D01*
X339251880Y-74360319D02*
X339251880Y-73212319D01*
X338814547Y-73212319D01*
X338705214Y-73266986D01*
X338650547Y-73321652D01*
X338595880Y-73430986D01*
X338595880Y-73594986D01*
X338650547Y-73704319D01*
X338705214Y-73758986D01*
X338814547Y-73813652D01*
X339251880Y-73813652D01*
X338103880Y-74360319D02*
X338103880Y-73594986D01*
X338103880Y-73212319D02*
X338158547Y-73266986D01*
X338103880Y-73321652D01*
X338049214Y-73266986D01*
X338103880Y-73212319D01*
X338103880Y-73321652D01*
X337557214Y-73594986D02*
X337557214Y-74360319D01*
X337557214Y-73704319D02*
X337502547Y-73649652D01*
X337393214Y-73594986D01*
X337229214Y-73594986D01*
X337119880Y-73649652D01*
X337065214Y-73758986D01*
X337065214Y-74360319D01*
X336354547Y-74360319D02*
X336463880Y-74305652D01*
X336518547Y-74250986D01*
X336573214Y-74141652D01*
X336573214Y-73813652D01*
X336518547Y-73704319D01*
X336463880Y-73649652D01*
X336354547Y-73594986D01*
X336190547Y-73594986D01*
X336081214Y-73649652D01*
X336026547Y-73704319D01*
X335971880Y-73813652D01*
X335971880Y-74141652D01*
X336026547Y-74250986D01*
X336081214Y-74305652D01*
X336190547Y-74360319D01*
X336354547Y-74360319D01*
X334987880Y-73594986D02*
X334987880Y-74360319D01*
X335479880Y-73594986D02*
X335479880Y-74196319D01*
X335425214Y-74305652D01*
X335315880Y-74360319D01*
X335151880Y-74360319D01*
X335042547Y-74305652D01*
X334987880Y-74250986D01*
X334605214Y-73594986D02*
X334167880Y-73594986D01*
X334441214Y-73212319D02*
X334441214Y-74196319D01*
X334386547Y-74305652D01*
X334277214Y-74360319D01*
X334167880Y-74360319D01*
D17*
X361464345Y-98517111D02*
X361514541Y-98567306D01*
X361665126Y-98617501D01*
X361765517Y-98617501D01*
X361916103Y-98567306D01*
X362016493Y-98466916D01*
X362066688Y-98366525D01*
X362116884Y-98165744D01*
X362116884Y-98015158D01*
X362066688Y-97814377D01*
X362016493Y-97713987D01*
X361916103Y-97613597D01*
X361765517Y-97563401D01*
X361665126Y-97563401D01*
X361514541Y-97613597D01*
X361464345Y-97663792D01*
X360862003Y-98617501D02*
X360962393Y-98567306D01*
X361012588Y-98517111D01*
X361062784Y-98416720D01*
X361062784Y-98115549D01*
X361012588Y-98015158D01*
X360962393Y-97964963D01*
X360862003Y-97914768D01*
X360711417Y-97914768D01*
X360611026Y-97964963D01*
X360560831Y-98015158D01*
X360510636Y-98115549D01*
X360510636Y-98416720D01*
X360560831Y-98517111D01*
X360611026Y-98567306D01*
X360711417Y-98617501D01*
X360862003Y-98617501D01*
X360058879Y-97914768D02*
X360058879Y-98968868D01*
X360058879Y-97964963D02*
X359958488Y-97914768D01*
X359757707Y-97914768D01*
X359657317Y-97964963D01*
X359607122Y-98015158D01*
X359556926Y-98115549D01*
X359556926Y-98416720D01*
X359607122Y-98517111D01*
X359657317Y-98567306D01*
X359757707Y-98617501D01*
X359958488Y-98617501D01*
X360058879Y-98567306D01*
X359205560Y-97914768D02*
X358954584Y-98617501D01*
X358703607Y-97914768D02*
X358954584Y-98617501D01*
X359054974Y-98868477D01*
X359105169Y-98918673D01*
X359205560Y-98968868D01*
X358302045Y-98617501D02*
X358302045Y-97914768D01*
X358302045Y-98115549D02*
X358251850Y-98015158D01*
X358201655Y-97964963D01*
X358101265Y-97914768D01*
X358000874Y-97914768D01*
X357649507Y-98617501D02*
X357649507Y-97914768D01*
X357649507Y-97563401D02*
X357699703Y-97613597D01*
X357649507Y-97663792D01*
X357599312Y-97613597D01*
X357649507Y-97563401D01*
X357649507Y-97663792D01*
X356695798Y-97914768D02*
X356695798Y-98768087D01*
X356745993Y-98868477D01*
X356796188Y-98918673D01*
X356896579Y-98968868D01*
X357047165Y-98968868D01*
X357147555Y-98918673D01*
X356695798Y-98567306D02*
X356796188Y-98617501D01*
X356996969Y-98617501D01*
X357097360Y-98567306D01*
X357147555Y-98517111D01*
X357197750Y-98416720D01*
X357197750Y-98115549D01*
X357147555Y-98015158D01*
X357097360Y-97964963D01*
X356996969Y-97914768D01*
X356796188Y-97914768D01*
X356695798Y-97964963D01*
X356193845Y-98617501D02*
X356193845Y-97563401D01*
X355742088Y-98617501D02*
X355742088Y-98065354D01*
X355792284Y-97964963D01*
X355892674Y-97914768D01*
X356043260Y-97914768D01*
X356143650Y-97964963D01*
X356193845Y-98015158D01*
X355390722Y-97914768D02*
X354989160Y-97914768D01*
X355240136Y-97563401D02*
X355240136Y-98466916D01*
X355189941Y-98567306D01*
X355089550Y-98617501D01*
X354989160Y-98617501D01*
X353884865Y-97663792D02*
X353834669Y-97613597D01*
X353734279Y-97563401D01*
X353483303Y-97563401D01*
X353382912Y-97613597D01*
X353332717Y-97663792D01*
X353282522Y-97764182D01*
X353282522Y-97864573D01*
X353332717Y-98015158D01*
X353935060Y-98617501D01*
X353282522Y-98617501D01*
X352629984Y-97563401D02*
X352529593Y-97563401D01*
X352429203Y-97613597D01*
X352379007Y-97663792D01*
X352328812Y-97764182D01*
X352278617Y-97964963D01*
X352278617Y-98215939D01*
X352328812Y-98416720D01*
X352379007Y-98517111D01*
X352429203Y-98567306D01*
X352529593Y-98617501D01*
X352629984Y-98617501D01*
X352730374Y-98567306D01*
X352780569Y-98517111D01*
X352830765Y-98416720D01*
X352880960Y-98215939D01*
X352880960Y-97964963D01*
X352830765Y-97764182D01*
X352780569Y-97663792D01*
X352730374Y-97613597D01*
X352629984Y-97563401D01*
X351274712Y-98617501D02*
X351877055Y-98617501D01*
X351575884Y-98617501D02*
X351575884Y-97563401D01*
X351676274Y-97713987D01*
X351776665Y-97814377D01*
X351877055Y-97864573D01*
X350772760Y-98617501D02*
X350571979Y-98617501D01*
X350471588Y-98567306D01*
X350421393Y-98517111D01*
X350321003Y-98366525D01*
X350270807Y-98165744D01*
X350270807Y-97764182D01*
X350321003Y-97663792D01*
X350371198Y-97613597D01*
X350471588Y-97563401D01*
X350672369Y-97563401D01*
X350772760Y-97613597D01*
X350822955Y-97663792D01*
X350873150Y-97764182D01*
X350873150Y-98015158D01*
X350822955Y-98115549D01*
X350772760Y-98165744D01*
X350672369Y-98215939D01*
X350471588Y-98215939D01*
X350371198Y-98165744D01*
X350321003Y-98115549D01*
X350270807Y-98015158D01*
X349819050Y-98215939D02*
X349015926Y-98215939D01*
X348564169Y-97663792D02*
X348513974Y-97613597D01*
X348413584Y-97563401D01*
X348162607Y-97563401D01*
X348062217Y-97613597D01*
X348012022Y-97663792D01*
X347961826Y-97764182D01*
X347961826Y-97864573D01*
X348012022Y-98015158D01*
X348614365Y-98617501D01*
X347961826Y-98617501D01*
X347309288Y-97563401D02*
X347208898Y-97563401D01*
X347108507Y-97613597D01*
X347058312Y-97663792D01*
X347008117Y-97764182D01*
X346957922Y-97964963D01*
X346957922Y-98215939D01*
X347008117Y-98416720D01*
X347058312Y-98517111D01*
X347108507Y-98567306D01*
X347208898Y-98617501D01*
X347309288Y-98617501D01*
X347409679Y-98567306D01*
X347459874Y-98517111D01*
X347510069Y-98416720D01*
X347560265Y-98215939D01*
X347560265Y-97964963D01*
X347510069Y-97764182D01*
X347459874Y-97663792D01*
X347409679Y-97613597D01*
X347309288Y-97563401D01*
X346556360Y-97663792D02*
X346506165Y-97613597D01*
X346405774Y-97563401D01*
X346154798Y-97563401D01*
X346054407Y-97613597D01*
X346004212Y-97663792D01*
X345954017Y-97764182D01*
X345954017Y-97864573D01*
X346004212Y-98015158D01*
X346606555Y-98617501D01*
X345954017Y-98617501D01*
X344950112Y-98617501D02*
X345552455Y-98617501D01*
X345251284Y-98617501D02*
X345251284Y-97563401D01*
X345351674Y-97713987D01*
X345452065Y-97814377D01*
X345552455Y-97864573D01*
X343745426Y-98567306D02*
X343594841Y-98617501D01*
X343343865Y-98617501D01*
X343243474Y-98567306D01*
X343193279Y-98517111D01*
X343143084Y-98416720D01*
X343143084Y-98316330D01*
X343193279Y-98215939D01*
X343243474Y-98165744D01*
X343343865Y-98115549D01*
X343544645Y-98065354D01*
X343645036Y-98015158D01*
X343695231Y-97964963D01*
X343745426Y-97864573D01*
X343745426Y-97764182D01*
X343695231Y-97663792D01*
X343645036Y-97613597D01*
X343544645Y-97563401D01*
X343293669Y-97563401D01*
X343143084Y-97613597D01*
X342239569Y-97914768D02*
X342239569Y-98617501D01*
X342691326Y-97914768D02*
X342691326Y-98466916D01*
X342641131Y-98567306D01*
X342540741Y-98617501D01*
X342390155Y-98617501D01*
X342289765Y-98567306D01*
X342239569Y-98517111D01*
X341737617Y-97914768D02*
X341737617Y-98968868D01*
X341737617Y-97964963D02*
X341637226Y-97914768D01*
X341436445Y-97914768D01*
X341336055Y-97964963D01*
X341285860Y-98015158D01*
X341235665Y-98115549D01*
X341235665Y-98416720D01*
X341285860Y-98517111D01*
X341336055Y-98567306D01*
X341436445Y-98617501D01*
X341637226Y-98617501D01*
X341737617Y-98567306D01*
X340382345Y-98567306D02*
X340482736Y-98617501D01*
X340683517Y-98617501D01*
X340783907Y-98567306D01*
X340834103Y-98466916D01*
X340834103Y-98065354D01*
X340783907Y-97964963D01*
X340683517Y-97914768D01*
X340482736Y-97914768D01*
X340382345Y-97964963D01*
X340332150Y-98065354D01*
X340332150Y-98165744D01*
X340834103Y-98266135D01*
X339880393Y-98617501D02*
X339880393Y-97914768D01*
X339880393Y-98115549D02*
X339830198Y-98015158D01*
X339780003Y-97964963D01*
X339679612Y-97914768D01*
X339579222Y-97914768D01*
X339227855Y-98617501D02*
X339227855Y-97563401D01*
X339227855Y-98065354D02*
X338625512Y-98065354D01*
X338625512Y-98617501D02*
X338625512Y-97563401D01*
X337972974Y-98617501D02*
X338073365Y-98567306D01*
X338123560Y-98517111D01*
X338173755Y-98416720D01*
X338173755Y-98115549D01*
X338123560Y-98015158D01*
X338073365Y-97964963D01*
X337972974Y-97914768D01*
X337822388Y-97914768D01*
X337721998Y-97964963D01*
X337671803Y-98015158D01*
X337621607Y-98115549D01*
X337621607Y-98416720D01*
X337671803Y-98517111D01*
X337721998Y-98567306D01*
X337822388Y-98617501D01*
X337972974Y-98617501D01*
X336718093Y-97914768D02*
X336718093Y-98617501D01*
X337169850Y-97914768D02*
X337169850Y-98466916D01*
X337119655Y-98567306D01*
X337019265Y-98617501D01*
X336868679Y-98617501D01*
X336768288Y-98567306D01*
X336718093Y-98517111D01*
X336266336Y-98567306D02*
X336165945Y-98617501D01*
X335965165Y-98617501D01*
X335864774Y-98567306D01*
X335814579Y-98466916D01*
X335814579Y-98416720D01*
X335864774Y-98316330D01*
X335965165Y-98266135D01*
X336115750Y-98266135D01*
X336216141Y-98215939D01*
X336266336Y-98115549D01*
X336266336Y-98065354D01*
X336216141Y-97964963D01*
X336115750Y-97914768D01*
X335965165Y-97914768D01*
X335864774Y-97964963D01*
X334961260Y-98567306D02*
X335061650Y-98617501D01*
X335262431Y-98617501D01*
X335362822Y-98567306D01*
X335413017Y-98466916D01*
X335413017Y-98065354D01*
X335362822Y-97964963D01*
X335262431Y-97914768D01*
X335061650Y-97914768D01*
X334961260Y-97964963D01*
X334911065Y-98065354D01*
X334911065Y-98165744D01*
X335413017Y-98266135D01*
X333706379Y-98316330D02*
X333204426Y-98316330D01*
X333806769Y-98617501D02*
X333455403Y-97563401D01*
X333104036Y-98617501D01*
X332300912Y-97914768D02*
X332300912Y-98617501D01*
X332752669Y-97914768D02*
X332752669Y-98466916D01*
X332702474Y-98567306D01*
X332602084Y-98617501D01*
X332451498Y-98617501D01*
X332351107Y-98567306D01*
X332300912Y-98517111D01*
X331949545Y-97914768D02*
X331547984Y-97914768D01*
X331798960Y-97563401D02*
X331798960Y-98466916D01*
X331748765Y-98567306D01*
X331648374Y-98617501D01*
X331547984Y-98617501D01*
X331046031Y-98617501D02*
X331146422Y-98567306D01*
X331196617Y-98517111D01*
X331246812Y-98416720D01*
X331246812Y-98115549D01*
X331196617Y-98015158D01*
X331146422Y-97964963D01*
X331046031Y-97914768D01*
X330895445Y-97914768D01*
X330795055Y-97964963D01*
X330744860Y-98015158D01*
X330694665Y-98115549D01*
X330694665Y-98416720D01*
X330744860Y-98517111D01*
X330795055Y-98567306D01*
X330895445Y-98617501D01*
X331046031Y-98617501D01*
X330242907Y-98617501D02*
X330242907Y-97914768D01*
X330242907Y-98015158D02*
X330192712Y-97964963D01*
X330092322Y-97914768D01*
X329941736Y-97914768D01*
X329841345Y-97964963D01*
X329791150Y-98065354D01*
X329791150Y-98617501D01*
X329791150Y-98065354D02*
X329740955Y-97964963D01*
X329640565Y-97914768D01*
X329489979Y-97914768D01*
X329389588Y-97964963D01*
X329339393Y-98065354D01*
X329339393Y-98617501D01*
X328385684Y-98617501D02*
X328385684Y-98065354D01*
X328435879Y-97964963D01*
X328536269Y-97914768D01*
X328737050Y-97914768D01*
X328837441Y-97964963D01*
X328385684Y-98567306D02*
X328486074Y-98617501D01*
X328737050Y-98617501D01*
X328837441Y-98567306D01*
X328887636Y-98466916D01*
X328887636Y-98366525D01*
X328837441Y-98266135D01*
X328737050Y-98215939D01*
X328486074Y-98215939D01*
X328385684Y-98165744D01*
X328034317Y-97914768D02*
X327632755Y-97914768D01*
X327883731Y-97563401D02*
X327883731Y-98466916D01*
X327833536Y-98567306D01*
X327733145Y-98617501D01*
X327632755Y-98617501D01*
X327281388Y-98617501D02*
X327281388Y-97914768D01*
X327281388Y-97563401D02*
X327331584Y-97613597D01*
X327281388Y-97663792D01*
X327231193Y-97613597D01*
X327281388Y-97563401D01*
X327281388Y-97663792D01*
X326628850Y-98617501D02*
X326729241Y-98567306D01*
X326779436Y-98517111D01*
X326829631Y-98416720D01*
X326829631Y-98115549D01*
X326779436Y-98015158D01*
X326729241Y-97964963D01*
X326628850Y-97914768D01*
X326478265Y-97914768D01*
X326377874Y-97964963D01*
X326327679Y-98015158D01*
X326277484Y-98115549D01*
X326277484Y-98416720D01*
X326327679Y-98517111D01*
X326377874Y-98567306D01*
X326478265Y-98617501D01*
X326628850Y-98617501D01*
X325825726Y-97914768D02*
X325825726Y-98617501D01*
X325825726Y-98015158D02*
X325775531Y-97964963D01*
X325675141Y-97914768D01*
X325524555Y-97914768D01*
X325424165Y-97964963D01*
X325373969Y-98065354D01*
X325373969Y-98617501D01*
X324068893Y-98617501D02*
X324068893Y-97563401D01*
X323667331Y-97563401D01*
X323566941Y-97613597D01*
X323516745Y-97663792D01*
X323466550Y-97764182D01*
X323466550Y-97914768D01*
X323516745Y-98015158D01*
X323566941Y-98065354D01*
X323667331Y-98115549D01*
X324068893Y-98115549D01*
X323165379Y-97914768D02*
X322763817Y-97914768D01*
X323014793Y-97563401D02*
X323014793Y-98466916D01*
X322964598Y-98567306D01*
X322864207Y-98617501D01*
X322763817Y-98617501D01*
X322512841Y-97914768D02*
X322261865Y-98617501D01*
X322010888Y-97914768D02*
X322261865Y-98617501D01*
X322362255Y-98868477D01*
X322412450Y-98918673D01*
X322512841Y-98968868D01*
X320304250Y-98617501D02*
X320806203Y-98617501D01*
X320806203Y-97563401D01*
X320103469Y-97914768D02*
X319701907Y-97914768D01*
X319952884Y-97563401D02*
X319952884Y-98466916D01*
X319902688Y-98567306D01*
X319802298Y-98617501D01*
X319701907Y-98617501D01*
X318898784Y-98617501D02*
X318898784Y-97563401D01*
X318898784Y-98567306D02*
X318999174Y-98617501D01*
X319199955Y-98617501D01*
X319300345Y-98567306D01*
X319350541Y-98517111D01*
X319400736Y-98416720D01*
X319400736Y-98115549D01*
X319350541Y-98015158D01*
X319300345Y-97964963D01*
X319199955Y-97914768D01*
X318999174Y-97914768D01*
X318898784Y-97964963D01*
X361464345Y-102011703D02*
X361815712Y-101509751D01*
X362066688Y-102011703D02*
X362066688Y-100957603D01*
X361665126Y-100957603D01*
X361564736Y-101007799D01*
X361514541Y-101057994D01*
X361464345Y-101158384D01*
X361464345Y-101308970D01*
X361514541Y-101409360D01*
X361564736Y-101459556D01*
X361665126Y-101509751D01*
X362066688Y-101509751D01*
X360611026Y-101961508D02*
X360711417Y-102011703D01*
X360912198Y-102011703D01*
X361012588Y-101961508D01*
X361062784Y-101861118D01*
X361062784Y-101459556D01*
X361012588Y-101359165D01*
X360912198Y-101308970D01*
X360711417Y-101308970D01*
X360611026Y-101359165D01*
X360560831Y-101459556D01*
X360560831Y-101559946D01*
X361062784Y-101660337D01*
X359958488Y-102011703D02*
X360058879Y-101961508D01*
X360109074Y-101861118D01*
X360109074Y-100957603D01*
X359155365Y-101961508D02*
X359255755Y-102011703D01*
X359456536Y-102011703D01*
X359556926Y-101961508D01*
X359607122Y-101861118D01*
X359607122Y-101459556D01*
X359556926Y-101359165D01*
X359456536Y-101308970D01*
X359255755Y-101308970D01*
X359155365Y-101359165D01*
X359105169Y-101459556D01*
X359105169Y-101559946D01*
X359607122Y-101660337D01*
X358201655Y-102011703D02*
X358201655Y-101459556D01*
X358251850Y-101359165D01*
X358352241Y-101308970D01*
X358553022Y-101308970D01*
X358653412Y-101359165D01*
X358201655Y-101961508D02*
X358302045Y-102011703D01*
X358553022Y-102011703D01*
X358653412Y-101961508D01*
X358703607Y-101861118D01*
X358703607Y-101760727D01*
X358653412Y-101660337D01*
X358553022Y-101610141D01*
X358302045Y-101610141D01*
X358201655Y-101559946D01*
X357749898Y-101961508D02*
X357649507Y-102011703D01*
X357448726Y-102011703D01*
X357348336Y-101961508D01*
X357298141Y-101861118D01*
X357298141Y-101810922D01*
X357348336Y-101710532D01*
X357448726Y-101660337D01*
X357599312Y-101660337D01*
X357699703Y-101610141D01*
X357749898Y-101509751D01*
X357749898Y-101459556D01*
X357699703Y-101359165D01*
X357599312Y-101308970D01*
X357448726Y-101308970D01*
X357348336Y-101359165D01*
X356444822Y-101961508D02*
X356545212Y-102011703D01*
X356745993Y-102011703D01*
X356846384Y-101961508D01*
X356896579Y-101861118D01*
X356896579Y-101459556D01*
X356846384Y-101359165D01*
X356745993Y-101308970D01*
X356545212Y-101308970D01*
X356444822Y-101359165D01*
X356394626Y-101459556D01*
X356394626Y-101559946D01*
X356896579Y-101660337D01*
X355491112Y-102011703D02*
X355491112Y-100957603D01*
X355491112Y-101961508D02*
X355591503Y-102011703D01*
X355792284Y-102011703D01*
X355892674Y-101961508D01*
X355942869Y-101911313D01*
X355993065Y-101810922D01*
X355993065Y-101509751D01*
X355942869Y-101409360D01*
X355892674Y-101359165D01*
X355792284Y-101308970D01*
X355591503Y-101308970D01*
X355491112Y-101359165D01*
X353734279Y-101308970D02*
X353734279Y-102011703D01*
X354186036Y-101308970D02*
X354186036Y-101861118D01*
X354135841Y-101961508D01*
X354035450Y-102011703D01*
X353884865Y-102011703D01*
X353784474Y-101961508D01*
X353734279Y-101911313D01*
X353232326Y-101308970D02*
X353232326Y-102011703D01*
X353232326Y-101409360D02*
X353182131Y-101359165D01*
X353081741Y-101308970D01*
X352931155Y-101308970D01*
X352830765Y-101359165D01*
X352780569Y-101459556D01*
X352780569Y-102011703D01*
X351826860Y-102011703D02*
X351826860Y-100957603D01*
X351826860Y-101961508D02*
X351927250Y-102011703D01*
X352128031Y-102011703D01*
X352228422Y-101961508D01*
X352278617Y-101911313D01*
X352328812Y-101810922D01*
X352328812Y-101509751D01*
X352278617Y-101409360D01*
X352228422Y-101359165D01*
X352128031Y-101308970D01*
X351927250Y-101308970D01*
X351826860Y-101359165D01*
X350923345Y-101961508D02*
X351023736Y-102011703D01*
X351224517Y-102011703D01*
X351324907Y-101961508D01*
X351375103Y-101861118D01*
X351375103Y-101459556D01*
X351324907Y-101359165D01*
X351224517Y-101308970D01*
X351023736Y-101308970D01*
X350923345Y-101359165D01*
X350873150Y-101459556D01*
X350873150Y-101559946D01*
X351375103Y-101660337D01*
X350421393Y-102011703D02*
X350421393Y-101308970D01*
X350421393Y-101509751D02*
X350371198Y-101409360D01*
X350321003Y-101359165D01*
X350220612Y-101308970D01*
X350120222Y-101308970D01*
X349116317Y-101308970D02*
X348714755Y-101308970D01*
X348965731Y-100957603D02*
X348965731Y-101861118D01*
X348915536Y-101961508D01*
X348815145Y-102011703D01*
X348714755Y-102011703D01*
X348363388Y-102011703D02*
X348363388Y-100957603D01*
X347911631Y-102011703D02*
X347911631Y-101459556D01*
X347961826Y-101359165D01*
X348062217Y-101308970D01*
X348212803Y-101308970D01*
X348313193Y-101359165D01*
X348363388Y-101409360D01*
X347008117Y-101961508D02*
X347108507Y-102011703D01*
X347309288Y-102011703D01*
X347409679Y-101961508D01*
X347459874Y-101861118D01*
X347459874Y-101459556D01*
X347409679Y-101359165D01*
X347309288Y-101308970D01*
X347108507Y-101308970D01*
X347008117Y-101359165D01*
X346957922Y-101459556D01*
X346957922Y-101559946D01*
X347459874Y-101660337D01*
X345853626Y-101308970D02*
X345452065Y-101308970D01*
X345703041Y-100957603D02*
X345703041Y-101861118D01*
X345652845Y-101961508D01*
X345552455Y-102011703D01*
X345452065Y-102011703D01*
X344699136Y-101961508D02*
X344799526Y-102011703D01*
X345000307Y-102011703D01*
X345100698Y-101961508D01*
X345150893Y-101861118D01*
X345150893Y-101459556D01*
X345100698Y-101359165D01*
X345000307Y-101308970D01*
X344799526Y-101308970D01*
X344699136Y-101359165D01*
X344648941Y-101459556D01*
X344648941Y-101559946D01*
X345150893Y-101660337D01*
X344197184Y-102011703D02*
X344197184Y-101308970D01*
X344197184Y-101509751D02*
X344146988Y-101409360D01*
X344096793Y-101359165D01*
X343996403Y-101308970D01*
X343896012Y-101308970D01*
X343544645Y-102011703D02*
X343544645Y-101308970D01*
X343544645Y-101409360D02*
X343494450Y-101359165D01*
X343394060Y-101308970D01*
X343243474Y-101308970D01*
X343143084Y-101359165D01*
X343092888Y-101459556D01*
X343092888Y-102011703D01*
X343092888Y-101459556D02*
X343042693Y-101359165D01*
X342942303Y-101308970D01*
X342791717Y-101308970D01*
X342691326Y-101359165D01*
X342641131Y-101459556D01*
X342641131Y-102011703D01*
X342189374Y-101961508D02*
X342088984Y-102011703D01*
X341888203Y-102011703D01*
X341787812Y-101961508D01*
X341737617Y-101861118D01*
X341737617Y-101810922D01*
X341787812Y-101710532D01*
X341888203Y-101660337D01*
X342038788Y-101660337D01*
X342139179Y-101610141D01*
X342189374Y-101509751D01*
X342189374Y-101459556D01*
X342139179Y-101359165D01*
X342038788Y-101308970D01*
X341888203Y-101308970D01*
X341787812Y-101359165D01*
X340332150Y-102011703D02*
X340432541Y-101961508D01*
X340482736Y-101911313D01*
X340532931Y-101810922D01*
X340532931Y-101509751D01*
X340482736Y-101409360D01*
X340432541Y-101359165D01*
X340332150Y-101308970D01*
X340181565Y-101308970D01*
X340081174Y-101359165D01*
X340030979Y-101409360D01*
X339980784Y-101509751D01*
X339980784Y-101810922D01*
X340030979Y-101911313D01*
X340081174Y-101961508D01*
X340181565Y-102011703D01*
X340332150Y-102011703D01*
X339679612Y-101308970D02*
X339278050Y-101308970D01*
X339529026Y-102011703D02*
X339529026Y-101108189D01*
X339478831Y-101007799D01*
X339378441Y-100957603D01*
X339278050Y-100957603D01*
X338274145Y-101308970D02*
X337872584Y-101308970D01*
X338123560Y-100957603D02*
X338123560Y-101861118D01*
X338073365Y-101961508D01*
X337972974Y-102011703D01*
X337872584Y-102011703D01*
X337521217Y-102011703D02*
X337521217Y-100957603D01*
X337069460Y-102011703D02*
X337069460Y-101459556D01*
X337119655Y-101359165D01*
X337220045Y-101308970D01*
X337370631Y-101308970D01*
X337471022Y-101359165D01*
X337521217Y-101409360D01*
X336165945Y-101961508D02*
X336266336Y-102011703D01*
X336467117Y-102011703D01*
X336567507Y-101961508D01*
X336617703Y-101861118D01*
X336617703Y-101459556D01*
X336567507Y-101359165D01*
X336467117Y-101308970D01*
X336266336Y-101308970D01*
X336165945Y-101359165D01*
X336115750Y-101459556D01*
X336115750Y-101559946D01*
X336617703Y-101660337D01*
X335011455Y-100957603D02*
X334409112Y-100957603D01*
X334710284Y-102011703D02*
X334710284Y-100957603D01*
X334107941Y-101710532D02*
X333605988Y-101710532D01*
X334208331Y-102011703D02*
X333856965Y-100957603D01*
X333505598Y-102011703D01*
X333154231Y-102011703D02*
X333154231Y-100957603D01*
X332752669Y-100957603D01*
X332652279Y-101007799D01*
X332602084Y-101057994D01*
X332551888Y-101158384D01*
X332551888Y-101308970D01*
X332602084Y-101409360D01*
X332652279Y-101459556D01*
X332752669Y-101509751D01*
X333154231Y-101509751D01*
X331497788Y-102011703D02*
X331849155Y-101509751D01*
X332100131Y-102011703D02*
X332100131Y-100957603D01*
X331698569Y-100957603D01*
X331598179Y-101007799D01*
X331547984Y-101057994D01*
X331497788Y-101158384D01*
X331497788Y-101308970D01*
X331547984Y-101409360D01*
X331598179Y-101459556D01*
X331698569Y-101509751D01*
X332100131Y-101509751D01*
X361865907Y-102654704D02*
X361665126Y-102654704D01*
X361564736Y-102704900D01*
X361464345Y-102805290D01*
X361414150Y-103006071D01*
X361414150Y-103357438D01*
X361464345Y-103558219D01*
X361564736Y-103658609D01*
X361665126Y-103708804D01*
X361865907Y-103708804D01*
X361966298Y-103658609D01*
X362066688Y-103558219D01*
X362116884Y-103357438D01*
X362116884Y-103006071D01*
X362066688Y-102805290D01*
X361966298Y-102704900D01*
X361865907Y-102654704D01*
X360962393Y-103006071D02*
X360962393Y-104060171D01*
X360962393Y-103056266D02*
X360862003Y-103006071D01*
X360661222Y-103006071D01*
X360560831Y-103056266D01*
X360510636Y-103106461D01*
X360460441Y-103206852D01*
X360460441Y-103508023D01*
X360510636Y-103608414D01*
X360560831Y-103658609D01*
X360661222Y-103708804D01*
X360862003Y-103708804D01*
X360962393Y-103658609D01*
X359607122Y-103658609D02*
X359707512Y-103708804D01*
X359908293Y-103708804D01*
X360008684Y-103658609D01*
X360058879Y-103558219D01*
X360058879Y-103156657D01*
X360008684Y-103056266D01*
X359908293Y-103006071D01*
X359707512Y-103006071D01*
X359607122Y-103056266D01*
X359556926Y-103156657D01*
X359556926Y-103257047D01*
X360058879Y-103357438D01*
X359105169Y-103006071D02*
X359105169Y-103708804D01*
X359105169Y-103106461D02*
X359054974Y-103056266D01*
X358954584Y-103006071D01*
X358803998Y-103006071D01*
X358703607Y-103056266D01*
X358653412Y-103156657D01*
X358653412Y-103708804D01*
X357348336Y-103708804D02*
X357348336Y-102654704D01*
X357348336Y-103156657D02*
X356745993Y-103156657D01*
X356745993Y-103708804D02*
X356745993Y-102654704D01*
X355792284Y-103708804D02*
X355792284Y-103156657D01*
X355842479Y-103056266D01*
X355942869Y-103006071D01*
X356143650Y-103006071D01*
X356244041Y-103056266D01*
X355792284Y-103658609D02*
X355892674Y-103708804D01*
X356143650Y-103708804D01*
X356244041Y-103658609D01*
X356294236Y-103558219D01*
X356294236Y-103457828D01*
X356244041Y-103357438D01*
X356143650Y-103307242D01*
X355892674Y-103307242D01*
X355792284Y-103257047D01*
X355290331Y-103708804D02*
X355290331Y-103006071D01*
X355290331Y-103206852D02*
X355240136Y-103106461D01*
X355189941Y-103056266D01*
X355089550Y-103006071D01*
X354989160Y-103006071D01*
X354186036Y-103708804D02*
X354186036Y-102654704D01*
X354186036Y-103658609D02*
X354286426Y-103708804D01*
X354487207Y-103708804D01*
X354587598Y-103658609D01*
X354637793Y-103608414D01*
X354687988Y-103508023D01*
X354687988Y-103206852D01*
X354637793Y-103106461D01*
X354587598Y-103056266D01*
X354487207Y-103006071D01*
X354286426Y-103006071D01*
X354186036Y-103056266D01*
X353784474Y-103006071D02*
X353583693Y-103708804D01*
X353382912Y-103206852D01*
X353182131Y-103708804D01*
X352981350Y-103006071D01*
X352128031Y-103708804D02*
X352128031Y-103156657D01*
X352178226Y-103056266D01*
X352278617Y-103006071D01*
X352479398Y-103006071D01*
X352579788Y-103056266D01*
X352128031Y-103658609D02*
X352228422Y-103708804D01*
X352479398Y-103708804D01*
X352579788Y-103658609D01*
X352629984Y-103558219D01*
X352629984Y-103457828D01*
X352579788Y-103357438D01*
X352479398Y-103307242D01*
X352228422Y-103307242D01*
X352128031Y-103257047D01*
X351626079Y-103708804D02*
X351626079Y-103006071D01*
X351626079Y-103206852D02*
X351575884Y-103106461D01*
X351525688Y-103056266D01*
X351425298Y-103006071D01*
X351324907Y-103006071D01*
X350571979Y-103658609D02*
X350672369Y-103708804D01*
X350873150Y-103708804D01*
X350973541Y-103658609D01*
X351023736Y-103558219D01*
X351023736Y-103156657D01*
X350973541Y-103056266D01*
X350873150Y-103006071D01*
X350672369Y-103006071D01*
X350571979Y-103056266D01*
X350521784Y-103156657D01*
X350521784Y-103257047D01*
X351023736Y-103357438D01*
X348764950Y-103708804D02*
X349266903Y-103708804D01*
X349266903Y-102654704D01*
X348413584Y-103708804D02*
X348413584Y-103006071D01*
X348413584Y-102654704D02*
X348463779Y-102704900D01*
X348413584Y-102755095D01*
X348363388Y-102704900D01*
X348413584Y-102654704D01*
X348413584Y-102755095D01*
X347459874Y-103658609D02*
X347560265Y-103708804D01*
X347761045Y-103708804D01*
X347861436Y-103658609D01*
X347911631Y-103608414D01*
X347961826Y-103508023D01*
X347961826Y-103206852D01*
X347911631Y-103106461D01*
X347861436Y-103056266D01*
X347761045Y-103006071D01*
X347560265Y-103006071D01*
X347459874Y-103056266D01*
X346606555Y-103658609D02*
X346706945Y-103708804D01*
X346907726Y-103708804D01*
X347008117Y-103658609D01*
X347058312Y-103558219D01*
X347058312Y-103156657D01*
X347008117Y-103056266D01*
X346907726Y-103006071D01*
X346706945Y-103006071D01*
X346606555Y-103056266D01*
X346556360Y-103156657D01*
X346556360Y-103257047D01*
X347058312Y-103357438D01*
X346104603Y-103006071D02*
X346104603Y-103708804D01*
X346104603Y-103106461D02*
X346054407Y-103056266D01*
X345954017Y-103006071D01*
X345803431Y-103006071D01*
X345703041Y-103056266D01*
X345652845Y-103156657D01*
X345652845Y-103708804D01*
X345201088Y-103658609D02*
X345100698Y-103708804D01*
X344899917Y-103708804D01*
X344799526Y-103658609D01*
X344749331Y-103558219D01*
X344749331Y-103508023D01*
X344799526Y-103407633D01*
X344899917Y-103357438D01*
X345050503Y-103357438D01*
X345150893Y-103307242D01*
X345201088Y-103206852D01*
X345201088Y-103156657D01*
X345150893Y-103056266D01*
X345050503Y-103006071D01*
X344899917Y-103006071D01*
X344799526Y-103056266D01*
X343896012Y-103658609D02*
X343996403Y-103708804D01*
X344197184Y-103708804D01*
X344297574Y-103658609D01*
X344347769Y-103558219D01*
X344347769Y-103156657D01*
X344297574Y-103056266D01*
X344197184Y-103006071D01*
X343996403Y-103006071D01*
X343896012Y-103056266D01*
X343845817Y-103156657D01*
X343845817Y-103257047D01*
X344347769Y-103357438D01*
X343394060Y-103608414D02*
X343343865Y-103658609D01*
X343394060Y-103708804D01*
X343444255Y-103658609D01*
X343394060Y-103608414D01*
X343394060Y-103708804D01*
X343394060Y-103056266D02*
X343343865Y-103106461D01*
X343394060Y-103156657D01*
X343444255Y-103106461D01*
X343394060Y-103056266D01*
X343394060Y-103156657D01*
X342189374Y-103006071D02*
X341988593Y-103708804D01*
X341787812Y-103206852D01*
X341587031Y-103708804D01*
X341386250Y-103006071D01*
X341085079Y-103006071D02*
X340884298Y-103708804D01*
X340683517Y-103206852D01*
X340482736Y-103708804D01*
X340281955Y-103006071D01*
X339980784Y-103006071D02*
X339780003Y-103708804D01*
X339579222Y-103206852D01*
X339378441Y-103708804D01*
X339177660Y-103006071D01*
X338776098Y-103608414D02*
X338725903Y-103658609D01*
X338776098Y-103708804D01*
X338826293Y-103658609D01*
X338776098Y-103608414D01*
X338776098Y-103708804D01*
X338424731Y-103006071D02*
X338023169Y-103006071D01*
X338274145Y-102654704D02*
X338274145Y-103558219D01*
X338223950Y-103658609D01*
X338123560Y-103708804D01*
X338023169Y-103708804D01*
X337220045Y-103708804D02*
X337220045Y-103156657D01*
X337270241Y-103056266D01*
X337370631Y-103006071D01*
X337571412Y-103006071D01*
X337671803Y-103056266D01*
X337220045Y-103658609D02*
X337320436Y-103708804D01*
X337571412Y-103708804D01*
X337671803Y-103658609D01*
X337721998Y-103558219D01*
X337721998Y-103457828D01*
X337671803Y-103357438D01*
X337571412Y-103307242D01*
X337320436Y-103307242D01*
X337220045Y-103257047D01*
X336718093Y-103006071D02*
X336718093Y-104060171D01*
X336718093Y-103056266D02*
X336617703Y-103006071D01*
X336416922Y-103006071D01*
X336316531Y-103056266D01*
X336266336Y-103106461D01*
X336216141Y-103206852D01*
X336216141Y-103508023D01*
X336266336Y-103608414D01*
X336316531Y-103658609D01*
X336416922Y-103708804D01*
X336617703Y-103708804D01*
X336718093Y-103658609D01*
X335764384Y-103708804D02*
X335764384Y-103006071D01*
X335764384Y-103206852D02*
X335714188Y-103106461D01*
X335663993Y-103056266D01*
X335563603Y-103006071D01*
X335463212Y-103006071D01*
X335111845Y-103608414D02*
X335061650Y-103658609D01*
X335111845Y-103708804D01*
X335162041Y-103658609D01*
X335111845Y-103608414D01*
X335111845Y-103708804D01*
X334459307Y-103708804D02*
X334559698Y-103658609D01*
X334609893Y-103608414D01*
X334660088Y-103508023D01*
X334660088Y-103206852D01*
X334609893Y-103106461D01*
X334559698Y-103056266D01*
X334459307Y-103006071D01*
X334308722Y-103006071D01*
X334208331Y-103056266D01*
X334158136Y-103106461D01*
X334107941Y-103206852D01*
X334107941Y-103508023D01*
X334158136Y-103608414D01*
X334208331Y-103658609D01*
X334308722Y-103708804D01*
X334459307Y-103708804D01*
X333656184Y-103708804D02*
X333656184Y-103006071D01*
X333656184Y-103206852D02*
X333605988Y-103106461D01*
X333555793Y-103056266D01*
X333455403Y-103006071D01*
X333355012Y-103006071D01*
X332551888Y-103006071D02*
X332551888Y-103859390D01*
X332602084Y-103959780D01*
X332652279Y-104009976D01*
X332752669Y-104060171D01*
X332903255Y-104060171D01*
X333003645Y-104009976D01*
X332551888Y-103658609D02*
X332652279Y-103708804D01*
X332853060Y-103708804D01*
X332953450Y-103658609D01*
X333003645Y-103608414D01*
X333053841Y-103508023D01*
X333053841Y-103206852D01*
X333003645Y-103106461D01*
X332953450Y-103056266D01*
X332853060Y-103006071D01*
X332652279Y-103006071D01*
X332551888Y-103056266D01*
X331297007Y-102604509D02*
X332200522Y-103959780D01*
X330744860Y-102654704D02*
X330544079Y-102654704D01*
X330443688Y-102704900D01*
X330343298Y-102805290D01*
X330293103Y-103006071D01*
X330293103Y-103357438D01*
X330343298Y-103558219D01*
X330443688Y-103658609D01*
X330544079Y-103708804D01*
X330744860Y-103708804D01*
X330845250Y-103658609D01*
X330945641Y-103558219D01*
X330995836Y-103357438D01*
X330995836Y-103006071D01*
X330945641Y-102805290D01*
X330845250Y-102704900D01*
X330744860Y-102654704D01*
X329841345Y-103708804D02*
X329841345Y-102654704D01*
X329841345Y-103156657D02*
X329239003Y-103156657D01*
X329239003Y-103708804D02*
X329239003Y-102654704D01*
X328235098Y-103708804D02*
X328737050Y-103708804D01*
X328737050Y-102654704D01*
D18*
X346513200Y-24484117D02*
X346344544Y-24540335D01*
X346288326Y-24596554D01*
X346232107Y-24708991D01*
X346232107Y-24877647D01*
X346288326Y-24990085D01*
X346344544Y-25046303D01*
X346456982Y-25102522D01*
X346906731Y-25102522D01*
X346906731Y-23921930D01*
X346513200Y-23921930D01*
X346400763Y-23978149D01*
X346344544Y-24034367D01*
X346288326Y-24146805D01*
X346288326Y-24259242D01*
X346344544Y-24371679D01*
X346400763Y-24427898D01*
X346513200Y-24484117D01*
X346906731Y-24484117D01*
X345220171Y-25102522D02*
X345220171Y-24484117D01*
X345276390Y-24371679D01*
X345388827Y-24315461D01*
X345613702Y-24315461D01*
X345726139Y-24371679D01*
X345220171Y-25046303D02*
X345332608Y-25102522D01*
X345613702Y-25102522D01*
X345726139Y-25046303D01*
X345782358Y-24933866D01*
X345782358Y-24821429D01*
X345726139Y-24708991D01*
X345613702Y-24652773D01*
X345332608Y-24652773D01*
X345220171Y-24596554D01*
X344714203Y-25046303D02*
X344601766Y-25102522D01*
X344376891Y-25102522D01*
X344264454Y-25046303D01*
X344208235Y-24933866D01*
X344208235Y-24877647D01*
X344264454Y-24765210D01*
X344376891Y-24708991D01*
X344545547Y-24708991D01*
X344657984Y-24652773D01*
X344714203Y-24540335D01*
X344714203Y-24484117D01*
X344657984Y-24371679D01*
X344545547Y-24315461D01*
X344376891Y-24315461D01*
X344264454Y-24371679D01*
X343252518Y-25046303D02*
X343364955Y-25102522D01*
X343589830Y-25102522D01*
X343702267Y-25046303D01*
X343758486Y-24933866D01*
X343758486Y-24484117D01*
X343702267Y-24371679D01*
X343589830Y-24315461D01*
X343364955Y-24315461D01*
X343252518Y-24371679D01*
X343196299Y-24484117D01*
X343196299Y-24596554D01*
X343758486Y-24708991D01*
X342184363Y-25102522D02*
X342184363Y-23921930D01*
X342184363Y-25046303D02*
X342296800Y-25102522D01*
X342521675Y-25102522D01*
X342634112Y-25046303D01*
X342690331Y-24990085D01*
X342746550Y-24877647D01*
X342746550Y-24540335D01*
X342690331Y-24427898D01*
X342634112Y-24371679D01*
X342521675Y-24315461D01*
X342296800Y-24315461D01*
X342184363Y-24371679D01*
X340554022Y-25102522D02*
X340666459Y-25046303D01*
X340722678Y-24990085D01*
X340778896Y-24877647D01*
X340778896Y-24540335D01*
X340722678Y-24427898D01*
X340666459Y-24371679D01*
X340554022Y-24315461D01*
X340385366Y-24315461D01*
X340272928Y-24371679D01*
X340216710Y-24427898D01*
X340160491Y-24540335D01*
X340160491Y-24877647D01*
X340216710Y-24990085D01*
X340272928Y-25046303D01*
X340385366Y-25102522D01*
X340554022Y-25102522D01*
X339654523Y-24315461D02*
X339654523Y-25102522D01*
X339654523Y-24427898D02*
X339598304Y-24371679D01*
X339485867Y-24315461D01*
X339317211Y-24315461D01*
X339204774Y-24371679D01*
X339148555Y-24484117D01*
X339148555Y-25102522D01*
X337180902Y-25102522D02*
X337180902Y-23921930D01*
X337180902Y-25046303D02*
X337293339Y-25102522D01*
X337518214Y-25102522D01*
X337630651Y-25046303D01*
X337686870Y-24990085D01*
X337743088Y-24877647D01*
X337743088Y-24540335D01*
X337686870Y-24427898D01*
X337630651Y-24371679D01*
X337518214Y-24315461D01*
X337293339Y-24315461D01*
X337180902Y-24371679D01*
X336168966Y-25046303D02*
X336281403Y-25102522D01*
X336506278Y-25102522D01*
X336618715Y-25046303D01*
X336674934Y-24933866D01*
X336674934Y-24484117D01*
X336618715Y-24371679D01*
X336506278Y-24315461D01*
X336281403Y-24315461D01*
X336168966Y-24371679D01*
X336112747Y-24484117D01*
X336112747Y-24596554D01*
X336674934Y-24708991D01*
X335662998Y-25046303D02*
X335550560Y-25102522D01*
X335325686Y-25102522D01*
X335213248Y-25046303D01*
X335157030Y-24933866D01*
X335157030Y-24877647D01*
X335213248Y-24765210D01*
X335325686Y-24708991D01*
X335494342Y-24708991D01*
X335606779Y-24652773D01*
X335662998Y-24540335D01*
X335662998Y-24484117D01*
X335606779Y-24371679D01*
X335494342Y-24315461D01*
X335325686Y-24315461D01*
X335213248Y-24371679D01*
X334651062Y-25102522D02*
X334651062Y-24315461D01*
X334651062Y-23921930D02*
X334707280Y-23978149D01*
X334651062Y-24034367D01*
X334594843Y-23978149D01*
X334651062Y-23921930D01*
X334651062Y-24034367D01*
X333582907Y-24315461D02*
X333582907Y-25271178D01*
X333639126Y-25383615D01*
X333695344Y-25439834D01*
X333807782Y-25496053D01*
X333976438Y-25496053D01*
X334088875Y-25439834D01*
X333582907Y-25046303D02*
X333695344Y-25102522D01*
X333920219Y-25102522D01*
X334032656Y-25046303D01*
X334088875Y-24990085D01*
X334145094Y-24877647D01*
X334145094Y-24540335D01*
X334088875Y-24427898D01*
X334032656Y-24371679D01*
X333920219Y-24315461D01*
X333695344Y-24315461D01*
X333582907Y-24371679D01*
X333020720Y-24315461D02*
X333020720Y-25102522D01*
X333020720Y-24427898D02*
X332964502Y-24371679D01*
X332852064Y-24315461D01*
X332683408Y-24315461D01*
X332570971Y-24371679D01*
X332514752Y-24484117D01*
X332514752Y-25102522D01*
X346007232Y-27003275D02*
X346007232Y-25822683D01*
X346007232Y-26272432D02*
X345894795Y-26216214D01*
X345669920Y-26216214D01*
X345557483Y-26272432D01*
X345501264Y-26328651D01*
X345445046Y-26441088D01*
X345445046Y-26778400D01*
X345501264Y-26890838D01*
X345557483Y-26947056D01*
X345669920Y-27003275D01*
X345894795Y-27003275D01*
X346007232Y-26947056D01*
X345051515Y-26216214D02*
X344770422Y-27003275D01*
X344489328Y-26216214D02*
X344770422Y-27003275D01*
X344882859Y-27284368D01*
X344939078Y-27340587D01*
X345051515Y-27396806D01*
X342802768Y-25822683D02*
X342802768Y-26665963D01*
X342858987Y-26834619D01*
X342971424Y-26947056D01*
X343140080Y-27003275D01*
X343252518Y-27003275D01*
X342071926Y-27003275D02*
X342184363Y-26947056D01*
X342240582Y-26890838D01*
X342296800Y-26778400D01*
X342296800Y-26441088D01*
X342240582Y-26328651D01*
X342184363Y-26272432D01*
X342071926Y-26216214D01*
X341903270Y-26216214D01*
X341790832Y-26272432D01*
X341734614Y-26328651D01*
X341678395Y-26441088D01*
X341678395Y-26778400D01*
X341734614Y-26890838D01*
X341790832Y-26947056D01*
X341903270Y-27003275D01*
X342071926Y-27003275D01*
X341172427Y-26216214D02*
X341172427Y-27003275D01*
X341172427Y-26328651D02*
X341116208Y-26272432D01*
X341003771Y-26216214D01*
X340835115Y-26216214D01*
X340722678Y-26272432D01*
X340666459Y-26384870D01*
X340666459Y-27003275D01*
X338979899Y-25822683D02*
X338755024Y-25822683D01*
X338642587Y-25878902D01*
X338530150Y-25991339D01*
X338473931Y-26216214D01*
X338473931Y-26609744D01*
X338530150Y-26834619D01*
X338642587Y-26947056D01*
X338755024Y-27003275D01*
X338979899Y-27003275D01*
X339092336Y-26947056D01*
X339204774Y-26834619D01*
X339260992Y-26609744D01*
X339260992Y-26216214D01*
X339204774Y-25991339D01*
X339092336Y-25878902D01*
X338979899Y-25822683D01*
X338080400Y-27003275D02*
X337461995Y-26216214D01*
X338080400Y-26216214D02*
X337461995Y-27003275D01*
X336562496Y-26947056D02*
X336674934Y-27003275D01*
X336899808Y-27003275D01*
X337012246Y-26947056D01*
X337068464Y-26834619D01*
X337068464Y-26384870D01*
X337012246Y-26272432D01*
X336899808Y-26216214D01*
X336674934Y-26216214D01*
X336562496Y-26272432D01*
X336506278Y-26384870D01*
X336506278Y-26497307D01*
X337068464Y-26609744D01*
X336000310Y-27003275D02*
X336000310Y-26216214D01*
X336000310Y-26441088D02*
X335944091Y-26328651D01*
X335887872Y-26272432D01*
X335775435Y-26216214D01*
X335662998Y-26216214D01*
X346007232Y-28904028D02*
X346007232Y-27723436D01*
X346007232Y-28173185D02*
X345894795Y-28116967D01*
X345669920Y-28116967D01*
X345557483Y-28173185D01*
X345501264Y-28229404D01*
X345445046Y-28341841D01*
X345445046Y-28679153D01*
X345501264Y-28791591D01*
X345557483Y-28847809D01*
X345669920Y-28904028D01*
X345894795Y-28904028D01*
X346007232Y-28847809D01*
X345051515Y-28116967D02*
X344770422Y-28904028D01*
X344489328Y-28116967D02*
X344770422Y-28904028D01*
X344882859Y-29185121D01*
X344939078Y-29241340D01*
X345051515Y-29297559D01*
X343196299Y-28566716D02*
X342634112Y-28566716D01*
X343308736Y-28904028D02*
X342915206Y-27723436D01*
X342521675Y-28904028D01*
X341622176Y-28116967D02*
X341622176Y-28904028D01*
X342128144Y-28116967D02*
X342128144Y-28735372D01*
X342071926Y-28847809D01*
X341959488Y-28904028D01*
X341790832Y-28904028D01*
X341678395Y-28847809D01*
X341622176Y-28791591D01*
X341116208Y-28847809D02*
X341003771Y-28904028D01*
X340778896Y-28904028D01*
X340666459Y-28847809D01*
X340610240Y-28735372D01*
X340610240Y-28679153D01*
X340666459Y-28566716D01*
X340778896Y-28510497D01*
X340947552Y-28510497D01*
X341059990Y-28454279D01*
X341116208Y-28341841D01*
X341116208Y-28285623D01*
X341059990Y-28173185D01*
X340947552Y-28116967D01*
X340778896Y-28116967D01*
X340666459Y-28173185D01*
X340272928Y-28116967D02*
X339823179Y-28116967D01*
X340104272Y-27723436D02*
X340104272Y-28735372D01*
X340048054Y-28847809D01*
X339935616Y-28904028D01*
X339823179Y-28904028D01*
X339429648Y-28904028D02*
X339429648Y-28116967D01*
X339429648Y-27723436D02*
X339485867Y-27779655D01*
X339429648Y-27835873D01*
X339373430Y-27779655D01*
X339429648Y-27723436D01*
X339429648Y-27835873D01*
X338867462Y-28116967D02*
X338867462Y-28904028D01*
X338867462Y-28229404D02*
X338811243Y-28173185D01*
X338698806Y-28116967D01*
X338530150Y-28116967D01*
X338417712Y-28173185D01*
X338361494Y-28285623D01*
X338361494Y-28904028D01*
X337743088Y-27723436D02*
X337855526Y-27948311D01*
X337293339Y-28847809D02*
X337180902Y-28904028D01*
X336956027Y-28904028D01*
X336843590Y-28847809D01*
X336787371Y-28735372D01*
X336787371Y-28679153D01*
X336843590Y-28566716D01*
X336956027Y-28510497D01*
X337124683Y-28510497D01*
X337237120Y-28454279D01*
X337293339Y-28341841D01*
X337293339Y-28285623D01*
X337237120Y-28173185D01*
X337124683Y-28116967D01*
X336956027Y-28116967D01*
X336843590Y-28173185D01*
X334707280Y-28791591D02*
X334763499Y-28847809D01*
X334932155Y-28904028D01*
X335044592Y-28904028D01*
X335213248Y-28847809D01*
X335325686Y-28735372D01*
X335381904Y-28622935D01*
X335438123Y-28398060D01*
X335438123Y-28229404D01*
X335381904Y-28004529D01*
X335325686Y-27892092D01*
X335213248Y-27779655D01*
X335044592Y-27723436D01*
X334932155Y-27723436D01*
X334763499Y-27779655D01*
X334707280Y-27835873D01*
X334201312Y-28904028D02*
X334201312Y-28116967D01*
X334201312Y-28341841D02*
X334145094Y-28229404D01*
X334088875Y-28173185D01*
X333976438Y-28116967D01*
X333864000Y-28116967D01*
X333020720Y-28847809D02*
X333133158Y-28904028D01*
X333358032Y-28904028D01*
X333470470Y-28847809D01*
X333526688Y-28735372D01*
X333526688Y-28285623D01*
X333470470Y-28173185D01*
X333358032Y-28116967D01*
X333133158Y-28116967D01*
X333020720Y-28173185D01*
X332964502Y-28285623D01*
X332964502Y-28398060D01*
X333526688Y-28510497D01*
X331952566Y-28904028D02*
X331952566Y-28285623D01*
X332008784Y-28173185D01*
X332121222Y-28116967D01*
X332346096Y-28116967D01*
X332458534Y-28173185D01*
X331952566Y-28847809D02*
X332065003Y-28904028D01*
X332346096Y-28904028D01*
X332458534Y-28847809D01*
X332514752Y-28735372D01*
X332514752Y-28622935D01*
X332458534Y-28510497D01*
X332346096Y-28454279D01*
X332065003Y-28454279D01*
X331952566Y-28398060D01*
X331559035Y-28116967D02*
X331109286Y-28116967D01*
X331390379Y-27723436D02*
X331390379Y-28735372D01*
X331334160Y-28847809D01*
X331221723Y-28904028D01*
X331109286Y-28904028D01*
X330715755Y-28904028D02*
X330715755Y-28116967D01*
X330715755Y-27723436D02*
X330771974Y-27779655D01*
X330715755Y-27835873D01*
X330659536Y-27779655D01*
X330715755Y-27723436D01*
X330715755Y-27835873D01*
X329984912Y-28904028D02*
X330097350Y-28847809D01*
X330153568Y-28791591D01*
X330209787Y-28679153D01*
X330209787Y-28341841D01*
X330153568Y-28229404D01*
X330097350Y-28173185D01*
X329984912Y-28116967D01*
X329816256Y-28116967D01*
X329703819Y-28173185D01*
X329647600Y-28229404D01*
X329591382Y-28341841D01*
X329591382Y-28679153D01*
X329647600Y-28791591D01*
X329703819Y-28847809D01*
X329816256Y-28904028D01*
X329984912Y-28904028D01*
X329085414Y-28116967D02*
X329085414Y-28904028D01*
X329085414Y-28229404D02*
X329029195Y-28173185D01*
X328916758Y-28116967D01*
X328748102Y-28116967D01*
X328635664Y-28173185D01*
X328579446Y-28285623D01*
X328579446Y-28904028D01*
X328073478Y-28847809D02*
X327961040Y-28904028D01*
X327736166Y-28904028D01*
X327623728Y-28847809D01*
X327567510Y-28735372D01*
X327567510Y-28679153D01*
X327623728Y-28566716D01*
X327736166Y-28510497D01*
X327904822Y-28510497D01*
X328017259Y-28454279D01*
X328073478Y-28341841D01*
X328073478Y-28285623D01*
X328017259Y-28173185D01*
X327904822Y-28116967D01*
X327736166Y-28116967D01*
X327623728Y-28173185D01*
X346007232Y-30804781D02*
X346007232Y-30017720D01*
X346007232Y-30130157D02*
X345951014Y-30073938D01*
X345838576Y-30017720D01*
X345669920Y-30017720D01*
X345557483Y-30073938D01*
X345501264Y-30186376D01*
X345501264Y-30804781D01*
X345501264Y-30186376D02*
X345445046Y-30073938D01*
X345332608Y-30017720D01*
X345163952Y-30017720D01*
X345051515Y-30073938D01*
X344995296Y-30186376D01*
X344995296Y-30804781D01*
X344264454Y-30804781D02*
X344376891Y-30748562D01*
X344433110Y-30692344D01*
X344489328Y-30579906D01*
X344489328Y-30242594D01*
X344433110Y-30130157D01*
X344376891Y-30073938D01*
X344264454Y-30017720D01*
X344095798Y-30017720D01*
X343983360Y-30073938D01*
X343927142Y-30130157D01*
X343870923Y-30242594D01*
X343870923Y-30579906D01*
X343927142Y-30692344D01*
X343983360Y-30748562D01*
X344095798Y-30804781D01*
X344264454Y-30804781D01*
X342858987Y-30804781D02*
X342858987Y-29624189D01*
X342858987Y-30748562D02*
X342971424Y-30804781D01*
X343196299Y-30804781D01*
X343308736Y-30748562D01*
X343364955Y-30692344D01*
X343421174Y-30579906D01*
X343421174Y-30242594D01*
X343364955Y-30130157D01*
X343308736Y-30073938D01*
X343196299Y-30017720D01*
X342971424Y-30017720D01*
X342858987Y-30073938D01*
X342296800Y-30804781D02*
X342296800Y-30017720D01*
X342296800Y-29624189D02*
X342353019Y-29680408D01*
X342296800Y-29736626D01*
X342240582Y-29680408D01*
X342296800Y-29624189D01*
X342296800Y-29736626D01*
X341903270Y-30017720D02*
X341453520Y-30017720D01*
X341734614Y-30804781D02*
X341734614Y-29792845D01*
X341678395Y-29680408D01*
X341565958Y-29624189D01*
X341453520Y-29624189D01*
X341059990Y-30804781D02*
X341059990Y-30017720D01*
X341059990Y-29624189D02*
X341116208Y-29680408D01*
X341059990Y-29736626D01*
X341003771Y-29680408D01*
X341059990Y-29624189D01*
X341059990Y-29736626D01*
X340048054Y-30748562D02*
X340160491Y-30804781D01*
X340385366Y-30804781D01*
X340497803Y-30748562D01*
X340554022Y-30636125D01*
X340554022Y-30186376D01*
X340497803Y-30073938D01*
X340385366Y-30017720D01*
X340160491Y-30017720D01*
X340048054Y-30073938D01*
X339991835Y-30186376D01*
X339991835Y-30298813D01*
X340554022Y-30411250D01*
X338979899Y-30804781D02*
X338979899Y-29624189D01*
X338979899Y-30748562D02*
X339092336Y-30804781D01*
X339317211Y-30804781D01*
X339429648Y-30748562D01*
X339485867Y-30692344D01*
X339542086Y-30579906D01*
X339542086Y-30242594D01*
X339485867Y-30130157D01*
X339429648Y-30073938D01*
X339317211Y-30017720D01*
X339092336Y-30017720D01*
X338979899Y-30073938D01*
X337518214Y-30804781D02*
X337518214Y-29624189D01*
X337518214Y-30073938D02*
X337405776Y-30017720D01*
X337180902Y-30017720D01*
X337068464Y-30073938D01*
X337012246Y-30130157D01*
X336956027Y-30242594D01*
X336956027Y-30579906D01*
X337012246Y-30692344D01*
X337068464Y-30748562D01*
X337180902Y-30804781D01*
X337405776Y-30804781D01*
X337518214Y-30748562D01*
X336562496Y-30017720D02*
X336281403Y-30804781D01*
X336000310Y-30017720D02*
X336281403Y-30804781D01*
X336393840Y-31085874D01*
X336450059Y-31142093D01*
X336562496Y-31198312D01*
X334651062Y-30804781D02*
X334651062Y-29624189D01*
X334257531Y-30467469D01*
X333864000Y-29624189D01*
X333864000Y-30804781D01*
X332795846Y-30804781D02*
X332795846Y-30186376D01*
X332852064Y-30073938D01*
X332964502Y-30017720D01*
X333189376Y-30017720D01*
X333301814Y-30073938D01*
X332795846Y-30748562D02*
X332908283Y-30804781D01*
X333189376Y-30804781D01*
X333301814Y-30748562D01*
X333358032Y-30636125D01*
X333358032Y-30523688D01*
X333301814Y-30411250D01*
X333189376Y-30355032D01*
X332908283Y-30355032D01*
X332795846Y-30298813D01*
X332402315Y-30017720D02*
X331952566Y-30017720D01*
X332233659Y-29624189D02*
X332233659Y-30636125D01*
X332177440Y-30748562D01*
X332065003Y-30804781D01*
X331952566Y-30804781D01*
X331727691Y-30017720D02*
X331277942Y-30017720D01*
X331559035Y-29624189D02*
X331559035Y-30636125D01*
X331502816Y-30748562D01*
X331390379Y-30804781D01*
X331277942Y-30804781D01*
X330378443Y-30804781D02*
X330378443Y-30186376D01*
X330434662Y-30073938D01*
X330547099Y-30017720D01*
X330771974Y-30017720D01*
X330884411Y-30073938D01*
X330378443Y-30748562D02*
X330490880Y-30804781D01*
X330771974Y-30804781D01*
X330884411Y-30748562D01*
X330940630Y-30636125D01*
X330940630Y-30523688D01*
X330884411Y-30411250D01*
X330771974Y-30355032D01*
X330490880Y-30355032D01*
X330378443Y-30298813D01*
X329816256Y-30804781D02*
X329816256Y-30017720D01*
X329816256Y-30242594D02*
X329760038Y-30130157D01*
X329703819Y-30073938D01*
X329591382Y-30017720D01*
X329478944Y-30017720D01*
D14*
X121343190Y-58049380D02*
X121305095Y-57935095D01*
X121305095Y-57744619D01*
X121343190Y-57668428D01*
X121381285Y-57630333D01*
X121457476Y-57592238D01*
X121533666Y-57592238D01*
X121609857Y-57630333D01*
X121647952Y-57668428D01*
X121686047Y-57744619D01*
X121724142Y-57897000D01*
X121762238Y-57973190D01*
X121800333Y-58011285D01*
X121876523Y-58049380D01*
X121952714Y-58049380D01*
X122028904Y-58011285D01*
X122067000Y-57973190D01*
X122105095Y-57897000D01*
X122105095Y-57706523D01*
X122067000Y-57592238D01*
X121381285Y-56792238D02*
X121343190Y-56830333D01*
X121305095Y-56944619D01*
X121305095Y-57020809D01*
X121343190Y-57135095D01*
X121419380Y-57211285D01*
X121495571Y-57249380D01*
X121647952Y-57287476D01*
X121762238Y-57287476D01*
X121914619Y-57249380D01*
X121990809Y-57211285D01*
X122067000Y-57135095D01*
X122105095Y-57020809D01*
X122105095Y-56944619D01*
X122067000Y-56830333D01*
X122028904Y-56792238D01*
X121305095Y-56068428D02*
X121305095Y-56449380D01*
X122105095Y-56449380D01*
X179602809Y-56398619D02*
X179640904Y-56512904D01*
X179640904Y-56703380D01*
X179602809Y-56779571D01*
X179564714Y-56817666D01*
X179488523Y-56855761D01*
X179412333Y-56855761D01*
X179336142Y-56817666D01*
X179298047Y-56779571D01*
X179259952Y-56703380D01*
X179221857Y-56551000D01*
X179183761Y-56474809D01*
X179145666Y-56436714D01*
X179069476Y-56398619D01*
X178993285Y-56398619D01*
X178917095Y-56436714D01*
X178879000Y-56474809D01*
X178840904Y-56551000D01*
X178840904Y-56741476D01*
X178879000Y-56855761D01*
X179564714Y-57655761D02*
X179602809Y-57617666D01*
X179640904Y-57503380D01*
X179640904Y-57427190D01*
X179602809Y-57312904D01*
X179526619Y-57236714D01*
X179450428Y-57198619D01*
X179298047Y-57160523D01*
X179183761Y-57160523D01*
X179031380Y-57198619D01*
X178955190Y-57236714D01*
X178879000Y-57312904D01*
X178840904Y-57427190D01*
X178840904Y-57503380D01*
X178879000Y-57617666D01*
X178917095Y-57655761D01*
X179640904Y-58379571D02*
X179640904Y-57998619D01*
X178840904Y-57998619D01*
X177002809Y-56379571D02*
X177040904Y-56493857D01*
X177040904Y-56684333D01*
X177002809Y-56760523D01*
X176964714Y-56798619D01*
X176888523Y-56836714D01*
X176812333Y-56836714D01*
X176736142Y-56798619D01*
X176698047Y-56760523D01*
X176659952Y-56684333D01*
X176621857Y-56531952D01*
X176583761Y-56455761D01*
X176545666Y-56417666D01*
X176469476Y-56379571D01*
X176393285Y-56379571D01*
X176317095Y-56417666D01*
X176279000Y-56455761D01*
X176240904Y-56531952D01*
X176240904Y-56722428D01*
X176279000Y-56836714D01*
X177040904Y-57179571D02*
X176240904Y-57179571D01*
X176240904Y-57370047D01*
X176279000Y-57484333D01*
X176355190Y-57560523D01*
X176431380Y-57598619D01*
X176583761Y-57636714D01*
X176698047Y-57636714D01*
X176850428Y-57598619D01*
X176926619Y-57560523D01*
X177002809Y-57484333D01*
X177040904Y-57370047D01*
X177040904Y-57179571D01*
X176812333Y-57941476D02*
X176812333Y-58322428D01*
X177040904Y-57865285D02*
X176240904Y-58131952D01*
X177040904Y-58398619D01*
X174479000Y-51841476D02*
X174440904Y-51765285D01*
X174440904Y-51651000D01*
X174479000Y-51536714D01*
X174555190Y-51460523D01*
X174631380Y-51422428D01*
X174783761Y-51384333D01*
X174898047Y-51384333D01*
X175050428Y-51422428D01*
X175126619Y-51460523D01*
X175202809Y-51536714D01*
X175240904Y-51651000D01*
X175240904Y-51727190D01*
X175202809Y-51841476D01*
X175164714Y-51879571D01*
X174898047Y-51879571D01*
X174898047Y-51727190D01*
X175240904Y-52222428D02*
X174440904Y-52222428D01*
X175240904Y-52679571D01*
X174440904Y-52679571D01*
X175240904Y-53060523D02*
X174440904Y-53060523D01*
X174440904Y-53251000D01*
X174479000Y-53365285D01*
X174555190Y-53441476D01*
X174631380Y-53479571D01*
X174783761Y-53517666D01*
X174898047Y-53517666D01*
X175050428Y-53479571D01*
X175126619Y-53441476D01*
X175202809Y-53365285D01*
X175240904Y-53251000D01*
X175240904Y-53060523D01*
X178840904Y-46484333D02*
X179640904Y-46751000D01*
X178840904Y-47017666D01*
X179564714Y-47741476D02*
X179602809Y-47703380D01*
X179640904Y-47589095D01*
X179640904Y-47512904D01*
X179602809Y-47398619D01*
X179526619Y-47322428D01*
X179450428Y-47284333D01*
X179298047Y-47246238D01*
X179183761Y-47246238D01*
X179031380Y-47284333D01*
X178955190Y-47322428D01*
X178879000Y-47398619D01*
X178840904Y-47512904D01*
X178840904Y-47589095D01*
X178879000Y-47703380D01*
X178917095Y-47741476D01*
X179564714Y-48541476D02*
X179602809Y-48503380D01*
X179640904Y-48389095D01*
X179640904Y-48312904D01*
X179602809Y-48198619D01*
X179526619Y-48122428D01*
X179450428Y-48084333D01*
X179298047Y-48046238D01*
X179183761Y-48046238D01*
X179031380Y-48084333D01*
X178955190Y-48122428D01*
X178879000Y-48198619D01*
X178840904Y-48312904D01*
X178840904Y-48389095D01*
X178879000Y-48503380D01*
X178917095Y-48541476D01*
D19*
X129413000Y-51181000D03*
X158851600Y-51206400D03*
X150622000Y-51181000D03*
X139827000Y-51054000D03*
X153797000Y-29952800D03*
X173990000Y-34798000D03*
X153807800Y-28712800D03*
X119126000Y-57531000D03*
X174879000Y-33983300D03*
X171951350Y-47631650D03*
X117856000Y-40259000D03*
X167965071Y-34994800D03*
X167887350Y-27808500D03*
X120498350Y-31932800D03*
X136772350Y-49726800D03*
X131572000Y-40792400D03*
X131485457Y-41744377D03*
X139319000Y-52632500D03*
X131464095Y-42700040D03*
X142062903Y-53536800D03*
X142925800Y-51993800D03*
X131433820Y-43665464D03*
X157378400Y-50088800D03*
X151646097Y-39158703D03*
X151654200Y-38102800D03*
X160851580Y-52457620D03*
X163271200Y-51968400D03*
X151795563Y-37157408D03*
X164153700Y-50901600D03*
X151755693Y-36202337D03*
X131598497Y-36246897D03*
X126373874Y-49022000D03*
X131486000Y-37302800D03*
X127176574Y-51816000D03*
X130406400Y-38169700D03*
X130556000Y-53340000D03*
X128577152Y-39000558D03*
X132092700Y-52463700D03*
X151892494Y-43628703D03*
X147821350Y-50107800D03*
X150632043Y-53070700D03*
X151873000Y-42564000D03*
X153289000Y-52959000D03*
X151839441Y-41608687D03*
X153873200Y-51866800D03*
X151876811Y-40653515D03*
X125984000Y-31038800D03*
X170046350Y-31311550D03*
X153974800Y-31343600D03*
X142748000Y-94615000D03*
X162306000Y-73202800D03*
X152857200Y-74625200D03*
X151892000Y-72034400D03*
X153771600Y-75895200D03*
X162356800Y-80518000D03*
X147968000Y-83251300D03*
X156972000Y-83921600D03*
X163322000Y-77317600D03*
X164287200Y-74625200D03*
X138176000Y-94488000D03*
X162306000Y-71932800D03*
X152857200Y-78130400D03*
X163271200Y-74625200D03*
X151892000Y-73355200D03*
X162356800Y-75742800D03*
X163322000Y-75793600D03*
X162306000Y-74574400D03*
X156210000Y-94615000D03*
X153771600Y-77063600D03*
X164287200Y-73253600D03*
X163322000Y-80518000D03*
X151892000Y-70561200D03*
X117094000Y-94615000D03*
X173355000Y-94615000D03*
X177673000Y-94615000D03*
X160426400Y-78435200D03*
X170078400Y-83820000D03*
X153771600Y-72034400D03*
X151892000Y-77063600D03*
X162356800Y-78384400D03*
X125222000Y-94742000D03*
X164592000Y-94615000D03*
X161391600Y-79451200D03*
X162356800Y-77317600D03*
X160426400Y-77368400D03*
X164338000Y-75793600D03*
X181991000Y-94615000D03*
X133604000Y-94488000D03*
X129413000Y-94742000D03*
X170636000Y-77564800D03*
X151892000Y-94488000D03*
X161391600Y-78435200D03*
X152857200Y-70561200D03*
X163271200Y-73253600D03*
X152857200Y-77063600D03*
X153771600Y-73355200D03*
X152857200Y-75895200D03*
X161391600Y-77368400D03*
X152857200Y-73355200D03*
X158953200Y-83921600D03*
X164287200Y-71983600D03*
X151892000Y-75895200D03*
X163322000Y-79400400D03*
X157937200Y-83921600D03*
X161391600Y-80568800D03*
X160426400Y-79451200D03*
X151892000Y-74625200D03*
X147320000Y-94488000D03*
X162356800Y-79400400D03*
X169164000Y-94615000D03*
X160401000Y-94488000D03*
X160426400Y-80568800D03*
X153771600Y-78130400D03*
X121031000Y-94615000D03*
X163322000Y-78384400D03*
X153771600Y-70561200D03*
X162356800Y-70612000D03*
X153771600Y-74625200D03*
X163271200Y-71983600D03*
X152857200Y-72034400D03*
X127254000Y-65024000D03*
X116205000Y-92710000D03*
X120294400Y-92710000D03*
X129844800Y-65176400D03*
X124333000Y-92583000D03*
X132334000Y-65024000D03*
X134874000Y-65024000D03*
X128524000Y-92710000D03*
X132588000Y-92710000D03*
X139065000Y-65024000D03*
X137287000Y-92710000D03*
X141605000Y-65024000D03*
X144145000Y-65024000D03*
X141859000Y-92710000D03*
X146304000Y-92710000D03*
X146685000Y-65024000D03*
X150723600Y-65278000D03*
X150977600Y-92659200D03*
X153289000Y-65024000D03*
X155321000Y-92710000D03*
X159385000Y-92710000D03*
X155829000Y-65024000D03*
X158369000Y-65024000D03*
X163703000Y-92710000D03*
X162052000Y-65024000D03*
X168148000Y-92837000D03*
X164592000Y-65024000D03*
X172466000Y-92837000D03*
X167132000Y-65024000D03*
X176784000Y-92710000D03*
X169773600Y-65227200D03*
X181102000Y-92760800D03*
X179933600Y-54864000D03*
X177393600Y-54864000D03*
X179933600Y-52324000D03*
X177393600Y-52324000D03*
X179933600Y-49784000D03*
X177393600Y-49784000D03*
X179367900Y-83133800D03*
X179367900Y-78135800D03*
X121793000Y-54864000D03*
X119253000Y-54864000D03*
X121793000Y-52324000D03*
X119253000Y-52324000D03*
X121793000Y-49784000D03*
X119253000Y-49784000D03*
X119938800Y-78069800D03*
X119938800Y-83067800D03*
X122936000Y-113042500D03*
X176276000Y-113042500D03*
X124206000Y-106692500D03*
X125476000Y-104152500D03*
X126746000Y-106692500D03*
X128016000Y-104152500D03*
X129286000Y-106692500D03*
X130556000Y-104152500D03*
X131826000Y-106692500D03*
X133096000Y-104152500D03*
X138176000Y-106692500D03*
X139446000Y-104152500D03*
X140716000Y-106692500D03*
X141986000Y-104152500D03*
X143256000Y-106692500D03*
X144526000Y-104152500D03*
X145796000Y-106692500D03*
X147066000Y-104152500D03*
X152146000Y-106692500D03*
X153416000Y-104152500D03*
X154686000Y-106692500D03*
X155956000Y-104152500D03*
X157226000Y-106692500D03*
X158496000Y-104152500D03*
X159766000Y-106692500D03*
X161036000Y-104152500D03*
X166116000Y-106692500D03*
X167386000Y-104152500D03*
X168656000Y-106692500D03*
X169926000Y-104152500D03*
X171196000Y-106692500D03*
X172466000Y-104152500D03*
X173736000Y-106692500D03*
X175006000Y-104152500D03*
X163576000Y-102882500D03*
X179006000Y-117612500D03*
X120206000Y-117612500D03*
X149606000Y-102882500D03*
X135636000Y-102882500D03*
M02*
