%TF.GenerationSoftware,KiCad,Pcbnew,(6.0.9)*%
%TF.CreationDate,2023-11-09T17:58:51+05:30*%
%TF.ProjectId,Modular-I2C-4PxRJ45-Relay-Driver,4d6f6475-6c61-4722-9d49-32432d345078,2*%
%TF.SameCoordinates,Original*%
%TF.FileFunction,Soldermask,Top*%
%TF.FilePolarity,Negative*%
%FSLAX46Y46*%
G04 Gerber Fmt 4.6, Leading zero omitted, Abs format (unit mm)*
G04 Created by KiCad (PCBNEW (6.0.9)) date 2023-11-09 17:58:51*
%MOMM*%
%LPD*%
G01*
G04 APERTURE LIST*
G04 Aperture macros list*
%AMRoundRect*
0 Rectangle with rounded corners*
0 $1 Rounding radius*
0 $2 $3 $4 $5 $6 $7 $8 $9 X,Y pos of 4 corners*
0 Add a 4 corners polygon primitive as box body*
4,1,4,$2,$3,$4,$5,$6,$7,$8,$9,$2,$3,0*
0 Add four circle primitives for the rounded corners*
1,1,$1+$1,$2,$3*
1,1,$1+$1,$4,$5*
1,1,$1+$1,$6,$7*
1,1,$1+$1,$8,$9*
0 Add four rect primitives between the rounded corners*
20,1,$1+$1,$2,$3,$4,$5,0*
20,1,$1+$1,$4,$5,$6,$7,0*
20,1,$1+$1,$6,$7,$8,$9,0*
20,1,$1+$1,$8,$9,$2,$3,0*%
G04 Aperture macros list end*
%ADD10RoundRect,0.250000X0.600000X0.600000X-0.600000X0.600000X-0.600000X-0.600000X0.600000X-0.600000X0*%
%ADD11C,1.700000*%
%ADD12RoundRect,0.218750X0.218750X0.256250X-0.218750X0.256250X-0.218750X-0.256250X0.218750X-0.256250X0*%
%ADD13RoundRect,0.200000X-0.200000X-0.275000X0.200000X-0.275000X0.200000X0.275000X-0.200000X0.275000X0*%
%ADD14C,2.000000*%
%ADD15R,2.000000X1.100000*%
%ADD16R,0.800000X0.800000*%
%ADD17RoundRect,0.150000X-0.150000X0.837500X-0.150000X-0.837500X0.150000X-0.837500X0.150000X0.837500X0*%
%ADD18R,0.650000X0.400000*%
%ADD19RoundRect,0.150000X-0.150000X0.587500X-0.150000X-0.587500X0.150000X-0.587500X0.150000X0.587500X0*%
%ADD20C,3.000000*%
%ADD21R,0.800000X0.500000*%
%ADD22R,0.800000X0.400000*%
%ADD23RoundRect,0.200000X-0.275000X0.200000X-0.275000X-0.200000X0.275000X-0.200000X0.275000X0.200000X0*%
%ADD24RoundRect,0.218750X-0.218750X-0.256250X0.218750X-0.256250X0.218750X0.256250X-0.218750X0.256250X0*%
%ADD25RoundRect,0.225000X0.250000X-0.225000X0.250000X0.225000X-0.250000X0.225000X-0.250000X-0.225000X0*%
%ADD26R,0.500000X0.800000*%
%ADD27R,0.400000X0.800000*%
%ADD28RoundRect,0.225000X0.225000X0.250000X-0.225000X0.250000X-0.225000X-0.250000X0.225000X-0.250000X0*%
%ADD29RoundRect,0.200000X0.200000X0.275000X-0.200000X0.275000X-0.200000X-0.275000X0.200000X-0.275000X0*%
%ADD30RoundRect,0.150000X0.150000X-0.512500X0.150000X0.512500X-0.150000X0.512500X-0.150000X-0.512500X0*%
%ADD31RoundRect,0.225000X-0.225000X-0.250000X0.225000X-0.250000X0.225000X0.250000X-0.225000X0.250000X0*%
%ADD32R,1.500000X2.400000*%
%ADD33RoundRect,0.250000X1.000000X-1.750000X1.000000X1.750000X-1.000000X1.750000X-1.000000X-1.750000X0*%
%ADD34RoundRect,0.150000X0.875000X0.150000X-0.875000X0.150000X-0.875000X-0.150000X0.875000X-0.150000X0*%
%ADD35R,1.200000X3.300000*%
%ADD36R,3.300000X1.200000*%
%ADD37RoundRect,0.200000X0.275000X-0.200000X0.275000X0.200000X-0.275000X0.200000X-0.275000X-0.200000X0*%
%ADD38R,1.100000X1.100000*%
%ADD39RoundRect,0.225000X-0.250000X0.225000X-0.250000X-0.225000X0.250000X-0.225000X0.250000X0.225000X0*%
G04 APERTURE END LIST*
D10*
%TO.C,J1*%
X159933600Y-34864000D03*
D11*
X157393600Y-34864000D03*
X159933600Y-32324000D03*
X157393600Y-32324000D03*
X159933600Y-29784000D03*
X157393600Y-29784000D03*
%TD*%
D12*
%TO.C,LED56*%
X118836500Y-68519000D03*
X117261500Y-68519000D03*
%TD*%
D13*
%TO.C,TH59*%
X130893000Y-77468400D03*
X132543000Y-77468400D03*
%TD*%
D14*
%TO.C,J11*%
X101496000Y-89437300D03*
X101496000Y-91937300D03*
X104996000Y-89437300D03*
X104996000Y-91937300D03*
X108496000Y-89437300D03*
X108496000Y-91937300D03*
X111996000Y-89437300D03*
X111996000Y-91937300D03*
%TD*%
D15*
%TO.C,D57*%
X121982150Y-79441000D03*
D16*
X123882150Y-79441000D03*
%TD*%
D14*
%TO.C,J12*%
X116888400Y-89437300D03*
X116888400Y-91937300D03*
X120388400Y-89437300D03*
X120388400Y-91937300D03*
X123888400Y-89437300D03*
X123888400Y-91937300D03*
X127388400Y-89437300D03*
X127388400Y-91937300D03*
%TD*%
D15*
%TO.C,D61*%
X139607000Y-79441000D03*
D16*
X141507000Y-79441000D03*
%TD*%
D17*
%TO.C,U5*%
X139639000Y-37497500D03*
X138369000Y-37497500D03*
X137099000Y-37497500D03*
X135829000Y-37497500D03*
X134559000Y-37497500D03*
X133289000Y-37497500D03*
X132019000Y-37497500D03*
X130749000Y-37497500D03*
X130749000Y-44422500D03*
X132019000Y-44422500D03*
X133289000Y-44422500D03*
X134559000Y-44422500D03*
X135829000Y-44422500D03*
X137099000Y-44422500D03*
X138369000Y-44422500D03*
X139639000Y-44422500D03*
%TD*%
D12*
%TO.C,LED66*%
X162767300Y-68519000D03*
X161192300Y-68519000D03*
%TD*%
D18*
%TO.C,D8*%
X108463000Y-30473800D03*
X108463000Y-31123800D03*
X108463000Y-31773800D03*
X110363000Y-31773800D03*
X110363000Y-31123800D03*
X110363000Y-30473800D03*
%TD*%
D17*
%TO.C,U4*%
X127955000Y-37497500D03*
X126685000Y-37497500D03*
X125415000Y-37497500D03*
X124145000Y-37497500D03*
X122875000Y-37497500D03*
X121605000Y-37497500D03*
X120335000Y-37497500D03*
X119065000Y-37497500D03*
X119065000Y-44422500D03*
X120335000Y-44422500D03*
X121605000Y-44422500D03*
X122875000Y-44422500D03*
X124145000Y-44422500D03*
X125415000Y-44422500D03*
X126685000Y-44422500D03*
X127955000Y-44422500D03*
%TD*%
D15*
%TO.C,D63*%
X148339300Y-79441000D03*
D16*
X150239300Y-79441000D03*
%TD*%
D12*
%TO.C,LED60*%
X136881800Y-68519000D03*
X135306800Y-68519000D03*
%TD*%
%TO.C,D3*%
X146547900Y-62397600D03*
X144972900Y-62397600D03*
%TD*%
D13*
%TO.C,R58*%
X126313500Y-70721700D03*
X127963500Y-70721700D03*
%TD*%
D19*
%TO.C,Q54*%
X110308500Y-73169500D03*
X108408500Y-73169500D03*
X109358500Y-75044500D03*
%TD*%
D18*
%TO.C,D7*%
X140086000Y-30150000D03*
X140086000Y-30800000D03*
X140086000Y-31450000D03*
X141986000Y-31450000D03*
X141986000Y-30800000D03*
X141986000Y-30150000D03*
%TD*%
D13*
%TO.C,TH54*%
X108533500Y-77468400D03*
X110183500Y-77468400D03*
%TD*%
D12*
%TO.C,LED55*%
X114357000Y-68519000D03*
X112782000Y-68519000D03*
%TD*%
D13*
%TO.C,TH61*%
X139409500Y-77468400D03*
X141059500Y-77468400D03*
%TD*%
D12*
%TO.C,LED58*%
X127946000Y-68519000D03*
X126371000Y-68519000D03*
%TD*%
D13*
%TO.C,R61*%
X139417000Y-70721700D03*
X141067000Y-70721700D03*
%TD*%
D19*
%TO.C,Q53*%
X106117500Y-73155262D03*
X104217500Y-73155262D03*
X105167500Y-75030262D03*
%TD*%
%TO.C,Q63*%
X149916800Y-73169500D03*
X148016800Y-73169500D03*
X148966800Y-75044500D03*
%TD*%
D12*
%TO.C,LED63*%
X149781800Y-68519000D03*
X148206800Y-68519000D03*
%TD*%
%TO.C,LED65*%
X158441000Y-68519000D03*
X156866000Y-68519000D03*
%TD*%
D20*
%TO.C,J4*%
X159367900Y-63133800D03*
X159367900Y-58135800D03*
%TD*%
D10*
%TO.C,J2*%
X101793000Y-34864000D03*
D11*
X99253000Y-34864000D03*
X101793000Y-32324000D03*
X99253000Y-32324000D03*
X101793000Y-29784000D03*
X99253000Y-29784000D03*
%TD*%
D21*
%TO.C,RN9*%
X108182800Y-20811600D03*
D22*
X108182800Y-21611600D03*
X108182800Y-22411600D03*
D21*
X108182800Y-23211600D03*
X109982800Y-23211600D03*
D22*
X109982800Y-22411600D03*
X109982800Y-21611600D03*
D21*
X109982800Y-20811600D03*
%TD*%
D23*
%TO.C,R5*%
X146420800Y-59083400D03*
X146420800Y-60733400D03*
%TD*%
D24*
%TO.C,D2*%
X129986900Y-62448400D03*
X131561900Y-62448400D03*
%TD*%
D25*
%TO.C,C1*%
X117922000Y-4847800D03*
X117922000Y-3297800D03*
%TD*%
D26*
%TO.C,RN1*%
X116074000Y-3230000D03*
D27*
X115274000Y-3230000D03*
X114474000Y-3230000D03*
D26*
X113674000Y-3230000D03*
X113674000Y-5030000D03*
D27*
X114474000Y-5030000D03*
X115274000Y-5030000D03*
D26*
X116074000Y-5030000D03*
%TD*%
D15*
%TO.C,D64*%
X152680500Y-79441000D03*
D16*
X154580500Y-79441000D03*
%TD*%
D28*
%TO.C,C9*%
X142928600Y-62397600D03*
X141378600Y-62397600D03*
%TD*%
D29*
%TO.C,R4*%
X157348350Y-16396300D03*
X155698350Y-16396300D03*
%TD*%
D13*
%TO.C,R60*%
X135249300Y-70721700D03*
X136899300Y-70721700D03*
%TD*%
D12*
%TO.C,LED57*%
X123408500Y-68519000D03*
X121833500Y-68519000D03*
%TD*%
D21*
%TO.C,RN7*%
X105490400Y-16595200D03*
D22*
X105490400Y-17395200D03*
X105490400Y-18195200D03*
D21*
X105490400Y-18995200D03*
X107290400Y-18995200D03*
D22*
X107290400Y-18195200D03*
X107290400Y-17395200D03*
D21*
X107290400Y-16595200D03*
%TD*%
D30*
%TO.C,U2*%
X137241200Y-62404500D03*
X138191200Y-62404500D03*
X139141200Y-62404500D03*
X139141200Y-60129500D03*
X138191200Y-60129500D03*
X137241200Y-60129500D03*
%TD*%
D15*
%TO.C,D53*%
X104540000Y-79441000D03*
D16*
X106440000Y-79441000D03*
%TD*%
D13*
%TO.C,TH60*%
X135241800Y-77468400D03*
X136891800Y-77468400D03*
%TD*%
D31*
%TO.C,C7*%
X133606200Y-59616000D03*
X135156200Y-59616000D03*
%TD*%
%TO.C,C8*%
X133593200Y-62410000D03*
X135143200Y-62410000D03*
%TD*%
D13*
%TO.C,R53*%
X104342500Y-70721700D03*
X105992500Y-70721700D03*
%TD*%
D18*
%TO.C,D6*%
X129731350Y-30458800D03*
X129731350Y-31108800D03*
X129731350Y-31758800D03*
X131631350Y-31758800D03*
X131631350Y-31108800D03*
X131631350Y-30458800D03*
%TD*%
D13*
%TO.C,TH56*%
X117210500Y-77468400D03*
X118860500Y-77468400D03*
%TD*%
D12*
%TO.C,LED53*%
X106009500Y-68519000D03*
X104434500Y-68519000D03*
%TD*%
D21*
%TO.C,RN16*%
X112754800Y-16502800D03*
D22*
X112754800Y-17302800D03*
X112754800Y-18102800D03*
D21*
X112754800Y-18902800D03*
X114554800Y-18902800D03*
D22*
X114554800Y-18102800D03*
X114554800Y-17302800D03*
D21*
X114554800Y-16502800D03*
%TD*%
D17*
%TO.C,U3*%
X116144000Y-37497500D03*
X114874000Y-37497500D03*
X113604000Y-37497500D03*
X112334000Y-37497500D03*
X111064000Y-37497500D03*
X109794000Y-37497500D03*
X108524000Y-37497500D03*
X107254000Y-37497500D03*
X107254000Y-44422500D03*
X108524000Y-44422500D03*
X109794000Y-44422500D03*
X111064000Y-44422500D03*
X112334000Y-44422500D03*
X113604000Y-44422500D03*
X114874000Y-44422500D03*
X116144000Y-44422500D03*
%TD*%
D19*
%TO.C,Q58*%
X128088500Y-73169500D03*
X126188500Y-73169500D03*
X127138500Y-75044500D03*
%TD*%
D13*
%TO.C,R51*%
X96142000Y-70721700D03*
X97792000Y-70721700D03*
%TD*%
%TO.C,TH53*%
X104342500Y-77468400D03*
X105992500Y-77468400D03*
%TD*%
D12*
%TO.C,LED61*%
X141049500Y-68519000D03*
X139474500Y-68519000D03*
%TD*%
%TO.C,LED64*%
X154123000Y-68519000D03*
X152548000Y-68519000D03*
%TD*%
D32*
%TO.C,L1*%
X140801200Y-52885000D03*
X135301200Y-52885000D03*
%TD*%
D13*
%TO.C,R54*%
X108533500Y-70721700D03*
X110183500Y-70721700D03*
%TD*%
%TO.C,TH57*%
X121784650Y-77468400D03*
X123434650Y-77468400D03*
%TD*%
D15*
%TO.C,D55*%
X112922000Y-79441000D03*
D16*
X114822000Y-79441000D03*
%TD*%
D12*
%TO.C,LED52*%
X101911000Y-68519000D03*
X100336000Y-68519000D03*
%TD*%
D13*
%TO.C,R65*%
X156808500Y-70721700D03*
X158458500Y-70721700D03*
%TD*%
%TO.C,TH66*%
X161127300Y-77468400D03*
X162777300Y-77468400D03*
%TD*%
D33*
%TO.C,C5*%
X121986000Y-63349600D03*
X121986000Y-55349600D03*
%TD*%
D21*
%TO.C,RN15*%
X130379000Y-18792000D03*
D22*
X130379000Y-17992000D03*
X130379000Y-17192000D03*
D21*
X130379000Y-16392000D03*
X128579000Y-16392000D03*
D22*
X128579000Y-17192000D03*
X128579000Y-17992000D03*
D21*
X128579000Y-18792000D03*
%TD*%
D13*
%TO.C,TH55*%
X112724500Y-77468400D03*
X114374500Y-77468400D03*
%TD*%
%TO.C,TH58*%
X126313500Y-77468400D03*
X127963500Y-77468400D03*
%TD*%
%TO.C,R56*%
X117210500Y-70721700D03*
X118860500Y-70721700D03*
%TD*%
D29*
%TO.C,R3*%
X157348350Y-18301300D03*
X155698350Y-18301300D03*
%TD*%
D12*
%TO.C,LED59*%
X132552500Y-68519000D03*
X130977500Y-68519000D03*
%TD*%
D19*
%TO.C,Q65*%
X158576000Y-73169500D03*
X156676000Y-73169500D03*
X157626000Y-75044500D03*
%TD*%
D12*
%TO.C,LED51*%
X97774500Y-68519000D03*
X96199500Y-68519000D03*
%TD*%
%TO.C,D4*%
X156682500Y-21275000D03*
X155107500Y-21275000D03*
%TD*%
D13*
%TO.C,TH62*%
X143720000Y-77468400D03*
X145370000Y-77468400D03*
%TD*%
%TO.C,TH63*%
X148141800Y-77468400D03*
X149791800Y-77468400D03*
%TD*%
%TO.C,R64*%
X152490500Y-70721700D03*
X154140500Y-70721700D03*
%TD*%
D15*
%TO.C,D58*%
X126511000Y-79441000D03*
D16*
X128411000Y-79441000D03*
%TD*%
D13*
%TO.C,R62*%
X143727500Y-70721700D03*
X145377500Y-70721700D03*
%TD*%
D21*
%TO.C,RN5*%
X134976400Y-18944400D03*
D22*
X134976400Y-18144400D03*
X134976400Y-17344400D03*
D21*
X134976400Y-16544400D03*
X133176400Y-16544400D03*
D22*
X133176400Y-17344400D03*
X133176400Y-18144400D03*
D21*
X133176400Y-18944400D03*
%TD*%
D15*
%TO.C,D65*%
X156998500Y-79441000D03*
D16*
X158898500Y-79441000D03*
%TD*%
D15*
%TO.C,D60*%
X135290500Y-79441000D03*
D16*
X137190500Y-79441000D03*
%TD*%
D19*
%TO.C,Q57*%
X123559650Y-73169500D03*
X121659650Y-73169500D03*
X122609650Y-75044500D03*
%TD*%
D15*
%TO.C,D52*%
X100476000Y-79441000D03*
D16*
X102376000Y-79441000D03*
%TD*%
D13*
%TO.C,R66*%
X161134800Y-70721700D03*
X162784800Y-70721700D03*
%TD*%
D19*
%TO.C,Q61*%
X141184500Y-73169500D03*
X139284500Y-73169500D03*
X140234500Y-75044500D03*
%TD*%
D34*
%TO.C,U1*%
X126255000Y-23942000D03*
X126255000Y-22672000D03*
X126255000Y-21402000D03*
X126255000Y-20132000D03*
X126255000Y-18862000D03*
X126255000Y-17592000D03*
X126255000Y-16322000D03*
X126255000Y-15052000D03*
X126255000Y-13782000D03*
X126255000Y-12512000D03*
X126255000Y-11242000D03*
X126255000Y-9972000D03*
X126255000Y-8702000D03*
X126255000Y-7432000D03*
X116955000Y-7432000D03*
X116955000Y-8702000D03*
X116955000Y-9972000D03*
X116955000Y-11242000D03*
X116955000Y-12512000D03*
X116955000Y-13782000D03*
X116955000Y-15052000D03*
X116955000Y-16322000D03*
X116955000Y-17592000D03*
X116955000Y-18862000D03*
X116955000Y-20132000D03*
X116955000Y-21402000D03*
X116955000Y-22672000D03*
X116955000Y-23942000D03*
%TD*%
D15*
%TO.C,D54*%
X108731000Y-79441000D03*
D16*
X110631000Y-79441000D03*
%TD*%
D13*
%TO.C,R57*%
X121784650Y-70721700D03*
X123434650Y-70721700D03*
%TD*%
%TO.C,R59*%
X130900500Y-70721700D03*
X132550500Y-70721700D03*
%TD*%
D19*
%TO.C,Q60*%
X137016800Y-73169500D03*
X135116800Y-73169500D03*
X136066800Y-75044500D03*
%TD*%
D21*
%TO.C,RN3*%
X134976400Y-23364000D03*
D22*
X134976400Y-22564000D03*
X134976400Y-21764000D03*
D21*
X134976400Y-20964000D03*
X133176400Y-20964000D03*
D22*
X133176400Y-21764000D03*
X133176400Y-22564000D03*
D21*
X133176400Y-23364000D03*
%TD*%
D14*
%TO.C,J14*%
X147622400Y-89538900D03*
X147622400Y-92038900D03*
X151122400Y-89538900D03*
X151122400Y-92038900D03*
X154622400Y-89538900D03*
X154622400Y-92038900D03*
X158122400Y-89538900D03*
X158122400Y-92038900D03*
%TD*%
%TO.C,J13*%
X132230000Y-89538900D03*
X132230000Y-92038900D03*
X135730000Y-89538900D03*
X135730000Y-92038900D03*
X139230000Y-89538900D03*
X139230000Y-92038900D03*
X142730000Y-89538900D03*
X142730000Y-92038900D03*
%TD*%
D21*
%TO.C,RN11*%
X130379000Y-23364000D03*
D22*
X130379000Y-22564000D03*
X130379000Y-21764000D03*
D21*
X130379000Y-20964000D03*
X128579000Y-20964000D03*
D22*
X128579000Y-21764000D03*
X128579000Y-22564000D03*
D21*
X128579000Y-23364000D03*
%TD*%
D19*
%TO.C,Q52*%
X102053500Y-73169500D03*
X100153500Y-73169500D03*
X101103500Y-75044500D03*
%TD*%
%TO.C,Q59*%
X132668000Y-73169500D03*
X130768000Y-73169500D03*
X131718000Y-75044500D03*
%TD*%
%TO.C,Q56*%
X118985500Y-73169500D03*
X117085500Y-73169500D03*
X118035500Y-75044500D03*
%TD*%
D13*
%TO.C,R55*%
X112724500Y-70721700D03*
X114374500Y-70721700D03*
%TD*%
%TO.C,TH51*%
X96142000Y-77468400D03*
X97792000Y-77468400D03*
%TD*%
D20*
%TO.C,J3*%
X99938800Y-58069800D03*
X99938800Y-63067800D03*
%TD*%
D13*
%TO.C,R52*%
X100278500Y-70721700D03*
X101928500Y-70721700D03*
%TD*%
D35*
%TO.C,SW5*%
X155133000Y-11456300D03*
X157673000Y-11456300D03*
X157673000Y-3556300D03*
X155133000Y-3556300D03*
%TD*%
D17*
%TO.C,U6*%
X150942000Y-37497500D03*
X149672000Y-37497500D03*
X148402000Y-37497500D03*
X147132000Y-37497500D03*
X145862000Y-37497500D03*
X144592000Y-37497500D03*
X143322000Y-37497500D03*
X142052000Y-37497500D03*
X142052000Y-44422500D03*
X143322000Y-44422500D03*
X144592000Y-44422500D03*
X145862000Y-44422500D03*
X147132000Y-44422500D03*
X148402000Y-44422500D03*
X149672000Y-44422500D03*
X150942000Y-44422500D03*
%TD*%
D21*
%TO.C,RN12*%
X112754800Y-20862400D03*
D22*
X112754800Y-21662400D03*
X112754800Y-22462400D03*
D21*
X112754800Y-23262400D03*
X114554800Y-23262400D03*
D22*
X114554800Y-22462400D03*
X114554800Y-21662400D03*
D21*
X114554800Y-20862400D03*
%TD*%
D19*
%TO.C,Q62*%
X145495000Y-73169500D03*
X143595000Y-73169500D03*
X144545000Y-75044500D03*
%TD*%
D36*
%TO.C,SW1*%
X102415000Y-5400000D03*
X102415000Y-7940000D03*
X102415000Y-10480000D03*
X102415000Y-13020000D03*
X110315000Y-13020000D03*
X110315000Y-10480000D03*
X110315000Y-7940000D03*
X110315000Y-5400000D03*
%TD*%
D15*
%TO.C,D59*%
X131090500Y-79441000D03*
D16*
X132990500Y-79441000D03*
%TD*%
D15*
%TO.C,D56*%
X117408000Y-79441000D03*
D16*
X119308000Y-79441000D03*
%TD*%
D28*
%TO.C,C6*%
X139093200Y-58092000D03*
X137543200Y-58092000D03*
%TD*%
D19*
%TO.C,Q55*%
X114372500Y-73169500D03*
X112472500Y-73169500D03*
X113422500Y-75044500D03*
%TD*%
D37*
%TO.C,R6*%
X158435000Y-21592000D03*
X158435000Y-19942000D03*
%TD*%
D13*
%TO.C,R63*%
X148149300Y-70721700D03*
X149799300Y-70721700D03*
%TD*%
D12*
%TO.C,LED62*%
X145506500Y-68519000D03*
X143931500Y-68519000D03*
%TD*%
D19*
%TO.C,Q51*%
X97917000Y-73169500D03*
X96017000Y-73169500D03*
X96967000Y-75044500D03*
%TD*%
D38*
%TO.C,D1*%
X113858000Y-13658000D03*
X113858000Y-10858000D03*
%TD*%
D39*
%TO.C,C3*%
X131765000Y-11864000D03*
X131765000Y-13414000D03*
%TD*%
D12*
%TO.C,LED54*%
X110166000Y-68519000D03*
X108591000Y-68519000D03*
%TD*%
D23*
%TO.C,R1*%
X130063200Y-59134200D03*
X130063200Y-60784200D03*
%TD*%
D13*
%TO.C,TH65*%
X156801000Y-77468400D03*
X158451000Y-77468400D03*
%TD*%
D19*
%TO.C,Q66*%
X162902300Y-73169500D03*
X161002300Y-73169500D03*
X161952300Y-75044500D03*
%TD*%
D15*
%TO.C,D51*%
X96339500Y-79441000D03*
D16*
X98239500Y-79441000D03*
%TD*%
D13*
%TO.C,TH52*%
X100278500Y-77468400D03*
X101928500Y-77468400D03*
%TD*%
%TO.C,TH64*%
X152483000Y-77468400D03*
X154133000Y-77468400D03*
%TD*%
D15*
%TO.C,D66*%
X161324800Y-79441000D03*
D16*
X163224800Y-79441000D03*
%TD*%
D15*
%TO.C,D62*%
X143917500Y-79441000D03*
D16*
X145817500Y-79441000D03*
%TD*%
D18*
%TO.C,D5*%
X118870350Y-30473800D03*
X118870350Y-31123800D03*
X118870350Y-31773800D03*
X120770350Y-31773800D03*
X120770350Y-31123800D03*
X120770350Y-30473800D03*
%TD*%
D19*
%TO.C,Q64*%
X154258000Y-73169500D03*
X152358000Y-73169500D03*
X153308000Y-75044500D03*
%TD*%
M02*
