M48
; DRILL file {KiCad (6.0.9)} date Thu Nov  9 20:34:28 2023
; FORMAT={-:-/ absolute / metric / decimal}
; #@! TF.CreationDate,2023-11-09T20:34:28+05:30
; #@! TF.GenerationSoftware,Kicad,Pcbnew,(6.0.9)
; #@! TF.FileFunction,Plated,1,2,PTH
FMAT,2
METRIC
; #@! TA.AperFunction,Plated,PTH,ViaDrill
T1C0.350
; #@! TA.AperFunction,Plated,PTH,ViaDrill
T2C0.400
; #@! TA.AperFunction,Plated,PTH,ComponentDrill
T3C0.900
; #@! TA.AperFunction,Plated,PTH,ComponentDrill
T4C1.000
; #@! TA.AperFunction,Plated,PTH,ComponentDrill
T5C1.600
; #@! TA.AperFunction,Plated,PTH,ComponentDrill
T6C1.700
%
G90
G05
T1
X99.126Y-37.531
X100.498Y-11.933
X108.577Y-19.001
X110.406Y-18.17
X111.434Y-23.665
X111.464Y-22.7
X111.485Y-21.744
X111.486Y-17.303
X111.572Y-20.792
X111.598Y-16.247
X131.646Y-19.159
X131.654Y-18.103
X131.756Y-16.202
X131.796Y-17.157
X131.839Y-21.609
X131.873Y-22.564
X131.877Y-20.654
X131.892Y-23.629
X137.378Y-30.089
X140.852Y-32.458
X143.271Y-31.968
X144.154Y-30.902
X153.99Y-14.798
X154.879Y-13.983
T2
X96.205Y-72.71
X97.094Y-74.615
X97.856Y-20.259
X100.294Y-72.71
X101.031Y-74.615
X104.333Y-72.583
X105.222Y-74.742
X105.984Y-11.039
X106.374Y-29.022
X107.177Y-31.816
X107.254Y-45.024
X108.524Y-72.71
X109.413Y-31.181
X109.413Y-74.742
X109.845Y-45.176
X110.556Y-33.34
X112.093Y-32.464
X112.334Y-45.024
X112.588Y-72.71
X113.604Y-74.488
X114.874Y-45.024
X116.772Y-29.727
X117.287Y-72.71
X118.176Y-74.488
X119.065Y-45.024
X119.319Y-32.633
X119.827Y-31.054
X121.605Y-45.024
X121.859Y-72.71
X122.063Y-33.537
X122.748Y-74.615
X122.926Y-31.994
X124.145Y-45.024
X126.304Y-72.71
X126.685Y-45.024
X127.32Y-74.488
X127.821Y-30.108
X127.968Y-63.251
X130.622Y-31.181
X130.632Y-33.071
X130.724Y-45.278
X130.978Y-72.659
X131.892Y-50.561
X131.892Y-52.034
X131.892Y-53.355
X131.892Y-54.625
X131.892Y-55.895
X131.892Y-57.064
X131.892Y-74.488
X132.857Y-50.561
X132.857Y-52.034
X132.857Y-53.355
X132.857Y-54.625
X132.857Y-55.895
X132.857Y-57.064
X132.857Y-58.13
X133.289Y-32.959
X133.289Y-45.024
X133.772Y-50.561
X133.772Y-52.034
X133.772Y-53.355
X133.772Y-54.625
X133.772Y-55.895
X133.772Y-57.064
X133.772Y-58.13
X133.797Y-9.953
X133.808Y-8.713
X133.873Y-31.867
X133.975Y-11.344
X135.321Y-72.71
X135.829Y-45.024
X136.21Y-74.615
X136.972Y-63.922
X137.937Y-63.922
X138.369Y-45.024
X138.852Y-31.206
X138.953Y-63.922
X139.385Y-72.71
X140.401Y-74.488
X140.426Y-57.368
X140.426Y-58.435
X140.426Y-59.451
X140.426Y-60.569
X141.392Y-57.368
X141.392Y-58.435
X141.392Y-59.451
X141.392Y-60.569
X142.052Y-45.024
X142.306Y-51.933
X142.306Y-53.203
X142.306Y-54.574
X142.357Y-50.612
X142.357Y-55.743
X142.357Y-57.318
X142.357Y-58.384
X142.357Y-59.4
X142.357Y-60.518
X143.271Y-51.984
X143.271Y-53.254
X143.271Y-54.625
X143.322Y-55.794
X143.322Y-57.318
X143.322Y-58.384
X143.322Y-59.4
X143.322Y-60.518
X143.703Y-72.71
X144.287Y-51.984
X144.287Y-53.254
X144.287Y-54.625
X144.338Y-55.794
X144.592Y-45.024
X144.592Y-74.615
X147.132Y-45.024
X147.887Y-7.808
X147.965Y-14.995
X148.148Y-72.837
X149.164Y-74.615
X149.774Y-45.227
X150.046Y-11.312
X150.078Y-63.82
X150.636Y-57.565
X151.951Y-27.632
X152.466Y-72.837
X153.355Y-74.615
X156.784Y-72.71
X157.673Y-74.615
X161.102Y-72.761
X161.991Y-74.615
T3
X104.206Y-86.692
X105.476Y-84.152
X106.746Y-86.692
X108.016Y-84.152
X109.286Y-86.692
X110.556Y-84.152
X111.826Y-86.692
X113.096Y-84.152
X118.176Y-86.692
X119.446Y-84.152
X120.716Y-86.692
X121.986Y-84.152
X123.256Y-86.692
X124.526Y-84.152
X125.796Y-86.692
X127.066Y-84.152
X132.146Y-86.692
X133.416Y-84.152
X134.686Y-86.692
X135.956Y-84.152
X137.226Y-86.692
X138.496Y-84.152
X139.766Y-86.692
X141.036Y-84.152
X146.116Y-86.692
X147.386Y-84.152
X148.656Y-86.692
X149.926Y-84.152
X151.196Y-86.692
X152.466Y-84.152
X153.736Y-86.692
X155.006Y-84.152
T4
X99.253Y-29.784
X99.253Y-32.324
X99.253Y-34.864
X101.793Y-29.784
X101.793Y-32.324
X101.793Y-34.864
X157.394Y-29.784
X157.394Y-32.324
X157.394Y-34.864
X159.934Y-29.784
X159.934Y-32.324
X159.934Y-34.864
T5
X100.206Y-97.612
X115.636Y-82.882
X129.606Y-82.882
X143.576Y-82.882
X159.006Y-97.612
T6
X99.939Y-58.07
X99.939Y-63.068
X159.368Y-58.136
X159.368Y-63.134
T0
M30
