%TF.GenerationSoftware,KiCad,Pcbnew,(6.0.9)*%
%TF.CreationDate,2023-11-09T20:34:27+05:30*%
%TF.ProjectId,Modular-I2C-4PxRJ45-Relay-Driver,4d6f6475-6c61-4722-9d49-32432d345078,2*%
%TF.SameCoordinates,Original*%
%TF.FileFunction,Legend,Top*%
%TF.FilePolarity,Positive*%
%FSLAX46Y46*%
G04 Gerber Fmt 4.6, Leading zero omitted, Abs format (unit mm)*
G04 Created by KiCad (PCBNEW (6.0.9)) date 2023-11-09 20:34:27*
%MOMM*%
%LPD*%
G01*
G04 APERTURE LIST*
%ADD10C,0.150000*%
%ADD11C,0.200000*%
%ADD12C,0.125000*%
%ADD13C,0.300000*%
%ADD14C,0.120000*%
%ADD15C,0.254000*%
%ADD16C,0.100000*%
%ADD17C,0.350000*%
G04 APERTURE END LIST*
D10*
X106244900Y-64379400D02*
G75*
G03*
X106744900Y-63879400I0J500000D01*
G01*
X150992047Y-64489153D02*
G75*
G03*
X151492047Y-64989153I499953J-47D01*
G01*
X108244900Y-56564400D02*
G75*
G03*
X107744900Y-56064400I-500000J0D01*
G01*
X154492047Y-61989153D02*
X154492047Y-64489153D01*
X153992047Y-59989153D02*
X152992047Y-59989153D01*
X107744900Y-59564400D02*
X105244900Y-59564400D01*
X105244900Y-60879400D02*
G75*
G03*
X104744900Y-61379400I0J-500000D01*
G01*
X105244900Y-56064400D02*
X107744900Y-56064400D01*
X106744900Y-61379400D02*
G75*
G03*
X106244900Y-60879400I-500000J0D01*
G01*
X154492047Y-61989153D02*
G75*
G03*
X153992047Y-61489153I-500047J-47D01*
G01*
X153992047Y-59989247D02*
G75*
G03*
X154492047Y-59489153I-47J500047D01*
G01*
X151492047Y-61489247D02*
G75*
G03*
X150992047Y-61989153I-47J-499953D01*
G01*
X152492047Y-59489153D02*
G75*
G03*
X152992047Y-59989153I499953J-47D01*
G01*
X150992047Y-64489153D02*
X150992047Y-61989153D01*
X106744900Y-61379400D02*
X106744900Y-63879400D01*
X152492047Y-59489153D02*
X152492047Y-56989153D01*
X104744900Y-59064400D02*
X104744900Y-56564400D01*
X105244900Y-60879400D02*
X106244900Y-60879400D01*
X153992047Y-64989247D02*
G75*
G03*
X154492047Y-64489153I-47J500047D01*
G01*
X107744900Y-59564400D02*
G75*
G03*
X108244900Y-59064400I0J500000D01*
G01*
X104744900Y-63879400D02*
G75*
G03*
X105244900Y-64379400I500000J0D01*
G01*
X152992047Y-56489247D02*
G75*
G03*
X152492047Y-56989153I-47J-499953D01*
G01*
X153992047Y-56489153D02*
X152992047Y-56489153D01*
X153992047Y-64989153D02*
X151492047Y-64989153D01*
X151492047Y-61489153D02*
X153992047Y-61489153D01*
X154492047Y-59489153D02*
X154492047Y-56989153D01*
X104744900Y-61379400D02*
X104744900Y-63879400D01*
X105244900Y-64379400D02*
X106244900Y-64379400D01*
X104744900Y-59064400D02*
G75*
G03*
X105244900Y-59564400I500000J0D01*
G01*
X108244900Y-56564400D02*
X108244900Y-59064400D01*
X154492047Y-56989153D02*
G75*
G03*
X153992047Y-56489153I-500047J-47D01*
G01*
X105244900Y-56064400D02*
G75*
G03*
X104744900Y-56564400I0J-500000D01*
G01*
D11*
X102212809Y-81987333D02*
X102593761Y-81987333D01*
X102136619Y-82215904D02*
X102403285Y-81415904D01*
X102669952Y-82215904D01*
X103965190Y-82215904D02*
X103508047Y-82215904D01*
X103736619Y-82215904D02*
X103736619Y-81415904D01*
X103660428Y-81530190D01*
X103584238Y-81606380D01*
X103508047Y-81644476D01*
X104879476Y-81492095D02*
X104917571Y-81454000D01*
X104993761Y-81415904D01*
X105184238Y-81415904D01*
X105260428Y-81454000D01*
X105298523Y-81492095D01*
X105336619Y-81568285D01*
X105336619Y-81644476D01*
X105298523Y-81758761D01*
X104841380Y-82215904D01*
X105336619Y-82215904D01*
X106212809Y-81415904D02*
X106708047Y-81415904D01*
X106441380Y-81720666D01*
X106555666Y-81720666D01*
X106631857Y-81758761D01*
X106669952Y-81796857D01*
X106708047Y-81873047D01*
X106708047Y-82063523D01*
X106669952Y-82139714D01*
X106631857Y-82177809D01*
X106555666Y-82215904D01*
X106327095Y-82215904D01*
X106250904Y-82177809D01*
X106212809Y-82139714D01*
X108003285Y-81682571D02*
X108003285Y-82215904D01*
X107812809Y-81377809D02*
X107622333Y-81949238D01*
X108117571Y-81949238D01*
X109412809Y-81415904D02*
X109031857Y-81415904D01*
X108993761Y-81796857D01*
X109031857Y-81758761D01*
X109108047Y-81720666D01*
X109298523Y-81720666D01*
X109374714Y-81758761D01*
X109412809Y-81796857D01*
X109450904Y-81873047D01*
X109450904Y-82063523D01*
X109412809Y-82139714D01*
X109374714Y-82177809D01*
X109298523Y-82215904D01*
X109108047Y-82215904D01*
X109031857Y-82177809D01*
X108993761Y-82139714D01*
X110746142Y-81415904D02*
X110593761Y-81415904D01*
X110517571Y-81454000D01*
X110479476Y-81492095D01*
X110403285Y-81606380D01*
X110365190Y-81758761D01*
X110365190Y-82063523D01*
X110403285Y-82139714D01*
X110441380Y-82177809D01*
X110517571Y-82215904D01*
X110669952Y-82215904D01*
X110746142Y-82177809D01*
X110784238Y-82139714D01*
X110822333Y-82063523D01*
X110822333Y-81873047D01*
X110784238Y-81796857D01*
X110746142Y-81758761D01*
X110669952Y-81720666D01*
X110517571Y-81720666D01*
X110441380Y-81758761D01*
X110403285Y-81796857D01*
X110365190Y-81873047D01*
X111698523Y-81415904D02*
X112231857Y-81415904D01*
X111889000Y-82215904D01*
X113260428Y-81758761D02*
X113184238Y-81720666D01*
X113146142Y-81682571D01*
X113108047Y-81606380D01*
X113108047Y-81568285D01*
X113146142Y-81492095D01*
X113184238Y-81454000D01*
X113260428Y-81415904D01*
X113412809Y-81415904D01*
X113489000Y-81454000D01*
X113527095Y-81492095D01*
X113565190Y-81568285D01*
X113565190Y-81606380D01*
X113527095Y-81682571D01*
X113489000Y-81720666D01*
X113412809Y-81758761D01*
X113260428Y-81758761D01*
X113184238Y-81796857D01*
X113146142Y-81834952D01*
X113108047Y-81911142D01*
X113108047Y-82063523D01*
X113146142Y-82139714D01*
X113184238Y-82177809D01*
X113260428Y-82215904D01*
X113412809Y-82215904D01*
X113489000Y-82177809D01*
X113527095Y-82139714D01*
X113565190Y-82063523D01*
X113565190Y-81911142D01*
X113527095Y-81834952D01*
X113489000Y-81796857D01*
X113412809Y-81758761D01*
D12*
X98197380Y-13599380D02*
X97864047Y-13123190D01*
X97625952Y-13599380D02*
X97625952Y-12599380D01*
X98006904Y-12599380D01*
X98102142Y-12647000D01*
X98149761Y-12694619D01*
X98197380Y-12789857D01*
X98197380Y-12932714D01*
X98149761Y-13027952D01*
X98102142Y-13075571D01*
X98006904Y-13123190D01*
X97625952Y-13123190D01*
X98578333Y-13551761D02*
X98721190Y-13599380D01*
X98959285Y-13599380D01*
X99054523Y-13551761D01*
X99102142Y-13504142D01*
X99149761Y-13408904D01*
X99149761Y-13313666D01*
X99102142Y-13218428D01*
X99054523Y-13170809D01*
X98959285Y-13123190D01*
X98768809Y-13075571D01*
X98673571Y-13027952D01*
X98625952Y-12980333D01*
X98578333Y-12885095D01*
X98578333Y-12789857D01*
X98625952Y-12694619D01*
X98673571Y-12647000D01*
X98768809Y-12599380D01*
X99006904Y-12599380D01*
X99149761Y-12647000D01*
X99435476Y-12599380D02*
X100006904Y-12599380D01*
X99721190Y-13599380D02*
X99721190Y-12599380D01*
X128151885Y-10789619D02*
X128199504Y-10742000D01*
X128294742Y-10694380D01*
X128532838Y-10694380D01*
X128628076Y-10742000D01*
X128675695Y-10789619D01*
X128723314Y-10884857D01*
X128723314Y-10980095D01*
X128675695Y-11122952D01*
X128104266Y-11694380D01*
X128723314Y-11694380D01*
X98903714Y-8355180D02*
X98332285Y-8355180D01*
X98618000Y-8355180D02*
X98618000Y-7355180D01*
X98522761Y-7498038D01*
X98427523Y-7593276D01*
X98332285Y-7640895D01*
D13*
X160022571Y-83993142D02*
X161165428Y-83993142D01*
D10*
X153992047Y-57477248D02*
X154039666Y-57382010D01*
X154039666Y-57239153D01*
X153992047Y-57096295D01*
X153896808Y-57001057D01*
X153801570Y-56953438D01*
X153611094Y-56905819D01*
X153468237Y-56905819D01*
X153277761Y-56953438D01*
X153182523Y-57001057D01*
X153087285Y-57096295D01*
X153039666Y-57239153D01*
X153039666Y-57334391D01*
X153087285Y-57477248D01*
X153134904Y-57524867D01*
X153468237Y-57524867D01*
X153468237Y-57334391D01*
X153039666Y-57953438D02*
X154039666Y-57953438D01*
X153039666Y-58524867D01*
X154039666Y-58524867D01*
X153039666Y-59001057D02*
X154039666Y-59001057D01*
X154039666Y-59239153D01*
X153992047Y-59382010D01*
X153896808Y-59477248D01*
X153801570Y-59524867D01*
X153611094Y-59572486D01*
X153468237Y-59572486D01*
X153277761Y-59524867D01*
X153182523Y-59477248D01*
X153087285Y-59382010D01*
X153039666Y-59239153D01*
X153039666Y-59001057D01*
X106741180Y-21692438D02*
X106741180Y-22263866D01*
X106741180Y-21978152D02*
X105741180Y-21978152D01*
X105884038Y-22073390D01*
X105979276Y-22168628D01*
X106026895Y-22263866D01*
X105741180Y-21073390D02*
X105741180Y-20978152D01*
X105788800Y-20882914D01*
X105836419Y-20835295D01*
X105931657Y-20787676D01*
X106122133Y-20740057D01*
X106360228Y-20740057D01*
X106550704Y-20787676D01*
X106645942Y-20835295D01*
X106693561Y-20882914D01*
X106741180Y-20978152D01*
X106741180Y-21073390D01*
X106693561Y-21168628D01*
X106645942Y-21216247D01*
X106550704Y-21263866D01*
X106360228Y-21311485D01*
X106122133Y-21311485D01*
X105931657Y-21263866D01*
X105836419Y-21216247D01*
X105788800Y-21168628D01*
X105741180Y-21073390D01*
X106741180Y-20311485D02*
X105741180Y-20311485D01*
X106360228Y-20216247D02*
X106741180Y-19930533D01*
X106074514Y-19930533D02*
X106455466Y-20311485D01*
X152816780Y-10539961D02*
X151816780Y-10539961D01*
X151912019Y-10111390D02*
X151864400Y-10063771D01*
X151816780Y-9968533D01*
X151816780Y-9730438D01*
X151864400Y-9635200D01*
X151912019Y-9587580D01*
X152007257Y-9539961D01*
X152102495Y-9539961D01*
X152245352Y-9587580D01*
X152816780Y-10159009D01*
X152816780Y-9539961D01*
X152721542Y-8539961D02*
X152769161Y-8587580D01*
X152816780Y-8730438D01*
X152816780Y-8825676D01*
X152769161Y-8968533D01*
X152673923Y-9063771D01*
X152578685Y-9111390D01*
X152388209Y-9159009D01*
X152245352Y-9159009D01*
X152054876Y-9111390D01*
X151959638Y-9063771D01*
X151864400Y-8968533D01*
X151816780Y-8825676D01*
X151816780Y-8730438D01*
X151864400Y-8587580D01*
X151912019Y-8539961D01*
X152816780Y-7349485D02*
X151816780Y-7349485D01*
X151816780Y-6968533D01*
X151864400Y-6873295D01*
X151912019Y-6825676D01*
X152007257Y-6778057D01*
X152150114Y-6778057D01*
X152245352Y-6825676D01*
X152292971Y-6873295D01*
X152340590Y-6968533D01*
X152340590Y-7349485D01*
X151769161Y-5635200D02*
X153054876Y-6492342D01*
X151816780Y-5301866D02*
X152626304Y-5301866D01*
X152721542Y-5254247D01*
X152769161Y-5206628D01*
X152816780Y-5111390D01*
X152816780Y-4920914D01*
X152769161Y-4825676D01*
X152721542Y-4778057D01*
X152626304Y-4730438D01*
X151816780Y-4730438D01*
X154094666Y-62143914D02*
X153094666Y-62477248D01*
X154094666Y-62810581D01*
X153094666Y-63143914D02*
X154094666Y-63143914D01*
X153094666Y-63620105D02*
X154094666Y-63620105D01*
X153094666Y-64191533D01*
X154094666Y-64191533D01*
X151484666Y-62667724D02*
X151484666Y-62096295D01*
X151484666Y-62382010D02*
X152484666Y-62382010D01*
X152341808Y-62286772D01*
X152246570Y-62191533D01*
X152198951Y-62096295D01*
X152389427Y-63048676D02*
X152437047Y-63096295D01*
X152484666Y-63191533D01*
X152484666Y-63429629D01*
X152437047Y-63524867D01*
X152389427Y-63572486D01*
X152294189Y-63620105D01*
X152198951Y-63620105D01*
X152056094Y-63572486D01*
X151484666Y-63001057D01*
X151484666Y-63620105D01*
X152151332Y-63953438D02*
X151484666Y-64191533D01*
X152151332Y-64429629D01*
D13*
X160022571Y-86660142D02*
X161165428Y-86660142D01*
X160594000Y-87231571D02*
X160594000Y-86088714D01*
D10*
X105142280Y-58909638D02*
X106142280Y-58576304D01*
X105142280Y-58242971D01*
X106142280Y-57909638D02*
X105142280Y-57909638D01*
X106142280Y-57433447D02*
X105142280Y-57433447D01*
X106142280Y-56862019D01*
X105142280Y-56862019D01*
X107752280Y-58385828D02*
X107752280Y-58957257D01*
X107752280Y-58671542D02*
X106752280Y-58671542D01*
X106895138Y-58766780D01*
X106990376Y-58862019D01*
X107037995Y-58957257D01*
X106847519Y-58004876D02*
X106799900Y-57957257D01*
X106752280Y-57862019D01*
X106752280Y-57623923D01*
X106799900Y-57528685D01*
X106847519Y-57481066D01*
X106942757Y-57433447D01*
X107037995Y-57433447D01*
X107180852Y-57481066D01*
X107752280Y-58052495D01*
X107752280Y-57433447D01*
X107085614Y-57100114D02*
X107752280Y-56862019D01*
X107085614Y-56623923D01*
D12*
X126660730Y-4955180D02*
X126755969Y-4955180D01*
X126851207Y-5002800D01*
X126898826Y-5050419D01*
X126946445Y-5145657D01*
X126994064Y-5336133D01*
X126994064Y-5574228D01*
X126946445Y-5764704D01*
X126898826Y-5859942D01*
X126851207Y-5907561D01*
X126755969Y-5955180D01*
X126660730Y-5955180D01*
X126565492Y-5907561D01*
X126517873Y-5859942D01*
X126470254Y-5764704D01*
X126422635Y-5574228D01*
X126422635Y-5336133D01*
X126470254Y-5145657D01*
X126517873Y-5050419D01*
X126565492Y-5002800D01*
X126660730Y-4955180D01*
X98205285Y-9950419D02*
X98252904Y-9902800D01*
X98348142Y-9855180D01*
X98586238Y-9855180D01*
X98681476Y-9902800D01*
X98729095Y-9950419D01*
X98776714Y-10045657D01*
X98776714Y-10140895D01*
X98729095Y-10283752D01*
X98157666Y-10855180D01*
X98776714Y-10855180D01*
X128570914Y-8087580D02*
X127999485Y-8087580D01*
X128285200Y-8087580D02*
X128285200Y-7087580D01*
X128189961Y-7230438D01*
X128094723Y-7325676D01*
X127999485Y-7373295D01*
D10*
X105244900Y-63391304D02*
X105197280Y-63486542D01*
X105197280Y-63629400D01*
X105244900Y-63772257D01*
X105340138Y-63867495D01*
X105435376Y-63915114D01*
X105625852Y-63962733D01*
X105768709Y-63962733D01*
X105959185Y-63915114D01*
X106054423Y-63867495D01*
X106149661Y-63772257D01*
X106197280Y-63629400D01*
X106197280Y-63534161D01*
X106149661Y-63391304D01*
X106102042Y-63343685D01*
X105768709Y-63343685D01*
X105768709Y-63534161D01*
X106197280Y-62915114D02*
X105197280Y-62915114D01*
X106197280Y-62343685D01*
X105197280Y-62343685D01*
X106197280Y-61867495D02*
X105197280Y-61867495D01*
X105197280Y-61629400D01*
X105244900Y-61486542D01*
X105340138Y-61391304D01*
X105435376Y-61343685D01*
X105625852Y-61296066D01*
X105768709Y-61296066D01*
X105959185Y-61343685D01*
X106054423Y-61391304D01*
X106149661Y-61486542D01*
X106197280Y-61629400D01*
X106197280Y-61867495D01*
D12*
X129058380Y-15250380D02*
X128725047Y-14774190D01*
X128486952Y-15250380D02*
X128486952Y-14250380D01*
X128867904Y-14250380D01*
X128963142Y-14298000D01*
X129010761Y-14345619D01*
X129058380Y-14440857D01*
X129058380Y-14583714D01*
X129010761Y-14678952D01*
X128963142Y-14726571D01*
X128867904Y-14774190D01*
X128486952Y-14774190D01*
X129439333Y-15202761D02*
X129582190Y-15250380D01*
X129820285Y-15250380D01*
X129915523Y-15202761D01*
X129963142Y-15155142D01*
X130010761Y-15059904D01*
X130010761Y-14964666D01*
X129963142Y-14869428D01*
X129915523Y-14821809D01*
X129820285Y-14774190D01*
X129629809Y-14726571D01*
X129534571Y-14678952D01*
X129486952Y-14631333D01*
X129439333Y-14536095D01*
X129439333Y-14440857D01*
X129486952Y-14345619D01*
X129534571Y-14298000D01*
X129629809Y-14250380D01*
X129867904Y-14250380D01*
X130010761Y-14298000D01*
X130296476Y-14250380D02*
X130867904Y-14250380D01*
X130582190Y-15250380D02*
X130582190Y-14250380D01*
D13*
X97919571Y-86787142D02*
X99062428Y-86787142D01*
X98491000Y-87358571D02*
X98491000Y-86215714D01*
X97919571Y-84120142D02*
X99062428Y-84120142D01*
D12*
X98443380Y-4855180D02*
X98538619Y-4855180D01*
X98633857Y-4902800D01*
X98681476Y-4950419D01*
X98729095Y-5045657D01*
X98776714Y-5236133D01*
X98776714Y-5474228D01*
X98729095Y-5664704D01*
X98681476Y-5759942D01*
X98633857Y-5807561D01*
X98538619Y-5855180D01*
X98443380Y-5855180D01*
X98348142Y-5807561D01*
X98300523Y-5759942D01*
X98252904Y-5664704D01*
X98205285Y-5474228D01*
X98205285Y-5236133D01*
X98252904Y-5045657D01*
X98300523Y-4950419D01*
X98348142Y-4902800D01*
X98443380Y-4855180D01*
D10*
%TO.C,D3*%
X145341371Y-64424780D02*
X144769942Y-64424780D01*
X145055657Y-64424780D02*
X145055657Y-63424780D01*
X144960419Y-63567638D01*
X144865180Y-63662876D01*
X144769942Y-63710495D01*
X145722323Y-63520019D02*
X145769942Y-63472400D01*
X145865180Y-63424780D01*
X146103276Y-63424780D01*
X146198514Y-63472400D01*
X146246133Y-63520019D01*
X146293752Y-63615257D01*
X146293752Y-63710495D01*
X146246133Y-63853352D01*
X145674704Y-64424780D01*
X146293752Y-64424780D01*
X146627085Y-63758114D02*
X146865180Y-64424780D01*
X147103276Y-63758114D01*
%TO.C,RN9*%
X109484380Y-25908838D02*
X109484380Y-26480266D01*
X109484380Y-26194552D02*
X108484380Y-26194552D01*
X108627238Y-26289790D01*
X108722476Y-26385028D01*
X108770095Y-26480266D01*
X108484380Y-25289790D02*
X108484380Y-25194552D01*
X108532000Y-25099314D01*
X108579619Y-25051695D01*
X108674857Y-25004076D01*
X108865333Y-24956457D01*
X109103428Y-24956457D01*
X109293904Y-25004076D01*
X109389142Y-25051695D01*
X109436761Y-25099314D01*
X109484380Y-25194552D01*
X109484380Y-25289790D01*
X109436761Y-25385028D01*
X109389142Y-25432647D01*
X109293904Y-25480266D01*
X109103428Y-25527885D01*
X108865333Y-25527885D01*
X108674857Y-25480266D01*
X108579619Y-25432647D01*
X108532000Y-25385028D01*
X108484380Y-25289790D01*
X109484380Y-24527885D02*
X108484380Y-24527885D01*
X109103428Y-24432647D02*
X109484380Y-24146933D01*
X108817714Y-24146933D02*
X109198666Y-24527885D01*
%TO.C,R5*%
X148522180Y-60503638D02*
X148522180Y-61075066D01*
X148522180Y-60789352D02*
X147522180Y-60789352D01*
X147665038Y-60884590D01*
X147760276Y-60979828D01*
X147807895Y-61075066D01*
X147522180Y-59884590D02*
X147522180Y-59789352D01*
X147569800Y-59694114D01*
X147617419Y-59646495D01*
X147712657Y-59598876D01*
X147903133Y-59551257D01*
X148141228Y-59551257D01*
X148331704Y-59598876D01*
X148426942Y-59646495D01*
X148474561Y-59694114D01*
X148522180Y-59789352D01*
X148522180Y-59884590D01*
X148474561Y-59979828D01*
X148426942Y-60027447D01*
X148331704Y-60075066D01*
X148141228Y-60122685D01*
X147903133Y-60122685D01*
X147712657Y-60075066D01*
X147617419Y-60027447D01*
X147569800Y-59979828D01*
X147522180Y-59884590D01*
X148522180Y-59122685D02*
X147522180Y-59122685D01*
X148141228Y-59027447D02*
X148522180Y-58741733D01*
X147855514Y-58741733D02*
X148236466Y-59122685D01*
%TO.C,D2*%
X130631542Y-63424780D02*
X130155352Y-63424780D01*
X130107733Y-63900971D01*
X130155352Y-63853352D01*
X130250590Y-63805733D01*
X130488685Y-63805733D01*
X130583923Y-63853352D01*
X130631542Y-63900971D01*
X130679161Y-63996209D01*
X130679161Y-64234304D01*
X130631542Y-64329542D01*
X130583923Y-64377161D01*
X130488685Y-64424780D01*
X130250590Y-64424780D01*
X130155352Y-64377161D01*
X130107733Y-64329542D01*
X131012495Y-63758114D02*
X131250590Y-64424780D01*
X131488685Y-63758114D01*
%TO.C,C1*%
X120374380Y-5527561D02*
X120374380Y-6098990D01*
X120374380Y-5813276D02*
X119374380Y-5813276D01*
X119517238Y-5908514D01*
X119612476Y-6003752D01*
X119660095Y-6098990D01*
X119374380Y-4908514D02*
X119374380Y-4813276D01*
X119422000Y-4718038D01*
X119469619Y-4670419D01*
X119564857Y-4622800D01*
X119755333Y-4575180D01*
X119993428Y-4575180D01*
X120183904Y-4622800D01*
X120279142Y-4670419D01*
X120326761Y-4718038D01*
X120374380Y-4813276D01*
X120374380Y-4908514D01*
X120326761Y-5003752D01*
X120279142Y-5051371D01*
X120183904Y-5098990D01*
X119993428Y-5146609D01*
X119755333Y-5146609D01*
X119564857Y-5098990D01*
X119469619Y-5051371D01*
X119422000Y-5003752D01*
X119374380Y-4908514D01*
X119374380Y-3956133D02*
X119374380Y-3860895D01*
X119422000Y-3765657D01*
X119469619Y-3718038D01*
X119564857Y-3670419D01*
X119755333Y-3622800D01*
X119993428Y-3622800D01*
X120183904Y-3670419D01*
X120279142Y-3718038D01*
X120326761Y-3765657D01*
X120374380Y-3860895D01*
X120374380Y-3956133D01*
X120326761Y-4051371D01*
X120279142Y-4098990D01*
X120183904Y-4146609D01*
X119993428Y-4194228D01*
X119755333Y-4194228D01*
X119564857Y-4146609D01*
X119469619Y-4098990D01*
X119422000Y-4051371D01*
X119374380Y-3956133D01*
X119707714Y-3194228D02*
X120374380Y-3194228D01*
X119802952Y-3194228D02*
X119755333Y-3146609D01*
X119707714Y-3051371D01*
X119707714Y-2908514D01*
X119755333Y-2813276D01*
X119850571Y-2765657D01*
X120374380Y-2765657D01*
X119707714Y-2432323D02*
X119707714Y-2051371D01*
X120374380Y-2289466D02*
X119517238Y-2289466D01*
X119422000Y-2241847D01*
X119374380Y-2146609D01*
X119374380Y-2051371D01*
%TO.C,RN1*%
X114278761Y-2282380D02*
X113707333Y-2282380D01*
X113993047Y-2282380D02*
X113993047Y-1282380D01*
X113897809Y-1425238D01*
X113802571Y-1520476D01*
X113707333Y-1568095D01*
X114897809Y-1282380D02*
X114993047Y-1282380D01*
X115088285Y-1330000D01*
X115135904Y-1377619D01*
X115183523Y-1472857D01*
X115231142Y-1663333D01*
X115231142Y-1901428D01*
X115183523Y-2091904D01*
X115135904Y-2187142D01*
X115088285Y-2234761D01*
X114993047Y-2282380D01*
X114897809Y-2282380D01*
X114802571Y-2234761D01*
X114754952Y-2187142D01*
X114707333Y-2091904D01*
X114659714Y-1901428D01*
X114659714Y-1663333D01*
X114707333Y-1472857D01*
X114754952Y-1377619D01*
X114802571Y-1330000D01*
X114897809Y-1282380D01*
X115659714Y-2282380D02*
X115659714Y-1282380D01*
X115754952Y-1901428D02*
X116040666Y-2282380D01*
X116040666Y-1615714D02*
X115659714Y-1996666D01*
%TO.C,C9*%
X141132971Y-64475580D02*
X140561542Y-64475580D01*
X140847257Y-64475580D02*
X140847257Y-63475580D01*
X140752019Y-63618438D01*
X140656780Y-63713676D01*
X140561542Y-63761295D01*
X141752019Y-63475580D02*
X141847257Y-63475580D01*
X141942495Y-63523200D01*
X141990114Y-63570819D01*
X142037733Y-63666057D01*
X142085352Y-63856533D01*
X142085352Y-64094628D01*
X142037733Y-64285104D01*
X141990114Y-64380342D01*
X141942495Y-64427961D01*
X141847257Y-64475580D01*
X141752019Y-64475580D01*
X141656780Y-64427961D01*
X141609161Y-64380342D01*
X141561542Y-64285104D01*
X141513923Y-64094628D01*
X141513923Y-63856533D01*
X141561542Y-63666057D01*
X141609161Y-63570819D01*
X141656780Y-63523200D01*
X141752019Y-63475580D01*
X142942495Y-63808914D02*
X142942495Y-64475580D01*
X142513923Y-63808914D02*
X142513923Y-64332723D01*
X142561542Y-64427961D01*
X142656780Y-64475580D01*
X142799638Y-64475580D01*
X142894876Y-64427961D01*
X142942495Y-64380342D01*
X143752019Y-63951771D02*
X143418685Y-63951771D01*
X143418685Y-64475580D02*
X143418685Y-63475580D01*
X143894876Y-63475580D01*
%TO.C,R4*%
X153028111Y-16848680D02*
X152456683Y-16848680D01*
X152742397Y-16848680D02*
X152742397Y-15848680D01*
X152647159Y-15991538D01*
X152551921Y-16086776D01*
X152456683Y-16134395D01*
X153647159Y-15848680D02*
X153742397Y-15848680D01*
X153837635Y-15896300D01*
X153885254Y-15943919D01*
X153932873Y-16039157D01*
X153980492Y-16229633D01*
X153980492Y-16467728D01*
X153932873Y-16658204D01*
X153885254Y-16753442D01*
X153837635Y-16801061D01*
X153742397Y-16848680D01*
X153647159Y-16848680D01*
X153551921Y-16801061D01*
X153504302Y-16753442D01*
X153456683Y-16658204D01*
X153409064Y-16467728D01*
X153409064Y-16229633D01*
X153456683Y-16039157D01*
X153504302Y-15943919D01*
X153551921Y-15896300D01*
X153647159Y-15848680D01*
X154409064Y-16848680D02*
X154409064Y-15848680D01*
X154504302Y-16467728D02*
X154790016Y-16848680D01*
X154790016Y-16182014D02*
X154409064Y-16562966D01*
%TO.C,U2*%
X135368342Y-57290380D02*
X134892152Y-57290380D01*
X134844533Y-57766571D01*
X134892152Y-57718952D01*
X134987390Y-57671333D01*
X135225485Y-57671333D01*
X135320723Y-57718952D01*
X135368342Y-57766571D01*
X135415961Y-57861809D01*
X135415961Y-58099904D01*
X135368342Y-58195142D01*
X135320723Y-58242761D01*
X135225485Y-58290380D01*
X134987390Y-58290380D01*
X134892152Y-58242761D01*
X134844533Y-58195142D01*
X135749295Y-57623714D02*
X135987390Y-58290380D01*
X136225485Y-57623714D01*
%TO.C,C7*%
X132738342Y-60593619D02*
X132785961Y-60546000D01*
X132881200Y-60498380D01*
X133119295Y-60498380D01*
X133214533Y-60546000D01*
X133262152Y-60593619D01*
X133309771Y-60688857D01*
X133309771Y-60784095D01*
X133262152Y-60926952D01*
X132690723Y-61498380D01*
X133309771Y-61498380D01*
X133690723Y-60593619D02*
X133738342Y-60546000D01*
X133833580Y-60498380D01*
X134071676Y-60498380D01*
X134166914Y-60546000D01*
X134214533Y-60593619D01*
X134262152Y-60688857D01*
X134262152Y-60784095D01*
X134214533Y-60926952D01*
X133643104Y-61498380D01*
X134262152Y-61498380D01*
X135119295Y-60831714D02*
X135119295Y-61498380D01*
X134690723Y-60831714D02*
X134690723Y-61355523D01*
X134738342Y-61450761D01*
X134833580Y-61498380D01*
X134976438Y-61498380D01*
X135071676Y-61450761D01*
X135119295Y-61403142D01*
X135928819Y-60974571D02*
X135595485Y-60974571D01*
X135595485Y-61498380D02*
X135595485Y-60498380D01*
X136071676Y-60498380D01*
%TO.C,C8*%
X132725342Y-63387619D02*
X132772961Y-63340000D01*
X132868200Y-63292380D01*
X133106295Y-63292380D01*
X133201533Y-63340000D01*
X133249152Y-63387619D01*
X133296771Y-63482857D01*
X133296771Y-63578095D01*
X133249152Y-63720952D01*
X132677723Y-64292380D01*
X133296771Y-64292380D01*
X133677723Y-63387619D02*
X133725342Y-63340000D01*
X133820580Y-63292380D01*
X134058676Y-63292380D01*
X134153914Y-63340000D01*
X134201533Y-63387619D01*
X134249152Y-63482857D01*
X134249152Y-63578095D01*
X134201533Y-63720952D01*
X133630104Y-64292380D01*
X134249152Y-64292380D01*
X135106295Y-63625714D02*
X135106295Y-64292380D01*
X134677723Y-63625714D02*
X134677723Y-64149523D01*
X134725342Y-64244761D01*
X134820580Y-64292380D01*
X134963438Y-64292380D01*
X135058676Y-64244761D01*
X135106295Y-64197142D01*
X135915819Y-63768571D02*
X135582485Y-63768571D01*
X135582485Y-64292380D02*
X135582485Y-63292380D01*
X136058676Y-63292380D01*
%TO.C,L1*%
X135265485Y-48220714D02*
X135265485Y-48887380D01*
X135027390Y-47839761D02*
X134789295Y-48554047D01*
X135408342Y-48554047D01*
X135789295Y-48792142D02*
X135836914Y-48839761D01*
X135789295Y-48887380D01*
X135741676Y-48839761D01*
X135789295Y-48792142D01*
X135789295Y-48887380D01*
X136170247Y-47887380D02*
X136836914Y-47887380D01*
X136408342Y-48887380D01*
X137646438Y-48220714D02*
X137646438Y-48887380D01*
X137217866Y-48220714D02*
X137217866Y-48744523D01*
X137265485Y-48839761D01*
X137360723Y-48887380D01*
X137503580Y-48887380D01*
X137598819Y-48839761D01*
X137646438Y-48792142D01*
X138122628Y-48887380D02*
X138122628Y-47887380D01*
X138122628Y-48363571D02*
X138694057Y-48363571D01*
X138694057Y-48887380D02*
X138694057Y-47887380D01*
X139836914Y-47887380D02*
X140455961Y-47887380D01*
X140122628Y-48268333D01*
X140265485Y-48268333D01*
X140360723Y-48315952D01*
X140408342Y-48363571D01*
X140455961Y-48458809D01*
X140455961Y-48696904D01*
X140408342Y-48792142D01*
X140360723Y-48839761D01*
X140265485Y-48887380D01*
X139979771Y-48887380D01*
X139884533Y-48839761D01*
X139836914Y-48792142D01*
X140836914Y-48601666D02*
X141313104Y-48601666D01*
X140741676Y-48887380D02*
X141075009Y-47887380D01*
X141408342Y-48887380D01*
%TO.C,C5*%
X118297904Y-51301980D02*
X118916952Y-51301980D01*
X118583619Y-51682933D01*
X118726476Y-51682933D01*
X118821714Y-51730552D01*
X118869333Y-51778171D01*
X118916952Y-51873409D01*
X118916952Y-52111504D01*
X118869333Y-52206742D01*
X118821714Y-52254361D01*
X118726476Y-52301980D01*
X118440761Y-52301980D01*
X118345523Y-52254361D01*
X118297904Y-52206742D01*
X119250285Y-51301980D02*
X119869333Y-51301980D01*
X119536000Y-51682933D01*
X119678857Y-51682933D01*
X119774095Y-51730552D01*
X119821714Y-51778171D01*
X119869333Y-51873409D01*
X119869333Y-52111504D01*
X119821714Y-52206742D01*
X119774095Y-52254361D01*
X119678857Y-52301980D01*
X119393142Y-52301980D01*
X119297904Y-52254361D01*
X119250285Y-52206742D01*
X120488380Y-51301980D02*
X120583619Y-51301980D01*
X120678857Y-51349600D01*
X120726476Y-51397219D01*
X120774095Y-51492457D01*
X120821714Y-51682933D01*
X120821714Y-51921028D01*
X120774095Y-52111504D01*
X120726476Y-52206742D01*
X120678857Y-52254361D01*
X120583619Y-52301980D01*
X120488380Y-52301980D01*
X120393142Y-52254361D01*
X120345523Y-52206742D01*
X120297904Y-52111504D01*
X120250285Y-51921028D01*
X120250285Y-51682933D01*
X120297904Y-51492457D01*
X120345523Y-51397219D01*
X120393142Y-51349600D01*
X120488380Y-51301980D01*
X121678857Y-51635314D02*
X121678857Y-52301980D01*
X121250285Y-51635314D02*
X121250285Y-52159123D01*
X121297904Y-52254361D01*
X121393142Y-52301980D01*
X121536000Y-52301980D01*
X121631238Y-52254361D01*
X121678857Y-52206742D01*
X122012190Y-51635314D02*
X122393142Y-51635314D01*
X122155047Y-52301980D02*
X122155047Y-51444838D01*
X122202666Y-51349600D01*
X122297904Y-51301980D01*
X122393142Y-51301980D01*
X123964571Y-51301980D02*
X123488380Y-51301980D01*
X123440761Y-51778171D01*
X123488380Y-51730552D01*
X123583619Y-51682933D01*
X123821714Y-51682933D01*
X123916952Y-51730552D01*
X123964571Y-51778171D01*
X124012190Y-51873409D01*
X124012190Y-52111504D01*
X123964571Y-52206742D01*
X123916952Y-52254361D01*
X123821714Y-52301980D01*
X123583619Y-52301980D01*
X123488380Y-52254361D01*
X123440761Y-52206742D01*
X124631238Y-51301980D02*
X124726476Y-51301980D01*
X124821714Y-51349600D01*
X124869333Y-51397219D01*
X124916952Y-51492457D01*
X124964571Y-51682933D01*
X124964571Y-51921028D01*
X124916952Y-52111504D01*
X124869333Y-52206742D01*
X124821714Y-52254361D01*
X124726476Y-52301980D01*
X124631238Y-52301980D01*
X124536000Y-52254361D01*
X124488380Y-52206742D01*
X124440761Y-52111504D01*
X124393142Y-51921028D01*
X124393142Y-51682933D01*
X124440761Y-51492457D01*
X124488380Y-51397219D01*
X124536000Y-51349600D01*
X124631238Y-51301980D01*
X125297904Y-51635314D02*
X125536000Y-52301980D01*
X125774095Y-51635314D01*
%TO.C,R3*%
X153028111Y-18753680D02*
X152456683Y-18753680D01*
X152742397Y-18753680D02*
X152742397Y-17753680D01*
X152647159Y-17896538D01*
X152551921Y-17991776D01*
X152456683Y-18039395D01*
X153647159Y-17753680D02*
X153742397Y-17753680D01*
X153837635Y-17801300D01*
X153885254Y-17848919D01*
X153932873Y-17944157D01*
X153980492Y-18134633D01*
X153980492Y-18372728D01*
X153932873Y-18563204D01*
X153885254Y-18658442D01*
X153837635Y-18706061D01*
X153742397Y-18753680D01*
X153647159Y-18753680D01*
X153551921Y-18706061D01*
X153504302Y-18658442D01*
X153456683Y-18563204D01*
X153409064Y-18372728D01*
X153409064Y-18134633D01*
X153456683Y-17944157D01*
X153504302Y-17848919D01*
X153551921Y-17801300D01*
X153647159Y-17753680D01*
X154409064Y-18753680D02*
X154409064Y-17753680D01*
X154504302Y-18372728D02*
X154790016Y-18753680D01*
X154790016Y-18087014D02*
X154409064Y-18467966D01*
%TO.C,U1*%
X116554761Y-26353380D02*
X116554761Y-25353380D01*
X116888095Y-26067666D01*
X117221428Y-25353380D01*
X117221428Y-26353380D01*
X118269047Y-26258142D02*
X118221428Y-26305761D01*
X118078571Y-26353380D01*
X117983333Y-26353380D01*
X117840476Y-26305761D01*
X117745238Y-26210523D01*
X117697619Y-26115285D01*
X117650000Y-25924809D01*
X117650000Y-25781952D01*
X117697619Y-25591476D01*
X117745238Y-25496238D01*
X117840476Y-25401000D01*
X117983333Y-25353380D01*
X118078571Y-25353380D01*
X118221428Y-25401000D01*
X118269047Y-25448619D01*
X118697619Y-26353380D02*
X118697619Y-25353380D01*
X119078571Y-25353380D01*
X119173809Y-25401000D01*
X119221428Y-25448619D01*
X119269047Y-25543857D01*
X119269047Y-25686714D01*
X119221428Y-25781952D01*
X119173809Y-25829571D01*
X119078571Y-25877190D01*
X118697619Y-25877190D01*
X119650000Y-25448619D02*
X119697619Y-25401000D01*
X119792857Y-25353380D01*
X120030952Y-25353380D01*
X120126190Y-25401000D01*
X120173809Y-25448619D01*
X120221428Y-25543857D01*
X120221428Y-25639095D01*
X120173809Y-25781952D01*
X119602380Y-26353380D01*
X120221428Y-26353380D01*
X120554761Y-25353380D02*
X121173809Y-25353380D01*
X120840476Y-25734333D01*
X120983333Y-25734333D01*
X121078571Y-25781952D01*
X121126190Y-25829571D01*
X121173809Y-25924809D01*
X121173809Y-26162904D01*
X121126190Y-26258142D01*
X121078571Y-26305761D01*
X120983333Y-26353380D01*
X120697619Y-26353380D01*
X120602380Y-26305761D01*
X120554761Y-26258142D01*
X121792857Y-25353380D02*
X121888095Y-25353380D01*
X121983333Y-25401000D01*
X122030952Y-25448619D01*
X122078571Y-25543857D01*
X122126190Y-25734333D01*
X122126190Y-25972428D01*
X122078571Y-26162904D01*
X122030952Y-26258142D01*
X121983333Y-26305761D01*
X121888095Y-26353380D01*
X121792857Y-26353380D01*
X121697619Y-26305761D01*
X121650000Y-26258142D01*
X121602380Y-26162904D01*
X121554761Y-25972428D01*
X121554761Y-25734333D01*
X121602380Y-25543857D01*
X121650000Y-25448619D01*
X121697619Y-25401000D01*
X121792857Y-25353380D01*
X123078571Y-26353380D02*
X122507142Y-26353380D01*
X122792857Y-26353380D02*
X122792857Y-25353380D01*
X122697619Y-25496238D01*
X122602380Y-25591476D01*
X122507142Y-25639095D01*
X123411904Y-25353380D02*
X124078571Y-25353380D01*
X123650000Y-26353380D01*
X124221428Y-26448619D02*
X124983333Y-26448619D01*
X125173809Y-26305761D02*
X125316666Y-26353380D01*
X125554761Y-26353380D01*
X125650000Y-26305761D01*
X125697619Y-26258142D01*
X125745238Y-26162904D01*
X125745238Y-26067666D01*
X125697619Y-25972428D01*
X125650000Y-25924809D01*
X125554761Y-25877190D01*
X125364285Y-25829571D01*
X125269047Y-25781952D01*
X125221428Y-25734333D01*
X125173809Y-25639095D01*
X125173809Y-25543857D01*
X125221428Y-25448619D01*
X125269047Y-25401000D01*
X125364285Y-25353380D01*
X125602380Y-25353380D01*
X125745238Y-25401000D01*
X126364285Y-25353380D02*
X126554761Y-25353380D01*
X126650000Y-25401000D01*
X126745238Y-25496238D01*
X126792857Y-25686714D01*
X126792857Y-26020047D01*
X126745238Y-26210523D01*
X126650000Y-26305761D01*
X126554761Y-26353380D01*
X126364285Y-26353380D01*
X126269047Y-26305761D01*
X126173809Y-26210523D01*
X126126190Y-26020047D01*
X126126190Y-25686714D01*
X126173809Y-25496238D01*
X126269047Y-25401000D01*
X126364285Y-25353380D01*
%TO.C,RN3*%
X134528780Y-26059238D02*
X134528780Y-26630666D01*
X134528780Y-26344952D02*
X133528780Y-26344952D01*
X133671638Y-26440190D01*
X133766876Y-26535428D01*
X133814495Y-26630666D01*
X133528780Y-25440190D02*
X133528780Y-25344952D01*
X133576400Y-25249714D01*
X133624019Y-25202095D01*
X133719257Y-25154476D01*
X133909733Y-25106857D01*
X134147828Y-25106857D01*
X134338304Y-25154476D01*
X134433542Y-25202095D01*
X134481161Y-25249714D01*
X134528780Y-25344952D01*
X134528780Y-25440190D01*
X134481161Y-25535428D01*
X134433542Y-25583047D01*
X134338304Y-25630666D01*
X134147828Y-25678285D01*
X133909733Y-25678285D01*
X133719257Y-25630666D01*
X133624019Y-25583047D01*
X133576400Y-25535428D01*
X133528780Y-25440190D01*
X134528780Y-24678285D02*
X133528780Y-24678285D01*
X134147828Y-24583047D02*
X134528780Y-24297333D01*
X133862114Y-24297333D02*
X134243066Y-24678285D01*
%TO.C,RN11*%
X129931380Y-25083035D02*
X129931380Y-25654464D01*
X129931380Y-25368749D02*
X128931380Y-25368749D01*
X129074238Y-25463988D01*
X129169476Y-25559226D01*
X129217095Y-25654464D01*
X129931380Y-24654464D02*
X128931380Y-24654464D01*
X129550428Y-24559226D02*
X129931380Y-24273511D01*
X129264714Y-24273511D02*
X129645666Y-24654464D01*
%TO.C,RN12*%
X114107180Y-24981447D02*
X114107180Y-25552876D01*
X114107180Y-25267161D02*
X113107180Y-25267161D01*
X113250038Y-25362400D01*
X113345276Y-25457638D01*
X113392895Y-25552876D01*
X114107180Y-24552876D02*
X113107180Y-24552876D01*
X113726228Y-24457638D02*
X114107180Y-24171923D01*
X113440514Y-24171923D02*
X113821466Y-24552876D01*
%TO.C,C6*%
X136770580Y-57261980D02*
X136199152Y-57261980D01*
X136484866Y-57261980D02*
X136484866Y-56261980D01*
X136389628Y-56404838D01*
X136294390Y-56500076D01*
X136199152Y-56547695D01*
X137389628Y-56261980D02*
X137484866Y-56261980D01*
X137580104Y-56309600D01*
X137627723Y-56357219D01*
X137675342Y-56452457D01*
X137722961Y-56642933D01*
X137722961Y-56881028D01*
X137675342Y-57071504D01*
X137627723Y-57166742D01*
X137580104Y-57214361D01*
X137484866Y-57261980D01*
X137389628Y-57261980D01*
X137294390Y-57214361D01*
X137246771Y-57166742D01*
X137199152Y-57071504D01*
X137151533Y-56881028D01*
X137151533Y-56642933D01*
X137199152Y-56452457D01*
X137246771Y-56357219D01*
X137294390Y-56309600D01*
X137389628Y-56261980D01*
X138342009Y-56261980D02*
X138437247Y-56261980D01*
X138532485Y-56309600D01*
X138580104Y-56357219D01*
X138627723Y-56452457D01*
X138675342Y-56642933D01*
X138675342Y-56881028D01*
X138627723Y-57071504D01*
X138580104Y-57166742D01*
X138532485Y-57214361D01*
X138437247Y-57261980D01*
X138342009Y-57261980D01*
X138246771Y-57214361D01*
X138199152Y-57166742D01*
X138151533Y-57071504D01*
X138103914Y-56881028D01*
X138103914Y-56642933D01*
X138151533Y-56452457D01*
X138199152Y-56357219D01*
X138246771Y-56309600D01*
X138342009Y-56261980D01*
X139103914Y-56595314D02*
X139103914Y-57261980D01*
X139103914Y-56690552D02*
X139151533Y-56642933D01*
X139246771Y-56595314D01*
X139389628Y-56595314D01*
X139484866Y-56642933D01*
X139532485Y-56738171D01*
X139532485Y-57261980D01*
X140342009Y-56738171D02*
X140008676Y-56738171D01*
X140008676Y-57261980D02*
X140008676Y-56261980D01*
X140484866Y-56261980D01*
%TO.C,C3*%
X132217380Y-10043761D02*
X132217380Y-10615190D01*
X132217380Y-10329476D02*
X131217380Y-10329476D01*
X131360238Y-10424714D01*
X131455476Y-10519952D01*
X131503095Y-10615190D01*
X131217380Y-9424714D02*
X131217380Y-9329476D01*
X131265000Y-9234238D01*
X131312619Y-9186619D01*
X131407857Y-9139000D01*
X131598333Y-9091380D01*
X131836428Y-9091380D01*
X132026904Y-9139000D01*
X132122142Y-9186619D01*
X132169761Y-9234238D01*
X132217380Y-9329476D01*
X132217380Y-9424714D01*
X132169761Y-9519952D01*
X132122142Y-9567571D01*
X132026904Y-9615190D01*
X131836428Y-9662809D01*
X131598333Y-9662809D01*
X131407857Y-9615190D01*
X131312619Y-9567571D01*
X131265000Y-9519952D01*
X131217380Y-9424714D01*
X131217380Y-8472333D02*
X131217380Y-8377095D01*
X131265000Y-8281857D01*
X131312619Y-8234238D01*
X131407857Y-8186619D01*
X131598333Y-8139000D01*
X131836428Y-8139000D01*
X132026904Y-8186619D01*
X132122142Y-8234238D01*
X132169761Y-8281857D01*
X132217380Y-8377095D01*
X132217380Y-8472333D01*
X132169761Y-8567571D01*
X132122142Y-8615190D01*
X132026904Y-8662809D01*
X131836428Y-8710428D01*
X131598333Y-8710428D01*
X131407857Y-8662809D01*
X131312619Y-8615190D01*
X131265000Y-8567571D01*
X131217380Y-8472333D01*
X131550714Y-7710428D02*
X132217380Y-7710428D01*
X131645952Y-7710428D02*
X131598333Y-7662809D01*
X131550714Y-7567571D01*
X131550714Y-7424714D01*
X131598333Y-7329476D01*
X131693571Y-7281857D01*
X132217380Y-7281857D01*
X131550714Y-6948523D02*
X131550714Y-6567571D01*
X132217380Y-6805666D02*
X131360238Y-6805666D01*
X131265000Y-6758047D01*
X131217380Y-6662809D01*
X131217380Y-6567571D01*
%TO.C,R1*%
X128418914Y-60887771D02*
X129085580Y-60887771D01*
X128037961Y-61125866D02*
X128752247Y-61363961D01*
X128752247Y-60744914D01*
X128990342Y-60363961D02*
X129037961Y-60316342D01*
X129085580Y-60363961D01*
X129037961Y-60411580D01*
X128990342Y-60363961D01*
X129085580Y-60363961D01*
X128085580Y-59983009D02*
X128085580Y-59316342D01*
X129085580Y-59744914D01*
X129085580Y-58935390D02*
X128085580Y-58935390D01*
X128704628Y-58840152D02*
X129085580Y-58554438D01*
X128418914Y-58554438D02*
X128799866Y-58935390D01*
D14*
%TO.C,J1*%
X163223600Y-24574000D02*
X163223600Y-40074000D01*
X161913600Y-25874000D02*
X161913600Y-30274000D01*
X154103600Y-24574000D02*
X163223600Y-24574000D01*
X161913600Y-38774000D02*
X155413600Y-38774000D01*
X161913600Y-30274000D02*
X161913600Y-30274000D01*
X163223600Y-40074000D02*
X154103600Y-40074000D01*
X155413600Y-25874000D02*
X161913600Y-25874000D01*
X161913600Y-34374000D02*
X161913600Y-38774000D01*
X154103600Y-40074000D02*
X154103600Y-24574000D01*
X155413600Y-38774000D02*
X155413600Y-25874000D01*
X161913600Y-30274000D02*
X163223600Y-30274000D01*
X163223600Y-34374000D02*
X161913600Y-34374000D01*
%TO.C,LED56*%
X117249000Y-69254000D02*
X119534000Y-69254000D01*
X119534000Y-69254000D02*
X119534000Y-67784000D01*
X119534000Y-67784000D02*
X117249000Y-67784000D01*
%TO.C,TH59*%
X131480742Y-77990900D02*
X131955258Y-77990900D01*
X131480742Y-76945900D02*
X131955258Y-76945900D01*
%TO.C,D57*%
X120722150Y-78631000D02*
X123962150Y-78631000D01*
X120722150Y-78631000D02*
X120722150Y-80251000D01*
X120722150Y-80251000D02*
X123962150Y-80251000D01*
%TO.C,D61*%
X138347000Y-78631000D02*
X141587000Y-78631000D01*
X138347000Y-78631000D02*
X138347000Y-80251000D01*
X138347000Y-80251000D02*
X141587000Y-80251000D01*
%TO.C,U5*%
X140404000Y-38200000D02*
X140199000Y-38200000D01*
X129984000Y-40960000D02*
X129984000Y-38200000D01*
X129984000Y-43720000D02*
X130189000Y-43720000D01*
X140404000Y-40960000D02*
X140404000Y-38200000D01*
X129984000Y-38200000D02*
X130189000Y-38200000D01*
X140404000Y-43720000D02*
X140199000Y-43720000D01*
X140199000Y-38200000D02*
X140199000Y-36510000D01*
X129984000Y-40960000D02*
X129984000Y-43720000D01*
X140404000Y-40960000D02*
X140404000Y-43720000D01*
%TO.C,LED66*%
X161179800Y-69254000D02*
X163464800Y-69254000D01*
X163464800Y-69254000D02*
X163464800Y-67784000D01*
X163464800Y-67784000D02*
X161179800Y-67784000D01*
%TO.C,D8*%
X110113000Y-29963800D02*
X108213000Y-29963800D01*
X108713000Y-32283800D02*
X110113000Y-32283800D01*
%TO.C,U4*%
X118300000Y-43720000D02*
X118505000Y-43720000D01*
X128515000Y-38200000D02*
X128515000Y-36510000D01*
X128720000Y-40960000D02*
X128720000Y-43720000D01*
X128720000Y-43720000D02*
X128515000Y-43720000D01*
X118300000Y-38200000D02*
X118505000Y-38200000D01*
X118300000Y-40960000D02*
X118300000Y-38200000D01*
X128720000Y-38200000D02*
X128515000Y-38200000D01*
X128720000Y-40960000D02*
X128720000Y-38200000D01*
X118300000Y-40960000D02*
X118300000Y-43720000D01*
%TO.C,D63*%
X147079300Y-80251000D02*
X150319300Y-80251000D01*
X147079300Y-78631000D02*
X150319300Y-78631000D01*
X147079300Y-78631000D02*
X147079300Y-80251000D01*
%TO.C,LED60*%
X135294300Y-69254000D02*
X137579300Y-69254000D01*
X137579300Y-69254000D02*
X137579300Y-67784000D01*
X137579300Y-67784000D02*
X135294300Y-67784000D01*
%TO.C,D3*%
X144960400Y-63132600D02*
X147245400Y-63132600D01*
X147245400Y-63132600D02*
X147245400Y-61662600D01*
X147245400Y-61662600D02*
X144960400Y-61662600D01*
%TO.C,R58*%
X126901242Y-70199200D02*
X127375758Y-70199200D01*
X126901242Y-71244200D02*
X127375758Y-71244200D01*
%TO.C,Q54*%
X110918500Y-74107000D02*
X110918500Y-74757000D01*
X107798500Y-74107000D02*
X107798500Y-73457000D01*
X107798500Y-74107000D02*
X107798500Y-74757000D01*
X110918500Y-74107000D02*
X110918500Y-72432000D01*
%TO.C,D7*%
X141736000Y-29640000D02*
X139836000Y-29640000D01*
X140336000Y-31960000D02*
X141736000Y-31960000D01*
%TO.C,TH54*%
X109121242Y-77990900D02*
X109595758Y-77990900D01*
X109121242Y-76945900D02*
X109595758Y-76945900D01*
%TO.C,LED55*%
X115054500Y-67784000D02*
X112769500Y-67784000D01*
X115054500Y-69254000D02*
X115054500Y-67784000D01*
X112769500Y-69254000D02*
X115054500Y-69254000D01*
%TO.C,TH61*%
X139997242Y-76945900D02*
X140471758Y-76945900D01*
X139997242Y-77990900D02*
X140471758Y-77990900D01*
%TO.C,LED58*%
X128643500Y-67784000D02*
X126358500Y-67784000D01*
X128643500Y-69254000D02*
X128643500Y-67784000D01*
X126358500Y-69254000D02*
X128643500Y-69254000D01*
%TO.C,R61*%
X140004742Y-70199200D02*
X140479258Y-70199200D01*
X140004742Y-71244200D02*
X140479258Y-71244200D01*
%TO.C,Q53*%
X103607500Y-74092762D02*
X103607500Y-73442762D01*
X106727500Y-74092762D02*
X106727500Y-72417762D01*
X106727500Y-74092762D02*
X106727500Y-74742762D01*
X103607500Y-74092762D02*
X103607500Y-74742762D01*
%TO.C,Q63*%
X150526800Y-74107000D02*
X150526800Y-74757000D01*
X150526800Y-74107000D02*
X150526800Y-72432000D01*
X147406800Y-74107000D02*
X147406800Y-74757000D01*
X147406800Y-74107000D02*
X147406800Y-73457000D01*
%TO.C,LED63*%
X150479300Y-67784000D02*
X148194300Y-67784000D01*
X148194300Y-69254000D02*
X150479300Y-69254000D01*
X150479300Y-69254000D02*
X150479300Y-67784000D01*
%TO.C,LED65*%
X156853500Y-69254000D02*
X159138500Y-69254000D01*
X159138500Y-67784000D02*
X156853500Y-67784000D01*
X159138500Y-69254000D02*
X159138500Y-67784000D01*
D15*
%TO.C,J4*%
X156573900Y-65333800D02*
X162161900Y-65333800D01*
X162206900Y-61396800D02*
X162206900Y-59699800D01*
X162161900Y-65333800D02*
X162161900Y-64825800D01*
X163267900Y-66664800D02*
X155176900Y-66664800D01*
X162161900Y-64825800D02*
X162161900Y-64698800D01*
X162206900Y-56397800D02*
X162206900Y-55808800D01*
X163267900Y-54538800D02*
X163267900Y-66664800D01*
X155176900Y-66664800D02*
X155176900Y-54538800D01*
X155176900Y-54538800D02*
X163267900Y-54538800D01*
X156573900Y-55808800D02*
X156573900Y-65333800D01*
X162206900Y-55808800D02*
X156573900Y-55808800D01*
X162206814Y-59699873D02*
G75*
G03*
X162206900Y-56397800I-1406914J1651073D01*
G01*
X162206814Y-64698873D02*
G75*
G03*
X162206900Y-61396800I-1406913J1651073D01*
G01*
D14*
%TO.C,J2*%
X105083000Y-24574000D02*
X105083000Y-40074000D01*
X103773000Y-30274000D02*
X103773000Y-30274000D01*
X97273000Y-25874000D02*
X103773000Y-25874000D01*
X95963000Y-40074000D02*
X95963000Y-24574000D01*
X95963000Y-24574000D02*
X105083000Y-24574000D01*
X103773000Y-38774000D02*
X97273000Y-38774000D01*
X103773000Y-30274000D02*
X105083000Y-30274000D01*
X97273000Y-38774000D02*
X97273000Y-25874000D01*
X105083000Y-34374000D02*
X103773000Y-34374000D01*
X105083000Y-40074000D02*
X95963000Y-40074000D01*
X103773000Y-34374000D02*
X103773000Y-38774000D01*
X103773000Y-25874000D02*
X103773000Y-30274000D01*
%TO.C,RN9*%
X109582800Y-20331600D02*
X108582800Y-20331600D01*
X109582800Y-23691600D02*
X108582800Y-23691600D01*
%TO.C,R5*%
X145898300Y-59671142D02*
X145898300Y-60145658D01*
X146943300Y-59671142D02*
X146943300Y-60145658D01*
%TO.C,D2*%
X131574400Y-61713400D02*
X129289400Y-61713400D01*
X129289400Y-61713400D02*
X129289400Y-63183400D01*
X129289400Y-63183400D02*
X131574400Y-63183400D01*
%TO.C,C1*%
X117412000Y-4213380D02*
X117412000Y-3932220D01*
X118432000Y-4213380D02*
X118432000Y-3932220D01*
%TO.C,RN1*%
X116554000Y-4630000D02*
X116554000Y-3630000D01*
X113194000Y-4630000D02*
X113194000Y-3630000D01*
%TO.C,D64*%
X151420500Y-78631000D02*
X151420500Y-80251000D01*
X151420500Y-80251000D02*
X154660500Y-80251000D01*
X151420500Y-78631000D02*
X154660500Y-78631000D01*
%TO.C,C9*%
X142294180Y-62907600D02*
X142013020Y-62907600D01*
X142294180Y-61887600D02*
X142013020Y-61887600D01*
%TO.C,R4*%
X156760608Y-15873800D02*
X156286092Y-15873800D01*
X156760608Y-16918800D02*
X156286092Y-16918800D01*
%TO.C,R60*%
X135837042Y-70199200D02*
X136311558Y-70199200D01*
X135837042Y-71244200D02*
X136311558Y-71244200D01*
%TO.C,LED57*%
X121821000Y-69254000D02*
X124106000Y-69254000D01*
X124106000Y-67784000D02*
X121821000Y-67784000D01*
X124106000Y-69254000D02*
X124106000Y-67784000D01*
%TO.C,RN7*%
X106890400Y-19475200D02*
X105890400Y-19475200D01*
X106890400Y-16115200D02*
X105890400Y-16115200D01*
%TO.C,U2*%
X139751200Y-61267000D02*
X139751200Y-62067000D01*
X139751200Y-61267000D02*
X139751200Y-60467000D01*
X136631200Y-61267000D02*
X136631200Y-60467000D01*
X136631200Y-61267000D02*
X136631200Y-63067000D01*
%TO.C,D53*%
X103280000Y-80251000D02*
X106520000Y-80251000D01*
X103280000Y-78631000D02*
X103280000Y-80251000D01*
X103280000Y-78631000D02*
X106520000Y-78631000D01*
%TO.C,TH60*%
X135829542Y-77990900D02*
X136304058Y-77990900D01*
X135829542Y-76945900D02*
X136304058Y-76945900D01*
%TO.C,C7*%
X134240620Y-59106000D02*
X134521780Y-59106000D01*
X134240620Y-60126000D02*
X134521780Y-60126000D01*
%TO.C,C8*%
X134227620Y-62920000D02*
X134508780Y-62920000D01*
X134227620Y-61900000D02*
X134508780Y-61900000D01*
%TO.C,R53*%
X104930242Y-71244200D02*
X105404758Y-71244200D01*
X104930242Y-70199200D02*
X105404758Y-70199200D01*
%TO.C,D6*%
X129981350Y-32268800D02*
X131381350Y-32268800D01*
X131381350Y-29948800D02*
X129481350Y-29948800D01*
%TO.C,TH56*%
X117798242Y-76945900D02*
X118272758Y-76945900D01*
X117798242Y-77990900D02*
X118272758Y-77990900D01*
%TO.C,LED53*%
X106707000Y-69254000D02*
X106707000Y-67784000D01*
X104422000Y-69254000D02*
X106707000Y-69254000D01*
X106707000Y-67784000D02*
X104422000Y-67784000D01*
%TO.C,RN16*%
X114154800Y-16022800D02*
X113154800Y-16022800D01*
X114154800Y-19382800D02*
X113154800Y-19382800D01*
%TO.C,U3*%
X106489000Y-40960000D02*
X106489000Y-43720000D01*
X116909000Y-40960000D02*
X116909000Y-38200000D01*
X106489000Y-40960000D02*
X106489000Y-38200000D01*
X116909000Y-43720000D02*
X116704000Y-43720000D01*
X116909000Y-38200000D02*
X116704000Y-38200000D01*
X106489000Y-43720000D02*
X106694000Y-43720000D01*
X116909000Y-40960000D02*
X116909000Y-43720000D01*
X106489000Y-38200000D02*
X106694000Y-38200000D01*
X116704000Y-38200000D02*
X116704000Y-36510000D01*
%TO.C,Q58*%
X128698500Y-74107000D02*
X128698500Y-72432000D01*
X128698500Y-74107000D02*
X128698500Y-74757000D01*
X125578500Y-74107000D02*
X125578500Y-74757000D01*
X125578500Y-74107000D02*
X125578500Y-73457000D01*
%TO.C,R51*%
X96729742Y-71244200D02*
X97204258Y-71244200D01*
X96729742Y-70199200D02*
X97204258Y-70199200D01*
%TO.C,TH53*%
X104930242Y-77990900D02*
X105404758Y-77990900D01*
X104930242Y-76945900D02*
X105404758Y-76945900D01*
%TO.C,LED61*%
X141747000Y-69254000D02*
X141747000Y-67784000D01*
X141747000Y-67784000D02*
X139462000Y-67784000D01*
X139462000Y-69254000D02*
X141747000Y-69254000D01*
%TO.C,LED64*%
X154820500Y-69254000D02*
X154820500Y-67784000D01*
X152535500Y-69254000D02*
X154820500Y-69254000D01*
X154820500Y-67784000D02*
X152535500Y-67784000D01*
%TO.C,L1*%
X134751200Y-51385000D02*
X134751200Y-49685000D01*
X141351200Y-49685000D02*
X141351200Y-51385000D01*
X134751200Y-49685000D02*
X141351200Y-49685000D01*
X141351200Y-54385000D02*
X141351200Y-56085000D01*
X141351200Y-56085000D02*
X134751200Y-56085000D01*
X134751200Y-56085000D02*
X134751200Y-54385000D01*
%TO.C,R54*%
X109121242Y-71244200D02*
X109595758Y-71244200D01*
X109121242Y-70199200D02*
X109595758Y-70199200D01*
%TO.C,TH57*%
X122372392Y-76945900D02*
X122846908Y-76945900D01*
X122372392Y-77990900D02*
X122846908Y-77990900D01*
%TO.C,D55*%
X111662000Y-78631000D02*
X111662000Y-80251000D01*
X111662000Y-78631000D02*
X114902000Y-78631000D01*
X111662000Y-80251000D02*
X114902000Y-80251000D01*
%TO.C,LED52*%
X100323500Y-69254000D02*
X102608500Y-69254000D01*
X102608500Y-67784000D02*
X100323500Y-67784000D01*
X102608500Y-69254000D02*
X102608500Y-67784000D01*
%TO.C,R65*%
X157396242Y-71244200D02*
X157870758Y-71244200D01*
X157396242Y-70199200D02*
X157870758Y-70199200D01*
%TO.C,TH66*%
X161715042Y-77990900D02*
X162189558Y-77990900D01*
X161715042Y-76945900D02*
X162189558Y-76945900D01*
%TO.C,C5*%
X126181563Y-64609600D02*
X127246000Y-63545163D01*
X117790437Y-64609600D02*
X120476000Y-64609600D01*
X126181563Y-64609600D02*
X123496000Y-64609600D01*
X116726000Y-63545163D02*
X116726000Y-54089600D01*
X118601000Y-65474600D02*
X119851000Y-65474600D01*
X117790437Y-64609600D02*
X116726000Y-63545163D01*
X116726000Y-54089600D02*
X120476000Y-54089600D01*
X127246000Y-54089600D02*
X123496000Y-54089600D01*
X127246000Y-63545163D02*
X127246000Y-54089600D01*
X119226000Y-66099600D02*
X119226000Y-64849600D01*
%TO.C,RN15*%
X128979000Y-19272000D02*
X129979000Y-19272000D01*
X128979000Y-15912000D02*
X129979000Y-15912000D01*
%TO.C,TH55*%
X113312242Y-77990900D02*
X113786758Y-77990900D01*
X113312242Y-76945900D02*
X113786758Y-76945900D01*
%TO.C,TH58*%
X126901242Y-76945900D02*
X127375758Y-76945900D01*
X126901242Y-77990900D02*
X127375758Y-77990900D01*
%TO.C,R56*%
X117798242Y-71244200D02*
X118272758Y-71244200D01*
X117798242Y-70199200D02*
X118272758Y-70199200D01*
%TO.C,R3*%
X156760608Y-18823800D02*
X156286092Y-18823800D01*
X156760608Y-17778800D02*
X156286092Y-17778800D01*
%TO.C,LED59*%
X130965000Y-69254000D02*
X133250000Y-69254000D01*
X133250000Y-67784000D02*
X130965000Y-67784000D01*
X133250000Y-69254000D02*
X133250000Y-67784000D01*
%TO.C,Q65*%
X159186000Y-74107000D02*
X159186000Y-74757000D01*
X159186000Y-74107000D02*
X159186000Y-72432000D01*
X156066000Y-74107000D02*
X156066000Y-73457000D01*
X156066000Y-74107000D02*
X156066000Y-74757000D01*
%TO.C,LED51*%
X98472000Y-67784000D02*
X96187000Y-67784000D01*
X98472000Y-69254000D02*
X98472000Y-67784000D01*
X96187000Y-69254000D02*
X98472000Y-69254000D01*
%TO.C,D4*%
X157380000Y-22010000D02*
X157380000Y-20540000D01*
X155095000Y-22010000D02*
X157380000Y-22010000D01*
X157380000Y-20540000D02*
X155095000Y-20540000D01*
%TO.C,TH62*%
X144307742Y-77990900D02*
X144782258Y-77990900D01*
X144307742Y-76945900D02*
X144782258Y-76945900D01*
%TO.C,TH63*%
X148729542Y-77990900D02*
X149204058Y-77990900D01*
X148729542Y-76945900D02*
X149204058Y-76945900D01*
%TO.C,R64*%
X153078242Y-71244200D02*
X153552758Y-71244200D01*
X153078242Y-70199200D02*
X153552758Y-70199200D01*
%TO.C,D58*%
X125251000Y-78631000D02*
X128491000Y-78631000D01*
X125251000Y-80251000D02*
X128491000Y-80251000D01*
X125251000Y-78631000D02*
X125251000Y-80251000D01*
%TO.C,R62*%
X144315242Y-70199200D02*
X144789758Y-70199200D01*
X144315242Y-71244200D02*
X144789758Y-71244200D01*
%TO.C,RN5*%
X133576400Y-19424400D02*
X134576400Y-19424400D01*
X133576400Y-16064400D02*
X134576400Y-16064400D01*
%TO.C,D65*%
X155738500Y-80251000D02*
X158978500Y-80251000D01*
X155738500Y-78631000D02*
X158978500Y-78631000D01*
X155738500Y-78631000D02*
X155738500Y-80251000D01*
%TO.C,D60*%
X134030500Y-78631000D02*
X137270500Y-78631000D01*
X134030500Y-78631000D02*
X134030500Y-80251000D01*
X134030500Y-80251000D02*
X137270500Y-80251000D01*
%TO.C,Q57*%
X121049650Y-74107000D02*
X121049650Y-74757000D01*
X121049650Y-74107000D02*
X121049650Y-73457000D01*
X124169650Y-74107000D02*
X124169650Y-74757000D01*
X124169650Y-74107000D02*
X124169650Y-72432000D01*
%TO.C,D52*%
X99216000Y-78631000D02*
X102456000Y-78631000D01*
X99216000Y-80251000D02*
X102456000Y-80251000D01*
X99216000Y-78631000D02*
X99216000Y-80251000D01*
%TO.C,R66*%
X161722542Y-71244200D02*
X162197058Y-71244200D01*
X161722542Y-70199200D02*
X162197058Y-70199200D01*
%TO.C,Q61*%
X138674500Y-74107000D02*
X138674500Y-74757000D01*
X141794500Y-74107000D02*
X141794500Y-74757000D01*
X138674500Y-74107000D02*
X138674500Y-73457000D01*
X141794500Y-74107000D02*
X141794500Y-72432000D01*
%TO.C,U1*%
X117745000Y-6627000D02*
X117745000Y-6872000D01*
X121605000Y-6627000D02*
X125465000Y-6627000D01*
X121605000Y-24747000D02*
X117745000Y-24747000D01*
X121605000Y-24747000D02*
X125465000Y-24747000D01*
X125465000Y-6627000D02*
X125465000Y-6872000D01*
X125465000Y-24747000D02*
X125465000Y-24502000D01*
X117745000Y-24747000D02*
X117745000Y-24502000D01*
X125465000Y-24502000D02*
X127280000Y-24502000D01*
X121605000Y-6627000D02*
X117745000Y-6627000D01*
%TO.C,D54*%
X107471000Y-78631000D02*
X110711000Y-78631000D01*
X107471000Y-80251000D02*
X110711000Y-80251000D01*
X107471000Y-78631000D02*
X107471000Y-80251000D01*
%TO.C,R57*%
X122372392Y-71244200D02*
X122846908Y-71244200D01*
X122372392Y-70199200D02*
X122846908Y-70199200D01*
%TO.C,R59*%
X131488242Y-71244200D02*
X131962758Y-71244200D01*
X131488242Y-70199200D02*
X131962758Y-70199200D01*
%TO.C,Q60*%
X137626800Y-74107000D02*
X137626800Y-74757000D01*
X137626800Y-74107000D02*
X137626800Y-72432000D01*
X134506800Y-74107000D02*
X134506800Y-74757000D01*
X134506800Y-74107000D02*
X134506800Y-73457000D01*
%TO.C,RN3*%
X133576400Y-20484000D02*
X134576400Y-20484000D01*
X133576400Y-23844000D02*
X134576400Y-23844000D01*
%TO.C,RN11*%
X128979000Y-23844000D02*
X129979000Y-23844000D01*
X128979000Y-20484000D02*
X129979000Y-20484000D01*
%TO.C,Q52*%
X99543500Y-74107000D02*
X99543500Y-74757000D01*
X102663500Y-74107000D02*
X102663500Y-74757000D01*
X99543500Y-74107000D02*
X99543500Y-73457000D01*
X102663500Y-74107000D02*
X102663500Y-72432000D01*
%TO.C,Q59*%
X130158000Y-74107000D02*
X130158000Y-74757000D01*
X133278000Y-74107000D02*
X133278000Y-72432000D01*
X130158000Y-74107000D02*
X130158000Y-73457000D01*
X133278000Y-74107000D02*
X133278000Y-74757000D01*
%TO.C,Q56*%
X116475500Y-74107000D02*
X116475500Y-74757000D01*
X116475500Y-74107000D02*
X116475500Y-73457000D01*
X119595500Y-74107000D02*
X119595500Y-74757000D01*
X119595500Y-74107000D02*
X119595500Y-72432000D01*
%TO.C,R55*%
X113312242Y-70199200D02*
X113786758Y-70199200D01*
X113312242Y-71244200D02*
X113786758Y-71244200D01*
%TO.C,TH51*%
X96729742Y-77990900D02*
X97204258Y-77990900D01*
X96729742Y-76945900D02*
X97204258Y-76945900D01*
D15*
%TO.C,J3*%
X97099800Y-65394800D02*
X102732800Y-65394800D01*
X96038800Y-54538800D02*
X104129800Y-54538800D01*
X97099800Y-59806800D02*
X97099800Y-61503800D01*
X97144800Y-55869800D02*
X97144800Y-56377800D01*
X96038800Y-66664800D02*
X96038800Y-54538800D01*
X102732800Y-55869800D02*
X97144800Y-55869800D01*
X97099800Y-64805800D02*
X97099800Y-65394800D01*
X97144800Y-56377800D02*
X97144800Y-56504800D01*
X104129800Y-54538800D02*
X104129800Y-66664800D01*
X104129800Y-66664800D02*
X96038800Y-66664800D01*
X102732800Y-65394800D02*
X102732800Y-55869800D01*
X97099886Y-56504727D02*
G75*
G03*
X97099800Y-59806800I1406913J-1651073D01*
G01*
X97099886Y-61503727D02*
G75*
G03*
X97099800Y-64805800I1406914J-1651073D01*
G01*
D14*
%TO.C,R52*%
X100866242Y-70199200D02*
X101340758Y-70199200D01*
X100866242Y-71244200D02*
X101340758Y-71244200D01*
D16*
%TO.C,SW5*%
X153343000Y-9806300D02*
X153343000Y-4206300D01*
X153343000Y-4206300D02*
X154343000Y-4206300D01*
X159403000Y-4206300D02*
X159403000Y-10806300D01*
X156943000Y-10806300D02*
X155843000Y-10806300D01*
X159393000Y-4206300D02*
X158393000Y-4206300D01*
X159393000Y-10806300D02*
X158393000Y-10806300D01*
X155843000Y-4206300D02*
X156943000Y-4206300D01*
X154343000Y-10806300D02*
X153343000Y-9806300D01*
D14*
%TO.C,U6*%
X151707000Y-40960000D02*
X151707000Y-38200000D01*
X151707000Y-38200000D02*
X151502000Y-38200000D01*
X151707000Y-40960000D02*
X151707000Y-43720000D01*
X151502000Y-38200000D02*
X151502000Y-36510000D01*
X141287000Y-40960000D02*
X141287000Y-38200000D01*
X141287000Y-38200000D02*
X141492000Y-38200000D01*
X141287000Y-43720000D02*
X141492000Y-43720000D01*
X151707000Y-43720000D02*
X151502000Y-43720000D01*
X141287000Y-40960000D02*
X141287000Y-43720000D01*
%TO.C,RN12*%
X114154800Y-20382400D02*
X113154800Y-20382400D01*
X114154800Y-23742400D02*
X113154800Y-23742400D01*
%TO.C,Q62*%
X142985000Y-74107000D02*
X142985000Y-74757000D01*
X146105000Y-74107000D02*
X146105000Y-74757000D01*
X142985000Y-74107000D02*
X142985000Y-73457000D01*
X146105000Y-74107000D02*
X146105000Y-72432000D01*
D16*
%TO.C,SW1*%
X109665000Y-14810000D02*
X109665000Y-13810000D01*
X104065000Y-3610000D02*
X109665000Y-3610000D01*
X109665000Y-6110000D02*
X109665000Y-7210000D01*
X103065000Y-7210000D02*
X103065000Y-6110000D01*
X103065000Y-12310000D02*
X103065000Y-11210000D01*
X103065000Y-4610000D02*
X104065000Y-3610000D01*
X103065000Y-14810000D02*
X103065000Y-13810000D01*
X109665000Y-3610000D02*
X109665000Y-4610000D01*
X109665000Y-14810000D02*
X103065000Y-14810000D01*
X109665000Y-9710000D02*
X109665000Y-8710000D01*
X103065000Y-9710000D02*
X103065000Y-8710000D01*
X109665000Y-12310000D02*
X109665000Y-11210000D01*
D14*
%TO.C,D59*%
X129830500Y-80251000D02*
X133070500Y-80251000D01*
X129830500Y-78631000D02*
X133070500Y-78631000D01*
X129830500Y-78631000D02*
X129830500Y-80251000D01*
%TO.C,D56*%
X116148000Y-78631000D02*
X119388000Y-78631000D01*
X116148000Y-80251000D02*
X119388000Y-80251000D01*
X116148000Y-78631000D02*
X116148000Y-80251000D01*
%TO.C,C6*%
X138458780Y-58602000D02*
X138177620Y-58602000D01*
X138458780Y-57582000D02*
X138177620Y-57582000D01*
%TO.C,Q55*%
X114982500Y-74107000D02*
X114982500Y-74757000D01*
X114982500Y-74107000D02*
X114982500Y-72432000D01*
X111862500Y-74107000D02*
X111862500Y-74757000D01*
X111862500Y-74107000D02*
X111862500Y-73457000D01*
%TO.C,R6*%
X157912500Y-21004258D02*
X157912500Y-20529742D01*
X158957500Y-21004258D02*
X158957500Y-20529742D01*
%TO.C,R63*%
X148737042Y-70199200D02*
X149211558Y-70199200D01*
X148737042Y-71244200D02*
X149211558Y-71244200D01*
%TO.C,LED62*%
X146204000Y-67784000D02*
X143919000Y-67784000D01*
X143919000Y-69254000D02*
X146204000Y-69254000D01*
X146204000Y-69254000D02*
X146204000Y-67784000D01*
%TO.C,Q51*%
X98527000Y-74107000D02*
X98527000Y-74757000D01*
X95407000Y-74107000D02*
X95407000Y-73457000D01*
X95407000Y-74107000D02*
X95407000Y-74757000D01*
X98527000Y-74107000D02*
X98527000Y-72432000D01*
%TO.C,D1*%
X114858000Y-14458000D02*
X114858000Y-10608000D01*
X112858000Y-14458000D02*
X112858000Y-10608000D01*
X112858000Y-14458000D02*
X114858000Y-14458000D01*
D15*
%TO.C,RJ45-1*%
X100156000Y-82702500D02*
X113856000Y-82702500D01*
X100156000Y-103842500D02*
X100156000Y-99342500D01*
X145356000Y-82702500D02*
X159056000Y-82702500D01*
X131371000Y-82702500D02*
X141871000Y-82702500D01*
X117341000Y-82702500D02*
X127841000Y-82702500D01*
X159056000Y-103842500D02*
X159056000Y-99342500D01*
X100156000Y-95902500D02*
X100156000Y-82702500D01*
X159056000Y-95902500D02*
X159056000Y-82702500D01*
X100156000Y-103842500D02*
X159056000Y-103842500D01*
D14*
%TO.C,C3*%
X131255000Y-12498420D02*
X131255000Y-12779580D01*
X132275000Y-12498420D02*
X132275000Y-12779580D01*
%TO.C,LED54*%
X110863500Y-69254000D02*
X110863500Y-67784000D01*
X110863500Y-67784000D02*
X108578500Y-67784000D01*
X108578500Y-69254000D02*
X110863500Y-69254000D01*
%TO.C,R1*%
X130585700Y-59721942D02*
X130585700Y-60196458D01*
X129540700Y-59721942D02*
X129540700Y-60196458D01*
%TO.C,TH65*%
X157388742Y-76945900D02*
X157863258Y-76945900D01*
X157388742Y-77990900D02*
X157863258Y-77990900D01*
%TO.C,Q66*%
X163512300Y-74107000D02*
X163512300Y-72432000D01*
X160392300Y-74107000D02*
X160392300Y-74757000D01*
X163512300Y-74107000D02*
X163512300Y-74757000D01*
X160392300Y-74107000D02*
X160392300Y-73457000D01*
%TO.C,D51*%
X95079500Y-78631000D02*
X98319500Y-78631000D01*
X95079500Y-80251000D02*
X98319500Y-80251000D01*
X95079500Y-78631000D02*
X95079500Y-80251000D01*
%TO.C,TH52*%
X100866242Y-76945900D02*
X101340758Y-76945900D01*
X100866242Y-77990900D02*
X101340758Y-77990900D01*
%TO.C,TH64*%
X153070742Y-76945900D02*
X153545258Y-76945900D01*
X153070742Y-77990900D02*
X153545258Y-77990900D01*
%TO.C,D66*%
X160064800Y-80251000D02*
X163304800Y-80251000D01*
X160064800Y-78631000D02*
X163304800Y-78631000D01*
X160064800Y-78631000D02*
X160064800Y-80251000D01*
%TO.C,D62*%
X142657500Y-80251000D02*
X145897500Y-80251000D01*
X142657500Y-78631000D02*
X142657500Y-80251000D01*
X142657500Y-78631000D02*
X145897500Y-78631000D01*
%TO.C,D5*%
X120520350Y-29963800D02*
X118620350Y-29963800D01*
X119120350Y-32283800D02*
X120520350Y-32283800D01*
%TO.C,Q64*%
X154868000Y-74107000D02*
X154868000Y-74757000D01*
X154868000Y-74107000D02*
X154868000Y-72432000D01*
X151748000Y-74107000D02*
X151748000Y-73457000D01*
X151748000Y-74107000D02*
X151748000Y-74757000D01*
%TD*%
D17*
X109413000Y-31181000D03*
X138851600Y-31206400D03*
X130622000Y-31181000D03*
X119827000Y-31054000D03*
X133797000Y-9952800D03*
X153990000Y-14798000D03*
X133807800Y-8712800D03*
X99126000Y-37531000D03*
X154879000Y-13983300D03*
X151951350Y-27631650D03*
X97856000Y-20259000D03*
X147965071Y-14994800D03*
X147887350Y-7808500D03*
X100498350Y-11932800D03*
X116772350Y-29726800D03*
X111572000Y-20792400D03*
X111485457Y-21744377D03*
X119319000Y-32632500D03*
X111464095Y-22700040D03*
X122062903Y-33536800D03*
X122925800Y-31993800D03*
X111433820Y-23665464D03*
X137378400Y-30088800D03*
X131646097Y-19158703D03*
X131654200Y-18102800D03*
X140851580Y-32457620D03*
X143271200Y-31968400D03*
X131795563Y-17157408D03*
X144153700Y-30901600D03*
X131755693Y-16202337D03*
X111598497Y-16246897D03*
X106373874Y-29022000D03*
X111486000Y-17302800D03*
X107176574Y-31816000D03*
X110406400Y-18169700D03*
X110556000Y-33340000D03*
X108577152Y-19000558D03*
X112092700Y-32463700D03*
X131892494Y-23628703D03*
X127821350Y-30107800D03*
X130632043Y-33070700D03*
X131873000Y-22564000D03*
X133289000Y-32959000D03*
X131839441Y-21608687D03*
X133873200Y-31866800D03*
X131876811Y-20653515D03*
X105984000Y-11038800D03*
X150046350Y-11311550D03*
X133974800Y-11343600D03*
X122748000Y-74615000D03*
X142306000Y-53202800D03*
X132857200Y-54625200D03*
X131892000Y-52034400D03*
X133771600Y-55895200D03*
X142356800Y-60518000D03*
X127968000Y-63251300D03*
X136972000Y-63921600D03*
X143322000Y-57317600D03*
X144287200Y-54625200D03*
X118176000Y-74488000D03*
X142306000Y-51932800D03*
X132857200Y-58130400D03*
X143271200Y-54625200D03*
X131892000Y-53355200D03*
X142356800Y-55742800D03*
X143322000Y-55793600D03*
X142306000Y-54574400D03*
X136210000Y-74615000D03*
X133771600Y-57063600D03*
X144287200Y-53253600D03*
X143322000Y-60518000D03*
X131892000Y-50561200D03*
X97094000Y-74615000D03*
X153355000Y-74615000D03*
X157673000Y-74615000D03*
X140426400Y-58435200D03*
X150078400Y-63820000D03*
X133771600Y-52034400D03*
X131892000Y-57063600D03*
X142356800Y-58384400D03*
X105222000Y-74742000D03*
X144592000Y-74615000D03*
X141391600Y-59451200D03*
X142356800Y-57317600D03*
X140426400Y-57368400D03*
X144338000Y-55793600D03*
X161991000Y-74615000D03*
X113604000Y-74488000D03*
X109413000Y-74742000D03*
X150636000Y-57564800D03*
X131892000Y-74488000D03*
X141391600Y-58435200D03*
X132857200Y-50561200D03*
X143271200Y-53253600D03*
X132857200Y-57063600D03*
X133771600Y-53355200D03*
X132857200Y-55895200D03*
X141391600Y-57368400D03*
X132857200Y-53355200D03*
X138953200Y-63921600D03*
X144287200Y-51983600D03*
X131892000Y-55895200D03*
X143322000Y-59400400D03*
X137937200Y-63921600D03*
X141391600Y-60568800D03*
X140426400Y-59451200D03*
X131892000Y-54625200D03*
X127320000Y-74488000D03*
X142356800Y-59400400D03*
X149164000Y-74615000D03*
X140401000Y-74488000D03*
X140426400Y-60568800D03*
X133771600Y-58130400D03*
X101031000Y-74615000D03*
X143322000Y-58384400D03*
X133771600Y-50561200D03*
X142356800Y-50612000D03*
X133771600Y-54625200D03*
X143271200Y-51983600D03*
X132857200Y-52034400D03*
X107254000Y-45024000D03*
X96205000Y-72710000D03*
X100294400Y-72710000D03*
X109844800Y-45176400D03*
X104333000Y-72583000D03*
X112334000Y-45024000D03*
X114874000Y-45024000D03*
X108524000Y-72710000D03*
X112588000Y-72710000D03*
X119065000Y-45024000D03*
X117287000Y-72710000D03*
X121605000Y-45024000D03*
X124145000Y-45024000D03*
X121859000Y-72710000D03*
X126304000Y-72710000D03*
X126685000Y-45024000D03*
X130723600Y-45278000D03*
X130977600Y-72659200D03*
X133289000Y-45024000D03*
X135321000Y-72710000D03*
X139385000Y-72710000D03*
X135829000Y-45024000D03*
X138369000Y-45024000D03*
X143703000Y-72710000D03*
X142052000Y-45024000D03*
X148148000Y-72837000D03*
X144592000Y-45024000D03*
X152466000Y-72837000D03*
X147132000Y-45024000D03*
X156784000Y-72710000D03*
X149773600Y-45227200D03*
X161102000Y-72760800D03*
X159933600Y-34864000D03*
X157393600Y-34864000D03*
X159933600Y-32324000D03*
X157393600Y-32324000D03*
X159933600Y-29784000D03*
X157393600Y-29784000D03*
X159367900Y-63133800D03*
X159367900Y-58135800D03*
X101793000Y-34864000D03*
X99253000Y-34864000D03*
X101793000Y-32324000D03*
X99253000Y-32324000D03*
X101793000Y-29784000D03*
X99253000Y-29784000D03*
X99938800Y-58069800D03*
X99938800Y-63067800D03*
X102936000Y-93042500D03*
X156276000Y-93042500D03*
X104206000Y-86692500D03*
X105476000Y-84152500D03*
X106746000Y-86692500D03*
X108016000Y-84152500D03*
X109286000Y-86692500D03*
X110556000Y-84152500D03*
X111826000Y-86692500D03*
X113096000Y-84152500D03*
X118176000Y-86692500D03*
X119446000Y-84152500D03*
X120716000Y-86692500D03*
X121986000Y-84152500D03*
X123256000Y-86692500D03*
X124526000Y-84152500D03*
X125796000Y-86692500D03*
X127066000Y-84152500D03*
X132146000Y-86692500D03*
X133416000Y-84152500D03*
X134686000Y-86692500D03*
X135956000Y-84152500D03*
X137226000Y-86692500D03*
X138496000Y-84152500D03*
X139766000Y-86692500D03*
X141036000Y-84152500D03*
X146116000Y-86692500D03*
X147386000Y-84152500D03*
X148656000Y-86692500D03*
X149926000Y-84152500D03*
X151196000Y-86692500D03*
X152466000Y-84152500D03*
X153736000Y-86692500D03*
X155006000Y-84152500D03*
X143576000Y-82882500D03*
X159006000Y-97612500D03*
X100206000Y-97612500D03*
X129606000Y-82882500D03*
X115636000Y-82882500D03*
M02*
