%TF.GenerationSoftware,KiCad,Pcbnew,(6.0.9)*%
%TF.CreationDate,2023-11-10T22:24:19+05:30*%
%TF.ProjectId,RJ45-To-Terminal,524a3435-2d54-46f2-9d54-65726d696e61,2*%
%TF.SameCoordinates,Original*%
%TF.FileFunction,Legend,Top*%
%TF.FilePolarity,Positive*%
%FSLAX46Y46*%
G04 Gerber Fmt 4.6, Leading zero omitted, Abs format (unit mm)*
G04 Created by KiCad (PCBNEW (6.0.9)) date 2023-11-10 22:24:19*
%MOMM*%
%LPD*%
G01*
G04 APERTURE LIST*
%ADD10C,0.300000*%
%ADD11C,0.200000*%
%ADD12C,0.254000*%
%ADD13C,0.120000*%
%ADD14C,0.350000*%
G04 APERTURE END LIST*
D10*
X179346171Y-107002971D02*
X178489028Y-107002971D01*
X178917600Y-107002971D02*
X178917600Y-105502971D01*
X178774742Y-105717257D01*
X178631885Y-105860114D01*
X178489028Y-105931542D01*
X133280114Y-105850571D02*
X133280114Y-106850571D01*
X132922971Y-105279142D02*
X132565828Y-106350571D01*
X133494400Y-106350571D01*
X163299828Y-105645828D02*
X163371257Y-105574400D01*
X163514114Y-105502971D01*
X163871257Y-105502971D01*
X164014114Y-105574400D01*
X164085542Y-105645828D01*
X164156971Y-105788685D01*
X164156971Y-105931542D01*
X164085542Y-106145828D01*
X163228400Y-107002971D01*
X164156971Y-107002971D01*
X147785200Y-105452171D02*
X148713771Y-105452171D01*
X148213771Y-106023600D01*
X148428057Y-106023600D01*
X148570914Y-106095028D01*
X148642342Y-106166457D01*
X148713771Y-106309314D01*
X148713771Y-106666457D01*
X148642342Y-106809314D01*
X148570914Y-106880742D01*
X148428057Y-106952171D01*
X147999485Y-106952171D01*
X147856628Y-106880742D01*
X147785200Y-106809314D01*
D11*
X122949219Y-105039104D02*
X123482552Y-105039104D01*
X123139695Y-105839104D01*
X125996838Y-105039104D02*
X125615885Y-105039104D01*
X125577790Y-105420057D01*
X125615885Y-105381961D01*
X125692076Y-105343866D01*
X125882552Y-105343866D01*
X125958742Y-105381961D01*
X125996838Y-105420057D01*
X126034933Y-105496247D01*
X126034933Y-105686723D01*
X125996838Y-105762914D01*
X125958742Y-105801009D01*
X125882552Y-105839104D01*
X125692076Y-105839104D01*
X125615885Y-105801009D01*
X125577790Y-105762914D01*
X128130171Y-105039104D02*
X128625409Y-105039104D01*
X128358742Y-105343866D01*
X128473028Y-105343866D01*
X128549219Y-105381961D01*
X128587314Y-105420057D01*
X128625409Y-105496247D01*
X128625409Y-105686723D01*
X128587314Y-105762914D01*
X128549219Y-105801009D01*
X128473028Y-105839104D01*
X128244457Y-105839104D01*
X128168266Y-105801009D01*
X128130171Y-105762914D01*
X131215885Y-105839104D02*
X130758742Y-105839104D01*
X130987314Y-105839104D02*
X130987314Y-105039104D01*
X130911123Y-105153390D01*
X130834933Y-105229580D01*
X130758742Y-105267676D01*
X123139695Y-106669961D02*
X123063504Y-106631866D01*
X123025409Y-106593771D01*
X122987314Y-106517580D01*
X122987314Y-106479485D01*
X123025409Y-106403295D01*
X123063504Y-106365200D01*
X123139695Y-106327104D01*
X123292076Y-106327104D01*
X123368266Y-106365200D01*
X123406361Y-106403295D01*
X123444457Y-106479485D01*
X123444457Y-106517580D01*
X123406361Y-106593771D01*
X123368266Y-106631866D01*
X123292076Y-106669961D01*
X123139695Y-106669961D01*
X123063504Y-106708057D01*
X123025409Y-106746152D01*
X122987314Y-106822342D01*
X122987314Y-106974723D01*
X123025409Y-107050914D01*
X123063504Y-107089009D01*
X123139695Y-107127104D01*
X123292076Y-107127104D01*
X123368266Y-107089009D01*
X123406361Y-107050914D01*
X123444457Y-106974723D01*
X123444457Y-106822342D01*
X123406361Y-106746152D01*
X123368266Y-106708057D01*
X123292076Y-106669961D01*
X125958742Y-106327104D02*
X125806361Y-106327104D01*
X125730171Y-106365200D01*
X125692076Y-106403295D01*
X125615885Y-106517580D01*
X125577790Y-106669961D01*
X125577790Y-106974723D01*
X125615885Y-107050914D01*
X125653980Y-107089009D01*
X125730171Y-107127104D01*
X125882552Y-107127104D01*
X125958742Y-107089009D01*
X125996838Y-107050914D01*
X126034933Y-106974723D01*
X126034933Y-106784247D01*
X125996838Y-106708057D01*
X125958742Y-106669961D01*
X125882552Y-106631866D01*
X125730171Y-106631866D01*
X125653980Y-106669961D01*
X125615885Y-106708057D01*
X125577790Y-106784247D01*
X128549219Y-106593771D02*
X128549219Y-107127104D01*
X128358742Y-106289009D02*
X128168266Y-106860438D01*
X128663504Y-106860438D01*
X130758742Y-106403295D02*
X130796838Y-106365200D01*
X130873028Y-106327104D01*
X131063504Y-106327104D01*
X131139695Y-106365200D01*
X131177790Y-106403295D01*
X131215885Y-106479485D01*
X131215885Y-106555676D01*
X131177790Y-106669961D01*
X130720647Y-107127104D01*
X131215885Y-107127104D01*
X138240019Y-105039104D02*
X138773352Y-105039104D01*
X138430495Y-105839104D01*
X141287638Y-105039104D02*
X140906685Y-105039104D01*
X140868590Y-105420057D01*
X140906685Y-105381961D01*
X140982876Y-105343866D01*
X141173352Y-105343866D01*
X141249542Y-105381961D01*
X141287638Y-105420057D01*
X141325733Y-105496247D01*
X141325733Y-105686723D01*
X141287638Y-105762914D01*
X141249542Y-105801009D01*
X141173352Y-105839104D01*
X140982876Y-105839104D01*
X140906685Y-105801009D01*
X140868590Y-105762914D01*
X143420971Y-105039104D02*
X143916209Y-105039104D01*
X143649542Y-105343866D01*
X143763828Y-105343866D01*
X143840019Y-105381961D01*
X143878114Y-105420057D01*
X143916209Y-105496247D01*
X143916209Y-105686723D01*
X143878114Y-105762914D01*
X143840019Y-105801009D01*
X143763828Y-105839104D01*
X143535257Y-105839104D01*
X143459066Y-105801009D01*
X143420971Y-105762914D01*
X146506685Y-105839104D02*
X146049542Y-105839104D01*
X146278114Y-105839104D02*
X146278114Y-105039104D01*
X146201923Y-105153390D01*
X146125733Y-105229580D01*
X146049542Y-105267676D01*
X138430495Y-106669961D02*
X138354304Y-106631866D01*
X138316209Y-106593771D01*
X138278114Y-106517580D01*
X138278114Y-106479485D01*
X138316209Y-106403295D01*
X138354304Y-106365200D01*
X138430495Y-106327104D01*
X138582876Y-106327104D01*
X138659066Y-106365200D01*
X138697161Y-106403295D01*
X138735257Y-106479485D01*
X138735257Y-106517580D01*
X138697161Y-106593771D01*
X138659066Y-106631866D01*
X138582876Y-106669961D01*
X138430495Y-106669961D01*
X138354304Y-106708057D01*
X138316209Y-106746152D01*
X138278114Y-106822342D01*
X138278114Y-106974723D01*
X138316209Y-107050914D01*
X138354304Y-107089009D01*
X138430495Y-107127104D01*
X138582876Y-107127104D01*
X138659066Y-107089009D01*
X138697161Y-107050914D01*
X138735257Y-106974723D01*
X138735257Y-106822342D01*
X138697161Y-106746152D01*
X138659066Y-106708057D01*
X138582876Y-106669961D01*
X141249542Y-106327104D02*
X141097161Y-106327104D01*
X141020971Y-106365200D01*
X140982876Y-106403295D01*
X140906685Y-106517580D01*
X140868590Y-106669961D01*
X140868590Y-106974723D01*
X140906685Y-107050914D01*
X140944780Y-107089009D01*
X141020971Y-107127104D01*
X141173352Y-107127104D01*
X141249542Y-107089009D01*
X141287638Y-107050914D01*
X141325733Y-106974723D01*
X141325733Y-106784247D01*
X141287638Y-106708057D01*
X141249542Y-106669961D01*
X141173352Y-106631866D01*
X141020971Y-106631866D01*
X140944780Y-106669961D01*
X140906685Y-106708057D01*
X140868590Y-106784247D01*
X143840019Y-106593771D02*
X143840019Y-107127104D01*
X143649542Y-106289009D02*
X143459066Y-106860438D01*
X143954304Y-106860438D01*
X146049542Y-106403295D02*
X146087638Y-106365200D01*
X146163828Y-106327104D01*
X146354304Y-106327104D01*
X146430495Y-106365200D01*
X146468590Y-106403295D01*
X146506685Y-106479485D01*
X146506685Y-106555676D01*
X146468590Y-106669961D01*
X146011447Y-107127104D01*
X146506685Y-107127104D01*
X153022819Y-105039104D02*
X153556152Y-105039104D01*
X153213295Y-105839104D01*
X156070438Y-105039104D02*
X155689485Y-105039104D01*
X155651390Y-105420057D01*
X155689485Y-105381961D01*
X155765676Y-105343866D01*
X155956152Y-105343866D01*
X156032342Y-105381961D01*
X156070438Y-105420057D01*
X156108533Y-105496247D01*
X156108533Y-105686723D01*
X156070438Y-105762914D01*
X156032342Y-105801009D01*
X155956152Y-105839104D01*
X155765676Y-105839104D01*
X155689485Y-105801009D01*
X155651390Y-105762914D01*
X158203771Y-105039104D02*
X158699009Y-105039104D01*
X158432342Y-105343866D01*
X158546628Y-105343866D01*
X158622819Y-105381961D01*
X158660914Y-105420057D01*
X158699009Y-105496247D01*
X158699009Y-105686723D01*
X158660914Y-105762914D01*
X158622819Y-105801009D01*
X158546628Y-105839104D01*
X158318057Y-105839104D01*
X158241866Y-105801009D01*
X158203771Y-105762914D01*
X161289485Y-105839104D02*
X160832342Y-105839104D01*
X161060914Y-105839104D02*
X161060914Y-105039104D01*
X160984723Y-105153390D01*
X160908533Y-105229580D01*
X160832342Y-105267676D01*
X153213295Y-106669961D02*
X153137104Y-106631866D01*
X153099009Y-106593771D01*
X153060914Y-106517580D01*
X153060914Y-106479485D01*
X153099009Y-106403295D01*
X153137104Y-106365200D01*
X153213295Y-106327104D01*
X153365676Y-106327104D01*
X153441866Y-106365200D01*
X153479961Y-106403295D01*
X153518057Y-106479485D01*
X153518057Y-106517580D01*
X153479961Y-106593771D01*
X153441866Y-106631866D01*
X153365676Y-106669961D01*
X153213295Y-106669961D01*
X153137104Y-106708057D01*
X153099009Y-106746152D01*
X153060914Y-106822342D01*
X153060914Y-106974723D01*
X153099009Y-107050914D01*
X153137104Y-107089009D01*
X153213295Y-107127104D01*
X153365676Y-107127104D01*
X153441866Y-107089009D01*
X153479961Y-107050914D01*
X153518057Y-106974723D01*
X153518057Y-106822342D01*
X153479961Y-106746152D01*
X153441866Y-106708057D01*
X153365676Y-106669961D01*
X156032342Y-106327104D02*
X155879961Y-106327104D01*
X155803771Y-106365200D01*
X155765676Y-106403295D01*
X155689485Y-106517580D01*
X155651390Y-106669961D01*
X155651390Y-106974723D01*
X155689485Y-107050914D01*
X155727580Y-107089009D01*
X155803771Y-107127104D01*
X155956152Y-107127104D01*
X156032342Y-107089009D01*
X156070438Y-107050914D01*
X156108533Y-106974723D01*
X156108533Y-106784247D01*
X156070438Y-106708057D01*
X156032342Y-106669961D01*
X155956152Y-106631866D01*
X155803771Y-106631866D01*
X155727580Y-106669961D01*
X155689485Y-106708057D01*
X155651390Y-106784247D01*
X158622819Y-106593771D02*
X158622819Y-107127104D01*
X158432342Y-106289009D02*
X158241866Y-106860438D01*
X158737104Y-106860438D01*
X160832342Y-106403295D02*
X160870438Y-106365200D01*
X160946628Y-106327104D01*
X161137104Y-106327104D01*
X161213295Y-106365200D01*
X161251390Y-106403295D01*
X161289485Y-106479485D01*
X161289485Y-106555676D01*
X161251390Y-106669961D01*
X160794247Y-107127104D01*
X161289485Y-107127104D01*
X168618419Y-105039104D02*
X169151752Y-105039104D01*
X168808895Y-105839104D01*
X171666038Y-105039104D02*
X171285085Y-105039104D01*
X171246990Y-105420057D01*
X171285085Y-105381961D01*
X171361276Y-105343866D01*
X171551752Y-105343866D01*
X171627942Y-105381961D01*
X171666038Y-105420057D01*
X171704133Y-105496247D01*
X171704133Y-105686723D01*
X171666038Y-105762914D01*
X171627942Y-105801009D01*
X171551752Y-105839104D01*
X171361276Y-105839104D01*
X171285085Y-105801009D01*
X171246990Y-105762914D01*
X173799371Y-105039104D02*
X174294609Y-105039104D01*
X174027942Y-105343866D01*
X174142228Y-105343866D01*
X174218419Y-105381961D01*
X174256514Y-105420057D01*
X174294609Y-105496247D01*
X174294609Y-105686723D01*
X174256514Y-105762914D01*
X174218419Y-105801009D01*
X174142228Y-105839104D01*
X173913657Y-105839104D01*
X173837466Y-105801009D01*
X173799371Y-105762914D01*
X176885085Y-105839104D02*
X176427942Y-105839104D01*
X176656514Y-105839104D02*
X176656514Y-105039104D01*
X176580323Y-105153390D01*
X176504133Y-105229580D01*
X176427942Y-105267676D01*
X168808895Y-106669961D02*
X168732704Y-106631866D01*
X168694609Y-106593771D01*
X168656514Y-106517580D01*
X168656514Y-106479485D01*
X168694609Y-106403295D01*
X168732704Y-106365200D01*
X168808895Y-106327104D01*
X168961276Y-106327104D01*
X169037466Y-106365200D01*
X169075561Y-106403295D01*
X169113657Y-106479485D01*
X169113657Y-106517580D01*
X169075561Y-106593771D01*
X169037466Y-106631866D01*
X168961276Y-106669961D01*
X168808895Y-106669961D01*
X168732704Y-106708057D01*
X168694609Y-106746152D01*
X168656514Y-106822342D01*
X168656514Y-106974723D01*
X168694609Y-107050914D01*
X168732704Y-107089009D01*
X168808895Y-107127104D01*
X168961276Y-107127104D01*
X169037466Y-107089009D01*
X169075561Y-107050914D01*
X169113657Y-106974723D01*
X169113657Y-106822342D01*
X169075561Y-106746152D01*
X169037466Y-106708057D01*
X168961276Y-106669961D01*
X171627942Y-106327104D02*
X171475561Y-106327104D01*
X171399371Y-106365200D01*
X171361276Y-106403295D01*
X171285085Y-106517580D01*
X171246990Y-106669961D01*
X171246990Y-106974723D01*
X171285085Y-107050914D01*
X171323180Y-107089009D01*
X171399371Y-107127104D01*
X171551752Y-107127104D01*
X171627942Y-107089009D01*
X171666038Y-107050914D01*
X171704133Y-106974723D01*
X171704133Y-106784247D01*
X171666038Y-106708057D01*
X171627942Y-106669961D01*
X171551752Y-106631866D01*
X171399371Y-106631866D01*
X171323180Y-106669961D01*
X171285085Y-106708057D01*
X171246990Y-106784247D01*
X174218419Y-106593771D02*
X174218419Y-107127104D01*
X174027942Y-106289009D02*
X173837466Y-106860438D01*
X174332704Y-106860438D01*
X176427942Y-106403295D02*
X176466038Y-106365200D01*
X176542228Y-106327104D01*
X176732704Y-106327104D01*
X176808895Y-106365200D01*
X176846990Y-106403295D01*
X176885085Y-106479485D01*
X176885085Y-106555676D01*
X176846990Y-106669961D01*
X176389847Y-107127104D01*
X176885085Y-107127104D01*
X166116609Y-85350361D02*
X166040419Y-85312266D01*
X166002323Y-85274171D01*
X165964228Y-85197980D01*
X165964228Y-85159885D01*
X166002323Y-85083695D01*
X166040419Y-85045600D01*
X166116609Y-85007504D01*
X166268990Y-85007504D01*
X166345180Y-85045600D01*
X166383276Y-85083695D01*
X166421371Y-85159885D01*
X166421371Y-85197980D01*
X166383276Y-85274171D01*
X166345180Y-85312266D01*
X166268990Y-85350361D01*
X166116609Y-85350361D01*
X166040419Y-85388457D01*
X166002323Y-85426552D01*
X165964228Y-85502742D01*
X165964228Y-85655123D01*
X166002323Y-85731314D01*
X166040419Y-85769409D01*
X166116609Y-85807504D01*
X166268990Y-85807504D01*
X166345180Y-85769409D01*
X166383276Y-85731314D01*
X166421371Y-85655123D01*
X166421371Y-85502742D01*
X166383276Y-85426552D01*
X166345180Y-85388457D01*
X166268990Y-85350361D01*
X167297561Y-85007504D02*
X167830895Y-85007504D01*
X167488038Y-85807504D01*
X169088038Y-85007504D02*
X168935657Y-85007504D01*
X168859466Y-85045600D01*
X168821371Y-85083695D01*
X168745180Y-85197980D01*
X168707085Y-85350361D01*
X168707085Y-85655123D01*
X168745180Y-85731314D01*
X168783276Y-85769409D01*
X168859466Y-85807504D01*
X169011847Y-85807504D01*
X169088038Y-85769409D01*
X169126133Y-85731314D01*
X169164228Y-85655123D01*
X169164228Y-85464647D01*
X169126133Y-85388457D01*
X169088038Y-85350361D01*
X169011847Y-85312266D01*
X168859466Y-85312266D01*
X168783276Y-85350361D01*
X168745180Y-85388457D01*
X168707085Y-85464647D01*
X170497561Y-85007504D02*
X170116609Y-85007504D01*
X170078514Y-85388457D01*
X170116609Y-85350361D01*
X170192800Y-85312266D01*
X170383276Y-85312266D01*
X170459466Y-85350361D01*
X170497561Y-85388457D01*
X170535657Y-85464647D01*
X170535657Y-85655123D01*
X170497561Y-85731314D01*
X170459466Y-85769409D01*
X170383276Y-85807504D01*
X170192800Y-85807504D01*
X170116609Y-85769409D01*
X170078514Y-85731314D01*
X171830895Y-85274171D02*
X171830895Y-85807504D01*
X171640419Y-84969409D02*
X171449942Y-85540838D01*
X171945180Y-85540838D01*
X172783276Y-85007504D02*
X173278514Y-85007504D01*
X173011847Y-85312266D01*
X173126133Y-85312266D01*
X173202323Y-85350361D01*
X173240419Y-85388457D01*
X173278514Y-85464647D01*
X173278514Y-85655123D01*
X173240419Y-85731314D01*
X173202323Y-85769409D01*
X173126133Y-85807504D01*
X172897561Y-85807504D01*
X172821371Y-85769409D01*
X172783276Y-85731314D01*
X174192800Y-85083695D02*
X174230895Y-85045600D01*
X174307085Y-85007504D01*
X174497561Y-85007504D01*
X174573752Y-85045600D01*
X174611847Y-85083695D01*
X174649942Y-85159885D01*
X174649942Y-85236076D01*
X174611847Y-85350361D01*
X174154704Y-85807504D01*
X174649942Y-85807504D01*
X176021371Y-85807504D02*
X175564228Y-85807504D01*
X175792800Y-85807504D02*
X175792800Y-85007504D01*
X175716609Y-85121790D01*
X175640419Y-85197980D01*
X175564228Y-85236076D01*
D10*
X133838914Y-85022571D02*
X133838914Y-86022571D01*
X133481771Y-84451142D02*
X133124628Y-85522571D01*
X134053200Y-85522571D01*
X180682971Y-105517142D02*
X181825828Y-105517142D01*
X181254400Y-106088571D02*
X181254400Y-104945714D01*
X180682971Y-107091942D02*
X181825828Y-107091942D01*
X146870800Y-84522571D02*
X147799371Y-84522571D01*
X147299371Y-85094000D01*
X147513657Y-85094000D01*
X147656514Y-85165428D01*
X147727942Y-85236857D01*
X147799371Y-85379714D01*
X147799371Y-85736857D01*
X147727942Y-85879714D01*
X147656514Y-85951142D01*
X147513657Y-86022571D01*
X147085085Y-86022571D01*
X146942228Y-85951142D01*
X146870800Y-85879714D01*
X116928971Y-105567942D02*
X118071828Y-105567942D01*
X117500400Y-106139371D02*
X117500400Y-104996514D01*
X116928971Y-107142742D02*
X118071828Y-107142742D01*
X161115428Y-84716228D02*
X161186857Y-84644800D01*
X161329714Y-84573371D01*
X161686857Y-84573371D01*
X161829714Y-84644800D01*
X161901142Y-84716228D01*
X161972571Y-84859085D01*
X161972571Y-85001942D01*
X161901142Y-85216228D01*
X161044000Y-86073371D01*
X161972571Y-86073371D01*
X179142971Y-86124171D02*
X178285828Y-86124171D01*
X178714400Y-86124171D02*
X178714400Y-84624171D01*
X178571542Y-84838457D01*
X178428685Y-84981314D01*
X178285828Y-85052742D01*
D12*
%TO.C,RJ45-1*%
X179208400Y-62249400D02*
X120308400Y-62249400D01*
X120308400Y-70189400D02*
X120308400Y-83389400D01*
X179208400Y-70189400D02*
X179208400Y-83389400D01*
X120308400Y-62249400D02*
X120308400Y-66749400D01*
X162023400Y-83389400D02*
X151523400Y-83389400D01*
X147993400Y-83389400D02*
X137493400Y-83389400D01*
X134008400Y-83389400D02*
X120308400Y-83389400D01*
X179208400Y-62249400D02*
X179208400Y-66749400D01*
X179208400Y-83389400D02*
X165508400Y-83389400D01*
D13*
%TO.C,LED56*%
X137249000Y-89254000D02*
X139534000Y-89254000D01*
X139534000Y-89254000D02*
X139534000Y-87784000D01*
X139534000Y-87784000D02*
X137249000Y-87784000D01*
%TO.C,TH59*%
X151480742Y-97990900D02*
X151955258Y-97990900D01*
X151480742Y-96945900D02*
X151955258Y-96945900D01*
D12*
%TO.C,J11*%
X119346000Y-120137300D02*
X119346000Y-108937300D01*
X133246000Y-113687300D02*
X133246000Y-119686300D01*
X122746000Y-119686300D02*
X119746000Y-119686300D01*
X123246000Y-119686300D02*
X123246000Y-113687300D01*
X130246000Y-113687300D02*
X133246000Y-113687300D01*
X134146000Y-108937300D02*
X133121000Y-108937300D01*
X130871000Y-108937300D02*
X129621000Y-108937300D01*
X119746000Y-113687300D02*
X122746000Y-113687300D01*
X126746000Y-113687300D02*
X129746000Y-113687300D01*
X129746000Y-119686300D02*
X126746000Y-119686300D01*
X133246000Y-119686300D02*
X130246000Y-119686300D01*
X122746000Y-113687300D02*
X122746000Y-119686300D01*
X134146000Y-120137300D02*
X134146000Y-108937300D01*
X130246000Y-119686300D02*
X130246000Y-113687300D01*
X134146000Y-120137300D02*
X119346000Y-120137300D01*
X126246000Y-119686300D02*
X123246000Y-119686300D01*
X127371000Y-108937300D02*
X126121000Y-108937300D01*
X126246000Y-113687300D02*
X126246000Y-119686300D01*
X120371000Y-108937300D02*
X119346000Y-108937300D01*
X123871000Y-108937300D02*
X122621000Y-108937300D01*
X119746000Y-119686300D02*
X119746000Y-113687300D01*
X126746000Y-119686300D02*
X126746000Y-113687300D01*
X129746000Y-113687300D02*
X129746000Y-119686300D01*
X123246000Y-113687300D02*
X126246000Y-113687300D01*
D13*
%TO.C,D57*%
X140722150Y-98631000D02*
X143962150Y-98631000D01*
X140722150Y-98631000D02*
X140722150Y-100251000D01*
X140722150Y-100251000D02*
X143962150Y-100251000D01*
D12*
%TO.C,J12*%
X135763400Y-108937300D02*
X134738400Y-108937300D01*
X138638400Y-113687300D02*
X141638400Y-113687300D01*
X138638400Y-119686300D02*
X138638400Y-113687300D01*
X145138400Y-113687300D02*
X145138400Y-119686300D01*
X141638400Y-119686300D02*
X138638400Y-119686300D01*
X145638400Y-113687300D02*
X148638400Y-113687300D01*
X135138400Y-119686300D02*
X135138400Y-113687300D01*
X134738400Y-120137300D02*
X134738400Y-108937300D01*
X146263400Y-108937300D02*
X145013400Y-108937300D01*
X149538400Y-120137300D02*
X134738400Y-120137300D01*
X142138400Y-113687300D02*
X145138400Y-113687300D01*
X138138400Y-113687300D02*
X138138400Y-119686300D01*
X145138400Y-119686300D02*
X142138400Y-119686300D01*
X139263400Y-108937300D02*
X138013400Y-108937300D01*
X148638400Y-119686300D02*
X145638400Y-119686300D01*
X141638400Y-113687300D02*
X141638400Y-119686300D01*
X142763400Y-108937300D02*
X141513400Y-108937300D01*
X135138400Y-113687300D02*
X138138400Y-113687300D01*
X145638400Y-119686300D02*
X145638400Y-113687300D01*
X142138400Y-119686300D02*
X142138400Y-113687300D01*
X148638400Y-113687300D02*
X148638400Y-119686300D01*
X149538400Y-120137300D02*
X149538400Y-108937300D01*
X138138400Y-119686300D02*
X135138400Y-119686300D01*
X149538400Y-108937300D02*
X148513400Y-108937300D01*
D13*
%TO.C,D61*%
X158347000Y-98631000D02*
X161587000Y-98631000D01*
X158347000Y-98631000D02*
X158347000Y-100251000D01*
X158347000Y-100251000D02*
X161587000Y-100251000D01*
%TO.C,LED66*%
X181179800Y-89254000D02*
X183464800Y-89254000D01*
X183464800Y-89254000D02*
X183464800Y-87784000D01*
X183464800Y-87784000D02*
X181179800Y-87784000D01*
%TO.C,D63*%
X167079300Y-100251000D02*
X170319300Y-100251000D01*
X167079300Y-98631000D02*
X170319300Y-98631000D01*
X167079300Y-98631000D02*
X167079300Y-100251000D01*
%TO.C,LED60*%
X155294300Y-89254000D02*
X157579300Y-89254000D01*
X157579300Y-89254000D02*
X157579300Y-87784000D01*
X157579300Y-87784000D02*
X155294300Y-87784000D01*
%TO.C,R58*%
X146901242Y-90199200D02*
X147375758Y-90199200D01*
X146901242Y-91244200D02*
X147375758Y-91244200D01*
%TO.C,TH54*%
X129121242Y-97990900D02*
X129595758Y-97990900D01*
X129121242Y-96945900D02*
X129595758Y-96945900D01*
%TO.C,LED55*%
X135054500Y-87784000D02*
X132769500Y-87784000D01*
X135054500Y-89254000D02*
X135054500Y-87784000D01*
X132769500Y-89254000D02*
X135054500Y-89254000D01*
%TO.C,TH61*%
X159997242Y-96945900D02*
X160471758Y-96945900D01*
X159997242Y-97990900D02*
X160471758Y-97990900D01*
%TO.C,LED58*%
X148643500Y-87784000D02*
X146358500Y-87784000D01*
X148643500Y-89254000D02*
X148643500Y-87784000D01*
X146358500Y-89254000D02*
X148643500Y-89254000D01*
%TO.C,R61*%
X160004742Y-90199200D02*
X160479258Y-90199200D01*
X160004742Y-91244200D02*
X160479258Y-91244200D01*
%TO.C,LED63*%
X170479300Y-87784000D02*
X168194300Y-87784000D01*
X168194300Y-89254000D02*
X170479300Y-89254000D01*
X170479300Y-89254000D02*
X170479300Y-87784000D01*
%TO.C,LED65*%
X176853500Y-89254000D02*
X179138500Y-89254000D01*
X179138500Y-87784000D02*
X176853500Y-87784000D01*
X179138500Y-89254000D02*
X179138500Y-87784000D01*
%TO.C,D64*%
X171420500Y-98631000D02*
X171420500Y-100251000D01*
X171420500Y-100251000D02*
X174660500Y-100251000D01*
X171420500Y-98631000D02*
X174660500Y-98631000D01*
%TO.C,R60*%
X155837042Y-90199200D02*
X156311558Y-90199200D01*
X155837042Y-91244200D02*
X156311558Y-91244200D01*
%TO.C,LED57*%
X141821000Y-89254000D02*
X144106000Y-89254000D01*
X144106000Y-87784000D02*
X141821000Y-87784000D01*
X144106000Y-89254000D02*
X144106000Y-87784000D01*
%TO.C,D53*%
X123280000Y-100251000D02*
X126520000Y-100251000D01*
X123280000Y-98631000D02*
X123280000Y-100251000D01*
X123280000Y-98631000D02*
X126520000Y-98631000D01*
%TO.C,TH60*%
X155829542Y-97990900D02*
X156304058Y-97990900D01*
X155829542Y-96945900D02*
X156304058Y-96945900D01*
%TO.C,R53*%
X124930242Y-91244200D02*
X125404758Y-91244200D01*
X124930242Y-90199200D02*
X125404758Y-90199200D01*
%TO.C,TH56*%
X137798242Y-96945900D02*
X138272758Y-96945900D01*
X137798242Y-97990900D02*
X138272758Y-97990900D01*
%TO.C,LED53*%
X126707000Y-89254000D02*
X126707000Y-87784000D01*
X124422000Y-89254000D02*
X126707000Y-89254000D01*
X126707000Y-87784000D02*
X124422000Y-87784000D01*
%TO.C,R51*%
X116989142Y-91244200D02*
X117463658Y-91244200D01*
X116989142Y-90199200D02*
X117463658Y-90199200D01*
%TO.C,TH53*%
X124930242Y-97990900D02*
X125404758Y-97990900D01*
X124930242Y-96945900D02*
X125404758Y-96945900D01*
%TO.C,LED61*%
X161747000Y-89254000D02*
X161747000Y-87784000D01*
X161747000Y-87784000D02*
X159462000Y-87784000D01*
X159462000Y-89254000D02*
X161747000Y-89254000D01*
%TO.C,LED64*%
X174820500Y-89254000D02*
X174820500Y-87784000D01*
X172535500Y-89254000D02*
X174820500Y-89254000D01*
X174820500Y-87784000D02*
X172535500Y-87784000D01*
%TO.C,R54*%
X129121242Y-91244200D02*
X129595758Y-91244200D01*
X129121242Y-90199200D02*
X129595758Y-90199200D01*
%TO.C,TH57*%
X142372392Y-96945900D02*
X142846908Y-96945900D01*
X142372392Y-97990900D02*
X142846908Y-97990900D01*
%TO.C,D55*%
X131662000Y-98631000D02*
X131662000Y-100251000D01*
X131662000Y-98631000D02*
X134902000Y-98631000D01*
X131662000Y-100251000D02*
X134902000Y-100251000D01*
%TO.C,LED52*%
X120323500Y-89254000D02*
X122608500Y-89254000D01*
X122608500Y-87784000D02*
X120323500Y-87784000D01*
X122608500Y-89254000D02*
X122608500Y-87784000D01*
%TO.C,R65*%
X177396242Y-91244200D02*
X177870758Y-91244200D01*
X177396242Y-90199200D02*
X177870758Y-90199200D01*
%TO.C,TH66*%
X181715042Y-97990900D02*
X182189558Y-97990900D01*
X181715042Y-96945900D02*
X182189558Y-96945900D01*
%TO.C,TH55*%
X133312242Y-97990900D02*
X133786758Y-97990900D01*
X133312242Y-96945900D02*
X133786758Y-96945900D01*
%TO.C,TH58*%
X146901242Y-96945900D02*
X147375758Y-96945900D01*
X146901242Y-97990900D02*
X147375758Y-97990900D01*
%TO.C,R56*%
X137798242Y-91244200D02*
X138272758Y-91244200D01*
X137798242Y-90199200D02*
X138272758Y-90199200D01*
%TO.C,LED59*%
X150965000Y-89254000D02*
X153250000Y-89254000D01*
X153250000Y-87784000D02*
X150965000Y-87784000D01*
X153250000Y-89254000D02*
X153250000Y-87784000D01*
%TO.C,LED51*%
X118731400Y-87784000D02*
X116446400Y-87784000D01*
X118731400Y-89254000D02*
X118731400Y-87784000D01*
X116446400Y-89254000D02*
X118731400Y-89254000D01*
%TO.C,TH62*%
X164307742Y-97990900D02*
X164782258Y-97990900D01*
X164307742Y-96945900D02*
X164782258Y-96945900D01*
%TO.C,TH63*%
X168729542Y-97990900D02*
X169204058Y-97990900D01*
X168729542Y-96945900D02*
X169204058Y-96945900D01*
%TO.C,R64*%
X173078242Y-91244200D02*
X173552758Y-91244200D01*
X173078242Y-90199200D02*
X173552758Y-90199200D01*
%TO.C,D58*%
X145251000Y-98631000D02*
X148491000Y-98631000D01*
X145251000Y-100251000D02*
X148491000Y-100251000D01*
X145251000Y-98631000D02*
X145251000Y-100251000D01*
%TO.C,R62*%
X164315242Y-90199200D02*
X164789758Y-90199200D01*
X164315242Y-91244200D02*
X164789758Y-91244200D01*
%TO.C,D65*%
X175738500Y-100251000D02*
X178978500Y-100251000D01*
X175738500Y-98631000D02*
X178978500Y-98631000D01*
X175738500Y-98631000D02*
X175738500Y-100251000D01*
%TO.C,D60*%
X154030500Y-98631000D02*
X157270500Y-98631000D01*
X154030500Y-98631000D02*
X154030500Y-100251000D01*
X154030500Y-100251000D02*
X157270500Y-100251000D01*
%TO.C,D52*%
X119216000Y-98631000D02*
X122456000Y-98631000D01*
X119216000Y-100251000D02*
X122456000Y-100251000D01*
X119216000Y-98631000D02*
X119216000Y-100251000D01*
%TO.C,R66*%
X181722542Y-91244200D02*
X182197058Y-91244200D01*
X181722542Y-90199200D02*
X182197058Y-90199200D01*
%TO.C,D54*%
X127471000Y-98631000D02*
X130711000Y-98631000D01*
X127471000Y-100251000D02*
X130711000Y-100251000D01*
X127471000Y-98631000D02*
X127471000Y-100251000D01*
%TO.C,R57*%
X142372392Y-91244200D02*
X142846908Y-91244200D01*
X142372392Y-90199200D02*
X142846908Y-90199200D01*
%TO.C,R59*%
X151488242Y-91244200D02*
X151962758Y-91244200D01*
X151488242Y-90199200D02*
X151962758Y-90199200D01*
D12*
%TO.C,J14*%
X175872400Y-113788900D02*
X175872400Y-119787900D01*
X166497400Y-109038900D02*
X165472400Y-109038900D01*
X169372400Y-113788900D02*
X172372400Y-113788900D01*
X172372400Y-119787900D02*
X169372400Y-119787900D01*
X175872400Y-119787900D02*
X172872400Y-119787900D01*
X179372400Y-119787900D02*
X176372400Y-119787900D01*
X179372400Y-113788900D02*
X179372400Y-119787900D01*
X165872400Y-113788900D02*
X168872400Y-113788900D01*
X172872400Y-119787900D02*
X172872400Y-113788900D01*
X165472400Y-120238900D02*
X165472400Y-109038900D01*
X173497400Y-109038900D02*
X172247400Y-109038900D01*
X176372400Y-119787900D02*
X176372400Y-113788900D01*
X165872400Y-119787900D02*
X165872400Y-113788900D01*
X172872400Y-113788900D02*
X175872400Y-113788900D01*
X172372400Y-113788900D02*
X172372400Y-119787900D01*
X169372400Y-119787900D02*
X169372400Y-113788900D01*
X180272400Y-120238900D02*
X180272400Y-109038900D01*
X176997400Y-109038900D02*
X175747400Y-109038900D01*
X180272400Y-109038900D02*
X179247400Y-109038900D01*
X168872400Y-119787900D02*
X165872400Y-119787900D01*
X176372400Y-113788900D02*
X179372400Y-113788900D01*
X168872400Y-113788900D02*
X168872400Y-119787900D01*
X169997400Y-109038900D02*
X168747400Y-109038900D01*
X180272400Y-120238900D02*
X165472400Y-120238900D01*
%TO.C,J13*%
X157480000Y-113788900D02*
X160480000Y-113788900D01*
X158105000Y-109038900D02*
X156855000Y-109038900D01*
X163980000Y-119787900D02*
X160980000Y-119787900D01*
X153480000Y-119787900D02*
X150480000Y-119787900D01*
X163980000Y-113788900D02*
X163980000Y-119787900D01*
X151105000Y-109038900D02*
X150080000Y-109038900D01*
X153980000Y-119787900D02*
X153980000Y-113788900D01*
X150480000Y-113788900D02*
X153480000Y-113788900D01*
X164880000Y-120238900D02*
X164880000Y-109038900D01*
X160480000Y-119787900D02*
X157480000Y-119787900D01*
X164880000Y-109038900D02*
X163855000Y-109038900D01*
X153480000Y-113788900D02*
X153480000Y-119787900D01*
X156980000Y-119787900D02*
X153980000Y-119787900D01*
X160980000Y-119787900D02*
X160980000Y-113788900D01*
X160980000Y-113788900D02*
X163980000Y-113788900D01*
X160480000Y-113788900D02*
X160480000Y-119787900D01*
X157480000Y-119787900D02*
X157480000Y-113788900D01*
X154605000Y-109038900D02*
X153355000Y-109038900D01*
X150480000Y-119787900D02*
X150480000Y-113788900D01*
X156980000Y-113788900D02*
X156980000Y-119787900D01*
X153980000Y-113788900D02*
X156980000Y-113788900D01*
X164880000Y-120238900D02*
X150080000Y-120238900D01*
X150080000Y-120238900D02*
X150080000Y-109038900D01*
X161605000Y-109038900D02*
X160355000Y-109038900D01*
D13*
%TO.C,R55*%
X133312242Y-90199200D02*
X133786758Y-90199200D01*
X133312242Y-91244200D02*
X133786758Y-91244200D01*
%TO.C,TH51*%
X116729742Y-97990900D02*
X117204258Y-97990900D01*
X116729742Y-96945900D02*
X117204258Y-96945900D01*
%TO.C,R52*%
X120866242Y-90199200D02*
X121340758Y-90199200D01*
X120866242Y-91244200D02*
X121340758Y-91244200D01*
%TO.C,D59*%
X149830500Y-100251000D02*
X153070500Y-100251000D01*
X149830500Y-98631000D02*
X153070500Y-98631000D01*
X149830500Y-98631000D02*
X149830500Y-100251000D01*
%TO.C,D56*%
X136148000Y-98631000D02*
X139388000Y-98631000D01*
X136148000Y-100251000D02*
X139388000Y-100251000D01*
X136148000Y-98631000D02*
X136148000Y-100251000D01*
%TO.C,R63*%
X168737042Y-90199200D02*
X169211558Y-90199200D01*
X168737042Y-91244200D02*
X169211558Y-91244200D01*
%TO.C,LED62*%
X166204000Y-87784000D02*
X163919000Y-87784000D01*
X163919000Y-89254000D02*
X166204000Y-89254000D01*
X166204000Y-89254000D02*
X166204000Y-87784000D01*
%TO.C,LED54*%
X130863500Y-89254000D02*
X130863500Y-87784000D01*
X130863500Y-87784000D02*
X128578500Y-87784000D01*
X128578500Y-89254000D02*
X130863500Y-89254000D01*
%TO.C,TH65*%
X177388742Y-96945900D02*
X177863258Y-96945900D01*
X177388742Y-97990900D02*
X177863258Y-97990900D01*
%TO.C,D51*%
X115079500Y-98631000D02*
X118319500Y-98631000D01*
X115079500Y-100251000D02*
X118319500Y-100251000D01*
X115079500Y-98631000D02*
X115079500Y-100251000D01*
%TO.C,TH52*%
X120866242Y-96945900D02*
X121340758Y-96945900D01*
X120866242Y-97990900D02*
X121340758Y-97990900D01*
%TO.C,TH64*%
X173070742Y-96945900D02*
X173545258Y-96945900D01*
X173070742Y-97990900D02*
X173545258Y-97990900D01*
%TO.C,D66*%
X180064800Y-100251000D02*
X183304800Y-100251000D01*
X180064800Y-98631000D02*
X183304800Y-98631000D01*
X180064800Y-98631000D02*
X180064800Y-100251000D01*
%TO.C,D62*%
X162657500Y-100251000D02*
X165897500Y-100251000D01*
X162657500Y-98631000D02*
X162657500Y-100251000D01*
X162657500Y-98631000D02*
X165897500Y-98631000D01*
%TD*%
D14*
X181134800Y-90721700D03*
X176808500Y-90721700D03*
X172490500Y-90721700D03*
X168149300Y-90721700D03*
X163727500Y-90721700D03*
X159417000Y-90721700D03*
X155249300Y-90721700D03*
X150942600Y-90763800D03*
X146313500Y-90721700D03*
X141784650Y-90721700D03*
X137210500Y-90721700D03*
X132724500Y-90721700D03*
X128533500Y-90721700D03*
X124342500Y-90721700D03*
X120278500Y-90721700D03*
X116401400Y-90721700D03*
X163728400Y-83209400D03*
X149758400Y-83209400D03*
X179158400Y-68479400D03*
X120358400Y-68479400D03*
X135788400Y-83209400D03*
X124358400Y-81939400D03*
X125628400Y-79399400D03*
X126898400Y-81939400D03*
X128168400Y-79399400D03*
X129438400Y-81939400D03*
X130708400Y-79399400D03*
X131978400Y-81939400D03*
X133248400Y-79399400D03*
X138328400Y-81939400D03*
X139598400Y-79399400D03*
X140868400Y-81939400D03*
X142138400Y-79399400D03*
X143408400Y-81939400D03*
X144678400Y-79399400D03*
X145948400Y-81939400D03*
X147218400Y-79399400D03*
X152298400Y-81939400D03*
X153568400Y-79399400D03*
X154838400Y-81939400D03*
X156108400Y-79399400D03*
X157378400Y-81939400D03*
X158648400Y-79399400D03*
X159918400Y-81939400D03*
X161188400Y-79399400D03*
X166268400Y-81939400D03*
X167538400Y-79399400D03*
X168808400Y-81939400D03*
X170078400Y-79399400D03*
X171348400Y-81939400D03*
X172618400Y-79399400D03*
X173888400Y-81939400D03*
X175158400Y-79399400D03*
X123088400Y-73049400D03*
X176428400Y-73049400D03*
X131996000Y-111937300D03*
X131996000Y-109437300D03*
X128496000Y-111937300D03*
X128496000Y-109437300D03*
X124996000Y-111937300D03*
X124996000Y-109437300D03*
X121496000Y-111937300D03*
X121496000Y-109437300D03*
X147388400Y-111937300D03*
X147388400Y-109437300D03*
X143888400Y-111937300D03*
X143888400Y-109437300D03*
X140388400Y-111937300D03*
X140388400Y-109437300D03*
X136888400Y-111937300D03*
X136888400Y-109437300D03*
X178122400Y-112038900D03*
X178122400Y-109538900D03*
X174622400Y-112038900D03*
X174622400Y-109538900D03*
X171122400Y-112038900D03*
X171122400Y-109538900D03*
X167622400Y-112038900D03*
X167622400Y-109538900D03*
X162730000Y-112038900D03*
X162730000Y-109538900D03*
X159230000Y-112038900D03*
X159230000Y-109538900D03*
X155730000Y-112038900D03*
X155730000Y-109538900D03*
X152230000Y-112038900D03*
X152230000Y-109538900D03*
M02*
