M48
; DRILL file {KiCad (6.0.9)} date Thu Nov  9 13:38:15 2023
; FORMAT={-:-/ absolute / inch / decimal}
; #@! TF.CreationDate,2023-11-09T13:38:15+05:30
; #@! TF.GenerationSoftware,Kicad,Pcbnew,(6.0.9)
; #@! TF.FileFunction,Plated,1,2,PTH
FMAT,2
INCH
; #@! TA.AperFunction,Plated,PTH,ViaDrill
T1C0.0138
; #@! TA.AperFunction,Plated,PTH,ViaDrill
T2C0.0157
; #@! TA.AperFunction,Plated,PTH,ComponentDrill
T3C0.0394
; #@! TA.AperFunction,Plated,PTH,ComponentDrill
T4C0.0551
; #@! TA.AperFunction,Plated,PTH,ComponentDrill
T5C0.0669
%
G90
G05
T1
X4.69Y-2.265
X4.744Y-1.2572
X5.0621Y-1.5355
X5.1341Y-1.5027
X5.1746Y-1.7191
X5.1758Y-1.6811
X5.1766Y-1.6435
X5.1766Y-1.4686
X5.18Y-1.606
X5.181Y-1.427
X5.9703Y-1.5417
X5.9706Y-1.5001
X5.9746Y-1.4253
X5.9762Y-1.4629
X5.9779Y-1.6381
X5.9793Y-1.6757
X5.9794Y-1.6005
X5.98Y-1.7177
X6.196Y-1.972
X6.3327Y-2.0653
X6.428Y-2.046
X6.4627Y-2.004
X6.85Y-1.37
X6.885Y-1.3379
T2
X4.575Y-3.65
X4.61Y-3.725
X4.64Y-1.585
X4.736Y-3.65
X4.765Y-3.725
X4.895Y-3.645
X4.93Y-3.73
X4.96Y-1.222
X4.9753Y-1.93
X5.007Y-2.04
X5.01Y-2.56
X5.06Y-3.65
X5.095Y-2.015
X5.095Y-3.73
X5.112Y-2.566
X5.14Y-2.1
X5.2005Y-2.0655
X5.21Y-2.56
X5.22Y-3.65
X5.26Y-3.72
X5.31Y-2.56
X5.3847Y-1.9577
X5.405Y-3.65
X5.44Y-3.72
X5.475Y-2.56
X5.485Y-2.0721
X5.505Y-2.01
X5.575Y-2.56
X5.585Y-3.65
X5.593Y-2.1077
X5.62Y-3.725
X5.627Y-2.047
X5.675Y-2.56
X5.76Y-3.65
X5.775Y-2.56
X5.8Y-3.72
X5.8197Y-1.9727
X5.8255Y-3.2776
X5.93Y-2.015
X5.9304Y-2.0894
X5.934Y-2.57
X5.944Y-3.648
X5.98Y-2.778
X5.98Y-2.836
X5.98Y-2.888
X5.98Y-2.938
X5.98Y-2.988
X5.98Y-3.034
X5.98Y-3.72
X6.018Y-2.778
X6.018Y-2.836
X6.018Y-2.888
X6.018Y-2.938
X6.018Y-2.988
X6.018Y-3.034
X6.018Y-3.076
X6.035Y-2.085
X6.035Y-2.56
X6.054Y-2.778
X6.054Y-2.836
X6.054Y-2.888
X6.054Y-2.938
X6.054Y-2.988
X6.054Y-3.034
X6.054Y-3.076
X6.055Y-1.1792
X6.0554Y-1.1304
X6.058Y-2.042
X6.062Y-1.234
X6.115Y-3.65
X6.135Y-2.56
X6.15Y-3.725
X6.18Y-3.304
X6.218Y-3.304
X6.235Y-2.56
X6.254Y-2.016
X6.258Y-3.304
X6.275Y-3.65
X6.315Y-3.72
X6.316Y-3.046
X6.316Y-3.088
X6.316Y-3.128
X6.316Y-3.172
X6.354Y-3.046
X6.354Y-3.088
X6.354Y-3.128
X6.354Y-3.172
X6.38Y-2.56
X6.39Y-2.832
X6.39Y-2.882
X6.39Y-2.936
X6.392Y-2.78
X6.392Y-2.982
X6.392Y-3.044
X6.392Y-3.086
X6.392Y-3.126
X6.392Y-3.17
X6.428Y-2.834
X6.428Y-2.884
X6.428Y-2.938
X6.43Y-2.984
X6.43Y-3.044
X6.43Y-3.086
X6.43Y-3.126
X6.43Y-3.17
X6.445Y-3.65
X6.468Y-2.834
X6.468Y-2.884
X6.468Y-2.938
X6.47Y-2.984
X6.48Y-2.56
X6.48Y-3.725
X6.58Y-2.56
X6.6097Y-1.0948
X6.6128Y-1.3777
X6.62Y-3.655
X6.66Y-3.725
X6.684Y-2.568
X6.6947Y-1.2327
X6.696Y-3.3
X6.718Y-3.0537
X6.7697Y-1.8753
X6.79Y-3.655
X6.825Y-3.725
X6.96Y-3.65
X6.995Y-3.725
X7.13Y-3.652
X7.165Y-3.725
T3
X4.695Y-1.96
X4.695Y-2.06
X4.695Y-2.16
X4.795Y-1.96
X4.795Y-2.06
X4.795Y-2.16
X6.984Y-1.96
X6.984Y-2.06
X6.984Y-2.16
X7.084Y-1.96
X7.084Y-2.06
X7.084Y-2.16
T4
X4.7833Y-4.3086
X4.7833Y-4.407
X4.9211Y-4.3086
X4.9211Y-4.407
X5.0589Y-4.3086
X5.0589Y-4.407
X5.1967Y-4.3086
X5.1967Y-4.407
X5.3893Y-4.3086
X5.3893Y-4.407
X5.5271Y-4.3086
X5.5271Y-4.407
X5.6649Y-4.3086
X5.6649Y-4.407
X5.8027Y-4.3086
X5.8027Y-4.407
X5.9933Y-4.3126
X5.9933Y-4.411
X6.1311Y-4.3126
X6.1311Y-4.411
X6.2689Y-4.3126
X6.2689Y-4.411
X6.4067Y-4.3126
X6.4067Y-4.411
X6.5993Y-4.3126
X6.5993Y-4.411
X6.7371Y-4.3126
X6.7371Y-4.411
X6.8749Y-4.3126
X6.8749Y-4.411
X7.0127Y-4.3126
X7.0127Y-4.411
T5
X4.722Y-3.0736
X4.722Y-3.2704
X7.0617Y-3.0762
X7.0617Y-3.273
T0
M30
