%TF.GenerationSoftware,KiCad,Pcbnew,(6.0.9)*%
%TF.CreationDate,2023-11-10T22:20:47+05:30*%
%TF.ProjectId,RJ45-To-Terminal,524a3435-2d54-46f2-9d54-65726d696e61,2*%
%TF.SameCoordinates,Original*%
%TF.FileFunction,Drillmap*%
%TF.FilePolarity,Positive*%
%FSLAX45Y45*%
G04 Gerber Fmt 4.5, Leading zero omitted, Abs format (unit mm)*
G04 Created by KiCad (PCBNEW (6.0.9)) date 2023-11-10 22:20:47*
%MOMM*%
%LPD*%
G01*
G04 APERTURE LIST*
%ADD10C,0.050000*%
%ADD11C,0.200000*%
%ADD12C,0.325000*%
G04 APERTURE END LIST*
D10*
X11489600Y-7168200D02*
X11489600Y-11048200D01*
X11488019Y-6399981D02*
X11489600Y-6848200D01*
X11688019Y-6199981D02*
G75*
G03*
X11488019Y-6399981I0J-200000D01*
G01*
X11688019Y-6199981D02*
X18238019Y-6199981D01*
X18438019Y-6399981D02*
G75*
G03*
X18238019Y-6199981I-200000J0D01*
G01*
X18439600Y-7168200D02*
X18439600Y-11048200D01*
X18439600Y-11368200D02*
X18439600Y-11808200D01*
X18239600Y-12008200D02*
X11689600Y-12008200D01*
X18239600Y-12008200D02*
G75*
G03*
X18439600Y-11808200I0J200000D01*
G01*
X18439600Y-6848200D02*
G75*
G03*
X18439600Y-7168200I20070J-160000D01*
G01*
X11489600Y-11808200D02*
X11489600Y-11368200D01*
X11489600Y-11368200D02*
G75*
G03*
X11489600Y-11048200I-20070J160000D01*
G01*
X18439600Y-11048200D02*
G75*
G03*
X18439600Y-11368200I20070J-160000D01*
G01*
X18439600Y-6848200D02*
X18438019Y-6399981D01*
X11489600Y-7168200D02*
G75*
G03*
X11489600Y-6848200I-20070J160000D01*
G01*
X11489600Y-11808200D02*
G75*
G03*
X11689600Y-12008200I200000J0D01*
G01*
D11*
D12*
X12146340Y-7142440D02*
X12471340Y-7467440D01*
X12471340Y-7142440D02*
X12146340Y-7467440D01*
X17480340Y-7142440D02*
X17805340Y-7467440D01*
X17805340Y-7142440D02*
X17480340Y-7467440D01*
D11*
X11743138Y-12321176D02*
X11743138Y-12121176D01*
X11790757Y-12121176D01*
X11819328Y-12130700D01*
X11838376Y-12149748D01*
X11847899Y-12168795D01*
X11857423Y-12206890D01*
X11857423Y-12235462D01*
X11847899Y-12273557D01*
X11838376Y-12292605D01*
X11819328Y-12311652D01*
X11790757Y-12321176D01*
X11743138Y-12321176D01*
X11943138Y-12321176D02*
X11943138Y-12187843D01*
X11943138Y-12225938D02*
X11952661Y-12206890D01*
X11962185Y-12197367D01*
X11981233Y-12187843D01*
X12000280Y-12187843D01*
X12066947Y-12321176D02*
X12066947Y-12187843D01*
X12066947Y-12121176D02*
X12057423Y-12130700D01*
X12066947Y-12140224D01*
X12076471Y-12130700D01*
X12066947Y-12121176D01*
X12066947Y-12140224D01*
X12190757Y-12321176D02*
X12171709Y-12311652D01*
X12162185Y-12292605D01*
X12162185Y-12121176D01*
X12295519Y-12321176D02*
X12276471Y-12311652D01*
X12266947Y-12292605D01*
X12266947Y-12121176D01*
X12524090Y-12321176D02*
X12524090Y-12121176D01*
X12590757Y-12264033D01*
X12657423Y-12121176D01*
X12657423Y-12321176D01*
X12838376Y-12321176D02*
X12838376Y-12216414D01*
X12828852Y-12197367D01*
X12809804Y-12187843D01*
X12771709Y-12187843D01*
X12752661Y-12197367D01*
X12838376Y-12311652D02*
X12819328Y-12321176D01*
X12771709Y-12321176D01*
X12752661Y-12311652D01*
X12743138Y-12292605D01*
X12743138Y-12273557D01*
X12752661Y-12254509D01*
X12771709Y-12244986D01*
X12819328Y-12244986D01*
X12838376Y-12235462D01*
X12933614Y-12187843D02*
X12933614Y-12387843D01*
X12933614Y-12197367D02*
X12952661Y-12187843D01*
X12990757Y-12187843D01*
X13009804Y-12197367D01*
X13019328Y-12206890D01*
X13028852Y-12225938D01*
X13028852Y-12283081D01*
X13019328Y-12302128D01*
X13009804Y-12311652D01*
X12990757Y-12321176D01*
X12952661Y-12321176D01*
X12933614Y-12311652D01*
X13114566Y-12302128D02*
X13124090Y-12311652D01*
X13114566Y-12321176D01*
X13105042Y-12311652D01*
X13114566Y-12302128D01*
X13114566Y-12321176D01*
X13114566Y-12197367D02*
X13124090Y-12206890D01*
X13114566Y-12216414D01*
X13105042Y-12206890D01*
X13114566Y-12197367D01*
X13114566Y-12216414D01*
X11285519Y-12550700D02*
X11485519Y-12750700D01*
X11485519Y-12550700D02*
X11285519Y-12750700D01*
X11724090Y-12541176D02*
X11847899Y-12541176D01*
X11781233Y-12617367D01*
X11809804Y-12617367D01*
X11828852Y-12626890D01*
X11838376Y-12636414D01*
X11847899Y-12655462D01*
X11847899Y-12703081D01*
X11838376Y-12722128D01*
X11828852Y-12731652D01*
X11809804Y-12741176D01*
X11752661Y-12741176D01*
X11733614Y-12731652D01*
X11724090Y-12722128D01*
X11933614Y-12722128D02*
X11943138Y-12731652D01*
X11933614Y-12741176D01*
X11924090Y-12731652D01*
X11933614Y-12722128D01*
X11933614Y-12741176D01*
X12019328Y-12560224D02*
X12028852Y-12550700D01*
X12047899Y-12541176D01*
X12095519Y-12541176D01*
X12114566Y-12550700D01*
X12124090Y-12560224D01*
X12133614Y-12579271D01*
X12133614Y-12598319D01*
X12124090Y-12626890D01*
X12009804Y-12741176D01*
X12133614Y-12741176D01*
X12314566Y-12541176D02*
X12219328Y-12541176D01*
X12209804Y-12636414D01*
X12219328Y-12626890D01*
X12238376Y-12617367D01*
X12285995Y-12617367D01*
X12305042Y-12626890D01*
X12314566Y-12636414D01*
X12324090Y-12655462D01*
X12324090Y-12703081D01*
X12314566Y-12722128D01*
X12305042Y-12731652D01*
X12285995Y-12741176D01*
X12238376Y-12741176D01*
X12219328Y-12731652D01*
X12209804Y-12722128D01*
X12447899Y-12541176D02*
X12466947Y-12541176D01*
X12485995Y-12550700D01*
X12495519Y-12560224D01*
X12505042Y-12579271D01*
X12514566Y-12617367D01*
X12514566Y-12664986D01*
X12505042Y-12703081D01*
X12495519Y-12722128D01*
X12485995Y-12731652D01*
X12466947Y-12741176D01*
X12447899Y-12741176D01*
X12428852Y-12731652D01*
X12419328Y-12722128D01*
X12409804Y-12703081D01*
X12400280Y-12664986D01*
X12400280Y-12617367D01*
X12409804Y-12579271D01*
X12419328Y-12560224D01*
X12428852Y-12550700D01*
X12447899Y-12541176D01*
X12600280Y-12741176D02*
X12600280Y-12607843D01*
X12600280Y-12626890D02*
X12609804Y-12617367D01*
X12628852Y-12607843D01*
X12657423Y-12607843D01*
X12676471Y-12617367D01*
X12685995Y-12636414D01*
X12685995Y-12741176D01*
X12685995Y-12636414D02*
X12695519Y-12617367D01*
X12714566Y-12607843D01*
X12743138Y-12607843D01*
X12762185Y-12617367D01*
X12771709Y-12636414D01*
X12771709Y-12741176D01*
X12866947Y-12741176D02*
X12866947Y-12607843D01*
X12866947Y-12626890D02*
X12876471Y-12617367D01*
X12895519Y-12607843D01*
X12924090Y-12607843D01*
X12943138Y-12617367D01*
X12952661Y-12636414D01*
X12952661Y-12741176D01*
X12952661Y-12636414D02*
X12962185Y-12617367D01*
X12981233Y-12607843D01*
X13009804Y-12607843D01*
X13028852Y-12617367D01*
X13038376Y-12636414D01*
X13038376Y-12741176D01*
X13428852Y-12531652D02*
X13257423Y-12788795D01*
X13685995Y-12541176D02*
X13705042Y-12541176D01*
X13724090Y-12550700D01*
X13733614Y-12560224D01*
X13743138Y-12579271D01*
X13752661Y-12617367D01*
X13752661Y-12664986D01*
X13743138Y-12703081D01*
X13733614Y-12722128D01*
X13724090Y-12731652D01*
X13705042Y-12741176D01*
X13685995Y-12741176D01*
X13666947Y-12731652D01*
X13657423Y-12722128D01*
X13647899Y-12703081D01*
X13638376Y-12664986D01*
X13638376Y-12617367D01*
X13647899Y-12579271D01*
X13657423Y-12560224D01*
X13666947Y-12550700D01*
X13685995Y-12541176D01*
X13838376Y-12722128D02*
X13847899Y-12731652D01*
X13838376Y-12741176D01*
X13828852Y-12731652D01*
X13838376Y-12722128D01*
X13838376Y-12741176D01*
X14038376Y-12741176D02*
X13924090Y-12741176D01*
X13981233Y-12741176D02*
X13981233Y-12541176D01*
X13962185Y-12569748D01*
X13943138Y-12588795D01*
X13924090Y-12598319D01*
X14114566Y-12560224D02*
X14124090Y-12550700D01*
X14143138Y-12541176D01*
X14190757Y-12541176D01*
X14209804Y-12550700D01*
X14219328Y-12560224D01*
X14228852Y-12579271D01*
X14228852Y-12598319D01*
X14219328Y-12626890D01*
X14105042Y-12741176D01*
X14228852Y-12741176D01*
X14343138Y-12626890D02*
X14324090Y-12617367D01*
X14314566Y-12607843D01*
X14305042Y-12588795D01*
X14305042Y-12579271D01*
X14314566Y-12560224D01*
X14324090Y-12550700D01*
X14343138Y-12541176D01*
X14381233Y-12541176D01*
X14400280Y-12550700D01*
X14409804Y-12560224D01*
X14419328Y-12579271D01*
X14419328Y-12588795D01*
X14409804Y-12607843D01*
X14400280Y-12617367D01*
X14381233Y-12626890D01*
X14343138Y-12626890D01*
X14324090Y-12636414D01*
X14314566Y-12645938D01*
X14305042Y-12664986D01*
X14305042Y-12703081D01*
X14314566Y-12722128D01*
X14324090Y-12731652D01*
X14343138Y-12741176D01*
X14381233Y-12741176D01*
X14400280Y-12731652D01*
X14409804Y-12722128D01*
X14419328Y-12703081D01*
X14419328Y-12664986D01*
X14409804Y-12645938D01*
X14400280Y-12636414D01*
X14381233Y-12626890D01*
X14543138Y-12541176D02*
X14562185Y-12541176D01*
X14581233Y-12550700D01*
X14590757Y-12560224D01*
X14600280Y-12579271D01*
X14609804Y-12617367D01*
X14609804Y-12664986D01*
X14600280Y-12703081D01*
X14590757Y-12722128D01*
X14581233Y-12731652D01*
X14562185Y-12741176D01*
X14543138Y-12741176D01*
X14524090Y-12731652D01*
X14514566Y-12722128D01*
X14505042Y-12703081D01*
X14495519Y-12664986D01*
X14495519Y-12617367D01*
X14505042Y-12579271D01*
X14514566Y-12560224D01*
X14524090Y-12550700D01*
X14543138Y-12541176D01*
X14685995Y-12541176D02*
X14685995Y-12579271D01*
X14762185Y-12541176D02*
X14762185Y-12579271D01*
X15057423Y-12817367D02*
X15047899Y-12807843D01*
X15028852Y-12779271D01*
X15019328Y-12760224D01*
X15009804Y-12731652D01*
X15000280Y-12684033D01*
X15000280Y-12645938D01*
X15009804Y-12598319D01*
X15019328Y-12569748D01*
X15028852Y-12550700D01*
X15047899Y-12522128D01*
X15057423Y-12512605D01*
X15124090Y-12560224D02*
X15133614Y-12550700D01*
X15152661Y-12541176D01*
X15200280Y-12541176D01*
X15219328Y-12550700D01*
X15228852Y-12560224D01*
X15238376Y-12579271D01*
X15238376Y-12598319D01*
X15228852Y-12626890D01*
X15114566Y-12741176D01*
X15238376Y-12741176D01*
X15476471Y-12741176D02*
X15476471Y-12541176D01*
X15562185Y-12741176D02*
X15562185Y-12636414D01*
X15552661Y-12617367D01*
X15533614Y-12607843D01*
X15505042Y-12607843D01*
X15485995Y-12617367D01*
X15476471Y-12626890D01*
X15685995Y-12741176D02*
X15666947Y-12731652D01*
X15657423Y-12722128D01*
X15647899Y-12703081D01*
X15647899Y-12645938D01*
X15657423Y-12626890D01*
X15666947Y-12617367D01*
X15685995Y-12607843D01*
X15714566Y-12607843D01*
X15733614Y-12617367D01*
X15743138Y-12626890D01*
X15752661Y-12645938D01*
X15752661Y-12703081D01*
X15743138Y-12722128D01*
X15733614Y-12731652D01*
X15714566Y-12741176D01*
X15685995Y-12741176D01*
X15866947Y-12741176D02*
X15847899Y-12731652D01*
X15838376Y-12712605D01*
X15838376Y-12541176D01*
X16019328Y-12731652D02*
X16000280Y-12741176D01*
X15962185Y-12741176D01*
X15943138Y-12731652D01*
X15933614Y-12712605D01*
X15933614Y-12636414D01*
X15943138Y-12617367D01*
X15962185Y-12607843D01*
X16000280Y-12607843D01*
X16019328Y-12617367D01*
X16028852Y-12636414D01*
X16028852Y-12655462D01*
X15933614Y-12674509D01*
X16105042Y-12731652D02*
X16124090Y-12741176D01*
X16162185Y-12741176D01*
X16181233Y-12731652D01*
X16190757Y-12712605D01*
X16190757Y-12703081D01*
X16181233Y-12684033D01*
X16162185Y-12674509D01*
X16133614Y-12674509D01*
X16114566Y-12664986D01*
X16105042Y-12645938D01*
X16105042Y-12636414D01*
X16114566Y-12617367D01*
X16133614Y-12607843D01*
X16162185Y-12607843D01*
X16181233Y-12617367D01*
X16257423Y-12817367D02*
X16266947Y-12807843D01*
X16285995Y-12779271D01*
X16295518Y-12760224D01*
X16305042Y-12731652D01*
X16314566Y-12684033D01*
X16314566Y-12645938D01*
X16305042Y-12598319D01*
X16295518Y-12569748D01*
X16285995Y-12550700D01*
X16266947Y-12522128D01*
X16257423Y-12512605D01*
X16619328Y-12817367D02*
X16609804Y-12807843D01*
X16590757Y-12779271D01*
X16581233Y-12760224D01*
X16571709Y-12731652D01*
X16562185Y-12684033D01*
X16562185Y-12645938D01*
X16571709Y-12598319D01*
X16581233Y-12569748D01*
X16590757Y-12550700D01*
X16609804Y-12522128D01*
X16619328Y-12512605D01*
X16695518Y-12607843D02*
X16695518Y-12741176D01*
X16695518Y-12626890D02*
X16705042Y-12617367D01*
X16724090Y-12607843D01*
X16752661Y-12607843D01*
X16771709Y-12617367D01*
X16781233Y-12636414D01*
X16781233Y-12741176D01*
X16905042Y-12741176D02*
X16885995Y-12731652D01*
X16876471Y-12722128D01*
X16866947Y-12703081D01*
X16866947Y-12645938D01*
X16876471Y-12626890D01*
X16885995Y-12617367D01*
X16905042Y-12607843D01*
X16933614Y-12607843D01*
X16952661Y-12617367D01*
X16962185Y-12626890D01*
X16971709Y-12645938D01*
X16971709Y-12703081D01*
X16962185Y-12722128D01*
X16952661Y-12731652D01*
X16933614Y-12741176D01*
X16905042Y-12741176D01*
X17028852Y-12607843D02*
X17105042Y-12607843D01*
X17057423Y-12541176D02*
X17057423Y-12712605D01*
X17066947Y-12731652D01*
X17085995Y-12741176D01*
X17105042Y-12741176D01*
X17324090Y-12607843D02*
X17324090Y-12807843D01*
X17324090Y-12617367D02*
X17343138Y-12607843D01*
X17381233Y-12607843D01*
X17400281Y-12617367D01*
X17409804Y-12626890D01*
X17419328Y-12645938D01*
X17419328Y-12703081D01*
X17409804Y-12722128D01*
X17400281Y-12731652D01*
X17381233Y-12741176D01*
X17343138Y-12741176D01*
X17324090Y-12731652D01*
X17533614Y-12741176D02*
X17514566Y-12731652D01*
X17505042Y-12712605D01*
X17505042Y-12541176D01*
X17695519Y-12741176D02*
X17695519Y-12636414D01*
X17685995Y-12617367D01*
X17666947Y-12607843D01*
X17628852Y-12607843D01*
X17609804Y-12617367D01*
X17695519Y-12731652D02*
X17676471Y-12741176D01*
X17628852Y-12741176D01*
X17609804Y-12731652D01*
X17600281Y-12712605D01*
X17600281Y-12693557D01*
X17609804Y-12674509D01*
X17628852Y-12664986D01*
X17676471Y-12664986D01*
X17695519Y-12655462D01*
X17762185Y-12607843D02*
X17838376Y-12607843D01*
X17790757Y-12541176D02*
X17790757Y-12712605D01*
X17800281Y-12731652D01*
X17819328Y-12741176D01*
X17838376Y-12741176D01*
X17981233Y-12731652D02*
X17962185Y-12741176D01*
X17924090Y-12741176D01*
X17905042Y-12731652D01*
X17895519Y-12712605D01*
X17895519Y-12636414D01*
X17905042Y-12617367D01*
X17924090Y-12607843D01*
X17962185Y-12607843D01*
X17981233Y-12617367D01*
X17990757Y-12636414D01*
X17990757Y-12655462D01*
X17895519Y-12674509D01*
X18162185Y-12741176D02*
X18162185Y-12541176D01*
X18162185Y-12731652D02*
X18143138Y-12741176D01*
X18105042Y-12741176D01*
X18085995Y-12731652D01*
X18076471Y-12722128D01*
X18066947Y-12703081D01*
X18066947Y-12645938D01*
X18076471Y-12626890D01*
X18085995Y-12617367D01*
X18105042Y-12607843D01*
X18143138Y-12607843D01*
X18162185Y-12617367D01*
X18238376Y-12817367D02*
X18247900Y-12807843D01*
X18266947Y-12779271D01*
X18276471Y-12760224D01*
X18285995Y-12731652D01*
X18295519Y-12684033D01*
X18295519Y-12645938D01*
X18285995Y-12598319D01*
X18276471Y-12569748D01*
X18266947Y-12550700D01*
X18247900Y-12522128D01*
X18238376Y-12512605D01*
M02*
