M48
; DRILL file {KiCad (6.0.9)} date Fri Nov 10 22:20:45 2023
; FORMAT={-:-/ absolute / inch / decimal}
; #@! TF.CreationDate,2023-11-10T22:20:45+05:30
; #@! TF.GenerationSoftware,Kicad,Pcbnew,(6.0.9)
; #@! TF.FileFunction,Plated,1,2,PTH
FMAT,2
INCH
; #@! TA.AperFunction,Plated,PTH,ViaDrill
T1C0.0157
; #@! TA.AperFunction,Plated,PTH,ComponentDrill
T2C0.0354
; #@! TA.AperFunction,Plated,PTH,ComponentDrill
T3C0.0551
; #@! TA.AperFunction,Plated,PTH,ComponentDrill
T4C0.0630
%
G90
G05
T1
X4.5827Y-3.5717
X4.7354Y-3.5717
X4.8954Y-3.5717
X5.0604Y-3.5717
X5.2254Y-3.5717
X5.402Y-3.5717
X5.5821Y-3.5717
X5.7604Y-3.5717
X5.9426Y-3.5734
X6.1122Y-3.5717
X6.2763Y-3.5717
X6.446Y-3.5717
X6.6201Y-3.5717
X6.791Y-3.5717
X6.961Y-3.5717
X7.1313Y-3.5717
T2
X4.896Y-3.226
X4.946Y-3.126
X4.996Y-3.226
X5.046Y-3.126
X5.096Y-3.226
X5.146Y-3.126
X5.196Y-3.226
X5.246Y-3.126
X5.446Y-3.226
X5.496Y-3.126
X5.546Y-3.226
X5.596Y-3.126
X5.646Y-3.226
X5.696Y-3.126
X5.746Y-3.226
X5.796Y-3.126
X5.996Y-3.226
X6.046Y-3.126
X6.096Y-3.226
X6.146Y-3.126
X6.196Y-3.226
X6.246Y-3.126
X6.296Y-3.226
X6.346Y-3.126
X6.546Y-3.226
X6.596Y-3.126
X6.646Y-3.226
X6.696Y-3.126
X6.746Y-3.226
X6.796Y-3.126
X6.846Y-3.226
X6.896Y-3.126
T3
X4.7833Y-4.3086
X4.7833Y-4.407
X4.9211Y-4.3086
X4.9211Y-4.407
X5.0589Y-4.3086
X5.0589Y-4.407
X5.1967Y-4.3086
X5.1967Y-4.407
X5.3893Y-4.3086
X5.3893Y-4.407
X5.5271Y-4.3086
X5.5271Y-4.407
X5.6649Y-4.3086
X5.6649Y-4.407
X5.8027Y-4.3086
X5.8027Y-4.407
X5.9933Y-4.3126
X5.9933Y-4.411
X6.1311Y-4.3126
X6.1311Y-4.411
X6.2689Y-4.3126
X6.2689Y-4.411
X6.4067Y-4.3126
X6.4067Y-4.411
X6.5993Y-4.3126
X6.5993Y-4.411
X6.7371Y-4.3126
X6.7371Y-4.411
X6.8749Y-4.3126
X6.8749Y-4.411
X7.0127Y-4.3126
X7.0127Y-4.411
T4
X4.7385Y-2.696
X5.346Y-3.276
X5.896Y-3.276
X6.446Y-3.276
X7.0535Y-2.696
T0
M30
