%TF.GenerationSoftware,KiCad,Pcbnew,(6.0.9)*%
%TF.CreationDate,2023-11-10T22:20:47+05:30*%
%TF.ProjectId,RJ45-To-Terminal,524a3435-2d54-46f2-9d54-65726d696e61,2*%
%TF.SameCoordinates,Original*%
%TF.FileFunction,Drillmap*%
%TF.FilePolarity,Positive*%
%FSLAX45Y45*%
G04 Gerber Fmt 4.5, Leading zero omitted, Abs format (unit mm)*
G04 Created by KiCad (PCBNEW (6.0.9)) date 2023-11-10 22:20:47*
%MOMM*%
%LPD*%
G01*
G04 APERTURE LIST*
%ADD10C,0.050000*%
%ADD11C,0.200000*%
%ADD12C,0.040000*%
%ADD13C,0.090000*%
%ADD14C,0.140000*%
%ADD15C,0.160000*%
G04 APERTURE END LIST*
D10*
X11489600Y-7168200D02*
X11489600Y-11048200D01*
X11488019Y-6399981D02*
X11489600Y-6848200D01*
X11688019Y-6199981D02*
G75*
G03*
X11488019Y-6399981I0J-200000D01*
G01*
X11688019Y-6199981D02*
X18238019Y-6199981D01*
X18438019Y-6399981D02*
G75*
G03*
X18238019Y-6199981I-200000J0D01*
G01*
X18439600Y-7168200D02*
X18439600Y-11048200D01*
X18439600Y-11368200D02*
X18439600Y-11808200D01*
X18239600Y-12008200D02*
X11689600Y-12008200D01*
X18239600Y-12008200D02*
G75*
G03*
X18439600Y-11808200I0J200000D01*
G01*
X18439600Y-6848200D02*
G75*
G03*
X18439600Y-7168200I20070J-160000D01*
G01*
X11489600Y-11808200D02*
X11489600Y-11368200D01*
X11489600Y-11368200D02*
G75*
G03*
X11489600Y-11048200I-20070J160000D01*
G01*
X18439600Y-11048200D02*
G75*
G03*
X18439600Y-11368200I20070J-160000D01*
G01*
X18439600Y-6848200D02*
X18438019Y-6399981D01*
X11489600Y-7168200D02*
G75*
G03*
X11489600Y-6848200I-20070J160000D01*
G01*
X11489600Y-11808200D02*
G75*
G03*
X11689600Y-12008200I200000J0D01*
G01*
D11*
D12*
X11620140Y-9052170D02*
X11660140Y-9092170D01*
X11660140Y-9052170D02*
X11620140Y-9092170D01*
X12007850Y-9052170D02*
X12047850Y-9092170D01*
X12047850Y-9052170D02*
X12007850Y-9092170D01*
X12414250Y-9052170D02*
X12454250Y-9092170D01*
X12454250Y-9052170D02*
X12414250Y-9092170D01*
X12833350Y-9052170D02*
X12873350Y-9092170D01*
X12873350Y-9052170D02*
X12833350Y-9092170D01*
X13252450Y-9052170D02*
X13292450Y-9092170D01*
X13292450Y-9052170D02*
X13252450Y-9092170D01*
X13701050Y-9052170D02*
X13741050Y-9092170D01*
X13741050Y-9052170D02*
X13701050Y-9092170D01*
X14158465Y-9052170D02*
X14198465Y-9092170D01*
X14198465Y-9052170D02*
X14158465Y-9092170D01*
X14611350Y-9052170D02*
X14651350Y-9092170D01*
X14651350Y-9052170D02*
X14611350Y-9092170D01*
X15074260Y-9056380D02*
X15114260Y-9096380D01*
X15114260Y-9056380D02*
X15074260Y-9096380D01*
X15504930Y-9052170D02*
X15544930Y-9092170D01*
X15544930Y-9052170D02*
X15504930Y-9092170D01*
X15921700Y-9052170D02*
X15961700Y-9092170D01*
X15961700Y-9052170D02*
X15921700Y-9092170D01*
X16352750Y-9052170D02*
X16392750Y-9092170D01*
X16392750Y-9052170D02*
X16352750Y-9092170D01*
X16794930Y-9052170D02*
X16834930Y-9092170D01*
X16834930Y-9052170D02*
X16794930Y-9092170D01*
X17229050Y-9052170D02*
X17269050Y-9092170D01*
X17269050Y-9052170D02*
X17229050Y-9092170D01*
X17660850Y-9052170D02*
X17700850Y-9092170D01*
X17700850Y-9052170D02*
X17660850Y-9092170D01*
X18093480Y-9052170D02*
X18133480Y-9092170D01*
X18133480Y-9052170D02*
X18093480Y-9092170D01*
D13*
X12480840Y-8193940D02*
G75*
G03*
X12480840Y-8193940I-45000J0D01*
G01*
X12607840Y-7939940D02*
G75*
G03*
X12607840Y-7939940I-45000J0D01*
G01*
X12734840Y-8193940D02*
G75*
G03*
X12734840Y-8193940I-45000J0D01*
G01*
X12861840Y-7939940D02*
G75*
G03*
X12861840Y-7939940I-45000J0D01*
G01*
X12988840Y-8193940D02*
G75*
G03*
X12988840Y-8193940I-45000J0D01*
G01*
X13115840Y-7939940D02*
G75*
G03*
X13115840Y-7939940I-45000J0D01*
G01*
X13242840Y-8193940D02*
G75*
G03*
X13242840Y-8193940I-45000J0D01*
G01*
X13369840Y-7939940D02*
G75*
G03*
X13369840Y-7939940I-45000J0D01*
G01*
X13877840Y-8193940D02*
G75*
G03*
X13877840Y-8193940I-45000J0D01*
G01*
X14004840Y-7939940D02*
G75*
G03*
X14004840Y-7939940I-45000J0D01*
G01*
X14131840Y-8193940D02*
G75*
G03*
X14131840Y-8193940I-45000J0D01*
G01*
X14258840Y-7939940D02*
G75*
G03*
X14258840Y-7939940I-45000J0D01*
G01*
X14385840Y-8193940D02*
G75*
G03*
X14385840Y-8193940I-45000J0D01*
G01*
X14512840Y-7939940D02*
G75*
G03*
X14512840Y-7939940I-45000J0D01*
G01*
X14639840Y-8193940D02*
G75*
G03*
X14639840Y-8193940I-45000J0D01*
G01*
X14766840Y-7939940D02*
G75*
G03*
X14766840Y-7939940I-45000J0D01*
G01*
X15274840Y-8193940D02*
G75*
G03*
X15274840Y-8193940I-45000J0D01*
G01*
X15401840Y-7939940D02*
G75*
G03*
X15401840Y-7939940I-45000J0D01*
G01*
X15528840Y-8193940D02*
G75*
G03*
X15528840Y-8193940I-45000J0D01*
G01*
X15655840Y-7939940D02*
G75*
G03*
X15655840Y-7939940I-45000J0D01*
G01*
X15782840Y-8193940D02*
G75*
G03*
X15782840Y-8193940I-45000J0D01*
G01*
X15909840Y-7939940D02*
G75*
G03*
X15909840Y-7939940I-45000J0D01*
G01*
X16036840Y-8193940D02*
G75*
G03*
X16036840Y-8193940I-45000J0D01*
G01*
X16163840Y-7939940D02*
G75*
G03*
X16163840Y-7939940I-45000J0D01*
G01*
X16671840Y-8193940D02*
G75*
G03*
X16671840Y-8193940I-45000J0D01*
G01*
X16798840Y-7939940D02*
G75*
G03*
X16798840Y-7939940I-45000J0D01*
G01*
X16925840Y-8193940D02*
G75*
G03*
X16925840Y-8193940I-45000J0D01*
G01*
X17052840Y-7939940D02*
G75*
G03*
X17052840Y-7939940I-45000J0D01*
G01*
X17179840Y-8193940D02*
G75*
G03*
X17179840Y-8193940I-45000J0D01*
G01*
X17306840Y-7939940D02*
G75*
G03*
X17306840Y-7939940I-45000J0D01*
G01*
X17433840Y-8193940D02*
G75*
G03*
X17433840Y-8193940I-45000J0D01*
G01*
X17560840Y-7939940D02*
G75*
G03*
X17560840Y-7939940I-45000J0D01*
G01*
D14*
X12149600Y-10873730D02*
X12149600Y-11013730D01*
X12079600Y-10943730D02*
X12219600Y-10943730D01*
X12149600Y-11123730D02*
X12149600Y-11263730D01*
X12079600Y-11193730D02*
X12219600Y-11193730D01*
X12499600Y-10873730D02*
X12499600Y-11013730D01*
X12429600Y-10943730D02*
X12569600Y-10943730D01*
X12499600Y-11123730D02*
X12499600Y-11263730D01*
X12429600Y-11193730D02*
X12569600Y-11193730D01*
X12849600Y-10873730D02*
X12849600Y-11013730D01*
X12779600Y-10943730D02*
X12919600Y-10943730D01*
X12849600Y-11123730D02*
X12849600Y-11263730D01*
X12779600Y-11193730D02*
X12919600Y-11193730D01*
X13199600Y-10873730D02*
X13199600Y-11013730D01*
X13129600Y-10943730D02*
X13269600Y-10943730D01*
X13199600Y-11123730D02*
X13199600Y-11263730D01*
X13129600Y-11193730D02*
X13269600Y-11193730D01*
X13688840Y-10873730D02*
X13688840Y-11013730D01*
X13618840Y-10943730D02*
X13758840Y-10943730D01*
X13688840Y-11123730D02*
X13688840Y-11263730D01*
X13618840Y-11193730D02*
X13758840Y-11193730D01*
X14038840Y-10873730D02*
X14038840Y-11013730D01*
X13968840Y-10943730D02*
X14108840Y-10943730D01*
X14038840Y-11123730D02*
X14038840Y-11263730D01*
X13968840Y-11193730D02*
X14108840Y-11193730D01*
X14388840Y-10873730D02*
X14388840Y-11013730D01*
X14318840Y-10943730D02*
X14458840Y-10943730D01*
X14388840Y-11123730D02*
X14388840Y-11263730D01*
X14318840Y-11193730D02*
X14458840Y-11193730D01*
X14738840Y-10873730D02*
X14738840Y-11013730D01*
X14668840Y-10943730D02*
X14808840Y-10943730D01*
X14738840Y-11123730D02*
X14738840Y-11263730D01*
X14668840Y-11193730D02*
X14808840Y-11193730D01*
X15223000Y-10883890D02*
X15223000Y-11023890D01*
X15153000Y-10953890D02*
X15293000Y-10953890D01*
X15223000Y-11133890D02*
X15223000Y-11273890D01*
X15153000Y-11203890D02*
X15293000Y-11203890D01*
X15573000Y-10883890D02*
X15573000Y-11023890D01*
X15503000Y-10953890D02*
X15643000Y-10953890D01*
X15573000Y-11133890D02*
X15573000Y-11273890D01*
X15503000Y-11203890D02*
X15643000Y-11203890D01*
X15923000Y-10883890D02*
X15923000Y-11023890D01*
X15853000Y-10953890D02*
X15993000Y-10953890D01*
X15923000Y-11133890D02*
X15923000Y-11273890D01*
X15853000Y-11203890D02*
X15993000Y-11203890D01*
X16273000Y-10883890D02*
X16273000Y-11023890D01*
X16203000Y-10953890D02*
X16343000Y-10953890D01*
X16273000Y-11133890D02*
X16273000Y-11273890D01*
X16203000Y-11203890D02*
X16343000Y-11203890D01*
X16762240Y-10883890D02*
X16762240Y-11023890D01*
X16692240Y-10953890D02*
X16832240Y-10953890D01*
X16762240Y-11133890D02*
X16762240Y-11273890D01*
X16692240Y-11203890D02*
X16832240Y-11203890D01*
X17112240Y-10883890D02*
X17112240Y-11023890D01*
X17042240Y-10953890D02*
X17182240Y-10953890D01*
X17112240Y-11133890D02*
X17112240Y-11273890D01*
X17042240Y-11203890D02*
X17182240Y-11203890D01*
X17462240Y-10883890D02*
X17462240Y-11023890D01*
X17392240Y-10953890D02*
X17532240Y-10953890D01*
X17462240Y-11133890D02*
X17462240Y-11273890D01*
X17392240Y-11203890D02*
X17532240Y-11203890D01*
X17812240Y-10883890D02*
X17812240Y-11023890D01*
X17742240Y-10953890D02*
X17882240Y-10953890D01*
X17812240Y-11133890D02*
X17812240Y-11273890D01*
X17742240Y-11203890D02*
X17882240Y-11203890D01*
D15*
X12092409Y-6904509D02*
X12092409Y-6791371D01*
X11979271Y-6791371D01*
X11979271Y-6904509D01*
X12092409Y-6904509D01*
X13635409Y-8377509D02*
X13635409Y-8264371D01*
X13522271Y-8264371D01*
X13522271Y-8377509D01*
X13635409Y-8377509D01*
X15032409Y-8377509D02*
X15032409Y-8264371D01*
X14919271Y-8264371D01*
X14919271Y-8377509D01*
X15032409Y-8377509D01*
X16429409Y-8377509D02*
X16429409Y-8264371D01*
X16316271Y-8264371D01*
X16316271Y-8377509D01*
X16429409Y-8377509D01*
X17972409Y-6904509D02*
X17972409Y-6791371D01*
X17859271Y-6791371D01*
X17859271Y-6904509D01*
X17972409Y-6904509D01*
D11*
X11743138Y-12321176D02*
X11743138Y-12121176D01*
X11790757Y-12121176D01*
X11819328Y-12130700D01*
X11838376Y-12149748D01*
X11847899Y-12168795D01*
X11857423Y-12206890D01*
X11857423Y-12235462D01*
X11847899Y-12273557D01*
X11838376Y-12292605D01*
X11819328Y-12311652D01*
X11790757Y-12321176D01*
X11743138Y-12321176D01*
X11943138Y-12321176D02*
X11943138Y-12187843D01*
X11943138Y-12225938D02*
X11952661Y-12206890D01*
X11962185Y-12197367D01*
X11981233Y-12187843D01*
X12000280Y-12187843D01*
X12066947Y-12321176D02*
X12066947Y-12187843D01*
X12066947Y-12121176D02*
X12057423Y-12130700D01*
X12066947Y-12140224D01*
X12076471Y-12130700D01*
X12066947Y-12121176D01*
X12066947Y-12140224D01*
X12190757Y-12321176D02*
X12171709Y-12311652D01*
X12162185Y-12292605D01*
X12162185Y-12121176D01*
X12295519Y-12321176D02*
X12276471Y-12311652D01*
X12266947Y-12292605D01*
X12266947Y-12121176D01*
X12524090Y-12321176D02*
X12524090Y-12121176D01*
X12590757Y-12264033D01*
X12657423Y-12121176D01*
X12657423Y-12321176D01*
X12838376Y-12321176D02*
X12838376Y-12216414D01*
X12828852Y-12197367D01*
X12809804Y-12187843D01*
X12771709Y-12187843D01*
X12752661Y-12197367D01*
X12838376Y-12311652D02*
X12819328Y-12321176D01*
X12771709Y-12321176D01*
X12752661Y-12311652D01*
X12743138Y-12292605D01*
X12743138Y-12273557D01*
X12752661Y-12254509D01*
X12771709Y-12244986D01*
X12819328Y-12244986D01*
X12838376Y-12235462D01*
X12933614Y-12187843D02*
X12933614Y-12387843D01*
X12933614Y-12197367D02*
X12952661Y-12187843D01*
X12990757Y-12187843D01*
X13009804Y-12197367D01*
X13019328Y-12206890D01*
X13028852Y-12225938D01*
X13028852Y-12283081D01*
X13019328Y-12302128D01*
X13009804Y-12311652D01*
X12990757Y-12321176D01*
X12952661Y-12321176D01*
X12933614Y-12311652D01*
X13114566Y-12302128D02*
X13124090Y-12311652D01*
X13114566Y-12321176D01*
X13105042Y-12311652D01*
X13114566Y-12302128D01*
X13114566Y-12321176D01*
X13114566Y-12197367D02*
X13124090Y-12206890D01*
X13114566Y-12216414D01*
X13105042Y-12206890D01*
X13114566Y-12197367D01*
X13114566Y-12216414D01*
D12*
X11445519Y-12630700D02*
X11485519Y-12670700D01*
X11485519Y-12630700D02*
X11445519Y-12670700D01*
D11*
X11781233Y-12541176D02*
X11800280Y-12541176D01*
X11819328Y-12550700D01*
X11828852Y-12560224D01*
X11838376Y-12579271D01*
X11847899Y-12617367D01*
X11847899Y-12664986D01*
X11838376Y-12703081D01*
X11828852Y-12722128D01*
X11819328Y-12731652D01*
X11800280Y-12741176D01*
X11781233Y-12741176D01*
X11762185Y-12731652D01*
X11752661Y-12722128D01*
X11743138Y-12703081D01*
X11733614Y-12664986D01*
X11733614Y-12617367D01*
X11743138Y-12579271D01*
X11752661Y-12560224D01*
X11762185Y-12550700D01*
X11781233Y-12541176D01*
X11933614Y-12722128D02*
X11943138Y-12731652D01*
X11933614Y-12741176D01*
X11924090Y-12731652D01*
X11933614Y-12722128D01*
X11933614Y-12741176D01*
X12114566Y-12607843D02*
X12114566Y-12741176D01*
X12066947Y-12531652D02*
X12019328Y-12674509D01*
X12143138Y-12674509D01*
X12257423Y-12541176D02*
X12276471Y-12541176D01*
X12295519Y-12550700D01*
X12305042Y-12560224D01*
X12314566Y-12579271D01*
X12324090Y-12617367D01*
X12324090Y-12664986D01*
X12314566Y-12703081D01*
X12305042Y-12722128D01*
X12295519Y-12731652D01*
X12276471Y-12741176D01*
X12257423Y-12741176D01*
X12238376Y-12731652D01*
X12228852Y-12722128D01*
X12219328Y-12703081D01*
X12209804Y-12664986D01*
X12209804Y-12617367D01*
X12219328Y-12579271D01*
X12228852Y-12560224D01*
X12238376Y-12550700D01*
X12257423Y-12541176D01*
X12447899Y-12541176D02*
X12466947Y-12541176D01*
X12485995Y-12550700D01*
X12495519Y-12560224D01*
X12505042Y-12579271D01*
X12514566Y-12617367D01*
X12514566Y-12664986D01*
X12505042Y-12703081D01*
X12495519Y-12722128D01*
X12485995Y-12731652D01*
X12466947Y-12741176D01*
X12447899Y-12741176D01*
X12428852Y-12731652D01*
X12419328Y-12722128D01*
X12409804Y-12703081D01*
X12400280Y-12664986D01*
X12400280Y-12617367D01*
X12409804Y-12579271D01*
X12419328Y-12560224D01*
X12428852Y-12550700D01*
X12447899Y-12541176D01*
X12600280Y-12741176D02*
X12600280Y-12607843D01*
X12600280Y-12626890D02*
X12609804Y-12617367D01*
X12628852Y-12607843D01*
X12657423Y-12607843D01*
X12676471Y-12617367D01*
X12685995Y-12636414D01*
X12685995Y-12741176D01*
X12685995Y-12636414D02*
X12695519Y-12617367D01*
X12714566Y-12607843D01*
X12743138Y-12607843D01*
X12762185Y-12617367D01*
X12771709Y-12636414D01*
X12771709Y-12741176D01*
X12866947Y-12741176D02*
X12866947Y-12607843D01*
X12866947Y-12626890D02*
X12876471Y-12617367D01*
X12895519Y-12607843D01*
X12924090Y-12607843D01*
X12943138Y-12617367D01*
X12952661Y-12636414D01*
X12952661Y-12741176D01*
X12952661Y-12636414D02*
X12962185Y-12617367D01*
X12981233Y-12607843D01*
X13009804Y-12607843D01*
X13028852Y-12617367D01*
X13038376Y-12636414D01*
X13038376Y-12741176D01*
X13428852Y-12531652D02*
X13257423Y-12788795D01*
X13685995Y-12541176D02*
X13705042Y-12541176D01*
X13724090Y-12550700D01*
X13733614Y-12560224D01*
X13743138Y-12579271D01*
X13752661Y-12617367D01*
X13752661Y-12664986D01*
X13743138Y-12703081D01*
X13733614Y-12722128D01*
X13724090Y-12731652D01*
X13705042Y-12741176D01*
X13685995Y-12741176D01*
X13666947Y-12731652D01*
X13657423Y-12722128D01*
X13647899Y-12703081D01*
X13638376Y-12664986D01*
X13638376Y-12617367D01*
X13647899Y-12579271D01*
X13657423Y-12560224D01*
X13666947Y-12550700D01*
X13685995Y-12541176D01*
X13838376Y-12722128D02*
X13847899Y-12731652D01*
X13838376Y-12741176D01*
X13828852Y-12731652D01*
X13838376Y-12722128D01*
X13838376Y-12741176D01*
X13971709Y-12541176D02*
X13990757Y-12541176D01*
X14009804Y-12550700D01*
X14019328Y-12560224D01*
X14028852Y-12579271D01*
X14038376Y-12617367D01*
X14038376Y-12664986D01*
X14028852Y-12703081D01*
X14019328Y-12722128D01*
X14009804Y-12731652D01*
X13990757Y-12741176D01*
X13971709Y-12741176D01*
X13952661Y-12731652D01*
X13943138Y-12722128D01*
X13933614Y-12703081D01*
X13924090Y-12664986D01*
X13924090Y-12617367D01*
X13933614Y-12579271D01*
X13943138Y-12560224D01*
X13952661Y-12550700D01*
X13971709Y-12541176D01*
X14228852Y-12741176D02*
X14114566Y-12741176D01*
X14171709Y-12741176D02*
X14171709Y-12541176D01*
X14152661Y-12569748D01*
X14133614Y-12588795D01*
X14114566Y-12598319D01*
X14409804Y-12541176D02*
X14314566Y-12541176D01*
X14305042Y-12636414D01*
X14314566Y-12626890D01*
X14333614Y-12617367D01*
X14381233Y-12617367D01*
X14400280Y-12626890D01*
X14409804Y-12636414D01*
X14419328Y-12655462D01*
X14419328Y-12703081D01*
X14409804Y-12722128D01*
X14400280Y-12731652D01*
X14381233Y-12741176D01*
X14333614Y-12741176D01*
X14314566Y-12731652D01*
X14305042Y-12722128D01*
X14485995Y-12541176D02*
X14619328Y-12541176D01*
X14533614Y-12741176D01*
X14685995Y-12541176D02*
X14685995Y-12579271D01*
X14762185Y-12541176D02*
X14762185Y-12579271D01*
X15057423Y-12817367D02*
X15047899Y-12807843D01*
X15028852Y-12779271D01*
X15019328Y-12760224D01*
X15009804Y-12731652D01*
X15000280Y-12684033D01*
X15000280Y-12645938D01*
X15009804Y-12598319D01*
X15019328Y-12569748D01*
X15028852Y-12550700D01*
X15047899Y-12522128D01*
X15057423Y-12512605D01*
X15238376Y-12741176D02*
X15124090Y-12741176D01*
X15181233Y-12741176D02*
X15181233Y-12541176D01*
X15162185Y-12569748D01*
X15143138Y-12588795D01*
X15124090Y-12598319D01*
X15409804Y-12541176D02*
X15371709Y-12541176D01*
X15352661Y-12550700D01*
X15343138Y-12560224D01*
X15324090Y-12588795D01*
X15314566Y-12626890D01*
X15314566Y-12703081D01*
X15324090Y-12722128D01*
X15333614Y-12731652D01*
X15352661Y-12741176D01*
X15390757Y-12741176D01*
X15409804Y-12731652D01*
X15419328Y-12722128D01*
X15428852Y-12703081D01*
X15428852Y-12655462D01*
X15419328Y-12636414D01*
X15409804Y-12626890D01*
X15390757Y-12617367D01*
X15352661Y-12617367D01*
X15333614Y-12626890D01*
X15324090Y-12636414D01*
X15314566Y-12655462D01*
X15666947Y-12741176D02*
X15666947Y-12541176D01*
X15752661Y-12741176D02*
X15752661Y-12636414D01*
X15743138Y-12617367D01*
X15724090Y-12607843D01*
X15695518Y-12607843D01*
X15676471Y-12617367D01*
X15666947Y-12626890D01*
X15876471Y-12741176D02*
X15857423Y-12731652D01*
X15847899Y-12722128D01*
X15838376Y-12703081D01*
X15838376Y-12645938D01*
X15847899Y-12626890D01*
X15857423Y-12617367D01*
X15876471Y-12607843D01*
X15905042Y-12607843D01*
X15924090Y-12617367D01*
X15933614Y-12626890D01*
X15943138Y-12645938D01*
X15943138Y-12703081D01*
X15933614Y-12722128D01*
X15924090Y-12731652D01*
X15905042Y-12741176D01*
X15876471Y-12741176D01*
X16057423Y-12741176D02*
X16038376Y-12731652D01*
X16028852Y-12712605D01*
X16028852Y-12541176D01*
X16209804Y-12731652D02*
X16190757Y-12741176D01*
X16152661Y-12741176D01*
X16133614Y-12731652D01*
X16124090Y-12712605D01*
X16124090Y-12636414D01*
X16133614Y-12617367D01*
X16152661Y-12607843D01*
X16190757Y-12607843D01*
X16209804Y-12617367D01*
X16219328Y-12636414D01*
X16219328Y-12655462D01*
X16124090Y-12674509D01*
X16295518Y-12731652D02*
X16314566Y-12741176D01*
X16352661Y-12741176D01*
X16371709Y-12731652D01*
X16381233Y-12712605D01*
X16381233Y-12703081D01*
X16371709Y-12684033D01*
X16352661Y-12674509D01*
X16324090Y-12674509D01*
X16305042Y-12664986D01*
X16295518Y-12645938D01*
X16295518Y-12636414D01*
X16305042Y-12617367D01*
X16324090Y-12607843D01*
X16352661Y-12607843D01*
X16371709Y-12617367D01*
X16447899Y-12817367D02*
X16457423Y-12807843D01*
X16476471Y-12779271D01*
X16485995Y-12760224D01*
X16495518Y-12731652D01*
X16505042Y-12684033D01*
X16505042Y-12645938D01*
X16495518Y-12598319D01*
X16485995Y-12569748D01*
X16476471Y-12550700D01*
X16457423Y-12522128D01*
X16447899Y-12512605D01*
D13*
X11485519Y-12914700D02*
G75*
G03*
X11485519Y-12914700I-45000J0D01*
G01*
D11*
X11781233Y-12805176D02*
X11800280Y-12805176D01*
X11819328Y-12814700D01*
X11828852Y-12824224D01*
X11838376Y-12843271D01*
X11847899Y-12881367D01*
X11847899Y-12928986D01*
X11838376Y-12967081D01*
X11828852Y-12986128D01*
X11819328Y-12995652D01*
X11800280Y-13005176D01*
X11781233Y-13005176D01*
X11762185Y-12995652D01*
X11752661Y-12986128D01*
X11743138Y-12967081D01*
X11733614Y-12928986D01*
X11733614Y-12881367D01*
X11743138Y-12843271D01*
X11752661Y-12824224D01*
X11762185Y-12814700D01*
X11781233Y-12805176D01*
X11933614Y-12986128D02*
X11943138Y-12995652D01*
X11933614Y-13005176D01*
X11924090Y-12995652D01*
X11933614Y-12986128D01*
X11933614Y-13005176D01*
X12038376Y-13005176D02*
X12076471Y-13005176D01*
X12095519Y-12995652D01*
X12105042Y-12986128D01*
X12124090Y-12957557D01*
X12133614Y-12919462D01*
X12133614Y-12843271D01*
X12124090Y-12824224D01*
X12114566Y-12814700D01*
X12095519Y-12805176D01*
X12057423Y-12805176D01*
X12038376Y-12814700D01*
X12028852Y-12824224D01*
X12019328Y-12843271D01*
X12019328Y-12890890D01*
X12028852Y-12909938D01*
X12038376Y-12919462D01*
X12057423Y-12928986D01*
X12095519Y-12928986D01*
X12114566Y-12919462D01*
X12124090Y-12909938D01*
X12133614Y-12890890D01*
X12257423Y-12805176D02*
X12276471Y-12805176D01*
X12295519Y-12814700D01*
X12305042Y-12824224D01*
X12314566Y-12843271D01*
X12324090Y-12881367D01*
X12324090Y-12928986D01*
X12314566Y-12967081D01*
X12305042Y-12986128D01*
X12295519Y-12995652D01*
X12276471Y-13005176D01*
X12257423Y-13005176D01*
X12238376Y-12995652D01*
X12228852Y-12986128D01*
X12219328Y-12967081D01*
X12209804Y-12928986D01*
X12209804Y-12881367D01*
X12219328Y-12843271D01*
X12228852Y-12824224D01*
X12238376Y-12814700D01*
X12257423Y-12805176D01*
X12447899Y-12805176D02*
X12466947Y-12805176D01*
X12485995Y-12814700D01*
X12495519Y-12824224D01*
X12505042Y-12843271D01*
X12514566Y-12881367D01*
X12514566Y-12928986D01*
X12505042Y-12967081D01*
X12495519Y-12986128D01*
X12485995Y-12995652D01*
X12466947Y-13005176D01*
X12447899Y-13005176D01*
X12428852Y-12995652D01*
X12419328Y-12986128D01*
X12409804Y-12967081D01*
X12400280Y-12928986D01*
X12400280Y-12881367D01*
X12409804Y-12843271D01*
X12419328Y-12824224D01*
X12428852Y-12814700D01*
X12447899Y-12805176D01*
X12600280Y-13005176D02*
X12600280Y-12871843D01*
X12600280Y-12890890D02*
X12609804Y-12881367D01*
X12628852Y-12871843D01*
X12657423Y-12871843D01*
X12676471Y-12881367D01*
X12685995Y-12900414D01*
X12685995Y-13005176D01*
X12685995Y-12900414D02*
X12695519Y-12881367D01*
X12714566Y-12871843D01*
X12743138Y-12871843D01*
X12762185Y-12881367D01*
X12771709Y-12900414D01*
X12771709Y-13005176D01*
X12866947Y-13005176D02*
X12866947Y-12871843D01*
X12866947Y-12890890D02*
X12876471Y-12881367D01*
X12895519Y-12871843D01*
X12924090Y-12871843D01*
X12943138Y-12881367D01*
X12952661Y-12900414D01*
X12952661Y-13005176D01*
X12952661Y-12900414D02*
X12962185Y-12881367D01*
X12981233Y-12871843D01*
X13009804Y-12871843D01*
X13028852Y-12881367D01*
X13038376Y-12900414D01*
X13038376Y-13005176D01*
X13428852Y-12795652D02*
X13257423Y-13052795D01*
X13685995Y-12805176D02*
X13705042Y-12805176D01*
X13724090Y-12814700D01*
X13733614Y-12824224D01*
X13743138Y-12843271D01*
X13752661Y-12881367D01*
X13752661Y-12928986D01*
X13743138Y-12967081D01*
X13733614Y-12986128D01*
X13724090Y-12995652D01*
X13705042Y-13005176D01*
X13685995Y-13005176D01*
X13666947Y-12995652D01*
X13657423Y-12986128D01*
X13647899Y-12967081D01*
X13638376Y-12928986D01*
X13638376Y-12881367D01*
X13647899Y-12843271D01*
X13657423Y-12824224D01*
X13666947Y-12814700D01*
X13685995Y-12805176D01*
X13838376Y-12986128D02*
X13847899Y-12995652D01*
X13838376Y-13005176D01*
X13828852Y-12995652D01*
X13838376Y-12986128D01*
X13838376Y-13005176D01*
X13971709Y-12805176D02*
X13990757Y-12805176D01*
X14009804Y-12814700D01*
X14019328Y-12824224D01*
X14028852Y-12843271D01*
X14038376Y-12881367D01*
X14038376Y-12928986D01*
X14028852Y-12967081D01*
X14019328Y-12986128D01*
X14009804Y-12995652D01*
X13990757Y-13005176D01*
X13971709Y-13005176D01*
X13952661Y-12995652D01*
X13943138Y-12986128D01*
X13933614Y-12967081D01*
X13924090Y-12928986D01*
X13924090Y-12881367D01*
X13933614Y-12843271D01*
X13943138Y-12824224D01*
X13952661Y-12814700D01*
X13971709Y-12805176D01*
X14105042Y-12805176D02*
X14228852Y-12805176D01*
X14162185Y-12881367D01*
X14190757Y-12881367D01*
X14209804Y-12890890D01*
X14219328Y-12900414D01*
X14228852Y-12919462D01*
X14228852Y-12967081D01*
X14219328Y-12986128D01*
X14209804Y-12995652D01*
X14190757Y-13005176D01*
X14133614Y-13005176D01*
X14114566Y-12995652D01*
X14105042Y-12986128D01*
X14409804Y-12805176D02*
X14314566Y-12805176D01*
X14305042Y-12900414D01*
X14314566Y-12890890D01*
X14333614Y-12881367D01*
X14381233Y-12881367D01*
X14400280Y-12890890D01*
X14409804Y-12900414D01*
X14419328Y-12919462D01*
X14419328Y-12967081D01*
X14409804Y-12986128D01*
X14400280Y-12995652D01*
X14381233Y-13005176D01*
X14333614Y-13005176D01*
X14314566Y-12995652D01*
X14305042Y-12986128D01*
X14590757Y-12871843D02*
X14590757Y-13005176D01*
X14543138Y-12795652D02*
X14495519Y-12938509D01*
X14619328Y-12938509D01*
X14685995Y-12805176D02*
X14685995Y-12843271D01*
X14762185Y-12805176D02*
X14762185Y-12843271D01*
X15057423Y-13081367D02*
X15047899Y-13071843D01*
X15028852Y-13043271D01*
X15019328Y-13024224D01*
X15009804Y-12995652D01*
X15000280Y-12948033D01*
X15000280Y-12909938D01*
X15009804Y-12862319D01*
X15019328Y-12833748D01*
X15028852Y-12814700D01*
X15047899Y-12786128D01*
X15057423Y-12776605D01*
X15114566Y-12805176D02*
X15238376Y-12805176D01*
X15171709Y-12881367D01*
X15200280Y-12881367D01*
X15219328Y-12890890D01*
X15228852Y-12900414D01*
X15238376Y-12919462D01*
X15238376Y-12967081D01*
X15228852Y-12986128D01*
X15219328Y-12995652D01*
X15200280Y-13005176D01*
X15143138Y-13005176D01*
X15124090Y-12995652D01*
X15114566Y-12986128D01*
X15314566Y-12824224D02*
X15324090Y-12814700D01*
X15343138Y-12805176D01*
X15390757Y-12805176D01*
X15409804Y-12814700D01*
X15419328Y-12824224D01*
X15428852Y-12843271D01*
X15428852Y-12862319D01*
X15419328Y-12890890D01*
X15305042Y-13005176D01*
X15428852Y-13005176D01*
X15666947Y-13005176D02*
X15666947Y-12805176D01*
X15752661Y-13005176D02*
X15752661Y-12900414D01*
X15743138Y-12881367D01*
X15724090Y-12871843D01*
X15695518Y-12871843D01*
X15676471Y-12881367D01*
X15666947Y-12890890D01*
X15876471Y-13005176D02*
X15857423Y-12995652D01*
X15847899Y-12986128D01*
X15838376Y-12967081D01*
X15838376Y-12909938D01*
X15847899Y-12890890D01*
X15857423Y-12881367D01*
X15876471Y-12871843D01*
X15905042Y-12871843D01*
X15924090Y-12881367D01*
X15933614Y-12890890D01*
X15943138Y-12909938D01*
X15943138Y-12967081D01*
X15933614Y-12986128D01*
X15924090Y-12995652D01*
X15905042Y-13005176D01*
X15876471Y-13005176D01*
X16057423Y-13005176D02*
X16038376Y-12995652D01*
X16028852Y-12976605D01*
X16028852Y-12805176D01*
X16209804Y-12995652D02*
X16190757Y-13005176D01*
X16152661Y-13005176D01*
X16133614Y-12995652D01*
X16124090Y-12976605D01*
X16124090Y-12900414D01*
X16133614Y-12881367D01*
X16152661Y-12871843D01*
X16190757Y-12871843D01*
X16209804Y-12881367D01*
X16219328Y-12900414D01*
X16219328Y-12919462D01*
X16124090Y-12938509D01*
X16295518Y-12995652D02*
X16314566Y-13005176D01*
X16352661Y-13005176D01*
X16371709Y-12995652D01*
X16381233Y-12976605D01*
X16381233Y-12967081D01*
X16371709Y-12948033D01*
X16352661Y-12938509D01*
X16324090Y-12938509D01*
X16305042Y-12928986D01*
X16295518Y-12909938D01*
X16295518Y-12900414D01*
X16305042Y-12881367D01*
X16324090Y-12871843D01*
X16352661Y-12871843D01*
X16371709Y-12881367D01*
X16447899Y-13081367D02*
X16457423Y-13071843D01*
X16476471Y-13043271D01*
X16485995Y-13024224D01*
X16495518Y-12995652D01*
X16505042Y-12948033D01*
X16505042Y-12909938D01*
X16495518Y-12862319D01*
X16485995Y-12833748D01*
X16476471Y-12814700D01*
X16457423Y-12786128D01*
X16447899Y-12776605D01*
D14*
X11415519Y-13108700D02*
X11415519Y-13248700D01*
X11345519Y-13178700D02*
X11485519Y-13178700D01*
D11*
X11847899Y-13269176D02*
X11733614Y-13269176D01*
X11790757Y-13269176D02*
X11790757Y-13069176D01*
X11771709Y-13097748D01*
X11752661Y-13116795D01*
X11733614Y-13126319D01*
X11933614Y-13250128D02*
X11943138Y-13259652D01*
X11933614Y-13269176D01*
X11924090Y-13259652D01*
X11933614Y-13250128D01*
X11933614Y-13269176D01*
X12114566Y-13135843D02*
X12114566Y-13269176D01*
X12066947Y-13059652D02*
X12019328Y-13202509D01*
X12143138Y-13202509D01*
X12257423Y-13069176D02*
X12276471Y-13069176D01*
X12295519Y-13078700D01*
X12305042Y-13088224D01*
X12314566Y-13107271D01*
X12324090Y-13145367D01*
X12324090Y-13192986D01*
X12314566Y-13231081D01*
X12305042Y-13250128D01*
X12295519Y-13259652D01*
X12276471Y-13269176D01*
X12257423Y-13269176D01*
X12238376Y-13259652D01*
X12228852Y-13250128D01*
X12219328Y-13231081D01*
X12209804Y-13192986D01*
X12209804Y-13145367D01*
X12219328Y-13107271D01*
X12228852Y-13088224D01*
X12238376Y-13078700D01*
X12257423Y-13069176D01*
X12447899Y-13069176D02*
X12466947Y-13069176D01*
X12485995Y-13078700D01*
X12495519Y-13088224D01*
X12505042Y-13107271D01*
X12514566Y-13145367D01*
X12514566Y-13192986D01*
X12505042Y-13231081D01*
X12495519Y-13250128D01*
X12485995Y-13259652D01*
X12466947Y-13269176D01*
X12447899Y-13269176D01*
X12428852Y-13259652D01*
X12419328Y-13250128D01*
X12409804Y-13231081D01*
X12400280Y-13192986D01*
X12400280Y-13145367D01*
X12409804Y-13107271D01*
X12419328Y-13088224D01*
X12428852Y-13078700D01*
X12447899Y-13069176D01*
X12600280Y-13269176D02*
X12600280Y-13135843D01*
X12600280Y-13154890D02*
X12609804Y-13145367D01*
X12628852Y-13135843D01*
X12657423Y-13135843D01*
X12676471Y-13145367D01*
X12685995Y-13164414D01*
X12685995Y-13269176D01*
X12685995Y-13164414D02*
X12695519Y-13145367D01*
X12714566Y-13135843D01*
X12743138Y-13135843D01*
X12762185Y-13145367D01*
X12771709Y-13164414D01*
X12771709Y-13269176D01*
X12866947Y-13269176D02*
X12866947Y-13135843D01*
X12866947Y-13154890D02*
X12876471Y-13145367D01*
X12895519Y-13135843D01*
X12924090Y-13135843D01*
X12943138Y-13145367D01*
X12952661Y-13164414D01*
X12952661Y-13269176D01*
X12952661Y-13164414D02*
X12962185Y-13145367D01*
X12981233Y-13135843D01*
X13009804Y-13135843D01*
X13028852Y-13145367D01*
X13038376Y-13164414D01*
X13038376Y-13269176D01*
X13428852Y-13059652D02*
X13257423Y-13316795D01*
X13685995Y-13069176D02*
X13705042Y-13069176D01*
X13724090Y-13078700D01*
X13733614Y-13088224D01*
X13743138Y-13107271D01*
X13752661Y-13145367D01*
X13752661Y-13192986D01*
X13743138Y-13231081D01*
X13733614Y-13250128D01*
X13724090Y-13259652D01*
X13705042Y-13269176D01*
X13685995Y-13269176D01*
X13666947Y-13259652D01*
X13657423Y-13250128D01*
X13647899Y-13231081D01*
X13638376Y-13192986D01*
X13638376Y-13145367D01*
X13647899Y-13107271D01*
X13657423Y-13088224D01*
X13666947Y-13078700D01*
X13685995Y-13069176D01*
X13838376Y-13250128D02*
X13847899Y-13259652D01*
X13838376Y-13269176D01*
X13828852Y-13259652D01*
X13838376Y-13250128D01*
X13838376Y-13269176D01*
X13971709Y-13069176D02*
X13990757Y-13069176D01*
X14009804Y-13078700D01*
X14019328Y-13088224D01*
X14028852Y-13107271D01*
X14038376Y-13145367D01*
X14038376Y-13192986D01*
X14028852Y-13231081D01*
X14019328Y-13250128D01*
X14009804Y-13259652D01*
X13990757Y-13269176D01*
X13971709Y-13269176D01*
X13952661Y-13259652D01*
X13943138Y-13250128D01*
X13933614Y-13231081D01*
X13924090Y-13192986D01*
X13924090Y-13145367D01*
X13933614Y-13107271D01*
X13943138Y-13088224D01*
X13952661Y-13078700D01*
X13971709Y-13069176D01*
X14219328Y-13069176D02*
X14124090Y-13069176D01*
X14114566Y-13164414D01*
X14124090Y-13154890D01*
X14143138Y-13145367D01*
X14190757Y-13145367D01*
X14209804Y-13154890D01*
X14219328Y-13164414D01*
X14228852Y-13183462D01*
X14228852Y-13231081D01*
X14219328Y-13250128D01*
X14209804Y-13259652D01*
X14190757Y-13269176D01*
X14143138Y-13269176D01*
X14124090Y-13259652D01*
X14114566Y-13250128D01*
X14409804Y-13069176D02*
X14314566Y-13069176D01*
X14305042Y-13164414D01*
X14314566Y-13154890D01*
X14333614Y-13145367D01*
X14381233Y-13145367D01*
X14400280Y-13154890D01*
X14409804Y-13164414D01*
X14419328Y-13183462D01*
X14419328Y-13231081D01*
X14409804Y-13250128D01*
X14400280Y-13259652D01*
X14381233Y-13269176D01*
X14333614Y-13269176D01*
X14314566Y-13259652D01*
X14305042Y-13250128D01*
X14609804Y-13269176D02*
X14495519Y-13269176D01*
X14552661Y-13269176D02*
X14552661Y-13069176D01*
X14533614Y-13097748D01*
X14514566Y-13116795D01*
X14495519Y-13126319D01*
X14685995Y-13069176D02*
X14685995Y-13107271D01*
X14762185Y-13069176D02*
X14762185Y-13107271D01*
X15057423Y-13345367D02*
X15047899Y-13335843D01*
X15028852Y-13307271D01*
X15019328Y-13288224D01*
X15009804Y-13259652D01*
X15000280Y-13212033D01*
X15000280Y-13173938D01*
X15009804Y-13126319D01*
X15019328Y-13097748D01*
X15028852Y-13078700D01*
X15047899Y-13050128D01*
X15057423Y-13040605D01*
X15114566Y-13069176D02*
X15238376Y-13069176D01*
X15171709Y-13145367D01*
X15200280Y-13145367D01*
X15219328Y-13154890D01*
X15228852Y-13164414D01*
X15238376Y-13183462D01*
X15238376Y-13231081D01*
X15228852Y-13250128D01*
X15219328Y-13259652D01*
X15200280Y-13269176D01*
X15143138Y-13269176D01*
X15124090Y-13259652D01*
X15114566Y-13250128D01*
X15314566Y-13088224D02*
X15324090Y-13078700D01*
X15343138Y-13069176D01*
X15390757Y-13069176D01*
X15409804Y-13078700D01*
X15419328Y-13088224D01*
X15428852Y-13107271D01*
X15428852Y-13126319D01*
X15419328Y-13154890D01*
X15305042Y-13269176D01*
X15428852Y-13269176D01*
X15666947Y-13269176D02*
X15666947Y-13069176D01*
X15752661Y-13269176D02*
X15752661Y-13164414D01*
X15743138Y-13145367D01*
X15724090Y-13135843D01*
X15695518Y-13135843D01*
X15676471Y-13145367D01*
X15666947Y-13154890D01*
X15876471Y-13269176D02*
X15857423Y-13259652D01*
X15847899Y-13250128D01*
X15838376Y-13231081D01*
X15838376Y-13173938D01*
X15847899Y-13154890D01*
X15857423Y-13145367D01*
X15876471Y-13135843D01*
X15905042Y-13135843D01*
X15924090Y-13145367D01*
X15933614Y-13154890D01*
X15943138Y-13173938D01*
X15943138Y-13231081D01*
X15933614Y-13250128D01*
X15924090Y-13259652D01*
X15905042Y-13269176D01*
X15876471Y-13269176D01*
X16057423Y-13269176D02*
X16038376Y-13259652D01*
X16028852Y-13240605D01*
X16028852Y-13069176D01*
X16209804Y-13259652D02*
X16190757Y-13269176D01*
X16152661Y-13269176D01*
X16133614Y-13259652D01*
X16124090Y-13240605D01*
X16124090Y-13164414D01*
X16133614Y-13145367D01*
X16152661Y-13135843D01*
X16190757Y-13135843D01*
X16209804Y-13145367D01*
X16219328Y-13164414D01*
X16219328Y-13183462D01*
X16124090Y-13202509D01*
X16295518Y-13259652D02*
X16314566Y-13269176D01*
X16352661Y-13269176D01*
X16371709Y-13259652D01*
X16381233Y-13240605D01*
X16381233Y-13231081D01*
X16371709Y-13212033D01*
X16352661Y-13202509D01*
X16324090Y-13202509D01*
X16305042Y-13192986D01*
X16295518Y-13173938D01*
X16295518Y-13164414D01*
X16305042Y-13145367D01*
X16324090Y-13135843D01*
X16352661Y-13135843D01*
X16371709Y-13145367D01*
X16447899Y-13345367D02*
X16457423Y-13335843D01*
X16476471Y-13307271D01*
X16485995Y-13288224D01*
X16495518Y-13259652D01*
X16505042Y-13212033D01*
X16505042Y-13173938D01*
X16495518Y-13126319D01*
X16485995Y-13097748D01*
X16476471Y-13078700D01*
X16457423Y-13050128D01*
X16447899Y-13040605D01*
D15*
X11462088Y-13499269D02*
X11462088Y-13386131D01*
X11348949Y-13386131D01*
X11348949Y-13499269D01*
X11462088Y-13499269D01*
D11*
X11847899Y-13533176D02*
X11733614Y-13533176D01*
X11790757Y-13533176D02*
X11790757Y-13333176D01*
X11771709Y-13361748D01*
X11752661Y-13380795D01*
X11733614Y-13390319D01*
X11933614Y-13514128D02*
X11943138Y-13523652D01*
X11933614Y-13533176D01*
X11924090Y-13523652D01*
X11933614Y-13514128D01*
X11933614Y-13533176D01*
X12114566Y-13333176D02*
X12076471Y-13333176D01*
X12057423Y-13342700D01*
X12047899Y-13352224D01*
X12028852Y-13380795D01*
X12019328Y-13418890D01*
X12019328Y-13495081D01*
X12028852Y-13514128D01*
X12038376Y-13523652D01*
X12057423Y-13533176D01*
X12095519Y-13533176D01*
X12114566Y-13523652D01*
X12124090Y-13514128D01*
X12133614Y-13495081D01*
X12133614Y-13447462D01*
X12124090Y-13428414D01*
X12114566Y-13418890D01*
X12095519Y-13409367D01*
X12057423Y-13409367D01*
X12038376Y-13418890D01*
X12028852Y-13428414D01*
X12019328Y-13447462D01*
X12257423Y-13333176D02*
X12276471Y-13333176D01*
X12295519Y-13342700D01*
X12305042Y-13352224D01*
X12314566Y-13371271D01*
X12324090Y-13409367D01*
X12324090Y-13456986D01*
X12314566Y-13495081D01*
X12305042Y-13514128D01*
X12295519Y-13523652D01*
X12276471Y-13533176D01*
X12257423Y-13533176D01*
X12238376Y-13523652D01*
X12228852Y-13514128D01*
X12219328Y-13495081D01*
X12209804Y-13456986D01*
X12209804Y-13409367D01*
X12219328Y-13371271D01*
X12228852Y-13352224D01*
X12238376Y-13342700D01*
X12257423Y-13333176D01*
X12447899Y-13333176D02*
X12466947Y-13333176D01*
X12485995Y-13342700D01*
X12495519Y-13352224D01*
X12505042Y-13371271D01*
X12514566Y-13409367D01*
X12514566Y-13456986D01*
X12505042Y-13495081D01*
X12495519Y-13514128D01*
X12485995Y-13523652D01*
X12466947Y-13533176D01*
X12447899Y-13533176D01*
X12428852Y-13523652D01*
X12419328Y-13514128D01*
X12409804Y-13495081D01*
X12400280Y-13456986D01*
X12400280Y-13409367D01*
X12409804Y-13371271D01*
X12419328Y-13352224D01*
X12428852Y-13342700D01*
X12447899Y-13333176D01*
X12600280Y-13533176D02*
X12600280Y-13399843D01*
X12600280Y-13418890D02*
X12609804Y-13409367D01*
X12628852Y-13399843D01*
X12657423Y-13399843D01*
X12676471Y-13409367D01*
X12685995Y-13428414D01*
X12685995Y-13533176D01*
X12685995Y-13428414D02*
X12695519Y-13409367D01*
X12714566Y-13399843D01*
X12743138Y-13399843D01*
X12762185Y-13409367D01*
X12771709Y-13428414D01*
X12771709Y-13533176D01*
X12866947Y-13533176D02*
X12866947Y-13399843D01*
X12866947Y-13418890D02*
X12876471Y-13409367D01*
X12895519Y-13399843D01*
X12924090Y-13399843D01*
X12943138Y-13409367D01*
X12952661Y-13428414D01*
X12952661Y-13533176D01*
X12952661Y-13428414D02*
X12962185Y-13409367D01*
X12981233Y-13399843D01*
X13009804Y-13399843D01*
X13028852Y-13409367D01*
X13038376Y-13428414D01*
X13038376Y-13533176D01*
X13428852Y-13323652D02*
X13257423Y-13580795D01*
X13685995Y-13333176D02*
X13705042Y-13333176D01*
X13724090Y-13342700D01*
X13733614Y-13352224D01*
X13743138Y-13371271D01*
X13752661Y-13409367D01*
X13752661Y-13456986D01*
X13743138Y-13495081D01*
X13733614Y-13514128D01*
X13724090Y-13523652D01*
X13705042Y-13533176D01*
X13685995Y-13533176D01*
X13666947Y-13523652D01*
X13657423Y-13514128D01*
X13647899Y-13495081D01*
X13638376Y-13456986D01*
X13638376Y-13409367D01*
X13647899Y-13371271D01*
X13657423Y-13352224D01*
X13666947Y-13342700D01*
X13685995Y-13333176D01*
X13838376Y-13514128D02*
X13847899Y-13523652D01*
X13838376Y-13533176D01*
X13828852Y-13523652D01*
X13838376Y-13514128D01*
X13838376Y-13533176D01*
X13971709Y-13333176D02*
X13990757Y-13333176D01*
X14009804Y-13342700D01*
X14019328Y-13352224D01*
X14028852Y-13371271D01*
X14038376Y-13409367D01*
X14038376Y-13456986D01*
X14028852Y-13495081D01*
X14019328Y-13514128D01*
X14009804Y-13523652D01*
X13990757Y-13533176D01*
X13971709Y-13533176D01*
X13952661Y-13523652D01*
X13943138Y-13514128D01*
X13933614Y-13495081D01*
X13924090Y-13456986D01*
X13924090Y-13409367D01*
X13933614Y-13371271D01*
X13943138Y-13352224D01*
X13952661Y-13342700D01*
X13971709Y-13333176D01*
X14209804Y-13333176D02*
X14171709Y-13333176D01*
X14152661Y-13342700D01*
X14143138Y-13352224D01*
X14124090Y-13380795D01*
X14114566Y-13418890D01*
X14114566Y-13495081D01*
X14124090Y-13514128D01*
X14133614Y-13523652D01*
X14152661Y-13533176D01*
X14190757Y-13533176D01*
X14209804Y-13523652D01*
X14219328Y-13514128D01*
X14228852Y-13495081D01*
X14228852Y-13447462D01*
X14219328Y-13428414D01*
X14209804Y-13418890D01*
X14190757Y-13409367D01*
X14152661Y-13409367D01*
X14133614Y-13418890D01*
X14124090Y-13428414D01*
X14114566Y-13447462D01*
X14295519Y-13333176D02*
X14419328Y-13333176D01*
X14352661Y-13409367D01*
X14381233Y-13409367D01*
X14400280Y-13418890D01*
X14409804Y-13428414D01*
X14419328Y-13447462D01*
X14419328Y-13495081D01*
X14409804Y-13514128D01*
X14400280Y-13523652D01*
X14381233Y-13533176D01*
X14324090Y-13533176D01*
X14305042Y-13523652D01*
X14295519Y-13514128D01*
X14543138Y-13333176D02*
X14562185Y-13333176D01*
X14581233Y-13342700D01*
X14590757Y-13352224D01*
X14600280Y-13371271D01*
X14609804Y-13409367D01*
X14609804Y-13456986D01*
X14600280Y-13495081D01*
X14590757Y-13514128D01*
X14581233Y-13523652D01*
X14562185Y-13533176D01*
X14543138Y-13533176D01*
X14524090Y-13523652D01*
X14514566Y-13514128D01*
X14505042Y-13495081D01*
X14495519Y-13456986D01*
X14495519Y-13409367D01*
X14505042Y-13371271D01*
X14514566Y-13352224D01*
X14524090Y-13342700D01*
X14543138Y-13333176D01*
X14685995Y-13333176D02*
X14685995Y-13371271D01*
X14762185Y-13333176D02*
X14762185Y-13371271D01*
X15057423Y-13609367D02*
X15047899Y-13599843D01*
X15028852Y-13571271D01*
X15019328Y-13552224D01*
X15009804Y-13523652D01*
X15000280Y-13476033D01*
X15000280Y-13437938D01*
X15009804Y-13390319D01*
X15019328Y-13361748D01*
X15028852Y-13342700D01*
X15047899Y-13314128D01*
X15057423Y-13304605D01*
X15228852Y-13333176D02*
X15133614Y-13333176D01*
X15124090Y-13428414D01*
X15133614Y-13418890D01*
X15152661Y-13409367D01*
X15200280Y-13409367D01*
X15219328Y-13418890D01*
X15228852Y-13428414D01*
X15238376Y-13447462D01*
X15238376Y-13495081D01*
X15228852Y-13514128D01*
X15219328Y-13523652D01*
X15200280Y-13533176D01*
X15152661Y-13533176D01*
X15133614Y-13523652D01*
X15124090Y-13514128D01*
X15476471Y-13533176D02*
X15476471Y-13333176D01*
X15562185Y-13533176D02*
X15562185Y-13428414D01*
X15552661Y-13409367D01*
X15533614Y-13399843D01*
X15505042Y-13399843D01*
X15485995Y-13409367D01*
X15476471Y-13418890D01*
X15685995Y-13533176D02*
X15666947Y-13523652D01*
X15657423Y-13514128D01*
X15647899Y-13495081D01*
X15647899Y-13437938D01*
X15657423Y-13418890D01*
X15666947Y-13409367D01*
X15685995Y-13399843D01*
X15714566Y-13399843D01*
X15733614Y-13409367D01*
X15743138Y-13418890D01*
X15752661Y-13437938D01*
X15752661Y-13495081D01*
X15743138Y-13514128D01*
X15733614Y-13523652D01*
X15714566Y-13533176D01*
X15685995Y-13533176D01*
X15866947Y-13533176D02*
X15847899Y-13523652D01*
X15838376Y-13504605D01*
X15838376Y-13333176D01*
X16019328Y-13523652D02*
X16000280Y-13533176D01*
X15962185Y-13533176D01*
X15943138Y-13523652D01*
X15933614Y-13504605D01*
X15933614Y-13428414D01*
X15943138Y-13409367D01*
X15962185Y-13399843D01*
X16000280Y-13399843D01*
X16019328Y-13409367D01*
X16028852Y-13428414D01*
X16028852Y-13447462D01*
X15933614Y-13466509D01*
X16105042Y-13523652D02*
X16124090Y-13533176D01*
X16162185Y-13533176D01*
X16181233Y-13523652D01*
X16190757Y-13504605D01*
X16190757Y-13495081D01*
X16181233Y-13476033D01*
X16162185Y-13466509D01*
X16133614Y-13466509D01*
X16114566Y-13456986D01*
X16105042Y-13437938D01*
X16105042Y-13428414D01*
X16114566Y-13409367D01*
X16133614Y-13399843D01*
X16162185Y-13399843D01*
X16181233Y-13409367D01*
X16257423Y-13609367D02*
X16266947Y-13599843D01*
X16285995Y-13571271D01*
X16295518Y-13552224D01*
X16305042Y-13523652D01*
X16314566Y-13476033D01*
X16314566Y-13437938D01*
X16305042Y-13390319D01*
X16295518Y-13361748D01*
X16285995Y-13342700D01*
X16266947Y-13314128D01*
X16257423Y-13304605D01*
M02*
