%TF.GenerationSoftware,KiCad,Pcbnew,(6.0.9)*%
%TF.CreationDate,2023-11-09T17:58:51+05:30*%
%TF.ProjectId,Modular-I2C-4PxRJ45-Relay-Driver,4d6f6475-6c61-4722-9d49-32432d345078,2*%
%TF.SameCoordinates,Original*%
%TF.FileFunction,Soldermask,Bot*%
%TF.FilePolarity,Negative*%
%FSLAX46Y46*%
G04 Gerber Fmt 4.6, Leading zero omitted, Abs format (unit mm)*
G04 Created by KiCad (PCBNEW (6.0.9)) date 2023-11-09 17:58:51*
%MOMM*%
%LPD*%
G01*
G04 APERTURE LIST*
G04 Aperture macros list*
%AMRoundRect*
0 Rectangle with rounded corners*
0 $1 Rounding radius*
0 $2 $3 $4 $5 $6 $7 $8 $9 X,Y pos of 4 corners*
0 Add a 4 corners polygon primitive as box body*
4,1,4,$2,$3,$4,$5,$6,$7,$8,$9,$2,$3,0*
0 Add four circle primitives for the rounded corners*
1,1,$1+$1,$2,$3*
1,1,$1+$1,$4,$5*
1,1,$1+$1,$6,$7*
1,1,$1+$1,$8,$9*
0 Add four rect primitives between the rounded corners*
20,1,$1+$1,$2,$3,$4,$5,0*
20,1,$1+$1,$4,$5,$6,$7,0*
20,1,$1+$1,$6,$7,$8,$9,0*
20,1,$1+$1,$8,$9,$2,$3,0*%
G04 Aperture macros list end*
%ADD10RoundRect,0.250000X0.600000X0.600000X-0.600000X0.600000X-0.600000X-0.600000X0.600000X-0.600000X0*%
%ADD11C,1.700000*%
%ADD12C,2.000000*%
%ADD13C,3.000000*%
G04 APERTURE END LIST*
D10*
%TO.C,J1*%
X159933600Y-34864000D03*
D11*
X157393600Y-34864000D03*
X159933600Y-32324000D03*
X157393600Y-32324000D03*
X159933600Y-29784000D03*
X157393600Y-29784000D03*
%TD*%
D12*
%TO.C,J11*%
X101496000Y-89437300D03*
X101496000Y-91937300D03*
X104996000Y-89437300D03*
X104996000Y-91937300D03*
X108496000Y-89437300D03*
X108496000Y-91937300D03*
X111996000Y-89437300D03*
X111996000Y-91937300D03*
%TD*%
%TO.C,J12*%
X116888400Y-89437300D03*
X116888400Y-91937300D03*
X120388400Y-89437300D03*
X120388400Y-91937300D03*
X123888400Y-89437300D03*
X123888400Y-91937300D03*
X127388400Y-89437300D03*
X127388400Y-91937300D03*
%TD*%
D13*
%TO.C,J4*%
X159367900Y-63133800D03*
X159367900Y-58135800D03*
%TD*%
D10*
%TO.C,J2*%
X101793000Y-34864000D03*
D11*
X99253000Y-34864000D03*
X101793000Y-32324000D03*
X99253000Y-32324000D03*
X101793000Y-29784000D03*
X99253000Y-29784000D03*
%TD*%
D12*
%TO.C,J14*%
X147622400Y-89538900D03*
X147622400Y-92038900D03*
X151122400Y-89538900D03*
X151122400Y-92038900D03*
X154622400Y-89538900D03*
X154622400Y-92038900D03*
X158122400Y-89538900D03*
X158122400Y-92038900D03*
%TD*%
%TO.C,J13*%
X132230000Y-89538900D03*
X132230000Y-92038900D03*
X135730000Y-89538900D03*
X135730000Y-92038900D03*
X139230000Y-89538900D03*
X139230000Y-92038900D03*
X142730000Y-89538900D03*
X142730000Y-92038900D03*
%TD*%
D13*
%TO.C,J3*%
X99938800Y-58069800D03*
X99938800Y-63067800D03*
%TD*%
M02*
