%TF.GenerationSoftware,KiCad,Pcbnew,(6.0.9)*%
%TF.CreationDate,2023-11-10T22:20:32+05:30*%
%TF.ProjectId,RJ45-To-Terminal,524a3435-2d54-46f2-9d54-65726d696e61,2*%
%TF.SameCoordinates,Original*%
%TF.FileFunction,Legend,Top*%
%TF.FilePolarity,Positive*%
%FSLAX46Y46*%
G04 Gerber Fmt 4.6, Leading zero omitted, Abs format (unit mm)*
G04 Created by KiCad (PCBNEW (6.0.9)) date 2023-11-10 22:20:32*
%MOMM*%
%LPD*%
G01*
G04 APERTURE LIST*
G04 Aperture macros list*
%AMRoundRect*
0 Rectangle with rounded corners*
0 $1 Rounding radius*
0 $2 $3 $4 $5 $6 $7 $8 $9 X,Y pos of 4 corners*
0 Add a 4 corners polygon primitive as box body*
4,1,4,$2,$3,$4,$5,$6,$7,$8,$9,$2,$3,0*
0 Add four circle primitives for the rounded corners*
1,1,$1+$1,$2,$3*
1,1,$1+$1,$4,$5*
1,1,$1+$1,$6,$7*
1,1,$1+$1,$8,$9*
0 Add four rect primitives between the rounded corners*
20,1,$1+$1,$2,$3,$4,$5,0*
20,1,$1+$1,$4,$5,$6,$7,0*
20,1,$1+$1,$6,$7,$8,$9,0*
20,1,$1+$1,$8,$9,$2,$3,0*%
G04 Aperture macros list end*
%ADD10C,0.300000*%
%ADD11C,0.200000*%
%ADD12C,0.254000*%
%ADD13C,0.120000*%
%ADD14C,2.600000*%
%ADD15C,1.500000*%
%ADD16C,3.250000*%
%ADD17RoundRect,0.218750X0.218750X0.256250X-0.218750X0.256250X-0.218750X-0.256250X0.218750X-0.256250X0*%
%ADD18RoundRect,0.200000X-0.200000X-0.275000X0.200000X-0.275000X0.200000X0.275000X-0.200000X0.275000X0*%
%ADD19C,2.000000*%
%ADD20R,2.000000X1.100000*%
%ADD21R,0.800000X0.800000*%
G04 APERTURE END LIST*
D10*
X159346171Y-87002971D02*
X158489028Y-87002971D01*
X158917600Y-87002971D02*
X158917600Y-85502971D01*
X158774742Y-85717257D01*
X158631885Y-85860114D01*
X158489028Y-85931542D01*
X113280114Y-85850571D02*
X113280114Y-86850571D01*
X112922971Y-85279142D02*
X112565828Y-86350571D01*
X113494400Y-86350571D01*
X143299828Y-85645828D02*
X143371257Y-85574400D01*
X143514114Y-85502971D01*
X143871257Y-85502971D01*
X144014114Y-85574400D01*
X144085542Y-85645828D01*
X144156971Y-85788685D01*
X144156971Y-85931542D01*
X144085542Y-86145828D01*
X143228400Y-87002971D01*
X144156971Y-87002971D01*
X127785200Y-85452171D02*
X128713771Y-85452171D01*
X128213771Y-86023600D01*
X128428057Y-86023600D01*
X128570914Y-86095028D01*
X128642342Y-86166457D01*
X128713771Y-86309314D01*
X128713771Y-86666457D01*
X128642342Y-86809314D01*
X128570914Y-86880742D01*
X128428057Y-86952171D01*
X127999485Y-86952171D01*
X127856628Y-86880742D01*
X127785200Y-86809314D01*
D11*
X102949219Y-85039104D02*
X103482552Y-85039104D01*
X103139695Y-85839104D01*
X105996838Y-85039104D02*
X105615885Y-85039104D01*
X105577790Y-85420057D01*
X105615885Y-85381961D01*
X105692076Y-85343866D01*
X105882552Y-85343866D01*
X105958742Y-85381961D01*
X105996838Y-85420057D01*
X106034933Y-85496247D01*
X106034933Y-85686723D01*
X105996838Y-85762914D01*
X105958742Y-85801009D01*
X105882552Y-85839104D01*
X105692076Y-85839104D01*
X105615885Y-85801009D01*
X105577790Y-85762914D01*
X108130171Y-85039104D02*
X108625409Y-85039104D01*
X108358742Y-85343866D01*
X108473028Y-85343866D01*
X108549219Y-85381961D01*
X108587314Y-85420057D01*
X108625409Y-85496247D01*
X108625409Y-85686723D01*
X108587314Y-85762914D01*
X108549219Y-85801009D01*
X108473028Y-85839104D01*
X108244457Y-85839104D01*
X108168266Y-85801009D01*
X108130171Y-85762914D01*
X111215885Y-85839104D02*
X110758742Y-85839104D01*
X110987314Y-85839104D02*
X110987314Y-85039104D01*
X110911123Y-85153390D01*
X110834933Y-85229580D01*
X110758742Y-85267676D01*
X103139695Y-86669961D02*
X103063504Y-86631866D01*
X103025409Y-86593771D01*
X102987314Y-86517580D01*
X102987314Y-86479485D01*
X103025409Y-86403295D01*
X103063504Y-86365200D01*
X103139695Y-86327104D01*
X103292076Y-86327104D01*
X103368266Y-86365200D01*
X103406361Y-86403295D01*
X103444457Y-86479485D01*
X103444457Y-86517580D01*
X103406361Y-86593771D01*
X103368266Y-86631866D01*
X103292076Y-86669961D01*
X103139695Y-86669961D01*
X103063504Y-86708057D01*
X103025409Y-86746152D01*
X102987314Y-86822342D01*
X102987314Y-86974723D01*
X103025409Y-87050914D01*
X103063504Y-87089009D01*
X103139695Y-87127104D01*
X103292076Y-87127104D01*
X103368266Y-87089009D01*
X103406361Y-87050914D01*
X103444457Y-86974723D01*
X103444457Y-86822342D01*
X103406361Y-86746152D01*
X103368266Y-86708057D01*
X103292076Y-86669961D01*
X105958742Y-86327104D02*
X105806361Y-86327104D01*
X105730171Y-86365200D01*
X105692076Y-86403295D01*
X105615885Y-86517580D01*
X105577790Y-86669961D01*
X105577790Y-86974723D01*
X105615885Y-87050914D01*
X105653980Y-87089009D01*
X105730171Y-87127104D01*
X105882552Y-87127104D01*
X105958742Y-87089009D01*
X105996838Y-87050914D01*
X106034933Y-86974723D01*
X106034933Y-86784247D01*
X105996838Y-86708057D01*
X105958742Y-86669961D01*
X105882552Y-86631866D01*
X105730171Y-86631866D01*
X105653980Y-86669961D01*
X105615885Y-86708057D01*
X105577790Y-86784247D01*
X108549219Y-86593771D02*
X108549219Y-87127104D01*
X108358742Y-86289009D02*
X108168266Y-86860438D01*
X108663504Y-86860438D01*
X110758742Y-86403295D02*
X110796838Y-86365200D01*
X110873028Y-86327104D01*
X111063504Y-86327104D01*
X111139695Y-86365200D01*
X111177790Y-86403295D01*
X111215885Y-86479485D01*
X111215885Y-86555676D01*
X111177790Y-86669961D01*
X110720647Y-87127104D01*
X111215885Y-87127104D01*
X118240019Y-85039104D02*
X118773352Y-85039104D01*
X118430495Y-85839104D01*
X121287638Y-85039104D02*
X120906685Y-85039104D01*
X120868590Y-85420057D01*
X120906685Y-85381961D01*
X120982876Y-85343866D01*
X121173352Y-85343866D01*
X121249542Y-85381961D01*
X121287638Y-85420057D01*
X121325733Y-85496247D01*
X121325733Y-85686723D01*
X121287638Y-85762914D01*
X121249542Y-85801009D01*
X121173352Y-85839104D01*
X120982876Y-85839104D01*
X120906685Y-85801009D01*
X120868590Y-85762914D01*
X123420971Y-85039104D02*
X123916209Y-85039104D01*
X123649542Y-85343866D01*
X123763828Y-85343866D01*
X123840019Y-85381961D01*
X123878114Y-85420057D01*
X123916209Y-85496247D01*
X123916209Y-85686723D01*
X123878114Y-85762914D01*
X123840019Y-85801009D01*
X123763828Y-85839104D01*
X123535257Y-85839104D01*
X123459066Y-85801009D01*
X123420971Y-85762914D01*
X126506685Y-85839104D02*
X126049542Y-85839104D01*
X126278114Y-85839104D02*
X126278114Y-85039104D01*
X126201923Y-85153390D01*
X126125733Y-85229580D01*
X126049542Y-85267676D01*
X118430495Y-86669961D02*
X118354304Y-86631866D01*
X118316209Y-86593771D01*
X118278114Y-86517580D01*
X118278114Y-86479485D01*
X118316209Y-86403295D01*
X118354304Y-86365200D01*
X118430495Y-86327104D01*
X118582876Y-86327104D01*
X118659066Y-86365200D01*
X118697161Y-86403295D01*
X118735257Y-86479485D01*
X118735257Y-86517580D01*
X118697161Y-86593771D01*
X118659066Y-86631866D01*
X118582876Y-86669961D01*
X118430495Y-86669961D01*
X118354304Y-86708057D01*
X118316209Y-86746152D01*
X118278114Y-86822342D01*
X118278114Y-86974723D01*
X118316209Y-87050914D01*
X118354304Y-87089009D01*
X118430495Y-87127104D01*
X118582876Y-87127104D01*
X118659066Y-87089009D01*
X118697161Y-87050914D01*
X118735257Y-86974723D01*
X118735257Y-86822342D01*
X118697161Y-86746152D01*
X118659066Y-86708057D01*
X118582876Y-86669961D01*
X121249542Y-86327104D02*
X121097161Y-86327104D01*
X121020971Y-86365200D01*
X120982876Y-86403295D01*
X120906685Y-86517580D01*
X120868590Y-86669961D01*
X120868590Y-86974723D01*
X120906685Y-87050914D01*
X120944780Y-87089009D01*
X121020971Y-87127104D01*
X121173352Y-87127104D01*
X121249542Y-87089009D01*
X121287638Y-87050914D01*
X121325733Y-86974723D01*
X121325733Y-86784247D01*
X121287638Y-86708057D01*
X121249542Y-86669961D01*
X121173352Y-86631866D01*
X121020971Y-86631866D01*
X120944780Y-86669961D01*
X120906685Y-86708057D01*
X120868590Y-86784247D01*
X123840019Y-86593771D02*
X123840019Y-87127104D01*
X123649542Y-86289009D02*
X123459066Y-86860438D01*
X123954304Y-86860438D01*
X126049542Y-86403295D02*
X126087638Y-86365200D01*
X126163828Y-86327104D01*
X126354304Y-86327104D01*
X126430495Y-86365200D01*
X126468590Y-86403295D01*
X126506685Y-86479485D01*
X126506685Y-86555676D01*
X126468590Y-86669961D01*
X126011447Y-87127104D01*
X126506685Y-87127104D01*
X133022819Y-85039104D02*
X133556152Y-85039104D01*
X133213295Y-85839104D01*
X136070438Y-85039104D02*
X135689485Y-85039104D01*
X135651390Y-85420057D01*
X135689485Y-85381961D01*
X135765676Y-85343866D01*
X135956152Y-85343866D01*
X136032342Y-85381961D01*
X136070438Y-85420057D01*
X136108533Y-85496247D01*
X136108533Y-85686723D01*
X136070438Y-85762914D01*
X136032342Y-85801009D01*
X135956152Y-85839104D01*
X135765676Y-85839104D01*
X135689485Y-85801009D01*
X135651390Y-85762914D01*
X138203771Y-85039104D02*
X138699009Y-85039104D01*
X138432342Y-85343866D01*
X138546628Y-85343866D01*
X138622819Y-85381961D01*
X138660914Y-85420057D01*
X138699009Y-85496247D01*
X138699009Y-85686723D01*
X138660914Y-85762914D01*
X138622819Y-85801009D01*
X138546628Y-85839104D01*
X138318057Y-85839104D01*
X138241866Y-85801009D01*
X138203771Y-85762914D01*
X141289485Y-85839104D02*
X140832342Y-85839104D01*
X141060914Y-85839104D02*
X141060914Y-85039104D01*
X140984723Y-85153390D01*
X140908533Y-85229580D01*
X140832342Y-85267676D01*
X133213295Y-86669961D02*
X133137104Y-86631866D01*
X133099009Y-86593771D01*
X133060914Y-86517580D01*
X133060914Y-86479485D01*
X133099009Y-86403295D01*
X133137104Y-86365200D01*
X133213295Y-86327104D01*
X133365676Y-86327104D01*
X133441866Y-86365200D01*
X133479961Y-86403295D01*
X133518057Y-86479485D01*
X133518057Y-86517580D01*
X133479961Y-86593771D01*
X133441866Y-86631866D01*
X133365676Y-86669961D01*
X133213295Y-86669961D01*
X133137104Y-86708057D01*
X133099009Y-86746152D01*
X133060914Y-86822342D01*
X133060914Y-86974723D01*
X133099009Y-87050914D01*
X133137104Y-87089009D01*
X133213295Y-87127104D01*
X133365676Y-87127104D01*
X133441866Y-87089009D01*
X133479961Y-87050914D01*
X133518057Y-86974723D01*
X133518057Y-86822342D01*
X133479961Y-86746152D01*
X133441866Y-86708057D01*
X133365676Y-86669961D01*
X136032342Y-86327104D02*
X135879961Y-86327104D01*
X135803771Y-86365200D01*
X135765676Y-86403295D01*
X135689485Y-86517580D01*
X135651390Y-86669961D01*
X135651390Y-86974723D01*
X135689485Y-87050914D01*
X135727580Y-87089009D01*
X135803771Y-87127104D01*
X135956152Y-87127104D01*
X136032342Y-87089009D01*
X136070438Y-87050914D01*
X136108533Y-86974723D01*
X136108533Y-86784247D01*
X136070438Y-86708057D01*
X136032342Y-86669961D01*
X135956152Y-86631866D01*
X135803771Y-86631866D01*
X135727580Y-86669961D01*
X135689485Y-86708057D01*
X135651390Y-86784247D01*
X138622819Y-86593771D02*
X138622819Y-87127104D01*
X138432342Y-86289009D02*
X138241866Y-86860438D01*
X138737104Y-86860438D01*
X140832342Y-86403295D02*
X140870438Y-86365200D01*
X140946628Y-86327104D01*
X141137104Y-86327104D01*
X141213295Y-86365200D01*
X141251390Y-86403295D01*
X141289485Y-86479485D01*
X141289485Y-86555676D01*
X141251390Y-86669961D01*
X140794247Y-87127104D01*
X141289485Y-87127104D01*
X148618419Y-85039104D02*
X149151752Y-85039104D01*
X148808895Y-85839104D01*
X151666038Y-85039104D02*
X151285085Y-85039104D01*
X151246990Y-85420057D01*
X151285085Y-85381961D01*
X151361276Y-85343866D01*
X151551752Y-85343866D01*
X151627942Y-85381961D01*
X151666038Y-85420057D01*
X151704133Y-85496247D01*
X151704133Y-85686723D01*
X151666038Y-85762914D01*
X151627942Y-85801009D01*
X151551752Y-85839104D01*
X151361276Y-85839104D01*
X151285085Y-85801009D01*
X151246990Y-85762914D01*
X153799371Y-85039104D02*
X154294609Y-85039104D01*
X154027942Y-85343866D01*
X154142228Y-85343866D01*
X154218419Y-85381961D01*
X154256514Y-85420057D01*
X154294609Y-85496247D01*
X154294609Y-85686723D01*
X154256514Y-85762914D01*
X154218419Y-85801009D01*
X154142228Y-85839104D01*
X153913657Y-85839104D01*
X153837466Y-85801009D01*
X153799371Y-85762914D01*
X156885085Y-85839104D02*
X156427942Y-85839104D01*
X156656514Y-85839104D02*
X156656514Y-85039104D01*
X156580323Y-85153390D01*
X156504133Y-85229580D01*
X156427942Y-85267676D01*
X148808895Y-86669961D02*
X148732704Y-86631866D01*
X148694609Y-86593771D01*
X148656514Y-86517580D01*
X148656514Y-86479485D01*
X148694609Y-86403295D01*
X148732704Y-86365200D01*
X148808895Y-86327104D01*
X148961276Y-86327104D01*
X149037466Y-86365200D01*
X149075561Y-86403295D01*
X149113657Y-86479485D01*
X149113657Y-86517580D01*
X149075561Y-86593771D01*
X149037466Y-86631866D01*
X148961276Y-86669961D01*
X148808895Y-86669961D01*
X148732704Y-86708057D01*
X148694609Y-86746152D01*
X148656514Y-86822342D01*
X148656514Y-86974723D01*
X148694609Y-87050914D01*
X148732704Y-87089009D01*
X148808895Y-87127104D01*
X148961276Y-87127104D01*
X149037466Y-87089009D01*
X149075561Y-87050914D01*
X149113657Y-86974723D01*
X149113657Y-86822342D01*
X149075561Y-86746152D01*
X149037466Y-86708057D01*
X148961276Y-86669961D01*
X151627942Y-86327104D02*
X151475561Y-86327104D01*
X151399371Y-86365200D01*
X151361276Y-86403295D01*
X151285085Y-86517580D01*
X151246990Y-86669961D01*
X151246990Y-86974723D01*
X151285085Y-87050914D01*
X151323180Y-87089009D01*
X151399371Y-87127104D01*
X151551752Y-87127104D01*
X151627942Y-87089009D01*
X151666038Y-87050914D01*
X151704133Y-86974723D01*
X151704133Y-86784247D01*
X151666038Y-86708057D01*
X151627942Y-86669961D01*
X151551752Y-86631866D01*
X151399371Y-86631866D01*
X151323180Y-86669961D01*
X151285085Y-86708057D01*
X151246990Y-86784247D01*
X154218419Y-86593771D02*
X154218419Y-87127104D01*
X154027942Y-86289009D02*
X153837466Y-86860438D01*
X154332704Y-86860438D01*
X156427942Y-86403295D02*
X156466038Y-86365200D01*
X156542228Y-86327104D01*
X156732704Y-86327104D01*
X156808895Y-86365200D01*
X156846990Y-86403295D01*
X156885085Y-86479485D01*
X156885085Y-86555676D01*
X156846990Y-86669961D01*
X156389847Y-87127104D01*
X156885085Y-87127104D01*
X169852819Y-105206704D02*
X170386152Y-105206704D01*
X170043295Y-106006704D01*
X172900438Y-105206704D02*
X172519485Y-105206704D01*
X172481390Y-105587657D01*
X172519485Y-105549561D01*
X172595676Y-105511466D01*
X172786152Y-105511466D01*
X172862342Y-105549561D01*
X172900438Y-105587657D01*
X172938533Y-105663847D01*
X172938533Y-105854323D01*
X172900438Y-105930514D01*
X172862342Y-105968609D01*
X172786152Y-106006704D01*
X172595676Y-106006704D01*
X172519485Y-105968609D01*
X172481390Y-105930514D01*
X175033771Y-105206704D02*
X175529009Y-105206704D01*
X175262342Y-105511466D01*
X175376628Y-105511466D01*
X175452819Y-105549561D01*
X175490914Y-105587657D01*
X175529009Y-105663847D01*
X175529009Y-105854323D01*
X175490914Y-105930514D01*
X175452819Y-105968609D01*
X175376628Y-106006704D01*
X175148057Y-106006704D01*
X175071866Y-105968609D01*
X175033771Y-105930514D01*
X178119485Y-106006704D02*
X177662342Y-106006704D01*
X177890914Y-106006704D02*
X177890914Y-105206704D01*
X177814723Y-105320990D01*
X177738533Y-105397180D01*
X177662342Y-105435276D01*
X170043295Y-106837561D02*
X169967104Y-106799466D01*
X169929009Y-106761371D01*
X169890914Y-106685180D01*
X169890914Y-106647085D01*
X169929009Y-106570895D01*
X169967104Y-106532800D01*
X170043295Y-106494704D01*
X170195676Y-106494704D01*
X170271866Y-106532800D01*
X170309961Y-106570895D01*
X170348057Y-106647085D01*
X170348057Y-106685180D01*
X170309961Y-106761371D01*
X170271866Y-106799466D01*
X170195676Y-106837561D01*
X170043295Y-106837561D01*
X169967104Y-106875657D01*
X169929009Y-106913752D01*
X169890914Y-106989942D01*
X169890914Y-107142323D01*
X169929009Y-107218514D01*
X169967104Y-107256609D01*
X170043295Y-107294704D01*
X170195676Y-107294704D01*
X170271866Y-107256609D01*
X170309961Y-107218514D01*
X170348057Y-107142323D01*
X170348057Y-106989942D01*
X170309961Y-106913752D01*
X170271866Y-106875657D01*
X170195676Y-106837561D01*
X172862342Y-106494704D02*
X172709961Y-106494704D01*
X172633771Y-106532800D01*
X172595676Y-106570895D01*
X172519485Y-106685180D01*
X172481390Y-106837561D01*
X172481390Y-107142323D01*
X172519485Y-107218514D01*
X172557580Y-107256609D01*
X172633771Y-107294704D01*
X172786152Y-107294704D01*
X172862342Y-107256609D01*
X172900438Y-107218514D01*
X172938533Y-107142323D01*
X172938533Y-106951847D01*
X172900438Y-106875657D01*
X172862342Y-106837561D01*
X172786152Y-106799466D01*
X172633771Y-106799466D01*
X172557580Y-106837561D01*
X172519485Y-106875657D01*
X172481390Y-106951847D01*
X175452819Y-106761371D02*
X175452819Y-107294704D01*
X175262342Y-106456609D02*
X175071866Y-107028038D01*
X175567104Y-107028038D01*
X177662342Y-106570895D02*
X177700438Y-106532800D01*
X177776628Y-106494704D01*
X177967104Y-106494704D01*
X178043295Y-106532800D01*
X178081390Y-106570895D01*
X178119485Y-106647085D01*
X178119485Y-106723276D01*
X178081390Y-106837561D01*
X177624247Y-107294704D01*
X178119485Y-107294704D01*
X184204386Y-96956505D02*
X183747243Y-96956505D01*
X183975815Y-96956505D02*
X183975815Y-96156505D01*
X183899624Y-96270791D01*
X183823434Y-96346981D01*
X183747243Y-96385077D01*
X185690100Y-96156505D02*
X186185339Y-96156505D01*
X185918672Y-96461267D01*
X186032958Y-96461267D01*
X186109148Y-96499362D01*
X186147243Y-96537458D01*
X186185339Y-96613648D01*
X186185339Y-96804124D01*
X186147243Y-96880315D01*
X186109148Y-96918410D01*
X186032958Y-96956505D01*
X185804386Y-96956505D01*
X185728196Y-96918410D01*
X185690100Y-96880315D01*
X188128196Y-96156505D02*
X187747243Y-96156505D01*
X187709148Y-96537458D01*
X187747243Y-96499362D01*
X187823434Y-96461267D01*
X188013910Y-96461267D01*
X188090100Y-96499362D01*
X188128196Y-96537458D01*
X188166291Y-96613648D01*
X188166291Y-96804124D01*
X188128196Y-96880315D01*
X188090100Y-96918410D01*
X188013910Y-96956505D01*
X187823434Y-96956505D01*
X187747243Y-96918410D01*
X187709148Y-96880315D01*
X189652005Y-96156505D02*
X190185339Y-96156505D01*
X189842481Y-96956505D01*
X183747243Y-97520696D02*
X183785339Y-97482601D01*
X183861529Y-97444505D01*
X184052005Y-97444505D01*
X184128196Y-97482601D01*
X184166291Y-97520696D01*
X184204386Y-97596886D01*
X184204386Y-97673077D01*
X184166291Y-97787362D01*
X183709148Y-98244505D01*
X184204386Y-98244505D01*
X186109148Y-97711172D02*
X186109148Y-98244505D01*
X185918672Y-97406410D02*
X185728196Y-97977839D01*
X186223434Y-97977839D01*
X188090100Y-97444505D02*
X187937720Y-97444505D01*
X187861529Y-97482601D01*
X187823434Y-97520696D01*
X187747243Y-97634981D01*
X187709148Y-97787362D01*
X187709148Y-98092124D01*
X187747243Y-98168315D01*
X187785339Y-98206410D01*
X187861529Y-98244505D01*
X188013910Y-98244505D01*
X188090100Y-98206410D01*
X188128196Y-98168315D01*
X188166291Y-98092124D01*
X188166291Y-97901648D01*
X188128196Y-97825458D01*
X188090100Y-97787362D01*
X188013910Y-97749267D01*
X187861529Y-97749267D01*
X187785339Y-97787362D01*
X187747243Y-97825458D01*
X187709148Y-97901648D01*
X189842481Y-97787362D02*
X189766291Y-97749267D01*
X189728196Y-97711172D01*
X189690100Y-97634981D01*
X189690100Y-97596886D01*
X189728196Y-97520696D01*
X189766291Y-97482601D01*
X189842481Y-97444505D01*
X189994862Y-97444505D01*
X190071053Y-97482601D01*
X190109148Y-97520696D01*
X190147243Y-97596886D01*
X190147243Y-97634981D01*
X190109148Y-97711172D01*
X190071053Y-97749267D01*
X189994862Y-97787362D01*
X189842481Y-97787362D01*
X189766291Y-97825458D01*
X189728196Y-97863553D01*
X189690100Y-97939743D01*
X189690100Y-98092124D01*
X189728196Y-98168315D01*
X189766291Y-98206410D01*
X189842481Y-98244505D01*
X189994862Y-98244505D01*
X190071053Y-98206410D01*
X190109148Y-98168315D01*
X190147243Y-98092124D01*
X190147243Y-97939743D01*
X190109148Y-97863553D01*
X190071053Y-97825458D01*
X189994862Y-97787362D01*
X146116609Y-65350361D02*
X146040419Y-65312266D01*
X146002323Y-65274171D01*
X145964228Y-65197980D01*
X145964228Y-65159885D01*
X146002323Y-65083695D01*
X146040419Y-65045600D01*
X146116609Y-65007504D01*
X146268990Y-65007504D01*
X146345180Y-65045600D01*
X146383276Y-65083695D01*
X146421371Y-65159885D01*
X146421371Y-65197980D01*
X146383276Y-65274171D01*
X146345180Y-65312266D01*
X146268990Y-65350361D01*
X146116609Y-65350361D01*
X146040419Y-65388457D01*
X146002323Y-65426552D01*
X145964228Y-65502742D01*
X145964228Y-65655123D01*
X146002323Y-65731314D01*
X146040419Y-65769409D01*
X146116609Y-65807504D01*
X146268990Y-65807504D01*
X146345180Y-65769409D01*
X146383276Y-65731314D01*
X146421371Y-65655123D01*
X146421371Y-65502742D01*
X146383276Y-65426552D01*
X146345180Y-65388457D01*
X146268990Y-65350361D01*
X147297561Y-65007504D02*
X147830895Y-65007504D01*
X147488038Y-65807504D01*
X149088038Y-65007504D02*
X148935657Y-65007504D01*
X148859466Y-65045600D01*
X148821371Y-65083695D01*
X148745180Y-65197980D01*
X148707085Y-65350361D01*
X148707085Y-65655123D01*
X148745180Y-65731314D01*
X148783276Y-65769409D01*
X148859466Y-65807504D01*
X149011847Y-65807504D01*
X149088038Y-65769409D01*
X149126133Y-65731314D01*
X149164228Y-65655123D01*
X149164228Y-65464647D01*
X149126133Y-65388457D01*
X149088038Y-65350361D01*
X149011847Y-65312266D01*
X148859466Y-65312266D01*
X148783276Y-65350361D01*
X148745180Y-65388457D01*
X148707085Y-65464647D01*
X150497561Y-65007504D02*
X150116609Y-65007504D01*
X150078514Y-65388457D01*
X150116609Y-65350361D01*
X150192800Y-65312266D01*
X150383276Y-65312266D01*
X150459466Y-65350361D01*
X150497561Y-65388457D01*
X150535657Y-65464647D01*
X150535657Y-65655123D01*
X150497561Y-65731314D01*
X150459466Y-65769409D01*
X150383276Y-65807504D01*
X150192800Y-65807504D01*
X150116609Y-65769409D01*
X150078514Y-65731314D01*
X151830895Y-65274171D02*
X151830895Y-65807504D01*
X151640419Y-64969409D02*
X151449942Y-65540838D01*
X151945180Y-65540838D01*
X152783276Y-65007504D02*
X153278514Y-65007504D01*
X153011847Y-65312266D01*
X153126133Y-65312266D01*
X153202323Y-65350361D01*
X153240419Y-65388457D01*
X153278514Y-65464647D01*
X153278514Y-65655123D01*
X153240419Y-65731314D01*
X153202323Y-65769409D01*
X153126133Y-65807504D01*
X152897561Y-65807504D01*
X152821371Y-65769409D01*
X152783276Y-65731314D01*
X154192800Y-65083695D02*
X154230895Y-65045600D01*
X154307085Y-65007504D01*
X154497561Y-65007504D01*
X154573752Y-65045600D01*
X154611847Y-65083695D01*
X154649942Y-65159885D01*
X154649942Y-65236076D01*
X154611847Y-65350361D01*
X154154704Y-65807504D01*
X154649942Y-65807504D01*
X156021371Y-65807504D02*
X155564228Y-65807504D01*
X155792800Y-65807504D02*
X155792800Y-65007504D01*
X155716609Y-65121790D01*
X155640419Y-65197980D01*
X155564228Y-65236076D01*
D10*
X113838914Y-65022571D02*
X113838914Y-66022571D01*
X113481771Y-64451142D02*
X113124628Y-65522571D01*
X114053200Y-65522571D01*
X160682971Y-85517142D02*
X161825828Y-85517142D01*
X161254400Y-86088571D02*
X161254400Y-84945714D01*
X160682971Y-87091942D02*
X161825828Y-87091942D01*
X126870800Y-64522571D02*
X127799371Y-64522571D01*
X127299371Y-65094000D01*
X127513657Y-65094000D01*
X127656514Y-65165428D01*
X127727942Y-65236857D01*
X127799371Y-65379714D01*
X127799371Y-65736857D01*
X127727942Y-65879714D01*
X127656514Y-65951142D01*
X127513657Y-66022571D01*
X127085085Y-66022571D01*
X126942228Y-65951142D01*
X126870800Y-65879714D01*
X96928971Y-85567942D02*
X98071828Y-85567942D01*
X97500400Y-86139371D02*
X97500400Y-84996514D01*
X96928971Y-87142742D02*
X98071828Y-87142742D01*
X141115428Y-64716228D02*
X141186857Y-64644800D01*
X141329714Y-64573371D01*
X141686857Y-64573371D01*
X141829714Y-64644800D01*
X141901142Y-64716228D01*
X141972571Y-64859085D01*
X141972571Y-65001942D01*
X141901142Y-65216228D01*
X141044000Y-66073371D01*
X141972571Y-66073371D01*
X159142971Y-66124171D02*
X158285828Y-66124171D01*
X158714400Y-66124171D02*
X158714400Y-64624171D01*
X158571542Y-64838457D01*
X158428685Y-64981314D01*
X158285828Y-65052742D01*
%TO.C,G\u002A\u002A\u002A*%
G36*
X171092285Y-27680562D02*
G01*
X170635410Y-27675087D01*
X170781660Y-27571725D01*
X170836738Y-27532589D01*
X170924309Y-27470074D01*
X171043800Y-27384591D01*
X171194636Y-27276552D01*
X171376242Y-27146370D01*
X171588044Y-26994456D01*
X171829468Y-26821224D01*
X172099939Y-26627084D01*
X172398883Y-26412450D01*
X172725724Y-26177733D01*
X173079890Y-25923345D01*
X173460804Y-25649699D01*
X173581022Y-25563327D01*
X173764485Y-25431927D01*
X173938789Y-25307887D01*
X174101031Y-25193221D01*
X174248306Y-25089944D01*
X174377710Y-25000071D01*
X174486339Y-24925616D01*
X174571290Y-24868594D01*
X174629658Y-24831018D01*
X174658539Y-24814904D01*
X174660573Y-24814435D01*
X174684226Y-24826258D01*
X174737221Y-24859560D01*
X174815947Y-24911865D01*
X174916796Y-24980698D01*
X175036159Y-25063581D01*
X175170427Y-25158039D01*
X175315991Y-25261594D01*
X175398880Y-25321043D01*
X176101607Y-25826474D01*
X176111791Y-25487910D01*
X176121976Y-25149346D01*
X177221896Y-25149346D01*
X177234514Y-26636274D01*
X177380971Y-26739919D01*
X177432845Y-26776806D01*
X177512682Y-26833809D01*
X177615368Y-26907265D01*
X177735787Y-26993511D01*
X177868824Y-27088883D01*
X178009365Y-27189720D01*
X178106307Y-27259325D01*
X178685186Y-27675087D01*
X178243797Y-27680577D01*
X177802409Y-27686066D01*
X177801259Y-30022999D01*
X177800961Y-30406508D01*
X177800452Y-30750926D01*
X177799716Y-31057898D01*
X177798734Y-31329070D01*
X177797489Y-31566087D01*
X177795964Y-31770595D01*
X177794142Y-31944239D01*
X177792005Y-32088666D01*
X177789535Y-32205520D01*
X177786715Y-32296448D01*
X177783528Y-32363096D01*
X177779957Y-32407108D01*
X177775984Y-32430130D01*
X177775798Y-32430691D01*
X177745492Y-32485863D01*
X177704355Y-32525075D01*
X177700564Y-32527143D01*
X177685710Y-32530789D01*
X177655172Y-32534099D01*
X177607275Y-32537087D01*
X177540345Y-32539768D01*
X177452708Y-32542154D01*
X177342690Y-32544262D01*
X177208618Y-32546105D01*
X177048815Y-32547698D01*
X176861610Y-32549054D01*
X176645327Y-32550188D01*
X176398292Y-32551115D01*
X176118831Y-32551849D01*
X175805270Y-32552403D01*
X175455936Y-32552793D01*
X175069152Y-32553033D01*
X174658941Y-32553135D01*
X171668241Y-32553435D01*
X171608701Y-32493896D01*
X171549161Y-32434356D01*
X171549161Y-28377814D01*
X171895432Y-28377814D01*
X172352774Y-28377814D01*
X172500445Y-28524499D01*
X172648116Y-28671185D01*
X172800217Y-28672174D01*
X172879687Y-28673840D01*
X172931562Y-28680354D01*
X172968982Y-28695897D01*
X173005083Y-28724649D01*
X173025150Y-28743739D01*
X173090719Y-28830826D01*
X173121741Y-28925053D01*
X173121621Y-29019993D01*
X173093762Y-29109215D01*
X173041570Y-29186293D01*
X172968449Y-29244795D01*
X172877801Y-29278296D01*
X172773032Y-29280364D01*
X172743864Y-29274952D01*
X172642591Y-29233409D01*
X172568551Y-29163142D01*
X172523950Y-29067571D01*
X172513023Y-28968512D01*
X172669450Y-28968512D01*
X172686379Y-29018343D01*
X172727808Y-29067607D01*
X172779694Y-29102540D01*
X172814885Y-29111094D01*
X172861955Y-29097540D01*
X172907471Y-29066805D01*
X172947763Y-29006019D01*
X172950562Y-28941144D01*
X172916182Y-28881720D01*
X172900945Y-28868145D01*
X172852170Y-28838587D01*
X172809081Y-28825936D01*
X172808359Y-28825929D01*
X172761780Y-28842528D01*
X172714093Y-28882889D01*
X172679088Y-28932857D01*
X172669450Y-28968512D01*
X172513023Y-28968512D01*
X172510994Y-28950118D01*
X172513022Y-28917049D01*
X172524695Y-28792046D01*
X172397927Y-28666405D01*
X172271160Y-28540765D01*
X171895432Y-28540765D01*
X171895432Y-32207164D01*
X172608343Y-32207164D01*
X172608343Y-31768313D01*
X172539845Y-31731424D01*
X172468544Y-31672355D01*
X172414714Y-31587989D01*
X172386557Y-31492698D01*
X172385368Y-31474988D01*
X172567876Y-31474988D01*
X172576466Y-31534332D01*
X172583769Y-31549253D01*
X172620567Y-31579015D01*
X172675268Y-31599253D01*
X172725114Y-31602019D01*
X172730556Y-31600510D01*
X172770632Y-31578858D01*
X172796755Y-31559291D01*
X172825080Y-31511305D01*
X172830293Y-31447943D01*
X172812209Y-31387502D01*
X172798690Y-31368552D01*
X172747479Y-31338816D01*
X172681992Y-31333600D01*
X172620738Y-31353242D01*
X172604855Y-31365012D01*
X172578148Y-31411478D01*
X172567876Y-31474988D01*
X172385368Y-31474988D01*
X172384285Y-31458847D01*
X172403411Y-31364934D01*
X172456948Y-31274210D01*
X172533453Y-31200777D01*
X172606295Y-31168036D01*
X172696519Y-31156509D01*
X172787152Y-31166231D01*
X172861216Y-31197230D01*
X172865294Y-31200163D01*
X172944376Y-31272524D01*
X172989038Y-31350289D01*
X173005198Y-31444577D01*
X173005536Y-31463700D01*
X172991908Y-31568025D01*
X172947824Y-31650916D01*
X172868487Y-31720922D01*
X172856944Y-31728495D01*
X172793232Y-31769233D01*
X172792448Y-31988199D01*
X172791663Y-32207164D01*
X177456964Y-32207164D01*
X177451459Y-31784510D01*
X177445953Y-31361856D01*
X177166251Y-31351671D01*
X176886548Y-31341487D01*
X176718135Y-31174417D01*
X176645755Y-31103160D01*
X176594826Y-31056147D01*
X176557959Y-31028850D01*
X176527764Y-31016740D01*
X176496852Y-31015292D01*
X176464554Y-31019052D01*
X176385825Y-31019770D01*
X176308020Y-30995128D01*
X176291418Y-30987229D01*
X176202064Y-30928737D01*
X176146505Y-30854579D01*
X176118932Y-30756134D01*
X176116802Y-30736529D01*
X176283920Y-30736529D01*
X176285742Y-30743174D01*
X176323096Y-30803524D01*
X176380880Y-30836893D01*
X176447026Y-30840256D01*
X176509463Y-30810586D01*
X176519169Y-30801711D01*
X176554553Y-30743420D01*
X176556897Y-30682164D01*
X176532183Y-30626679D01*
X176486392Y-30585698D01*
X176425508Y-30567957D01*
X176365860Y-30577860D01*
X176317231Y-30615449D01*
X176286988Y-30674386D01*
X176283920Y-30736529D01*
X176116802Y-30736529D01*
X176115712Y-30726500D01*
X176113695Y-30653079D01*
X176125678Y-30598732D01*
X176156364Y-30542870D01*
X176158353Y-30539851D01*
X176234823Y-30458960D01*
X176332648Y-30408819D01*
X176426507Y-30394333D01*
X176528449Y-30412425D01*
X176615400Y-30461698D01*
X176682207Y-30534649D01*
X176723716Y-30623773D01*
X176734777Y-30721566D01*
X176713695Y-30812592D01*
X176681456Y-30889751D01*
X176981814Y-31190109D01*
X177213884Y-31184322D01*
X177445953Y-31178536D01*
X177445953Y-27715825D01*
X176671936Y-27715825D01*
X176666223Y-27964500D01*
X176660511Y-28213175D01*
X176720439Y-28244165D01*
X176807641Y-28309749D01*
X176864524Y-28395520D01*
X176889708Y-28493090D01*
X176881814Y-28594073D01*
X176839462Y-28690081D01*
X176801540Y-28737151D01*
X176711627Y-28803815D01*
X176611344Y-28834317D01*
X176508561Y-28828553D01*
X176411146Y-28786423D01*
X176357785Y-28742887D01*
X176293650Y-28653487D01*
X176265671Y-28555430D01*
X176267874Y-28523250D01*
X176437693Y-28523250D01*
X176451247Y-28570319D01*
X176481982Y-28615835D01*
X176542768Y-28656127D01*
X176607643Y-28658926D01*
X176667067Y-28624546D01*
X176680642Y-28609309D01*
X176710200Y-28560534D01*
X176722851Y-28517445D01*
X176722858Y-28516723D01*
X176706259Y-28470144D01*
X176665898Y-28422457D01*
X176615930Y-28387452D01*
X176580276Y-28377814D01*
X176530445Y-28394744D01*
X176481180Y-28436172D01*
X176446247Y-28488058D01*
X176437693Y-28523250D01*
X176267874Y-28523250D01*
X176272482Y-28455927D01*
X176312718Y-28362189D01*
X176385014Y-28281428D01*
X176453589Y-28236673D01*
X176473017Y-28224858D01*
X176485886Y-28208232D01*
X176493301Y-28179397D01*
X176496369Y-28130950D01*
X176496199Y-28055491D01*
X176494326Y-27964296D01*
X176488616Y-27715825D01*
X174192024Y-27710645D01*
X171895432Y-27705466D01*
X171895432Y-28377814D01*
X171549161Y-28377814D01*
X171549161Y-27686037D01*
X171092285Y-27680562D01*
G37*
G36*
X177323592Y-35490274D02*
G01*
X177396019Y-35422771D01*
X177498244Y-35366168D01*
X177504585Y-35363338D01*
X177609496Y-35331781D01*
X177734609Y-35316716D01*
X177862291Y-35319538D01*
X177929714Y-35329737D01*
X177979302Y-35338004D01*
X178000925Y-35331239D01*
X178006044Y-35304659D01*
X178006098Y-35297866D01*
X177998315Y-35240001D01*
X177970975Y-35201990D01*
X177918094Y-35180336D01*
X177833686Y-35171539D01*
X177788733Y-35170837D01*
X177699356Y-35173077D01*
X177634855Y-35182067D01*
X177579507Y-35201210D01*
X177529955Y-35226852D01*
X177474232Y-35257495D01*
X177434573Y-35277841D01*
X177422167Y-35282866D01*
X177410386Y-35265727D01*
X177387073Y-35220467D01*
X177356945Y-35156323D01*
X177352270Y-35145959D01*
X177321457Y-35074593D01*
X177308634Y-35025965D01*
X177318158Y-34991819D01*
X177354387Y-34963902D01*
X177421679Y-34933960D01*
X177475288Y-34912946D01*
X177584282Y-34882609D01*
X177717132Y-34863626D01*
X177858658Y-34856682D01*
X177993678Y-34862465D01*
X178107010Y-34881661D01*
X178115397Y-34884003D01*
X178231632Y-34929725D01*
X178321723Y-34994004D01*
X178388241Y-35081027D01*
X178433756Y-35194984D01*
X178460840Y-35340061D01*
X178470191Y-35461971D01*
X178475079Y-35562192D01*
X178480385Y-35629235D01*
X178487865Y-35670635D01*
X178499276Y-35693930D01*
X178516376Y-35706656D01*
X178528416Y-35711720D01*
X178551270Y-35722915D01*
X178565424Y-35741071D01*
X178572953Y-35774861D01*
X178575928Y-35832956D01*
X178576426Y-35912595D01*
X178574357Y-35994979D01*
X178568820Y-36061009D01*
X178560824Y-36100752D01*
X178556657Y-36107435D01*
X178516781Y-36118130D01*
X178450595Y-36123128D01*
X178372088Y-36122701D01*
X178295248Y-36117121D01*
X178234064Y-36106658D01*
X178216308Y-36100834D01*
X178155175Y-36056653D01*
X178118534Y-36003943D01*
X178085530Y-35934393D01*
X178010168Y-35994718D01*
X177898930Y-36065509D01*
X177778116Y-36111343D01*
X177658982Y-36129036D01*
X177568167Y-36119751D01*
X177446174Y-36071971D01*
X177349023Y-35999312D01*
X177279874Y-35907529D01*
X177241892Y-35802379D01*
X177238239Y-35689617D01*
X177248186Y-35655351D01*
X177664652Y-35655351D01*
X177665213Y-35708492D01*
X177693537Y-35754839D01*
X177740552Y-35781307D01*
X177808837Y-35791939D01*
X177881733Y-35785764D01*
X177931053Y-35768670D01*
X177982389Y-35731301D01*
X178003432Y-35681647D01*
X178005786Y-35646593D01*
X177998943Y-35606774D01*
X177973021Y-35582718D01*
X177920776Y-35570961D01*
X177841481Y-35568030D01*
X177757173Y-35579579D01*
X177696767Y-35610533D01*
X177664652Y-35655351D01*
X177248186Y-35655351D01*
X177270578Y-35578215D01*
X177323592Y-35490274D01*
G37*
G36*
X173005536Y-36107806D02*
G01*
X172800818Y-36113566D01*
X172713165Y-36114658D01*
X172641227Y-36112979D01*
X172594406Y-36108895D01*
X172581852Y-36105079D01*
X172578265Y-36081855D01*
X172575009Y-36023043D01*
X172572202Y-35933794D01*
X172569962Y-35819257D01*
X172568408Y-35684583D01*
X172567657Y-35534920D01*
X172567605Y-35483160D01*
X172567605Y-34875488D01*
X173016318Y-34875488D01*
X173005536Y-36107806D01*
G37*
G36*
X174197116Y-35143059D02*
G01*
X173932321Y-35457538D01*
X173852029Y-35553369D01*
X173781526Y-35638424D01*
X173724747Y-35707881D01*
X173685625Y-35756919D01*
X173668095Y-35780716D01*
X173667525Y-35782052D01*
X173686658Y-35785715D01*
X173739118Y-35788780D01*
X173817494Y-35790975D01*
X173914376Y-35792033D01*
X173943362Y-35792088D01*
X174219199Y-35792088D01*
X174213250Y-35949947D01*
X174207300Y-36107806D01*
X173706913Y-36113246D01*
X173568044Y-36114205D01*
X173442849Y-36114018D01*
X173337035Y-36112781D01*
X173256308Y-36110586D01*
X173206375Y-36107528D01*
X173192599Y-36104759D01*
X173185320Y-36078493D01*
X173180280Y-36024015D01*
X173178672Y-35962917D01*
X173178672Y-35835002D01*
X173454095Y-35508624D01*
X173729518Y-35182245D01*
X173469372Y-35176541D01*
X173209225Y-35170837D01*
X173203241Y-35023163D01*
X173197256Y-34875488D01*
X174197116Y-34875488D01*
X174197116Y-35143059D01*
G37*
G36*
X174838736Y-36107806D02*
G01*
X174634017Y-36113566D01*
X174546365Y-36114658D01*
X174474426Y-36112979D01*
X174427605Y-36108895D01*
X174415052Y-36105079D01*
X174411464Y-36081855D01*
X174408208Y-36023043D01*
X174405401Y-35933794D01*
X174403162Y-35819257D01*
X174401607Y-35684583D01*
X174400856Y-35534920D01*
X174400805Y-35483160D01*
X174400805Y-34875488D01*
X174849518Y-34875488D01*
X174838736Y-36107806D01*
G37*
G36*
X169751254Y-28611108D02*
G01*
X169806310Y-28177126D01*
X169898743Y-27748870D01*
X170027579Y-27330237D01*
X170191848Y-26925125D01*
X170390576Y-26537428D01*
X170559942Y-26262993D01*
X170778443Y-25964070D01*
X171030073Y-25671245D01*
X171307247Y-25392054D01*
X171602382Y-25134034D01*
X171907894Y-24904723D01*
X171966723Y-24864866D01*
X172222516Y-24709866D01*
X172508769Y-24563448D01*
X172815444Y-24429789D01*
X173132503Y-24313063D01*
X173449907Y-24217446D01*
X173628122Y-24173770D01*
X174057816Y-24098602D01*
X174491762Y-24063221D01*
X174927260Y-24067275D01*
X175361613Y-24110412D01*
X175792120Y-24192278D01*
X176216083Y-24312521D01*
X176630803Y-24470789D01*
X176911848Y-24602837D01*
X177295804Y-24820414D01*
X177657250Y-25071102D01*
X177994305Y-25352881D01*
X178305085Y-25663733D01*
X178587705Y-26001638D01*
X178840284Y-26364576D01*
X179060937Y-26750527D01*
X179210085Y-27067206D01*
X179352038Y-27437373D01*
X179459943Y-27809248D01*
X179534954Y-28189080D01*
X179578224Y-28583122D01*
X179590907Y-28997624D01*
X179589059Y-29121278D01*
X179570428Y-29486192D01*
X179531896Y-29823895D01*
X179471513Y-30143743D01*
X179387328Y-30455096D01*
X179277391Y-30767311D01*
X179213326Y-30923925D01*
X179021391Y-31323051D01*
X178796138Y-31700756D01*
X178539708Y-32055256D01*
X178254240Y-32384765D01*
X177941877Y-32687498D01*
X177604758Y-32961670D01*
X177245024Y-33205497D01*
X176864817Y-33417191D01*
X176466276Y-33594970D01*
X176051543Y-33737047D01*
X175745151Y-33816002D01*
X175528115Y-33856843D01*
X175285775Y-33889470D01*
X175030627Y-33913004D01*
X174775166Y-33926568D01*
X174531887Y-33929284D01*
X174313283Y-33920275D01*
X174288776Y-33918320D01*
X173834072Y-33860183D01*
X173393985Y-33764068D01*
X172968818Y-33630091D01*
X172558877Y-33458368D01*
X172164468Y-33249015D01*
X171785896Y-33002146D01*
X171693572Y-32934437D01*
X171566928Y-32833174D01*
X171424100Y-32708504D01*
X171274085Y-32569047D01*
X171125881Y-32423417D01*
X170988484Y-32280231D01*
X170870894Y-32148107D01*
X170864245Y-32140221D01*
X170611782Y-31808815D01*
X170387273Y-31450712D01*
X170192654Y-31070562D01*
X170029860Y-30673015D01*
X169900827Y-30262718D01*
X169807491Y-29844322D01*
X169757158Y-29480668D01*
X169736672Y-29087718D01*
X169963306Y-29087718D01*
X169980889Y-29445278D01*
X170022121Y-29789422D01*
X170086830Y-30110451D01*
X170091652Y-30129538D01*
X170221531Y-30558336D01*
X170386084Y-30965834D01*
X170584975Y-31351556D01*
X170817867Y-31715029D01*
X171084422Y-32055777D01*
X171384302Y-32373325D01*
X171717171Y-32667198D01*
X172082690Y-32936922D01*
X172088936Y-32941129D01*
X172217727Y-33021581D01*
X172373886Y-33109401D01*
X172546174Y-33198964D01*
X172723348Y-33284648D01*
X172894168Y-33360826D01*
X173047391Y-33421877D01*
X173056458Y-33425182D01*
X173471754Y-33554603D01*
X173894589Y-33645375D01*
X174321495Y-33697033D01*
X174749002Y-33709114D01*
X175059288Y-33692692D01*
X175274804Y-33667600D01*
X175509455Y-33629673D01*
X175745004Y-33582287D01*
X175963213Y-33528816D01*
X175999762Y-33518657D01*
X176295511Y-33420201D01*
X176601867Y-33291268D01*
X176909382Y-33136840D01*
X177208605Y-32961897D01*
X177490085Y-32771422D01*
X177650397Y-32648638D01*
X177763889Y-32550822D01*
X177893166Y-32428833D01*
X178029935Y-32291359D01*
X178165902Y-32147085D01*
X178292772Y-32004698D01*
X178402251Y-31872885D01*
X178448596Y-31812693D01*
X178687526Y-31458066D01*
X178894542Y-31080517D01*
X179067609Y-30684814D01*
X179204692Y-30275723D01*
X179303757Y-29858014D01*
X179318960Y-29773082D01*
X179351095Y-29526942D01*
X179369914Y-29255830D01*
X179375417Y-28972908D01*
X179367601Y-28691342D01*
X179346466Y-28424296D01*
X179319137Y-28225047D01*
X179225877Y-27794728D01*
X179095423Y-27379646D01*
X178929056Y-26981651D01*
X178728057Y-26602592D01*
X178493707Y-26244319D01*
X178227287Y-25908683D01*
X177930078Y-25597532D01*
X177603361Y-25312717D01*
X177248418Y-25056087D01*
X177031290Y-24921568D01*
X176650935Y-24722501D01*
X176257492Y-24560889D01*
X175853669Y-24436635D01*
X175442170Y-24349643D01*
X175025701Y-24299816D01*
X174606968Y-24287056D01*
X174188675Y-24311267D01*
X173773529Y-24372351D01*
X173364234Y-24470213D01*
X172963496Y-24604754D01*
X172574022Y-24775878D01*
X172198515Y-24983487D01*
X172016346Y-25101283D01*
X171679928Y-25353924D01*
X171367128Y-25637084D01*
X171080153Y-25947471D01*
X170821208Y-26281791D01*
X170592497Y-26636750D01*
X170396227Y-27009056D01*
X170234602Y-27395414D01*
X170109829Y-27792533D01*
X170054188Y-28031545D01*
X169999782Y-28371152D01*
X169969546Y-28726443D01*
X169963306Y-29087718D01*
X169736672Y-29087718D01*
X169734545Y-29046921D01*
X169751254Y-28611108D01*
G37*
G36*
X174232493Y-31687159D02*
G01*
X174156376Y-31658433D01*
X174093186Y-31611247D01*
X174053473Y-31565864D01*
X174038794Y-31525334D01*
X174042019Y-31471197D01*
X174220478Y-31471197D01*
X174224983Y-31489598D01*
X174227669Y-31494253D01*
X174251683Y-31501373D01*
X174309188Y-31507013D01*
X174392965Y-31511191D01*
X174495797Y-31513924D01*
X174610464Y-31515231D01*
X174729748Y-31515130D01*
X174846430Y-31513638D01*
X174953291Y-31510774D01*
X175043112Y-31506555D01*
X175108676Y-31500999D01*
X175142762Y-31494125D01*
X175145677Y-31491976D01*
X175150646Y-31473740D01*
X175137759Y-31459581D01*
X175103207Y-31449027D01*
X175043180Y-31441609D01*
X174953869Y-31436855D01*
X174831465Y-31434295D01*
X174672157Y-31433459D01*
X174671895Y-31433459D01*
X174518998Y-31433931D01*
X174402687Y-31435974D01*
X174318819Y-31440156D01*
X174263256Y-31447043D01*
X174231856Y-31457201D01*
X174220478Y-31471197D01*
X174042019Y-31471197D01*
X174042128Y-31469372D01*
X174042700Y-31465409D01*
X174052103Y-31392541D01*
X174054132Y-31338818D01*
X174048755Y-31283316D01*
X174042364Y-31242863D01*
X174041109Y-31217576D01*
X174217485Y-31217576D01*
X174232886Y-31250284D01*
X174242946Y-31256706D01*
X174274148Y-31261167D01*
X174337773Y-31264499D01*
X174426326Y-31266744D01*
X174532306Y-31267942D01*
X174648218Y-31268136D01*
X174766563Y-31267366D01*
X174879842Y-31265675D01*
X174980560Y-31263102D01*
X175061217Y-31259691D01*
X175114316Y-31255483D01*
X175131602Y-31251792D01*
X175148888Y-31225095D01*
X175145677Y-31211366D01*
X175122573Y-31202955D01*
X175064033Y-31196549D01*
X174968721Y-31192085D01*
X174835298Y-31189498D01*
X174674583Y-31188720D01*
X174523611Y-31189090D01*
X174408814Y-31190393D01*
X174325634Y-31192915D01*
X174269514Y-31196946D01*
X174235895Y-31202771D01*
X174220221Y-31210680D01*
X174217485Y-31217576D01*
X174041109Y-31217576D01*
X174039156Y-31178235D01*
X174059873Y-31124935D01*
X174075964Y-31101452D01*
X174122658Y-31038296D01*
X174090892Y-30727591D01*
X174059126Y-30416887D01*
X173894377Y-30186645D01*
X173759202Y-29986563D01*
X173655111Y-29806015D01*
X173580433Y-29640313D01*
X173533494Y-29484772D01*
X173514786Y-29350265D01*
X173692740Y-29350265D01*
X173711177Y-29474950D01*
X173750702Y-29603304D01*
X173813562Y-29741045D01*
X173902005Y-29893893D01*
X174018280Y-30067566D01*
X174033301Y-30088800D01*
X174106357Y-30192795D01*
X174159279Y-30273654D01*
X174196018Y-30341097D01*
X174220529Y-30404842D01*
X174236763Y-30474607D01*
X174248673Y-30560113D01*
X174256979Y-30638760D01*
X174267385Y-30739273D01*
X174277431Y-30831110D01*
X174285851Y-30902983D01*
X174290669Y-30939201D01*
X174300806Y-31005400D01*
X174624863Y-31005400D01*
X174624629Y-30302674D01*
X174496687Y-30028438D01*
X174368744Y-29754203D01*
X174251339Y-29725548D01*
X174131706Y-29676338D01*
X174054076Y-29617621D01*
X174485678Y-29617621D01*
X174486955Y-29658807D01*
X174504761Y-29716735D01*
X174540919Y-29799966D01*
X174548479Y-29816095D01*
X174614678Y-29956402D01*
X174620768Y-29815976D01*
X174620879Y-29811417D01*
X174747076Y-29811417D01*
X174748441Y-29879533D01*
X174752017Y-29927998D01*
X174756967Y-29946218D01*
X174770360Y-29929474D01*
X174796098Y-29885511D01*
X174828687Y-29823733D01*
X174829673Y-29821783D01*
X174864935Y-29745340D01*
X174881153Y-29688545D01*
X174881824Y-29637110D01*
X174879287Y-29619209D01*
X174868857Y-29557481D01*
X175012535Y-29557481D01*
X175027308Y-29589725D01*
X175067827Y-29597477D01*
X175132963Y-29577339D01*
X175198276Y-29541262D01*
X175260919Y-29495232D01*
X175314951Y-29444967D01*
X175333259Y-29422967D01*
X175365493Y-29370313D01*
X175396374Y-29308015D01*
X175421091Y-29247678D01*
X175434831Y-29200907D01*
X175433961Y-29180123D01*
X175406115Y-29178392D01*
X175355886Y-29196535D01*
X175292869Y-29229188D01*
X175226659Y-29270988D01*
X175166852Y-29316570D01*
X175133989Y-29347799D01*
X175064745Y-29433119D01*
X175024637Y-29504146D01*
X175012535Y-29557481D01*
X174868857Y-29557481D01*
X174866085Y-29541072D01*
X174806581Y-29608844D01*
X174773665Y-29651081D01*
X174755696Y-29692387D01*
X174748307Y-29747636D01*
X174747076Y-29811417D01*
X174620879Y-29811417D01*
X174622625Y-29739416D01*
X174617784Y-29690243D01*
X174602941Y-29655250D01*
X174574791Y-29621226D01*
X174571079Y-29617329D01*
X174530664Y-29581476D01*
X174506223Y-29577284D01*
X174499102Y-29584620D01*
X174485678Y-29617621D01*
X174054076Y-29617621D01*
X174020098Y-29591921D01*
X173920973Y-29477669D01*
X173838788Y-29338957D01*
X173780626Y-29187971D01*
X173932157Y-29187971D01*
X173944434Y-29228897D01*
X173969428Y-29286140D01*
X174002576Y-29350665D01*
X174039320Y-29413437D01*
X174075097Y-29465419D01*
X174098303Y-29491657D01*
X174166529Y-29544806D01*
X174234569Y-29580730D01*
X174294086Y-29596753D01*
X174336744Y-29590199D01*
X174351353Y-29572906D01*
X174351071Y-29521760D01*
X174322357Y-29456848D01*
X174271431Y-29385825D01*
X174204515Y-29316347D01*
X174127827Y-29256069D01*
X174064718Y-29220125D01*
X174003451Y-29193558D01*
X173955152Y-29176219D01*
X173937157Y-29172399D01*
X173932157Y-29187971D01*
X173780626Y-29187971D01*
X173778002Y-29181158D01*
X173767389Y-29142222D01*
X173754532Y-29081013D01*
X173755894Y-29044274D01*
X173772364Y-29017980D01*
X173775472Y-29014786D01*
X173794889Y-29000013D01*
X173819956Y-28995916D01*
X173860071Y-29003659D01*
X173924631Y-29024402D01*
X173963452Y-29038036D01*
X174133956Y-29109347D01*
X174266503Y-29189137D01*
X174363246Y-29278764D01*
X174380515Y-29300717D01*
X174443444Y-29386074D01*
X174430210Y-29302660D01*
X174429648Y-29266263D01*
X174566970Y-29266263D01*
X174587381Y-29383114D01*
X174626056Y-29474799D01*
X174661325Y-29520588D01*
X174692722Y-29529742D01*
X174724959Y-29501224D01*
X174756802Y-29446071D01*
X174789699Y-29341491D01*
X174797881Y-29216376D01*
X174781525Y-29082439D01*
X174749685Y-28973604D01*
X174723196Y-28909315D01*
X174700351Y-28863551D01*
X174686201Y-28846298D01*
X174668858Y-28864149D01*
X174645018Y-28910489D01*
X174618877Y-28974494D01*
X174594629Y-29045344D01*
X174576470Y-29112217D01*
X174570348Y-29145151D01*
X174566970Y-29266263D01*
X174429648Y-29266263D01*
X174428445Y-29188413D01*
X174454203Y-29052033D01*
X174505981Y-28899969D01*
X174544492Y-28813055D01*
X174594494Y-28715927D01*
X174636891Y-28655045D01*
X174675406Y-28630836D01*
X174713760Y-28643723D01*
X174755676Y-28694131D01*
X174804877Y-28782485D01*
X174835866Y-28846298D01*
X174877076Y-28938219D01*
X174902749Y-29011729D01*
X174917294Y-29083941D01*
X174925118Y-29171966D01*
X174926530Y-29198248D01*
X174935435Y-29377063D01*
X174994402Y-29296880D01*
X175087400Y-29201687D01*
X175217235Y-29117555D01*
X175381077Y-29046259D01*
X175408584Y-29036724D01*
X175487386Y-29011138D01*
X175537391Y-28998499D01*
X175568072Y-28997796D01*
X175588903Y-29008016D01*
X175598148Y-29016468D01*
X175615200Y-29038161D01*
X175619721Y-29064684D01*
X175611369Y-29107813D01*
X175593804Y-29166618D01*
X175520876Y-29352813D01*
X175430149Y-29502578D01*
X175321277Y-29616294D01*
X175193915Y-29694341D01*
X175080776Y-29730859D01*
X175055043Y-29738937D01*
X175032035Y-29754713D01*
X175007924Y-29783889D01*
X174978878Y-29832171D01*
X174941067Y-29905260D01*
X174890659Y-30008860D01*
X174882180Y-30026537D01*
X174747076Y-30308497D01*
X174747076Y-31005400D01*
X174910027Y-31005400D01*
X174999194Y-31003176D01*
X175052087Y-30996065D01*
X175072950Y-30983406D01*
X175073660Y-30979939D01*
X175075691Y-30951355D01*
X175080804Y-30890239D01*
X175088305Y-30804620D01*
X175097496Y-30702530D01*
X175101059Y-30663575D01*
X175127777Y-30372672D01*
X175227683Y-30230465D01*
X175327819Y-30087471D01*
X175407246Y-29972727D01*
X175469033Y-29881403D01*
X175516247Y-29808672D01*
X175551958Y-29749704D01*
X175579233Y-29699671D01*
X175601141Y-29653744D01*
X175615393Y-29620316D01*
X175661035Y-29467894D01*
X175681332Y-29303537D01*
X175675266Y-29142506D01*
X175654220Y-29037942D01*
X175587485Y-28875309D01*
X175489633Y-28733365D01*
X175365442Y-28613531D01*
X175219689Y-28517230D01*
X175057151Y-28445884D01*
X174882607Y-28400916D01*
X174700833Y-28383747D01*
X174516607Y-28395801D01*
X174334707Y-28438499D01*
X174159909Y-28513263D01*
X174071317Y-28566688D01*
X173926910Y-28686980D01*
X173815501Y-28830525D01*
X173738544Y-28994800D01*
X173697492Y-29177281D01*
X173693142Y-29223530D01*
X173692740Y-29350265D01*
X173514786Y-29350265D01*
X173512622Y-29334706D01*
X173516146Y-29185427D01*
X173521487Y-29141647D01*
X173569238Y-28946222D01*
X173652658Y-28766602D01*
X173768653Y-28606054D01*
X173914132Y-28467846D01*
X174086002Y-28355244D01*
X174281172Y-28271515D01*
X174369439Y-28245722D01*
X174446859Y-28231581D01*
X174547098Y-28220849D01*
X174652270Y-28215274D01*
X174685566Y-28214863D01*
X174917825Y-28232705D01*
X175130578Y-28286283D01*
X175324012Y-28375669D01*
X175498315Y-28500939D01*
X175562202Y-28560590D01*
X175691831Y-28717413D01*
X175785183Y-28889622D01*
X175841861Y-29073314D01*
X175861470Y-29264586D01*
X175843615Y-29459537D01*
X175787899Y-29654264D01*
X175693928Y-29844864D01*
X175692601Y-29847054D01*
X175646133Y-29919616D01*
X175585282Y-30009280D01*
X175520467Y-30100834D01*
X175494802Y-30135876D01*
X175423981Y-30232085D01*
X175372686Y-30306733D01*
X175337119Y-30370026D01*
X175313480Y-30432172D01*
X175297969Y-30503376D01*
X175286786Y-30593847D01*
X175276133Y-30713791D01*
X175275094Y-30726097D01*
X175265463Y-30842707D01*
X175259751Y-30926501D01*
X175258377Y-30985250D01*
X175261762Y-31026726D01*
X175270327Y-31058700D01*
X175284491Y-31088944D01*
X175295820Y-31109436D01*
X175327142Y-31181570D01*
X175330940Y-31244175D01*
X175328862Y-31256342D01*
X175318728Y-31317096D01*
X175317537Y-31369313D01*
X175325337Y-31434036D01*
X175329336Y-31458436D01*
X175333787Y-31508644D01*
X175321937Y-31546739D01*
X175287251Y-31589304D01*
X175271402Y-31605436D01*
X175186439Y-31667874D01*
X175121519Y-31689032D01*
X175060720Y-31707067D01*
X175022655Y-31743967D01*
X175010200Y-31766090D01*
X174960888Y-31838527D01*
X174894383Y-31886536D01*
X174803867Y-31913294D01*
X174682520Y-31921983D01*
X174675785Y-31922000D01*
X174585368Y-31920057D01*
X174523060Y-31912604D01*
X174476351Y-31897204D01*
X174439463Y-31875977D01*
X174385515Y-31828723D01*
X174343710Y-31773010D01*
X174339698Y-31765185D01*
X174306423Y-31716554D01*
X174290462Y-31708783D01*
X174502649Y-31708783D01*
X174520935Y-31728736D01*
X174568191Y-31742807D01*
X174633013Y-31750552D01*
X174703996Y-31751527D01*
X174769739Y-31745287D01*
X174818836Y-31731388D01*
X174833342Y-31721668D01*
X174835449Y-31709879D01*
X174810150Y-31702489D01*
X174752719Y-31698768D01*
X174679859Y-31697942D01*
X174600611Y-31699094D01*
X174539659Y-31702172D01*
X174506247Y-31706611D01*
X174502649Y-31708783D01*
X174290462Y-31708783D01*
X174256309Y-31692155D01*
X174232493Y-31687159D01*
G37*
G36*
X172334432Y-34448760D02*
G01*
X172405975Y-34452167D01*
X172446555Y-34458495D01*
X172461039Y-34468272D01*
X172460641Y-34473203D01*
X172451765Y-34497257D01*
X172430347Y-34555402D01*
X172397909Y-34643496D01*
X172355977Y-34757396D01*
X172306076Y-34892963D01*
X172249730Y-35046055D01*
X172188463Y-35212529D01*
X172158831Y-35293050D01*
X172095575Y-35463949D01*
X172036017Y-35622948D01*
X171981740Y-35765971D01*
X171934321Y-35888937D01*
X171895341Y-35987768D01*
X171866381Y-36058385D01*
X171849019Y-36096708D01*
X171845320Y-36102402D01*
X171811850Y-36111810D01*
X171752221Y-36116977D01*
X171678248Y-36118186D01*
X171601746Y-36115721D01*
X171534531Y-36109868D01*
X171488418Y-36100909D01*
X171475322Y-36093498D01*
X171465170Y-36069713D01*
X171442393Y-36011836D01*
X171408551Y-35923963D01*
X171365200Y-35810192D01*
X171313898Y-35674620D01*
X171256205Y-35521343D01*
X171193676Y-35354459D01*
X171159695Y-35263466D01*
X170859206Y-34457926D01*
X171094879Y-34452164D01*
X171188348Y-34450537D01*
X171265703Y-34450435D01*
X171318572Y-34451784D01*
X171338455Y-34454304D01*
X171346133Y-34475152D01*
X171363763Y-34529911D01*
X171389754Y-34613427D01*
X171422519Y-34720541D01*
X171460467Y-34846098D01*
X171502009Y-34984940D01*
X171502094Y-34985227D01*
X171543671Y-35122667D01*
X171582063Y-35245427D01*
X171615647Y-35348642D01*
X171642799Y-35427453D01*
X171661897Y-35476998D01*
X171671316Y-35492415D01*
X171671424Y-35492308D01*
X171680546Y-35469185D01*
X171699258Y-35412231D01*
X171725922Y-35326773D01*
X171758900Y-35218140D01*
X171796552Y-35091659D01*
X171834510Y-34962056D01*
X171984002Y-34447742D01*
X172227061Y-34447742D01*
X172334432Y-34448760D01*
G37*
G36*
X176849399Y-34676892D02*
G01*
X176855256Y-34865304D01*
X176962192Y-34871461D01*
X177069129Y-34877617D01*
X177069129Y-35221759D01*
X176843778Y-35221759D01*
X176849517Y-35461094D01*
X176855256Y-35700428D01*
X176975523Y-35700914D01*
X177095790Y-35701399D01*
X177133383Y-35860715D01*
X177149822Y-35936960D01*
X177160019Y-35997632D01*
X177162285Y-36032178D01*
X177161343Y-36035618D01*
X177135910Y-36050280D01*
X177081372Y-36069015D01*
X177008762Y-36088917D01*
X176929109Y-36107082D01*
X176853446Y-36120604D01*
X176824702Y-36124287D01*
X176746951Y-36126997D01*
X176670026Y-36121326D01*
X176655340Y-36118856D01*
X176548455Y-36078039D01*
X176462129Y-36002655D01*
X176428027Y-35953380D01*
X176412470Y-35921790D01*
X176401010Y-35883395D01*
X176392790Y-35831096D01*
X176386956Y-35757795D01*
X176382651Y-35656391D01*
X176379805Y-35553224D01*
X176371804Y-35221759D01*
X176234005Y-35221759D01*
X176234005Y-34878069D01*
X176300203Y-34871687D01*
X176366402Y-34865304D01*
X176372259Y-34676892D01*
X176378115Y-34488479D01*
X176843542Y-34488479D01*
X176849399Y-34676892D01*
G37*
G36*
X173015721Y-34773644D02*
G01*
X172567605Y-34773644D01*
X172567605Y-34407004D01*
X173015721Y-34407004D01*
X173015721Y-34773644D01*
G37*
G36*
X175637740Y-34859881D02*
G01*
X175734006Y-34869584D01*
X175834668Y-34887090D01*
X175930860Y-34909967D01*
X176013716Y-34935784D01*
X176074372Y-34962109D01*
X176103963Y-34986510D01*
X176104581Y-34987923D01*
X176099169Y-35015013D01*
X176077564Y-35064104D01*
X176046008Y-35124186D01*
X176010744Y-35184251D01*
X175978015Y-35233288D01*
X175954062Y-35260290D01*
X175948885Y-35262497D01*
X175923394Y-35255776D01*
X175870816Y-35238075D01*
X175802067Y-35213086D01*
X175795404Y-35210585D01*
X175689091Y-35177860D01*
X175596642Y-35163343D01*
X175524156Y-35166940D01*
X175477728Y-35188556D01*
X175463786Y-35215722D01*
X175465275Y-35242345D01*
X175484496Y-35261849D01*
X175529868Y-35280087D01*
X175575815Y-35293603D01*
X175748759Y-35344649D01*
X175885270Y-35392410D01*
X175989199Y-35439691D01*
X176064393Y-35489292D01*
X176114702Y-35544018D01*
X176143973Y-35606672D01*
X176156057Y-35680055D01*
X176156916Y-35716817D01*
X176141161Y-35838459D01*
X176094480Y-35936693D01*
X176014118Y-36015472D01*
X175907849Y-36074259D01*
X175814989Y-36103098D01*
X175700166Y-36122160D01*
X175581457Y-36129183D01*
X175500725Y-36125188D01*
X175394982Y-36109829D01*
X175287918Y-36088295D01*
X175187057Y-36062815D01*
X175099924Y-36035620D01*
X175034040Y-36008939D01*
X174996931Y-35985004D01*
X174991503Y-35974232D01*
X175001072Y-35947442D01*
X175026336Y-35896060D01*
X175062132Y-35830490D01*
X175067753Y-35820660D01*
X175115147Y-35745244D01*
X175150522Y-35705559D01*
X175174689Y-35698620D01*
X175207909Y-35710201D01*
X175267611Y-35731165D01*
X175341864Y-35757321D01*
X175354605Y-35761816D01*
X175457160Y-35791519D01*
X175552471Y-35807385D01*
X175633032Y-35809312D01*
X175691338Y-35797196D01*
X175719885Y-35770933D01*
X175720950Y-35766851D01*
X175721552Y-35748950D01*
X175712153Y-35733267D01*
X175687267Y-35717265D01*
X175641407Y-35698408D01*
X175569088Y-35674159D01*
X175464825Y-35641982D01*
X175424689Y-35629859D01*
X175319088Y-35595788D01*
X175242991Y-35564844D01*
X175185984Y-35532015D01*
X175137657Y-35492286D01*
X175136276Y-35490978D01*
X175067722Y-35401639D01*
X175037501Y-35303381D01*
X175045315Y-35200225D01*
X175090869Y-35096189D01*
X175172755Y-34996367D01*
X175252106Y-34930503D01*
X175335401Y-34887238D01*
X175432369Y-34863717D01*
X175552740Y-34857083D01*
X175637740Y-34859881D01*
G37*
G36*
X174848920Y-34773644D02*
G01*
X174400805Y-34773644D01*
X174400805Y-34407004D01*
X174848920Y-34407004D01*
X174848920Y-34773644D01*
G37*
D12*
%TO.C,RJ45-1*%
X159208400Y-42249400D02*
X100308400Y-42249400D01*
X100308400Y-50189400D02*
X100308400Y-63389400D01*
X159208400Y-50189400D02*
X159208400Y-63389400D01*
X100308400Y-42249400D02*
X100308400Y-46749400D01*
X142023400Y-63389400D02*
X131523400Y-63389400D01*
X127993400Y-63389400D02*
X117493400Y-63389400D01*
X114008400Y-63389400D02*
X100308400Y-63389400D01*
X159208400Y-42249400D02*
X159208400Y-46749400D01*
X159208400Y-63389400D02*
X145508400Y-63389400D01*
D13*
%TO.C,LED56*%
X117249000Y-69254000D02*
X119534000Y-69254000D01*
X119534000Y-69254000D02*
X119534000Y-67784000D01*
X119534000Y-67784000D02*
X117249000Y-67784000D01*
%TO.C,TH59*%
X131480742Y-77990900D02*
X131955258Y-77990900D01*
X131480742Y-76945900D02*
X131955258Y-76945900D01*
D12*
%TO.C,J11*%
X99346000Y-100137300D02*
X99346000Y-88937300D01*
X113246000Y-93687300D02*
X113246000Y-99686300D01*
X102746000Y-99686300D02*
X99746000Y-99686300D01*
X103246000Y-99686300D02*
X103246000Y-93687300D01*
X110246000Y-93687300D02*
X113246000Y-93687300D01*
X114146000Y-88937300D02*
X113121000Y-88937300D01*
X110871000Y-88937300D02*
X109621000Y-88937300D01*
X99746000Y-93687300D02*
X102746000Y-93687300D01*
X106746000Y-93687300D02*
X109746000Y-93687300D01*
X109746000Y-99686300D02*
X106746000Y-99686300D01*
X113246000Y-99686300D02*
X110246000Y-99686300D01*
X102746000Y-93687300D02*
X102746000Y-99686300D01*
X114146000Y-100137300D02*
X114146000Y-88937300D01*
X110246000Y-99686300D02*
X110246000Y-93687300D01*
X114146000Y-100137300D02*
X99346000Y-100137300D01*
X106246000Y-99686300D02*
X103246000Y-99686300D01*
X107371000Y-88937300D02*
X106121000Y-88937300D01*
X106246000Y-93687300D02*
X106246000Y-99686300D01*
X100371000Y-88937300D02*
X99346000Y-88937300D01*
X103871000Y-88937300D02*
X102621000Y-88937300D01*
X99746000Y-99686300D02*
X99746000Y-93687300D01*
X106746000Y-99686300D02*
X106746000Y-93687300D01*
X109746000Y-93687300D02*
X109746000Y-99686300D01*
X103246000Y-93687300D02*
X106246000Y-93687300D01*
D13*
%TO.C,D57*%
X120722150Y-78631000D02*
X123962150Y-78631000D01*
X120722150Y-78631000D02*
X120722150Y-80251000D01*
X120722150Y-80251000D02*
X123962150Y-80251000D01*
D12*
%TO.C,J12*%
X115763400Y-88937300D02*
X114738400Y-88937300D01*
X118638400Y-93687300D02*
X121638400Y-93687300D01*
X118638400Y-99686300D02*
X118638400Y-93687300D01*
X125138400Y-93687300D02*
X125138400Y-99686300D01*
X121638400Y-99686300D02*
X118638400Y-99686300D01*
X125638400Y-93687300D02*
X128638400Y-93687300D01*
X115138400Y-99686300D02*
X115138400Y-93687300D01*
X114738400Y-100137300D02*
X114738400Y-88937300D01*
X126263400Y-88937300D02*
X125013400Y-88937300D01*
X129538400Y-100137300D02*
X114738400Y-100137300D01*
X122138400Y-93687300D02*
X125138400Y-93687300D01*
X118138400Y-93687300D02*
X118138400Y-99686300D01*
X125138400Y-99686300D02*
X122138400Y-99686300D01*
X119263400Y-88937300D02*
X118013400Y-88937300D01*
X128638400Y-99686300D02*
X125638400Y-99686300D01*
X121638400Y-93687300D02*
X121638400Y-99686300D01*
X122763400Y-88937300D02*
X121513400Y-88937300D01*
X115138400Y-93687300D02*
X118138400Y-93687300D01*
X125638400Y-99686300D02*
X125638400Y-93687300D01*
X122138400Y-99686300D02*
X122138400Y-93687300D01*
X128638400Y-93687300D02*
X128638400Y-99686300D01*
X129538400Y-100137300D02*
X129538400Y-88937300D01*
X118138400Y-99686300D02*
X115138400Y-99686300D01*
X129538400Y-88937300D02*
X128513400Y-88937300D01*
D13*
%TO.C,D61*%
X138347000Y-78631000D02*
X141587000Y-78631000D01*
X138347000Y-78631000D02*
X138347000Y-80251000D01*
X138347000Y-80251000D02*
X141587000Y-80251000D01*
%TO.C,LED66*%
X161179800Y-69254000D02*
X163464800Y-69254000D01*
X163464800Y-69254000D02*
X163464800Y-67784000D01*
X163464800Y-67784000D02*
X161179800Y-67784000D01*
%TO.C,D63*%
X147079300Y-80251000D02*
X150319300Y-80251000D01*
X147079300Y-78631000D02*
X150319300Y-78631000D01*
X147079300Y-78631000D02*
X147079300Y-80251000D01*
%TO.C,LED60*%
X135294300Y-69254000D02*
X137579300Y-69254000D01*
X137579300Y-69254000D02*
X137579300Y-67784000D01*
X137579300Y-67784000D02*
X135294300Y-67784000D01*
%TO.C,R58*%
X126901242Y-70199200D02*
X127375758Y-70199200D01*
X126901242Y-71244200D02*
X127375758Y-71244200D01*
%TO.C,TH54*%
X109121242Y-77990900D02*
X109595758Y-77990900D01*
X109121242Y-76945900D02*
X109595758Y-76945900D01*
%TO.C,LED55*%
X115054500Y-67784000D02*
X112769500Y-67784000D01*
X115054500Y-69254000D02*
X115054500Y-67784000D01*
X112769500Y-69254000D02*
X115054500Y-69254000D01*
%TO.C,TH61*%
X139997242Y-76945900D02*
X140471758Y-76945900D01*
X139997242Y-77990900D02*
X140471758Y-77990900D01*
%TO.C,LED58*%
X128643500Y-67784000D02*
X126358500Y-67784000D01*
X128643500Y-69254000D02*
X128643500Y-67784000D01*
X126358500Y-69254000D02*
X128643500Y-69254000D01*
%TO.C,R61*%
X140004742Y-70199200D02*
X140479258Y-70199200D01*
X140004742Y-71244200D02*
X140479258Y-71244200D01*
%TO.C,LED63*%
X150479300Y-67784000D02*
X148194300Y-67784000D01*
X148194300Y-69254000D02*
X150479300Y-69254000D01*
X150479300Y-69254000D02*
X150479300Y-67784000D01*
%TO.C,LED65*%
X156853500Y-69254000D02*
X159138500Y-69254000D01*
X159138500Y-67784000D02*
X156853500Y-67784000D01*
X159138500Y-69254000D02*
X159138500Y-67784000D01*
%TO.C,D64*%
X151420500Y-78631000D02*
X151420500Y-80251000D01*
X151420500Y-80251000D02*
X154660500Y-80251000D01*
X151420500Y-78631000D02*
X154660500Y-78631000D01*
%TO.C,R60*%
X135837042Y-70199200D02*
X136311558Y-70199200D01*
X135837042Y-71244200D02*
X136311558Y-71244200D01*
%TO.C,LED57*%
X121821000Y-69254000D02*
X124106000Y-69254000D01*
X124106000Y-67784000D02*
X121821000Y-67784000D01*
X124106000Y-69254000D02*
X124106000Y-67784000D01*
%TO.C,D53*%
X103280000Y-80251000D02*
X106520000Y-80251000D01*
X103280000Y-78631000D02*
X103280000Y-80251000D01*
X103280000Y-78631000D02*
X106520000Y-78631000D01*
%TO.C,TH60*%
X135829542Y-77990900D02*
X136304058Y-77990900D01*
X135829542Y-76945900D02*
X136304058Y-76945900D01*
%TO.C,R53*%
X104930242Y-71244200D02*
X105404758Y-71244200D01*
X104930242Y-70199200D02*
X105404758Y-70199200D01*
%TO.C,TH56*%
X117798242Y-76945900D02*
X118272758Y-76945900D01*
X117798242Y-77990900D02*
X118272758Y-77990900D01*
%TO.C,LED53*%
X106707000Y-69254000D02*
X106707000Y-67784000D01*
X104422000Y-69254000D02*
X106707000Y-69254000D01*
X106707000Y-67784000D02*
X104422000Y-67784000D01*
%TO.C,R51*%
X96989142Y-71244200D02*
X97463658Y-71244200D01*
X96989142Y-70199200D02*
X97463658Y-70199200D01*
%TO.C,TH53*%
X104930242Y-77990900D02*
X105404758Y-77990900D01*
X104930242Y-76945900D02*
X105404758Y-76945900D01*
%TO.C,LED61*%
X141747000Y-69254000D02*
X141747000Y-67784000D01*
X141747000Y-67784000D02*
X139462000Y-67784000D01*
X139462000Y-69254000D02*
X141747000Y-69254000D01*
%TO.C,LED64*%
X154820500Y-69254000D02*
X154820500Y-67784000D01*
X152535500Y-69254000D02*
X154820500Y-69254000D01*
X154820500Y-67784000D02*
X152535500Y-67784000D01*
%TO.C,R54*%
X109121242Y-71244200D02*
X109595758Y-71244200D01*
X109121242Y-70199200D02*
X109595758Y-70199200D01*
%TO.C,TH57*%
X122372392Y-76945900D02*
X122846908Y-76945900D01*
X122372392Y-77990900D02*
X122846908Y-77990900D01*
%TO.C,D55*%
X111662000Y-78631000D02*
X111662000Y-80251000D01*
X111662000Y-78631000D02*
X114902000Y-78631000D01*
X111662000Y-80251000D02*
X114902000Y-80251000D01*
%TO.C,LED52*%
X100323500Y-69254000D02*
X102608500Y-69254000D01*
X102608500Y-67784000D02*
X100323500Y-67784000D01*
X102608500Y-69254000D02*
X102608500Y-67784000D01*
%TO.C,R65*%
X157396242Y-71244200D02*
X157870758Y-71244200D01*
X157396242Y-70199200D02*
X157870758Y-70199200D01*
%TO.C,TH66*%
X161715042Y-77990900D02*
X162189558Y-77990900D01*
X161715042Y-76945900D02*
X162189558Y-76945900D01*
%TO.C,TH55*%
X113312242Y-77990900D02*
X113786758Y-77990900D01*
X113312242Y-76945900D02*
X113786758Y-76945900D01*
%TO.C,TH58*%
X126901242Y-76945900D02*
X127375758Y-76945900D01*
X126901242Y-77990900D02*
X127375758Y-77990900D01*
%TO.C,R56*%
X117798242Y-71244200D02*
X118272758Y-71244200D01*
X117798242Y-70199200D02*
X118272758Y-70199200D01*
%TO.C,LED59*%
X130965000Y-69254000D02*
X133250000Y-69254000D01*
X133250000Y-67784000D02*
X130965000Y-67784000D01*
X133250000Y-69254000D02*
X133250000Y-67784000D01*
%TO.C,LED51*%
X98731400Y-67784000D02*
X96446400Y-67784000D01*
X98731400Y-69254000D02*
X98731400Y-67784000D01*
X96446400Y-69254000D02*
X98731400Y-69254000D01*
%TO.C,TH62*%
X144307742Y-77990900D02*
X144782258Y-77990900D01*
X144307742Y-76945900D02*
X144782258Y-76945900D01*
%TO.C,TH63*%
X148729542Y-77990900D02*
X149204058Y-77990900D01*
X148729542Y-76945900D02*
X149204058Y-76945900D01*
%TO.C,R64*%
X153078242Y-71244200D02*
X153552758Y-71244200D01*
X153078242Y-70199200D02*
X153552758Y-70199200D01*
%TO.C,D58*%
X125251000Y-78631000D02*
X128491000Y-78631000D01*
X125251000Y-80251000D02*
X128491000Y-80251000D01*
X125251000Y-78631000D02*
X125251000Y-80251000D01*
%TO.C,R62*%
X144315242Y-70199200D02*
X144789758Y-70199200D01*
X144315242Y-71244200D02*
X144789758Y-71244200D01*
%TO.C,D65*%
X155738500Y-80251000D02*
X158978500Y-80251000D01*
X155738500Y-78631000D02*
X158978500Y-78631000D01*
X155738500Y-78631000D02*
X155738500Y-80251000D01*
%TO.C,D60*%
X134030500Y-78631000D02*
X137270500Y-78631000D01*
X134030500Y-78631000D02*
X134030500Y-80251000D01*
X134030500Y-80251000D02*
X137270500Y-80251000D01*
%TO.C,D52*%
X99216000Y-78631000D02*
X102456000Y-78631000D01*
X99216000Y-80251000D02*
X102456000Y-80251000D01*
X99216000Y-78631000D02*
X99216000Y-80251000D01*
%TO.C,R66*%
X161722542Y-71244200D02*
X162197058Y-71244200D01*
X161722542Y-70199200D02*
X162197058Y-70199200D01*
%TO.C,D54*%
X107471000Y-78631000D02*
X110711000Y-78631000D01*
X107471000Y-80251000D02*
X110711000Y-80251000D01*
X107471000Y-78631000D02*
X107471000Y-80251000D01*
%TO.C,R57*%
X122372392Y-71244200D02*
X122846908Y-71244200D01*
X122372392Y-70199200D02*
X122846908Y-70199200D01*
%TO.C,R59*%
X131488242Y-71244200D02*
X131962758Y-71244200D01*
X131488242Y-70199200D02*
X131962758Y-70199200D01*
D12*
%TO.C,J14*%
X155872400Y-93788900D02*
X155872400Y-99787900D01*
X146497400Y-89038900D02*
X145472400Y-89038900D01*
X149372400Y-93788900D02*
X152372400Y-93788900D01*
X152372400Y-99787900D02*
X149372400Y-99787900D01*
X155872400Y-99787900D02*
X152872400Y-99787900D01*
X159372400Y-99787900D02*
X156372400Y-99787900D01*
X159372400Y-93788900D02*
X159372400Y-99787900D01*
X145872400Y-93788900D02*
X148872400Y-93788900D01*
X152872400Y-99787900D02*
X152872400Y-93788900D01*
X145472400Y-100238900D02*
X145472400Y-89038900D01*
X153497400Y-89038900D02*
X152247400Y-89038900D01*
X156372400Y-99787900D02*
X156372400Y-93788900D01*
X145872400Y-99787900D02*
X145872400Y-93788900D01*
X152872400Y-93788900D02*
X155872400Y-93788900D01*
X152372400Y-93788900D02*
X152372400Y-99787900D01*
X149372400Y-99787900D02*
X149372400Y-93788900D01*
X160272400Y-100238900D02*
X160272400Y-89038900D01*
X156997400Y-89038900D02*
X155747400Y-89038900D01*
X160272400Y-89038900D02*
X159247400Y-89038900D01*
X148872400Y-99787900D02*
X145872400Y-99787900D01*
X156372400Y-93788900D02*
X159372400Y-93788900D01*
X148872400Y-93788900D02*
X148872400Y-99787900D01*
X149997400Y-89038900D02*
X148747400Y-89038900D01*
X160272400Y-100238900D02*
X145472400Y-100238900D01*
%TO.C,J13*%
X137480000Y-93788900D02*
X140480000Y-93788900D01*
X138105000Y-89038900D02*
X136855000Y-89038900D01*
X143980000Y-99787900D02*
X140980000Y-99787900D01*
X133480000Y-99787900D02*
X130480000Y-99787900D01*
X143980000Y-93788900D02*
X143980000Y-99787900D01*
X131105000Y-89038900D02*
X130080000Y-89038900D01*
X133980000Y-99787900D02*
X133980000Y-93788900D01*
X130480000Y-93788900D02*
X133480000Y-93788900D01*
X144880000Y-100238900D02*
X144880000Y-89038900D01*
X140480000Y-99787900D02*
X137480000Y-99787900D01*
X144880000Y-89038900D02*
X143855000Y-89038900D01*
X133480000Y-93788900D02*
X133480000Y-99787900D01*
X136980000Y-99787900D02*
X133980000Y-99787900D01*
X140980000Y-99787900D02*
X140980000Y-93788900D01*
X140980000Y-93788900D02*
X143980000Y-93788900D01*
X140480000Y-93788900D02*
X140480000Y-99787900D01*
X137480000Y-99787900D02*
X137480000Y-93788900D01*
X134605000Y-89038900D02*
X133355000Y-89038900D01*
X130480000Y-99787900D02*
X130480000Y-93788900D01*
X136980000Y-93788900D02*
X136980000Y-99787900D01*
X133980000Y-93788900D02*
X136980000Y-93788900D01*
X144880000Y-100238900D02*
X130080000Y-100238900D01*
X130080000Y-100238900D02*
X130080000Y-89038900D01*
X141605000Y-89038900D02*
X140355000Y-89038900D01*
D13*
%TO.C,R55*%
X113312242Y-70199200D02*
X113786758Y-70199200D01*
X113312242Y-71244200D02*
X113786758Y-71244200D01*
%TO.C,TH51*%
X96729742Y-77990900D02*
X97204258Y-77990900D01*
X96729742Y-76945900D02*
X97204258Y-76945900D01*
%TO.C,R52*%
X100866242Y-70199200D02*
X101340758Y-70199200D01*
X100866242Y-71244200D02*
X101340758Y-71244200D01*
%TO.C,D59*%
X129830500Y-80251000D02*
X133070500Y-80251000D01*
X129830500Y-78631000D02*
X133070500Y-78631000D01*
X129830500Y-78631000D02*
X129830500Y-80251000D01*
%TO.C,D56*%
X116148000Y-78631000D02*
X119388000Y-78631000D01*
X116148000Y-80251000D02*
X119388000Y-80251000D01*
X116148000Y-78631000D02*
X116148000Y-80251000D01*
%TO.C,R63*%
X148737042Y-70199200D02*
X149211558Y-70199200D01*
X148737042Y-71244200D02*
X149211558Y-71244200D01*
%TO.C,LED62*%
X146204000Y-67784000D02*
X143919000Y-67784000D01*
X143919000Y-69254000D02*
X146204000Y-69254000D01*
X146204000Y-69254000D02*
X146204000Y-67784000D01*
%TO.C,LED54*%
X110863500Y-69254000D02*
X110863500Y-67784000D01*
X110863500Y-67784000D02*
X108578500Y-67784000D01*
X108578500Y-69254000D02*
X110863500Y-69254000D01*
%TO.C,TH65*%
X157388742Y-76945900D02*
X157863258Y-76945900D01*
X157388742Y-77990900D02*
X157863258Y-77990900D01*
%TO.C,D51*%
X95079500Y-78631000D02*
X98319500Y-78631000D01*
X95079500Y-80251000D02*
X98319500Y-80251000D01*
X95079500Y-78631000D02*
X95079500Y-80251000D01*
%TO.C,TH52*%
X100866242Y-76945900D02*
X101340758Y-76945900D01*
X100866242Y-77990900D02*
X101340758Y-77990900D01*
%TO.C,TH64*%
X153070742Y-76945900D02*
X153545258Y-76945900D01*
X153070742Y-77990900D02*
X153545258Y-77990900D01*
%TO.C,D66*%
X160064800Y-80251000D02*
X163304800Y-80251000D01*
X160064800Y-78631000D02*
X163304800Y-78631000D01*
X160064800Y-78631000D02*
X160064800Y-80251000D01*
%TO.C,D62*%
X142657500Y-80251000D02*
X145897500Y-80251000D01*
X142657500Y-78631000D02*
X142657500Y-80251000D01*
X142657500Y-78631000D02*
X145897500Y-78631000D01*
%TD*%
%LPC*%
D14*
%TO.C,RJ45-1*%
X143728400Y-63209400D03*
X129758400Y-63209400D03*
X159158400Y-48479400D03*
X100358400Y-48479400D03*
X115788400Y-63209400D03*
D15*
X104358400Y-61939400D03*
X105628400Y-59399400D03*
X106898400Y-61939400D03*
X108168400Y-59399400D03*
X109438400Y-61939400D03*
X110708400Y-59399400D03*
X111978400Y-61939400D03*
X113248400Y-59399400D03*
X118328400Y-61939400D03*
X119598400Y-59399400D03*
X120868400Y-61939400D03*
X122138400Y-59399400D03*
X123408400Y-61939400D03*
X124678400Y-59399400D03*
X125948400Y-61939400D03*
X127218400Y-59399400D03*
X132298400Y-61939400D03*
X133568400Y-59399400D03*
X134838400Y-61939400D03*
X136108400Y-59399400D03*
X137378400Y-61939400D03*
X138648400Y-59399400D03*
X139918400Y-61939400D03*
X141188400Y-59399400D03*
X146268400Y-61939400D03*
X147538400Y-59399400D03*
X148808400Y-61939400D03*
X150078400Y-59399400D03*
X151348400Y-61939400D03*
X152618400Y-59399400D03*
X153888400Y-61939400D03*
X155158400Y-59399400D03*
D16*
X103088400Y-53049400D03*
X156428400Y-53049400D03*
%TD*%
D17*
%TO.C,LED56*%
X118836500Y-68519000D03*
X117261500Y-68519000D03*
%TD*%
D18*
%TO.C,TH59*%
X130893000Y-77468400D03*
X132543000Y-77468400D03*
%TD*%
D19*
%TO.C,J11*%
X111996000Y-91937300D03*
X111996000Y-89437300D03*
X108496000Y-91937300D03*
X108496000Y-89437300D03*
X104996000Y-91937300D03*
X104996000Y-89437300D03*
X101496000Y-91937300D03*
X101496000Y-89437300D03*
%TD*%
D20*
%TO.C,D57*%
X121982150Y-79441000D03*
D21*
X123882150Y-79441000D03*
%TD*%
D19*
%TO.C,J12*%
X127388400Y-91937300D03*
X127388400Y-89437300D03*
X123888400Y-91937300D03*
X123888400Y-89437300D03*
X120388400Y-91937300D03*
X120388400Y-89437300D03*
X116888400Y-91937300D03*
X116888400Y-89437300D03*
%TD*%
D20*
%TO.C,D61*%
X139607000Y-79441000D03*
D21*
X141507000Y-79441000D03*
%TD*%
D17*
%TO.C,LED66*%
X162767300Y-68519000D03*
X161192300Y-68519000D03*
%TD*%
D20*
%TO.C,D63*%
X148339300Y-79441000D03*
D21*
X150239300Y-79441000D03*
%TD*%
D17*
%TO.C,LED60*%
X136881800Y-68519000D03*
X135306800Y-68519000D03*
%TD*%
D18*
%TO.C,R58*%
X126313500Y-70721700D03*
X127963500Y-70721700D03*
%TD*%
%TO.C,TH54*%
X108533500Y-77468400D03*
X110183500Y-77468400D03*
%TD*%
D17*
%TO.C,LED55*%
X114357000Y-68519000D03*
X112782000Y-68519000D03*
%TD*%
D18*
%TO.C,TH61*%
X139409500Y-77468400D03*
X141059500Y-77468400D03*
%TD*%
D17*
%TO.C,LED58*%
X127946000Y-68519000D03*
X126371000Y-68519000D03*
%TD*%
D18*
%TO.C,R61*%
X139417000Y-70721700D03*
X141067000Y-70721700D03*
%TD*%
D17*
%TO.C,LED63*%
X149781800Y-68519000D03*
X148206800Y-68519000D03*
%TD*%
%TO.C,LED65*%
X158441000Y-68519000D03*
X156866000Y-68519000D03*
%TD*%
D20*
%TO.C,D64*%
X152680500Y-79441000D03*
D21*
X154580500Y-79441000D03*
%TD*%
D18*
%TO.C,R60*%
X135249300Y-70721700D03*
X136899300Y-70721700D03*
%TD*%
D17*
%TO.C,LED57*%
X123408500Y-68519000D03*
X121833500Y-68519000D03*
%TD*%
D20*
%TO.C,D53*%
X104540000Y-79441000D03*
D21*
X106440000Y-79441000D03*
%TD*%
D18*
%TO.C,TH60*%
X135241800Y-77468400D03*
X136891800Y-77468400D03*
%TD*%
%TO.C,R53*%
X104342500Y-70721700D03*
X105992500Y-70721700D03*
%TD*%
%TO.C,TH56*%
X117210500Y-77468400D03*
X118860500Y-77468400D03*
%TD*%
D17*
%TO.C,LED53*%
X106009500Y-68519000D03*
X104434500Y-68519000D03*
%TD*%
D18*
%TO.C,R51*%
X96401400Y-70721700D03*
X98051400Y-70721700D03*
%TD*%
%TO.C,TH53*%
X104342500Y-77468400D03*
X105992500Y-77468400D03*
%TD*%
D17*
%TO.C,LED61*%
X141049500Y-68519000D03*
X139474500Y-68519000D03*
%TD*%
%TO.C,LED64*%
X154123000Y-68519000D03*
X152548000Y-68519000D03*
%TD*%
D18*
%TO.C,R54*%
X108533500Y-70721700D03*
X110183500Y-70721700D03*
%TD*%
%TO.C,TH57*%
X121784650Y-77468400D03*
X123434650Y-77468400D03*
%TD*%
D20*
%TO.C,D55*%
X112922000Y-79441000D03*
D21*
X114822000Y-79441000D03*
%TD*%
D17*
%TO.C,LED52*%
X101911000Y-68519000D03*
X100336000Y-68519000D03*
%TD*%
D18*
%TO.C,R65*%
X156808500Y-70721700D03*
X158458500Y-70721700D03*
%TD*%
%TO.C,TH66*%
X161127300Y-77468400D03*
X162777300Y-77468400D03*
%TD*%
%TO.C,TH55*%
X112724500Y-77468400D03*
X114374500Y-77468400D03*
%TD*%
%TO.C,TH58*%
X126313500Y-77468400D03*
X127963500Y-77468400D03*
%TD*%
%TO.C,R56*%
X117210500Y-70721700D03*
X118860500Y-70721700D03*
%TD*%
D17*
%TO.C,LED59*%
X132552500Y-68519000D03*
X130977500Y-68519000D03*
%TD*%
%TO.C,LED51*%
X98033900Y-68519000D03*
X96458900Y-68519000D03*
%TD*%
D18*
%TO.C,TH62*%
X143720000Y-77468400D03*
X145370000Y-77468400D03*
%TD*%
%TO.C,TH63*%
X148141800Y-77468400D03*
X149791800Y-77468400D03*
%TD*%
%TO.C,R64*%
X152490500Y-70721700D03*
X154140500Y-70721700D03*
%TD*%
D20*
%TO.C,D58*%
X126511000Y-79441000D03*
D21*
X128411000Y-79441000D03*
%TD*%
D18*
%TO.C,R62*%
X143727500Y-70721700D03*
X145377500Y-70721700D03*
%TD*%
D20*
%TO.C,D65*%
X156998500Y-79441000D03*
D21*
X158898500Y-79441000D03*
%TD*%
D20*
%TO.C,D60*%
X135290500Y-79441000D03*
D21*
X137190500Y-79441000D03*
%TD*%
D20*
%TO.C,D52*%
X100476000Y-79441000D03*
D21*
X102376000Y-79441000D03*
%TD*%
D18*
%TO.C,R66*%
X161134800Y-70721700D03*
X162784800Y-70721700D03*
%TD*%
D20*
%TO.C,D54*%
X108731000Y-79441000D03*
D21*
X110631000Y-79441000D03*
%TD*%
D18*
%TO.C,R57*%
X121784650Y-70721700D03*
X123434650Y-70721700D03*
%TD*%
%TO.C,R59*%
X130900500Y-70721700D03*
X132550500Y-70721700D03*
%TD*%
D19*
%TO.C,J14*%
X158122400Y-92038900D03*
X158122400Y-89538900D03*
X154622400Y-92038900D03*
X154622400Y-89538900D03*
X151122400Y-92038900D03*
X151122400Y-89538900D03*
X147622400Y-92038900D03*
X147622400Y-89538900D03*
%TD*%
%TO.C,J13*%
X142730000Y-92038900D03*
X142730000Y-89538900D03*
X139230000Y-92038900D03*
X139230000Y-89538900D03*
X135730000Y-92038900D03*
X135730000Y-89538900D03*
X132230000Y-92038900D03*
X132230000Y-89538900D03*
%TD*%
D18*
%TO.C,R55*%
X112724500Y-70721700D03*
X114374500Y-70721700D03*
%TD*%
%TO.C,TH51*%
X96142000Y-77468400D03*
X97792000Y-77468400D03*
%TD*%
%TO.C,R52*%
X100278500Y-70721700D03*
X101928500Y-70721700D03*
%TD*%
D20*
%TO.C,D59*%
X131090500Y-79441000D03*
D21*
X132990500Y-79441000D03*
%TD*%
D20*
%TO.C,D56*%
X117408000Y-79441000D03*
D21*
X119308000Y-79441000D03*
%TD*%
D18*
%TO.C,R63*%
X148149300Y-70721700D03*
X149799300Y-70721700D03*
%TD*%
D17*
%TO.C,LED62*%
X145506500Y-68519000D03*
X143931500Y-68519000D03*
%TD*%
%TO.C,LED54*%
X110166000Y-68519000D03*
X108591000Y-68519000D03*
%TD*%
D18*
%TO.C,TH65*%
X156801000Y-77468400D03*
X158451000Y-77468400D03*
%TD*%
D20*
%TO.C,D51*%
X96339500Y-79441000D03*
D21*
X98239500Y-79441000D03*
%TD*%
D18*
%TO.C,TH52*%
X100278500Y-77468400D03*
X101928500Y-77468400D03*
%TD*%
%TO.C,TH64*%
X152483000Y-77468400D03*
X154133000Y-77468400D03*
%TD*%
D20*
%TO.C,D66*%
X161324800Y-79441000D03*
D21*
X163224800Y-79441000D03*
%TD*%
D20*
%TO.C,D62*%
X143917500Y-79441000D03*
D21*
X145817500Y-79441000D03*
%TD*%
M02*
