%TF.GenerationSoftware,KiCad,Pcbnew,(6.0.9)*%
%TF.CreationDate,2023-11-09T13:22:23+05:30*%
%TF.ProjectId,Modular-I2C-4PxRJ45-Relay-Driver,4d6f6475-6c61-4722-9d49-32432d345078,2*%
%TF.SameCoordinates,Original*%
%TF.FileFunction,Legend,Top*%
%TF.FilePolarity,Positive*%
%FSLAX46Y46*%
G04 Gerber Fmt 4.6, Leading zero omitted, Abs format (unit mm)*
G04 Created by KiCad (PCBNEW (6.0.9)) date 2023-11-09 13:22:23*
%MOMM*%
%LPD*%
G01*
G04 APERTURE LIST*
G04 Aperture macros list*
%AMRoundRect*
0 Rectangle with rounded corners*
0 $1 Rounding radius*
0 $2 $3 $4 $5 $6 $7 $8 $9 X,Y pos of 4 corners*
0 Add a 4 corners polygon primitive as box body*
4,1,4,$2,$3,$4,$5,$6,$7,$8,$9,$2,$3,0*
0 Add four circle primitives for the rounded corners*
1,1,$1+$1,$2,$3*
1,1,$1+$1,$4,$5*
1,1,$1+$1,$6,$7*
1,1,$1+$1,$8,$9*
0 Add four rect primitives between the rounded corners*
20,1,$1+$1,$2,$3,$4,$5,0*
20,1,$1+$1,$4,$5,$6,$7,0*
20,1,$1+$1,$6,$7,$8,$9,0*
20,1,$1+$1,$8,$9,$2,$3,0*%
G04 Aperture macros list end*
%ADD10C,0.150000*%
%ADD11C,0.200000*%
%ADD12C,0.125000*%
%ADD13C,0.300000*%
%ADD14C,0.254000*%
%ADD15C,0.120000*%
%ADD16C,0.100000*%
%ADD17C,2.000000*%
%ADD18RoundRect,0.250000X0.600000X0.600000X-0.600000X0.600000X-0.600000X-0.600000X0.600000X-0.600000X0*%
%ADD19C,1.700000*%
%ADD20RoundRect,0.218750X0.218750X0.256250X-0.218750X0.256250X-0.218750X-0.256250X0.218750X-0.256250X0*%
%ADD21RoundRect,0.200000X-0.200000X-0.275000X0.200000X-0.275000X0.200000X0.275000X-0.200000X0.275000X0*%
%ADD22R,2.000000X1.100000*%
%ADD23R,0.800000X0.800000*%
%ADD24RoundRect,0.150000X-0.150000X0.837500X-0.150000X-0.837500X0.150000X-0.837500X0.150000X0.837500X0*%
%ADD25R,0.650000X0.400000*%
%ADD26RoundRect,0.150000X-0.150000X0.587500X-0.150000X-0.587500X0.150000X-0.587500X0.150000X0.587500X0*%
%ADD27C,3.000000*%
%ADD28R,0.800000X0.500000*%
%ADD29R,0.800000X0.400000*%
%ADD30RoundRect,0.200000X-0.275000X0.200000X-0.275000X-0.200000X0.275000X-0.200000X0.275000X0.200000X0*%
%ADD31RoundRect,0.218750X-0.218750X-0.256250X0.218750X-0.256250X0.218750X0.256250X-0.218750X0.256250X0*%
%ADD32RoundRect,0.225000X0.250000X-0.225000X0.250000X0.225000X-0.250000X0.225000X-0.250000X-0.225000X0*%
%ADD33R,0.500000X0.800000*%
%ADD34R,0.400000X0.800000*%
%ADD35RoundRect,0.225000X0.225000X0.250000X-0.225000X0.250000X-0.225000X-0.250000X0.225000X-0.250000X0*%
%ADD36RoundRect,0.200000X0.200000X0.275000X-0.200000X0.275000X-0.200000X-0.275000X0.200000X-0.275000X0*%
%ADD37RoundRect,0.150000X0.150000X-0.512500X0.150000X0.512500X-0.150000X0.512500X-0.150000X-0.512500X0*%
%ADD38RoundRect,0.225000X-0.225000X-0.250000X0.225000X-0.250000X0.225000X0.250000X-0.225000X0.250000X0*%
%ADD39R,1.500000X2.400000*%
%ADD40RoundRect,0.250000X1.000000X-1.750000X1.000000X1.750000X-1.000000X1.750000X-1.000000X-1.750000X0*%
%ADD41RoundRect,0.150000X0.875000X0.150000X-0.875000X0.150000X-0.875000X-0.150000X0.875000X-0.150000X0*%
%ADD42R,1.200000X3.300000*%
%ADD43R,3.300000X1.200000*%
%ADD44RoundRect,0.200000X0.275000X-0.200000X0.275000X0.200000X-0.275000X0.200000X-0.275000X-0.200000X0*%
%ADD45R,1.100000X1.100000*%
%ADD46RoundRect,0.225000X-0.250000X0.225000X-0.250000X-0.225000X0.250000X-0.225000X0.250000X0.225000X0*%
G04 APERTURE END LIST*
D10*
X106244900Y-64379400D02*
G75*
G03*
X106744900Y-63879400I0J500000D01*
G01*
X150992047Y-64489153D02*
G75*
G03*
X151492047Y-64989153I499953J-47D01*
G01*
X108244900Y-56564400D02*
G75*
G03*
X107744900Y-56064400I-500000J0D01*
G01*
X154492047Y-61989153D02*
X154492047Y-64489153D01*
X153992047Y-59989153D02*
X152992047Y-59989153D01*
X107744900Y-59564400D02*
X105244900Y-59564400D01*
X105244900Y-60879400D02*
G75*
G03*
X104744900Y-61379400I0J-500000D01*
G01*
X105244900Y-56064400D02*
X107744900Y-56064400D01*
X106744900Y-61379400D02*
G75*
G03*
X106244900Y-60879400I-500000J0D01*
G01*
X154492047Y-61989153D02*
G75*
G03*
X153992047Y-61489153I-500047J-47D01*
G01*
X153992047Y-59989247D02*
G75*
G03*
X154492047Y-59489153I-47J500047D01*
G01*
X151492047Y-61489247D02*
G75*
G03*
X150992047Y-61989153I-47J-499953D01*
G01*
X152492047Y-59489153D02*
G75*
G03*
X152992047Y-59989153I499953J-47D01*
G01*
X150992047Y-64489153D02*
X150992047Y-61989153D01*
X106744900Y-61379400D02*
X106744900Y-63879400D01*
X152492047Y-59489153D02*
X152492047Y-56989153D01*
X104744900Y-59064400D02*
X104744900Y-56564400D01*
X105244900Y-60879400D02*
X106244900Y-60879400D01*
X153992047Y-64989247D02*
G75*
G03*
X154492047Y-64489153I-47J500047D01*
G01*
X107744900Y-59564400D02*
G75*
G03*
X108244900Y-59064400I0J500000D01*
G01*
X104744900Y-63879400D02*
G75*
G03*
X105244900Y-64379400I500000J0D01*
G01*
X152992047Y-56489247D02*
G75*
G03*
X152492047Y-56989153I-47J-499953D01*
G01*
X153992047Y-56489153D02*
X152992047Y-56489153D01*
X153992047Y-64989153D02*
X151492047Y-64989153D01*
X151492047Y-61489153D02*
X153992047Y-61489153D01*
X154492047Y-59489153D02*
X154492047Y-56989153D01*
X104744900Y-61379400D02*
X104744900Y-63879400D01*
X105244900Y-64379400D02*
X106244900Y-64379400D01*
X104744900Y-59064400D02*
G75*
G03*
X105244900Y-59564400I500000J0D01*
G01*
X108244900Y-56564400D02*
X108244900Y-59064400D01*
X154492047Y-56989153D02*
G75*
G03*
X153992047Y-56489153I-500047J-47D01*
G01*
X105244900Y-56064400D02*
G75*
G03*
X104744900Y-56564400I0J-500000D01*
G01*
D11*
X101577657Y-85559733D02*
X101958609Y-85559733D01*
X101501466Y-85788304D02*
X101768133Y-84988304D01*
X102034800Y-85788304D01*
X103939561Y-85788304D02*
X103482419Y-85788304D01*
X103710990Y-85788304D02*
X103710990Y-84988304D01*
X103634800Y-85102590D01*
X103558609Y-85178780D01*
X103482419Y-85216876D01*
X105425276Y-84988304D02*
X105920514Y-84988304D01*
X105653847Y-85293066D01*
X105768133Y-85293066D01*
X105844323Y-85331161D01*
X105882419Y-85369257D01*
X105920514Y-85445447D01*
X105920514Y-85635923D01*
X105882419Y-85712114D01*
X105844323Y-85750209D01*
X105768133Y-85788304D01*
X105539561Y-85788304D01*
X105463371Y-85750209D01*
X105425276Y-85712114D01*
X107863371Y-84988304D02*
X107482419Y-84988304D01*
X107444323Y-85369257D01*
X107482419Y-85331161D01*
X107558609Y-85293066D01*
X107749085Y-85293066D01*
X107825276Y-85331161D01*
X107863371Y-85369257D01*
X107901466Y-85445447D01*
X107901466Y-85635923D01*
X107863371Y-85712114D01*
X107825276Y-85750209D01*
X107749085Y-85788304D01*
X107558609Y-85788304D01*
X107482419Y-85750209D01*
X107444323Y-85712114D01*
X109387180Y-84988304D02*
X109920514Y-84988304D01*
X109577657Y-85788304D01*
X103444323Y-86352495D02*
X103482419Y-86314400D01*
X103558609Y-86276304D01*
X103749085Y-86276304D01*
X103825276Y-86314400D01*
X103863371Y-86352495D01*
X103901466Y-86428685D01*
X103901466Y-86504876D01*
X103863371Y-86619161D01*
X103406228Y-87076304D01*
X103901466Y-87076304D01*
X105806228Y-86542971D02*
X105806228Y-87076304D01*
X105615752Y-86238209D02*
X105425276Y-86809638D01*
X105920514Y-86809638D01*
X107787180Y-86276304D02*
X107634800Y-86276304D01*
X107558609Y-86314400D01*
X107520514Y-86352495D01*
X107444323Y-86466780D01*
X107406228Y-86619161D01*
X107406228Y-86923923D01*
X107444323Y-87000114D01*
X107482419Y-87038209D01*
X107558609Y-87076304D01*
X107710990Y-87076304D01*
X107787180Y-87038209D01*
X107825276Y-87000114D01*
X107863371Y-86923923D01*
X107863371Y-86733447D01*
X107825276Y-86657257D01*
X107787180Y-86619161D01*
X107710990Y-86581066D01*
X107558609Y-86581066D01*
X107482419Y-86619161D01*
X107444323Y-86657257D01*
X107406228Y-86733447D01*
X109539561Y-86619161D02*
X109463371Y-86581066D01*
X109425276Y-86542971D01*
X109387180Y-86466780D01*
X109387180Y-86428685D01*
X109425276Y-86352495D01*
X109463371Y-86314400D01*
X109539561Y-86276304D01*
X109691942Y-86276304D01*
X109768133Y-86314400D01*
X109806228Y-86352495D01*
X109844323Y-86428685D01*
X109844323Y-86466780D01*
X109806228Y-86542971D01*
X109768133Y-86581066D01*
X109691942Y-86619161D01*
X109539561Y-86619161D01*
X109463371Y-86657257D01*
X109425276Y-86695352D01*
X109387180Y-86771542D01*
X109387180Y-86923923D01*
X109425276Y-87000114D01*
X109463371Y-87038209D01*
X109539561Y-87076304D01*
X109691942Y-87076304D01*
X109768133Y-87038209D01*
X109806228Y-87000114D01*
X109844323Y-86923923D01*
X109844323Y-86771542D01*
X109806228Y-86695352D01*
X109768133Y-86657257D01*
X109691942Y-86619161D01*
D12*
X98197380Y-13599380D02*
X97864047Y-13123190D01*
X97625952Y-13599380D02*
X97625952Y-12599380D01*
X98006904Y-12599380D01*
X98102142Y-12647000D01*
X98149761Y-12694619D01*
X98197380Y-12789857D01*
X98197380Y-12932714D01*
X98149761Y-13027952D01*
X98102142Y-13075571D01*
X98006904Y-13123190D01*
X97625952Y-13123190D01*
X98578333Y-13551761D02*
X98721190Y-13599380D01*
X98959285Y-13599380D01*
X99054523Y-13551761D01*
X99102142Y-13504142D01*
X99149761Y-13408904D01*
X99149761Y-13313666D01*
X99102142Y-13218428D01*
X99054523Y-13170809D01*
X98959285Y-13123190D01*
X98768809Y-13075571D01*
X98673571Y-13027952D01*
X98625952Y-12980333D01*
X98578333Y-12885095D01*
X98578333Y-12789857D01*
X98625952Y-12694619D01*
X98673571Y-12647000D01*
X98768809Y-12599380D01*
X99006904Y-12599380D01*
X99149761Y-12647000D01*
X99435476Y-12599380D02*
X100006904Y-12599380D01*
X99721190Y-13599380D02*
X99721190Y-12599380D01*
X128151885Y-10789619D02*
X128199504Y-10742000D01*
X128294742Y-10694380D01*
X128532838Y-10694380D01*
X128628076Y-10742000D01*
X128675695Y-10789619D01*
X128723314Y-10884857D01*
X128723314Y-10980095D01*
X128675695Y-11122952D01*
X128104266Y-11694380D01*
X128723314Y-11694380D01*
X98903714Y-8355180D02*
X98332285Y-8355180D01*
X98618000Y-8355180D02*
X98618000Y-7355180D01*
X98522761Y-7498038D01*
X98427523Y-7593276D01*
X98332285Y-7640895D01*
D10*
X153992047Y-57477248D02*
X154039666Y-57382010D01*
X154039666Y-57239153D01*
X153992047Y-57096295D01*
X153896808Y-57001057D01*
X153801570Y-56953438D01*
X153611094Y-56905819D01*
X153468237Y-56905819D01*
X153277761Y-56953438D01*
X153182523Y-57001057D01*
X153087285Y-57096295D01*
X153039666Y-57239153D01*
X153039666Y-57334391D01*
X153087285Y-57477248D01*
X153134904Y-57524867D01*
X153468237Y-57524867D01*
X153468237Y-57334391D01*
X153039666Y-57953438D02*
X154039666Y-57953438D01*
X153039666Y-58524867D01*
X154039666Y-58524867D01*
X153039666Y-59001057D02*
X154039666Y-59001057D01*
X154039666Y-59239153D01*
X153992047Y-59382010D01*
X153896808Y-59477248D01*
X153801570Y-59524867D01*
X153611094Y-59572486D01*
X153468237Y-59572486D01*
X153277761Y-59524867D01*
X153182523Y-59477248D01*
X153087285Y-59382010D01*
X153039666Y-59239153D01*
X153039666Y-59001057D01*
X106741180Y-21692438D02*
X106741180Y-22263866D01*
X106741180Y-21978152D02*
X105741180Y-21978152D01*
X105884038Y-22073390D01*
X105979276Y-22168628D01*
X106026895Y-22263866D01*
X105741180Y-21073390D02*
X105741180Y-20978152D01*
X105788800Y-20882914D01*
X105836419Y-20835295D01*
X105931657Y-20787676D01*
X106122133Y-20740057D01*
X106360228Y-20740057D01*
X106550704Y-20787676D01*
X106645942Y-20835295D01*
X106693561Y-20882914D01*
X106741180Y-20978152D01*
X106741180Y-21073390D01*
X106693561Y-21168628D01*
X106645942Y-21216247D01*
X106550704Y-21263866D01*
X106360228Y-21311485D01*
X106122133Y-21311485D01*
X105931657Y-21263866D01*
X105836419Y-21216247D01*
X105788800Y-21168628D01*
X105741180Y-21073390D01*
X106741180Y-20311485D02*
X105741180Y-20311485D01*
X106360228Y-20216247D02*
X106741180Y-19930533D01*
X106074514Y-19930533D02*
X106455466Y-20311485D01*
X152816780Y-10539961D02*
X151816780Y-10539961D01*
X151912019Y-10111390D02*
X151864400Y-10063771D01*
X151816780Y-9968533D01*
X151816780Y-9730438D01*
X151864400Y-9635200D01*
X151912019Y-9587580D01*
X152007257Y-9539961D01*
X152102495Y-9539961D01*
X152245352Y-9587580D01*
X152816780Y-10159009D01*
X152816780Y-9539961D01*
X152721542Y-8539961D02*
X152769161Y-8587580D01*
X152816780Y-8730438D01*
X152816780Y-8825676D01*
X152769161Y-8968533D01*
X152673923Y-9063771D01*
X152578685Y-9111390D01*
X152388209Y-9159009D01*
X152245352Y-9159009D01*
X152054876Y-9111390D01*
X151959638Y-9063771D01*
X151864400Y-8968533D01*
X151816780Y-8825676D01*
X151816780Y-8730438D01*
X151864400Y-8587580D01*
X151912019Y-8539961D01*
X152816780Y-7349485D02*
X151816780Y-7349485D01*
X151816780Y-6968533D01*
X151864400Y-6873295D01*
X151912019Y-6825676D01*
X152007257Y-6778057D01*
X152150114Y-6778057D01*
X152245352Y-6825676D01*
X152292971Y-6873295D01*
X152340590Y-6968533D01*
X152340590Y-7349485D01*
X151769161Y-5635200D02*
X153054876Y-6492342D01*
X151816780Y-5301866D02*
X152626304Y-5301866D01*
X152721542Y-5254247D01*
X152769161Y-5206628D01*
X152816780Y-5111390D01*
X152816780Y-4920914D01*
X152769161Y-4825676D01*
X152721542Y-4778057D01*
X152626304Y-4730438D01*
X151816780Y-4730438D01*
X154094666Y-62143914D02*
X153094666Y-62477248D01*
X154094666Y-62810581D01*
X153094666Y-63143914D02*
X154094666Y-63143914D01*
X153094666Y-63620105D02*
X154094666Y-63620105D01*
X153094666Y-64191533D01*
X154094666Y-64191533D01*
X151484666Y-62667724D02*
X151484666Y-62096295D01*
X151484666Y-62382010D02*
X152484666Y-62382010D01*
X152341808Y-62286772D01*
X152246570Y-62191533D01*
X152198951Y-62096295D01*
X152389427Y-63048676D02*
X152437047Y-63096295D01*
X152484666Y-63191533D01*
X152484666Y-63429629D01*
X152437047Y-63524867D01*
X152389427Y-63572486D01*
X152294189Y-63620105D01*
X152198951Y-63620105D01*
X152056094Y-63572486D01*
X151484666Y-63001057D01*
X151484666Y-63620105D01*
X152151332Y-63953438D02*
X151484666Y-64191533D01*
X152151332Y-64429629D01*
X105142280Y-58909638D02*
X106142280Y-58576304D01*
X105142280Y-58242971D01*
X106142280Y-57909638D02*
X105142280Y-57909638D01*
X106142280Y-57433447D02*
X105142280Y-57433447D01*
X106142280Y-56862019D01*
X105142280Y-56862019D01*
X107752280Y-58385828D02*
X107752280Y-58957257D01*
X107752280Y-58671542D02*
X106752280Y-58671542D01*
X106895138Y-58766780D01*
X106990376Y-58862019D01*
X107037995Y-58957257D01*
X106847519Y-58004876D02*
X106799900Y-57957257D01*
X106752280Y-57862019D01*
X106752280Y-57623923D01*
X106799900Y-57528685D01*
X106847519Y-57481066D01*
X106942757Y-57433447D01*
X107037995Y-57433447D01*
X107180852Y-57481066D01*
X107752280Y-58052495D01*
X107752280Y-57433447D01*
X107085614Y-57100114D02*
X107752280Y-56862019D01*
X107085614Y-56623923D01*
D12*
X126660730Y-4955180D02*
X126755969Y-4955180D01*
X126851207Y-5002800D01*
X126898826Y-5050419D01*
X126946445Y-5145657D01*
X126994064Y-5336133D01*
X126994064Y-5574228D01*
X126946445Y-5764704D01*
X126898826Y-5859942D01*
X126851207Y-5907561D01*
X126755969Y-5955180D01*
X126660730Y-5955180D01*
X126565492Y-5907561D01*
X126517873Y-5859942D01*
X126470254Y-5764704D01*
X126422635Y-5574228D01*
X126422635Y-5336133D01*
X126470254Y-5145657D01*
X126517873Y-5050419D01*
X126565492Y-5002800D01*
X126660730Y-4955180D01*
X98205285Y-9950419D02*
X98252904Y-9902800D01*
X98348142Y-9855180D01*
X98586238Y-9855180D01*
X98681476Y-9902800D01*
X98729095Y-9950419D01*
X98776714Y-10045657D01*
X98776714Y-10140895D01*
X98729095Y-10283752D01*
X98157666Y-10855180D01*
X98776714Y-10855180D01*
X128570914Y-8087580D02*
X127999485Y-8087580D01*
X128285200Y-8087580D02*
X128285200Y-7087580D01*
X128189961Y-7230438D01*
X128094723Y-7325676D01*
X127999485Y-7373295D01*
D10*
X105244900Y-63391304D02*
X105197280Y-63486542D01*
X105197280Y-63629400D01*
X105244900Y-63772257D01*
X105340138Y-63867495D01*
X105435376Y-63915114D01*
X105625852Y-63962733D01*
X105768709Y-63962733D01*
X105959185Y-63915114D01*
X106054423Y-63867495D01*
X106149661Y-63772257D01*
X106197280Y-63629400D01*
X106197280Y-63534161D01*
X106149661Y-63391304D01*
X106102042Y-63343685D01*
X105768709Y-63343685D01*
X105768709Y-63534161D01*
X106197280Y-62915114D02*
X105197280Y-62915114D01*
X106197280Y-62343685D01*
X105197280Y-62343685D01*
X106197280Y-61867495D02*
X105197280Y-61867495D01*
X105197280Y-61629400D01*
X105244900Y-61486542D01*
X105340138Y-61391304D01*
X105435376Y-61343685D01*
X105625852Y-61296066D01*
X105768709Y-61296066D01*
X105959185Y-61343685D01*
X106054423Y-61391304D01*
X106149661Y-61486542D01*
X106197280Y-61629400D01*
X106197280Y-61867495D01*
D12*
X129058380Y-15250380D02*
X128725047Y-14774190D01*
X128486952Y-15250380D02*
X128486952Y-14250380D01*
X128867904Y-14250380D01*
X128963142Y-14298000D01*
X129010761Y-14345619D01*
X129058380Y-14440857D01*
X129058380Y-14583714D01*
X129010761Y-14678952D01*
X128963142Y-14726571D01*
X128867904Y-14774190D01*
X128486952Y-14774190D01*
X129439333Y-15202761D02*
X129582190Y-15250380D01*
X129820285Y-15250380D01*
X129915523Y-15202761D01*
X129963142Y-15155142D01*
X130010761Y-15059904D01*
X130010761Y-14964666D01*
X129963142Y-14869428D01*
X129915523Y-14821809D01*
X129820285Y-14774190D01*
X129629809Y-14726571D01*
X129534571Y-14678952D01*
X129486952Y-14631333D01*
X129439333Y-14536095D01*
X129439333Y-14440857D01*
X129486952Y-14345619D01*
X129534571Y-14298000D01*
X129629809Y-14250380D01*
X129867904Y-14250380D01*
X130010761Y-14298000D01*
X130296476Y-14250380D02*
X130867904Y-14250380D01*
X130582190Y-15250380D02*
X130582190Y-14250380D01*
D13*
X99265771Y-85313942D02*
X100408628Y-85313942D01*
X99837200Y-85885371D02*
X99837200Y-84742514D01*
X99265771Y-86888742D02*
X100408628Y-86888742D01*
D12*
X98443380Y-4855180D02*
X98538619Y-4855180D01*
X98633857Y-4902800D01*
X98681476Y-4950419D01*
X98729095Y-5045657D01*
X98776714Y-5236133D01*
X98776714Y-5474228D01*
X98729095Y-5664704D01*
X98681476Y-5759942D01*
X98633857Y-5807561D01*
X98538619Y-5855180D01*
X98443380Y-5855180D01*
X98348142Y-5807561D01*
X98300523Y-5759942D01*
X98252904Y-5664704D01*
X98205285Y-5474228D01*
X98205285Y-5236133D01*
X98252904Y-5045657D01*
X98300523Y-4950419D01*
X98348142Y-4902800D01*
X98443380Y-4855180D01*
D10*
%TO.C,D3*%
X145341371Y-64424780D02*
X144769942Y-64424780D01*
X145055657Y-64424780D02*
X145055657Y-63424780D01*
X144960419Y-63567638D01*
X144865180Y-63662876D01*
X144769942Y-63710495D01*
X145722323Y-63520019D02*
X145769942Y-63472400D01*
X145865180Y-63424780D01*
X146103276Y-63424780D01*
X146198514Y-63472400D01*
X146246133Y-63520019D01*
X146293752Y-63615257D01*
X146293752Y-63710495D01*
X146246133Y-63853352D01*
X145674704Y-64424780D01*
X146293752Y-64424780D01*
X146627085Y-63758114D02*
X146865180Y-64424780D01*
X147103276Y-63758114D01*
%TO.C,RN9*%
X109484380Y-25908838D02*
X109484380Y-26480266D01*
X109484380Y-26194552D02*
X108484380Y-26194552D01*
X108627238Y-26289790D01*
X108722476Y-26385028D01*
X108770095Y-26480266D01*
X108484380Y-25289790D02*
X108484380Y-25194552D01*
X108532000Y-25099314D01*
X108579619Y-25051695D01*
X108674857Y-25004076D01*
X108865333Y-24956457D01*
X109103428Y-24956457D01*
X109293904Y-25004076D01*
X109389142Y-25051695D01*
X109436761Y-25099314D01*
X109484380Y-25194552D01*
X109484380Y-25289790D01*
X109436761Y-25385028D01*
X109389142Y-25432647D01*
X109293904Y-25480266D01*
X109103428Y-25527885D01*
X108865333Y-25527885D01*
X108674857Y-25480266D01*
X108579619Y-25432647D01*
X108532000Y-25385028D01*
X108484380Y-25289790D01*
X109484380Y-24527885D02*
X108484380Y-24527885D01*
X109103428Y-24432647D02*
X109484380Y-24146933D01*
X108817714Y-24146933D02*
X109198666Y-24527885D01*
%TO.C,R5*%
X148522180Y-60503638D02*
X148522180Y-61075066D01*
X148522180Y-60789352D02*
X147522180Y-60789352D01*
X147665038Y-60884590D01*
X147760276Y-60979828D01*
X147807895Y-61075066D01*
X147522180Y-59884590D02*
X147522180Y-59789352D01*
X147569800Y-59694114D01*
X147617419Y-59646495D01*
X147712657Y-59598876D01*
X147903133Y-59551257D01*
X148141228Y-59551257D01*
X148331704Y-59598876D01*
X148426942Y-59646495D01*
X148474561Y-59694114D01*
X148522180Y-59789352D01*
X148522180Y-59884590D01*
X148474561Y-59979828D01*
X148426942Y-60027447D01*
X148331704Y-60075066D01*
X148141228Y-60122685D01*
X147903133Y-60122685D01*
X147712657Y-60075066D01*
X147617419Y-60027447D01*
X147569800Y-59979828D01*
X147522180Y-59884590D01*
X148522180Y-59122685D02*
X147522180Y-59122685D01*
X148141228Y-59027447D02*
X148522180Y-58741733D01*
X147855514Y-58741733D02*
X148236466Y-59122685D01*
%TO.C,D2*%
X130631542Y-63424780D02*
X130155352Y-63424780D01*
X130107733Y-63900971D01*
X130155352Y-63853352D01*
X130250590Y-63805733D01*
X130488685Y-63805733D01*
X130583923Y-63853352D01*
X130631542Y-63900971D01*
X130679161Y-63996209D01*
X130679161Y-64234304D01*
X130631542Y-64329542D01*
X130583923Y-64377161D01*
X130488685Y-64424780D01*
X130250590Y-64424780D01*
X130155352Y-64377161D01*
X130107733Y-64329542D01*
X131012495Y-63758114D02*
X131250590Y-64424780D01*
X131488685Y-63758114D01*
%TO.C,C1*%
X120374380Y-5527561D02*
X120374380Y-6098990D01*
X120374380Y-5813276D02*
X119374380Y-5813276D01*
X119517238Y-5908514D01*
X119612476Y-6003752D01*
X119660095Y-6098990D01*
X119374380Y-4908514D02*
X119374380Y-4813276D01*
X119422000Y-4718038D01*
X119469619Y-4670419D01*
X119564857Y-4622800D01*
X119755333Y-4575180D01*
X119993428Y-4575180D01*
X120183904Y-4622800D01*
X120279142Y-4670419D01*
X120326761Y-4718038D01*
X120374380Y-4813276D01*
X120374380Y-4908514D01*
X120326761Y-5003752D01*
X120279142Y-5051371D01*
X120183904Y-5098990D01*
X119993428Y-5146609D01*
X119755333Y-5146609D01*
X119564857Y-5098990D01*
X119469619Y-5051371D01*
X119422000Y-5003752D01*
X119374380Y-4908514D01*
X119374380Y-3956133D02*
X119374380Y-3860895D01*
X119422000Y-3765657D01*
X119469619Y-3718038D01*
X119564857Y-3670419D01*
X119755333Y-3622800D01*
X119993428Y-3622800D01*
X120183904Y-3670419D01*
X120279142Y-3718038D01*
X120326761Y-3765657D01*
X120374380Y-3860895D01*
X120374380Y-3956133D01*
X120326761Y-4051371D01*
X120279142Y-4098990D01*
X120183904Y-4146609D01*
X119993428Y-4194228D01*
X119755333Y-4194228D01*
X119564857Y-4146609D01*
X119469619Y-4098990D01*
X119422000Y-4051371D01*
X119374380Y-3956133D01*
X119707714Y-3194228D02*
X120374380Y-3194228D01*
X119802952Y-3194228D02*
X119755333Y-3146609D01*
X119707714Y-3051371D01*
X119707714Y-2908514D01*
X119755333Y-2813276D01*
X119850571Y-2765657D01*
X120374380Y-2765657D01*
X119707714Y-2432323D02*
X119707714Y-2051371D01*
X120374380Y-2289466D02*
X119517238Y-2289466D01*
X119422000Y-2241847D01*
X119374380Y-2146609D01*
X119374380Y-2051371D01*
%TO.C,RN1*%
X114278761Y-2282380D02*
X113707333Y-2282380D01*
X113993047Y-2282380D02*
X113993047Y-1282380D01*
X113897809Y-1425238D01*
X113802571Y-1520476D01*
X113707333Y-1568095D01*
X114897809Y-1282380D02*
X114993047Y-1282380D01*
X115088285Y-1330000D01*
X115135904Y-1377619D01*
X115183523Y-1472857D01*
X115231142Y-1663333D01*
X115231142Y-1901428D01*
X115183523Y-2091904D01*
X115135904Y-2187142D01*
X115088285Y-2234761D01*
X114993047Y-2282380D01*
X114897809Y-2282380D01*
X114802571Y-2234761D01*
X114754952Y-2187142D01*
X114707333Y-2091904D01*
X114659714Y-1901428D01*
X114659714Y-1663333D01*
X114707333Y-1472857D01*
X114754952Y-1377619D01*
X114802571Y-1330000D01*
X114897809Y-1282380D01*
X115659714Y-2282380D02*
X115659714Y-1282380D01*
X115754952Y-1901428D02*
X116040666Y-2282380D01*
X116040666Y-1615714D02*
X115659714Y-1996666D01*
%TO.C,C9*%
X141132971Y-64475580D02*
X140561542Y-64475580D01*
X140847257Y-64475580D02*
X140847257Y-63475580D01*
X140752019Y-63618438D01*
X140656780Y-63713676D01*
X140561542Y-63761295D01*
X141752019Y-63475580D02*
X141847257Y-63475580D01*
X141942495Y-63523200D01*
X141990114Y-63570819D01*
X142037733Y-63666057D01*
X142085352Y-63856533D01*
X142085352Y-64094628D01*
X142037733Y-64285104D01*
X141990114Y-64380342D01*
X141942495Y-64427961D01*
X141847257Y-64475580D01*
X141752019Y-64475580D01*
X141656780Y-64427961D01*
X141609161Y-64380342D01*
X141561542Y-64285104D01*
X141513923Y-64094628D01*
X141513923Y-63856533D01*
X141561542Y-63666057D01*
X141609161Y-63570819D01*
X141656780Y-63523200D01*
X141752019Y-63475580D01*
X142942495Y-63808914D02*
X142942495Y-64475580D01*
X142513923Y-63808914D02*
X142513923Y-64332723D01*
X142561542Y-64427961D01*
X142656780Y-64475580D01*
X142799638Y-64475580D01*
X142894876Y-64427961D01*
X142942495Y-64380342D01*
X143752019Y-63951771D02*
X143418685Y-63951771D01*
X143418685Y-64475580D02*
X143418685Y-63475580D01*
X143894876Y-63475580D01*
%TO.C,R4*%
X153028111Y-16848680D02*
X152456683Y-16848680D01*
X152742397Y-16848680D02*
X152742397Y-15848680D01*
X152647159Y-15991538D01*
X152551921Y-16086776D01*
X152456683Y-16134395D01*
X153647159Y-15848680D02*
X153742397Y-15848680D01*
X153837635Y-15896300D01*
X153885254Y-15943919D01*
X153932873Y-16039157D01*
X153980492Y-16229633D01*
X153980492Y-16467728D01*
X153932873Y-16658204D01*
X153885254Y-16753442D01*
X153837635Y-16801061D01*
X153742397Y-16848680D01*
X153647159Y-16848680D01*
X153551921Y-16801061D01*
X153504302Y-16753442D01*
X153456683Y-16658204D01*
X153409064Y-16467728D01*
X153409064Y-16229633D01*
X153456683Y-16039157D01*
X153504302Y-15943919D01*
X153551921Y-15896300D01*
X153647159Y-15848680D01*
X154409064Y-16848680D02*
X154409064Y-15848680D01*
X154504302Y-16467728D02*
X154790016Y-16848680D01*
X154790016Y-16182014D02*
X154409064Y-16562966D01*
%TO.C,U2*%
X135368342Y-57290380D02*
X134892152Y-57290380D01*
X134844533Y-57766571D01*
X134892152Y-57718952D01*
X134987390Y-57671333D01*
X135225485Y-57671333D01*
X135320723Y-57718952D01*
X135368342Y-57766571D01*
X135415961Y-57861809D01*
X135415961Y-58099904D01*
X135368342Y-58195142D01*
X135320723Y-58242761D01*
X135225485Y-58290380D01*
X134987390Y-58290380D01*
X134892152Y-58242761D01*
X134844533Y-58195142D01*
X135749295Y-57623714D02*
X135987390Y-58290380D01*
X136225485Y-57623714D01*
%TO.C,C7*%
X132738342Y-60593619D02*
X132785961Y-60546000D01*
X132881200Y-60498380D01*
X133119295Y-60498380D01*
X133214533Y-60546000D01*
X133262152Y-60593619D01*
X133309771Y-60688857D01*
X133309771Y-60784095D01*
X133262152Y-60926952D01*
X132690723Y-61498380D01*
X133309771Y-61498380D01*
X133690723Y-60593619D02*
X133738342Y-60546000D01*
X133833580Y-60498380D01*
X134071676Y-60498380D01*
X134166914Y-60546000D01*
X134214533Y-60593619D01*
X134262152Y-60688857D01*
X134262152Y-60784095D01*
X134214533Y-60926952D01*
X133643104Y-61498380D01*
X134262152Y-61498380D01*
X135119295Y-60831714D02*
X135119295Y-61498380D01*
X134690723Y-60831714D02*
X134690723Y-61355523D01*
X134738342Y-61450761D01*
X134833580Y-61498380D01*
X134976438Y-61498380D01*
X135071676Y-61450761D01*
X135119295Y-61403142D01*
X135928819Y-60974571D02*
X135595485Y-60974571D01*
X135595485Y-61498380D02*
X135595485Y-60498380D01*
X136071676Y-60498380D01*
%TO.C,C8*%
X132725342Y-63387619D02*
X132772961Y-63340000D01*
X132868200Y-63292380D01*
X133106295Y-63292380D01*
X133201533Y-63340000D01*
X133249152Y-63387619D01*
X133296771Y-63482857D01*
X133296771Y-63578095D01*
X133249152Y-63720952D01*
X132677723Y-64292380D01*
X133296771Y-64292380D01*
X133677723Y-63387619D02*
X133725342Y-63340000D01*
X133820580Y-63292380D01*
X134058676Y-63292380D01*
X134153914Y-63340000D01*
X134201533Y-63387619D01*
X134249152Y-63482857D01*
X134249152Y-63578095D01*
X134201533Y-63720952D01*
X133630104Y-64292380D01*
X134249152Y-64292380D01*
X135106295Y-63625714D02*
X135106295Y-64292380D01*
X134677723Y-63625714D02*
X134677723Y-64149523D01*
X134725342Y-64244761D01*
X134820580Y-64292380D01*
X134963438Y-64292380D01*
X135058676Y-64244761D01*
X135106295Y-64197142D01*
X135915819Y-63768571D02*
X135582485Y-63768571D01*
X135582485Y-64292380D02*
X135582485Y-63292380D01*
X136058676Y-63292380D01*
%TO.C,L1*%
X135265485Y-48220714D02*
X135265485Y-48887380D01*
X135027390Y-47839761D02*
X134789295Y-48554047D01*
X135408342Y-48554047D01*
X135789295Y-48792142D02*
X135836914Y-48839761D01*
X135789295Y-48887380D01*
X135741676Y-48839761D01*
X135789295Y-48792142D01*
X135789295Y-48887380D01*
X136170247Y-47887380D02*
X136836914Y-47887380D01*
X136408342Y-48887380D01*
X137646438Y-48220714D02*
X137646438Y-48887380D01*
X137217866Y-48220714D02*
X137217866Y-48744523D01*
X137265485Y-48839761D01*
X137360723Y-48887380D01*
X137503580Y-48887380D01*
X137598819Y-48839761D01*
X137646438Y-48792142D01*
X138122628Y-48887380D02*
X138122628Y-47887380D01*
X138122628Y-48363571D02*
X138694057Y-48363571D01*
X138694057Y-48887380D02*
X138694057Y-47887380D01*
X139836914Y-47887380D02*
X140455961Y-47887380D01*
X140122628Y-48268333D01*
X140265485Y-48268333D01*
X140360723Y-48315952D01*
X140408342Y-48363571D01*
X140455961Y-48458809D01*
X140455961Y-48696904D01*
X140408342Y-48792142D01*
X140360723Y-48839761D01*
X140265485Y-48887380D01*
X139979771Y-48887380D01*
X139884533Y-48839761D01*
X139836914Y-48792142D01*
X140836914Y-48601666D02*
X141313104Y-48601666D01*
X140741676Y-48887380D02*
X141075009Y-47887380D01*
X141408342Y-48887380D01*
%TO.C,C5*%
X118297904Y-51301980D02*
X118916952Y-51301980D01*
X118583619Y-51682933D01*
X118726476Y-51682933D01*
X118821714Y-51730552D01*
X118869333Y-51778171D01*
X118916952Y-51873409D01*
X118916952Y-52111504D01*
X118869333Y-52206742D01*
X118821714Y-52254361D01*
X118726476Y-52301980D01*
X118440761Y-52301980D01*
X118345523Y-52254361D01*
X118297904Y-52206742D01*
X119250285Y-51301980D02*
X119869333Y-51301980D01*
X119536000Y-51682933D01*
X119678857Y-51682933D01*
X119774095Y-51730552D01*
X119821714Y-51778171D01*
X119869333Y-51873409D01*
X119869333Y-52111504D01*
X119821714Y-52206742D01*
X119774095Y-52254361D01*
X119678857Y-52301980D01*
X119393142Y-52301980D01*
X119297904Y-52254361D01*
X119250285Y-52206742D01*
X120488380Y-51301980D02*
X120583619Y-51301980D01*
X120678857Y-51349600D01*
X120726476Y-51397219D01*
X120774095Y-51492457D01*
X120821714Y-51682933D01*
X120821714Y-51921028D01*
X120774095Y-52111504D01*
X120726476Y-52206742D01*
X120678857Y-52254361D01*
X120583619Y-52301980D01*
X120488380Y-52301980D01*
X120393142Y-52254361D01*
X120345523Y-52206742D01*
X120297904Y-52111504D01*
X120250285Y-51921028D01*
X120250285Y-51682933D01*
X120297904Y-51492457D01*
X120345523Y-51397219D01*
X120393142Y-51349600D01*
X120488380Y-51301980D01*
X121678857Y-51635314D02*
X121678857Y-52301980D01*
X121250285Y-51635314D02*
X121250285Y-52159123D01*
X121297904Y-52254361D01*
X121393142Y-52301980D01*
X121536000Y-52301980D01*
X121631238Y-52254361D01*
X121678857Y-52206742D01*
X122012190Y-51635314D02*
X122393142Y-51635314D01*
X122155047Y-52301980D02*
X122155047Y-51444838D01*
X122202666Y-51349600D01*
X122297904Y-51301980D01*
X122393142Y-51301980D01*
X123964571Y-51301980D02*
X123488380Y-51301980D01*
X123440761Y-51778171D01*
X123488380Y-51730552D01*
X123583619Y-51682933D01*
X123821714Y-51682933D01*
X123916952Y-51730552D01*
X123964571Y-51778171D01*
X124012190Y-51873409D01*
X124012190Y-52111504D01*
X123964571Y-52206742D01*
X123916952Y-52254361D01*
X123821714Y-52301980D01*
X123583619Y-52301980D01*
X123488380Y-52254361D01*
X123440761Y-52206742D01*
X124631238Y-51301980D02*
X124726476Y-51301980D01*
X124821714Y-51349600D01*
X124869333Y-51397219D01*
X124916952Y-51492457D01*
X124964571Y-51682933D01*
X124964571Y-51921028D01*
X124916952Y-52111504D01*
X124869333Y-52206742D01*
X124821714Y-52254361D01*
X124726476Y-52301980D01*
X124631238Y-52301980D01*
X124536000Y-52254361D01*
X124488380Y-52206742D01*
X124440761Y-52111504D01*
X124393142Y-51921028D01*
X124393142Y-51682933D01*
X124440761Y-51492457D01*
X124488380Y-51397219D01*
X124536000Y-51349600D01*
X124631238Y-51301980D01*
X125297904Y-51635314D02*
X125536000Y-52301980D01*
X125774095Y-51635314D01*
%TO.C,R3*%
X153028111Y-18753680D02*
X152456683Y-18753680D01*
X152742397Y-18753680D02*
X152742397Y-17753680D01*
X152647159Y-17896538D01*
X152551921Y-17991776D01*
X152456683Y-18039395D01*
X153647159Y-17753680D02*
X153742397Y-17753680D01*
X153837635Y-17801300D01*
X153885254Y-17848919D01*
X153932873Y-17944157D01*
X153980492Y-18134633D01*
X153980492Y-18372728D01*
X153932873Y-18563204D01*
X153885254Y-18658442D01*
X153837635Y-18706061D01*
X153742397Y-18753680D01*
X153647159Y-18753680D01*
X153551921Y-18706061D01*
X153504302Y-18658442D01*
X153456683Y-18563204D01*
X153409064Y-18372728D01*
X153409064Y-18134633D01*
X153456683Y-17944157D01*
X153504302Y-17848919D01*
X153551921Y-17801300D01*
X153647159Y-17753680D01*
X154409064Y-18753680D02*
X154409064Y-17753680D01*
X154504302Y-18372728D02*
X154790016Y-18753680D01*
X154790016Y-18087014D02*
X154409064Y-18467966D01*
%TO.C,U1*%
X116554761Y-26353380D02*
X116554761Y-25353380D01*
X116888095Y-26067666D01*
X117221428Y-25353380D01*
X117221428Y-26353380D01*
X118269047Y-26258142D02*
X118221428Y-26305761D01*
X118078571Y-26353380D01*
X117983333Y-26353380D01*
X117840476Y-26305761D01*
X117745238Y-26210523D01*
X117697619Y-26115285D01*
X117650000Y-25924809D01*
X117650000Y-25781952D01*
X117697619Y-25591476D01*
X117745238Y-25496238D01*
X117840476Y-25401000D01*
X117983333Y-25353380D01*
X118078571Y-25353380D01*
X118221428Y-25401000D01*
X118269047Y-25448619D01*
X118697619Y-26353380D02*
X118697619Y-25353380D01*
X119078571Y-25353380D01*
X119173809Y-25401000D01*
X119221428Y-25448619D01*
X119269047Y-25543857D01*
X119269047Y-25686714D01*
X119221428Y-25781952D01*
X119173809Y-25829571D01*
X119078571Y-25877190D01*
X118697619Y-25877190D01*
X119650000Y-25448619D02*
X119697619Y-25401000D01*
X119792857Y-25353380D01*
X120030952Y-25353380D01*
X120126190Y-25401000D01*
X120173809Y-25448619D01*
X120221428Y-25543857D01*
X120221428Y-25639095D01*
X120173809Y-25781952D01*
X119602380Y-26353380D01*
X120221428Y-26353380D01*
X120554761Y-25353380D02*
X121173809Y-25353380D01*
X120840476Y-25734333D01*
X120983333Y-25734333D01*
X121078571Y-25781952D01*
X121126190Y-25829571D01*
X121173809Y-25924809D01*
X121173809Y-26162904D01*
X121126190Y-26258142D01*
X121078571Y-26305761D01*
X120983333Y-26353380D01*
X120697619Y-26353380D01*
X120602380Y-26305761D01*
X120554761Y-26258142D01*
X121792857Y-25353380D02*
X121888095Y-25353380D01*
X121983333Y-25401000D01*
X122030952Y-25448619D01*
X122078571Y-25543857D01*
X122126190Y-25734333D01*
X122126190Y-25972428D01*
X122078571Y-26162904D01*
X122030952Y-26258142D01*
X121983333Y-26305761D01*
X121888095Y-26353380D01*
X121792857Y-26353380D01*
X121697619Y-26305761D01*
X121650000Y-26258142D01*
X121602380Y-26162904D01*
X121554761Y-25972428D01*
X121554761Y-25734333D01*
X121602380Y-25543857D01*
X121650000Y-25448619D01*
X121697619Y-25401000D01*
X121792857Y-25353380D01*
X123078571Y-26353380D02*
X122507142Y-26353380D01*
X122792857Y-26353380D02*
X122792857Y-25353380D01*
X122697619Y-25496238D01*
X122602380Y-25591476D01*
X122507142Y-25639095D01*
X123411904Y-25353380D02*
X124078571Y-25353380D01*
X123650000Y-26353380D01*
X124221428Y-26448619D02*
X124983333Y-26448619D01*
X125173809Y-26305761D02*
X125316666Y-26353380D01*
X125554761Y-26353380D01*
X125650000Y-26305761D01*
X125697619Y-26258142D01*
X125745238Y-26162904D01*
X125745238Y-26067666D01*
X125697619Y-25972428D01*
X125650000Y-25924809D01*
X125554761Y-25877190D01*
X125364285Y-25829571D01*
X125269047Y-25781952D01*
X125221428Y-25734333D01*
X125173809Y-25639095D01*
X125173809Y-25543857D01*
X125221428Y-25448619D01*
X125269047Y-25401000D01*
X125364285Y-25353380D01*
X125602380Y-25353380D01*
X125745238Y-25401000D01*
X126364285Y-25353380D02*
X126554761Y-25353380D01*
X126650000Y-25401000D01*
X126745238Y-25496238D01*
X126792857Y-25686714D01*
X126792857Y-26020047D01*
X126745238Y-26210523D01*
X126650000Y-26305761D01*
X126554761Y-26353380D01*
X126364285Y-26353380D01*
X126269047Y-26305761D01*
X126173809Y-26210523D01*
X126126190Y-26020047D01*
X126126190Y-25686714D01*
X126173809Y-25496238D01*
X126269047Y-25401000D01*
X126364285Y-25353380D01*
%TO.C,RN3*%
X134528780Y-26059238D02*
X134528780Y-26630666D01*
X134528780Y-26344952D02*
X133528780Y-26344952D01*
X133671638Y-26440190D01*
X133766876Y-26535428D01*
X133814495Y-26630666D01*
X133528780Y-25440190D02*
X133528780Y-25344952D01*
X133576400Y-25249714D01*
X133624019Y-25202095D01*
X133719257Y-25154476D01*
X133909733Y-25106857D01*
X134147828Y-25106857D01*
X134338304Y-25154476D01*
X134433542Y-25202095D01*
X134481161Y-25249714D01*
X134528780Y-25344952D01*
X134528780Y-25440190D01*
X134481161Y-25535428D01*
X134433542Y-25583047D01*
X134338304Y-25630666D01*
X134147828Y-25678285D01*
X133909733Y-25678285D01*
X133719257Y-25630666D01*
X133624019Y-25583047D01*
X133576400Y-25535428D01*
X133528780Y-25440190D01*
X134528780Y-24678285D02*
X133528780Y-24678285D01*
X134147828Y-24583047D02*
X134528780Y-24297333D01*
X133862114Y-24297333D02*
X134243066Y-24678285D01*
%TO.C,RN11*%
X129931380Y-25083035D02*
X129931380Y-25654464D01*
X129931380Y-25368749D02*
X128931380Y-25368749D01*
X129074238Y-25463988D01*
X129169476Y-25559226D01*
X129217095Y-25654464D01*
X129931380Y-24654464D02*
X128931380Y-24654464D01*
X129550428Y-24559226D02*
X129931380Y-24273511D01*
X129264714Y-24273511D02*
X129645666Y-24654464D01*
%TO.C,RN12*%
X114107180Y-24981447D02*
X114107180Y-25552876D01*
X114107180Y-25267161D02*
X113107180Y-25267161D01*
X113250038Y-25362400D01*
X113345276Y-25457638D01*
X113392895Y-25552876D01*
X114107180Y-24552876D02*
X113107180Y-24552876D01*
X113726228Y-24457638D02*
X114107180Y-24171923D01*
X113440514Y-24171923D02*
X113821466Y-24552876D01*
%TO.C,C6*%
X136770580Y-57261980D02*
X136199152Y-57261980D01*
X136484866Y-57261980D02*
X136484866Y-56261980D01*
X136389628Y-56404838D01*
X136294390Y-56500076D01*
X136199152Y-56547695D01*
X137389628Y-56261980D02*
X137484866Y-56261980D01*
X137580104Y-56309600D01*
X137627723Y-56357219D01*
X137675342Y-56452457D01*
X137722961Y-56642933D01*
X137722961Y-56881028D01*
X137675342Y-57071504D01*
X137627723Y-57166742D01*
X137580104Y-57214361D01*
X137484866Y-57261980D01*
X137389628Y-57261980D01*
X137294390Y-57214361D01*
X137246771Y-57166742D01*
X137199152Y-57071504D01*
X137151533Y-56881028D01*
X137151533Y-56642933D01*
X137199152Y-56452457D01*
X137246771Y-56357219D01*
X137294390Y-56309600D01*
X137389628Y-56261980D01*
X138342009Y-56261980D02*
X138437247Y-56261980D01*
X138532485Y-56309600D01*
X138580104Y-56357219D01*
X138627723Y-56452457D01*
X138675342Y-56642933D01*
X138675342Y-56881028D01*
X138627723Y-57071504D01*
X138580104Y-57166742D01*
X138532485Y-57214361D01*
X138437247Y-57261980D01*
X138342009Y-57261980D01*
X138246771Y-57214361D01*
X138199152Y-57166742D01*
X138151533Y-57071504D01*
X138103914Y-56881028D01*
X138103914Y-56642933D01*
X138151533Y-56452457D01*
X138199152Y-56357219D01*
X138246771Y-56309600D01*
X138342009Y-56261980D01*
X139103914Y-56595314D02*
X139103914Y-57261980D01*
X139103914Y-56690552D02*
X139151533Y-56642933D01*
X139246771Y-56595314D01*
X139389628Y-56595314D01*
X139484866Y-56642933D01*
X139532485Y-56738171D01*
X139532485Y-57261980D01*
X140342009Y-56738171D02*
X140008676Y-56738171D01*
X140008676Y-57261980D02*
X140008676Y-56261980D01*
X140484866Y-56261980D01*
%TO.C,C3*%
X132217380Y-10043761D02*
X132217380Y-10615190D01*
X132217380Y-10329476D02*
X131217380Y-10329476D01*
X131360238Y-10424714D01*
X131455476Y-10519952D01*
X131503095Y-10615190D01*
X131217380Y-9424714D02*
X131217380Y-9329476D01*
X131265000Y-9234238D01*
X131312619Y-9186619D01*
X131407857Y-9139000D01*
X131598333Y-9091380D01*
X131836428Y-9091380D01*
X132026904Y-9139000D01*
X132122142Y-9186619D01*
X132169761Y-9234238D01*
X132217380Y-9329476D01*
X132217380Y-9424714D01*
X132169761Y-9519952D01*
X132122142Y-9567571D01*
X132026904Y-9615190D01*
X131836428Y-9662809D01*
X131598333Y-9662809D01*
X131407857Y-9615190D01*
X131312619Y-9567571D01*
X131265000Y-9519952D01*
X131217380Y-9424714D01*
X131217380Y-8472333D02*
X131217380Y-8377095D01*
X131265000Y-8281857D01*
X131312619Y-8234238D01*
X131407857Y-8186619D01*
X131598333Y-8139000D01*
X131836428Y-8139000D01*
X132026904Y-8186619D01*
X132122142Y-8234238D01*
X132169761Y-8281857D01*
X132217380Y-8377095D01*
X132217380Y-8472333D01*
X132169761Y-8567571D01*
X132122142Y-8615190D01*
X132026904Y-8662809D01*
X131836428Y-8710428D01*
X131598333Y-8710428D01*
X131407857Y-8662809D01*
X131312619Y-8615190D01*
X131265000Y-8567571D01*
X131217380Y-8472333D01*
X131550714Y-7710428D02*
X132217380Y-7710428D01*
X131645952Y-7710428D02*
X131598333Y-7662809D01*
X131550714Y-7567571D01*
X131550714Y-7424714D01*
X131598333Y-7329476D01*
X131693571Y-7281857D01*
X132217380Y-7281857D01*
X131550714Y-6948523D02*
X131550714Y-6567571D01*
X132217380Y-6805666D02*
X131360238Y-6805666D01*
X131265000Y-6758047D01*
X131217380Y-6662809D01*
X131217380Y-6567571D01*
%TO.C,R1*%
X128418914Y-60887771D02*
X129085580Y-60887771D01*
X128037961Y-61125866D02*
X128752247Y-61363961D01*
X128752247Y-60744914D01*
X128990342Y-60363961D02*
X129037961Y-60316342D01*
X129085580Y-60363961D01*
X129037961Y-60411580D01*
X128990342Y-60363961D01*
X129085580Y-60363961D01*
X128085580Y-59983009D02*
X128085580Y-59316342D01*
X129085580Y-59744914D01*
X129085580Y-58935390D02*
X128085580Y-58935390D01*
X128704628Y-58840152D02*
X129085580Y-58554438D01*
X128418914Y-58554438D02*
X128799866Y-58935390D01*
D14*
%TO.C,J14*%
X149997400Y-89038900D02*
X148747400Y-89038900D01*
X152872400Y-99787900D02*
X152872400Y-93788900D01*
X159372400Y-99787900D02*
X156372400Y-99787900D01*
X156372400Y-93788900D02*
X159372400Y-93788900D01*
X155872400Y-93788900D02*
X155872400Y-99787900D01*
X149372400Y-99787900D02*
X149372400Y-93788900D01*
X149372400Y-93788900D02*
X152372400Y-93788900D01*
X152872400Y-93788900D02*
X155872400Y-93788900D01*
X145872400Y-99787900D02*
X145872400Y-93788900D01*
X153497400Y-89038900D02*
X152247400Y-89038900D01*
X152372400Y-99787900D02*
X149372400Y-99787900D01*
X156997400Y-89038900D02*
X155747400Y-89038900D01*
X148872400Y-93788900D02*
X148872400Y-99787900D01*
X159372400Y-93788900D02*
X159372400Y-99787900D01*
X152372400Y-93788900D02*
X152372400Y-99787900D01*
X156372400Y-99787900D02*
X156372400Y-93788900D01*
X145872400Y-93788900D02*
X148872400Y-93788900D01*
X160272400Y-89038900D02*
X159247400Y-89038900D01*
X155872400Y-99787900D02*
X152872400Y-99787900D01*
X146497400Y-89038900D02*
X145472400Y-89038900D01*
X148872400Y-99787900D02*
X145872400Y-99787900D01*
X160272400Y-100238900D02*
X145472400Y-100238900D01*
X145472400Y-100238900D02*
X145472400Y-89038900D01*
X160272400Y-100238900D02*
X160272400Y-89038900D01*
%TO.C,J13*%
X134605000Y-89038900D02*
X133355000Y-89038900D01*
X137480000Y-99787900D02*
X137480000Y-93788900D01*
X143980000Y-99787900D02*
X140980000Y-99787900D01*
X140980000Y-93788900D02*
X143980000Y-93788900D01*
X140480000Y-93788900D02*
X140480000Y-99787900D01*
X133980000Y-99787900D02*
X133980000Y-93788900D01*
X133980000Y-93788900D02*
X136980000Y-93788900D01*
X137480000Y-93788900D02*
X140480000Y-93788900D01*
X130480000Y-99787900D02*
X130480000Y-93788900D01*
X138105000Y-89038900D02*
X136855000Y-89038900D01*
X136980000Y-99787900D02*
X133980000Y-99787900D01*
X141605000Y-89038900D02*
X140355000Y-89038900D01*
X133480000Y-93788900D02*
X133480000Y-99787900D01*
X143980000Y-93788900D02*
X143980000Y-99787900D01*
X136980000Y-93788900D02*
X136980000Y-99787900D01*
X140980000Y-99787900D02*
X140980000Y-93788900D01*
X130480000Y-93788900D02*
X133480000Y-93788900D01*
X144880000Y-89038900D02*
X143855000Y-89038900D01*
X140480000Y-99787900D02*
X137480000Y-99787900D01*
X131105000Y-89038900D02*
X130080000Y-89038900D01*
X133480000Y-99787900D02*
X130480000Y-99787900D01*
X144880000Y-100238900D02*
X130080000Y-100238900D01*
X130080000Y-100238900D02*
X130080000Y-89038900D01*
X144880000Y-100238900D02*
X144880000Y-89038900D01*
%TO.C,J12*%
X119263400Y-88937300D02*
X118013400Y-88937300D01*
X122138400Y-99686300D02*
X122138400Y-93687300D01*
X128638400Y-99686300D02*
X125638400Y-99686300D01*
X125638400Y-93687300D02*
X128638400Y-93687300D01*
X125138400Y-93687300D02*
X125138400Y-99686300D01*
X118638400Y-99686300D02*
X118638400Y-93687300D01*
X118638400Y-93687300D02*
X121638400Y-93687300D01*
X122138400Y-93687300D02*
X125138400Y-93687300D01*
X115138400Y-99686300D02*
X115138400Y-93687300D01*
X122763400Y-88937300D02*
X121513400Y-88937300D01*
X121638400Y-99686300D02*
X118638400Y-99686300D01*
X126263400Y-88937300D02*
X125013400Y-88937300D01*
X118138400Y-93687300D02*
X118138400Y-99686300D01*
X128638400Y-93687300D02*
X128638400Y-99686300D01*
X121638400Y-93687300D02*
X121638400Y-99686300D01*
X125638400Y-99686300D02*
X125638400Y-93687300D01*
X115138400Y-93687300D02*
X118138400Y-93687300D01*
X129538400Y-88937300D02*
X128513400Y-88937300D01*
X125138400Y-99686300D02*
X122138400Y-99686300D01*
X115763400Y-88937300D02*
X114738400Y-88937300D01*
X118138400Y-99686300D02*
X115138400Y-99686300D01*
X129538400Y-100137300D02*
X114738400Y-100137300D01*
X114738400Y-100137300D02*
X114738400Y-88937300D01*
X129538400Y-100137300D02*
X129538400Y-88937300D01*
%TO.C,J11*%
X103871000Y-88937300D02*
X102621000Y-88937300D01*
X106746000Y-99686300D02*
X106746000Y-93687300D01*
X113246000Y-99686300D02*
X110246000Y-99686300D01*
X110246000Y-93687300D02*
X113246000Y-93687300D01*
X109746000Y-93687300D02*
X109746000Y-99686300D01*
X103246000Y-99686300D02*
X103246000Y-93687300D01*
X103246000Y-93687300D02*
X106246000Y-93687300D01*
X106746000Y-93687300D02*
X109746000Y-93687300D01*
X99746000Y-99686300D02*
X99746000Y-93687300D01*
X107371000Y-88937300D02*
X106121000Y-88937300D01*
X106246000Y-99686300D02*
X103246000Y-99686300D01*
X110871000Y-88937300D02*
X109621000Y-88937300D01*
X102746000Y-93687300D02*
X102746000Y-99686300D01*
X113246000Y-93687300D02*
X113246000Y-99686300D01*
X106246000Y-93687300D02*
X106246000Y-99686300D01*
X110246000Y-99686300D02*
X110246000Y-93687300D01*
X99746000Y-93687300D02*
X102746000Y-93687300D01*
X114146000Y-88937300D02*
X113121000Y-88937300D01*
X109746000Y-99686300D02*
X106746000Y-99686300D01*
X100371000Y-88937300D02*
X99346000Y-88937300D01*
X102746000Y-99686300D02*
X99746000Y-99686300D01*
X114146000Y-100137300D02*
X99346000Y-100137300D01*
X99346000Y-100137300D02*
X99346000Y-88937300D01*
X114146000Y-100137300D02*
X114146000Y-88937300D01*
D15*
%TO.C,J1*%
X163223600Y-24574000D02*
X163223600Y-40074000D01*
X161913600Y-25874000D02*
X161913600Y-30274000D01*
X154103600Y-24574000D02*
X163223600Y-24574000D01*
X161913600Y-38774000D02*
X155413600Y-38774000D01*
X161913600Y-30274000D02*
X161913600Y-30274000D01*
X163223600Y-40074000D02*
X154103600Y-40074000D01*
X155413600Y-25874000D02*
X161913600Y-25874000D01*
X161913600Y-34374000D02*
X161913600Y-38774000D01*
X154103600Y-40074000D02*
X154103600Y-24574000D01*
X155413600Y-38774000D02*
X155413600Y-25874000D01*
X161913600Y-30274000D02*
X163223600Y-30274000D01*
X163223600Y-34374000D02*
X161913600Y-34374000D01*
%TO.C,LED56*%
X117249000Y-69254000D02*
X119534000Y-69254000D01*
X119534000Y-69254000D02*
X119534000Y-67784000D01*
X119534000Y-67784000D02*
X117249000Y-67784000D01*
%TO.C,TH59*%
X131480742Y-77990900D02*
X131955258Y-77990900D01*
X131480742Y-76945900D02*
X131955258Y-76945900D01*
%TO.C,D57*%
X120722150Y-78631000D02*
X123962150Y-78631000D01*
X120722150Y-78631000D02*
X120722150Y-80251000D01*
X120722150Y-80251000D02*
X123962150Y-80251000D01*
%TO.C,D61*%
X138347000Y-78631000D02*
X141587000Y-78631000D01*
X138347000Y-78631000D02*
X138347000Y-80251000D01*
X138347000Y-80251000D02*
X141587000Y-80251000D01*
%TO.C,U5*%
X140404000Y-38200000D02*
X140199000Y-38200000D01*
X129984000Y-40960000D02*
X129984000Y-38200000D01*
X129984000Y-43720000D02*
X130189000Y-43720000D01*
X140404000Y-40960000D02*
X140404000Y-38200000D01*
X129984000Y-38200000D02*
X130189000Y-38200000D01*
X140404000Y-43720000D02*
X140199000Y-43720000D01*
X140199000Y-38200000D02*
X140199000Y-36510000D01*
X129984000Y-40960000D02*
X129984000Y-43720000D01*
X140404000Y-40960000D02*
X140404000Y-43720000D01*
%TO.C,LED66*%
X161179800Y-69254000D02*
X163464800Y-69254000D01*
X163464800Y-69254000D02*
X163464800Y-67784000D01*
X163464800Y-67784000D02*
X161179800Y-67784000D01*
%TO.C,D8*%
X110113000Y-29963800D02*
X108213000Y-29963800D01*
X108713000Y-32283800D02*
X110113000Y-32283800D01*
%TO.C,U4*%
X118300000Y-43720000D02*
X118505000Y-43720000D01*
X128515000Y-38200000D02*
X128515000Y-36510000D01*
X128720000Y-40960000D02*
X128720000Y-43720000D01*
X128720000Y-43720000D02*
X128515000Y-43720000D01*
X118300000Y-38200000D02*
X118505000Y-38200000D01*
X118300000Y-40960000D02*
X118300000Y-38200000D01*
X128720000Y-38200000D02*
X128515000Y-38200000D01*
X128720000Y-40960000D02*
X128720000Y-38200000D01*
X118300000Y-40960000D02*
X118300000Y-43720000D01*
%TO.C,D63*%
X147079300Y-80251000D02*
X150319300Y-80251000D01*
X147079300Y-78631000D02*
X150319300Y-78631000D01*
X147079300Y-78631000D02*
X147079300Y-80251000D01*
%TO.C,LED60*%
X135294300Y-69254000D02*
X137579300Y-69254000D01*
X137579300Y-69254000D02*
X137579300Y-67784000D01*
X137579300Y-67784000D02*
X135294300Y-67784000D01*
%TO.C,D3*%
X144960400Y-63132600D02*
X147245400Y-63132600D01*
X147245400Y-63132600D02*
X147245400Y-61662600D01*
X147245400Y-61662600D02*
X144960400Y-61662600D01*
%TO.C,R58*%
X126901242Y-70199200D02*
X127375758Y-70199200D01*
X126901242Y-71244200D02*
X127375758Y-71244200D01*
%TO.C,Q54*%
X110918500Y-74107000D02*
X110918500Y-74757000D01*
X107798500Y-74107000D02*
X107798500Y-73457000D01*
X107798500Y-74107000D02*
X107798500Y-74757000D01*
X110918500Y-74107000D02*
X110918500Y-72432000D01*
%TO.C,D7*%
X141736000Y-29640000D02*
X139836000Y-29640000D01*
X140336000Y-31960000D02*
X141736000Y-31960000D01*
%TO.C,TH54*%
X109121242Y-77990900D02*
X109595758Y-77990900D01*
X109121242Y-76945900D02*
X109595758Y-76945900D01*
%TO.C,LED55*%
X115054500Y-67784000D02*
X112769500Y-67784000D01*
X115054500Y-69254000D02*
X115054500Y-67784000D01*
X112769500Y-69254000D02*
X115054500Y-69254000D01*
%TO.C,TH61*%
X139997242Y-76945900D02*
X140471758Y-76945900D01*
X139997242Y-77990900D02*
X140471758Y-77990900D01*
%TO.C,LED58*%
X128643500Y-67784000D02*
X126358500Y-67784000D01*
X128643500Y-69254000D02*
X128643500Y-67784000D01*
X126358500Y-69254000D02*
X128643500Y-69254000D01*
%TO.C,R61*%
X140004742Y-70199200D02*
X140479258Y-70199200D01*
X140004742Y-71244200D02*
X140479258Y-71244200D01*
%TO.C,Q53*%
X103607500Y-74092762D02*
X103607500Y-73442762D01*
X106727500Y-74092762D02*
X106727500Y-72417762D01*
X106727500Y-74092762D02*
X106727500Y-74742762D01*
X103607500Y-74092762D02*
X103607500Y-74742762D01*
%TO.C,Q63*%
X150526800Y-74107000D02*
X150526800Y-74757000D01*
X150526800Y-74107000D02*
X150526800Y-72432000D01*
X147406800Y-74107000D02*
X147406800Y-74757000D01*
X147406800Y-74107000D02*
X147406800Y-73457000D01*
%TO.C,LED63*%
X150479300Y-67784000D02*
X148194300Y-67784000D01*
X148194300Y-69254000D02*
X150479300Y-69254000D01*
X150479300Y-69254000D02*
X150479300Y-67784000D01*
%TO.C,LED65*%
X156853500Y-69254000D02*
X159138500Y-69254000D01*
X159138500Y-67784000D02*
X156853500Y-67784000D01*
X159138500Y-69254000D02*
X159138500Y-67784000D01*
D14*
%TO.C,J4*%
X156573900Y-65333800D02*
X162161900Y-65333800D01*
X162206900Y-61396800D02*
X162206900Y-59699800D01*
X162161900Y-65333800D02*
X162161900Y-64825800D01*
X163267900Y-66664800D02*
X155176900Y-66664800D01*
X162161900Y-64825800D02*
X162161900Y-64698800D01*
X162206900Y-56397800D02*
X162206900Y-55808800D01*
X163267900Y-54538800D02*
X163267900Y-66664800D01*
X155176900Y-66664800D02*
X155176900Y-54538800D01*
X155176900Y-54538800D02*
X163267900Y-54538800D01*
X156573900Y-55808800D02*
X156573900Y-65333800D01*
X162206900Y-55808800D02*
X156573900Y-55808800D01*
X162206814Y-59699873D02*
G75*
G03*
X162206900Y-56397800I-1406914J1651073D01*
G01*
X162206814Y-64698873D02*
G75*
G03*
X162206900Y-61396800I-1406913J1651073D01*
G01*
D15*
%TO.C,J2*%
X105083000Y-24574000D02*
X105083000Y-40074000D01*
X103773000Y-30274000D02*
X103773000Y-30274000D01*
X97273000Y-25874000D02*
X103773000Y-25874000D01*
X95963000Y-40074000D02*
X95963000Y-24574000D01*
X95963000Y-24574000D02*
X105083000Y-24574000D01*
X103773000Y-38774000D02*
X97273000Y-38774000D01*
X103773000Y-30274000D02*
X105083000Y-30274000D01*
X97273000Y-38774000D02*
X97273000Y-25874000D01*
X105083000Y-34374000D02*
X103773000Y-34374000D01*
X105083000Y-40074000D02*
X95963000Y-40074000D01*
X103773000Y-34374000D02*
X103773000Y-38774000D01*
X103773000Y-25874000D02*
X103773000Y-30274000D01*
%TO.C,RN9*%
X109582800Y-20331600D02*
X108582800Y-20331600D01*
X109582800Y-23691600D02*
X108582800Y-23691600D01*
%TO.C,R5*%
X145898300Y-59671142D02*
X145898300Y-60145658D01*
X146943300Y-59671142D02*
X146943300Y-60145658D01*
%TO.C,D2*%
X131574400Y-61713400D02*
X129289400Y-61713400D01*
X129289400Y-61713400D02*
X129289400Y-63183400D01*
X129289400Y-63183400D02*
X131574400Y-63183400D01*
%TO.C,C1*%
X117412000Y-4213380D02*
X117412000Y-3932220D01*
X118432000Y-4213380D02*
X118432000Y-3932220D01*
%TO.C,RN1*%
X116554000Y-4630000D02*
X116554000Y-3630000D01*
X113194000Y-4630000D02*
X113194000Y-3630000D01*
%TO.C,D64*%
X151420500Y-78631000D02*
X151420500Y-80251000D01*
X151420500Y-80251000D02*
X154660500Y-80251000D01*
X151420500Y-78631000D02*
X154660500Y-78631000D01*
%TO.C,C9*%
X142294180Y-62907600D02*
X142013020Y-62907600D01*
X142294180Y-61887600D02*
X142013020Y-61887600D01*
%TO.C,R4*%
X156760608Y-15873800D02*
X156286092Y-15873800D01*
X156760608Y-16918800D02*
X156286092Y-16918800D01*
%TO.C,R60*%
X135837042Y-70199200D02*
X136311558Y-70199200D01*
X135837042Y-71244200D02*
X136311558Y-71244200D01*
%TO.C,LED57*%
X121821000Y-69254000D02*
X124106000Y-69254000D01*
X124106000Y-67784000D02*
X121821000Y-67784000D01*
X124106000Y-69254000D02*
X124106000Y-67784000D01*
%TO.C,RN7*%
X106890400Y-19475200D02*
X105890400Y-19475200D01*
X106890400Y-16115200D02*
X105890400Y-16115200D01*
%TO.C,U2*%
X139751200Y-61267000D02*
X139751200Y-62067000D01*
X139751200Y-61267000D02*
X139751200Y-60467000D01*
X136631200Y-61267000D02*
X136631200Y-60467000D01*
X136631200Y-61267000D02*
X136631200Y-63067000D01*
%TO.C,D53*%
X103280000Y-80251000D02*
X106520000Y-80251000D01*
X103280000Y-78631000D02*
X103280000Y-80251000D01*
X103280000Y-78631000D02*
X106520000Y-78631000D01*
%TO.C,TH60*%
X135829542Y-77990900D02*
X136304058Y-77990900D01*
X135829542Y-76945900D02*
X136304058Y-76945900D01*
%TO.C,C7*%
X134240620Y-59106000D02*
X134521780Y-59106000D01*
X134240620Y-60126000D02*
X134521780Y-60126000D01*
%TO.C,C8*%
X134227620Y-62920000D02*
X134508780Y-62920000D01*
X134227620Y-61900000D02*
X134508780Y-61900000D01*
%TO.C,R53*%
X104930242Y-71244200D02*
X105404758Y-71244200D01*
X104930242Y-70199200D02*
X105404758Y-70199200D01*
%TO.C,D6*%
X129981350Y-32268800D02*
X131381350Y-32268800D01*
X131381350Y-29948800D02*
X129481350Y-29948800D01*
%TO.C,TH56*%
X117798242Y-76945900D02*
X118272758Y-76945900D01*
X117798242Y-77990900D02*
X118272758Y-77990900D01*
%TO.C,LED53*%
X106707000Y-69254000D02*
X106707000Y-67784000D01*
X104422000Y-69254000D02*
X106707000Y-69254000D01*
X106707000Y-67784000D02*
X104422000Y-67784000D01*
%TO.C,RN16*%
X114154800Y-16022800D02*
X113154800Y-16022800D01*
X114154800Y-19382800D02*
X113154800Y-19382800D01*
%TO.C,U3*%
X106489000Y-40960000D02*
X106489000Y-43720000D01*
X116909000Y-40960000D02*
X116909000Y-38200000D01*
X106489000Y-40960000D02*
X106489000Y-38200000D01*
X116909000Y-43720000D02*
X116704000Y-43720000D01*
X116909000Y-38200000D02*
X116704000Y-38200000D01*
X106489000Y-43720000D02*
X106694000Y-43720000D01*
X116909000Y-40960000D02*
X116909000Y-43720000D01*
X106489000Y-38200000D02*
X106694000Y-38200000D01*
X116704000Y-38200000D02*
X116704000Y-36510000D01*
%TO.C,Q58*%
X128698500Y-74107000D02*
X128698500Y-72432000D01*
X128698500Y-74107000D02*
X128698500Y-74757000D01*
X125578500Y-74107000D02*
X125578500Y-74757000D01*
X125578500Y-74107000D02*
X125578500Y-73457000D01*
%TO.C,R51*%
X96729742Y-71244200D02*
X97204258Y-71244200D01*
X96729742Y-70199200D02*
X97204258Y-70199200D01*
%TO.C,TH53*%
X104930242Y-77990900D02*
X105404758Y-77990900D01*
X104930242Y-76945900D02*
X105404758Y-76945900D01*
%TO.C,LED61*%
X141747000Y-69254000D02*
X141747000Y-67784000D01*
X141747000Y-67784000D02*
X139462000Y-67784000D01*
X139462000Y-69254000D02*
X141747000Y-69254000D01*
%TO.C,LED64*%
X154820500Y-69254000D02*
X154820500Y-67784000D01*
X152535500Y-69254000D02*
X154820500Y-69254000D01*
X154820500Y-67784000D02*
X152535500Y-67784000D01*
%TO.C,L1*%
X134751200Y-51385000D02*
X134751200Y-49685000D01*
X141351200Y-49685000D02*
X141351200Y-51385000D01*
X134751200Y-49685000D02*
X141351200Y-49685000D01*
X141351200Y-54385000D02*
X141351200Y-56085000D01*
X141351200Y-56085000D02*
X134751200Y-56085000D01*
X134751200Y-56085000D02*
X134751200Y-54385000D01*
%TO.C,R54*%
X109121242Y-71244200D02*
X109595758Y-71244200D01*
X109121242Y-70199200D02*
X109595758Y-70199200D01*
%TO.C,TH57*%
X122372392Y-76945900D02*
X122846908Y-76945900D01*
X122372392Y-77990900D02*
X122846908Y-77990900D01*
%TO.C,D55*%
X111662000Y-78631000D02*
X111662000Y-80251000D01*
X111662000Y-78631000D02*
X114902000Y-78631000D01*
X111662000Y-80251000D02*
X114902000Y-80251000D01*
%TO.C,LED52*%
X100323500Y-69254000D02*
X102608500Y-69254000D01*
X102608500Y-67784000D02*
X100323500Y-67784000D01*
X102608500Y-69254000D02*
X102608500Y-67784000D01*
%TO.C,R65*%
X157396242Y-71244200D02*
X157870758Y-71244200D01*
X157396242Y-70199200D02*
X157870758Y-70199200D01*
%TO.C,TH66*%
X161715042Y-77990900D02*
X162189558Y-77990900D01*
X161715042Y-76945900D02*
X162189558Y-76945900D01*
%TO.C,C5*%
X126181563Y-64609600D02*
X127246000Y-63545163D01*
X117790437Y-64609600D02*
X120476000Y-64609600D01*
X126181563Y-64609600D02*
X123496000Y-64609600D01*
X116726000Y-63545163D02*
X116726000Y-54089600D01*
X118601000Y-65474600D02*
X119851000Y-65474600D01*
X117790437Y-64609600D02*
X116726000Y-63545163D01*
X116726000Y-54089600D02*
X120476000Y-54089600D01*
X127246000Y-54089600D02*
X123496000Y-54089600D01*
X127246000Y-63545163D02*
X127246000Y-54089600D01*
X119226000Y-66099600D02*
X119226000Y-64849600D01*
%TO.C,RN15*%
X128979000Y-19272000D02*
X129979000Y-19272000D01*
X128979000Y-15912000D02*
X129979000Y-15912000D01*
%TO.C,TH55*%
X113312242Y-77990900D02*
X113786758Y-77990900D01*
X113312242Y-76945900D02*
X113786758Y-76945900D01*
%TO.C,TH58*%
X126901242Y-76945900D02*
X127375758Y-76945900D01*
X126901242Y-77990900D02*
X127375758Y-77990900D01*
%TO.C,R56*%
X117798242Y-71244200D02*
X118272758Y-71244200D01*
X117798242Y-70199200D02*
X118272758Y-70199200D01*
%TO.C,R3*%
X156760608Y-18823800D02*
X156286092Y-18823800D01*
X156760608Y-17778800D02*
X156286092Y-17778800D01*
%TO.C,LED59*%
X130965000Y-69254000D02*
X133250000Y-69254000D01*
X133250000Y-67784000D02*
X130965000Y-67784000D01*
X133250000Y-69254000D02*
X133250000Y-67784000D01*
%TO.C,Q65*%
X159186000Y-74107000D02*
X159186000Y-74757000D01*
X159186000Y-74107000D02*
X159186000Y-72432000D01*
X156066000Y-74107000D02*
X156066000Y-73457000D01*
X156066000Y-74107000D02*
X156066000Y-74757000D01*
%TO.C,LED51*%
X98472000Y-67784000D02*
X96187000Y-67784000D01*
X98472000Y-69254000D02*
X98472000Y-67784000D01*
X96187000Y-69254000D02*
X98472000Y-69254000D01*
%TO.C,D4*%
X157380000Y-22010000D02*
X157380000Y-20540000D01*
X155095000Y-22010000D02*
X157380000Y-22010000D01*
X157380000Y-20540000D02*
X155095000Y-20540000D01*
%TO.C,TH62*%
X144307742Y-77990900D02*
X144782258Y-77990900D01*
X144307742Y-76945900D02*
X144782258Y-76945900D01*
%TO.C,TH63*%
X148729542Y-77990900D02*
X149204058Y-77990900D01*
X148729542Y-76945900D02*
X149204058Y-76945900D01*
%TO.C,R64*%
X153078242Y-71244200D02*
X153552758Y-71244200D01*
X153078242Y-70199200D02*
X153552758Y-70199200D01*
%TO.C,D58*%
X125251000Y-78631000D02*
X128491000Y-78631000D01*
X125251000Y-80251000D02*
X128491000Y-80251000D01*
X125251000Y-78631000D02*
X125251000Y-80251000D01*
%TO.C,R62*%
X144315242Y-70199200D02*
X144789758Y-70199200D01*
X144315242Y-71244200D02*
X144789758Y-71244200D01*
%TO.C,RN5*%
X133576400Y-19424400D02*
X134576400Y-19424400D01*
X133576400Y-16064400D02*
X134576400Y-16064400D01*
%TO.C,D65*%
X155738500Y-80251000D02*
X158978500Y-80251000D01*
X155738500Y-78631000D02*
X158978500Y-78631000D01*
X155738500Y-78631000D02*
X155738500Y-80251000D01*
%TO.C,D60*%
X134030500Y-78631000D02*
X137270500Y-78631000D01*
X134030500Y-78631000D02*
X134030500Y-80251000D01*
X134030500Y-80251000D02*
X137270500Y-80251000D01*
%TO.C,Q57*%
X121049650Y-74107000D02*
X121049650Y-74757000D01*
X121049650Y-74107000D02*
X121049650Y-73457000D01*
X124169650Y-74107000D02*
X124169650Y-74757000D01*
X124169650Y-74107000D02*
X124169650Y-72432000D01*
%TO.C,D52*%
X99216000Y-78631000D02*
X102456000Y-78631000D01*
X99216000Y-80251000D02*
X102456000Y-80251000D01*
X99216000Y-78631000D02*
X99216000Y-80251000D01*
%TO.C,R66*%
X161722542Y-71244200D02*
X162197058Y-71244200D01*
X161722542Y-70199200D02*
X162197058Y-70199200D01*
%TO.C,Q61*%
X138674500Y-74107000D02*
X138674500Y-74757000D01*
X141794500Y-74107000D02*
X141794500Y-74757000D01*
X138674500Y-74107000D02*
X138674500Y-73457000D01*
X141794500Y-74107000D02*
X141794500Y-72432000D01*
%TO.C,U1*%
X117745000Y-6627000D02*
X117745000Y-6872000D01*
X121605000Y-6627000D02*
X125465000Y-6627000D01*
X121605000Y-24747000D02*
X117745000Y-24747000D01*
X121605000Y-24747000D02*
X125465000Y-24747000D01*
X125465000Y-6627000D02*
X125465000Y-6872000D01*
X125465000Y-24747000D02*
X125465000Y-24502000D01*
X117745000Y-24747000D02*
X117745000Y-24502000D01*
X125465000Y-24502000D02*
X127280000Y-24502000D01*
X121605000Y-6627000D02*
X117745000Y-6627000D01*
%TO.C,D54*%
X107471000Y-78631000D02*
X110711000Y-78631000D01*
X107471000Y-80251000D02*
X110711000Y-80251000D01*
X107471000Y-78631000D02*
X107471000Y-80251000D01*
%TO.C,R57*%
X122372392Y-71244200D02*
X122846908Y-71244200D01*
X122372392Y-70199200D02*
X122846908Y-70199200D01*
%TO.C,R59*%
X131488242Y-71244200D02*
X131962758Y-71244200D01*
X131488242Y-70199200D02*
X131962758Y-70199200D01*
%TO.C,Q60*%
X137626800Y-74107000D02*
X137626800Y-74757000D01*
X137626800Y-74107000D02*
X137626800Y-72432000D01*
X134506800Y-74107000D02*
X134506800Y-74757000D01*
X134506800Y-74107000D02*
X134506800Y-73457000D01*
%TO.C,RN3*%
X133576400Y-20484000D02*
X134576400Y-20484000D01*
X133576400Y-23844000D02*
X134576400Y-23844000D01*
%TO.C,RN11*%
X128979000Y-23844000D02*
X129979000Y-23844000D01*
X128979000Y-20484000D02*
X129979000Y-20484000D01*
%TO.C,Q52*%
X99543500Y-74107000D02*
X99543500Y-74757000D01*
X102663500Y-74107000D02*
X102663500Y-74757000D01*
X99543500Y-74107000D02*
X99543500Y-73457000D01*
X102663500Y-74107000D02*
X102663500Y-72432000D01*
%TO.C,Q59*%
X130158000Y-74107000D02*
X130158000Y-74757000D01*
X133278000Y-74107000D02*
X133278000Y-72432000D01*
X130158000Y-74107000D02*
X130158000Y-73457000D01*
X133278000Y-74107000D02*
X133278000Y-74757000D01*
%TO.C,Q56*%
X116475500Y-74107000D02*
X116475500Y-74757000D01*
X116475500Y-74107000D02*
X116475500Y-73457000D01*
X119595500Y-74107000D02*
X119595500Y-74757000D01*
X119595500Y-74107000D02*
X119595500Y-72432000D01*
%TO.C,R55*%
X113312242Y-70199200D02*
X113786758Y-70199200D01*
X113312242Y-71244200D02*
X113786758Y-71244200D01*
%TO.C,TH51*%
X96729742Y-77990900D02*
X97204258Y-77990900D01*
X96729742Y-76945900D02*
X97204258Y-76945900D01*
D14*
%TO.C,J3*%
X97099800Y-65394800D02*
X102732800Y-65394800D01*
X96038800Y-54538800D02*
X104129800Y-54538800D01*
X97099800Y-59806800D02*
X97099800Y-61503800D01*
X97144800Y-55869800D02*
X97144800Y-56377800D01*
X96038800Y-66664800D02*
X96038800Y-54538800D01*
X102732800Y-55869800D02*
X97144800Y-55869800D01*
X97099800Y-64805800D02*
X97099800Y-65394800D01*
X97144800Y-56377800D02*
X97144800Y-56504800D01*
X104129800Y-54538800D02*
X104129800Y-66664800D01*
X104129800Y-66664800D02*
X96038800Y-66664800D01*
X102732800Y-65394800D02*
X102732800Y-55869800D01*
X97099886Y-56504727D02*
G75*
G03*
X97099800Y-59806800I1406913J-1651073D01*
G01*
X97099886Y-61503727D02*
G75*
G03*
X97099800Y-64805800I1406914J-1651073D01*
G01*
D15*
%TO.C,R52*%
X100866242Y-70199200D02*
X101340758Y-70199200D01*
X100866242Y-71244200D02*
X101340758Y-71244200D01*
D16*
%TO.C,SW5*%
X153343000Y-9806300D02*
X153343000Y-4206300D01*
X153343000Y-4206300D02*
X154343000Y-4206300D01*
X159403000Y-4206300D02*
X159403000Y-10806300D01*
X156943000Y-10806300D02*
X155843000Y-10806300D01*
X159393000Y-4206300D02*
X158393000Y-4206300D01*
X159393000Y-10806300D02*
X158393000Y-10806300D01*
X155843000Y-4206300D02*
X156943000Y-4206300D01*
X154343000Y-10806300D02*
X153343000Y-9806300D01*
D15*
%TO.C,U6*%
X151707000Y-40960000D02*
X151707000Y-38200000D01*
X151707000Y-38200000D02*
X151502000Y-38200000D01*
X151707000Y-40960000D02*
X151707000Y-43720000D01*
X151502000Y-38200000D02*
X151502000Y-36510000D01*
X141287000Y-40960000D02*
X141287000Y-38200000D01*
X141287000Y-38200000D02*
X141492000Y-38200000D01*
X141287000Y-43720000D02*
X141492000Y-43720000D01*
X151707000Y-43720000D02*
X151502000Y-43720000D01*
X141287000Y-40960000D02*
X141287000Y-43720000D01*
%TO.C,RN12*%
X114154800Y-20382400D02*
X113154800Y-20382400D01*
X114154800Y-23742400D02*
X113154800Y-23742400D01*
%TO.C,Q62*%
X142985000Y-74107000D02*
X142985000Y-74757000D01*
X146105000Y-74107000D02*
X146105000Y-74757000D01*
X142985000Y-74107000D02*
X142985000Y-73457000D01*
X146105000Y-74107000D02*
X146105000Y-72432000D01*
D16*
%TO.C,SW1*%
X109665000Y-14810000D02*
X109665000Y-13810000D01*
X104065000Y-3610000D02*
X109665000Y-3610000D01*
X109665000Y-6110000D02*
X109665000Y-7210000D01*
X103065000Y-7210000D02*
X103065000Y-6110000D01*
X103065000Y-12310000D02*
X103065000Y-11210000D01*
X103065000Y-4610000D02*
X104065000Y-3610000D01*
X103065000Y-14810000D02*
X103065000Y-13810000D01*
X109665000Y-3610000D02*
X109665000Y-4610000D01*
X109665000Y-14810000D02*
X103065000Y-14810000D01*
X109665000Y-9710000D02*
X109665000Y-8710000D01*
X103065000Y-9710000D02*
X103065000Y-8710000D01*
X109665000Y-12310000D02*
X109665000Y-11210000D01*
D15*
%TO.C,D59*%
X129830500Y-80251000D02*
X133070500Y-80251000D01*
X129830500Y-78631000D02*
X133070500Y-78631000D01*
X129830500Y-78631000D02*
X129830500Y-80251000D01*
%TO.C,D56*%
X116148000Y-78631000D02*
X119388000Y-78631000D01*
X116148000Y-80251000D02*
X119388000Y-80251000D01*
X116148000Y-78631000D02*
X116148000Y-80251000D01*
%TO.C,C6*%
X138458780Y-58602000D02*
X138177620Y-58602000D01*
X138458780Y-57582000D02*
X138177620Y-57582000D01*
%TO.C,Q55*%
X114982500Y-74107000D02*
X114982500Y-74757000D01*
X114982500Y-74107000D02*
X114982500Y-72432000D01*
X111862500Y-74107000D02*
X111862500Y-74757000D01*
X111862500Y-74107000D02*
X111862500Y-73457000D01*
%TO.C,R6*%
X157912500Y-21004258D02*
X157912500Y-20529742D01*
X158957500Y-21004258D02*
X158957500Y-20529742D01*
%TO.C,R63*%
X148737042Y-70199200D02*
X149211558Y-70199200D01*
X148737042Y-71244200D02*
X149211558Y-71244200D01*
%TO.C,LED62*%
X146204000Y-67784000D02*
X143919000Y-67784000D01*
X143919000Y-69254000D02*
X146204000Y-69254000D01*
X146204000Y-69254000D02*
X146204000Y-67784000D01*
%TO.C,Q51*%
X98527000Y-74107000D02*
X98527000Y-74757000D01*
X95407000Y-74107000D02*
X95407000Y-73457000D01*
X95407000Y-74107000D02*
X95407000Y-74757000D01*
X98527000Y-74107000D02*
X98527000Y-72432000D01*
%TO.C,D1*%
X114858000Y-14458000D02*
X114858000Y-10608000D01*
X112858000Y-14458000D02*
X112858000Y-10608000D01*
X112858000Y-14458000D02*
X114858000Y-14458000D01*
%TO.C,C3*%
X131255000Y-12498420D02*
X131255000Y-12779580D01*
X132275000Y-12498420D02*
X132275000Y-12779580D01*
%TO.C,LED54*%
X110863500Y-69254000D02*
X110863500Y-67784000D01*
X110863500Y-67784000D02*
X108578500Y-67784000D01*
X108578500Y-69254000D02*
X110863500Y-69254000D01*
%TO.C,R1*%
X130585700Y-59721942D02*
X130585700Y-60196458D01*
X129540700Y-59721942D02*
X129540700Y-60196458D01*
%TO.C,TH65*%
X157388742Y-76945900D02*
X157863258Y-76945900D01*
X157388742Y-77990900D02*
X157863258Y-77990900D01*
%TO.C,Q66*%
X163512300Y-74107000D02*
X163512300Y-72432000D01*
X160392300Y-74107000D02*
X160392300Y-74757000D01*
X163512300Y-74107000D02*
X163512300Y-74757000D01*
X160392300Y-74107000D02*
X160392300Y-73457000D01*
%TO.C,D51*%
X95079500Y-78631000D02*
X98319500Y-78631000D01*
X95079500Y-80251000D02*
X98319500Y-80251000D01*
X95079500Y-78631000D02*
X95079500Y-80251000D01*
%TO.C,TH52*%
X100866242Y-76945900D02*
X101340758Y-76945900D01*
X100866242Y-77990900D02*
X101340758Y-77990900D01*
%TO.C,TH64*%
X153070742Y-76945900D02*
X153545258Y-76945900D01*
X153070742Y-77990900D02*
X153545258Y-77990900D01*
%TO.C,D66*%
X160064800Y-80251000D02*
X163304800Y-80251000D01*
X160064800Y-78631000D02*
X163304800Y-78631000D01*
X160064800Y-78631000D02*
X160064800Y-80251000D01*
%TO.C,D62*%
X142657500Y-80251000D02*
X145897500Y-80251000D01*
X142657500Y-78631000D02*
X142657500Y-80251000D01*
X142657500Y-78631000D02*
X145897500Y-78631000D01*
%TO.C,D5*%
X120520350Y-29963800D02*
X118620350Y-29963800D01*
X119120350Y-32283800D02*
X120520350Y-32283800D01*
%TO.C,Q64*%
X154868000Y-74107000D02*
X154868000Y-74757000D01*
X154868000Y-74107000D02*
X154868000Y-72432000D01*
X151748000Y-74107000D02*
X151748000Y-73457000D01*
X151748000Y-74107000D02*
X151748000Y-74757000D01*
%TD*%
%LPC*%
D17*
%TO.C,J14*%
X147622400Y-89538900D03*
X147622400Y-92038900D03*
X151122400Y-89538900D03*
X151122400Y-92038900D03*
X154622400Y-89538900D03*
X154622400Y-92038900D03*
X158122400Y-89538900D03*
X158122400Y-92038900D03*
%TD*%
%TO.C,J13*%
X132230000Y-89538900D03*
X132230000Y-92038900D03*
X135730000Y-89538900D03*
X135730000Y-92038900D03*
X139230000Y-89538900D03*
X139230000Y-92038900D03*
X142730000Y-89538900D03*
X142730000Y-92038900D03*
%TD*%
%TO.C,J12*%
X116888400Y-89437300D03*
X116888400Y-91937300D03*
X120388400Y-89437300D03*
X120388400Y-91937300D03*
X123888400Y-89437300D03*
X123888400Y-91937300D03*
X127388400Y-89437300D03*
X127388400Y-91937300D03*
%TD*%
%TO.C,J11*%
X101496000Y-89437300D03*
X101496000Y-91937300D03*
X104996000Y-89437300D03*
X104996000Y-91937300D03*
X108496000Y-89437300D03*
X108496000Y-91937300D03*
X111996000Y-89437300D03*
X111996000Y-91937300D03*
%TD*%
D18*
%TO.C,J1*%
X159933600Y-34864000D03*
D19*
X157393600Y-34864000D03*
X159933600Y-32324000D03*
X157393600Y-32324000D03*
X159933600Y-29784000D03*
X157393600Y-29784000D03*
%TD*%
D20*
%TO.C,LED56*%
X118836500Y-68519000D03*
X117261500Y-68519000D03*
%TD*%
D21*
%TO.C,TH59*%
X130893000Y-77468400D03*
X132543000Y-77468400D03*
%TD*%
D22*
%TO.C,D57*%
X121982150Y-79441000D03*
D23*
X123882150Y-79441000D03*
%TD*%
D22*
%TO.C,D61*%
X139607000Y-79441000D03*
D23*
X141507000Y-79441000D03*
%TD*%
D24*
%TO.C,U5*%
X139639000Y-37497500D03*
X138369000Y-37497500D03*
X137099000Y-37497500D03*
X135829000Y-37497500D03*
X134559000Y-37497500D03*
X133289000Y-37497500D03*
X132019000Y-37497500D03*
X130749000Y-37497500D03*
X130749000Y-44422500D03*
X132019000Y-44422500D03*
X133289000Y-44422500D03*
X134559000Y-44422500D03*
X135829000Y-44422500D03*
X137099000Y-44422500D03*
X138369000Y-44422500D03*
X139639000Y-44422500D03*
%TD*%
D20*
%TO.C,LED66*%
X162767300Y-68519000D03*
X161192300Y-68519000D03*
%TD*%
D25*
%TO.C,D8*%
X108463000Y-30473800D03*
X108463000Y-31123800D03*
X108463000Y-31773800D03*
X110363000Y-31773800D03*
X110363000Y-31123800D03*
X110363000Y-30473800D03*
%TD*%
D24*
%TO.C,U4*%
X127955000Y-37497500D03*
X126685000Y-37497500D03*
X125415000Y-37497500D03*
X124145000Y-37497500D03*
X122875000Y-37497500D03*
X121605000Y-37497500D03*
X120335000Y-37497500D03*
X119065000Y-37497500D03*
X119065000Y-44422500D03*
X120335000Y-44422500D03*
X121605000Y-44422500D03*
X122875000Y-44422500D03*
X124145000Y-44422500D03*
X125415000Y-44422500D03*
X126685000Y-44422500D03*
X127955000Y-44422500D03*
%TD*%
D22*
%TO.C,D63*%
X148339300Y-79441000D03*
D23*
X150239300Y-79441000D03*
%TD*%
D20*
%TO.C,LED60*%
X136881800Y-68519000D03*
X135306800Y-68519000D03*
%TD*%
%TO.C,D3*%
X146547900Y-62397600D03*
X144972900Y-62397600D03*
%TD*%
D21*
%TO.C,R58*%
X126313500Y-70721700D03*
X127963500Y-70721700D03*
%TD*%
D26*
%TO.C,Q54*%
X110308500Y-73169500D03*
X108408500Y-73169500D03*
X109358500Y-75044500D03*
%TD*%
D25*
%TO.C,D7*%
X140086000Y-30150000D03*
X140086000Y-30800000D03*
X140086000Y-31450000D03*
X141986000Y-31450000D03*
X141986000Y-30800000D03*
X141986000Y-30150000D03*
%TD*%
D21*
%TO.C,TH54*%
X108533500Y-77468400D03*
X110183500Y-77468400D03*
%TD*%
D20*
%TO.C,LED55*%
X114357000Y-68519000D03*
X112782000Y-68519000D03*
%TD*%
D21*
%TO.C,TH61*%
X139409500Y-77468400D03*
X141059500Y-77468400D03*
%TD*%
D20*
%TO.C,LED58*%
X127946000Y-68519000D03*
X126371000Y-68519000D03*
%TD*%
D21*
%TO.C,R61*%
X139417000Y-70721700D03*
X141067000Y-70721700D03*
%TD*%
D26*
%TO.C,Q53*%
X106117500Y-73155262D03*
X104217500Y-73155262D03*
X105167500Y-75030262D03*
%TD*%
%TO.C,Q63*%
X149916800Y-73169500D03*
X148016800Y-73169500D03*
X148966800Y-75044500D03*
%TD*%
D20*
%TO.C,LED63*%
X149781800Y-68519000D03*
X148206800Y-68519000D03*
%TD*%
%TO.C,LED65*%
X158441000Y-68519000D03*
X156866000Y-68519000D03*
%TD*%
D27*
%TO.C,J4*%
X159367900Y-63133800D03*
X159367900Y-58135800D03*
%TD*%
D18*
%TO.C,J2*%
X101793000Y-34864000D03*
D19*
X99253000Y-34864000D03*
X101793000Y-32324000D03*
X99253000Y-32324000D03*
X101793000Y-29784000D03*
X99253000Y-29784000D03*
%TD*%
D28*
%TO.C,RN9*%
X108182800Y-20811600D03*
D29*
X108182800Y-21611600D03*
X108182800Y-22411600D03*
D28*
X108182800Y-23211600D03*
X109982800Y-23211600D03*
D29*
X109982800Y-22411600D03*
X109982800Y-21611600D03*
D28*
X109982800Y-20811600D03*
%TD*%
D30*
%TO.C,R5*%
X146420800Y-59083400D03*
X146420800Y-60733400D03*
%TD*%
D31*
%TO.C,D2*%
X129986900Y-62448400D03*
X131561900Y-62448400D03*
%TD*%
D32*
%TO.C,C1*%
X117922000Y-4847800D03*
X117922000Y-3297800D03*
%TD*%
D33*
%TO.C,RN1*%
X116074000Y-3230000D03*
D34*
X115274000Y-3230000D03*
X114474000Y-3230000D03*
D33*
X113674000Y-3230000D03*
X113674000Y-5030000D03*
D34*
X114474000Y-5030000D03*
X115274000Y-5030000D03*
D33*
X116074000Y-5030000D03*
%TD*%
D22*
%TO.C,D64*%
X152680500Y-79441000D03*
D23*
X154580500Y-79441000D03*
%TD*%
D35*
%TO.C,C9*%
X142928600Y-62397600D03*
X141378600Y-62397600D03*
%TD*%
D36*
%TO.C,R4*%
X157348350Y-16396300D03*
X155698350Y-16396300D03*
%TD*%
D21*
%TO.C,R60*%
X135249300Y-70721700D03*
X136899300Y-70721700D03*
%TD*%
D20*
%TO.C,LED57*%
X123408500Y-68519000D03*
X121833500Y-68519000D03*
%TD*%
D28*
%TO.C,RN7*%
X105490400Y-16595200D03*
D29*
X105490400Y-17395200D03*
X105490400Y-18195200D03*
D28*
X105490400Y-18995200D03*
X107290400Y-18995200D03*
D29*
X107290400Y-18195200D03*
X107290400Y-17395200D03*
D28*
X107290400Y-16595200D03*
%TD*%
D37*
%TO.C,U2*%
X137241200Y-62404500D03*
X138191200Y-62404500D03*
X139141200Y-62404500D03*
X139141200Y-60129500D03*
X138191200Y-60129500D03*
X137241200Y-60129500D03*
%TD*%
D22*
%TO.C,D53*%
X104540000Y-79441000D03*
D23*
X106440000Y-79441000D03*
%TD*%
D21*
%TO.C,TH60*%
X135241800Y-77468400D03*
X136891800Y-77468400D03*
%TD*%
D38*
%TO.C,C7*%
X133606200Y-59616000D03*
X135156200Y-59616000D03*
%TD*%
%TO.C,C8*%
X133593200Y-62410000D03*
X135143200Y-62410000D03*
%TD*%
D21*
%TO.C,R53*%
X104342500Y-70721700D03*
X105992500Y-70721700D03*
%TD*%
D25*
%TO.C,D6*%
X129731350Y-30458800D03*
X129731350Y-31108800D03*
X129731350Y-31758800D03*
X131631350Y-31758800D03*
X131631350Y-31108800D03*
X131631350Y-30458800D03*
%TD*%
D21*
%TO.C,TH56*%
X117210500Y-77468400D03*
X118860500Y-77468400D03*
%TD*%
D20*
%TO.C,LED53*%
X106009500Y-68519000D03*
X104434500Y-68519000D03*
%TD*%
D28*
%TO.C,RN16*%
X112754800Y-16502800D03*
D29*
X112754800Y-17302800D03*
X112754800Y-18102800D03*
D28*
X112754800Y-18902800D03*
X114554800Y-18902800D03*
D29*
X114554800Y-18102800D03*
X114554800Y-17302800D03*
D28*
X114554800Y-16502800D03*
%TD*%
D24*
%TO.C,U3*%
X116144000Y-37497500D03*
X114874000Y-37497500D03*
X113604000Y-37497500D03*
X112334000Y-37497500D03*
X111064000Y-37497500D03*
X109794000Y-37497500D03*
X108524000Y-37497500D03*
X107254000Y-37497500D03*
X107254000Y-44422500D03*
X108524000Y-44422500D03*
X109794000Y-44422500D03*
X111064000Y-44422500D03*
X112334000Y-44422500D03*
X113604000Y-44422500D03*
X114874000Y-44422500D03*
X116144000Y-44422500D03*
%TD*%
D26*
%TO.C,Q58*%
X128088500Y-73169500D03*
X126188500Y-73169500D03*
X127138500Y-75044500D03*
%TD*%
D21*
%TO.C,R51*%
X96142000Y-70721700D03*
X97792000Y-70721700D03*
%TD*%
%TO.C,TH53*%
X104342500Y-77468400D03*
X105992500Y-77468400D03*
%TD*%
D20*
%TO.C,LED61*%
X141049500Y-68519000D03*
X139474500Y-68519000D03*
%TD*%
%TO.C,LED64*%
X154123000Y-68519000D03*
X152548000Y-68519000D03*
%TD*%
D39*
%TO.C,L1*%
X140801200Y-52885000D03*
X135301200Y-52885000D03*
%TD*%
D21*
%TO.C,R54*%
X108533500Y-70721700D03*
X110183500Y-70721700D03*
%TD*%
%TO.C,TH57*%
X121784650Y-77468400D03*
X123434650Y-77468400D03*
%TD*%
D22*
%TO.C,D55*%
X112922000Y-79441000D03*
D23*
X114822000Y-79441000D03*
%TD*%
D20*
%TO.C,LED52*%
X101911000Y-68519000D03*
X100336000Y-68519000D03*
%TD*%
D21*
%TO.C,R65*%
X156808500Y-70721700D03*
X158458500Y-70721700D03*
%TD*%
%TO.C,TH66*%
X161127300Y-77468400D03*
X162777300Y-77468400D03*
%TD*%
D40*
%TO.C,C5*%
X121986000Y-63349600D03*
X121986000Y-55349600D03*
%TD*%
D28*
%TO.C,RN15*%
X130379000Y-18792000D03*
D29*
X130379000Y-17992000D03*
X130379000Y-17192000D03*
D28*
X130379000Y-16392000D03*
X128579000Y-16392000D03*
D29*
X128579000Y-17192000D03*
X128579000Y-17992000D03*
D28*
X128579000Y-18792000D03*
%TD*%
D21*
%TO.C,TH55*%
X112724500Y-77468400D03*
X114374500Y-77468400D03*
%TD*%
%TO.C,TH58*%
X126313500Y-77468400D03*
X127963500Y-77468400D03*
%TD*%
%TO.C,R56*%
X117210500Y-70721700D03*
X118860500Y-70721700D03*
%TD*%
D36*
%TO.C,R3*%
X157348350Y-18301300D03*
X155698350Y-18301300D03*
%TD*%
D20*
%TO.C,LED59*%
X132552500Y-68519000D03*
X130977500Y-68519000D03*
%TD*%
D26*
%TO.C,Q65*%
X158576000Y-73169500D03*
X156676000Y-73169500D03*
X157626000Y-75044500D03*
%TD*%
D20*
%TO.C,LED51*%
X97774500Y-68519000D03*
X96199500Y-68519000D03*
%TD*%
%TO.C,D4*%
X156682500Y-21275000D03*
X155107500Y-21275000D03*
%TD*%
D21*
%TO.C,TH62*%
X143720000Y-77468400D03*
X145370000Y-77468400D03*
%TD*%
%TO.C,TH63*%
X148141800Y-77468400D03*
X149791800Y-77468400D03*
%TD*%
%TO.C,R64*%
X152490500Y-70721700D03*
X154140500Y-70721700D03*
%TD*%
D22*
%TO.C,D58*%
X126511000Y-79441000D03*
D23*
X128411000Y-79441000D03*
%TD*%
D21*
%TO.C,R62*%
X143727500Y-70721700D03*
X145377500Y-70721700D03*
%TD*%
D28*
%TO.C,RN5*%
X134976400Y-18944400D03*
D29*
X134976400Y-18144400D03*
X134976400Y-17344400D03*
D28*
X134976400Y-16544400D03*
X133176400Y-16544400D03*
D29*
X133176400Y-17344400D03*
X133176400Y-18144400D03*
D28*
X133176400Y-18944400D03*
%TD*%
D22*
%TO.C,D65*%
X156998500Y-79441000D03*
D23*
X158898500Y-79441000D03*
%TD*%
D22*
%TO.C,D60*%
X135290500Y-79441000D03*
D23*
X137190500Y-79441000D03*
%TD*%
D26*
%TO.C,Q57*%
X123559650Y-73169500D03*
X121659650Y-73169500D03*
X122609650Y-75044500D03*
%TD*%
D22*
%TO.C,D52*%
X100476000Y-79441000D03*
D23*
X102376000Y-79441000D03*
%TD*%
D21*
%TO.C,R66*%
X161134800Y-70721700D03*
X162784800Y-70721700D03*
%TD*%
D26*
%TO.C,Q61*%
X141184500Y-73169500D03*
X139284500Y-73169500D03*
X140234500Y-75044500D03*
%TD*%
D41*
%TO.C,U1*%
X126255000Y-23942000D03*
X126255000Y-22672000D03*
X126255000Y-21402000D03*
X126255000Y-20132000D03*
X126255000Y-18862000D03*
X126255000Y-17592000D03*
X126255000Y-16322000D03*
X126255000Y-15052000D03*
X126255000Y-13782000D03*
X126255000Y-12512000D03*
X126255000Y-11242000D03*
X126255000Y-9972000D03*
X126255000Y-8702000D03*
X126255000Y-7432000D03*
X116955000Y-7432000D03*
X116955000Y-8702000D03*
X116955000Y-9972000D03*
X116955000Y-11242000D03*
X116955000Y-12512000D03*
X116955000Y-13782000D03*
X116955000Y-15052000D03*
X116955000Y-16322000D03*
X116955000Y-17592000D03*
X116955000Y-18862000D03*
X116955000Y-20132000D03*
X116955000Y-21402000D03*
X116955000Y-22672000D03*
X116955000Y-23942000D03*
%TD*%
D22*
%TO.C,D54*%
X108731000Y-79441000D03*
D23*
X110631000Y-79441000D03*
%TD*%
D21*
%TO.C,R57*%
X121784650Y-70721700D03*
X123434650Y-70721700D03*
%TD*%
%TO.C,R59*%
X130900500Y-70721700D03*
X132550500Y-70721700D03*
%TD*%
D26*
%TO.C,Q60*%
X137016800Y-73169500D03*
X135116800Y-73169500D03*
X136066800Y-75044500D03*
%TD*%
D28*
%TO.C,RN3*%
X134976400Y-23364000D03*
D29*
X134976400Y-22564000D03*
X134976400Y-21764000D03*
D28*
X134976400Y-20964000D03*
X133176400Y-20964000D03*
D29*
X133176400Y-21764000D03*
X133176400Y-22564000D03*
D28*
X133176400Y-23364000D03*
%TD*%
%TO.C,RN11*%
X130379000Y-23364000D03*
D29*
X130379000Y-22564000D03*
X130379000Y-21764000D03*
D28*
X130379000Y-20964000D03*
X128579000Y-20964000D03*
D29*
X128579000Y-21764000D03*
X128579000Y-22564000D03*
D28*
X128579000Y-23364000D03*
%TD*%
D26*
%TO.C,Q52*%
X102053500Y-73169500D03*
X100153500Y-73169500D03*
X101103500Y-75044500D03*
%TD*%
%TO.C,Q59*%
X132668000Y-73169500D03*
X130768000Y-73169500D03*
X131718000Y-75044500D03*
%TD*%
%TO.C,Q56*%
X118985500Y-73169500D03*
X117085500Y-73169500D03*
X118035500Y-75044500D03*
%TD*%
D21*
%TO.C,R55*%
X112724500Y-70721700D03*
X114374500Y-70721700D03*
%TD*%
%TO.C,TH51*%
X96142000Y-77468400D03*
X97792000Y-77468400D03*
%TD*%
D27*
%TO.C,J3*%
X99938800Y-58069800D03*
X99938800Y-63067800D03*
%TD*%
D21*
%TO.C,R52*%
X100278500Y-70721700D03*
X101928500Y-70721700D03*
%TD*%
D42*
%TO.C,SW5*%
X155133000Y-11456300D03*
X157673000Y-11456300D03*
X157673000Y-3556300D03*
X155133000Y-3556300D03*
%TD*%
D24*
%TO.C,U6*%
X150942000Y-37497500D03*
X149672000Y-37497500D03*
X148402000Y-37497500D03*
X147132000Y-37497500D03*
X145862000Y-37497500D03*
X144592000Y-37497500D03*
X143322000Y-37497500D03*
X142052000Y-37497500D03*
X142052000Y-44422500D03*
X143322000Y-44422500D03*
X144592000Y-44422500D03*
X145862000Y-44422500D03*
X147132000Y-44422500D03*
X148402000Y-44422500D03*
X149672000Y-44422500D03*
X150942000Y-44422500D03*
%TD*%
D28*
%TO.C,RN12*%
X112754800Y-20862400D03*
D29*
X112754800Y-21662400D03*
X112754800Y-22462400D03*
D28*
X112754800Y-23262400D03*
X114554800Y-23262400D03*
D29*
X114554800Y-22462400D03*
X114554800Y-21662400D03*
D28*
X114554800Y-20862400D03*
%TD*%
D26*
%TO.C,Q62*%
X145495000Y-73169500D03*
X143595000Y-73169500D03*
X144545000Y-75044500D03*
%TD*%
D43*
%TO.C,SW1*%
X102415000Y-5400000D03*
X102415000Y-7940000D03*
X102415000Y-10480000D03*
X102415000Y-13020000D03*
X110315000Y-13020000D03*
X110315000Y-10480000D03*
X110315000Y-7940000D03*
X110315000Y-5400000D03*
%TD*%
D22*
%TO.C,D59*%
X131090500Y-79441000D03*
D23*
X132990500Y-79441000D03*
%TD*%
D22*
%TO.C,D56*%
X117408000Y-79441000D03*
D23*
X119308000Y-79441000D03*
%TD*%
D35*
%TO.C,C6*%
X139093200Y-58092000D03*
X137543200Y-58092000D03*
%TD*%
D26*
%TO.C,Q55*%
X114372500Y-73169500D03*
X112472500Y-73169500D03*
X113422500Y-75044500D03*
%TD*%
D44*
%TO.C,R6*%
X158435000Y-21592000D03*
X158435000Y-19942000D03*
%TD*%
D21*
%TO.C,R63*%
X148149300Y-70721700D03*
X149799300Y-70721700D03*
%TD*%
D20*
%TO.C,LED62*%
X145506500Y-68519000D03*
X143931500Y-68519000D03*
%TD*%
D26*
%TO.C,Q51*%
X97917000Y-73169500D03*
X96017000Y-73169500D03*
X96967000Y-75044500D03*
%TD*%
D45*
%TO.C,D1*%
X113858000Y-13658000D03*
X113858000Y-10858000D03*
%TD*%
D46*
%TO.C,C3*%
X131765000Y-11864000D03*
X131765000Y-13414000D03*
%TD*%
D20*
%TO.C,LED54*%
X110166000Y-68519000D03*
X108591000Y-68519000D03*
%TD*%
D30*
%TO.C,R1*%
X130063200Y-59134200D03*
X130063200Y-60784200D03*
%TD*%
D21*
%TO.C,TH65*%
X156801000Y-77468400D03*
X158451000Y-77468400D03*
%TD*%
D26*
%TO.C,Q66*%
X162902300Y-73169500D03*
X161002300Y-73169500D03*
X161952300Y-75044500D03*
%TD*%
D22*
%TO.C,D51*%
X96339500Y-79441000D03*
D23*
X98239500Y-79441000D03*
%TD*%
D21*
%TO.C,TH52*%
X100278500Y-77468400D03*
X101928500Y-77468400D03*
%TD*%
%TO.C,TH64*%
X152483000Y-77468400D03*
X154133000Y-77468400D03*
%TD*%
D22*
%TO.C,D66*%
X161324800Y-79441000D03*
D23*
X163224800Y-79441000D03*
%TD*%
D22*
%TO.C,D62*%
X143917500Y-79441000D03*
D23*
X145817500Y-79441000D03*
%TD*%
D25*
%TO.C,D5*%
X118870350Y-30473800D03*
X118870350Y-31123800D03*
X118870350Y-31773800D03*
X120770350Y-31773800D03*
X120770350Y-31123800D03*
X120770350Y-30473800D03*
%TD*%
D26*
%TO.C,Q64*%
X154258000Y-73169500D03*
X152358000Y-73169500D03*
X153308000Y-75044500D03*
%TD*%
M02*
