%TF.GenerationSoftware,KiCad,Pcbnew,(6.0.9)*%
%TF.CreationDate,2023-11-10T22:20:32+05:30*%
%TF.ProjectId,RJ45-To-Terminal,524a3435-2d54-46f2-9d54-65726d696e61,2*%
%TF.SameCoordinates,Original*%
%TF.FileFunction,Copper,L1,Top*%
%TF.FilePolarity,Positive*%
%FSLAX46Y46*%
G04 Gerber Fmt 4.6, Leading zero omitted, Abs format (unit mm)*
G04 Created by KiCad (PCBNEW (6.0.9)) date 2023-11-10 22:20:32*
%MOMM*%
%LPD*%
G01*
G04 APERTURE LIST*
G04 Aperture macros list*
%AMRoundRect*
0 Rectangle with rounded corners*
0 $1 Rounding radius*
0 $2 $3 $4 $5 $6 $7 $8 $9 X,Y pos of 4 corners*
0 Add a 4 corners polygon primitive as box body*
4,1,4,$2,$3,$4,$5,$6,$7,$8,$9,$2,$3,0*
0 Add four circle primitives for the rounded corners*
1,1,$1+$1,$2,$3*
1,1,$1+$1,$4,$5*
1,1,$1+$1,$6,$7*
1,1,$1+$1,$8,$9*
0 Add four rect primitives between the rounded corners*
20,1,$1+$1,$2,$3,$4,$5,0*
20,1,$1+$1,$4,$5,$6,$7,0*
20,1,$1+$1,$6,$7,$8,$9,0*
20,1,$1+$1,$8,$9,$2,$3,0*%
G04 Aperture macros list end*
%TA.AperFunction,ComponentPad*%
%ADD10C,2.600000*%
%TD*%
%TA.AperFunction,ComponentPad*%
%ADD11C,1.500000*%
%TD*%
%TA.AperFunction,SMDPad,CuDef*%
%ADD12RoundRect,0.218750X0.218750X0.256250X-0.218750X0.256250X-0.218750X-0.256250X0.218750X-0.256250X0*%
%TD*%
%TA.AperFunction,SMDPad,CuDef*%
%ADD13RoundRect,0.200000X-0.200000X-0.275000X0.200000X-0.275000X0.200000X0.275000X-0.200000X0.275000X0*%
%TD*%
%TA.AperFunction,ComponentPad*%
%ADD14C,2.000000*%
%TD*%
%TA.AperFunction,SMDPad,CuDef*%
%ADD15R,2.000000X1.100000*%
%TD*%
%TA.AperFunction,SMDPad,CuDef*%
%ADD16R,0.800000X0.800000*%
%TD*%
%TA.AperFunction,ViaPad*%
%ADD17C,0.800000*%
%TD*%
%TA.AperFunction,Conductor*%
%ADD18C,0.609600*%
%TD*%
%TA.AperFunction,Conductor*%
%ADD19C,0.406400*%
%TD*%
G04 APERTURE END LIST*
D10*
%TO.P,RJ45-1,EH,EH*%
%TO.N,GNDPWR*%
X143728400Y-63209400D03*
X129758400Y-63209400D03*
X159158400Y-48479400D03*
X100358400Y-48479400D03*
X115788400Y-63209400D03*
D11*
%TO.P,RJ45-1,D8,D8*%
%TO.N,IN16-*%
X104358400Y-61939400D03*
%TO.P,RJ45-1,D7,D7*%
%TO.N,IN16+*%
X105628400Y-59399400D03*
%TO.P,RJ45-1,D6,D6*%
%TO.N,IN14-*%
X106898400Y-61939400D03*
%TO.P,RJ45-1,D5,D5*%
%TO.N,IN15+*%
X108168400Y-59399400D03*
%TO.P,RJ45-1,D4,D4*%
%TO.N,IN15-*%
X109438400Y-61939400D03*
%TO.P,RJ45-1,D3,D3*%
%TO.N,IN14+*%
X110708400Y-59399400D03*
%TO.P,RJ45-1,D2,D2*%
%TO.N,IN13-*%
X111978400Y-61939400D03*
%TO.P,RJ45-1,D1,D1*%
%TO.N,IN13+*%
X113248400Y-59399400D03*
%TO.P,RJ45-1,C8,C8*%
%TO.N,IN12-*%
X118328400Y-61939400D03*
%TO.P,RJ45-1,C7,C7*%
%TO.N,IN12+*%
X119598400Y-59399400D03*
%TO.P,RJ45-1,C6,C6*%
%TO.N,IN10-*%
X120868400Y-61939400D03*
%TO.P,RJ45-1,C5,C5*%
%TO.N,IN11+*%
X122138400Y-59399400D03*
%TO.P,RJ45-1,C4,C4*%
%TO.N,IN11-*%
X123408400Y-61939400D03*
%TO.P,RJ45-1,C3,C3*%
%TO.N,IN10+*%
X124678400Y-59399400D03*
%TO.P,RJ45-1,C2,C2*%
%TO.N,IN9-*%
X125948400Y-61939400D03*
%TO.P,RJ45-1,C1,C1*%
%TO.N,IN9+*%
X127218400Y-59399400D03*
%TO.P,RJ45-1,B8,B8*%
%TO.N,IN8-*%
X132298400Y-61939400D03*
%TO.P,RJ45-1,B7,B7*%
%TO.N,IN8+*%
X133568400Y-59399400D03*
%TO.P,RJ45-1,B6,B6*%
%TO.N,IN6-*%
X134838400Y-61939400D03*
%TO.P,RJ45-1,B5,B5*%
%TO.N,IN7+*%
X136108400Y-59399400D03*
%TO.P,RJ45-1,B4,B4*%
%TO.N,IN7-*%
X137378400Y-61939400D03*
%TO.P,RJ45-1,B3,B3*%
%TO.N,IN6+*%
X138648400Y-59399400D03*
%TO.P,RJ45-1,B2,B2*%
%TO.N,IN5-*%
X139918400Y-61939400D03*
%TO.P,RJ45-1,B1,B1*%
%TO.N,IN5+*%
X141188400Y-59399400D03*
%TO.P,RJ45-1,A8,A8*%
%TO.N,IN4-*%
X146268400Y-61939400D03*
%TO.P,RJ45-1,A7,A7*%
%TO.N,IN4+*%
X147538400Y-59399400D03*
%TO.P,RJ45-1,A6,A6*%
%TO.N,IN2-*%
X148808400Y-61939400D03*
%TO.P,RJ45-1,A5,A5*%
%TO.N,IN3+*%
X150078400Y-59399400D03*
%TO.P,RJ45-1,A4,A4*%
%TO.N,IN3-*%
X151348400Y-61939400D03*
%TO.P,RJ45-1,A3,A3*%
%TO.N,IN2+*%
X152618400Y-59399400D03*
%TO.P,RJ45-1,A2,A2*%
%TO.N,IN1-*%
X153888400Y-61939400D03*
%TO.P,RJ45-1,A1,A1*%
%TO.N,IN1+*%
X155158400Y-59399400D03*
%TD*%
D12*
%TO.P,LED56,1,K*%
%TO.N,Net-(LED56-Pad1)*%
X118836500Y-68519000D03*
%TO.P,LED56,2,A*%
%TO.N,IN11+*%
X117261500Y-68519000D03*
%TD*%
D13*
%TO.P,TH59,1*%
%TO.N,IN8+*%
X130893000Y-77468400D03*
%TO.P,TH59,2*%
%TO.N,RC8-*%
X132543000Y-77468400D03*
%TD*%
D14*
%TO.P,J11,8,Pin_8*%
%TO.N,IN13-*%
X111996000Y-91937300D03*
%TO.P,J11,7,Pin_7*%
%TO.N,RC13-*%
X111996000Y-89437300D03*
%TO.P,J11,6,Pin_6*%
%TO.N,IN14-*%
X108496000Y-91937300D03*
%TO.P,J11,5,Pin_5*%
%TO.N,RC14-*%
X108496000Y-89437300D03*
%TO.P,J11,4,Pin_4*%
%TO.N,IN15-*%
X104996000Y-91937300D03*
%TO.P,J11,3,Pin_3*%
%TO.N,RC15-*%
X104996000Y-89437300D03*
%TO.P,J11,2,Pin_2*%
%TO.N,IN16-*%
X101496000Y-91937300D03*
%TO.P,J11,1,Pin_1*%
%TO.N,RC16-*%
X101496000Y-89437300D03*
%TD*%
D15*
%TO.P,D57,1,K*%
%TO.N,RC10-*%
X121982150Y-79441000D03*
D16*
%TO.P,D57,2,A*%
%TO.N,IN10-*%
X123882150Y-79441000D03*
%TD*%
D14*
%TO.P,J12,8,Pin_8*%
%TO.N,IN9-*%
X127388400Y-91937300D03*
%TO.P,J12,7,Pin_7*%
%TO.N,RC9-*%
X127388400Y-89437300D03*
%TO.P,J12,6,Pin_6*%
%TO.N,IN10-*%
X123888400Y-91937300D03*
%TO.P,J12,5,Pin_5*%
%TO.N,RC10-*%
X123888400Y-89437300D03*
%TO.P,J12,4,Pin_4*%
%TO.N,IN11-*%
X120388400Y-91937300D03*
%TO.P,J12,3,Pin_3*%
%TO.N,RC11-*%
X120388400Y-89437300D03*
%TO.P,J12,2,Pin_2*%
%TO.N,IN12-*%
X116888400Y-91937300D03*
%TO.P,J12,1,Pin_1*%
%TO.N,RC12-*%
X116888400Y-89437300D03*
%TD*%
D15*
%TO.P,D61,1,K*%
%TO.N,RC6-*%
X139607000Y-79441000D03*
D16*
%TO.P,D61,2,A*%
%TO.N,IN6-*%
X141507000Y-79441000D03*
%TD*%
D12*
%TO.P,LED66,1,K*%
%TO.N,Net-(LED66-Pad1)*%
X162767300Y-68519000D03*
%TO.P,LED66,2,A*%
%TO.N,IN1+*%
X161192300Y-68519000D03*
%TD*%
D15*
%TO.P,D63,1,K*%
%TO.N,RC4-*%
X148339300Y-79441000D03*
D16*
%TO.P,D63,2,A*%
%TO.N,IN4-*%
X150239300Y-79441000D03*
%TD*%
D12*
%TO.P,LED60,1,K*%
%TO.N,Net-(LED60-Pad1)*%
X136881800Y-68519000D03*
%TO.P,LED60,2,A*%
%TO.N,IN7+*%
X135306800Y-68519000D03*
%TD*%
D13*
%TO.P,R58,1*%
%TO.N,IN9-*%
X126313500Y-70721700D03*
%TO.P,R58,2*%
%TO.N,Net-(LED58-Pad1)*%
X127963500Y-70721700D03*
%TD*%
%TO.P,TH54,1*%
%TO.N,IN13+*%
X108533500Y-77468400D03*
%TO.P,TH54,2*%
%TO.N,RC13-*%
X110183500Y-77468400D03*
%TD*%
D12*
%TO.P,LED55,1,K*%
%TO.N,Net-(LED55-Pad1)*%
X114357000Y-68519000D03*
%TO.P,LED55,2,A*%
%TO.N,IN12+*%
X112782000Y-68519000D03*
%TD*%
D13*
%TO.P,TH61,1*%
%TO.N,IN6+*%
X139409500Y-77468400D03*
%TO.P,TH61,2*%
%TO.N,RC6-*%
X141059500Y-77468400D03*
%TD*%
D12*
%TO.P,LED58,1,K*%
%TO.N,Net-(LED58-Pad1)*%
X127946000Y-68519000D03*
%TO.P,LED58,2,A*%
%TO.N,IN9+*%
X126371000Y-68519000D03*
%TD*%
D13*
%TO.P,R61,1*%
%TO.N,IN6-*%
X139417000Y-70721700D03*
%TO.P,R61,2*%
%TO.N,Net-(LED61-Pad1)*%
X141067000Y-70721700D03*
%TD*%
D12*
%TO.P,LED63,1,K*%
%TO.N,Net-(LED63-Pad1)*%
X149781800Y-68519000D03*
%TO.P,LED63,2,A*%
%TO.N,IN4+*%
X148206800Y-68519000D03*
%TD*%
%TO.P,LED65,1,K*%
%TO.N,Net-(LED65-Pad1)*%
X158441000Y-68519000D03*
%TO.P,LED65,2,A*%
%TO.N,IN2+*%
X156866000Y-68519000D03*
%TD*%
D15*
%TO.P,D64,1,K*%
%TO.N,RC3-*%
X152680500Y-79441000D03*
D16*
%TO.P,D64,2,A*%
%TO.N,IN3-*%
X154580500Y-79441000D03*
%TD*%
D13*
%TO.P,R60,1*%
%TO.N,IN7-*%
X135249300Y-70721700D03*
%TO.P,R60,2*%
%TO.N,Net-(LED60-Pad1)*%
X136899300Y-70721700D03*
%TD*%
D12*
%TO.P,LED57,1,K*%
%TO.N,Net-(LED57-Pad1)*%
X123408500Y-68519000D03*
%TO.P,LED57,2,A*%
%TO.N,IN10+*%
X121833500Y-68519000D03*
%TD*%
D15*
%TO.P,D53,1,K*%
%TO.N,RC14-*%
X104540000Y-79441000D03*
D16*
%TO.P,D53,2,A*%
%TO.N,IN14-*%
X106440000Y-79441000D03*
%TD*%
D13*
%TO.P,TH60,1*%
%TO.N,IN7+*%
X135241800Y-77468400D03*
%TO.P,TH60,2*%
%TO.N,RC7-*%
X136891800Y-77468400D03*
%TD*%
%TO.P,R53,1*%
%TO.N,IN14-*%
X104342500Y-70721700D03*
%TO.P,R53,2*%
%TO.N,Net-(LED53-Pad1)*%
X105992500Y-70721700D03*
%TD*%
%TO.P,TH56,1*%
%TO.N,IN11+*%
X117210500Y-77468400D03*
%TO.P,TH56,2*%
%TO.N,RC11-*%
X118860500Y-77468400D03*
%TD*%
D12*
%TO.P,LED53,1,K*%
%TO.N,Net-(LED53-Pad1)*%
X106009500Y-68519000D03*
%TO.P,LED53,2,A*%
%TO.N,IN14+*%
X104434500Y-68519000D03*
%TD*%
D13*
%TO.P,R51,1*%
%TO.N,IN16-*%
X96401400Y-70721700D03*
%TO.P,R51,2*%
%TO.N,Net-(LED51-Pad1)*%
X98051400Y-70721700D03*
%TD*%
%TO.P,TH53,1*%
%TO.N,IN14+*%
X104342500Y-77468400D03*
%TO.P,TH53,2*%
%TO.N,RC14-*%
X105992500Y-77468400D03*
%TD*%
D12*
%TO.P,LED61,1,K*%
%TO.N,Net-(LED61-Pad1)*%
X141049500Y-68519000D03*
%TO.P,LED61,2,A*%
%TO.N,IN6+*%
X139474500Y-68519000D03*
%TD*%
%TO.P,LED64,1,K*%
%TO.N,Net-(LED64-Pad1)*%
X154123000Y-68519000D03*
%TO.P,LED64,2,A*%
%TO.N,IN3+*%
X152548000Y-68519000D03*
%TD*%
D13*
%TO.P,R54,1*%
%TO.N,IN13-*%
X108533500Y-70721700D03*
%TO.P,R54,2*%
%TO.N,Net-(LED54-Pad1)*%
X110183500Y-70721700D03*
%TD*%
%TO.P,TH57,1*%
%TO.N,IN10+*%
X121784650Y-77468400D03*
%TO.P,TH57,2*%
%TO.N,RC10-*%
X123434650Y-77468400D03*
%TD*%
D15*
%TO.P,D55,1,K*%
%TO.N,RC12-*%
X112922000Y-79441000D03*
D16*
%TO.P,D55,2,A*%
%TO.N,IN12-*%
X114822000Y-79441000D03*
%TD*%
D12*
%TO.P,LED52,1,K*%
%TO.N,Net-(LED52-Pad1)*%
X101911000Y-68519000D03*
%TO.P,LED52,2,A*%
%TO.N,IN15+*%
X100336000Y-68519000D03*
%TD*%
D13*
%TO.P,R65,1*%
%TO.N,IN2-*%
X156808500Y-70721700D03*
%TO.P,R65,2*%
%TO.N,Net-(LED65-Pad1)*%
X158458500Y-70721700D03*
%TD*%
%TO.P,TH66,1*%
%TO.N,IN1+*%
X161127300Y-77468400D03*
%TO.P,TH66,2*%
%TO.N,RC1-*%
X162777300Y-77468400D03*
%TD*%
%TO.P,TH55,1*%
%TO.N,IN12+*%
X112724500Y-77468400D03*
%TO.P,TH55,2*%
%TO.N,RC12-*%
X114374500Y-77468400D03*
%TD*%
%TO.P,TH58,1*%
%TO.N,IN9+*%
X126313500Y-77468400D03*
%TO.P,TH58,2*%
%TO.N,RC9-*%
X127963500Y-77468400D03*
%TD*%
%TO.P,R56,1*%
%TO.N,IN11-*%
X117210500Y-70721700D03*
%TO.P,R56,2*%
%TO.N,Net-(LED56-Pad1)*%
X118860500Y-70721700D03*
%TD*%
D12*
%TO.P,LED59,1,K*%
%TO.N,Net-(LED59-Pad1)*%
X132552500Y-68519000D03*
%TO.P,LED59,2,A*%
%TO.N,IN8+*%
X130977500Y-68519000D03*
%TD*%
%TO.P,LED51,1,K*%
%TO.N,Net-(LED51-Pad1)*%
X98033900Y-68519000D03*
%TO.P,LED51,2,A*%
%TO.N,IN16+*%
X96458900Y-68519000D03*
%TD*%
D13*
%TO.P,TH62,1*%
%TO.N,IN5+*%
X143720000Y-77468400D03*
%TO.P,TH62,2*%
%TO.N,RC5-*%
X145370000Y-77468400D03*
%TD*%
%TO.P,TH63,1*%
%TO.N,IN4+*%
X148141800Y-77468400D03*
%TO.P,TH63,2*%
%TO.N,RC4-*%
X149791800Y-77468400D03*
%TD*%
%TO.P,R64,1*%
%TO.N,IN3-*%
X152490500Y-70721700D03*
%TO.P,R64,2*%
%TO.N,Net-(LED64-Pad1)*%
X154140500Y-70721700D03*
%TD*%
D15*
%TO.P,D58,1,K*%
%TO.N,RC9-*%
X126511000Y-79441000D03*
D16*
%TO.P,D58,2,A*%
%TO.N,IN9-*%
X128411000Y-79441000D03*
%TD*%
D13*
%TO.P,R62,1*%
%TO.N,IN5-*%
X143727500Y-70721700D03*
%TO.P,R62,2*%
%TO.N,Net-(LED62-Pad1)*%
X145377500Y-70721700D03*
%TD*%
D15*
%TO.P,D65,1,K*%
%TO.N,RC2-*%
X156998500Y-79441000D03*
D16*
%TO.P,D65,2,A*%
%TO.N,IN2-*%
X158898500Y-79441000D03*
%TD*%
D15*
%TO.P,D60,1,K*%
%TO.N,RC7-*%
X135290500Y-79441000D03*
D16*
%TO.P,D60,2,A*%
%TO.N,IN7-*%
X137190500Y-79441000D03*
%TD*%
D15*
%TO.P,D52,1,K*%
%TO.N,RC15-*%
X100476000Y-79441000D03*
D16*
%TO.P,D52,2,A*%
%TO.N,IN15-*%
X102376000Y-79441000D03*
%TD*%
D13*
%TO.P,R66,1*%
%TO.N,IN1-*%
X161134800Y-70721700D03*
%TO.P,R66,2*%
%TO.N,Net-(LED66-Pad1)*%
X162784800Y-70721700D03*
%TD*%
D15*
%TO.P,D54,1,K*%
%TO.N,RC13-*%
X108731000Y-79441000D03*
D16*
%TO.P,D54,2,A*%
%TO.N,IN13-*%
X110631000Y-79441000D03*
%TD*%
D13*
%TO.P,R57,1*%
%TO.N,IN10-*%
X121784650Y-70721700D03*
%TO.P,R57,2*%
%TO.N,Net-(LED57-Pad1)*%
X123434650Y-70721700D03*
%TD*%
%TO.P,R59,1*%
%TO.N,IN8-*%
X130900500Y-70721700D03*
%TO.P,R59,2*%
%TO.N,Net-(LED59-Pad1)*%
X132550500Y-70721700D03*
%TD*%
D14*
%TO.P,J14,8,Pin_8*%
%TO.N,IN1-*%
X158122400Y-92038900D03*
%TO.P,J14,7,Pin_7*%
%TO.N,RC1-*%
X158122400Y-89538900D03*
%TO.P,J14,6,Pin_6*%
%TO.N,IN2-*%
X154622400Y-92038900D03*
%TO.P,J14,5,Pin_5*%
%TO.N,RC2-*%
X154622400Y-89538900D03*
%TO.P,J14,4,Pin_4*%
%TO.N,IN3-*%
X151122400Y-92038900D03*
%TO.P,J14,3,Pin_3*%
%TO.N,RC3-*%
X151122400Y-89538900D03*
%TO.P,J14,2,Pin_2*%
%TO.N,IN4-*%
X147622400Y-92038900D03*
%TO.P,J14,1,Pin_1*%
%TO.N,RC4-*%
X147622400Y-89538900D03*
%TD*%
%TO.P,J13,8,Pin_8*%
%TO.N,IN5-*%
X142730000Y-92038900D03*
%TO.P,J13,7,Pin_7*%
%TO.N,RC5-*%
X142730000Y-89538900D03*
%TO.P,J13,6,Pin_6*%
%TO.N,IN6-*%
X139230000Y-92038900D03*
%TO.P,J13,5,Pin_5*%
%TO.N,RC6-*%
X139230000Y-89538900D03*
%TO.P,J13,4,Pin_4*%
%TO.N,IN7-*%
X135730000Y-92038900D03*
%TO.P,J13,3,Pin_3*%
%TO.N,RC7-*%
X135730000Y-89538900D03*
%TO.P,J13,2,Pin_2*%
%TO.N,IN8-*%
X132230000Y-92038900D03*
%TO.P,J13,1,Pin_1*%
%TO.N,RC8-*%
X132230000Y-89538900D03*
%TD*%
D13*
%TO.P,R55,1*%
%TO.N,IN12-*%
X112724500Y-70721700D03*
%TO.P,R55,2*%
%TO.N,Net-(LED55-Pad1)*%
X114374500Y-70721700D03*
%TD*%
%TO.P,TH51,1*%
%TO.N,IN16+*%
X96142000Y-77468400D03*
%TO.P,TH51,2*%
%TO.N,RC16-*%
X97792000Y-77468400D03*
%TD*%
%TO.P,R52,1*%
%TO.N,IN15-*%
X100278500Y-70721700D03*
%TO.P,R52,2*%
%TO.N,Net-(LED52-Pad1)*%
X101928500Y-70721700D03*
%TD*%
D15*
%TO.P,D59,1,K*%
%TO.N,RC8-*%
X131090500Y-79441000D03*
D16*
%TO.P,D59,2,A*%
%TO.N,IN8-*%
X132990500Y-79441000D03*
%TD*%
D15*
%TO.P,D56,1,K*%
%TO.N,RC11-*%
X117408000Y-79441000D03*
D16*
%TO.P,D56,2,A*%
%TO.N,IN11-*%
X119308000Y-79441000D03*
%TD*%
D13*
%TO.P,R63,1*%
%TO.N,IN4-*%
X148149300Y-70721700D03*
%TO.P,R63,2*%
%TO.N,Net-(LED63-Pad1)*%
X149799300Y-70721700D03*
%TD*%
D12*
%TO.P,LED62,1,K*%
%TO.N,Net-(LED62-Pad1)*%
X145506500Y-68519000D03*
%TO.P,LED62,2,A*%
%TO.N,IN5+*%
X143931500Y-68519000D03*
%TD*%
%TO.P,LED54,1,K*%
%TO.N,Net-(LED54-Pad1)*%
X110166000Y-68519000D03*
%TO.P,LED54,2,A*%
%TO.N,IN13+*%
X108591000Y-68519000D03*
%TD*%
D13*
%TO.P,TH65,1*%
%TO.N,IN2+*%
X156801000Y-77468400D03*
%TO.P,TH65,2*%
%TO.N,RC2-*%
X158451000Y-77468400D03*
%TD*%
D15*
%TO.P,D51,1,K*%
%TO.N,RC16-*%
X96339500Y-79441000D03*
D16*
%TO.P,D51,2,A*%
%TO.N,IN16-*%
X98239500Y-79441000D03*
%TD*%
D13*
%TO.P,TH52,1*%
%TO.N,IN15+*%
X100278500Y-77468400D03*
%TO.P,TH52,2*%
%TO.N,RC15-*%
X101928500Y-77468400D03*
%TD*%
%TO.P,TH64,1*%
%TO.N,IN3+*%
X152483000Y-77468400D03*
%TO.P,TH64,2*%
%TO.N,RC3-*%
X154133000Y-77468400D03*
%TD*%
D15*
%TO.P,D66,1,K*%
%TO.N,RC1-*%
X161324800Y-79441000D03*
D16*
%TO.P,D66,2,A*%
%TO.N,IN1-*%
X163224800Y-79441000D03*
%TD*%
D15*
%TO.P,D62,1,K*%
%TO.N,RC5-*%
X143917500Y-79441000D03*
D16*
%TO.P,D62,2,A*%
%TO.N,IN5-*%
X145817500Y-79441000D03*
%TD*%
D17*
%TO.N,IN1-*%
X161134800Y-70721700D03*
%TO.N,IN2-*%
X156808500Y-70721700D03*
%TO.N,IN3-*%
X152490500Y-70721700D03*
%TO.N,IN4-*%
X148149300Y-70721700D03*
%TO.N,IN5-*%
X143727500Y-70721700D03*
%TO.N,IN6-*%
X139417000Y-70721700D03*
%TO.N,IN7-*%
X135249300Y-70721700D03*
%TO.N,IN8-*%
X130942600Y-70763800D03*
%TO.N,IN9-*%
X126313500Y-70721700D03*
%TO.N,IN10-*%
X121784650Y-70721700D03*
%TO.N,IN11-*%
X117210500Y-70721700D03*
%TO.N,IN12-*%
X112724500Y-70721700D03*
%TO.N,IN13-*%
X108533500Y-70721700D03*
%TO.N,IN14-*%
X104342500Y-70721700D03*
%TO.N,IN15-*%
X100278500Y-70721700D03*
%TO.N,IN16-*%
X96401400Y-70721700D03*
%TD*%
D18*
%TO.N,IN16+*%
X95316000Y-68696800D02*
X95316000Y-76642400D01*
X95316000Y-76642400D02*
X96142000Y-77468400D01*
X95493800Y-68519000D02*
X95316000Y-68696800D01*
X96199500Y-68519000D02*
X95493800Y-68519000D01*
%TO.N,IN16-*%
X98696800Y-78983700D02*
X98239500Y-79441000D01*
X97917000Y-73741475D02*
X98696800Y-74521275D01*
X97917000Y-72237300D02*
X97917000Y-73741475D01*
X96401400Y-70721700D02*
X97917000Y-72237300D01*
X98696800Y-74521275D02*
X98696800Y-78983700D01*
D19*
%TO.N,IN3+*%
X150439272Y-59399400D02*
X150078400Y-59399400D01*
X152548000Y-68519000D02*
X152548000Y-61508128D01*
X152548000Y-61508128D02*
X150439272Y-59399400D01*
%TO.N,IN7+*%
X136108400Y-62300272D02*
X136108400Y-59399400D01*
X135306800Y-63092600D02*
X135316072Y-63092600D01*
X135306800Y-68519000D02*
X135306800Y-63092600D01*
X135316072Y-63092600D02*
X136108400Y-62300272D01*
%TO.N,IN11+*%
X122138400Y-63209400D02*
X122138400Y-59399400D01*
X117261500Y-68086300D02*
X122138400Y-63209400D01*
X117261500Y-68519000D02*
X117261500Y-68086300D01*
%TO.N,IN15+*%
X108168400Y-62778100D02*
X108168400Y-59399400D01*
X104230900Y-66715600D02*
X108168400Y-62778100D01*
X102359830Y-66715600D02*
X104230900Y-66715600D01*
X100556430Y-68519000D02*
X102359830Y-66715600D01*
X100336000Y-68519000D02*
X100556430Y-68519000D01*
D18*
%TO.N,IN8-*%
X130942600Y-70763800D02*
X130900500Y-70721700D01*
%TO.N,IN1+*%
X160192700Y-76533800D02*
X161127300Y-77468400D01*
X161192300Y-68519000D02*
X160192700Y-69518600D01*
X160192700Y-69518600D02*
X160192700Y-76533800D01*
%TO.N,IN2+*%
X155903700Y-76571100D02*
X156801000Y-77468400D01*
X155903700Y-69481300D02*
X155903700Y-76571100D01*
X156866000Y-68519000D02*
X155903700Y-69481300D01*
%TO.N,IN3+*%
X151585700Y-76571100D02*
X152483000Y-77468400D01*
X151585700Y-69481300D02*
X151585700Y-76571100D01*
X152548000Y-68519000D02*
X151585700Y-69481300D01*
%TO.N,IN4+*%
X147244500Y-69481300D02*
X147244500Y-76571100D01*
X148206800Y-68519000D02*
X147244500Y-69481300D01*
X147244500Y-76571100D02*
X148141800Y-77468400D01*
%TO.N,IN5+*%
X142822700Y-76571100D02*
X143720000Y-77468400D01*
X142822700Y-69627800D02*
X142822700Y-76571100D01*
X143931500Y-68519000D02*
X142822700Y-69627800D01*
%TO.N,IN6+*%
X138512200Y-73945400D02*
X139409500Y-74842700D01*
X139409500Y-74842700D02*
X139409500Y-77468400D01*
X138512200Y-69481300D02*
X138512200Y-73945400D01*
X139474500Y-68519000D02*
X138512200Y-69481300D01*
%TO.N,IN7+*%
X135241800Y-74637400D02*
X135241800Y-77468400D01*
X134330400Y-73726000D02*
X135241800Y-74637400D01*
X134330400Y-69495400D02*
X134330400Y-73726000D01*
X135306800Y-68519000D02*
X134330400Y-69495400D01*
%TO.N,IN8+*%
X129961600Y-76537000D02*
X130893000Y-77468400D01*
X130977500Y-68519000D02*
X129961600Y-69534900D01*
X129961600Y-69534900D02*
X129961600Y-76537000D01*
%TO.N,IN15+*%
X99373700Y-73719700D02*
X100278500Y-74624500D01*
X99373700Y-69481300D02*
X99373700Y-73719700D01*
X100336000Y-68519000D02*
X99373700Y-69481300D01*
X100278500Y-74624500D02*
X100278500Y-77468400D01*
%TO.N,IN14+*%
X104358400Y-77452500D02*
X104342500Y-77468400D01*
X104358400Y-75707200D02*
X104358400Y-77452500D01*
X103393200Y-74742000D02*
X104358400Y-75707200D01*
X104434500Y-68519000D02*
X103393200Y-69560300D01*
X103393200Y-69560300D02*
X103393200Y-74742000D01*
%TO.N,IN13+*%
X108533500Y-74958028D02*
X108533500Y-77468400D01*
X107628700Y-74053228D02*
X108533500Y-74958028D01*
X108591000Y-68519000D02*
X107628700Y-69481300D01*
X107628700Y-69481300D02*
X107628700Y-74053228D01*
%TO.N,IN12+*%
X112724500Y-74624500D02*
X112724500Y-77468400D01*
X111819700Y-73719700D02*
X112724500Y-74624500D01*
X111819700Y-69481300D02*
X111819700Y-73719700D01*
X112782000Y-68519000D02*
X111819700Y-69481300D01*
%TO.N,IN11+*%
X116194800Y-69585700D02*
X116194800Y-76452700D01*
X117261500Y-68519000D02*
X116194800Y-69585700D01*
X116194800Y-76452700D02*
X117210500Y-77468400D01*
%TO.N,IN10+*%
X120879850Y-76563600D02*
X121784650Y-77468400D01*
X120879850Y-69472650D02*
X120879850Y-76563600D01*
X121833500Y-68519000D02*
X120879850Y-69472650D01*
D19*
%TO.N,IN12+*%
X119598400Y-63159600D02*
X119598400Y-59399400D01*
X116093200Y-66664800D02*
X119598400Y-63159600D01*
X114636200Y-66664800D02*
X116093200Y-66664800D01*
X112782000Y-68519000D02*
X114636200Y-66664800D01*
%TO.N,IN13+*%
X113248400Y-63820000D02*
X113248400Y-59399400D01*
X108591000Y-68477400D02*
X113248400Y-63820000D01*
X108591000Y-68519000D02*
X108591000Y-68477400D01*
%TO.N,IN16+*%
X105267528Y-59399400D02*
X105628400Y-59399400D01*
X96199500Y-68467428D02*
X105267528Y-59399400D01*
X96199500Y-68519000D02*
X96199500Y-68467428D01*
%TO.N,IN14+*%
X110708400Y-62300272D02*
X110708400Y-59399400D01*
X104489672Y-68519000D02*
X110708400Y-62300272D01*
X104434500Y-68519000D02*
X104489672Y-68519000D01*
%TO.N,IN10+*%
X124678400Y-65674100D02*
X124678400Y-59399400D01*
X121833500Y-68519000D02*
X124678400Y-65674100D01*
%TO.N,IN9+*%
X127218400Y-67671600D02*
X127218400Y-59399400D01*
X126371000Y-68519000D02*
X127218400Y-67671600D01*
%TO.N,IN8+*%
X130977500Y-68519000D02*
X133568400Y-65928100D01*
X133568400Y-65928100D02*
X133568400Y-59399400D01*
%TO.N,IN6+*%
X139474500Y-68519000D02*
X138648400Y-67692900D01*
X138648400Y-67692900D02*
X138648400Y-59399400D01*
%TO.N,IN5+*%
X141188400Y-65775900D02*
X141188400Y-59399400D01*
X143931500Y-68519000D02*
X141188400Y-65775900D01*
%TO.N,IN4+*%
X147538400Y-67850600D02*
X147538400Y-59399400D01*
X148206800Y-68519000D02*
X147538400Y-67850600D01*
%TO.N,IN2+*%
X152979272Y-59399400D02*
X152618400Y-59399400D01*
X156866000Y-63286128D02*
X152979272Y-59399400D01*
X156866000Y-68519000D02*
X156866000Y-63286128D01*
%TO.N,IN1+*%
X161192300Y-68519000D02*
X161192300Y-65433300D01*
X161192300Y-65433300D02*
X155158400Y-59399400D01*
%TO.N,RC7-*%
X134686000Y-80045500D02*
X134686000Y-88494900D01*
%TO.N,IN6-*%
X140884610Y-80869790D02*
X140884610Y-90384290D01*
D18*
%TO.N,IN16-*%
X103000800Y-84331800D02*
X103000800Y-90432500D01*
%TO.N,IN13-*%
X113500800Y-83020800D02*
X113500800Y-90432500D01*
D19*
%TO.N,IN12-*%
X118291600Y-82910600D02*
X118291600Y-90534100D01*
D18*
%TO.N,IN15-*%
X106500800Y-83894800D02*
X106500800Y-90432500D01*
%TO.N,IN14-*%
X110095600Y-83171600D02*
X110095600Y-90337700D01*
%TO.N,IN15-*%
X102376000Y-79770000D02*
X106500800Y-83894800D01*
%TO.N,IN16-*%
X98239500Y-79570500D02*
X103000800Y-84331800D01*
D19*
%TO.N,IN7-*%
X137378400Y-80435300D02*
X137378400Y-90390500D01*
%TO.N,IN10-*%
X125189600Y-80748450D02*
X125189600Y-88156400D01*
%TO.N,IN11-*%
X121791600Y-81924600D02*
X121791600Y-90534100D01*
%TO.N,IN9-*%
X129047200Y-81526200D02*
X129047200Y-90278500D01*
%TO.N,IN8-*%
X133924000Y-80374500D02*
X133924000Y-90344900D01*
D18*
%TO.N,RC16-*%
X96339500Y-79441000D02*
X101496000Y-84597500D01*
%TO.N,RC13-*%
X111826000Y-82536000D02*
X111826000Y-89267300D01*
D19*
%TO.N,RC11-*%
X120716000Y-82749000D02*
X120716000Y-89109700D01*
%TO.N,RC10-*%
X123256000Y-80714850D02*
X123256000Y-88804900D01*
D18*
%TO.N,RC14-*%
X109286000Y-83639972D02*
X109286000Y-88647300D01*
%TO.N,RC15-*%
X104764800Y-83682800D02*
X104764800Y-89206100D01*
%TO.N,RC16-*%
X101496000Y-84597500D02*
X101496000Y-89437300D01*
D19*
%TO.N,RC12-*%
X116093200Y-82616000D02*
X116093200Y-88642100D01*
%TO.N,RC8-*%
X132146000Y-82743000D02*
X132146000Y-89454900D01*
%TO.N,RC6-*%
X139562800Y-79485200D02*
X139562800Y-89206100D01*
%TO.N,RC3-*%
X151551600Y-80569900D02*
X151551600Y-89109700D01*
%TO.N,RC2-*%
X154853600Y-82463600D02*
X154853600Y-89307700D01*
%TO.N,RC5-*%
X142661600Y-79974400D02*
X142661600Y-89470500D01*
%TO.N,RC1-*%
X158460400Y-82768400D02*
X158460400Y-89200900D01*
%TO.N,RC9-*%
X126459600Y-79492400D02*
X126459600Y-88508500D01*
%TO.N,RC4-*%
X146116000Y-81664300D02*
X146116000Y-88032500D01*
%TO.N,IN5-*%
X144535600Y-81179300D02*
X144535600Y-90233300D01*
%TO.N,IN1-*%
X160187600Y-82934600D02*
X160187600Y-89973700D01*
%TO.N,IN2-*%
X156326800Y-82469100D02*
X156326800Y-90334500D01*
%TO.N,IN3-*%
X152974000Y-81853900D02*
X152974000Y-90187300D01*
%TO.N,IN4-*%
X149519600Y-80617100D02*
X149519600Y-90141700D01*
D18*
%TO.N,IN14-*%
X107419800Y-80495800D02*
X110095600Y-83171600D01*
D19*
%TO.N,IN12-*%
X114822000Y-79441000D02*
X118291600Y-82910600D01*
D18*
%TO.N,IN13-*%
X110631000Y-80151000D02*
X113500800Y-83020800D01*
D19*
%TO.N,RC11-*%
X117408000Y-79441000D02*
X120716000Y-82749000D01*
%TO.N,RC12-*%
X114660300Y-81183100D02*
X116093200Y-82616000D01*
D18*
%TO.N,RC15-*%
X101577800Y-80495800D02*
X104764800Y-83682800D01*
%TO.N,RC14-*%
X106951428Y-81305400D02*
X109286000Y-83639972D01*
%TO.N,RC13-*%
X108731000Y-79441000D02*
X111826000Y-82536000D01*
D19*
%TO.N,RC1-*%
X161324800Y-79904000D02*
X158460400Y-82768400D01*
%TO.N,RC2-*%
X156998500Y-80318700D02*
X154853600Y-82463600D01*
%TO.N,RC8-*%
X131090500Y-81687500D02*
X132146000Y-82743000D01*
%TO.N,IN2-*%
X158898500Y-79897400D02*
X156326800Y-82469100D01*
%TO.N,IN1-*%
X163224800Y-79897400D02*
X160187600Y-82934600D01*
D18*
%TO.N,IN16-*%
X98239500Y-79441000D02*
X98239500Y-79570500D01*
X103000800Y-90432500D02*
X101496000Y-91937300D01*
%TO.N,IN15-*%
X102376000Y-79441000D02*
X102376000Y-79770000D01*
X106500800Y-90432500D02*
X104996000Y-91937300D01*
%TO.N,IN14-*%
X107226200Y-80495800D02*
X107419800Y-80495800D01*
X106440000Y-79709600D02*
X107226200Y-80495800D01*
X106440000Y-79441000D02*
X106440000Y-79709600D01*
X110095600Y-90337700D02*
X108496000Y-91937300D01*
%TO.N,IN13-*%
X110631000Y-79441000D02*
X110631000Y-80151000D01*
X113500800Y-90432500D02*
X111996000Y-91937300D01*
D19*
%TO.N,IN12-*%
X118291600Y-90534100D02*
X116888400Y-91937300D01*
%TO.N,IN11-*%
X121791600Y-90534100D02*
X120388400Y-91937300D01*
X119308000Y-79441000D02*
X121791600Y-81924600D01*
%TO.N,IN10-*%
X125189600Y-88156400D02*
X125291600Y-88258400D01*
X123882150Y-79441000D02*
X125189600Y-80748450D01*
X125291600Y-88258400D02*
X125291600Y-90534100D01*
%TO.N,IN9-*%
X129047200Y-90278500D02*
X127388400Y-91937300D01*
X128411000Y-80890000D02*
X129047200Y-81526200D01*
%TO.N,IN8-*%
X133924000Y-90344900D02*
X132230000Y-92038900D01*
X132990500Y-79441000D02*
X133924000Y-80374500D01*
%TO.N,IN7-*%
X137190500Y-80247400D02*
X137378400Y-80435300D01*
X137378400Y-90390500D02*
X135730000Y-92038900D01*
%TO.N,IN5-*%
X144535600Y-90233300D02*
X142730000Y-92038900D01*
X145817500Y-79897400D02*
X144535600Y-81179300D01*
X145817500Y-79441000D02*
X145817500Y-79897400D01*
%TO.N,IN4-*%
X150239300Y-79897400D02*
X149519600Y-80617100D01*
X149519600Y-90141700D02*
X147622400Y-92038900D01*
X150239300Y-79441000D02*
X150239300Y-79897400D01*
%TO.N,IN3-*%
X154580500Y-80247400D02*
X152974000Y-81853900D01*
X152974000Y-90187300D02*
X151122400Y-92038900D01*
X154580500Y-79441000D02*
X154580500Y-80247400D01*
%TO.N,IN2-*%
X158898500Y-79441000D02*
X158898500Y-79897400D01*
X156326800Y-90334500D02*
X154622400Y-92038900D01*
%TO.N,IN1-*%
X163224800Y-79441000D02*
X163224800Y-79897400D01*
X160187600Y-89973700D02*
X158122400Y-92038900D01*
%TO.N,IN6-*%
X141507000Y-80247400D02*
X140884610Y-80869790D01*
X141507000Y-79441000D02*
X141507000Y-80247400D01*
X140884610Y-90384290D02*
X139230000Y-92038900D01*
%TO.N,RC7-*%
X134686000Y-88494900D02*
X135730000Y-89538900D01*
X135290500Y-79441000D02*
X134686000Y-80045500D01*
D18*
%TO.N,RC15-*%
X101530800Y-80495800D02*
X101577800Y-80495800D01*
X100476000Y-79441000D02*
X101530800Y-80495800D01*
%TO.N,RC14-*%
X106890852Y-81305400D02*
X106951428Y-81305400D01*
X105931252Y-80345800D02*
X106890852Y-81305400D01*
%TO.N,RC13-*%
X111826000Y-89267300D02*
X111996000Y-89437300D01*
D19*
%TO.N,RC12-*%
X116093200Y-88642100D02*
X116888400Y-89437300D01*
X114660300Y-81179300D02*
X114660300Y-81183100D01*
%TO.N,RC11-*%
X120716000Y-89109700D02*
X120388400Y-89437300D01*
%TO.N,RC10-*%
X121982150Y-79441000D02*
X123256000Y-80714850D01*
X123256000Y-88804900D02*
X123888400Y-89437300D01*
%TO.N,RC9-*%
X126459600Y-88508500D02*
X127388400Y-89437300D01*
X126511000Y-79441000D02*
X126459600Y-79492400D01*
%TO.N,RC8-*%
X132146000Y-89454900D02*
X132230000Y-89538900D01*
X131090500Y-79441000D02*
X131090500Y-81687500D01*
%TO.N,RC6-*%
X139562800Y-89206100D02*
X139230000Y-89538900D01*
X139607000Y-79441000D02*
X139562800Y-79485200D01*
%TO.N,RC5-*%
X142661600Y-89470500D02*
X142730000Y-89538900D01*
X143195000Y-79441000D02*
X142661600Y-79974400D01*
%TO.N,RC4-*%
X148339300Y-79441000D02*
X146116000Y-81664300D01*
X146116000Y-88032500D02*
X147622400Y-89538900D01*
%TO.N,RC3-*%
X152680500Y-79441000D02*
X151551600Y-80569900D01*
X151551600Y-89109700D02*
X151122400Y-89538900D01*
%TO.N,RC2-*%
X156998500Y-79441000D02*
X156998500Y-80318700D01*
X154853600Y-89307700D02*
X154622400Y-89538900D01*
%TO.N,RC1-*%
X161324800Y-79441000D02*
X161324800Y-79904000D01*
X158460400Y-89200900D02*
X158122400Y-89538900D01*
%TO.N,IN10-*%
X125291600Y-90534100D02*
X123888400Y-91937300D01*
%TO.N,IN9-*%
X128411000Y-79441000D02*
X128411000Y-80890000D01*
%TO.N,IN7-*%
X137190500Y-79441000D02*
X137190500Y-80247400D01*
D18*
%TO.N,RC15-*%
X104764800Y-89206100D02*
X104996000Y-89437300D01*
%TO.N,RC14-*%
X109286000Y-88647300D02*
X108496000Y-89437300D01*
X105444800Y-80345800D02*
X105931252Y-80345800D01*
X104540000Y-79441000D02*
X105444800Y-80345800D01*
D19*
%TO.N,RC12-*%
X112922000Y-79441000D02*
X114660300Y-81179300D01*
%TO.N,RC5-*%
X143917500Y-79441000D02*
X143195000Y-79441000D01*
D18*
%TO.N,IN15-*%
X102833300Y-76297062D02*
X102833300Y-78983700D01*
X100278500Y-70721700D02*
X100278500Y-70941500D01*
X100278500Y-70941500D02*
X102053500Y-72716500D01*
X102053500Y-72716500D02*
X102053500Y-75517262D01*
X102053500Y-75517262D02*
X102833300Y-76297062D01*
X102833300Y-78983700D02*
X102376000Y-79441000D01*
%TO.N,IN14-*%
X104342500Y-70721700D02*
X104342500Y-70941500D01*
X106117500Y-73686975D02*
X107000000Y-74569475D01*
X107000000Y-74569475D02*
X107000000Y-78881000D01*
X106117500Y-72716500D02*
X106117500Y-73686975D01*
X107000000Y-78881000D02*
X106440000Y-79441000D01*
X104342500Y-70941500D02*
X106117500Y-72716500D01*
%TO.N,IN13-*%
X110308500Y-73813975D02*
X111191000Y-74696475D01*
X111191000Y-74696475D02*
X111191000Y-78881000D01*
X110308500Y-72716500D02*
X110308500Y-73813975D01*
X108533500Y-70941500D02*
X110308500Y-72716500D01*
X108533500Y-70721700D02*
X108533500Y-70941500D01*
X111191000Y-78881000D02*
X110631000Y-79441000D01*
%TO.N,IN12-*%
X115382000Y-74179000D02*
X115382000Y-78881000D01*
X115382000Y-78881000D02*
X114822000Y-79441000D01*
X114372500Y-72716500D02*
X114372500Y-73169500D01*
X112724500Y-71068500D02*
X114372500Y-72716500D01*
X114372500Y-73169500D02*
X115382000Y-74179000D01*
X112724500Y-70721700D02*
X112724500Y-71068500D01*
%TO.N,IN11-*%
X117210500Y-70721700D02*
X117210500Y-70728500D01*
X119765300Y-78983700D02*
X119308000Y-79441000D01*
X118985500Y-72503500D02*
X118985500Y-73169500D01*
X117210500Y-70728500D02*
X118985500Y-72503500D01*
X119765300Y-73949300D02*
X119765300Y-78983700D01*
X118985500Y-73169500D02*
X119765300Y-73949300D01*
%TO.N,IN10-*%
X123559650Y-73169500D02*
X124339450Y-73949300D01*
X123559650Y-72496700D02*
X121784650Y-70721700D01*
X123559650Y-73169500D02*
X123559650Y-72496700D01*
X124339450Y-73949300D02*
X124339450Y-78983700D01*
X124339450Y-78983700D02*
X123882150Y-79441000D01*
%TO.N,IN9-*%
X126313500Y-71394500D02*
X128868300Y-73949300D01*
X126313500Y-70721700D02*
X126313500Y-71394500D01*
X128411000Y-79441000D02*
X128868300Y-78983700D01*
X128868300Y-78983700D02*
X128868300Y-73949300D01*
%TO.N,IN8-*%
X132668000Y-72489200D02*
X130942600Y-70763800D01*
X132668000Y-73867000D02*
X132668000Y-72489200D01*
X133797000Y-74996000D02*
X133797000Y-78634500D01*
X133797000Y-78634500D02*
X132990500Y-79441000D01*
X132668000Y-73867000D02*
X133797000Y-74996000D01*
%TO.N,IN7-*%
X137190500Y-79441000D02*
X137796600Y-78834900D01*
X137796600Y-74931600D02*
X137016800Y-74151800D01*
X137016800Y-74151800D02*
X137016800Y-72500800D01*
X135249300Y-70733300D02*
X137016800Y-72500800D01*
X135249300Y-70721700D02*
X135249300Y-70733300D01*
X137796600Y-78834900D02*
X137796600Y-74931600D01*
%TO.N,IN5-*%
X143727500Y-71402000D02*
X146274800Y-73949300D01*
X145817500Y-79441000D02*
X146274800Y-78983700D01*
X143727500Y-70721700D02*
X143727500Y-71402000D01*
X146274800Y-78983700D02*
X146274800Y-73949300D01*
%TO.N,IN4-*%
X148149300Y-71402000D02*
X150696600Y-73949300D01*
X150696600Y-78983700D02*
X150696600Y-73949300D01*
X148149300Y-70721700D02*
X148149300Y-71402000D01*
X150239300Y-79441000D02*
X150696600Y-78983700D01*
%TO.N,IN3-*%
X155037800Y-78983700D02*
X155037800Y-73949300D01*
X152490500Y-71402000D02*
X155037800Y-73949300D01*
X154580500Y-79441000D02*
X155037800Y-78983700D01*
X152490500Y-70721700D02*
X152490500Y-71402000D01*
%TO.N,IN2-*%
X159383100Y-78956400D02*
X159383100Y-73976600D01*
X156808500Y-71402000D02*
X159383100Y-73976600D01*
X158898500Y-79441000D02*
X159383100Y-78956400D01*
X156808500Y-70721700D02*
X156808500Y-71402000D01*
%TO.N,IN1-*%
X163224800Y-79441000D02*
X163682100Y-78983700D01*
X163682100Y-78983700D02*
X163682100Y-73949300D01*
X161134800Y-71402000D02*
X163682100Y-73949300D01*
X161134800Y-70721700D02*
X161134800Y-71402000D01*
%TO.N,Net-(LED51-Pad1)*%
X97774500Y-68519000D02*
X97774500Y-70528700D01*
X97774500Y-70528700D02*
X97792000Y-70546200D01*
%TO.N,Net-(LED52-Pad1)*%
X101911000Y-70577200D02*
X101928500Y-70594700D01*
X101911000Y-68519000D02*
X101911000Y-70577200D01*
%TO.N,Net-(LED53-Pad1)*%
X106009500Y-68519000D02*
X105992500Y-68536000D01*
X105992500Y-68536000D02*
X105992500Y-70594700D01*
%TO.N,Net-(LED54-Pad1)*%
X110166000Y-70577200D02*
X110183500Y-70594700D01*
X110166000Y-68519000D02*
X110166000Y-70577200D01*
%TO.N,Net-(LED55-Pad1)*%
X114357000Y-70704200D02*
X114374500Y-70721700D01*
X114357000Y-68519000D02*
X114357000Y-70704200D01*
%TO.N,Net-(LED56-Pad1)*%
X118836500Y-68519000D02*
X118836500Y-70697700D01*
X118836500Y-70697700D02*
X118860500Y-70721700D01*
%TO.N,Net-(LED57-Pad1)*%
X123408500Y-68519000D02*
X123408500Y-70738700D01*
%TO.N,Net-(LED58-Pad1)*%
X127946000Y-70704200D02*
X127963500Y-70721700D01*
X127946000Y-68519000D02*
X127946000Y-70704200D01*
%TO.N,Net-(LED59-Pad1)*%
X132550500Y-68521000D02*
X132550500Y-70721700D01*
X132552500Y-68519000D02*
X132550500Y-68521000D01*
%TO.N,Net-(LED60-Pad1)*%
X136881800Y-68519000D02*
X136881800Y-70704200D01*
X136881800Y-70704200D02*
X136899300Y-70721700D01*
%TO.N,Net-(LED61-Pad1)*%
X141049500Y-68519000D02*
X141049500Y-70704200D01*
X141049500Y-70704200D02*
X141067000Y-70721700D01*
%TO.N,Net-(LED62-Pad1)*%
X145481000Y-68544500D02*
X145481000Y-70618200D01*
X145506500Y-68519000D02*
X145481000Y-68544500D01*
X145481000Y-70618200D02*
X145377500Y-70721700D01*
%TO.N,Net-(LED63-Pad1)*%
X149781800Y-70704200D02*
X149799300Y-70721700D01*
X149781800Y-68519000D02*
X149781800Y-70704200D01*
%TO.N,Net-(LED64-Pad1)*%
X154123000Y-68519000D02*
X154123000Y-70704200D01*
X154123000Y-70704200D02*
X154140500Y-70721700D01*
%TO.N,Net-(LED65-Pad1)*%
X158441000Y-70704200D02*
X158458500Y-70721700D01*
X158441000Y-68519000D02*
X158441000Y-70704200D01*
%TO.N,Net-(LED66-Pad1)*%
X162767300Y-68519000D02*
X162767300Y-70704200D01*
X162767300Y-70704200D02*
X162784800Y-70721700D01*
%TO.N,IN6-*%
X141975800Y-78972200D02*
X141975800Y-73960800D01*
X139417000Y-70721700D02*
X139417000Y-71402000D01*
X139417000Y-71402000D02*
X141975800Y-73960800D01*
X141507000Y-79441000D02*
X141975800Y-78972200D01*
%TO.N,RC7-*%
X136891800Y-77839700D02*
X135290500Y-79441000D01*
X136891800Y-77468400D02*
X136891800Y-77839700D01*
%TO.N,IN9+*%
X126304000Y-77458900D02*
X126313500Y-77468400D01*
X126304000Y-74948527D02*
X126304000Y-77458900D01*
X125378900Y-74023427D02*
X126304000Y-74948527D01*
X126371000Y-68519000D02*
X125378900Y-69511100D01*
X125378900Y-69511100D02*
X125378900Y-74023427D01*
%TO.N,RC16-*%
X97792000Y-77468400D02*
X97792000Y-77988500D01*
X97792000Y-77988500D02*
X96339500Y-79441000D01*
%TO.N,RC15-*%
X101928500Y-77468400D02*
X101928500Y-77988500D01*
X101928500Y-77988500D02*
X100476000Y-79441000D01*
%TO.N,RC14-*%
X105992500Y-77468400D02*
X105992500Y-77988500D01*
X105992500Y-77988500D02*
X104540000Y-79441000D01*
%TO.N,RC13-*%
X110183500Y-77988500D02*
X108731000Y-79441000D01*
X110183500Y-77468400D02*
X110183500Y-77988500D01*
%TO.N,RC12-*%
X114374500Y-77988500D02*
X112922000Y-79441000D01*
X114374500Y-77468400D02*
X114374500Y-77988500D01*
%TO.N,RC11-*%
X118860500Y-77988500D02*
X117408000Y-79441000D01*
X118860500Y-77468400D02*
X118860500Y-77988500D01*
%TO.N,RC10-*%
X123434650Y-77988500D02*
X121982150Y-79441000D01*
X123434650Y-77468400D02*
X123434650Y-77988500D01*
%TO.N,RC9-*%
X127963500Y-77988500D02*
X126511000Y-79441000D01*
X127963500Y-77468400D02*
X127963500Y-77988500D01*
%TO.N,RC8-*%
X132543000Y-77468400D02*
X132543000Y-77988500D01*
X132543000Y-77988500D02*
X131090500Y-79441000D01*
%TO.N,RC6-*%
X141059500Y-77988500D02*
X139607000Y-79441000D01*
X141059500Y-77468400D02*
X141059500Y-77988500D01*
%TO.N,RC5-*%
X145370000Y-77468400D02*
X145370000Y-77988500D01*
X145370000Y-77988500D02*
X143917500Y-79441000D01*
%TO.N,RC4-*%
X149791800Y-77988500D02*
X148339300Y-79441000D01*
X149791800Y-77468400D02*
X149791800Y-77988500D01*
%TO.N,RC3-*%
X154133000Y-77988500D02*
X152680500Y-79441000D01*
X154133000Y-77468400D02*
X154133000Y-77988500D01*
%TO.N,RC2-*%
X158451000Y-77468400D02*
X158451000Y-77988500D01*
X158451000Y-77988500D02*
X156998500Y-79441000D01*
%TO.N,RC1-*%
X162777300Y-77468400D02*
X162777300Y-77988500D01*
X162777300Y-77988500D02*
X161324800Y-79441000D01*
%TD*%
%TA.AperFunction,Conductor*%
%TO.N,GNDPWR*%
G36*
X162273914Y-42274484D02*
G01*
X162454237Y-42292245D01*
X162473573Y-42296092D01*
X162628683Y-42343143D01*
X162642199Y-42347243D01*
X162660419Y-42354790D01*
X162815831Y-42437859D01*
X162832225Y-42448813D01*
X162968450Y-42560609D01*
X162982391Y-42574550D01*
X163094187Y-42710775D01*
X163105141Y-42727169D01*
X163188210Y-42882581D01*
X163195757Y-42900801D01*
X163246908Y-43069425D01*
X163250756Y-43088766D01*
X163268516Y-43269086D01*
X163269000Y-43278947D01*
X163269000Y-47123700D01*
X163249787Y-47182831D01*
X163210401Y-47215113D01*
X163142956Y-47246101D01*
X163142950Y-47246104D01*
X163141000Y-47247000D01*
X163139122Y-47248066D01*
X162956875Y-47351503D01*
X162956861Y-47351512D01*
X162956000Y-47352000D01*
X162955166Y-47352518D01*
X162955157Y-47352523D01*
X162812385Y-47441140D01*
X162812377Y-47441145D01*
X162811000Y-47442000D01*
X162809677Y-47442945D01*
X162740621Y-47492271D01*
X162671000Y-47542000D01*
X162586000Y-47612000D01*
X162441000Y-47737000D01*
X162301000Y-47872000D01*
X162186000Y-47997000D01*
X162041000Y-48177000D01*
X162039817Y-48178752D01*
X162039813Y-48178758D01*
X161936148Y-48332337D01*
X161906000Y-48377000D01*
X161905163Y-48378435D01*
X161839694Y-48490668D01*
X161836000Y-48497000D01*
X161761000Y-48632000D01*
X161676000Y-48812000D01*
X161606000Y-48992000D01*
X161605807Y-48992530D01*
X161605802Y-48992544D01*
X161591127Y-49032900D01*
X161566000Y-49102000D01*
X161565583Y-49103390D01*
X161565581Y-49103396D01*
X161545321Y-49170931D01*
X161536000Y-49202000D01*
X161506000Y-49312000D01*
X161466000Y-49502000D01*
X161451000Y-49607000D01*
X161450944Y-49607465D01*
X161450941Y-49607485D01*
X161431087Y-49771278D01*
X161431084Y-49771311D01*
X161431000Y-49772000D01*
X161421000Y-49882000D01*
X161416000Y-50057000D01*
X161416000Y-50157000D01*
X161426000Y-50312000D01*
X161436000Y-50442000D01*
X161461000Y-50612000D01*
X161491000Y-50752000D01*
X161516000Y-50867000D01*
X161546000Y-50977000D01*
X161546336Y-50978045D01*
X161546343Y-50978069D01*
X161568051Y-51045604D01*
X161591000Y-51117000D01*
X161631000Y-51227000D01*
X161631750Y-51228673D01*
X161631752Y-51228678D01*
X161696000Y-51372000D01*
X161721711Y-51429135D01*
X161741000Y-51472000D01*
X161796000Y-51577000D01*
X161846000Y-51667000D01*
X161886000Y-51732000D01*
X161910304Y-51771770D01*
X161940480Y-51821150D01*
X161940493Y-51821170D01*
X161941000Y-51822000D01*
X161991000Y-51897000D01*
X162031000Y-51952000D01*
X162081000Y-52017000D01*
X162141000Y-52092000D01*
X162221000Y-52187000D01*
X162221971Y-52188028D01*
X162221978Y-52188036D01*
X162305491Y-52276462D01*
X162305522Y-52276493D01*
X162306000Y-52277000D01*
X162411000Y-52382000D01*
X162481000Y-52447000D01*
X162581000Y-52532000D01*
X162581713Y-52532563D01*
X162581718Y-52532567D01*
X162674602Y-52605896D01*
X162676000Y-52607000D01*
X162676980Y-52607700D01*
X162676992Y-52607709D01*
X162745620Y-52656729D01*
X162745645Y-52656747D01*
X162746000Y-52657000D01*
X162841000Y-52722000D01*
X162936000Y-52782000D01*
X162936647Y-52782381D01*
X162936669Y-52782394D01*
X163020454Y-52831679D01*
X163021000Y-52832000D01*
X163021524Y-52832291D01*
X163021564Y-52832314D01*
X163087929Y-52869183D01*
X163111000Y-52882000D01*
X163191000Y-52922000D01*
X163191319Y-52922154D01*
X163191387Y-52922187D01*
X163212041Y-52932131D01*
X163256984Y-52975093D01*
X163269000Y-53022772D01*
X163269000Y-67768629D01*
X163249787Y-67827760D01*
X163199487Y-67864305D01*
X163137313Y-67864305D01*
X163127990Y-67860444D01*
X163125276Y-67859562D01*
X163118222Y-67855968D01*
X163110403Y-67854730D01*
X163110401Y-67854729D01*
X163063912Y-67847366D01*
X163019298Y-67840300D01*
X162515302Y-67840300D01*
X162470688Y-67847366D01*
X162424199Y-67854729D01*
X162424197Y-67854730D01*
X162416378Y-67855968D01*
X162297145Y-67916720D01*
X162202520Y-68011345D01*
X162141768Y-68130578D01*
X162140530Y-68138395D01*
X162140529Y-68138399D01*
X162138027Y-68154198D01*
X162126100Y-68229502D01*
X162126100Y-68808498D01*
X162141768Y-68907422D01*
X162202520Y-69026655D01*
X162229335Y-69053470D01*
X162257561Y-69108868D01*
X162258800Y-69124605D01*
X162258800Y-70173135D01*
X162247835Y-70218806D01*
X162196073Y-70320395D01*
X162181100Y-70414930D01*
X162181100Y-71028470D01*
X162181720Y-71032383D01*
X162194834Y-71115180D01*
X162196073Y-71123005D01*
X162254129Y-71236947D01*
X162344553Y-71327371D01*
X162458495Y-71385427D01*
X162466314Y-71386665D01*
X162466316Y-71386666D01*
X162510059Y-71393594D01*
X162553030Y-71400400D01*
X163016570Y-71400400D01*
X163059541Y-71393594D01*
X163103284Y-71386666D01*
X163103286Y-71386665D01*
X163111105Y-71385427D01*
X163122728Y-71379505D01*
X163184135Y-71369777D01*
X163239534Y-71398003D01*
X163267761Y-71453400D01*
X163269000Y-71469139D01*
X163269000Y-72574202D01*
X163249787Y-72633333D01*
X163199487Y-72669878D01*
X163137313Y-72669878D01*
X163097265Y-72645337D01*
X161725053Y-71273126D01*
X161696827Y-71217728D01*
X161706552Y-71156320D01*
X161719932Y-71130060D01*
X161723527Y-71123005D01*
X161738500Y-71028470D01*
X161738500Y-70767857D01*
X161739361Y-70754726D01*
X161742848Y-70728240D01*
X161743709Y-70721700D01*
X161739361Y-70688674D01*
X161738500Y-70675543D01*
X161738500Y-70414930D01*
X161723527Y-70320395D01*
X161665471Y-70206453D01*
X161575047Y-70116029D01*
X161461105Y-70057973D01*
X161453286Y-70056735D01*
X161453284Y-70056734D01*
X161397854Y-70047955D01*
X161366570Y-70043000D01*
X160903030Y-70043000D01*
X160817537Y-70056541D01*
X160756129Y-70046815D01*
X160712165Y-70002852D01*
X160701200Y-69957180D01*
X160701200Y-69770897D01*
X160720413Y-69711766D01*
X160730665Y-69699762D01*
X161203262Y-69227165D01*
X161258660Y-69198939D01*
X161274397Y-69197700D01*
X161444298Y-69197700D01*
X161494347Y-69189773D01*
X161535401Y-69183271D01*
X161535403Y-69183270D01*
X161543222Y-69182032D01*
X161662455Y-69121280D01*
X161757080Y-69026655D01*
X161817832Y-68907422D01*
X161833500Y-68808498D01*
X161833500Y-68229502D01*
X161821573Y-68154198D01*
X161819071Y-68138399D01*
X161819070Y-68138395D01*
X161817832Y-68130578D01*
X161757080Y-68011345D01*
X161662455Y-67916720D01*
X161654128Y-67912477D01*
X161653120Y-67911469D01*
X161648996Y-67908473D01*
X161649471Y-67907820D01*
X161610166Y-67868517D01*
X161599200Y-67822843D01*
X161599200Y-65401276D01*
X161599199Y-65401270D01*
X161599199Y-65368853D01*
X161591626Y-65345543D01*
X161587943Y-65330200D01*
X161585348Y-65313814D01*
X161585347Y-65313812D01*
X161584109Y-65305994D01*
X161572985Y-65284162D01*
X161566943Y-65269576D01*
X161561816Y-65253797D01*
X161559370Y-65246268D01*
X161544959Y-65226433D01*
X161536716Y-65212981D01*
X161529186Y-65198202D01*
X161529185Y-65198201D01*
X161525592Y-65191149D01*
X161502669Y-65168226D01*
X161502666Y-65168222D01*
X156100204Y-59765761D01*
X156071978Y-59710363D01*
X156075882Y-59662872D01*
X156091347Y-59616382D01*
X156091347Y-59616380D01*
X156092900Y-59611713D01*
X156116341Y-59426158D01*
X156116715Y-59399400D01*
X156098464Y-59213262D01*
X156097042Y-59208552D01*
X156097041Y-59208547D01*
X156045830Y-59038930D01*
X156045828Y-59038926D01*
X156044406Y-59034215D01*
X155956601Y-58869077D01*
X155838392Y-58724138D01*
X155831561Y-58718487D01*
X155698071Y-58608054D01*
X155698066Y-58608051D01*
X155694283Y-58604921D01*
X155529762Y-58515965D01*
X155525064Y-58514511D01*
X155525060Y-58514509D01*
X155355793Y-58462112D01*
X155351096Y-58460658D01*
X155165090Y-58441108D01*
X155160189Y-58441554D01*
X155160186Y-58441554D01*
X154983729Y-58457613D01*
X154983727Y-58457613D01*
X154978830Y-58458059D01*
X154799409Y-58510866D01*
X154633662Y-58597516D01*
X154487902Y-58714710D01*
X154484736Y-58718483D01*
X154484732Y-58718487D01*
X154370846Y-58854212D01*
X154367681Y-58857984D01*
X154365312Y-58862292D01*
X154365310Y-58862296D01*
X154359194Y-58873422D01*
X154277579Y-59021880D01*
X154221026Y-59200155D01*
X154220478Y-59205042D01*
X154220477Y-59205046D01*
X154219006Y-59218161D01*
X154200178Y-59386020D01*
X154215829Y-59572394D01*
X154241773Y-59662872D01*
X154255391Y-59710363D01*
X154267381Y-59752179D01*
X154286398Y-59789182D01*
X154352872Y-59918527D01*
X154351748Y-59919105D01*
X154366199Y-59973773D01*
X154343722Y-60031742D01*
X154291464Y-60065429D01*
X154229386Y-60061965D01*
X154194620Y-60039304D01*
X153604577Y-59449262D01*
X153575592Y-59387944D01*
X153558944Y-59218161D01*
X153558464Y-59213262D01*
X153557042Y-59208552D01*
X153557041Y-59208547D01*
X153505830Y-59038930D01*
X153505828Y-59038926D01*
X153504406Y-59034215D01*
X153416601Y-58869077D01*
X153298392Y-58724138D01*
X153291561Y-58718487D01*
X153158071Y-58608054D01*
X153158066Y-58608051D01*
X153154283Y-58604921D01*
X152989762Y-58515965D01*
X152985064Y-58514511D01*
X152985060Y-58514509D01*
X152815793Y-58462112D01*
X152811096Y-58460658D01*
X152625090Y-58441108D01*
X152620189Y-58441554D01*
X152620186Y-58441554D01*
X152443729Y-58457613D01*
X152443727Y-58457613D01*
X152438830Y-58458059D01*
X152259409Y-58510866D01*
X152093662Y-58597516D01*
X151947902Y-58714710D01*
X151944736Y-58718483D01*
X151944732Y-58718487D01*
X151830846Y-58854212D01*
X151827681Y-58857984D01*
X151825312Y-58862292D01*
X151825310Y-58862296D01*
X151819194Y-58873422D01*
X151737579Y-59021880D01*
X151681026Y-59200155D01*
X151680478Y-59205042D01*
X151680477Y-59205046D01*
X151679006Y-59218161D01*
X151660178Y-59386020D01*
X151675829Y-59572394D01*
X151701773Y-59662872D01*
X151715391Y-59710363D01*
X151727381Y-59752179D01*
X151746398Y-59789182D01*
X151812872Y-59918527D01*
X151811751Y-59919103D01*
X151826198Y-59973787D01*
X151803714Y-60031753D01*
X151751452Y-60065433D01*
X151689374Y-60061961D01*
X151654620Y-60039305D01*
X151064577Y-59449262D01*
X151035592Y-59387944D01*
X151018944Y-59218161D01*
X151018464Y-59213262D01*
X151017042Y-59208552D01*
X151017041Y-59208547D01*
X150965830Y-59038930D01*
X150965828Y-59038926D01*
X150964406Y-59034215D01*
X150876601Y-58869077D01*
X150758392Y-58724138D01*
X150751561Y-58718487D01*
X150618071Y-58608054D01*
X150618066Y-58608051D01*
X150614283Y-58604921D01*
X150449762Y-58515965D01*
X150445064Y-58514511D01*
X150445060Y-58514509D01*
X150275793Y-58462112D01*
X150271096Y-58460658D01*
X150085090Y-58441108D01*
X150080189Y-58441554D01*
X150080186Y-58441554D01*
X149903729Y-58457613D01*
X149903727Y-58457613D01*
X149898830Y-58458059D01*
X149719409Y-58510866D01*
X149553662Y-58597516D01*
X149407902Y-58714710D01*
X149404736Y-58718483D01*
X149404732Y-58718487D01*
X149290846Y-58854212D01*
X149287681Y-58857984D01*
X149285312Y-58862292D01*
X149285310Y-58862296D01*
X149279194Y-58873422D01*
X149197579Y-59021880D01*
X149141026Y-59200155D01*
X149140478Y-59205042D01*
X149140477Y-59205046D01*
X149139006Y-59218161D01*
X149120178Y-59386020D01*
X149135829Y-59572394D01*
X149161773Y-59662872D01*
X149175391Y-59710363D01*
X149187381Y-59752179D01*
X149272872Y-59918527D01*
X149389046Y-60065102D01*
X149531477Y-60186320D01*
X149694740Y-60277564D01*
X149699421Y-60279085D01*
X149867937Y-60333840D01*
X149867940Y-60333841D01*
X149872616Y-60335360D01*
X149877498Y-60335942D01*
X149877502Y-60335943D01*
X150053441Y-60356922D01*
X150053442Y-60356922D01*
X150058331Y-60357505D01*
X150244810Y-60343156D01*
X150249550Y-60341832D01*
X150249553Y-60341832D01*
X150420208Y-60294184D01*
X150424950Y-60292860D01*
X150580754Y-60214158D01*
X150642195Y-60204646D01*
X150697246Y-60232817D01*
X151286135Y-60821706D01*
X151314361Y-60877104D01*
X151304635Y-60938512D01*
X151260671Y-60982476D01*
X151224118Y-60993027D01*
X151173729Y-60997613D01*
X151173727Y-60997613D01*
X151168830Y-60998059D01*
X150989409Y-61050866D01*
X150823662Y-61137516D01*
X150677902Y-61254710D01*
X150674736Y-61258483D01*
X150674732Y-61258487D01*
X150562592Y-61392131D01*
X150557681Y-61397984D01*
X150555312Y-61402292D01*
X150555310Y-61402296D01*
X150542785Y-61425079D01*
X150467579Y-61561880D01*
X150411026Y-61740155D01*
X150410478Y-61745042D01*
X150410477Y-61745046D01*
X150400754Y-61831729D01*
X150390178Y-61926020D01*
X150405829Y-62112394D01*
X150457381Y-62292179D01*
X150542872Y-62458527D01*
X150659046Y-62605102D01*
X150801477Y-62726320D01*
X150964740Y-62817564D01*
X150969421Y-62819085D01*
X151137937Y-62873840D01*
X151137940Y-62873841D01*
X151142616Y-62875360D01*
X151147498Y-62875942D01*
X151147502Y-62875943D01*
X151323441Y-62896922D01*
X151323442Y-62896922D01*
X151328331Y-62897505D01*
X151467002Y-62886835D01*
X151509898Y-62883534D01*
X151514810Y-62883156D01*
X151519550Y-62881832D01*
X151519553Y-62881832D01*
X151690208Y-62834184D01*
X151694950Y-62832860D01*
X151861891Y-62748532D01*
X151921137Y-62702244D01*
X151978565Y-62657377D01*
X152036989Y-62636112D01*
X152096755Y-62653250D01*
X152135033Y-62702244D01*
X152141100Y-62736651D01*
X152141100Y-67822843D01*
X152121887Y-67881974D01*
X152091134Y-67908239D01*
X152091304Y-67908473D01*
X152088335Y-67910630D01*
X152086173Y-67912477D01*
X152077845Y-67916720D01*
X151983220Y-68011345D01*
X151922468Y-68130578D01*
X151921230Y-68138395D01*
X151921229Y-68138399D01*
X151918727Y-68154198D01*
X151906800Y-68229502D01*
X151906800Y-68399403D01*
X151887587Y-68458534D01*
X151877335Y-68470538D01*
X151274388Y-69073485D01*
X151264247Y-69081588D01*
X151264262Y-69081606D01*
X151258804Y-69086251D01*
X151252742Y-69090076D01*
X151227432Y-69118734D01*
X151216593Y-69131007D01*
X151212325Y-69135548D01*
X151200318Y-69147555D01*
X151193426Y-69156751D01*
X151188344Y-69162992D01*
X151156322Y-69199251D01*
X151153275Y-69205742D01*
X151151895Y-69208680D01*
X151141336Y-69226254D01*
X151135084Y-69234595D01*
X151132568Y-69241305D01*
X151132568Y-69241306D01*
X151118102Y-69279894D01*
X151114974Y-69287318D01*
X151094419Y-69331100D01*
X151092888Y-69340935D01*
X151092817Y-69341390D01*
X151087615Y-69361217D01*
X151086472Y-69364268D01*
X151086471Y-69364272D01*
X151083955Y-69370984D01*
X151083204Y-69381095D01*
X151080372Y-69419205D01*
X151079451Y-69427230D01*
X151078163Y-69435500D01*
X151077200Y-69441686D01*
X151077200Y-69458160D01*
X151076923Y-69465614D01*
X151073161Y-69516241D01*
X151074657Y-69523249D01*
X151074657Y-69523251D01*
X151074983Y-69524780D01*
X151077200Y-69545782D01*
X151077200Y-73367902D01*
X151057987Y-73427033D01*
X151007687Y-73463578D01*
X150945513Y-73463578D01*
X150905465Y-73439037D01*
X148739553Y-71273126D01*
X148711327Y-71217728D01*
X148721052Y-71156320D01*
X148734432Y-71130060D01*
X148738027Y-71123005D01*
X148753000Y-71028470D01*
X148753000Y-70767857D01*
X148753861Y-70754726D01*
X148757348Y-70728240D01*
X148758209Y-70721700D01*
X148753861Y-70688674D01*
X148753000Y-70675543D01*
X148753000Y-70414930D01*
X148738027Y-70320395D01*
X148679971Y-70206453D01*
X148589547Y-70116029D01*
X148475605Y-70057973D01*
X148467786Y-70056735D01*
X148467784Y-70056734D01*
X148412354Y-70047955D01*
X148381070Y-70043000D01*
X147917530Y-70043000D01*
X147886246Y-70047955D01*
X147869337Y-70050633D01*
X147807929Y-70040907D01*
X147763965Y-69996943D01*
X147753000Y-69951272D01*
X147753000Y-69733597D01*
X147772213Y-69674466D01*
X147782465Y-69662462D01*
X148217763Y-69227165D01*
X148273161Y-69198939D01*
X148288898Y-69197700D01*
X148458798Y-69197700D01*
X148508847Y-69189773D01*
X148549901Y-69183271D01*
X148549903Y-69183270D01*
X148557722Y-69182032D01*
X148676955Y-69121280D01*
X148771580Y-69026655D01*
X148832332Y-68907422D01*
X148848000Y-68808498D01*
X149140600Y-68808498D01*
X149156268Y-68907422D01*
X149217020Y-69026655D01*
X149243835Y-69053470D01*
X149272061Y-69108868D01*
X149273300Y-69124605D01*
X149273300Y-70173135D01*
X149262335Y-70218806D01*
X149210573Y-70320395D01*
X149195600Y-70414930D01*
X149195600Y-71028470D01*
X149196220Y-71032383D01*
X149209334Y-71115180D01*
X149210573Y-71123005D01*
X149268629Y-71236947D01*
X149359053Y-71327371D01*
X149472995Y-71385427D01*
X149480814Y-71386665D01*
X149480816Y-71386666D01*
X149524559Y-71393594D01*
X149567530Y-71400400D01*
X150031070Y-71400400D01*
X150074041Y-71393594D01*
X150117784Y-71386666D01*
X150117786Y-71386665D01*
X150125605Y-71385427D01*
X150239547Y-71327371D01*
X150329971Y-71236947D01*
X150388027Y-71123005D01*
X150389267Y-71115180D01*
X150402380Y-71032383D01*
X150403000Y-71028470D01*
X150403000Y-70414930D01*
X150388027Y-70320395D01*
X150329971Y-70206453D01*
X150319765Y-70196247D01*
X150291539Y-70140849D01*
X150290300Y-70125112D01*
X150290300Y-69124605D01*
X150309513Y-69065474D01*
X150319765Y-69053470D01*
X150346580Y-69026655D01*
X150407332Y-68907422D01*
X150423000Y-68808498D01*
X150423000Y-68229502D01*
X150411073Y-68154198D01*
X150408571Y-68138399D01*
X150408570Y-68138395D01*
X150407332Y-68130578D01*
X150346580Y-68011345D01*
X150251955Y-67916720D01*
X150132722Y-67855968D01*
X150124903Y-67854730D01*
X150124901Y-67854729D01*
X150078412Y-67847366D01*
X150033798Y-67840300D01*
X149529802Y-67840300D01*
X149485188Y-67847366D01*
X149438699Y-67854729D01*
X149438697Y-67854730D01*
X149430878Y-67855968D01*
X149311645Y-67916720D01*
X149217020Y-68011345D01*
X149156268Y-68130578D01*
X149155030Y-68138395D01*
X149155029Y-68138399D01*
X149152527Y-68154198D01*
X149140600Y-68229502D01*
X149140600Y-68808498D01*
X148848000Y-68808498D01*
X148848000Y-68229502D01*
X148836073Y-68154198D01*
X148833571Y-68138399D01*
X148833570Y-68138395D01*
X148832332Y-68130578D01*
X148771580Y-68011345D01*
X148676955Y-67916720D01*
X148557722Y-67855968D01*
X148549903Y-67854730D01*
X148549901Y-67854729D01*
X148503412Y-67847366D01*
X148458798Y-67840300D01*
X148145213Y-67840300D01*
X148086082Y-67821087D01*
X148074078Y-67810835D01*
X147974765Y-67711522D01*
X147946539Y-67656124D01*
X147945300Y-67640387D01*
X147945300Y-62673485D01*
X147964513Y-62614354D01*
X148014813Y-62577809D01*
X148076987Y-62577809D01*
X148117458Y-62603098D01*
X148119046Y-62605102D01*
X148122793Y-62608291D01*
X148122797Y-62608295D01*
X148175620Y-62653250D01*
X148261477Y-62726320D01*
X148424740Y-62817564D01*
X148429421Y-62819085D01*
X148597937Y-62873840D01*
X148597940Y-62873841D01*
X148602616Y-62875360D01*
X148607498Y-62875942D01*
X148607502Y-62875943D01*
X148783441Y-62896922D01*
X148783442Y-62896922D01*
X148788331Y-62897505D01*
X148927002Y-62886835D01*
X148969898Y-62883534D01*
X148974810Y-62883156D01*
X148979550Y-62881832D01*
X148979553Y-62881832D01*
X149150208Y-62834184D01*
X149154950Y-62832860D01*
X149321891Y-62748532D01*
X149469273Y-62633385D01*
X149494746Y-62603874D01*
X149588267Y-62495529D01*
X149588268Y-62495527D01*
X149591482Y-62491804D01*
X149612872Y-62454151D01*
X149681433Y-62333462D01*
X149681434Y-62333459D01*
X149683864Y-62329182D01*
X149742900Y-62151713D01*
X149743516Y-62146836D01*
X149743517Y-62146832D01*
X149761646Y-62003322D01*
X149766341Y-61966158D01*
X149766634Y-61945221D01*
X149766676Y-61942213D01*
X149766676Y-61942207D01*
X149766715Y-61939400D01*
X149748464Y-61753262D01*
X149747042Y-61748552D01*
X149747041Y-61748547D01*
X149695830Y-61578930D01*
X149695828Y-61578926D01*
X149694406Y-61574215D01*
X149606601Y-61409077D01*
X149488392Y-61264138D01*
X149481561Y-61258487D01*
X149348071Y-61148054D01*
X149348066Y-61148051D01*
X149344283Y-61144921D01*
X149179762Y-61055965D01*
X149175064Y-61054511D01*
X149175060Y-61054509D01*
X149005793Y-61002112D01*
X149001096Y-61000658D01*
X148815090Y-60981108D01*
X148810189Y-60981554D01*
X148810186Y-60981554D01*
X148633729Y-60997613D01*
X148633727Y-60997613D01*
X148628830Y-60998059D01*
X148449409Y-61050866D01*
X148283662Y-61137516D01*
X148137902Y-61254710D01*
X148134733Y-61258487D01*
X148134731Y-61258489D01*
X148122963Y-61272513D01*
X148070236Y-61305460D01*
X148008214Y-61301122D01*
X147960586Y-61261157D01*
X147945300Y-61207848D01*
X147945300Y-60324264D01*
X147964513Y-60265133D01*
X148000542Y-60234470D01*
X148051891Y-60208532D01*
X148199273Y-60093385D01*
X148220932Y-60068293D01*
X148318267Y-59955529D01*
X148318268Y-59955527D01*
X148321482Y-59951804D01*
X148413864Y-59789182D01*
X148472900Y-59611713D01*
X148496341Y-59426158D01*
X148496715Y-59399400D01*
X148478464Y-59213262D01*
X148477042Y-59208552D01*
X148477041Y-59208547D01*
X148425830Y-59038930D01*
X148425828Y-59038926D01*
X148424406Y-59034215D01*
X148336601Y-58869077D01*
X148218392Y-58724138D01*
X148211561Y-58718487D01*
X148078071Y-58608054D01*
X148078066Y-58608051D01*
X148074283Y-58604921D01*
X147909762Y-58515965D01*
X147905064Y-58514511D01*
X147905060Y-58514509D01*
X147735793Y-58462112D01*
X147731096Y-58460658D01*
X147545090Y-58441108D01*
X147540189Y-58441554D01*
X147540186Y-58441554D01*
X147363729Y-58457613D01*
X147363727Y-58457613D01*
X147358830Y-58458059D01*
X147179409Y-58510866D01*
X147013662Y-58597516D01*
X146867902Y-58714710D01*
X146864736Y-58718483D01*
X146864732Y-58718487D01*
X146750846Y-58854212D01*
X146747681Y-58857984D01*
X146745312Y-58862292D01*
X146745310Y-58862296D01*
X146739194Y-58873422D01*
X146657579Y-59021880D01*
X146601026Y-59200155D01*
X146600478Y-59205042D01*
X146600477Y-59205046D01*
X146599006Y-59218161D01*
X146580178Y-59386020D01*
X146595829Y-59572394D01*
X146621773Y-59662872D01*
X146635391Y-59710363D01*
X146647381Y-59752179D01*
X146732872Y-59918527D01*
X146849046Y-60065102D01*
X146991477Y-60186320D01*
X147041581Y-60214322D01*
X147079979Y-60235782D01*
X147122222Y-60281401D01*
X147131500Y-60323598D01*
X147131500Y-61206132D01*
X147112287Y-61265263D01*
X147061987Y-61301808D01*
X146999813Y-61301808D01*
X146955170Y-61271242D01*
X146954969Y-61271442D01*
X146953921Y-61270387D01*
X146952943Y-61269717D01*
X146951504Y-61267953D01*
X146951499Y-61267948D01*
X146948392Y-61264138D01*
X146941561Y-61258487D01*
X146808071Y-61148054D01*
X146808066Y-61148051D01*
X146804283Y-61144921D01*
X146639762Y-61055965D01*
X146635064Y-61054511D01*
X146635060Y-61054509D01*
X146465793Y-61002112D01*
X146461096Y-61000658D01*
X146275090Y-60981108D01*
X146270189Y-60981554D01*
X146270186Y-60981554D01*
X146093729Y-60997613D01*
X146093727Y-60997613D01*
X146088830Y-60998059D01*
X145909409Y-61050866D01*
X145743662Y-61137516D01*
X145597902Y-61254710D01*
X145594736Y-61258483D01*
X145594732Y-61258487D01*
X145482592Y-61392131D01*
X145477681Y-61397984D01*
X145475312Y-61402292D01*
X145475310Y-61402296D01*
X145462785Y-61425079D01*
X145387579Y-61561880D01*
X145331026Y-61740155D01*
X145330478Y-61745042D01*
X145330477Y-61745046D01*
X145320754Y-61831729D01*
X145310178Y-61926020D01*
X145325829Y-62112394D01*
X145377381Y-62292179D01*
X145462872Y-62458527D01*
X145579046Y-62605102D01*
X145721477Y-62726320D01*
X145884740Y-62817564D01*
X145889421Y-62819085D01*
X146057937Y-62873840D01*
X146057940Y-62873841D01*
X146062616Y-62875360D01*
X146067498Y-62875942D01*
X146067502Y-62875943D01*
X146243441Y-62896922D01*
X146243442Y-62896922D01*
X146248331Y-62897505D01*
X146387002Y-62886835D01*
X146429898Y-62883534D01*
X146434810Y-62883156D01*
X146439550Y-62881832D01*
X146439553Y-62881832D01*
X146610208Y-62834184D01*
X146614950Y-62832860D01*
X146781891Y-62748532D01*
X146929273Y-62633385D01*
X146954746Y-62603874D01*
X147007927Y-62571666D01*
X147069884Y-62576868D01*
X147116949Y-62617494D01*
X147131500Y-62669608D01*
X147131500Y-67915046D01*
X147139073Y-67938352D01*
X147142757Y-67953698D01*
X147146591Y-67977906D01*
X147150184Y-67984957D01*
X147150184Y-67984958D01*
X147157716Y-67999740D01*
X147163755Y-68014318D01*
X147171330Y-68037632D01*
X147175986Y-68044040D01*
X147185735Y-68057458D01*
X147193981Y-68070913D01*
X147205108Y-68092751D01*
X147488380Y-68376023D01*
X147516606Y-68431421D01*
X147506880Y-68492829D01*
X147488380Y-68518293D01*
X146933188Y-69073485D01*
X146923047Y-69081588D01*
X146923062Y-69081606D01*
X146917604Y-69086251D01*
X146911542Y-69090076D01*
X146886232Y-69118734D01*
X146875393Y-69131007D01*
X146871125Y-69135548D01*
X146859118Y-69147555D01*
X146852226Y-69156751D01*
X146847144Y-69162992D01*
X146815122Y-69199251D01*
X146812075Y-69205742D01*
X146810695Y-69208680D01*
X146800136Y-69226254D01*
X146793884Y-69234595D01*
X146791368Y-69241305D01*
X146791368Y-69241306D01*
X146776902Y-69279894D01*
X146773774Y-69287318D01*
X146753219Y-69331100D01*
X146751688Y-69340935D01*
X146751617Y-69341390D01*
X146746415Y-69361217D01*
X146745272Y-69364268D01*
X146745271Y-69364272D01*
X146742755Y-69370984D01*
X146742004Y-69381095D01*
X146739172Y-69419205D01*
X146738251Y-69427230D01*
X146736963Y-69435500D01*
X146736000Y-69441686D01*
X146736000Y-69458160D01*
X146735723Y-69465614D01*
X146731961Y-69516241D01*
X146733457Y-69523249D01*
X146733457Y-69523251D01*
X146733783Y-69524780D01*
X146736000Y-69545782D01*
X146736000Y-73448502D01*
X146716787Y-73507633D01*
X146666487Y-73544178D01*
X146604313Y-73544178D01*
X146564265Y-73519637D01*
X145441250Y-72396622D01*
X144317753Y-71273126D01*
X144289527Y-71217728D01*
X144299252Y-71156320D01*
X144312632Y-71130060D01*
X144316227Y-71123005D01*
X144331200Y-71028470D01*
X144773800Y-71028470D01*
X144774420Y-71032383D01*
X144787534Y-71115180D01*
X144788773Y-71123005D01*
X144846829Y-71236947D01*
X144937253Y-71327371D01*
X145051195Y-71385427D01*
X145059014Y-71386665D01*
X145059016Y-71386666D01*
X145102759Y-71393594D01*
X145145730Y-71400400D01*
X145609270Y-71400400D01*
X145652241Y-71393594D01*
X145695984Y-71386666D01*
X145695986Y-71386665D01*
X145703805Y-71385427D01*
X145817747Y-71327371D01*
X145908171Y-71236947D01*
X145966227Y-71123005D01*
X145967467Y-71115180D01*
X145980580Y-71032383D01*
X145981200Y-71028470D01*
X145981200Y-70741738D01*
X145982592Y-70728924D01*
X145982745Y-70728516D01*
X145983252Y-70721700D01*
X145986328Y-70680295D01*
X145987249Y-70672270D01*
X145988902Y-70661655D01*
X145988902Y-70661653D01*
X145989500Y-70657814D01*
X145989500Y-70641340D01*
X145989777Y-70633885D01*
X145993008Y-70590408D01*
X145993008Y-70590406D01*
X145993539Y-70583259D01*
X145991717Y-70574723D01*
X145989500Y-70553722D01*
X145989500Y-69150105D01*
X146008713Y-69090974D01*
X146018965Y-69078970D01*
X146071280Y-69026655D01*
X146132032Y-68907422D01*
X146147700Y-68808498D01*
X146147700Y-68229502D01*
X146135773Y-68154198D01*
X146133271Y-68138399D01*
X146133270Y-68138395D01*
X146132032Y-68130578D01*
X146071280Y-68011345D01*
X145976655Y-67916720D01*
X145857422Y-67855968D01*
X145849603Y-67854730D01*
X145849601Y-67854729D01*
X145803112Y-67847366D01*
X145758498Y-67840300D01*
X145254502Y-67840300D01*
X145209888Y-67847366D01*
X145163399Y-67854729D01*
X145163397Y-67854730D01*
X145155578Y-67855968D01*
X145036345Y-67916720D01*
X144941720Y-68011345D01*
X144880968Y-68130578D01*
X144879730Y-68138395D01*
X144879729Y-68138399D01*
X144877227Y-68154198D01*
X144865300Y-68229502D01*
X144865300Y-68808498D01*
X144880968Y-68907422D01*
X144941720Y-69026655D01*
X144947319Y-69032254D01*
X144951973Y-69038660D01*
X144949425Y-69040511D01*
X144971261Y-69083368D01*
X144972500Y-69099105D01*
X144972500Y-70040693D01*
X144953287Y-70099824D01*
X144937168Y-70115944D01*
X144937253Y-70116029D01*
X144846829Y-70206453D01*
X144788773Y-70320395D01*
X144773800Y-70414930D01*
X144773800Y-71028470D01*
X144331200Y-71028470D01*
X144331200Y-70767857D01*
X144332061Y-70754726D01*
X144335548Y-70728240D01*
X144336409Y-70721700D01*
X144332061Y-70688674D01*
X144331200Y-70675543D01*
X144331200Y-70414930D01*
X144316227Y-70320395D01*
X144258171Y-70206453D01*
X144167747Y-70116029D01*
X144053805Y-70057973D01*
X144045986Y-70056735D01*
X144045984Y-70056734D01*
X143990554Y-70047955D01*
X143959270Y-70043000D01*
X143495730Y-70043000D01*
X143464446Y-70047955D01*
X143447537Y-70050633D01*
X143386129Y-70040907D01*
X143342165Y-69996943D01*
X143331200Y-69951272D01*
X143331200Y-69880097D01*
X143350413Y-69820966D01*
X143360665Y-69808962D01*
X143942462Y-69227165D01*
X143997860Y-69198939D01*
X144013597Y-69197700D01*
X144183498Y-69197700D01*
X144233547Y-69189773D01*
X144274601Y-69183271D01*
X144274603Y-69183270D01*
X144282422Y-69182032D01*
X144401655Y-69121280D01*
X144496280Y-69026655D01*
X144557032Y-68907422D01*
X144572700Y-68808498D01*
X144572700Y-68229502D01*
X144560773Y-68154198D01*
X144558271Y-68138399D01*
X144558270Y-68138395D01*
X144557032Y-68130578D01*
X144496280Y-68011345D01*
X144401655Y-67916720D01*
X144282422Y-67855968D01*
X144274603Y-67854730D01*
X144274601Y-67854729D01*
X144228112Y-67847366D01*
X144183498Y-67840300D01*
X143869914Y-67840300D01*
X143810783Y-67821087D01*
X143798779Y-67810835D01*
X141624765Y-65636822D01*
X141596539Y-65581424D01*
X141595300Y-65565687D01*
X141595300Y-64466576D01*
X142907934Y-64466576D01*
X142914407Y-64473579D01*
X143040487Y-64550840D01*
X143047499Y-64554413D01*
X143258793Y-64641935D01*
X143266299Y-64644373D01*
X143488672Y-64697760D01*
X143496464Y-64698994D01*
X143724461Y-64716938D01*
X143732339Y-64716938D01*
X143960336Y-64698994D01*
X143968128Y-64697760D01*
X144190501Y-64644373D01*
X144198007Y-64641935D01*
X144409301Y-64554413D01*
X144416313Y-64550840D01*
X144540672Y-64474634D01*
X144549078Y-64464792D01*
X144544417Y-64456469D01*
X143739668Y-63651720D01*
X143727589Y-63645565D01*
X143722477Y-63646375D01*
X142913811Y-64455041D01*
X142907934Y-64466576D01*
X141595300Y-64466576D01*
X141595300Y-63213339D01*
X142220862Y-63213339D01*
X142238806Y-63441336D01*
X142240040Y-63449128D01*
X142293427Y-63671501D01*
X142295865Y-63679007D01*
X142383387Y-63890301D01*
X142386960Y-63897313D01*
X142463166Y-64021672D01*
X142473008Y-64030078D01*
X142481331Y-64025417D01*
X143286080Y-63220668D01*
X143291408Y-63210211D01*
X144164565Y-63210211D01*
X144165375Y-63215323D01*
X144974041Y-64023989D01*
X144985576Y-64029866D01*
X144992579Y-64023393D01*
X145069840Y-63897313D01*
X145073413Y-63890301D01*
X145160935Y-63679007D01*
X145163373Y-63671501D01*
X145216760Y-63449128D01*
X145217994Y-63441336D01*
X145235938Y-63213339D01*
X145235938Y-63205461D01*
X145217994Y-62977464D01*
X145216760Y-62969672D01*
X145163373Y-62747299D01*
X145160935Y-62739793D01*
X145073413Y-62528499D01*
X145069840Y-62521487D01*
X144993634Y-62397128D01*
X144983792Y-62388722D01*
X144975469Y-62393383D01*
X144170720Y-63198132D01*
X144164565Y-63210211D01*
X143291408Y-63210211D01*
X143292235Y-63208589D01*
X143291425Y-63203477D01*
X142482759Y-62394811D01*
X142471224Y-62388934D01*
X142464221Y-62395407D01*
X142386960Y-62521487D01*
X142383387Y-62528499D01*
X142295865Y-62739793D01*
X142293427Y-62747299D01*
X142240040Y-62969672D01*
X142238806Y-62977464D01*
X142220862Y-63205461D01*
X142220862Y-63213339D01*
X141595300Y-63213339D01*
X141595300Y-61954008D01*
X142907722Y-61954008D01*
X142912383Y-61962331D01*
X143717132Y-62767080D01*
X143729211Y-62773235D01*
X143734323Y-62772425D01*
X144542989Y-61963759D01*
X144548866Y-61952224D01*
X144542393Y-61945221D01*
X144416313Y-61867960D01*
X144409301Y-61864387D01*
X144198007Y-61776865D01*
X144190501Y-61774427D01*
X143968128Y-61721040D01*
X143960336Y-61719806D01*
X143732339Y-61701862D01*
X143724461Y-61701862D01*
X143496464Y-61719806D01*
X143488672Y-61721040D01*
X143266299Y-61774427D01*
X143258793Y-61776865D01*
X143047499Y-61864387D01*
X143040487Y-61867960D01*
X142916128Y-61944166D01*
X142907722Y-61954008D01*
X141595300Y-61954008D01*
X141595300Y-60324264D01*
X141614513Y-60265133D01*
X141650542Y-60234470D01*
X141701891Y-60208532D01*
X141849273Y-60093385D01*
X141870932Y-60068293D01*
X141968267Y-59955529D01*
X141968268Y-59955527D01*
X141971482Y-59951804D01*
X142063864Y-59789182D01*
X142122900Y-59611713D01*
X142146341Y-59426158D01*
X142146715Y-59399400D01*
X142128464Y-59213262D01*
X142127042Y-59208552D01*
X142127041Y-59208547D01*
X142075830Y-59038930D01*
X142075828Y-59038926D01*
X142074406Y-59034215D01*
X141986601Y-58869077D01*
X141868392Y-58724138D01*
X141861561Y-58718487D01*
X141728071Y-58608054D01*
X141728066Y-58608051D01*
X141724283Y-58604921D01*
X141559762Y-58515965D01*
X141555064Y-58514511D01*
X141555060Y-58514509D01*
X141385793Y-58462112D01*
X141381096Y-58460658D01*
X141195090Y-58441108D01*
X141190189Y-58441554D01*
X141190186Y-58441554D01*
X141013729Y-58457613D01*
X141013727Y-58457613D01*
X141008830Y-58458059D01*
X140829409Y-58510866D01*
X140663662Y-58597516D01*
X140517902Y-58714710D01*
X140514736Y-58718483D01*
X140514732Y-58718487D01*
X140400846Y-58854212D01*
X140397681Y-58857984D01*
X140395312Y-58862292D01*
X140395310Y-58862296D01*
X140389194Y-58873422D01*
X140307579Y-59021880D01*
X140251026Y-59200155D01*
X140250478Y-59205042D01*
X140250477Y-59205046D01*
X140249006Y-59218161D01*
X140230178Y-59386020D01*
X140245829Y-59572394D01*
X140271773Y-59662872D01*
X140285391Y-59710363D01*
X140297381Y-59752179D01*
X140382872Y-59918527D01*
X140499046Y-60065102D01*
X140641477Y-60186320D01*
X140691581Y-60214322D01*
X140729979Y-60235782D01*
X140772222Y-60281401D01*
X140781500Y-60323598D01*
X140781500Y-61206132D01*
X140762287Y-61265263D01*
X140711987Y-61301808D01*
X140649813Y-61301808D01*
X140605170Y-61271242D01*
X140604969Y-61271442D01*
X140603921Y-61270387D01*
X140602943Y-61269717D01*
X140601504Y-61267953D01*
X140601499Y-61267948D01*
X140598392Y-61264138D01*
X140591561Y-61258487D01*
X140458071Y-61148054D01*
X140458066Y-61148051D01*
X140454283Y-61144921D01*
X140289762Y-61055965D01*
X140285064Y-61054511D01*
X140285060Y-61054509D01*
X140115793Y-61002112D01*
X140111096Y-61000658D01*
X139925090Y-60981108D01*
X139920189Y-60981554D01*
X139920186Y-60981554D01*
X139743729Y-60997613D01*
X139743727Y-60997613D01*
X139738830Y-60998059D01*
X139559409Y-61050866D01*
X139393662Y-61137516D01*
X139247902Y-61254710D01*
X139244733Y-61258487D01*
X139244731Y-61258489D01*
X139232963Y-61272513D01*
X139180236Y-61305460D01*
X139118214Y-61301122D01*
X139070586Y-61261157D01*
X139055300Y-61207848D01*
X139055300Y-60324264D01*
X139074513Y-60265133D01*
X139110542Y-60234470D01*
X139161891Y-60208532D01*
X139309273Y-60093385D01*
X139330932Y-60068293D01*
X139428267Y-59955529D01*
X139428268Y-59955527D01*
X139431482Y-59951804D01*
X139523864Y-59789182D01*
X139582900Y-59611713D01*
X139606341Y-59426158D01*
X139606715Y-59399400D01*
X139588464Y-59213262D01*
X139587042Y-59208552D01*
X139587041Y-59208547D01*
X139535830Y-59038930D01*
X139535828Y-59038926D01*
X139534406Y-59034215D01*
X139446601Y-58869077D01*
X139328392Y-58724138D01*
X139321561Y-58718487D01*
X139188071Y-58608054D01*
X139188066Y-58608051D01*
X139184283Y-58604921D01*
X139019762Y-58515965D01*
X139015064Y-58514511D01*
X139015060Y-58514509D01*
X138845793Y-58462112D01*
X138841096Y-58460658D01*
X138655090Y-58441108D01*
X138650189Y-58441554D01*
X138650186Y-58441554D01*
X138473729Y-58457613D01*
X138473727Y-58457613D01*
X138468830Y-58458059D01*
X138289409Y-58510866D01*
X138123662Y-58597516D01*
X137977902Y-58714710D01*
X137974736Y-58718483D01*
X137974732Y-58718487D01*
X137860846Y-58854212D01*
X137857681Y-58857984D01*
X137855312Y-58862292D01*
X137855310Y-58862296D01*
X137849194Y-58873422D01*
X137767579Y-59021880D01*
X137711026Y-59200155D01*
X137710478Y-59205042D01*
X137710477Y-59205046D01*
X137709006Y-59218161D01*
X137690178Y-59386020D01*
X137705829Y-59572394D01*
X137731773Y-59662872D01*
X137745391Y-59710363D01*
X137757381Y-59752179D01*
X137842872Y-59918527D01*
X137959046Y-60065102D01*
X138101477Y-60186320D01*
X138151581Y-60214322D01*
X138189979Y-60235782D01*
X138232222Y-60281401D01*
X138241500Y-60323598D01*
X138241500Y-61206132D01*
X138222287Y-61265263D01*
X138171987Y-61301808D01*
X138109813Y-61301808D01*
X138065170Y-61271242D01*
X138064969Y-61271442D01*
X138063921Y-61270387D01*
X138062943Y-61269717D01*
X138061504Y-61267953D01*
X138061499Y-61267948D01*
X138058392Y-61264138D01*
X138051561Y-61258487D01*
X137918071Y-61148054D01*
X137918066Y-61148051D01*
X137914283Y-61144921D01*
X137749762Y-61055965D01*
X137745064Y-61054511D01*
X137745060Y-61054509D01*
X137575793Y-61002112D01*
X137571096Y-61000658D01*
X137385090Y-60981108D01*
X137380189Y-60981554D01*
X137380186Y-60981554D01*
X137203729Y-60997613D01*
X137203727Y-60997613D01*
X137198830Y-60998059D01*
X137019409Y-61050866D01*
X136853662Y-61137516D01*
X136707902Y-61254710D01*
X136704733Y-61258487D01*
X136704731Y-61258489D01*
X136692963Y-61272513D01*
X136640236Y-61305460D01*
X136578214Y-61301122D01*
X136530586Y-61261157D01*
X136515300Y-61207848D01*
X136515300Y-60324264D01*
X136534513Y-60265133D01*
X136570542Y-60234470D01*
X136621891Y-60208532D01*
X136769273Y-60093385D01*
X136790932Y-60068293D01*
X136888267Y-59955529D01*
X136888268Y-59955527D01*
X136891482Y-59951804D01*
X136983864Y-59789182D01*
X137042900Y-59611713D01*
X137066341Y-59426158D01*
X137066715Y-59399400D01*
X137048464Y-59213262D01*
X137047042Y-59208552D01*
X137047041Y-59208547D01*
X136995830Y-59038930D01*
X136995828Y-59038926D01*
X136994406Y-59034215D01*
X136906601Y-58869077D01*
X136788392Y-58724138D01*
X136781561Y-58718487D01*
X136648071Y-58608054D01*
X136648066Y-58608051D01*
X136644283Y-58604921D01*
X136479762Y-58515965D01*
X136475064Y-58514511D01*
X136475060Y-58514509D01*
X136305793Y-58462112D01*
X136301096Y-58460658D01*
X136115090Y-58441108D01*
X136110189Y-58441554D01*
X136110186Y-58441554D01*
X135933729Y-58457613D01*
X135933727Y-58457613D01*
X135928830Y-58458059D01*
X135749409Y-58510866D01*
X135583662Y-58597516D01*
X135437902Y-58714710D01*
X135434736Y-58718483D01*
X135434732Y-58718487D01*
X135320846Y-58854212D01*
X135317681Y-58857984D01*
X135315312Y-58862292D01*
X135315310Y-58862296D01*
X135309194Y-58873422D01*
X135227579Y-59021880D01*
X135171026Y-59200155D01*
X135170478Y-59205042D01*
X135170477Y-59205046D01*
X135169006Y-59218161D01*
X135150178Y-59386020D01*
X135165829Y-59572394D01*
X135191773Y-59662872D01*
X135205391Y-59710363D01*
X135217381Y-59752179D01*
X135302872Y-59918527D01*
X135419046Y-60065102D01*
X135561477Y-60186320D01*
X135611581Y-60214322D01*
X135649979Y-60235782D01*
X135692222Y-60281401D01*
X135701500Y-60323598D01*
X135701500Y-61206132D01*
X135682287Y-61265263D01*
X135631987Y-61301808D01*
X135569813Y-61301808D01*
X135525170Y-61271242D01*
X135524969Y-61271442D01*
X135523921Y-61270387D01*
X135522943Y-61269717D01*
X135521504Y-61267953D01*
X135521499Y-61267948D01*
X135518392Y-61264138D01*
X135511561Y-61258487D01*
X135378071Y-61148054D01*
X135378066Y-61148051D01*
X135374283Y-61144921D01*
X135209762Y-61055965D01*
X135205064Y-61054511D01*
X135205060Y-61054509D01*
X135035793Y-61002112D01*
X135031096Y-61000658D01*
X134845090Y-60981108D01*
X134840189Y-60981554D01*
X134840186Y-60981554D01*
X134663729Y-60997613D01*
X134663727Y-60997613D01*
X134658830Y-60998059D01*
X134479409Y-61050866D01*
X134313662Y-61137516D01*
X134167902Y-61254710D01*
X134164733Y-61258487D01*
X134164731Y-61258489D01*
X134152963Y-61272513D01*
X134100236Y-61305460D01*
X134038214Y-61301122D01*
X133990586Y-61261157D01*
X133975300Y-61207848D01*
X133975300Y-60324264D01*
X133994513Y-60265133D01*
X134030542Y-60234470D01*
X134081891Y-60208532D01*
X134229273Y-60093385D01*
X134250932Y-60068293D01*
X134348267Y-59955529D01*
X134348268Y-59955527D01*
X134351482Y-59951804D01*
X134443864Y-59789182D01*
X134502900Y-59611713D01*
X134526341Y-59426158D01*
X134526715Y-59399400D01*
X134508464Y-59213262D01*
X134507042Y-59208552D01*
X134507041Y-59208547D01*
X134455830Y-59038930D01*
X134455828Y-59038926D01*
X134454406Y-59034215D01*
X134366601Y-58869077D01*
X134248392Y-58724138D01*
X134241561Y-58718487D01*
X134108071Y-58608054D01*
X134108066Y-58608051D01*
X134104283Y-58604921D01*
X133939762Y-58515965D01*
X133935064Y-58514511D01*
X133935060Y-58514509D01*
X133765793Y-58462112D01*
X133761096Y-58460658D01*
X133575090Y-58441108D01*
X133570189Y-58441554D01*
X133570186Y-58441554D01*
X133393729Y-58457613D01*
X133393727Y-58457613D01*
X133388830Y-58458059D01*
X133209409Y-58510866D01*
X133043662Y-58597516D01*
X132897902Y-58714710D01*
X132894736Y-58718483D01*
X132894732Y-58718487D01*
X132780846Y-58854212D01*
X132777681Y-58857984D01*
X132775312Y-58862292D01*
X132775310Y-58862296D01*
X132769194Y-58873422D01*
X132687579Y-59021880D01*
X132631026Y-59200155D01*
X132630478Y-59205042D01*
X132630477Y-59205046D01*
X132629006Y-59218161D01*
X132610178Y-59386020D01*
X132625829Y-59572394D01*
X132651773Y-59662872D01*
X132665391Y-59710363D01*
X132677381Y-59752179D01*
X132762872Y-59918527D01*
X132879046Y-60065102D01*
X133021477Y-60186320D01*
X133071581Y-60214322D01*
X133109979Y-60235782D01*
X133152222Y-60281401D01*
X133161500Y-60323598D01*
X133161500Y-61206132D01*
X133142287Y-61265263D01*
X133091987Y-61301808D01*
X133029813Y-61301808D01*
X132985170Y-61271242D01*
X132984969Y-61271442D01*
X132983921Y-61270387D01*
X132982943Y-61269717D01*
X132981504Y-61267953D01*
X132981499Y-61267948D01*
X132978392Y-61264138D01*
X132971561Y-61258487D01*
X132838071Y-61148054D01*
X132838066Y-61148051D01*
X132834283Y-61144921D01*
X132669762Y-61055965D01*
X132665064Y-61054511D01*
X132665060Y-61054509D01*
X132495793Y-61002112D01*
X132491096Y-61000658D01*
X132305090Y-60981108D01*
X132300189Y-60981554D01*
X132300186Y-60981554D01*
X132123729Y-60997613D01*
X132123727Y-60997613D01*
X132118830Y-60998059D01*
X131939409Y-61050866D01*
X131773662Y-61137516D01*
X131627902Y-61254710D01*
X131624736Y-61258483D01*
X131624732Y-61258487D01*
X131512592Y-61392131D01*
X131507681Y-61397984D01*
X131505312Y-61402292D01*
X131505310Y-61402296D01*
X131492785Y-61425079D01*
X131417579Y-61561880D01*
X131361026Y-61740155D01*
X131360478Y-61745042D01*
X131360477Y-61745046D01*
X131350754Y-61831729D01*
X131340178Y-61926020D01*
X131355829Y-62112394D01*
X131407381Y-62292179D01*
X131492872Y-62458527D01*
X131609046Y-62605102D01*
X131751477Y-62726320D01*
X131914740Y-62817564D01*
X131919421Y-62819085D01*
X132087937Y-62873840D01*
X132087940Y-62873841D01*
X132092616Y-62875360D01*
X132097498Y-62875942D01*
X132097502Y-62875943D01*
X132273441Y-62896922D01*
X132273442Y-62896922D01*
X132278331Y-62897505D01*
X132417002Y-62886835D01*
X132459898Y-62883534D01*
X132464810Y-62883156D01*
X132469550Y-62881832D01*
X132469553Y-62881832D01*
X132640208Y-62834184D01*
X132644950Y-62832860D01*
X132811891Y-62748532D01*
X132959273Y-62633385D01*
X132984746Y-62603874D01*
X133037927Y-62571666D01*
X133099884Y-62576868D01*
X133146949Y-62617494D01*
X133161500Y-62669608D01*
X133161500Y-65717887D01*
X133142287Y-65777018D01*
X133132035Y-65789022D01*
X131110222Y-67810835D01*
X131054824Y-67839061D01*
X131039087Y-67840300D01*
X130725502Y-67840300D01*
X130680888Y-67847366D01*
X130634399Y-67854729D01*
X130634397Y-67854730D01*
X130626578Y-67855968D01*
X130507345Y-67916720D01*
X130412720Y-68011345D01*
X130351968Y-68130578D01*
X130350730Y-68138395D01*
X130350729Y-68138399D01*
X130348227Y-68154198D01*
X130336300Y-68229502D01*
X130336300Y-68399403D01*
X130317087Y-68458534D01*
X130306835Y-68470538D01*
X129650288Y-69127085D01*
X129640147Y-69135188D01*
X129640162Y-69135206D01*
X129634704Y-69139851D01*
X129628642Y-69143676D01*
X129604825Y-69170644D01*
X129592493Y-69184607D01*
X129588225Y-69189148D01*
X129576218Y-69201155D01*
X129569326Y-69210351D01*
X129564244Y-69216592D01*
X129532222Y-69252851D01*
X129529175Y-69259342D01*
X129527795Y-69262280D01*
X129517236Y-69279854D01*
X129510984Y-69288195D01*
X129508468Y-69294905D01*
X129508468Y-69294906D01*
X129494002Y-69333494D01*
X129490874Y-69340918D01*
X129470319Y-69384700D01*
X129468717Y-69394990D01*
X129463515Y-69414817D01*
X129462372Y-69417868D01*
X129462371Y-69417872D01*
X129459855Y-69424584D01*
X129458611Y-69441330D01*
X129456272Y-69472805D01*
X129455351Y-69480830D01*
X129453100Y-69495286D01*
X129453100Y-69511760D01*
X129452823Y-69519214D01*
X129449061Y-69569841D01*
X129450557Y-69576849D01*
X129450557Y-69576851D01*
X129450883Y-69578380D01*
X129453100Y-69599382D01*
X129453100Y-73578064D01*
X129433887Y-73637195D01*
X129383587Y-73673740D01*
X129321413Y-73673740D01*
X129276287Y-73643729D01*
X129269514Y-73635868D01*
X129264498Y-73629551D01*
X129255875Y-73617748D01*
X129244229Y-73606102D01*
X129239153Y-73600634D01*
X129210691Y-73567602D01*
X129210689Y-73567600D01*
X129206013Y-73562173D01*
X129198684Y-73557422D01*
X129182268Y-73544141D01*
X126906284Y-71268157D01*
X126878058Y-71212759D01*
X126887784Y-71151351D01*
X126890400Y-71146217D01*
X126902227Y-71123005D01*
X126903467Y-71115180D01*
X126916580Y-71032383D01*
X126917200Y-71028470D01*
X126917200Y-70767857D01*
X126918061Y-70754726D01*
X126921548Y-70728240D01*
X126922409Y-70721700D01*
X126918061Y-70688674D01*
X126917200Y-70675543D01*
X126917200Y-70414930D01*
X126902227Y-70320395D01*
X126844171Y-70206453D01*
X126753747Y-70116029D01*
X126639805Y-70057973D01*
X126631986Y-70056735D01*
X126631984Y-70056734D01*
X126576554Y-70047955D01*
X126545270Y-70043000D01*
X126081730Y-70043000D01*
X126003737Y-70055353D01*
X125942329Y-70045627D01*
X125898365Y-70001664D01*
X125887400Y-69955992D01*
X125887400Y-69763397D01*
X125906613Y-69704266D01*
X125916865Y-69692262D01*
X126381962Y-69227165D01*
X126437360Y-69198939D01*
X126453097Y-69197700D01*
X126622998Y-69197700D01*
X126673047Y-69189773D01*
X126714101Y-69183271D01*
X126714103Y-69183270D01*
X126721922Y-69182032D01*
X126841155Y-69121280D01*
X126935780Y-69026655D01*
X126996532Y-68907422D01*
X127012200Y-68808498D01*
X127012200Y-68494913D01*
X127031413Y-68435782D01*
X127041665Y-68423778D01*
X127133065Y-68332378D01*
X127188463Y-68304152D01*
X127249871Y-68313878D01*
X127293835Y-68357842D01*
X127304800Y-68403513D01*
X127304800Y-68808498D01*
X127320468Y-68907422D01*
X127381220Y-69026655D01*
X127408035Y-69053470D01*
X127436261Y-69108868D01*
X127437500Y-69124605D01*
X127437500Y-70173135D01*
X127426535Y-70218806D01*
X127374773Y-70320395D01*
X127359800Y-70414930D01*
X127359800Y-71028470D01*
X127360420Y-71032383D01*
X127373534Y-71115180D01*
X127374773Y-71123005D01*
X127432829Y-71236947D01*
X127523253Y-71327371D01*
X127637195Y-71385427D01*
X127645014Y-71386665D01*
X127645016Y-71386666D01*
X127688759Y-71393594D01*
X127731730Y-71400400D01*
X128195270Y-71400400D01*
X128238241Y-71393594D01*
X128281984Y-71386666D01*
X128281986Y-71386665D01*
X128289805Y-71385427D01*
X128403747Y-71327371D01*
X128494171Y-71236947D01*
X128552227Y-71123005D01*
X128553467Y-71115180D01*
X128566580Y-71032383D01*
X128567200Y-71028470D01*
X128567200Y-70414930D01*
X128552227Y-70320395D01*
X128494171Y-70206453D01*
X128483965Y-70196247D01*
X128455739Y-70140849D01*
X128454500Y-70125112D01*
X128454500Y-69124605D01*
X128473713Y-69065474D01*
X128483965Y-69053470D01*
X128510780Y-69026655D01*
X128571532Y-68907422D01*
X128587200Y-68808498D01*
X128587200Y-68229502D01*
X128575273Y-68154198D01*
X128572771Y-68138399D01*
X128572770Y-68138395D01*
X128571532Y-68130578D01*
X128510780Y-68011345D01*
X128416155Y-67916720D01*
X128296922Y-67855968D01*
X128289103Y-67854730D01*
X128289101Y-67854729D01*
X128242612Y-67847366D01*
X128197998Y-67840300D01*
X127725321Y-67840300D01*
X127666190Y-67821087D01*
X127629645Y-67770787D01*
X127626912Y-67736046D01*
X127625300Y-67736046D01*
X127625300Y-64466576D01*
X128937934Y-64466576D01*
X128944407Y-64473579D01*
X129070487Y-64550840D01*
X129077499Y-64554413D01*
X129288793Y-64641935D01*
X129296299Y-64644373D01*
X129518672Y-64697760D01*
X129526464Y-64698994D01*
X129754461Y-64716938D01*
X129762339Y-64716938D01*
X129990336Y-64698994D01*
X129998128Y-64697760D01*
X130220501Y-64644373D01*
X130228007Y-64641935D01*
X130439301Y-64554413D01*
X130446313Y-64550840D01*
X130570672Y-64474634D01*
X130579078Y-64464792D01*
X130574417Y-64456469D01*
X129769668Y-63651720D01*
X129757589Y-63645565D01*
X129752477Y-63646375D01*
X128943811Y-64455041D01*
X128937934Y-64466576D01*
X127625300Y-64466576D01*
X127625300Y-63213339D01*
X128250862Y-63213339D01*
X128268806Y-63441336D01*
X128270040Y-63449128D01*
X128323427Y-63671501D01*
X128325865Y-63679007D01*
X128413387Y-63890301D01*
X128416960Y-63897313D01*
X128493166Y-64021672D01*
X128503008Y-64030078D01*
X128511331Y-64025417D01*
X129316080Y-63220668D01*
X129321408Y-63210211D01*
X130194565Y-63210211D01*
X130195375Y-63215323D01*
X131004041Y-64023989D01*
X131015576Y-64029866D01*
X131022579Y-64023393D01*
X131099840Y-63897313D01*
X131103413Y-63890301D01*
X131190935Y-63679007D01*
X131193373Y-63671501D01*
X131246760Y-63449128D01*
X131247994Y-63441336D01*
X131265938Y-63213339D01*
X131265938Y-63205461D01*
X131247994Y-62977464D01*
X131246760Y-62969672D01*
X131193373Y-62747299D01*
X131190935Y-62739793D01*
X131103413Y-62528499D01*
X131099840Y-62521487D01*
X131023634Y-62397128D01*
X131013792Y-62388722D01*
X131005469Y-62393383D01*
X130200720Y-63198132D01*
X130194565Y-63210211D01*
X129321408Y-63210211D01*
X129322235Y-63208589D01*
X129321425Y-63203477D01*
X128512759Y-62394811D01*
X128501224Y-62388934D01*
X128494221Y-62395407D01*
X128416960Y-62521487D01*
X128413387Y-62528499D01*
X128325865Y-62739793D01*
X128323427Y-62747299D01*
X128270040Y-62969672D01*
X128268806Y-62977464D01*
X128250862Y-63205461D01*
X128250862Y-63213339D01*
X127625300Y-63213339D01*
X127625300Y-61954008D01*
X128937722Y-61954008D01*
X128942383Y-61962331D01*
X129747132Y-62767080D01*
X129759211Y-62773235D01*
X129764323Y-62772425D01*
X130572989Y-61963759D01*
X130578866Y-61952224D01*
X130572393Y-61945221D01*
X130446313Y-61867960D01*
X130439301Y-61864387D01*
X130228007Y-61776865D01*
X130220501Y-61774427D01*
X129998128Y-61721040D01*
X129990336Y-61719806D01*
X129762339Y-61701862D01*
X129754461Y-61701862D01*
X129526464Y-61719806D01*
X129518672Y-61721040D01*
X129296299Y-61774427D01*
X129288793Y-61776865D01*
X129077499Y-61864387D01*
X129070487Y-61867960D01*
X128946128Y-61944166D01*
X128937722Y-61954008D01*
X127625300Y-61954008D01*
X127625300Y-60324264D01*
X127644513Y-60265133D01*
X127680542Y-60234470D01*
X127731891Y-60208532D01*
X127879273Y-60093385D01*
X127900932Y-60068293D01*
X127998267Y-59955529D01*
X127998268Y-59955527D01*
X128001482Y-59951804D01*
X128093864Y-59789182D01*
X128152900Y-59611713D01*
X128176341Y-59426158D01*
X128176715Y-59399400D01*
X128158464Y-59213262D01*
X128157042Y-59208552D01*
X128157041Y-59208547D01*
X128105830Y-59038930D01*
X128105828Y-59038926D01*
X128104406Y-59034215D01*
X128016601Y-58869077D01*
X127898392Y-58724138D01*
X127891561Y-58718487D01*
X127758071Y-58608054D01*
X127758066Y-58608051D01*
X127754283Y-58604921D01*
X127589762Y-58515965D01*
X127585064Y-58514511D01*
X127585060Y-58514509D01*
X127415793Y-58462112D01*
X127411096Y-58460658D01*
X127225090Y-58441108D01*
X127220189Y-58441554D01*
X127220186Y-58441554D01*
X127043729Y-58457613D01*
X127043727Y-58457613D01*
X127038830Y-58458059D01*
X126859409Y-58510866D01*
X126693662Y-58597516D01*
X126547902Y-58714710D01*
X126544736Y-58718483D01*
X126544732Y-58718487D01*
X126430846Y-58854212D01*
X126427681Y-58857984D01*
X126425312Y-58862292D01*
X126425310Y-58862296D01*
X126419194Y-58873422D01*
X126337579Y-59021880D01*
X126281026Y-59200155D01*
X126280478Y-59205042D01*
X126280477Y-59205046D01*
X126279006Y-59218161D01*
X126260178Y-59386020D01*
X126275829Y-59572394D01*
X126301773Y-59662872D01*
X126315391Y-59710363D01*
X126327381Y-59752179D01*
X126412872Y-59918527D01*
X126529046Y-60065102D01*
X126671477Y-60186320D01*
X126721581Y-60214322D01*
X126759979Y-60235782D01*
X126802222Y-60281401D01*
X126811500Y-60323598D01*
X126811500Y-61206132D01*
X126792287Y-61265263D01*
X126741987Y-61301808D01*
X126679813Y-61301808D01*
X126635170Y-61271242D01*
X126634969Y-61271442D01*
X126633921Y-61270387D01*
X126632943Y-61269717D01*
X126631504Y-61267953D01*
X126631499Y-61267948D01*
X126628392Y-61264138D01*
X126621561Y-61258487D01*
X126488071Y-61148054D01*
X126488066Y-61148051D01*
X126484283Y-61144921D01*
X126319762Y-61055965D01*
X126315064Y-61054511D01*
X126315060Y-61054509D01*
X126145793Y-61002112D01*
X126141096Y-61000658D01*
X125955090Y-60981108D01*
X125950189Y-60981554D01*
X125950186Y-60981554D01*
X125773729Y-60997613D01*
X125773727Y-60997613D01*
X125768830Y-60998059D01*
X125589409Y-61050866D01*
X125423662Y-61137516D01*
X125277902Y-61254710D01*
X125274733Y-61258487D01*
X125274731Y-61258489D01*
X125262963Y-61272513D01*
X125210236Y-61305460D01*
X125148214Y-61301122D01*
X125100586Y-61261157D01*
X125085300Y-61207848D01*
X125085300Y-60324264D01*
X125104513Y-60265133D01*
X125140542Y-60234470D01*
X125191891Y-60208532D01*
X125339273Y-60093385D01*
X125360932Y-60068293D01*
X125458267Y-59955529D01*
X125458268Y-59955527D01*
X125461482Y-59951804D01*
X125553864Y-59789182D01*
X125612900Y-59611713D01*
X125636341Y-59426158D01*
X125636715Y-59399400D01*
X125618464Y-59213262D01*
X125617042Y-59208552D01*
X125617041Y-59208547D01*
X125565830Y-59038930D01*
X125565828Y-59038926D01*
X125564406Y-59034215D01*
X125476601Y-58869077D01*
X125358392Y-58724138D01*
X125351561Y-58718487D01*
X125218071Y-58608054D01*
X125218066Y-58608051D01*
X125214283Y-58604921D01*
X125049762Y-58515965D01*
X125045064Y-58514511D01*
X125045060Y-58514509D01*
X124875793Y-58462112D01*
X124871096Y-58460658D01*
X124685090Y-58441108D01*
X124680189Y-58441554D01*
X124680186Y-58441554D01*
X124503729Y-58457613D01*
X124503727Y-58457613D01*
X124498830Y-58458059D01*
X124319409Y-58510866D01*
X124153662Y-58597516D01*
X124007902Y-58714710D01*
X124004736Y-58718483D01*
X124004732Y-58718487D01*
X123890846Y-58854212D01*
X123887681Y-58857984D01*
X123885312Y-58862292D01*
X123885310Y-58862296D01*
X123879194Y-58873422D01*
X123797579Y-59021880D01*
X123741026Y-59200155D01*
X123740478Y-59205042D01*
X123740477Y-59205046D01*
X123739006Y-59218161D01*
X123720178Y-59386020D01*
X123735829Y-59572394D01*
X123761773Y-59662872D01*
X123775391Y-59710363D01*
X123787381Y-59752179D01*
X123872872Y-59918527D01*
X123989046Y-60065102D01*
X124131477Y-60186320D01*
X124181581Y-60214322D01*
X124219979Y-60235782D01*
X124262222Y-60281401D01*
X124271500Y-60323598D01*
X124271500Y-61206132D01*
X124252287Y-61265263D01*
X124201987Y-61301808D01*
X124139813Y-61301808D01*
X124095170Y-61271242D01*
X124094969Y-61271442D01*
X124093921Y-61270387D01*
X124092943Y-61269717D01*
X124091504Y-61267953D01*
X124091499Y-61267948D01*
X124088392Y-61264138D01*
X124081561Y-61258487D01*
X123948071Y-61148054D01*
X123948066Y-61148051D01*
X123944283Y-61144921D01*
X123779762Y-61055965D01*
X123775064Y-61054511D01*
X123775060Y-61054509D01*
X123605793Y-61002112D01*
X123601096Y-61000658D01*
X123415090Y-60981108D01*
X123410189Y-60981554D01*
X123410186Y-60981554D01*
X123233729Y-60997613D01*
X123233727Y-60997613D01*
X123228830Y-60998059D01*
X123049409Y-61050866D01*
X122883662Y-61137516D01*
X122737902Y-61254710D01*
X122734733Y-61258487D01*
X122734731Y-61258489D01*
X122722963Y-61272513D01*
X122670236Y-61305460D01*
X122608214Y-61301122D01*
X122560586Y-61261157D01*
X122545300Y-61207848D01*
X122545300Y-60324264D01*
X122564513Y-60265133D01*
X122600542Y-60234470D01*
X122651891Y-60208532D01*
X122799273Y-60093385D01*
X122820932Y-60068293D01*
X122918267Y-59955529D01*
X122918268Y-59955527D01*
X122921482Y-59951804D01*
X123013864Y-59789182D01*
X123072900Y-59611713D01*
X123096341Y-59426158D01*
X123096715Y-59399400D01*
X123078464Y-59213262D01*
X123077042Y-59208552D01*
X123077041Y-59208547D01*
X123025830Y-59038930D01*
X123025828Y-59038926D01*
X123024406Y-59034215D01*
X122936601Y-58869077D01*
X122818392Y-58724138D01*
X122811561Y-58718487D01*
X122678071Y-58608054D01*
X122678066Y-58608051D01*
X122674283Y-58604921D01*
X122509762Y-58515965D01*
X122505064Y-58514511D01*
X122505060Y-58514509D01*
X122335793Y-58462112D01*
X122331096Y-58460658D01*
X122145090Y-58441108D01*
X122140189Y-58441554D01*
X122140186Y-58441554D01*
X121963729Y-58457613D01*
X121963727Y-58457613D01*
X121958830Y-58458059D01*
X121779409Y-58510866D01*
X121613662Y-58597516D01*
X121467902Y-58714710D01*
X121464736Y-58718483D01*
X121464732Y-58718487D01*
X121350846Y-58854212D01*
X121347681Y-58857984D01*
X121345312Y-58862292D01*
X121345310Y-58862296D01*
X121339194Y-58873422D01*
X121257579Y-59021880D01*
X121201026Y-59200155D01*
X121200478Y-59205042D01*
X121200477Y-59205046D01*
X121199006Y-59218161D01*
X121180178Y-59386020D01*
X121195829Y-59572394D01*
X121221773Y-59662872D01*
X121235391Y-59710363D01*
X121247381Y-59752179D01*
X121332872Y-59918527D01*
X121449046Y-60065102D01*
X121591477Y-60186320D01*
X121641581Y-60214322D01*
X121679979Y-60235782D01*
X121722222Y-60281401D01*
X121731500Y-60323598D01*
X121731500Y-61206132D01*
X121712287Y-61265263D01*
X121661987Y-61301808D01*
X121599813Y-61301808D01*
X121555170Y-61271242D01*
X121554969Y-61271442D01*
X121553921Y-61270387D01*
X121552943Y-61269717D01*
X121551504Y-61267953D01*
X121551499Y-61267948D01*
X121548392Y-61264138D01*
X121541561Y-61258487D01*
X121408071Y-61148054D01*
X121408066Y-61148051D01*
X121404283Y-61144921D01*
X121239762Y-61055965D01*
X121235064Y-61054511D01*
X121235060Y-61054509D01*
X121065793Y-61002112D01*
X121061096Y-61000658D01*
X120875090Y-60981108D01*
X120870189Y-60981554D01*
X120870186Y-60981554D01*
X120693729Y-60997613D01*
X120693727Y-60997613D01*
X120688830Y-60998059D01*
X120509409Y-61050866D01*
X120343662Y-61137516D01*
X120197902Y-61254710D01*
X120194733Y-61258487D01*
X120194731Y-61258489D01*
X120182963Y-61272513D01*
X120130236Y-61305460D01*
X120068214Y-61301122D01*
X120020586Y-61261157D01*
X120005300Y-61207848D01*
X120005300Y-60324264D01*
X120024513Y-60265133D01*
X120060542Y-60234470D01*
X120111891Y-60208532D01*
X120259273Y-60093385D01*
X120280932Y-60068293D01*
X120378267Y-59955529D01*
X120378268Y-59955527D01*
X120381482Y-59951804D01*
X120473864Y-59789182D01*
X120532900Y-59611713D01*
X120556341Y-59426158D01*
X120556715Y-59399400D01*
X120538464Y-59213262D01*
X120537042Y-59208552D01*
X120537041Y-59208547D01*
X120485830Y-59038930D01*
X120485828Y-59038926D01*
X120484406Y-59034215D01*
X120396601Y-58869077D01*
X120278392Y-58724138D01*
X120271561Y-58718487D01*
X120138071Y-58608054D01*
X120138066Y-58608051D01*
X120134283Y-58604921D01*
X119969762Y-58515965D01*
X119965064Y-58514511D01*
X119965060Y-58514509D01*
X119795793Y-58462112D01*
X119791096Y-58460658D01*
X119605090Y-58441108D01*
X119600189Y-58441554D01*
X119600186Y-58441554D01*
X119423729Y-58457613D01*
X119423727Y-58457613D01*
X119418830Y-58458059D01*
X119239409Y-58510866D01*
X119073662Y-58597516D01*
X118927902Y-58714710D01*
X118924736Y-58718483D01*
X118924732Y-58718487D01*
X118810846Y-58854212D01*
X118807681Y-58857984D01*
X118805312Y-58862292D01*
X118805310Y-58862296D01*
X118799194Y-58873422D01*
X118717579Y-59021880D01*
X118661026Y-59200155D01*
X118660478Y-59205042D01*
X118660477Y-59205046D01*
X118659006Y-59218161D01*
X118640178Y-59386020D01*
X118655829Y-59572394D01*
X118681773Y-59662872D01*
X118695391Y-59710363D01*
X118707381Y-59752179D01*
X118792872Y-59918527D01*
X118909046Y-60065102D01*
X119051477Y-60186320D01*
X119101581Y-60214322D01*
X119139979Y-60235782D01*
X119182222Y-60281401D01*
X119191500Y-60323598D01*
X119191500Y-61206132D01*
X119172287Y-61265263D01*
X119121987Y-61301808D01*
X119059813Y-61301808D01*
X119015170Y-61271242D01*
X119014969Y-61271442D01*
X119013921Y-61270387D01*
X119012943Y-61269717D01*
X119011504Y-61267953D01*
X119011499Y-61267948D01*
X119008392Y-61264138D01*
X119001561Y-61258487D01*
X118868071Y-61148054D01*
X118868066Y-61148051D01*
X118864283Y-61144921D01*
X118699762Y-61055965D01*
X118695064Y-61054511D01*
X118695060Y-61054509D01*
X118525793Y-61002112D01*
X118521096Y-61000658D01*
X118335090Y-60981108D01*
X118330189Y-60981554D01*
X118330186Y-60981554D01*
X118153729Y-60997613D01*
X118153727Y-60997613D01*
X118148830Y-60998059D01*
X117969409Y-61050866D01*
X117803662Y-61137516D01*
X117657902Y-61254710D01*
X117654736Y-61258483D01*
X117654732Y-61258487D01*
X117542592Y-61392131D01*
X117537681Y-61397984D01*
X117535312Y-61402292D01*
X117535310Y-61402296D01*
X117522785Y-61425079D01*
X117447579Y-61561880D01*
X117391026Y-61740155D01*
X117390478Y-61745042D01*
X117390477Y-61745046D01*
X117380754Y-61831729D01*
X117370178Y-61926020D01*
X117385829Y-62112394D01*
X117437381Y-62292179D01*
X117522872Y-62458527D01*
X117639046Y-62605102D01*
X117781477Y-62726320D01*
X117944740Y-62817564D01*
X117949421Y-62819085D01*
X118117937Y-62873840D01*
X118117940Y-62873841D01*
X118122616Y-62875360D01*
X118127498Y-62875942D01*
X118127502Y-62875943D01*
X118303441Y-62896922D01*
X118303442Y-62896922D01*
X118308331Y-62897505D01*
X118447002Y-62886835D01*
X118489898Y-62883534D01*
X118494810Y-62883156D01*
X118499550Y-62881832D01*
X118499553Y-62881832D01*
X118670208Y-62834184D01*
X118674950Y-62832860D01*
X118841891Y-62748532D01*
X118989273Y-62633385D01*
X119014746Y-62603874D01*
X119067927Y-62571666D01*
X119129884Y-62576868D01*
X119176949Y-62617494D01*
X119191500Y-62669608D01*
X119191500Y-62949386D01*
X119172287Y-63008517D01*
X119162035Y-63020521D01*
X115954122Y-66228435D01*
X115898724Y-66256661D01*
X115882987Y-66257900D01*
X114571754Y-66257900D01*
X114548448Y-66265473D01*
X114533102Y-66269157D01*
X114508894Y-66272991D01*
X114501843Y-66276584D01*
X114501842Y-66276584D01*
X114487060Y-66284116D01*
X114472482Y-66290155D01*
X114449168Y-66297730D01*
X114442759Y-66302386D01*
X114442760Y-66302386D01*
X114429342Y-66312135D01*
X114415887Y-66320381D01*
X114394049Y-66331508D01*
X112914722Y-67810835D01*
X112859324Y-67839061D01*
X112843587Y-67840300D01*
X112530002Y-67840300D01*
X112485388Y-67847366D01*
X112438899Y-67854729D01*
X112438897Y-67854730D01*
X112431078Y-67855968D01*
X112311845Y-67916720D01*
X112217220Y-68011345D01*
X112156468Y-68130578D01*
X112155230Y-68138395D01*
X112155229Y-68138399D01*
X112152727Y-68154198D01*
X112140800Y-68229502D01*
X112140800Y-68399403D01*
X112121587Y-68458534D01*
X112111335Y-68470538D01*
X111508388Y-69073485D01*
X111498247Y-69081588D01*
X111498262Y-69081606D01*
X111492804Y-69086251D01*
X111486742Y-69090076D01*
X111461432Y-69118734D01*
X111450593Y-69131007D01*
X111446325Y-69135548D01*
X111434318Y-69147555D01*
X111427426Y-69156751D01*
X111422344Y-69162992D01*
X111390322Y-69199251D01*
X111387275Y-69205742D01*
X111385895Y-69208680D01*
X111375336Y-69226254D01*
X111369084Y-69234595D01*
X111366568Y-69241305D01*
X111366568Y-69241306D01*
X111352102Y-69279894D01*
X111348974Y-69287318D01*
X111328419Y-69331100D01*
X111326888Y-69340935D01*
X111326817Y-69341390D01*
X111321615Y-69361217D01*
X111320472Y-69364268D01*
X111320471Y-69364272D01*
X111317955Y-69370984D01*
X111317204Y-69381095D01*
X111314372Y-69419205D01*
X111313451Y-69427230D01*
X111312163Y-69435500D01*
X111311200Y-69441686D01*
X111311200Y-69458160D01*
X111310923Y-69465614D01*
X111307161Y-69516241D01*
X111308657Y-69523249D01*
X111308657Y-69523251D01*
X111308983Y-69524780D01*
X111311200Y-69545782D01*
X111311200Y-73651468D01*
X111309759Y-73664366D01*
X111309783Y-73664368D01*
X111309209Y-73671506D01*
X111307626Y-73678500D01*
X111308461Y-73691955D01*
X111311007Y-73732998D01*
X111311200Y-73739227D01*
X111311200Y-73756213D01*
X111311708Y-73759760D01*
X111311708Y-73759762D01*
X111312827Y-73767574D01*
X111313650Y-73775604D01*
X111316198Y-73816668D01*
X111316645Y-73823877D01*
X111319078Y-73830615D01*
X111319078Y-73830617D01*
X111320182Y-73833674D01*
X111325139Y-73853546D01*
X111325441Y-73855651D01*
X111314821Y-73916912D01*
X111270220Y-73960230D01*
X111208676Y-73969059D01*
X111154726Y-73941073D01*
X110846465Y-73632813D01*
X110818239Y-73577415D01*
X110817000Y-73561678D01*
X110817000Y-72784733D01*
X110818441Y-72771836D01*
X110818417Y-72771834D01*
X110818992Y-72764693D01*
X110820574Y-72757700D01*
X110817193Y-72703202D01*
X110817000Y-72696973D01*
X110817000Y-72679987D01*
X110815372Y-72668619D01*
X110814550Y-72660596D01*
X110811999Y-72619474D01*
X110811999Y-72619472D01*
X110811555Y-72612323D01*
X110808018Y-72602525D01*
X110803057Y-72582628D01*
X110802596Y-72579411D01*
X110801580Y-72572313D01*
X110781560Y-72528282D01*
X110778517Y-72520807D01*
X110764530Y-72482061D01*
X110764528Y-72482057D01*
X110762096Y-72475319D01*
X110757868Y-72469532D01*
X110757867Y-72469530D01*
X110755948Y-72466903D01*
X110745603Y-72449199D01*
X110744259Y-72446243D01*
X110744258Y-72446241D01*
X110741292Y-72439718D01*
X110709713Y-72403068D01*
X110704716Y-72396775D01*
X110696075Y-72384947D01*
X110684423Y-72373295D01*
X110679353Y-72367834D01*
X110646213Y-72329373D01*
X110640198Y-72325474D01*
X110638887Y-72324624D01*
X110622470Y-72311342D01*
X110266220Y-71955092D01*
X109883261Y-71572134D01*
X109855036Y-71516737D01*
X109864762Y-71455329D01*
X109908725Y-71411365D01*
X109954397Y-71400400D01*
X110415270Y-71400400D01*
X110458241Y-71393594D01*
X110501984Y-71386666D01*
X110501986Y-71386665D01*
X110509805Y-71385427D01*
X110623747Y-71327371D01*
X110714171Y-71236947D01*
X110772227Y-71123005D01*
X110773467Y-71115180D01*
X110786580Y-71032383D01*
X110787200Y-71028470D01*
X110787200Y-70414930D01*
X110772227Y-70320395D01*
X110714171Y-70206453D01*
X110703965Y-70196247D01*
X110675739Y-70140849D01*
X110674500Y-70125112D01*
X110674500Y-69124605D01*
X110693713Y-69065474D01*
X110703965Y-69053470D01*
X110730780Y-69026655D01*
X110791532Y-68907422D01*
X110807200Y-68808498D01*
X110807200Y-68229502D01*
X110795273Y-68154198D01*
X110792771Y-68138399D01*
X110792770Y-68138395D01*
X110791532Y-68130578D01*
X110730780Y-68011345D01*
X110636155Y-67916720D01*
X110516922Y-67855968D01*
X110509103Y-67854730D01*
X110509101Y-67854729D01*
X110462612Y-67847366D01*
X110417998Y-67840300D01*
X110046413Y-67840300D01*
X109987282Y-67821087D01*
X109950737Y-67770787D01*
X109950737Y-67708613D01*
X109975278Y-67668565D01*
X111659214Y-65984630D01*
X113177268Y-64466576D01*
X114967934Y-64466576D01*
X114974407Y-64473579D01*
X115100487Y-64550840D01*
X115107499Y-64554413D01*
X115318793Y-64641935D01*
X115326299Y-64644373D01*
X115548672Y-64697760D01*
X115556464Y-64698994D01*
X115784461Y-64716938D01*
X115792339Y-64716938D01*
X116020336Y-64698994D01*
X116028128Y-64697760D01*
X116250501Y-64644373D01*
X116258007Y-64641935D01*
X116469301Y-64554413D01*
X116476313Y-64550840D01*
X116600672Y-64474634D01*
X116609078Y-64464792D01*
X116604417Y-64456469D01*
X115799668Y-63651720D01*
X115787589Y-63645565D01*
X115782477Y-63646375D01*
X114973811Y-64455041D01*
X114967934Y-64466576D01*
X113177268Y-64466576D01*
X113558766Y-64085078D01*
X113558769Y-64085074D01*
X113581692Y-64062151D01*
X113592817Y-64040317D01*
X113601059Y-64026867D01*
X113615470Y-64007032D01*
X113623043Y-63983724D01*
X113629085Y-63969138D01*
X113636615Y-63954359D01*
X113640209Y-63947306D01*
X113644043Y-63923099D01*
X113647726Y-63907757D01*
X113655299Y-63884447D01*
X113655299Y-63852030D01*
X113655300Y-63852024D01*
X113655300Y-63213339D01*
X114280862Y-63213339D01*
X114298806Y-63441336D01*
X114300040Y-63449128D01*
X114353427Y-63671501D01*
X114355865Y-63679007D01*
X114443387Y-63890301D01*
X114446960Y-63897313D01*
X114523166Y-64021672D01*
X114533008Y-64030078D01*
X114541331Y-64025417D01*
X115346080Y-63220668D01*
X115351408Y-63210211D01*
X116224565Y-63210211D01*
X116225375Y-63215323D01*
X117034041Y-64023989D01*
X117045576Y-64029866D01*
X117052579Y-64023393D01*
X117129840Y-63897313D01*
X117133413Y-63890301D01*
X117220935Y-63679007D01*
X117223373Y-63671501D01*
X117276760Y-63449128D01*
X117277994Y-63441336D01*
X117295938Y-63213339D01*
X117295938Y-63205461D01*
X117277994Y-62977464D01*
X117276760Y-62969672D01*
X117223373Y-62747299D01*
X117220935Y-62739793D01*
X117133413Y-62528499D01*
X117129840Y-62521487D01*
X117053634Y-62397128D01*
X117043792Y-62388722D01*
X117035469Y-62393383D01*
X116230720Y-63198132D01*
X116224565Y-63210211D01*
X115351408Y-63210211D01*
X115352235Y-63208589D01*
X115351425Y-63203477D01*
X114542759Y-62394811D01*
X114531224Y-62388934D01*
X114524221Y-62395407D01*
X114446960Y-62521487D01*
X114443387Y-62528499D01*
X114355865Y-62739793D01*
X114353427Y-62747299D01*
X114300040Y-62969672D01*
X114298806Y-62977464D01*
X114280862Y-63205461D01*
X114280862Y-63213339D01*
X113655300Y-63213339D01*
X113655300Y-61954008D01*
X114967722Y-61954008D01*
X114972383Y-61962331D01*
X115777132Y-62767080D01*
X115789211Y-62773235D01*
X115794323Y-62772425D01*
X116602989Y-61963759D01*
X116608866Y-61952224D01*
X116602393Y-61945221D01*
X116476313Y-61867960D01*
X116469301Y-61864387D01*
X116258007Y-61776865D01*
X116250501Y-61774427D01*
X116028128Y-61721040D01*
X116020336Y-61719806D01*
X115792339Y-61701862D01*
X115784461Y-61701862D01*
X115556464Y-61719806D01*
X115548672Y-61721040D01*
X115326299Y-61774427D01*
X115318793Y-61776865D01*
X115107499Y-61864387D01*
X115100487Y-61867960D01*
X114976128Y-61944166D01*
X114967722Y-61954008D01*
X113655300Y-61954008D01*
X113655300Y-60324264D01*
X113674513Y-60265133D01*
X113710542Y-60234470D01*
X113761891Y-60208532D01*
X113909273Y-60093385D01*
X113930932Y-60068293D01*
X114028267Y-59955529D01*
X114028268Y-59955527D01*
X114031482Y-59951804D01*
X114123864Y-59789182D01*
X114182900Y-59611713D01*
X114206341Y-59426158D01*
X114206715Y-59399400D01*
X114188464Y-59213262D01*
X114187042Y-59208552D01*
X114187041Y-59208547D01*
X114135830Y-59038930D01*
X114135828Y-59038926D01*
X114134406Y-59034215D01*
X114046601Y-58869077D01*
X113928392Y-58724138D01*
X113921561Y-58718487D01*
X113788071Y-58608054D01*
X113788066Y-58608051D01*
X113784283Y-58604921D01*
X113619762Y-58515965D01*
X113615064Y-58514511D01*
X113615060Y-58514509D01*
X113445793Y-58462112D01*
X113441096Y-58460658D01*
X113255090Y-58441108D01*
X113250189Y-58441554D01*
X113250186Y-58441554D01*
X113073729Y-58457613D01*
X113073727Y-58457613D01*
X113068830Y-58458059D01*
X112889409Y-58510866D01*
X112723662Y-58597516D01*
X112577902Y-58714710D01*
X112574736Y-58718483D01*
X112574732Y-58718487D01*
X112460846Y-58854212D01*
X112457681Y-58857984D01*
X112455312Y-58862292D01*
X112455310Y-58862296D01*
X112449194Y-58873422D01*
X112367579Y-59021880D01*
X112311026Y-59200155D01*
X112310478Y-59205042D01*
X112310477Y-59205046D01*
X112309006Y-59218161D01*
X112290178Y-59386020D01*
X112305829Y-59572394D01*
X112331773Y-59662872D01*
X112345391Y-59710363D01*
X112357381Y-59752179D01*
X112442872Y-59918527D01*
X112559046Y-60065102D01*
X112701477Y-60186320D01*
X112751581Y-60214322D01*
X112789979Y-60235782D01*
X112832222Y-60281401D01*
X112841500Y-60323598D01*
X112841500Y-61206132D01*
X112822287Y-61265263D01*
X112771987Y-61301808D01*
X112709813Y-61301808D01*
X112665170Y-61271242D01*
X112664969Y-61271442D01*
X112663921Y-61270387D01*
X112662943Y-61269717D01*
X112661504Y-61267953D01*
X112661499Y-61267948D01*
X112658392Y-61264138D01*
X112651561Y-61258487D01*
X112518071Y-61148054D01*
X112518066Y-61148051D01*
X112514283Y-61144921D01*
X112349762Y-61055965D01*
X112345064Y-61054511D01*
X112345060Y-61054509D01*
X112175793Y-61002112D01*
X112171096Y-61000658D01*
X111985090Y-60981108D01*
X111980189Y-60981554D01*
X111980186Y-60981554D01*
X111803729Y-60997613D01*
X111803727Y-60997613D01*
X111798830Y-60998059D01*
X111619409Y-61050866D01*
X111453662Y-61137516D01*
X111307902Y-61254710D01*
X111304733Y-61258487D01*
X111304731Y-61258489D01*
X111292963Y-61272513D01*
X111240236Y-61305460D01*
X111178214Y-61301122D01*
X111130586Y-61261157D01*
X111115300Y-61207848D01*
X111115300Y-60324264D01*
X111134513Y-60265133D01*
X111170542Y-60234470D01*
X111221891Y-60208532D01*
X111369273Y-60093385D01*
X111390932Y-60068293D01*
X111488267Y-59955529D01*
X111488268Y-59955527D01*
X111491482Y-59951804D01*
X111583864Y-59789182D01*
X111642900Y-59611713D01*
X111666341Y-59426158D01*
X111666715Y-59399400D01*
X111648464Y-59213262D01*
X111647042Y-59208552D01*
X111647041Y-59208547D01*
X111595830Y-59038930D01*
X111595828Y-59038926D01*
X111594406Y-59034215D01*
X111506601Y-58869077D01*
X111388392Y-58724138D01*
X111381561Y-58718487D01*
X111248071Y-58608054D01*
X111248066Y-58608051D01*
X111244283Y-58604921D01*
X111079762Y-58515965D01*
X111075064Y-58514511D01*
X111075060Y-58514509D01*
X110905793Y-58462112D01*
X110901096Y-58460658D01*
X110715090Y-58441108D01*
X110710189Y-58441554D01*
X110710186Y-58441554D01*
X110533729Y-58457613D01*
X110533727Y-58457613D01*
X110528830Y-58458059D01*
X110349409Y-58510866D01*
X110183662Y-58597516D01*
X110037902Y-58714710D01*
X110034736Y-58718483D01*
X110034732Y-58718487D01*
X109920846Y-58854212D01*
X109917681Y-58857984D01*
X109915312Y-58862292D01*
X109915310Y-58862296D01*
X109909194Y-58873422D01*
X109827579Y-59021880D01*
X109771026Y-59200155D01*
X109770478Y-59205042D01*
X109770477Y-59205046D01*
X109769006Y-59218161D01*
X109750178Y-59386020D01*
X109765829Y-59572394D01*
X109791773Y-59662872D01*
X109805391Y-59710363D01*
X109817381Y-59752179D01*
X109902872Y-59918527D01*
X110019046Y-60065102D01*
X110161477Y-60186320D01*
X110211581Y-60214322D01*
X110249979Y-60235782D01*
X110292222Y-60281401D01*
X110301500Y-60323598D01*
X110301500Y-61206132D01*
X110282287Y-61265263D01*
X110231987Y-61301808D01*
X110169813Y-61301808D01*
X110125170Y-61271242D01*
X110124969Y-61271442D01*
X110123921Y-61270387D01*
X110122943Y-61269717D01*
X110121504Y-61267953D01*
X110121499Y-61267948D01*
X110118392Y-61264138D01*
X110111561Y-61258487D01*
X109978071Y-61148054D01*
X109978066Y-61148051D01*
X109974283Y-61144921D01*
X109809762Y-61055965D01*
X109805064Y-61054511D01*
X109805060Y-61054509D01*
X109635793Y-61002112D01*
X109631096Y-61000658D01*
X109445090Y-60981108D01*
X109440189Y-60981554D01*
X109440186Y-60981554D01*
X109263729Y-60997613D01*
X109263727Y-60997613D01*
X109258830Y-60998059D01*
X109079409Y-61050866D01*
X108913662Y-61137516D01*
X108767902Y-61254710D01*
X108764733Y-61258487D01*
X108764731Y-61258489D01*
X108752963Y-61272513D01*
X108700236Y-61305460D01*
X108638214Y-61301122D01*
X108590586Y-61261157D01*
X108575300Y-61207848D01*
X108575300Y-60324264D01*
X108594513Y-60265133D01*
X108630542Y-60234470D01*
X108681891Y-60208532D01*
X108829273Y-60093385D01*
X108850932Y-60068293D01*
X108948267Y-59955529D01*
X108948268Y-59955527D01*
X108951482Y-59951804D01*
X109043864Y-59789182D01*
X109102900Y-59611713D01*
X109126341Y-59426158D01*
X109126715Y-59399400D01*
X109108464Y-59213262D01*
X109107042Y-59208552D01*
X109107041Y-59208547D01*
X109055830Y-59038930D01*
X109055828Y-59038926D01*
X109054406Y-59034215D01*
X108966601Y-58869077D01*
X108848392Y-58724138D01*
X108841561Y-58718487D01*
X108708071Y-58608054D01*
X108708066Y-58608051D01*
X108704283Y-58604921D01*
X108539762Y-58515965D01*
X108535064Y-58514511D01*
X108535060Y-58514509D01*
X108365793Y-58462112D01*
X108361096Y-58460658D01*
X108175090Y-58441108D01*
X108170189Y-58441554D01*
X108170186Y-58441554D01*
X107993729Y-58457613D01*
X107993727Y-58457613D01*
X107988830Y-58458059D01*
X107809409Y-58510866D01*
X107643662Y-58597516D01*
X107497902Y-58714710D01*
X107494736Y-58718483D01*
X107494732Y-58718487D01*
X107380846Y-58854212D01*
X107377681Y-58857984D01*
X107375312Y-58862292D01*
X107375310Y-58862296D01*
X107369194Y-58873422D01*
X107287579Y-59021880D01*
X107231026Y-59200155D01*
X107230478Y-59205042D01*
X107230477Y-59205046D01*
X107229006Y-59218161D01*
X107210178Y-59386020D01*
X107225829Y-59572394D01*
X107251773Y-59662872D01*
X107265391Y-59710363D01*
X107277381Y-59752179D01*
X107362872Y-59918527D01*
X107479046Y-60065102D01*
X107621477Y-60186320D01*
X107671581Y-60214322D01*
X107709979Y-60235782D01*
X107752222Y-60281401D01*
X107761500Y-60323598D01*
X107761500Y-61206132D01*
X107742287Y-61265263D01*
X107691987Y-61301808D01*
X107629813Y-61301808D01*
X107585170Y-61271242D01*
X107584969Y-61271442D01*
X107583921Y-61270387D01*
X107582943Y-61269717D01*
X107581504Y-61267953D01*
X107581499Y-61267948D01*
X107578392Y-61264138D01*
X107571561Y-61258487D01*
X107438071Y-61148054D01*
X107438066Y-61148051D01*
X107434283Y-61144921D01*
X107269762Y-61055965D01*
X107265064Y-61054511D01*
X107265060Y-61054509D01*
X107095793Y-61002112D01*
X107091096Y-61000658D01*
X106905090Y-60981108D01*
X106900189Y-60981554D01*
X106900186Y-60981554D01*
X106723729Y-60997613D01*
X106723727Y-60997613D01*
X106718830Y-60998059D01*
X106539409Y-61050866D01*
X106373662Y-61137516D01*
X106227902Y-61254710D01*
X106224736Y-61258483D01*
X106224732Y-61258487D01*
X106112592Y-61392131D01*
X106107681Y-61397984D01*
X106105312Y-61402292D01*
X106105310Y-61402296D01*
X106092785Y-61425079D01*
X106017579Y-61561880D01*
X105961026Y-61740155D01*
X105960478Y-61745042D01*
X105960477Y-61745046D01*
X105950754Y-61831729D01*
X105940178Y-61926020D01*
X105955829Y-62112394D01*
X106007381Y-62292179D01*
X106092872Y-62458527D01*
X106209046Y-62605102D01*
X106351477Y-62726320D01*
X106514740Y-62817564D01*
X106519421Y-62819085D01*
X106687937Y-62873840D01*
X106687940Y-62873841D01*
X106692616Y-62875360D01*
X106697498Y-62875942D01*
X106697502Y-62875943D01*
X106873441Y-62896922D01*
X106873442Y-62896922D01*
X106878331Y-62897505D01*
X107017002Y-62886835D01*
X107059898Y-62883534D01*
X107064810Y-62883156D01*
X107069550Y-62881832D01*
X107069553Y-62881832D01*
X107240208Y-62834184D01*
X107244950Y-62832860D01*
X107276930Y-62816706D01*
X107338370Y-62807194D01*
X107393669Y-62835613D01*
X107421703Y-62891109D01*
X107411763Y-62952484D01*
X107393422Y-62977635D01*
X104091822Y-66279235D01*
X104036424Y-66307461D01*
X104020687Y-66308700D01*
X102295384Y-66308700D01*
X102272078Y-66316273D01*
X102256732Y-66319957D01*
X102232524Y-66323791D01*
X102225473Y-66327384D01*
X102225472Y-66327384D01*
X102210690Y-66334916D01*
X102196112Y-66340955D01*
X102172798Y-66348530D01*
X102166389Y-66353186D01*
X102166390Y-66353186D01*
X102152972Y-66362935D01*
X102139517Y-66371181D01*
X102117679Y-66382308D01*
X100686130Y-67813857D01*
X100630732Y-67842083D01*
X100599262Y-67842084D01*
X100587998Y-67840300D01*
X100084002Y-67840300D01*
X100039388Y-67847366D01*
X99992899Y-67854729D01*
X99992897Y-67854730D01*
X99985078Y-67855968D01*
X99865845Y-67916720D01*
X99771220Y-68011345D01*
X99710468Y-68130578D01*
X99709230Y-68138395D01*
X99709229Y-68138399D01*
X99706727Y-68154198D01*
X99694800Y-68229502D01*
X99694800Y-68399403D01*
X99675587Y-68458534D01*
X99665335Y-68470538D01*
X99062388Y-69073485D01*
X99052247Y-69081588D01*
X99052262Y-69081606D01*
X99046804Y-69086251D01*
X99040742Y-69090076D01*
X99015432Y-69118734D01*
X99004593Y-69131007D01*
X99000325Y-69135548D01*
X98988318Y-69147555D01*
X98981426Y-69156751D01*
X98976344Y-69162992D01*
X98944322Y-69199251D01*
X98941275Y-69205742D01*
X98939895Y-69208680D01*
X98929336Y-69226254D01*
X98923084Y-69234595D01*
X98920568Y-69241305D01*
X98920568Y-69241306D01*
X98906102Y-69279894D01*
X98902974Y-69287318D01*
X98882419Y-69331100D01*
X98880888Y-69340935D01*
X98880817Y-69341390D01*
X98875615Y-69361217D01*
X98874472Y-69364268D01*
X98874471Y-69364272D01*
X98871955Y-69370984D01*
X98871204Y-69381095D01*
X98868372Y-69419205D01*
X98867451Y-69427230D01*
X98866163Y-69435500D01*
X98865200Y-69441686D01*
X98865200Y-69458160D01*
X98864923Y-69465614D01*
X98861161Y-69516241D01*
X98862657Y-69523249D01*
X98862657Y-69523251D01*
X98862983Y-69524780D01*
X98865200Y-69545782D01*
X98865200Y-73651468D01*
X98863759Y-73664366D01*
X98863783Y-73664368D01*
X98863209Y-73671506D01*
X98861626Y-73678500D01*
X98862461Y-73691955D01*
X98864243Y-73720685D01*
X98848728Y-73780892D01*
X98800787Y-73820482D01*
X98738733Y-73824332D01*
X98692701Y-73798049D01*
X98454965Y-73560313D01*
X98426739Y-73504915D01*
X98425500Y-73489178D01*
X98425500Y-72305533D01*
X98426941Y-72292636D01*
X98426917Y-72292634D01*
X98427492Y-72285493D01*
X98429074Y-72278500D01*
X98425693Y-72224002D01*
X98425500Y-72217773D01*
X98425500Y-72200787D01*
X98423872Y-72189419D01*
X98423050Y-72181396D01*
X98420499Y-72140274D01*
X98420499Y-72140272D01*
X98420055Y-72133123D01*
X98416518Y-72123325D01*
X98411557Y-72103428D01*
X98411096Y-72100211D01*
X98410080Y-72093113D01*
X98390060Y-72049082D01*
X98387017Y-72041607D01*
X98373030Y-72002861D01*
X98373030Y-72002860D01*
X98370596Y-71996119D01*
X98366367Y-71990330D01*
X98364448Y-71987703D01*
X98354103Y-71969999D01*
X98352759Y-71967043D01*
X98352758Y-71967041D01*
X98349792Y-71960518D01*
X98318213Y-71923868D01*
X98313216Y-71917575D01*
X98304575Y-71905747D01*
X98292923Y-71894095D01*
X98287858Y-71888640D01*
X98254713Y-71850173D01*
X98248698Y-71846274D01*
X98247387Y-71845424D01*
X98230970Y-71832142D01*
X97970963Y-71572135D01*
X97942737Y-71516737D01*
X97952463Y-71455329D01*
X97996427Y-71411365D01*
X98042098Y-71400400D01*
X98283170Y-71400400D01*
X98326141Y-71393594D01*
X98369884Y-71386666D01*
X98369886Y-71386665D01*
X98377705Y-71385427D01*
X98491647Y-71327371D01*
X98582071Y-71236947D01*
X98640127Y-71123005D01*
X98641367Y-71115180D01*
X98654480Y-71032383D01*
X98655100Y-71028470D01*
X98655100Y-70414930D01*
X98640127Y-70320395D01*
X98582071Y-70206453D01*
X98491647Y-70116029D01*
X98377705Y-70057973D01*
X98367861Y-70056414D01*
X98366036Y-70055484D01*
X98362355Y-70054288D01*
X98362544Y-70053705D01*
X98312464Y-70028187D01*
X98284238Y-69972789D01*
X98283000Y-69957053D01*
X98283000Y-69284079D01*
X98302213Y-69224948D01*
X98352513Y-69188403D01*
X98367863Y-69184718D01*
X98377001Y-69183271D01*
X98377003Y-69183270D01*
X98384822Y-69182032D01*
X98504055Y-69121280D01*
X98598680Y-69026655D01*
X98659432Y-68907422D01*
X98675100Y-68808498D01*
X98675100Y-68229502D01*
X98663173Y-68154198D01*
X98660671Y-68138399D01*
X98660670Y-68138395D01*
X98659432Y-68130578D01*
X98598680Y-68011345D01*
X98504055Y-67916720D01*
X98384822Y-67855968D01*
X98377003Y-67854730D01*
X98377001Y-67854729D01*
X98330512Y-67847366D01*
X98285898Y-67840300D01*
X97781902Y-67840300D01*
X97737288Y-67847366D01*
X97690799Y-67854729D01*
X97690797Y-67854730D01*
X97682978Y-67855968D01*
X97644242Y-67875705D01*
X97582834Y-67885431D01*
X97527436Y-67857205D01*
X97499210Y-67801807D01*
X97508936Y-67740399D01*
X97527436Y-67714935D01*
X103240438Y-62001933D01*
X103295836Y-61973707D01*
X103357244Y-61983433D01*
X103401208Y-62027397D01*
X103411819Y-62064648D01*
X103415829Y-62112394D01*
X103467381Y-62292179D01*
X103552872Y-62458527D01*
X103669046Y-62605102D01*
X103811477Y-62726320D01*
X103974740Y-62817564D01*
X103979421Y-62819085D01*
X104147937Y-62873840D01*
X104147940Y-62873841D01*
X104152616Y-62875360D01*
X104157498Y-62875942D01*
X104157502Y-62875943D01*
X104333441Y-62896922D01*
X104333442Y-62896922D01*
X104338331Y-62897505D01*
X104477002Y-62886835D01*
X104519898Y-62883534D01*
X104524810Y-62883156D01*
X104529550Y-62881832D01*
X104529553Y-62881832D01*
X104700208Y-62834184D01*
X104704950Y-62832860D01*
X104871891Y-62748532D01*
X105019273Y-62633385D01*
X105044746Y-62603874D01*
X105138267Y-62495529D01*
X105138268Y-62495527D01*
X105141482Y-62491804D01*
X105162872Y-62454151D01*
X105231433Y-62333462D01*
X105231434Y-62333459D01*
X105233864Y-62329182D01*
X105292900Y-62151713D01*
X105293516Y-62146836D01*
X105293517Y-62146832D01*
X105311646Y-62003322D01*
X105316341Y-61966158D01*
X105316634Y-61945221D01*
X105316676Y-61942213D01*
X105316676Y-61942207D01*
X105316715Y-61939400D01*
X105298464Y-61753262D01*
X105297042Y-61748552D01*
X105297041Y-61748547D01*
X105245830Y-61578930D01*
X105245828Y-61578926D01*
X105244406Y-61574215D01*
X105156601Y-61409077D01*
X105038392Y-61264138D01*
X105031561Y-61258487D01*
X104898071Y-61148054D01*
X104898066Y-61148051D01*
X104894283Y-61144921D01*
X104729762Y-61055965D01*
X104725064Y-61054511D01*
X104725060Y-61054509D01*
X104555793Y-61002112D01*
X104551096Y-61000658D01*
X104480894Y-60993279D01*
X104424096Y-60967992D01*
X104393009Y-60914148D01*
X104399507Y-60852314D01*
X104420275Y-60822096D01*
X105011368Y-60231003D01*
X105066766Y-60202777D01*
X105131581Y-60214322D01*
X105244740Y-60277564D01*
X105249421Y-60279085D01*
X105417937Y-60333840D01*
X105417940Y-60333841D01*
X105422616Y-60335360D01*
X105427498Y-60335942D01*
X105427502Y-60335943D01*
X105603441Y-60356922D01*
X105603442Y-60356922D01*
X105608331Y-60357505D01*
X105794810Y-60343156D01*
X105799550Y-60341832D01*
X105799553Y-60341832D01*
X105970208Y-60294184D01*
X105974950Y-60292860D01*
X106141891Y-60208532D01*
X106289273Y-60093385D01*
X106310932Y-60068293D01*
X106408267Y-59955529D01*
X106408268Y-59955527D01*
X106411482Y-59951804D01*
X106503864Y-59789182D01*
X106562900Y-59611713D01*
X106586341Y-59426158D01*
X106586715Y-59399400D01*
X106568464Y-59213262D01*
X106567042Y-59208552D01*
X106567041Y-59208547D01*
X106515830Y-59038930D01*
X106515828Y-59038926D01*
X106514406Y-59034215D01*
X106426601Y-58869077D01*
X106308392Y-58724138D01*
X106301561Y-58718487D01*
X106168071Y-58608054D01*
X106168066Y-58608051D01*
X106164283Y-58604921D01*
X105999762Y-58515965D01*
X105995064Y-58514511D01*
X105995060Y-58514509D01*
X105825793Y-58462112D01*
X105821096Y-58460658D01*
X105635090Y-58441108D01*
X105630189Y-58441554D01*
X105630186Y-58441554D01*
X105453729Y-58457613D01*
X105453727Y-58457613D01*
X105448830Y-58458059D01*
X105269409Y-58510866D01*
X105103662Y-58597516D01*
X104957902Y-58714710D01*
X104954736Y-58718483D01*
X104954732Y-58718487D01*
X104840846Y-58854212D01*
X104837681Y-58857984D01*
X104835312Y-58862292D01*
X104835310Y-58862296D01*
X104829194Y-58873422D01*
X104747579Y-59021880D01*
X104691026Y-59200155D01*
X104690478Y-59205042D01*
X104690477Y-59205046D01*
X104689006Y-59218161D01*
X104670178Y-59386020D01*
X104668899Y-59385877D01*
X104650692Y-59439340D01*
X104641280Y-59450205D01*
X96280650Y-67810835D01*
X96225252Y-67839061D01*
X96214790Y-67839885D01*
X96214798Y-67839990D01*
X96210862Y-67840300D01*
X96206902Y-67840300D01*
X96162288Y-67847366D01*
X96115799Y-67854729D01*
X96115797Y-67854730D01*
X96107978Y-67855968D01*
X95988745Y-67916720D01*
X95940735Y-67964730D01*
X95885337Y-67992956D01*
X95823929Y-67983230D01*
X95779965Y-67939266D01*
X95769000Y-67893595D01*
X95769000Y-53142746D01*
X95785468Y-53092064D01*
X101208367Y-53092064D01*
X101208713Y-53095690D01*
X101208713Y-53095693D01*
X101216948Y-53182000D01*
X101234218Y-53363011D01*
X101235082Y-53366541D01*
X101235083Y-53366548D01*
X101278902Y-53545618D01*
X101298911Y-53627389D01*
X101401090Y-53879659D01*
X101538617Y-54114537D01*
X101708609Y-54327101D01*
X101711271Y-54329587D01*
X101711274Y-54329591D01*
X101814886Y-54426379D01*
X101907505Y-54512899D01*
X101910495Y-54514974D01*
X101910496Y-54514974D01*
X102068691Y-54624718D01*
X102131139Y-54668040D01*
X102252049Y-54728192D01*
X102371561Y-54787649D01*
X102371565Y-54787651D01*
X102374826Y-54789273D01*
X102378282Y-54790406D01*
X102378287Y-54790408D01*
X102629995Y-54872922D01*
X102630002Y-54872924D01*
X102633462Y-54874058D01*
X102637056Y-54874682D01*
X102637060Y-54874683D01*
X102819925Y-54906433D01*
X102901628Y-54920619D01*
X102945691Y-54922813D01*
X102986390Y-54924839D01*
X102986403Y-54924839D01*
X102987622Y-54924900D01*
X103157544Y-54924900D01*
X103159358Y-54924768D01*
X103159368Y-54924768D01*
X103356227Y-54910484D01*
X103356228Y-54910484D01*
X103359864Y-54910220D01*
X103363422Y-54909434D01*
X103363425Y-54909434D01*
X103622078Y-54852329D01*
X103622080Y-54852328D01*
X103625642Y-54851542D01*
X103880165Y-54755112D01*
X104118102Y-54622950D01*
X104334468Y-54457824D01*
X104524731Y-54263194D01*
X104526877Y-54260246D01*
X104526881Y-54260241D01*
X104682754Y-54046093D01*
X104684906Y-54043137D01*
X104811636Y-53802263D01*
X104873391Y-53627389D01*
X104901055Y-53549051D01*
X104901056Y-53549047D01*
X104902267Y-53545618D01*
X104954900Y-53278577D01*
X104964185Y-53092064D01*
X154548367Y-53092064D01*
X154548713Y-53095690D01*
X154548713Y-53095693D01*
X154556948Y-53182000D01*
X154574218Y-53363011D01*
X154575082Y-53366541D01*
X154575083Y-53366548D01*
X154618902Y-53545618D01*
X154638911Y-53627389D01*
X154741090Y-53879659D01*
X154878617Y-54114537D01*
X155048609Y-54327101D01*
X155051271Y-54329587D01*
X155051274Y-54329591D01*
X155154886Y-54426379D01*
X155247505Y-54512899D01*
X155250495Y-54514974D01*
X155250496Y-54514974D01*
X155408691Y-54624718D01*
X155471139Y-54668040D01*
X155592049Y-54728192D01*
X155711561Y-54787649D01*
X155711565Y-54787651D01*
X155714826Y-54789273D01*
X155718282Y-54790406D01*
X155718287Y-54790408D01*
X155969995Y-54872922D01*
X155970002Y-54872924D01*
X155973462Y-54874058D01*
X155977056Y-54874682D01*
X155977060Y-54874683D01*
X156159925Y-54906433D01*
X156241628Y-54920619D01*
X156285691Y-54922813D01*
X156326390Y-54924839D01*
X156326403Y-54924839D01*
X156327622Y-54924900D01*
X156497544Y-54924900D01*
X156499358Y-54924768D01*
X156499368Y-54924768D01*
X156696227Y-54910484D01*
X156696228Y-54910484D01*
X156699864Y-54910220D01*
X156703422Y-54909434D01*
X156703425Y-54909434D01*
X156962078Y-54852329D01*
X156962080Y-54852328D01*
X156965642Y-54851542D01*
X157220165Y-54755112D01*
X157458102Y-54622950D01*
X157674468Y-54457824D01*
X157864731Y-54263194D01*
X157866877Y-54260246D01*
X157866881Y-54260241D01*
X158022754Y-54046093D01*
X158024906Y-54043137D01*
X158151636Y-53802263D01*
X158213391Y-53627389D01*
X158241055Y-53549051D01*
X158241056Y-53549047D01*
X158242267Y-53545618D01*
X158294900Y-53278577D01*
X158308433Y-53006736D01*
X158306531Y-52986794D01*
X158282928Y-52739415D01*
X158282928Y-52739414D01*
X158282582Y-52735789D01*
X158279327Y-52722483D01*
X158218755Y-52474950D01*
X158217889Y-52471411D01*
X158115710Y-52219141D01*
X158075639Y-52150704D01*
X158021881Y-52058894D01*
X157978183Y-51984263D01*
X157857210Y-51832994D01*
X157810468Y-51774546D01*
X157810467Y-51774544D01*
X157808191Y-51771699D01*
X157805529Y-51769213D01*
X157805526Y-51769209D01*
X157671052Y-51643591D01*
X157609295Y-51585901D01*
X157596464Y-51577000D01*
X157388654Y-51432836D01*
X157388651Y-51432834D01*
X157385661Y-51430760D01*
X157197197Y-51337000D01*
X157145239Y-51311151D01*
X157145235Y-51311149D01*
X157141974Y-51309527D01*
X157138518Y-51308394D01*
X157138513Y-51308392D01*
X156886805Y-51225878D01*
X156886798Y-51225876D01*
X156883338Y-51224742D01*
X156879744Y-51224118D01*
X156879740Y-51224117D01*
X156696875Y-51192367D01*
X156615172Y-51178181D01*
X156571109Y-51175987D01*
X156530410Y-51173961D01*
X156530397Y-51173961D01*
X156529178Y-51173900D01*
X156359256Y-51173900D01*
X156357442Y-51174032D01*
X156357432Y-51174032D01*
X156160573Y-51188316D01*
X156160572Y-51188316D01*
X156156936Y-51188580D01*
X156153378Y-51189366D01*
X156153375Y-51189366D01*
X155894722Y-51246471D01*
X155894720Y-51246472D01*
X155891158Y-51247258D01*
X155636635Y-51343688D01*
X155398698Y-51475850D01*
X155395800Y-51478061D01*
X155395801Y-51478061D01*
X155266846Y-51576477D01*
X155182332Y-51640976D01*
X155095860Y-51729432D01*
X154995924Y-51831663D01*
X154992069Y-51835606D01*
X154989923Y-51838554D01*
X154989919Y-51838559D01*
X154907755Y-51951441D01*
X154831894Y-52055663D01*
X154705164Y-52296537D01*
X154703951Y-52299971D01*
X154703950Y-52299974D01*
X154622223Y-52531407D01*
X154614533Y-52553182D01*
X154561900Y-52820223D01*
X154548367Y-53092064D01*
X104964185Y-53092064D01*
X104968433Y-53006736D01*
X104966531Y-52986794D01*
X104942928Y-52739415D01*
X104942928Y-52739414D01*
X104942582Y-52735789D01*
X104939327Y-52722483D01*
X104878755Y-52474950D01*
X104877889Y-52471411D01*
X104775710Y-52219141D01*
X104735639Y-52150704D01*
X104681881Y-52058894D01*
X104638183Y-51984263D01*
X104517210Y-51832994D01*
X104470468Y-51774546D01*
X104470467Y-51774544D01*
X104468191Y-51771699D01*
X104465529Y-51769213D01*
X104465526Y-51769209D01*
X104331052Y-51643591D01*
X104269295Y-51585901D01*
X104256464Y-51577000D01*
X104048654Y-51432836D01*
X104048651Y-51432834D01*
X104045661Y-51430760D01*
X103857197Y-51337000D01*
X103805239Y-51311151D01*
X103805235Y-51311149D01*
X103801974Y-51309527D01*
X103798518Y-51308394D01*
X103798513Y-51308392D01*
X103546805Y-51225878D01*
X103546798Y-51225876D01*
X103543338Y-51224742D01*
X103539744Y-51224118D01*
X103539740Y-51224117D01*
X103356875Y-51192367D01*
X103275172Y-51178181D01*
X103231109Y-51175987D01*
X103190410Y-51173961D01*
X103190397Y-51173961D01*
X103189178Y-51173900D01*
X103019256Y-51173900D01*
X103017442Y-51174032D01*
X103017432Y-51174032D01*
X102820573Y-51188316D01*
X102820572Y-51188316D01*
X102816936Y-51188580D01*
X102813378Y-51189366D01*
X102813375Y-51189366D01*
X102554722Y-51246471D01*
X102554720Y-51246472D01*
X102551158Y-51247258D01*
X102296635Y-51343688D01*
X102058698Y-51475850D01*
X102055800Y-51478061D01*
X102055801Y-51478061D01*
X101926846Y-51576477D01*
X101842332Y-51640976D01*
X101755860Y-51729432D01*
X101655924Y-51831663D01*
X101652069Y-51835606D01*
X101649923Y-51838554D01*
X101649919Y-51838559D01*
X101567755Y-51951441D01*
X101491894Y-52055663D01*
X101365164Y-52296537D01*
X101363951Y-52299971D01*
X101363950Y-52299974D01*
X101282223Y-52531407D01*
X101274533Y-52553182D01*
X101221900Y-52820223D01*
X101208367Y-53092064D01*
X95785468Y-53092064D01*
X95788213Y-53083615D01*
X95829600Y-53050440D01*
X95893449Y-53022772D01*
X95976000Y-52987000D01*
X95976428Y-52986803D01*
X95976449Y-52986794D01*
X96159044Y-52902899D01*
X96159050Y-52902896D01*
X96161000Y-52902000D01*
X96283780Y-52832314D01*
X96345125Y-52797497D01*
X96345139Y-52797488D01*
X96346000Y-52797000D01*
X96370167Y-52782000D01*
X96489615Y-52707860D01*
X96489623Y-52707855D01*
X96491000Y-52707000D01*
X96561000Y-52657000D01*
X96629596Y-52608003D01*
X96629599Y-52608001D01*
X96631000Y-52607000D01*
X96716000Y-52537000D01*
X96861000Y-52412000D01*
X97001000Y-52277000D01*
X97054231Y-52219141D01*
X97114876Y-52153222D01*
X97114880Y-52153218D01*
X97116000Y-52152000D01*
X97248586Y-51987411D01*
X97259671Y-51973650D01*
X97259673Y-51973648D01*
X97261000Y-51972000D01*
X97274500Y-51952000D01*
X97395073Y-51773374D01*
X97395079Y-51773364D01*
X97396000Y-51772000D01*
X97457250Y-51667000D01*
X97465711Y-51652496D01*
X97465724Y-51652473D01*
X97466000Y-51652000D01*
X97541000Y-51517000D01*
X97626000Y-51337000D01*
X97636053Y-51311151D01*
X97647919Y-51280638D01*
X97696000Y-51157000D01*
X97710546Y-51117000D01*
X97735502Y-51048369D01*
X97736000Y-51047000D01*
X97736419Y-51045604D01*
X97765817Y-50947611D01*
X97765823Y-50947590D01*
X97766000Y-50947000D01*
X97796000Y-50837000D01*
X97836000Y-50647000D01*
X97851000Y-50542000D01*
X97862913Y-50443718D01*
X97870913Y-50377722D01*
X97870916Y-50377689D01*
X97871000Y-50377000D01*
X97881000Y-50267000D01*
X97886000Y-50092000D01*
X97886000Y-49992000D01*
X97885674Y-49986938D01*
X97876023Y-49837355D01*
X97876022Y-49837337D01*
X97876000Y-49837000D01*
X97868275Y-49736576D01*
X99537934Y-49736576D01*
X99544407Y-49743579D01*
X99670487Y-49820840D01*
X99677499Y-49824413D01*
X99888793Y-49911935D01*
X99896299Y-49914373D01*
X100118672Y-49967760D01*
X100126464Y-49968994D01*
X100354461Y-49986938D01*
X100362339Y-49986938D01*
X100590336Y-49968994D01*
X100598128Y-49967760D01*
X100820501Y-49914373D01*
X100828007Y-49911935D01*
X101039301Y-49824413D01*
X101046313Y-49820840D01*
X101170672Y-49744634D01*
X101177554Y-49736576D01*
X158337934Y-49736576D01*
X158344407Y-49743579D01*
X158470487Y-49820840D01*
X158477499Y-49824413D01*
X158688793Y-49911935D01*
X158696299Y-49914373D01*
X158918672Y-49967760D01*
X158926464Y-49968994D01*
X159154461Y-49986938D01*
X159162339Y-49986938D01*
X159390336Y-49968994D01*
X159398128Y-49967760D01*
X159620501Y-49914373D01*
X159628007Y-49911935D01*
X159839301Y-49824413D01*
X159846313Y-49820840D01*
X159970672Y-49744634D01*
X159979078Y-49734792D01*
X159974417Y-49726469D01*
X159169668Y-48921720D01*
X159157589Y-48915565D01*
X159152477Y-48916375D01*
X158343811Y-49725041D01*
X158337934Y-49736576D01*
X101177554Y-49736576D01*
X101179078Y-49734792D01*
X101174417Y-49726469D01*
X100369668Y-48921720D01*
X100357589Y-48915565D01*
X100352477Y-48916375D01*
X99543811Y-49725041D01*
X99537934Y-49736576D01*
X97868275Y-49736576D01*
X97866000Y-49707000D01*
X97841000Y-49537000D01*
X97833847Y-49503617D01*
X97811000Y-49397000D01*
X97786276Y-49283270D01*
X97786000Y-49282000D01*
X97756000Y-49172000D01*
X97755664Y-49170955D01*
X97755657Y-49170931D01*
X97711289Y-49032900D01*
X97711000Y-49032000D01*
X97671000Y-48922000D01*
X97668479Y-48916375D01*
X97606000Y-48777000D01*
X97605955Y-48776900D01*
X97605896Y-48776768D01*
X97561612Y-48678359D01*
X97561606Y-48678347D01*
X97561000Y-48677000D01*
X97506000Y-48572000D01*
X97456744Y-48483339D01*
X98850862Y-48483339D01*
X98868806Y-48711336D01*
X98870040Y-48719128D01*
X98923427Y-48941501D01*
X98925865Y-48949007D01*
X99013387Y-49160301D01*
X99016960Y-49167313D01*
X99093166Y-49291672D01*
X99103008Y-49300078D01*
X99111331Y-49295417D01*
X99916080Y-48490668D01*
X99921408Y-48480211D01*
X100794565Y-48480211D01*
X100795375Y-48485323D01*
X101604041Y-49293989D01*
X101615576Y-49299866D01*
X101622579Y-49293393D01*
X101699840Y-49167313D01*
X101703413Y-49160301D01*
X101790935Y-48949007D01*
X101793373Y-48941501D01*
X101846760Y-48719128D01*
X101847994Y-48711336D01*
X101865938Y-48483339D01*
X157650862Y-48483339D01*
X157668806Y-48711336D01*
X157670040Y-48719128D01*
X157723427Y-48941501D01*
X157725865Y-48949007D01*
X157813387Y-49160301D01*
X157816960Y-49167313D01*
X157893166Y-49291672D01*
X157903008Y-49300078D01*
X157911331Y-49295417D01*
X158716080Y-48490668D01*
X158721408Y-48480211D01*
X159594565Y-48480211D01*
X159595375Y-48485323D01*
X160404041Y-49293989D01*
X160415576Y-49299866D01*
X160422579Y-49293393D01*
X160499840Y-49167313D01*
X160503413Y-49160301D01*
X160590935Y-48949007D01*
X160593373Y-48941501D01*
X160646760Y-48719128D01*
X160647994Y-48711336D01*
X160665938Y-48483339D01*
X160665938Y-48475461D01*
X160647994Y-48247464D01*
X160646760Y-48239672D01*
X160593373Y-48017299D01*
X160590935Y-48009793D01*
X160503413Y-47798499D01*
X160499840Y-47791487D01*
X160423634Y-47667128D01*
X160413792Y-47658722D01*
X160405469Y-47663383D01*
X159600720Y-48468132D01*
X159594565Y-48480211D01*
X158721408Y-48480211D01*
X158722235Y-48478589D01*
X158721425Y-48473477D01*
X157912759Y-47664811D01*
X157901224Y-47658934D01*
X157894221Y-47665407D01*
X157816960Y-47791487D01*
X157813387Y-47798499D01*
X157725865Y-48009793D01*
X157723427Y-48017299D01*
X157670040Y-48239672D01*
X157668806Y-48247464D01*
X157650862Y-48475461D01*
X157650862Y-48483339D01*
X101865938Y-48483339D01*
X101865938Y-48475461D01*
X101847994Y-48247464D01*
X101846760Y-48239672D01*
X101793373Y-48017299D01*
X101790935Y-48009793D01*
X101703413Y-47798499D01*
X101699840Y-47791487D01*
X101623634Y-47667128D01*
X101613792Y-47658722D01*
X101605469Y-47663383D01*
X100800720Y-48468132D01*
X100794565Y-48480211D01*
X99921408Y-48480211D01*
X99922235Y-48478589D01*
X99921425Y-48473477D01*
X99112759Y-47664811D01*
X99101224Y-47658934D01*
X99094221Y-47665407D01*
X99016960Y-47791487D01*
X99013387Y-47798499D01*
X98925865Y-48009793D01*
X98923427Y-48017299D01*
X98870040Y-48239672D01*
X98868806Y-48247464D01*
X98850862Y-48475461D01*
X98850862Y-48483339D01*
X97456744Y-48483339D01*
X97456000Y-48482000D01*
X97416000Y-48417000D01*
X97390716Y-48375626D01*
X97361520Y-48327850D01*
X97361507Y-48327830D01*
X97361000Y-48327000D01*
X97311000Y-48252000D01*
X97271000Y-48197000D01*
X97221000Y-48132000D01*
X97161000Y-48057000D01*
X97081000Y-47962000D01*
X97080022Y-47960964D01*
X96996509Y-47872538D01*
X96996478Y-47872507D01*
X96996000Y-47872000D01*
X96891000Y-47767000D01*
X96821000Y-47702000D01*
X96779974Y-47667128D01*
X96721698Y-47617593D01*
X96721688Y-47617585D01*
X96721000Y-47617000D01*
X96714164Y-47611603D01*
X96626972Y-47542767D01*
X96626962Y-47542760D01*
X96626000Y-47542000D01*
X96625020Y-47541300D01*
X96625008Y-47541291D01*
X96556380Y-47492271D01*
X96556355Y-47492253D01*
X96556000Y-47492000D01*
X96461000Y-47427000D01*
X96366000Y-47367000D01*
X96365353Y-47366619D01*
X96365331Y-47366606D01*
X96281546Y-47317321D01*
X96281535Y-47317315D01*
X96281000Y-47317000D01*
X96280476Y-47316709D01*
X96280436Y-47316686D01*
X96191950Y-47267528D01*
X96191000Y-47267000D01*
X96111000Y-47227000D01*
X96104786Y-47224008D01*
X99537722Y-47224008D01*
X99542383Y-47232331D01*
X100347132Y-48037080D01*
X100359211Y-48043235D01*
X100364323Y-48042425D01*
X101172989Y-47233759D01*
X101177957Y-47224008D01*
X158337722Y-47224008D01*
X158342383Y-47232331D01*
X159147132Y-48037080D01*
X159159211Y-48043235D01*
X159164323Y-48042425D01*
X159972989Y-47233759D01*
X159978866Y-47222224D01*
X159972393Y-47215221D01*
X159846313Y-47137960D01*
X159839301Y-47134387D01*
X159628007Y-47046865D01*
X159620501Y-47044427D01*
X159398128Y-46991040D01*
X159390336Y-46989806D01*
X159162339Y-46971862D01*
X159154461Y-46971862D01*
X158926464Y-46989806D01*
X158918672Y-46991040D01*
X158696299Y-47044427D01*
X158688793Y-47046865D01*
X158477499Y-47134387D01*
X158470487Y-47137960D01*
X158346128Y-47214166D01*
X158337722Y-47224008D01*
X101177957Y-47224008D01*
X101178866Y-47222224D01*
X101172393Y-47215221D01*
X101046313Y-47137960D01*
X101039301Y-47134387D01*
X100828007Y-47046865D01*
X100820501Y-47044427D01*
X100598128Y-46991040D01*
X100590336Y-46989806D01*
X100362339Y-46971862D01*
X100354461Y-46971862D01*
X100126464Y-46989806D01*
X100118672Y-46991040D01*
X99896299Y-47044427D01*
X99888793Y-47046865D01*
X99677499Y-47134387D01*
X99670487Y-47137960D01*
X99546128Y-47214166D01*
X99537722Y-47224008D01*
X96104786Y-47224008D01*
X95976000Y-47162000D01*
X95974002Y-47161239D01*
X95973993Y-47161235D01*
X95873276Y-47122867D01*
X95868800Y-47121037D01*
X95829275Y-47103745D01*
X95782806Y-47062445D01*
X95769000Y-47011582D01*
X95769000Y-42640270D01*
X95788213Y-42581139D01*
X95813709Y-42556624D01*
X95976553Y-42447814D01*
X95987949Y-42441235D01*
X96186856Y-42343143D01*
X96199014Y-42338107D01*
X96372135Y-42279339D01*
X96404472Y-42274000D01*
X162264053Y-42274000D01*
X162273914Y-42274484D01*
G37*
%TD.AperFunction*%
%TD*%
M02*
