%TF.GenerationSoftware,KiCad,Pcbnew,(6.0.9)*%
%TF.CreationDate,2023-11-10T22:20:32+05:30*%
%TF.ProjectId,RJ45-To-Terminal,524a3435-2d54-46f2-9d54-65726d696e61,2*%
%TF.SameCoordinates,Original*%
%TF.FileFunction,Paste,Bot*%
%TF.FilePolarity,Positive*%
%FSLAX46Y46*%
G04 Gerber Fmt 4.6, Leading zero omitted, Abs format (unit mm)*
G04 Created by KiCad (PCBNEW (6.0.9)) date 2023-11-10 22:20:32*
%MOMM*%
%LPD*%
G01*
G04 APERTURE LIST*
%ADD10C,2.600000*%
%ADD11C,1.500000*%
%ADD12C,2.000000*%
G04 APERTURE END LIST*
D10*
%TO.C,RJ45-1*%
X143728400Y-63209400D03*
X129758400Y-63209400D03*
X159158400Y-48479400D03*
X100358400Y-48479400D03*
X115788400Y-63209400D03*
D11*
X104358400Y-61939400D03*
X105628400Y-59399400D03*
X106898400Y-61939400D03*
X108168400Y-59399400D03*
X109438400Y-61939400D03*
X110708400Y-59399400D03*
X111978400Y-61939400D03*
X113248400Y-59399400D03*
X118328400Y-61939400D03*
X119598400Y-59399400D03*
X120868400Y-61939400D03*
X122138400Y-59399400D03*
X123408400Y-61939400D03*
X124678400Y-59399400D03*
X125948400Y-61939400D03*
X127218400Y-59399400D03*
X132298400Y-61939400D03*
X133568400Y-59399400D03*
X134838400Y-61939400D03*
X136108400Y-59399400D03*
X137378400Y-61939400D03*
X138648400Y-59399400D03*
X139918400Y-61939400D03*
X141188400Y-59399400D03*
X146268400Y-61939400D03*
X147538400Y-59399400D03*
X148808400Y-61939400D03*
X150078400Y-59399400D03*
X151348400Y-61939400D03*
X152618400Y-59399400D03*
X153888400Y-61939400D03*
X155158400Y-59399400D03*
%TD*%
D12*
%TO.C,J11*%
X111996000Y-91937300D03*
X111996000Y-89437300D03*
X108496000Y-91937300D03*
X108496000Y-89437300D03*
X104996000Y-91937300D03*
X104996000Y-89437300D03*
X101496000Y-91937300D03*
X101496000Y-89437300D03*
%TD*%
%TO.C,J12*%
X127388400Y-91937300D03*
X127388400Y-89437300D03*
X123888400Y-91937300D03*
X123888400Y-89437300D03*
X120388400Y-91937300D03*
X120388400Y-89437300D03*
X116888400Y-91937300D03*
X116888400Y-89437300D03*
%TD*%
%TO.C,J14*%
X158122400Y-92038900D03*
X158122400Y-89538900D03*
X154622400Y-92038900D03*
X154622400Y-89538900D03*
X151122400Y-92038900D03*
X151122400Y-89538900D03*
X147622400Y-92038900D03*
X147622400Y-89538900D03*
%TD*%
%TO.C,J13*%
X142730000Y-92038900D03*
X142730000Y-89538900D03*
X139230000Y-92038900D03*
X139230000Y-89538900D03*
X135730000Y-92038900D03*
X135730000Y-89538900D03*
X132230000Y-92038900D03*
X132230000Y-89538900D03*
%TD*%
M02*
