M48
METRIC,TZ
T1C0.400
T2C0.900
T3C1.400
T4C1.600
%
G90
G05
T1
X96401Y-70722
X100279Y-70722
X104343Y-70722
X108533Y-70722
X112724Y-70722
X117211Y-70722
X121785Y-70722
X126314Y-70722
X130943Y-70764
X135249Y-70722
X139417Y-70722
X143727Y-70722
X148149Y-70722
X152491Y-70722
X156809Y-70722
X161135Y-70722
T2
X104358Y-61939
X105628Y-59399
X106898Y-61939
X108168Y-59399
X109438Y-61939
X110708Y-59399
X111978Y-61939
X113248Y-59399
X118328Y-61939
X119598Y-59399
X120868Y-61939
X122138Y-59399
X123408Y-61939
X124678Y-59399
X125948Y-61939
X127218Y-59399
X132298Y-61939
X133568Y-59399
X134838Y-61939
X136108Y-59399
X137378Y-61939
X138648Y-59399
X139918Y-61939
X141188Y-59399
X146268Y-61939
X147538Y-59399
X148808Y-61939
X150078Y-59399
X151348Y-61939
X152618Y-59399
X153888Y-61939
X155158Y-59399
T3
X101496Y-89437
X101496Y-91937
X104996Y-89437
X104996Y-91937
X108496Y-89437
X108496Y-91937
X111996Y-89437
X111996Y-91937
X116888Y-89437
X116888Y-91937
X120388Y-89437
X120388Y-91937
X123888Y-89437
X123888Y-91937
X127388Y-89437
X127388Y-91937
X132230Y-89539
X132230Y-92039
X135730Y-89539
X135730Y-92039
X139230Y-89539
X139230Y-92039
X142730Y-89539
X142730Y-92039
X147622Y-89539
X147622Y-92039
X151122Y-89539
X151122Y-92039
X154622Y-89539
X154622Y-92039
X158122Y-89539
X158122Y-92039
T4
X100358Y-48479
X115788Y-63209
X129758Y-63209
X143728Y-63209
X159158Y-48479
T0
M30
