%TF.GenerationSoftware,KiCad,Pcbnew,(6.0.9)*%
%TF.CreationDate,2023-11-09T13:38:23+05:30*%
%TF.ProjectId,Modular-I2C-4PxRJ45-Relay-Driver,4d6f6475-6c61-4722-9d49-32432d345078,2*%
%TF.SameCoordinates,Original*%
%TF.FileFunction,Drillmap*%
%TF.FilePolarity,Positive*%
%FSLAX45Y45*%
G04 Gerber Fmt 4.5, Leading zero omitted, Abs format (unit mm)*
G04 Created by KiCad (PCBNEW (6.0.9)) date 2023-11-09 13:38:23*
%MOMM*%
%LPD*%
G01*
G04 APERTURE LIST*
%ADD10C,0.050000*%
%ADD11C,0.200000*%
%ADD12C,0.035000*%
%ADD13C,0.040000*%
%ADD14C,0.100000*%
%ADD15C,0.140000*%
%ADD16C,0.170000*%
G04 APERTURE END LIST*
D10*
X18439600Y-7168200D02*
X18439600Y-11048200D01*
X18439600Y-11368200D02*
X18439600Y-11808200D01*
X18239600Y-12008200D02*
X11689600Y-12008200D01*
X11689600Y-2008200D02*
G75*
G03*
X11489600Y-2208200I0J-200000D01*
G01*
X18239600Y-12008200D02*
G75*
G03*
X18439600Y-11808200I0J200000D01*
G01*
X11689600Y-2008200D02*
X18239600Y-2008200D01*
X11489600Y-2968200D02*
G75*
G03*
X11489600Y-2648200I-20070J160000D01*
G01*
X18439600Y-2648200D02*
G75*
G03*
X18439600Y-2968200I20070J-160000D01*
G01*
X18439600Y-6848200D02*
G75*
G03*
X18439600Y-7168200I20070J-160000D01*
G01*
X18439600Y-2208200D02*
X18439600Y-2648200D01*
X11489600Y-11808200D02*
X11489600Y-11368200D01*
X11489600Y-11368200D02*
G75*
G03*
X11489600Y-11048200I-20070J160000D01*
G01*
X11489600Y-2208200D02*
X11489600Y-2648200D01*
X11489600Y-2968200D02*
X11489600Y-6848200D01*
X18439600Y-11048200D02*
G75*
G03*
X18439600Y-11368200I20070J-160000D01*
G01*
X18439600Y-6848200D02*
X18439600Y-2968200D01*
X11489600Y-7168200D02*
G75*
G03*
X11489600Y-6848200I-20070J160000D01*
G01*
X18439600Y-2208200D02*
G75*
G03*
X18239600Y-2008200I-200000J0D01*
G01*
X11489600Y-11808200D02*
G75*
G03*
X11689600Y-12008200I200000J0D01*
G01*
X11489600Y-7168200D02*
X11489600Y-11048200D01*
D11*
D12*
X11895100Y-5735600D02*
X11930100Y-5770600D01*
X11930100Y-5735600D02*
X11895100Y-5770600D01*
X12032335Y-3175780D02*
X12067335Y-3210780D01*
X12067335Y-3175780D02*
X12032335Y-3210780D01*
X12840215Y-3882556D02*
X12875215Y-3917556D01*
X12875215Y-3882556D02*
X12840215Y-3917556D01*
X13023140Y-3799470D02*
X13058140Y-3834470D01*
X13058140Y-3799470D02*
X13023140Y-3834470D01*
X13125882Y-4349046D02*
X13160882Y-4384046D01*
X13160882Y-4349046D02*
X13125882Y-4384046D01*
X13128909Y-4252504D02*
X13163909Y-4287504D01*
X13163909Y-4252504D02*
X13128909Y-4287504D01*
X13131046Y-4156938D02*
X13166046Y-4191938D01*
X13166046Y-4156938D02*
X13131046Y-4191938D01*
X13131100Y-3712780D02*
X13166100Y-3747780D01*
X13166100Y-3712780D02*
X13131100Y-3747780D01*
X13139700Y-4061740D02*
X13174700Y-4096740D01*
X13174700Y-4061740D02*
X13139700Y-4096740D01*
X13142350Y-3607190D02*
X13177350Y-3642190D01*
X13177350Y-3607190D02*
X13142350Y-3642190D01*
X15147110Y-3898370D02*
X15182110Y-3933370D01*
X15182110Y-3898370D02*
X15147110Y-3933370D01*
X15147920Y-3792780D02*
X15182920Y-3827780D01*
X15182920Y-3792780D02*
X15147920Y-3827780D01*
X15158069Y-3602734D02*
X15193069Y-3637734D01*
X15193069Y-3602734D02*
X15158069Y-3637734D01*
X15162056Y-3698241D02*
X15197056Y-3733241D01*
X15197056Y-3698241D02*
X15162056Y-3733241D01*
X15166444Y-4143369D02*
X15201444Y-4178369D01*
X15201444Y-4143369D02*
X15166444Y-4178369D01*
X15169800Y-4238900D02*
X15204800Y-4273900D01*
X15204800Y-4238900D02*
X15169800Y-4273900D01*
X15170181Y-4047851D02*
X15205181Y-4082851D01*
X15205181Y-4047851D02*
X15170181Y-4082851D01*
X15171749Y-4345370D02*
X15206749Y-4380370D01*
X15206749Y-4345370D02*
X15171749Y-4380370D01*
X15720340Y-4991380D02*
X15755340Y-5026380D01*
X15755340Y-4991380D02*
X15720340Y-5026380D01*
X16067658Y-5228262D02*
X16102658Y-5263262D01*
X16102658Y-5228262D02*
X16067658Y-5263262D01*
X16309620Y-5179340D02*
X16344620Y-5214340D01*
X16344620Y-5179340D02*
X16309620Y-5214340D01*
X16397870Y-5072660D02*
X16432870Y-5107660D01*
X16432870Y-5072660D02*
X16397870Y-5107660D01*
X17381500Y-3462300D02*
X17416500Y-3497300D01*
X17416500Y-3462300D02*
X17381500Y-3497300D01*
X17470400Y-3380830D02*
X17505400Y-3415830D01*
X17505400Y-3380830D02*
X17470400Y-3415830D01*
D13*
X11640500Y-9271000D02*
G75*
G03*
X11640500Y-9271000I-20000J0D01*
G01*
X11729400Y-9461500D02*
G75*
G03*
X11729400Y-9461500I-20000J0D01*
G01*
X11805600Y-4025900D02*
G75*
G03*
X11805600Y-4025900I-20000J0D01*
G01*
X12049440Y-9271000D02*
G75*
G03*
X12049440Y-9271000I-20000J0D01*
G01*
X12123100Y-9461500D02*
G75*
G03*
X12123100Y-9461500I-20000J0D01*
G01*
X12453300Y-9258300D02*
G75*
G03*
X12453300Y-9258300I-20000J0D01*
G01*
X12542200Y-9474200D02*
G75*
G03*
X12542200Y-9474200I-20000J0D01*
G01*
X12618400Y-3103880D02*
G75*
G03*
X12618400Y-3103880I-20000J0D01*
G01*
X12657387Y-4902200D02*
G75*
G03*
X12657387Y-4902200I-20000J0D01*
G01*
X12737657Y-5181600D02*
G75*
G03*
X12737657Y-5181600I-20000J0D01*
G01*
X12745400Y-6502400D02*
G75*
G03*
X12745400Y-6502400I-20000J0D01*
G01*
X12872400Y-9271000D02*
G75*
G03*
X12872400Y-9271000I-20000J0D01*
G01*
X12961300Y-5118100D02*
G75*
G03*
X12961300Y-5118100I-20000J0D01*
G01*
X12961300Y-9474200D02*
G75*
G03*
X12961300Y-9474200I-20000J0D01*
G01*
X13004480Y-6517640D02*
G75*
G03*
X13004480Y-6517640I-20000J0D01*
G01*
X13075600Y-5334000D02*
G75*
G03*
X13075600Y-5334000I-20000J0D01*
G01*
X13229270Y-5246370D02*
G75*
G03*
X13229270Y-5246370I-20000J0D01*
G01*
X13253400Y-6502400D02*
G75*
G03*
X13253400Y-6502400I-20000J0D01*
G01*
X13278800Y-9271000D02*
G75*
G03*
X13278800Y-9271000I-20000J0D01*
G01*
X13380400Y-9448800D02*
G75*
G03*
X13380400Y-9448800I-20000J0D01*
G01*
X13507400Y-6502400D02*
G75*
G03*
X13507400Y-6502400I-20000J0D01*
G01*
X13697235Y-4972680D02*
G75*
G03*
X13697235Y-4972680I-20000J0D01*
G01*
X13748700Y-9271000D02*
G75*
G03*
X13748700Y-9271000I-20000J0D01*
G01*
X13837600Y-9448800D02*
G75*
G03*
X13837600Y-9448800I-20000J0D01*
G01*
X13926500Y-6502400D02*
G75*
G03*
X13926500Y-6502400I-20000J0D01*
G01*
X13951900Y-5263250D02*
G75*
G03*
X13951900Y-5263250I-20000J0D01*
G01*
X14002700Y-5105400D02*
G75*
G03*
X14002700Y-5105400I-20000J0D01*
G01*
X14180500Y-6502400D02*
G75*
G03*
X14180500Y-6502400I-20000J0D01*
G01*
X14205900Y-9271000D02*
G75*
G03*
X14205900Y-9271000I-20000J0D01*
G01*
X14226290Y-5353680D02*
G75*
G03*
X14226290Y-5353680I-20000J0D01*
G01*
X14294800Y-9461500D02*
G75*
G03*
X14294800Y-9461500I-20000J0D01*
G01*
X14312580Y-5199380D02*
G75*
G03*
X14312580Y-5199380I-20000J0D01*
G01*
X14434500Y-6502400D02*
G75*
G03*
X14434500Y-6502400I-20000J0D01*
G01*
X14650400Y-9271000D02*
G75*
G03*
X14650400Y-9271000I-20000J0D01*
G01*
X14688500Y-6502400D02*
G75*
G03*
X14688500Y-6502400I-20000J0D01*
G01*
X14752000Y-9448800D02*
G75*
G03*
X14752000Y-9448800I-20000J0D01*
G01*
X14802135Y-5010780D02*
G75*
G03*
X14802135Y-5010780I-20000J0D01*
G01*
X14816800Y-8325130D02*
G75*
G03*
X14816800Y-8325130I-20000J0D01*
G01*
X15082200Y-5118100D02*
G75*
G03*
X15082200Y-5118100I-20000J0D01*
G01*
X15083204Y-5307070D02*
G75*
G03*
X15083204Y-5307070I-20000J0D01*
G01*
X15092360Y-6527800D02*
G75*
G03*
X15092360Y-6527800I-20000J0D01*
G01*
X15117760Y-9265920D02*
G75*
G03*
X15117760Y-9265920I-20000J0D01*
G01*
X15209200Y-7056120D02*
G75*
G03*
X15209200Y-7056120I-20000J0D01*
G01*
X15209200Y-7203440D02*
G75*
G03*
X15209200Y-7203440I-20000J0D01*
G01*
X15209200Y-7335520D02*
G75*
G03*
X15209200Y-7335520I-20000J0D01*
G01*
X15209200Y-7462520D02*
G75*
G03*
X15209200Y-7462520I-20000J0D01*
G01*
X15209200Y-7589520D02*
G75*
G03*
X15209200Y-7589520I-20000J0D01*
G01*
X15209200Y-7706360D02*
G75*
G03*
X15209200Y-7706360I-20000J0D01*
G01*
X15209200Y-9448800D02*
G75*
G03*
X15209200Y-9448800I-20000J0D01*
G01*
X15305720Y-7056120D02*
G75*
G03*
X15305720Y-7056120I-20000J0D01*
G01*
X15305720Y-7203440D02*
G75*
G03*
X15305720Y-7203440I-20000J0D01*
G01*
X15305720Y-7335520D02*
G75*
G03*
X15305720Y-7335520I-20000J0D01*
G01*
X15305720Y-7462520D02*
G75*
G03*
X15305720Y-7462520I-20000J0D01*
G01*
X15305720Y-7589520D02*
G75*
G03*
X15305720Y-7589520I-20000J0D01*
G01*
X15305720Y-7706360D02*
G75*
G03*
X15305720Y-7706360I-20000J0D01*
G01*
X15305720Y-7813040D02*
G75*
G03*
X15305720Y-7813040I-20000J0D01*
G01*
X15348900Y-5295900D02*
G75*
G03*
X15348900Y-5295900I-20000J0D01*
G01*
X15348900Y-6502400D02*
G75*
G03*
X15348900Y-6502400I-20000J0D01*
G01*
X15397160Y-7056120D02*
G75*
G03*
X15397160Y-7056120I-20000J0D01*
G01*
X15397160Y-7203440D02*
G75*
G03*
X15397160Y-7203440I-20000J0D01*
G01*
X15397160Y-7335520D02*
G75*
G03*
X15397160Y-7335520I-20000J0D01*
G01*
X15397160Y-7462520D02*
G75*
G03*
X15397160Y-7462520I-20000J0D01*
G01*
X15397160Y-7589520D02*
G75*
G03*
X15397160Y-7589520I-20000J0D01*
G01*
X15397160Y-7706360D02*
G75*
G03*
X15397160Y-7706360I-20000J0D01*
G01*
X15397160Y-7813040D02*
G75*
G03*
X15397160Y-7813040I-20000J0D01*
G01*
X15399700Y-2995280D02*
G75*
G03*
X15399700Y-2995280I-20000J0D01*
G01*
X15400780Y-2871280D02*
G75*
G03*
X15400780Y-2871280I-20000J0D01*
G01*
X15407320Y-5186680D02*
G75*
G03*
X15407320Y-5186680I-20000J0D01*
G01*
X15417480Y-3134360D02*
G75*
G03*
X15417480Y-3134360I-20000J0D01*
G01*
X15552100Y-9271000D02*
G75*
G03*
X15552100Y-9271000I-20000J0D01*
G01*
X15602900Y-6502400D02*
G75*
G03*
X15602900Y-6502400I-20000J0D01*
G01*
X15641000Y-9461500D02*
G75*
G03*
X15641000Y-9461500I-20000J0D01*
G01*
X15717200Y-8392160D02*
G75*
G03*
X15717200Y-8392160I-20000J0D01*
G01*
X15813720Y-8392160D02*
G75*
G03*
X15813720Y-8392160I-20000J0D01*
G01*
X15856900Y-6502400D02*
G75*
G03*
X15856900Y-6502400I-20000J0D01*
G01*
X15905160Y-5120640D02*
G75*
G03*
X15905160Y-5120640I-20000J0D01*
G01*
X15915320Y-8392160D02*
G75*
G03*
X15915320Y-8392160I-20000J0D01*
G01*
X15958500Y-9271000D02*
G75*
G03*
X15958500Y-9271000I-20000J0D01*
G01*
X16060100Y-9448800D02*
G75*
G03*
X16060100Y-9448800I-20000J0D01*
G01*
X16062640Y-7736840D02*
G75*
G03*
X16062640Y-7736840I-20000J0D01*
G01*
X16062640Y-7843520D02*
G75*
G03*
X16062640Y-7843520I-20000J0D01*
G01*
X16062640Y-7945120D02*
G75*
G03*
X16062640Y-7945120I-20000J0D01*
G01*
X16062640Y-8056880D02*
G75*
G03*
X16062640Y-8056880I-20000J0D01*
G01*
X16159160Y-7736840D02*
G75*
G03*
X16159160Y-7736840I-20000J0D01*
G01*
X16159160Y-7843520D02*
G75*
G03*
X16159160Y-7843520I-20000J0D01*
G01*
X16159160Y-7945120D02*
G75*
G03*
X16159160Y-7945120I-20000J0D01*
G01*
X16159160Y-8056880D02*
G75*
G03*
X16159160Y-8056880I-20000J0D01*
G01*
X16225200Y-6502400D02*
G75*
G03*
X16225200Y-6502400I-20000J0D01*
G01*
X16250600Y-7193280D02*
G75*
G03*
X16250600Y-7193280I-20000J0D01*
G01*
X16250600Y-7320280D02*
G75*
G03*
X16250600Y-7320280I-20000J0D01*
G01*
X16250600Y-7457440D02*
G75*
G03*
X16250600Y-7457440I-20000J0D01*
G01*
X16255680Y-7061200D02*
G75*
G03*
X16255680Y-7061200I-20000J0D01*
G01*
X16255680Y-7574280D02*
G75*
G03*
X16255680Y-7574280I-20000J0D01*
G01*
X16255680Y-7731760D02*
G75*
G03*
X16255680Y-7731760I-20000J0D01*
G01*
X16255680Y-7838440D02*
G75*
G03*
X16255680Y-7838440I-20000J0D01*
G01*
X16255680Y-7940040D02*
G75*
G03*
X16255680Y-7940040I-20000J0D01*
G01*
X16255680Y-8051800D02*
G75*
G03*
X16255680Y-8051800I-20000J0D01*
G01*
X16347120Y-7198360D02*
G75*
G03*
X16347120Y-7198360I-20000J0D01*
G01*
X16347120Y-7325360D02*
G75*
G03*
X16347120Y-7325360I-20000J0D01*
G01*
X16347120Y-7462520D02*
G75*
G03*
X16347120Y-7462520I-20000J0D01*
G01*
X16352200Y-7579360D02*
G75*
G03*
X16352200Y-7579360I-20000J0D01*
G01*
X16352200Y-7731760D02*
G75*
G03*
X16352200Y-7731760I-20000J0D01*
G01*
X16352200Y-7838440D02*
G75*
G03*
X16352200Y-7838440I-20000J0D01*
G01*
X16352200Y-7940040D02*
G75*
G03*
X16352200Y-7940040I-20000J0D01*
G01*
X16352200Y-8051800D02*
G75*
G03*
X16352200Y-8051800I-20000J0D01*
G01*
X16390300Y-9271000D02*
G75*
G03*
X16390300Y-9271000I-20000J0D01*
G01*
X16448720Y-7198360D02*
G75*
G03*
X16448720Y-7198360I-20000J0D01*
G01*
X16448720Y-7325360D02*
G75*
G03*
X16448720Y-7325360I-20000J0D01*
G01*
X16448720Y-7462520D02*
G75*
G03*
X16448720Y-7462520I-20000J0D01*
G01*
X16453800Y-7579360D02*
G75*
G03*
X16453800Y-7579360I-20000J0D01*
G01*
X16479200Y-6502400D02*
G75*
G03*
X16479200Y-6502400I-20000J0D01*
G01*
X16479200Y-9461500D02*
G75*
G03*
X16479200Y-9461500I-20000J0D01*
G01*
X16733200Y-6502400D02*
G75*
G03*
X16733200Y-6502400I-20000J0D01*
G01*
X16808735Y-2780850D02*
G75*
G03*
X16808735Y-2780850I-20000J0D01*
G01*
X16816507Y-3499480D02*
G75*
G03*
X16816507Y-3499480I-20000J0D01*
G01*
X16834800Y-9283700D02*
G75*
G03*
X16834800Y-9283700I-20000J0D01*
G01*
X16936400Y-9461500D02*
G75*
G03*
X16936400Y-9461500I-20000J0D01*
G01*
X16997360Y-6522720D02*
G75*
G03*
X16997360Y-6522720I-20000J0D01*
G01*
X17024635Y-3131155D02*
G75*
G03*
X17024635Y-3131155I-20000J0D01*
G01*
X17027840Y-8382000D02*
G75*
G03*
X17027840Y-8382000I-20000J0D01*
G01*
X17083600Y-7756480D02*
G75*
G03*
X17083600Y-7756480I-20000J0D01*
G01*
X17215135Y-4763165D02*
G75*
G03*
X17215135Y-4763165I-20000J0D01*
G01*
X17266600Y-9283700D02*
G75*
G03*
X17266600Y-9283700I-20000J0D01*
G01*
X17355500Y-9461500D02*
G75*
G03*
X17355500Y-9461500I-20000J0D01*
G01*
X17698400Y-9271000D02*
G75*
G03*
X17698400Y-9271000I-20000J0D01*
G01*
X17787300Y-9461500D02*
G75*
G03*
X17787300Y-9461500I-20000J0D01*
G01*
X18130200Y-9276080D02*
G75*
G03*
X18130200Y-9276080I-20000J0D01*
G01*
X18219100Y-9461500D02*
G75*
G03*
X18219100Y-9461500I-20000J0D01*
G01*
D14*
X11925300Y-4928400D02*
X11925300Y-5028400D01*
X11875300Y-4978400D02*
X11975300Y-4978400D01*
X11925300Y-5182400D02*
X11925300Y-5282400D01*
X11875300Y-5232400D02*
X11975300Y-5232400D01*
X11925300Y-5436400D02*
X11925300Y-5536400D01*
X11875300Y-5486400D02*
X11975300Y-5486400D01*
X12179300Y-4928400D02*
X12179300Y-5028400D01*
X12129300Y-4978400D02*
X12229300Y-4978400D01*
X12179300Y-5182400D02*
X12179300Y-5282400D01*
X12129300Y-5232400D02*
X12229300Y-5232400D01*
X12179300Y-5436400D02*
X12179300Y-5536400D01*
X12129300Y-5486400D02*
X12229300Y-5486400D01*
X17739360Y-4928400D02*
X17739360Y-5028400D01*
X17689360Y-4978400D02*
X17789360Y-4978400D01*
X17739360Y-5182400D02*
X17739360Y-5282400D01*
X17689360Y-5232400D02*
X17789360Y-5232400D01*
X17739360Y-5436400D02*
X17739360Y-5536400D01*
X17689360Y-5486400D02*
X17789360Y-5486400D01*
X17993360Y-4928400D02*
X17993360Y-5028400D01*
X17943360Y-4978400D02*
X18043360Y-4978400D01*
X17993360Y-5182400D02*
X17993360Y-5282400D01*
X17943360Y-5232400D02*
X18043360Y-5232400D01*
X17993360Y-5436400D02*
X17993360Y-5536400D01*
X17943360Y-5486400D02*
X18043360Y-5486400D01*
D15*
X12199098Y-10993228D02*
X12199098Y-10894232D01*
X12100102Y-10894232D01*
X12100102Y-10993228D01*
X12199098Y-10993228D01*
X12199098Y-11243228D02*
X12199098Y-11144232D01*
X12100102Y-11144232D01*
X12100102Y-11243228D01*
X12199098Y-11243228D01*
X12549098Y-10993228D02*
X12549098Y-10894232D01*
X12450102Y-10894232D01*
X12450102Y-10993228D01*
X12549098Y-10993228D01*
X12549098Y-11243228D02*
X12549098Y-11144232D01*
X12450102Y-11144232D01*
X12450102Y-11243228D01*
X12549098Y-11243228D01*
X12899098Y-10993228D02*
X12899098Y-10894232D01*
X12800102Y-10894232D01*
X12800102Y-10993228D01*
X12899098Y-10993228D01*
X12899098Y-11243228D02*
X12899098Y-11144232D01*
X12800102Y-11144232D01*
X12800102Y-11243228D01*
X12899098Y-11243228D01*
X13249098Y-10993228D02*
X13249098Y-10894232D01*
X13150102Y-10894232D01*
X13150102Y-10993228D01*
X13249098Y-10993228D01*
X13249098Y-11243228D02*
X13249098Y-11144232D01*
X13150102Y-11144232D01*
X13150102Y-11243228D01*
X13249098Y-11243228D01*
X13738338Y-10993228D02*
X13738338Y-10894232D01*
X13639342Y-10894232D01*
X13639342Y-10993228D01*
X13738338Y-10993228D01*
X13738338Y-11243228D02*
X13738338Y-11144232D01*
X13639342Y-11144232D01*
X13639342Y-11243228D01*
X13738338Y-11243228D01*
X14088338Y-10993228D02*
X14088338Y-10894232D01*
X13989342Y-10894232D01*
X13989342Y-10993228D01*
X14088338Y-10993228D01*
X14088338Y-11243228D02*
X14088338Y-11144232D01*
X13989342Y-11144232D01*
X13989342Y-11243228D01*
X14088338Y-11243228D01*
X14438338Y-10993228D02*
X14438338Y-10894232D01*
X14339342Y-10894232D01*
X14339342Y-10993228D01*
X14438338Y-10993228D01*
X14438338Y-11243228D02*
X14438338Y-11144232D01*
X14339342Y-11144232D01*
X14339342Y-11243228D01*
X14438338Y-11243228D01*
X14788338Y-10993228D02*
X14788338Y-10894232D01*
X14689342Y-10894232D01*
X14689342Y-10993228D01*
X14788338Y-10993228D01*
X14788338Y-11243228D02*
X14788338Y-11144232D01*
X14689342Y-11144232D01*
X14689342Y-11243228D01*
X14788338Y-11243228D01*
X15272498Y-11003388D02*
X15272498Y-10904392D01*
X15173502Y-10904392D01*
X15173502Y-11003388D01*
X15272498Y-11003388D01*
X15272498Y-11253388D02*
X15272498Y-11154392D01*
X15173502Y-11154392D01*
X15173502Y-11253388D01*
X15272498Y-11253388D01*
X15622498Y-11003388D02*
X15622498Y-10904392D01*
X15523502Y-10904392D01*
X15523502Y-11003388D01*
X15622498Y-11003388D01*
X15622498Y-11253388D02*
X15622498Y-11154392D01*
X15523502Y-11154392D01*
X15523502Y-11253388D01*
X15622498Y-11253388D01*
X15972498Y-11003388D02*
X15972498Y-10904392D01*
X15873502Y-10904392D01*
X15873502Y-11003388D01*
X15972498Y-11003388D01*
X15972498Y-11253388D02*
X15972498Y-11154392D01*
X15873502Y-11154392D01*
X15873502Y-11253388D01*
X15972498Y-11253388D01*
X16322498Y-11003388D02*
X16322498Y-10904392D01*
X16223502Y-10904392D01*
X16223502Y-11003388D01*
X16322498Y-11003388D01*
X16322498Y-11253388D02*
X16322498Y-11154392D01*
X16223502Y-11154392D01*
X16223502Y-11253388D01*
X16322498Y-11253388D01*
X16811738Y-11003388D02*
X16811738Y-10904392D01*
X16712742Y-10904392D01*
X16712742Y-11003388D01*
X16811738Y-11003388D01*
X16811738Y-11253388D02*
X16811738Y-11154392D01*
X16712742Y-11154392D01*
X16712742Y-11253388D01*
X16811738Y-11253388D01*
X17161738Y-11003388D02*
X17161738Y-10904392D01*
X17062742Y-10904392D01*
X17062742Y-11003388D01*
X17161738Y-11003388D01*
X17161738Y-11253388D02*
X17161738Y-11154392D01*
X17062742Y-11154392D01*
X17062742Y-11253388D01*
X17161738Y-11253388D01*
X17511738Y-11003388D02*
X17511738Y-10904392D01*
X17412742Y-10904392D01*
X17412742Y-11003388D01*
X17511738Y-11003388D01*
X17511738Y-11253388D02*
X17511738Y-11154392D01*
X17412742Y-11154392D01*
X17412742Y-11253388D01*
X17511738Y-11253388D01*
X17861738Y-11003388D02*
X17861738Y-10904392D01*
X17762742Y-10904392D01*
X17762742Y-11003388D01*
X17861738Y-11003388D01*
X17861738Y-11253388D02*
X17861738Y-11154392D01*
X17762742Y-11154392D01*
X17762742Y-11253388D01*
X17861738Y-11253388D01*
D16*
X11993880Y-7891980D02*
X12078880Y-7806980D01*
X11993880Y-7721980D01*
X11908880Y-7806980D01*
X11993880Y-7891980D01*
X11993880Y-8391780D02*
X12078880Y-8306780D01*
X11993880Y-8221780D01*
X11908880Y-8306780D01*
X11993880Y-8391780D01*
X17936790Y-7898580D02*
X18021790Y-7813580D01*
X17936790Y-7728580D01*
X17851790Y-7813580D01*
X17936790Y-7898580D01*
X17936790Y-8398380D02*
X18021790Y-8313380D01*
X17936790Y-8228380D01*
X17851790Y-8313380D01*
X17936790Y-8398380D01*
D11*
X11744719Y-12321176D02*
X11744719Y-12121176D01*
X11792338Y-12121176D01*
X11820909Y-12130700D01*
X11839957Y-12149748D01*
X11849481Y-12168795D01*
X11859005Y-12206890D01*
X11859005Y-12235462D01*
X11849481Y-12273557D01*
X11839957Y-12292605D01*
X11820909Y-12311652D01*
X11792338Y-12321176D01*
X11744719Y-12321176D01*
X11944719Y-12321176D02*
X11944719Y-12187843D01*
X11944719Y-12225938D02*
X11954243Y-12206890D01*
X11963767Y-12197367D01*
X11982814Y-12187843D01*
X12001862Y-12187843D01*
X12068528Y-12321176D02*
X12068528Y-12187843D01*
X12068528Y-12121176D02*
X12059005Y-12130700D01*
X12068528Y-12140224D01*
X12078052Y-12130700D01*
X12068528Y-12121176D01*
X12068528Y-12140224D01*
X12192338Y-12321176D02*
X12173290Y-12311652D01*
X12163767Y-12292605D01*
X12163767Y-12121176D01*
X12297100Y-12321176D02*
X12278052Y-12311652D01*
X12268528Y-12292605D01*
X12268528Y-12121176D01*
X12525671Y-12321176D02*
X12525671Y-12121176D01*
X12592338Y-12264033D01*
X12659005Y-12121176D01*
X12659005Y-12321176D01*
X12839957Y-12321176D02*
X12839957Y-12216414D01*
X12830433Y-12197367D01*
X12811386Y-12187843D01*
X12773290Y-12187843D01*
X12754243Y-12197367D01*
X12839957Y-12311652D02*
X12820909Y-12321176D01*
X12773290Y-12321176D01*
X12754243Y-12311652D01*
X12744719Y-12292605D01*
X12744719Y-12273557D01*
X12754243Y-12254509D01*
X12773290Y-12244986D01*
X12820909Y-12244986D01*
X12839957Y-12235462D01*
X12935195Y-12187843D02*
X12935195Y-12387843D01*
X12935195Y-12197367D02*
X12954243Y-12187843D01*
X12992338Y-12187843D01*
X13011386Y-12197367D01*
X13020909Y-12206890D01*
X13030433Y-12225938D01*
X13030433Y-12283081D01*
X13020909Y-12302128D01*
X13011386Y-12311652D01*
X12992338Y-12321176D01*
X12954243Y-12321176D01*
X12935195Y-12311652D01*
X13116148Y-12302128D02*
X13125671Y-12311652D01*
X13116148Y-12321176D01*
X13106624Y-12311652D01*
X13116148Y-12302128D01*
X13116148Y-12321176D01*
X13116148Y-12197367D02*
X13125671Y-12206890D01*
X13116148Y-12216414D01*
X13106624Y-12206890D01*
X13116148Y-12197367D01*
X13116148Y-12216414D01*
D12*
X11452100Y-12633200D02*
X11487100Y-12668200D01*
X11487100Y-12633200D02*
X11452100Y-12668200D01*
D11*
X11782814Y-12541176D02*
X11801862Y-12541176D01*
X11820909Y-12550700D01*
X11830433Y-12560224D01*
X11839957Y-12579271D01*
X11849481Y-12617367D01*
X11849481Y-12664986D01*
X11839957Y-12703081D01*
X11830433Y-12722128D01*
X11820909Y-12731652D01*
X11801862Y-12741176D01*
X11782814Y-12741176D01*
X11763767Y-12731652D01*
X11754243Y-12722128D01*
X11744719Y-12703081D01*
X11735195Y-12664986D01*
X11735195Y-12617367D01*
X11744719Y-12579271D01*
X11754243Y-12560224D01*
X11763767Y-12550700D01*
X11782814Y-12541176D01*
X11935195Y-12722128D02*
X11944719Y-12731652D01*
X11935195Y-12741176D01*
X11925671Y-12731652D01*
X11935195Y-12722128D01*
X11935195Y-12741176D01*
X12011386Y-12541176D02*
X12135195Y-12541176D01*
X12068528Y-12617367D01*
X12097100Y-12617367D01*
X12116148Y-12626890D01*
X12125671Y-12636414D01*
X12135195Y-12655462D01*
X12135195Y-12703081D01*
X12125671Y-12722128D01*
X12116148Y-12731652D01*
X12097100Y-12741176D01*
X12039957Y-12741176D01*
X12020909Y-12731652D01*
X12011386Y-12722128D01*
X12316148Y-12541176D02*
X12220909Y-12541176D01*
X12211386Y-12636414D01*
X12220909Y-12626890D01*
X12239957Y-12617367D01*
X12287576Y-12617367D01*
X12306624Y-12626890D01*
X12316148Y-12636414D01*
X12325671Y-12655462D01*
X12325671Y-12703081D01*
X12316148Y-12722128D01*
X12306624Y-12731652D01*
X12287576Y-12741176D01*
X12239957Y-12741176D01*
X12220909Y-12731652D01*
X12211386Y-12722128D01*
X12449481Y-12541176D02*
X12468528Y-12541176D01*
X12487576Y-12550700D01*
X12497100Y-12560224D01*
X12506624Y-12579271D01*
X12516148Y-12617367D01*
X12516148Y-12664986D01*
X12506624Y-12703081D01*
X12497100Y-12722128D01*
X12487576Y-12731652D01*
X12468528Y-12741176D01*
X12449481Y-12741176D01*
X12430433Y-12731652D01*
X12420909Y-12722128D01*
X12411386Y-12703081D01*
X12401862Y-12664986D01*
X12401862Y-12617367D01*
X12411386Y-12579271D01*
X12420909Y-12560224D01*
X12430433Y-12550700D01*
X12449481Y-12541176D01*
X12601862Y-12741176D02*
X12601862Y-12607843D01*
X12601862Y-12626890D02*
X12611386Y-12617367D01*
X12630433Y-12607843D01*
X12659005Y-12607843D01*
X12678052Y-12617367D01*
X12687576Y-12636414D01*
X12687576Y-12741176D01*
X12687576Y-12636414D02*
X12697100Y-12617367D01*
X12716148Y-12607843D01*
X12744719Y-12607843D01*
X12763767Y-12617367D01*
X12773290Y-12636414D01*
X12773290Y-12741176D01*
X12868528Y-12741176D02*
X12868528Y-12607843D01*
X12868528Y-12626890D02*
X12878052Y-12617367D01*
X12897100Y-12607843D01*
X12925671Y-12607843D01*
X12944719Y-12617367D01*
X12954243Y-12636414D01*
X12954243Y-12741176D01*
X12954243Y-12636414D02*
X12963767Y-12617367D01*
X12982814Y-12607843D01*
X13011386Y-12607843D01*
X13030433Y-12617367D01*
X13039957Y-12636414D01*
X13039957Y-12741176D01*
X13430433Y-12531652D02*
X13259005Y-12788795D01*
X13687576Y-12541176D02*
X13706624Y-12541176D01*
X13725671Y-12550700D01*
X13735195Y-12560224D01*
X13744719Y-12579271D01*
X13754243Y-12617367D01*
X13754243Y-12664986D01*
X13744719Y-12703081D01*
X13735195Y-12722128D01*
X13725671Y-12731652D01*
X13706624Y-12741176D01*
X13687576Y-12741176D01*
X13668528Y-12731652D01*
X13659005Y-12722128D01*
X13649481Y-12703081D01*
X13639957Y-12664986D01*
X13639957Y-12617367D01*
X13649481Y-12579271D01*
X13659005Y-12560224D01*
X13668528Y-12550700D01*
X13687576Y-12541176D01*
X13839957Y-12722128D02*
X13849481Y-12731652D01*
X13839957Y-12741176D01*
X13830433Y-12731652D01*
X13839957Y-12722128D01*
X13839957Y-12741176D01*
X13973290Y-12541176D02*
X13992338Y-12541176D01*
X14011386Y-12550700D01*
X14020909Y-12560224D01*
X14030433Y-12579271D01*
X14039957Y-12617367D01*
X14039957Y-12664986D01*
X14030433Y-12703081D01*
X14020909Y-12722128D01*
X14011386Y-12731652D01*
X13992338Y-12741176D01*
X13973290Y-12741176D01*
X13954243Y-12731652D01*
X13944719Y-12722128D01*
X13935195Y-12703081D01*
X13925671Y-12664986D01*
X13925671Y-12617367D01*
X13935195Y-12579271D01*
X13944719Y-12560224D01*
X13954243Y-12550700D01*
X13973290Y-12541176D01*
X14230433Y-12741176D02*
X14116148Y-12741176D01*
X14173290Y-12741176D02*
X14173290Y-12541176D01*
X14154243Y-12569748D01*
X14135195Y-12588795D01*
X14116148Y-12598319D01*
X14297100Y-12541176D02*
X14420909Y-12541176D01*
X14354243Y-12617367D01*
X14382814Y-12617367D01*
X14401862Y-12626890D01*
X14411386Y-12636414D01*
X14420909Y-12655462D01*
X14420909Y-12703081D01*
X14411386Y-12722128D01*
X14401862Y-12731652D01*
X14382814Y-12741176D01*
X14325671Y-12741176D01*
X14306624Y-12731652D01*
X14297100Y-12722128D01*
X14535195Y-12626890D02*
X14516148Y-12617367D01*
X14506624Y-12607843D01*
X14497100Y-12588795D01*
X14497100Y-12579271D01*
X14506624Y-12560224D01*
X14516148Y-12550700D01*
X14535195Y-12541176D01*
X14573290Y-12541176D01*
X14592338Y-12550700D01*
X14601862Y-12560224D01*
X14611386Y-12579271D01*
X14611386Y-12588795D01*
X14601862Y-12607843D01*
X14592338Y-12617367D01*
X14573290Y-12626890D01*
X14535195Y-12626890D01*
X14516148Y-12636414D01*
X14506624Y-12645938D01*
X14497100Y-12664986D01*
X14497100Y-12703081D01*
X14506624Y-12722128D01*
X14516148Y-12731652D01*
X14535195Y-12741176D01*
X14573290Y-12741176D01*
X14592338Y-12731652D01*
X14601862Y-12722128D01*
X14611386Y-12703081D01*
X14611386Y-12664986D01*
X14601862Y-12645938D01*
X14592338Y-12636414D01*
X14573290Y-12626890D01*
X14687576Y-12541176D02*
X14687576Y-12579271D01*
X14763767Y-12541176D02*
X14763767Y-12579271D01*
X15059005Y-12817367D02*
X15049481Y-12807843D01*
X15030433Y-12779271D01*
X15020909Y-12760224D01*
X15011386Y-12731652D01*
X15001862Y-12684033D01*
X15001862Y-12645938D01*
X15011386Y-12598319D01*
X15020909Y-12569748D01*
X15030433Y-12550700D01*
X15049481Y-12522128D01*
X15059005Y-12512605D01*
X15125671Y-12560224D02*
X15135195Y-12550700D01*
X15154243Y-12541176D01*
X15201862Y-12541176D01*
X15220909Y-12550700D01*
X15230433Y-12560224D01*
X15239957Y-12579271D01*
X15239957Y-12598319D01*
X15230433Y-12626890D01*
X15116148Y-12741176D01*
X15239957Y-12741176D01*
X15411386Y-12607843D02*
X15411386Y-12741176D01*
X15363767Y-12531652D02*
X15316148Y-12674509D01*
X15439957Y-12674509D01*
X15668528Y-12741176D02*
X15668528Y-12541176D01*
X15754243Y-12741176D02*
X15754243Y-12636414D01*
X15744719Y-12617367D01*
X15725671Y-12607843D01*
X15697100Y-12607843D01*
X15678052Y-12617367D01*
X15668528Y-12626890D01*
X15878052Y-12741176D02*
X15859005Y-12731652D01*
X15849481Y-12722128D01*
X15839957Y-12703081D01*
X15839957Y-12645938D01*
X15849481Y-12626890D01*
X15859005Y-12617367D01*
X15878052Y-12607843D01*
X15906624Y-12607843D01*
X15925671Y-12617367D01*
X15935195Y-12626890D01*
X15944719Y-12645938D01*
X15944719Y-12703081D01*
X15935195Y-12722128D01*
X15925671Y-12731652D01*
X15906624Y-12741176D01*
X15878052Y-12741176D01*
X16059005Y-12741176D02*
X16039957Y-12731652D01*
X16030433Y-12712605D01*
X16030433Y-12541176D01*
X16211386Y-12731652D02*
X16192338Y-12741176D01*
X16154243Y-12741176D01*
X16135195Y-12731652D01*
X16125671Y-12712605D01*
X16125671Y-12636414D01*
X16135195Y-12617367D01*
X16154243Y-12607843D01*
X16192338Y-12607843D01*
X16211386Y-12617367D01*
X16220909Y-12636414D01*
X16220909Y-12655462D01*
X16125671Y-12674509D01*
X16297100Y-12731652D02*
X16316148Y-12741176D01*
X16354243Y-12741176D01*
X16373290Y-12731652D01*
X16382814Y-12712605D01*
X16382814Y-12703081D01*
X16373290Y-12684033D01*
X16354243Y-12674509D01*
X16325671Y-12674509D01*
X16306624Y-12664986D01*
X16297100Y-12645938D01*
X16297100Y-12636414D01*
X16306624Y-12617367D01*
X16325671Y-12607843D01*
X16354243Y-12607843D01*
X16373290Y-12617367D01*
X16449481Y-12817367D02*
X16459005Y-12807843D01*
X16478052Y-12779271D01*
X16487576Y-12760224D01*
X16497100Y-12731652D01*
X16506624Y-12684033D01*
X16506624Y-12645938D01*
X16497100Y-12598319D01*
X16487576Y-12569748D01*
X16478052Y-12550700D01*
X16459005Y-12522128D01*
X16449481Y-12512605D01*
D13*
X11487100Y-12914700D02*
G75*
G03*
X11487100Y-12914700I-20000J0D01*
G01*
D11*
X11782814Y-12805176D02*
X11801862Y-12805176D01*
X11820909Y-12814700D01*
X11830433Y-12824224D01*
X11839957Y-12843271D01*
X11849481Y-12881367D01*
X11849481Y-12928986D01*
X11839957Y-12967081D01*
X11830433Y-12986128D01*
X11820909Y-12995652D01*
X11801862Y-13005176D01*
X11782814Y-13005176D01*
X11763767Y-12995652D01*
X11754243Y-12986128D01*
X11744719Y-12967081D01*
X11735195Y-12928986D01*
X11735195Y-12881367D01*
X11744719Y-12843271D01*
X11754243Y-12824224D01*
X11763767Y-12814700D01*
X11782814Y-12805176D01*
X11935195Y-12986128D02*
X11944719Y-12995652D01*
X11935195Y-13005176D01*
X11925671Y-12995652D01*
X11935195Y-12986128D01*
X11935195Y-13005176D01*
X12116148Y-12871843D02*
X12116148Y-13005176D01*
X12068528Y-12795652D02*
X12020909Y-12938509D01*
X12144719Y-12938509D01*
X12259005Y-12805176D02*
X12278052Y-12805176D01*
X12297100Y-12814700D01*
X12306624Y-12824224D01*
X12316148Y-12843271D01*
X12325671Y-12881367D01*
X12325671Y-12928986D01*
X12316148Y-12967081D01*
X12306624Y-12986128D01*
X12297100Y-12995652D01*
X12278052Y-13005176D01*
X12259005Y-13005176D01*
X12239957Y-12995652D01*
X12230433Y-12986128D01*
X12220909Y-12967081D01*
X12211386Y-12928986D01*
X12211386Y-12881367D01*
X12220909Y-12843271D01*
X12230433Y-12824224D01*
X12239957Y-12814700D01*
X12259005Y-12805176D01*
X12449481Y-12805176D02*
X12468528Y-12805176D01*
X12487576Y-12814700D01*
X12497100Y-12824224D01*
X12506624Y-12843271D01*
X12516148Y-12881367D01*
X12516148Y-12928986D01*
X12506624Y-12967081D01*
X12497100Y-12986128D01*
X12487576Y-12995652D01*
X12468528Y-13005176D01*
X12449481Y-13005176D01*
X12430433Y-12995652D01*
X12420909Y-12986128D01*
X12411386Y-12967081D01*
X12401862Y-12928986D01*
X12401862Y-12881367D01*
X12411386Y-12843271D01*
X12420909Y-12824224D01*
X12430433Y-12814700D01*
X12449481Y-12805176D01*
X12601862Y-13005176D02*
X12601862Y-12871843D01*
X12601862Y-12890890D02*
X12611386Y-12881367D01*
X12630433Y-12871843D01*
X12659005Y-12871843D01*
X12678052Y-12881367D01*
X12687576Y-12900414D01*
X12687576Y-13005176D01*
X12687576Y-12900414D02*
X12697100Y-12881367D01*
X12716148Y-12871843D01*
X12744719Y-12871843D01*
X12763767Y-12881367D01*
X12773290Y-12900414D01*
X12773290Y-13005176D01*
X12868528Y-13005176D02*
X12868528Y-12871843D01*
X12868528Y-12890890D02*
X12878052Y-12881367D01*
X12897100Y-12871843D01*
X12925671Y-12871843D01*
X12944719Y-12881367D01*
X12954243Y-12900414D01*
X12954243Y-13005176D01*
X12954243Y-12900414D02*
X12963767Y-12881367D01*
X12982814Y-12871843D01*
X13011386Y-12871843D01*
X13030433Y-12881367D01*
X13039957Y-12900414D01*
X13039957Y-13005176D01*
X13430433Y-12795652D02*
X13259005Y-13052795D01*
X13687576Y-12805176D02*
X13706624Y-12805176D01*
X13725671Y-12814700D01*
X13735195Y-12824224D01*
X13744719Y-12843271D01*
X13754243Y-12881367D01*
X13754243Y-12928986D01*
X13744719Y-12967081D01*
X13735195Y-12986128D01*
X13725671Y-12995652D01*
X13706624Y-13005176D01*
X13687576Y-13005176D01*
X13668528Y-12995652D01*
X13659005Y-12986128D01*
X13649481Y-12967081D01*
X13639957Y-12928986D01*
X13639957Y-12881367D01*
X13649481Y-12843271D01*
X13659005Y-12824224D01*
X13668528Y-12814700D01*
X13687576Y-12805176D01*
X13839957Y-12986128D02*
X13849481Y-12995652D01*
X13839957Y-13005176D01*
X13830433Y-12995652D01*
X13839957Y-12986128D01*
X13839957Y-13005176D01*
X13973290Y-12805176D02*
X13992338Y-12805176D01*
X14011386Y-12814700D01*
X14020909Y-12824224D01*
X14030433Y-12843271D01*
X14039957Y-12881367D01*
X14039957Y-12928986D01*
X14030433Y-12967081D01*
X14020909Y-12986128D01*
X14011386Y-12995652D01*
X13992338Y-13005176D01*
X13973290Y-13005176D01*
X13954243Y-12995652D01*
X13944719Y-12986128D01*
X13935195Y-12967081D01*
X13925671Y-12928986D01*
X13925671Y-12881367D01*
X13935195Y-12843271D01*
X13944719Y-12824224D01*
X13954243Y-12814700D01*
X13973290Y-12805176D01*
X14230433Y-13005176D02*
X14116148Y-13005176D01*
X14173290Y-13005176D02*
X14173290Y-12805176D01*
X14154243Y-12833748D01*
X14135195Y-12852795D01*
X14116148Y-12862319D01*
X14411386Y-12805176D02*
X14316148Y-12805176D01*
X14306624Y-12900414D01*
X14316148Y-12890890D01*
X14335195Y-12881367D01*
X14382814Y-12881367D01*
X14401862Y-12890890D01*
X14411386Y-12900414D01*
X14420909Y-12919462D01*
X14420909Y-12967081D01*
X14411386Y-12986128D01*
X14401862Y-12995652D01*
X14382814Y-13005176D01*
X14335195Y-13005176D01*
X14316148Y-12995652D01*
X14306624Y-12986128D01*
X14487576Y-12805176D02*
X14620909Y-12805176D01*
X14535195Y-13005176D01*
X14687576Y-12805176D02*
X14687576Y-12843271D01*
X14763767Y-12805176D02*
X14763767Y-12843271D01*
X15059005Y-13081367D02*
X15049481Y-13071843D01*
X15030433Y-13043271D01*
X15020909Y-13024224D01*
X15011386Y-12995652D01*
X15001862Y-12948033D01*
X15001862Y-12909938D01*
X15011386Y-12862319D01*
X15020909Y-12833748D01*
X15030433Y-12814700D01*
X15049481Y-12786128D01*
X15059005Y-12776605D01*
X15239957Y-13005176D02*
X15125671Y-13005176D01*
X15182814Y-13005176D02*
X15182814Y-12805176D01*
X15163767Y-12833748D01*
X15144719Y-12852795D01*
X15125671Y-12862319D01*
X15316148Y-12824224D02*
X15325671Y-12814700D01*
X15344719Y-12805176D01*
X15392338Y-12805176D01*
X15411386Y-12814700D01*
X15420909Y-12824224D01*
X15430433Y-12843271D01*
X15430433Y-12862319D01*
X15420909Y-12890890D01*
X15306624Y-13005176D01*
X15430433Y-13005176D01*
X15544719Y-12890890D02*
X15525671Y-12881367D01*
X15516148Y-12871843D01*
X15506624Y-12852795D01*
X15506624Y-12843271D01*
X15516148Y-12824224D01*
X15525671Y-12814700D01*
X15544719Y-12805176D01*
X15582814Y-12805176D01*
X15601862Y-12814700D01*
X15611386Y-12824224D01*
X15620909Y-12843271D01*
X15620909Y-12852795D01*
X15611386Y-12871843D01*
X15601862Y-12881367D01*
X15582814Y-12890890D01*
X15544719Y-12890890D01*
X15525671Y-12900414D01*
X15516148Y-12909938D01*
X15506624Y-12928986D01*
X15506624Y-12967081D01*
X15516148Y-12986128D01*
X15525671Y-12995652D01*
X15544719Y-13005176D01*
X15582814Y-13005176D01*
X15601862Y-12995652D01*
X15611386Y-12986128D01*
X15620909Y-12967081D01*
X15620909Y-12928986D01*
X15611386Y-12909938D01*
X15601862Y-12900414D01*
X15582814Y-12890890D01*
X15859005Y-13005176D02*
X15859005Y-12805176D01*
X15944719Y-13005176D02*
X15944719Y-12900414D01*
X15935195Y-12881367D01*
X15916148Y-12871843D01*
X15887576Y-12871843D01*
X15868528Y-12881367D01*
X15859005Y-12890890D01*
X16068528Y-13005176D02*
X16049481Y-12995652D01*
X16039957Y-12986128D01*
X16030433Y-12967081D01*
X16030433Y-12909938D01*
X16039957Y-12890890D01*
X16049481Y-12881367D01*
X16068528Y-12871843D01*
X16097100Y-12871843D01*
X16116148Y-12881367D01*
X16125671Y-12890890D01*
X16135195Y-12909938D01*
X16135195Y-12967081D01*
X16125671Y-12986128D01*
X16116148Y-12995652D01*
X16097100Y-13005176D01*
X16068528Y-13005176D01*
X16249481Y-13005176D02*
X16230433Y-12995652D01*
X16220909Y-12976605D01*
X16220909Y-12805176D01*
X16401862Y-12995652D02*
X16382814Y-13005176D01*
X16344719Y-13005176D01*
X16325671Y-12995652D01*
X16316148Y-12976605D01*
X16316148Y-12900414D01*
X16325671Y-12881367D01*
X16344719Y-12871843D01*
X16382814Y-12871843D01*
X16401862Y-12881367D01*
X16411386Y-12900414D01*
X16411386Y-12919462D01*
X16316148Y-12938509D01*
X16487576Y-12995652D02*
X16506624Y-13005176D01*
X16544719Y-13005176D01*
X16563767Y-12995652D01*
X16573290Y-12976605D01*
X16573290Y-12967081D01*
X16563767Y-12948033D01*
X16544719Y-12938509D01*
X16516148Y-12938509D01*
X16497100Y-12928986D01*
X16487576Y-12909938D01*
X16487576Y-12900414D01*
X16497100Y-12881367D01*
X16516148Y-12871843D01*
X16544719Y-12871843D01*
X16563767Y-12881367D01*
X16639957Y-13081367D02*
X16649481Y-13071843D01*
X16668528Y-13043271D01*
X16678052Y-13024224D01*
X16687576Y-12995652D01*
X16697100Y-12948033D01*
X16697100Y-12909938D01*
X16687576Y-12862319D01*
X16678052Y-12833748D01*
X16668528Y-12814700D01*
X16649481Y-12786128D01*
X16639957Y-12776605D01*
D14*
X11437100Y-13128700D02*
X11437100Y-13228700D01*
X11387100Y-13178700D02*
X11487100Y-13178700D01*
D11*
X11849481Y-13269176D02*
X11735195Y-13269176D01*
X11792338Y-13269176D02*
X11792338Y-13069176D01*
X11773290Y-13097748D01*
X11754243Y-13116795D01*
X11735195Y-13126319D01*
X11935195Y-13250128D02*
X11944719Y-13259652D01*
X11935195Y-13269176D01*
X11925671Y-13259652D01*
X11935195Y-13250128D01*
X11935195Y-13269176D01*
X12068528Y-13069176D02*
X12087576Y-13069176D01*
X12106624Y-13078700D01*
X12116148Y-13088224D01*
X12125671Y-13107271D01*
X12135195Y-13145367D01*
X12135195Y-13192986D01*
X12125671Y-13231081D01*
X12116148Y-13250128D01*
X12106624Y-13259652D01*
X12087576Y-13269176D01*
X12068528Y-13269176D01*
X12049481Y-13259652D01*
X12039957Y-13250128D01*
X12030433Y-13231081D01*
X12020909Y-13192986D01*
X12020909Y-13145367D01*
X12030433Y-13107271D01*
X12039957Y-13088224D01*
X12049481Y-13078700D01*
X12068528Y-13069176D01*
X12259005Y-13069176D02*
X12278052Y-13069176D01*
X12297100Y-13078700D01*
X12306624Y-13088224D01*
X12316148Y-13107271D01*
X12325671Y-13145367D01*
X12325671Y-13192986D01*
X12316148Y-13231081D01*
X12306624Y-13250128D01*
X12297100Y-13259652D01*
X12278052Y-13269176D01*
X12259005Y-13269176D01*
X12239957Y-13259652D01*
X12230433Y-13250128D01*
X12220909Y-13231081D01*
X12211386Y-13192986D01*
X12211386Y-13145367D01*
X12220909Y-13107271D01*
X12230433Y-13088224D01*
X12239957Y-13078700D01*
X12259005Y-13069176D01*
X12449481Y-13069176D02*
X12468528Y-13069176D01*
X12487576Y-13078700D01*
X12497100Y-13088224D01*
X12506624Y-13107271D01*
X12516148Y-13145367D01*
X12516148Y-13192986D01*
X12506624Y-13231081D01*
X12497100Y-13250128D01*
X12487576Y-13259652D01*
X12468528Y-13269176D01*
X12449481Y-13269176D01*
X12430433Y-13259652D01*
X12420909Y-13250128D01*
X12411386Y-13231081D01*
X12401862Y-13192986D01*
X12401862Y-13145367D01*
X12411386Y-13107271D01*
X12420909Y-13088224D01*
X12430433Y-13078700D01*
X12449481Y-13069176D01*
X12601862Y-13269176D02*
X12601862Y-13135843D01*
X12601862Y-13154890D02*
X12611386Y-13145367D01*
X12630433Y-13135843D01*
X12659005Y-13135843D01*
X12678052Y-13145367D01*
X12687576Y-13164414D01*
X12687576Y-13269176D01*
X12687576Y-13164414D02*
X12697100Y-13145367D01*
X12716148Y-13135843D01*
X12744719Y-13135843D01*
X12763767Y-13145367D01*
X12773290Y-13164414D01*
X12773290Y-13269176D01*
X12868528Y-13269176D02*
X12868528Y-13135843D01*
X12868528Y-13154890D02*
X12878052Y-13145367D01*
X12897100Y-13135843D01*
X12925671Y-13135843D01*
X12944719Y-13145367D01*
X12954243Y-13164414D01*
X12954243Y-13269176D01*
X12954243Y-13164414D02*
X12963767Y-13145367D01*
X12982814Y-13135843D01*
X13011386Y-13135843D01*
X13030433Y-13145367D01*
X13039957Y-13164414D01*
X13039957Y-13269176D01*
X13430433Y-13059652D02*
X13259005Y-13316795D01*
X13687576Y-13069176D02*
X13706624Y-13069176D01*
X13725671Y-13078700D01*
X13735195Y-13088224D01*
X13744719Y-13107271D01*
X13754243Y-13145367D01*
X13754243Y-13192986D01*
X13744719Y-13231081D01*
X13735195Y-13250128D01*
X13725671Y-13259652D01*
X13706624Y-13269176D01*
X13687576Y-13269176D01*
X13668528Y-13259652D01*
X13659005Y-13250128D01*
X13649481Y-13231081D01*
X13639957Y-13192986D01*
X13639957Y-13145367D01*
X13649481Y-13107271D01*
X13659005Y-13088224D01*
X13668528Y-13078700D01*
X13687576Y-13069176D01*
X13839957Y-13250128D02*
X13849481Y-13259652D01*
X13839957Y-13269176D01*
X13830433Y-13259652D01*
X13839957Y-13250128D01*
X13839957Y-13269176D01*
X13973290Y-13069176D02*
X13992338Y-13069176D01*
X14011386Y-13078700D01*
X14020909Y-13088224D01*
X14030433Y-13107271D01*
X14039957Y-13145367D01*
X14039957Y-13192986D01*
X14030433Y-13231081D01*
X14020909Y-13250128D01*
X14011386Y-13259652D01*
X13992338Y-13269176D01*
X13973290Y-13269176D01*
X13954243Y-13259652D01*
X13944719Y-13250128D01*
X13935195Y-13231081D01*
X13925671Y-13192986D01*
X13925671Y-13145367D01*
X13935195Y-13107271D01*
X13944719Y-13088224D01*
X13954243Y-13078700D01*
X13973290Y-13069176D01*
X14106624Y-13069176D02*
X14230433Y-13069176D01*
X14163767Y-13145367D01*
X14192338Y-13145367D01*
X14211386Y-13154890D01*
X14220909Y-13164414D01*
X14230433Y-13183462D01*
X14230433Y-13231081D01*
X14220909Y-13250128D01*
X14211386Y-13259652D01*
X14192338Y-13269176D01*
X14135195Y-13269176D01*
X14116148Y-13259652D01*
X14106624Y-13250128D01*
X14325671Y-13269176D02*
X14363767Y-13269176D01*
X14382814Y-13259652D01*
X14392338Y-13250128D01*
X14411386Y-13221557D01*
X14420909Y-13183462D01*
X14420909Y-13107271D01*
X14411386Y-13088224D01*
X14401862Y-13078700D01*
X14382814Y-13069176D01*
X14344719Y-13069176D01*
X14325671Y-13078700D01*
X14316148Y-13088224D01*
X14306624Y-13107271D01*
X14306624Y-13154890D01*
X14316148Y-13173938D01*
X14325671Y-13183462D01*
X14344719Y-13192986D01*
X14382814Y-13192986D01*
X14401862Y-13183462D01*
X14411386Y-13173938D01*
X14420909Y-13154890D01*
X14592338Y-13135843D02*
X14592338Y-13269176D01*
X14544719Y-13059652D02*
X14497100Y-13202509D01*
X14620909Y-13202509D01*
X14687576Y-13069176D02*
X14687576Y-13107271D01*
X14763767Y-13069176D02*
X14763767Y-13107271D01*
X15059005Y-13345367D02*
X15049481Y-13335843D01*
X15030433Y-13307271D01*
X15020909Y-13288224D01*
X15011386Y-13259652D01*
X15001862Y-13212033D01*
X15001862Y-13173938D01*
X15011386Y-13126319D01*
X15020909Y-13097748D01*
X15030433Y-13078700D01*
X15049481Y-13050128D01*
X15059005Y-13040605D01*
X15239957Y-13269176D02*
X15125671Y-13269176D01*
X15182814Y-13269176D02*
X15182814Y-13069176D01*
X15163767Y-13097748D01*
X15144719Y-13116795D01*
X15125671Y-13126319D01*
X15316148Y-13088224D02*
X15325671Y-13078700D01*
X15344719Y-13069176D01*
X15392338Y-13069176D01*
X15411386Y-13078700D01*
X15420909Y-13088224D01*
X15430433Y-13107271D01*
X15430433Y-13126319D01*
X15420909Y-13154890D01*
X15306624Y-13269176D01*
X15430433Y-13269176D01*
X15668528Y-13269176D02*
X15668528Y-13069176D01*
X15754243Y-13269176D02*
X15754243Y-13164414D01*
X15744719Y-13145367D01*
X15725671Y-13135843D01*
X15697100Y-13135843D01*
X15678052Y-13145367D01*
X15668528Y-13154890D01*
X15878052Y-13269176D02*
X15859005Y-13259652D01*
X15849481Y-13250128D01*
X15839957Y-13231081D01*
X15839957Y-13173938D01*
X15849481Y-13154890D01*
X15859005Y-13145367D01*
X15878052Y-13135843D01*
X15906624Y-13135843D01*
X15925671Y-13145367D01*
X15935195Y-13154890D01*
X15944719Y-13173938D01*
X15944719Y-13231081D01*
X15935195Y-13250128D01*
X15925671Y-13259652D01*
X15906624Y-13269176D01*
X15878052Y-13269176D01*
X16059005Y-13269176D02*
X16039957Y-13259652D01*
X16030433Y-13240605D01*
X16030433Y-13069176D01*
X16211386Y-13259652D02*
X16192338Y-13269176D01*
X16154243Y-13269176D01*
X16135195Y-13259652D01*
X16125671Y-13240605D01*
X16125671Y-13164414D01*
X16135195Y-13145367D01*
X16154243Y-13135843D01*
X16192338Y-13135843D01*
X16211386Y-13145367D01*
X16220909Y-13164414D01*
X16220909Y-13183462D01*
X16125671Y-13202509D01*
X16297100Y-13259652D02*
X16316148Y-13269176D01*
X16354243Y-13269176D01*
X16373290Y-13259652D01*
X16382814Y-13240605D01*
X16382814Y-13231081D01*
X16373290Y-13212033D01*
X16354243Y-13202509D01*
X16325671Y-13202509D01*
X16306624Y-13192986D01*
X16297100Y-13173938D01*
X16297100Y-13164414D01*
X16306624Y-13145367D01*
X16325671Y-13135843D01*
X16354243Y-13135843D01*
X16373290Y-13145367D01*
X16449481Y-13345367D02*
X16459005Y-13335843D01*
X16478052Y-13307271D01*
X16487576Y-13288224D01*
X16497100Y-13259652D01*
X16506624Y-13212033D01*
X16506624Y-13173938D01*
X16497100Y-13126319D01*
X16487576Y-13097748D01*
X16478052Y-13078700D01*
X16459005Y-13050128D01*
X16449481Y-13040605D01*
D15*
X11466598Y-13492198D02*
X11466598Y-13393202D01*
X11367602Y-13393202D01*
X11367602Y-13492198D01*
X11466598Y-13492198D01*
D11*
X11849481Y-13533176D02*
X11735195Y-13533176D01*
X11792338Y-13533176D02*
X11792338Y-13333176D01*
X11773290Y-13361748D01*
X11754243Y-13380795D01*
X11735195Y-13390319D01*
X11935195Y-13514128D02*
X11944719Y-13523652D01*
X11935195Y-13533176D01*
X11925671Y-13523652D01*
X11935195Y-13514128D01*
X11935195Y-13533176D01*
X12116148Y-13399843D02*
X12116148Y-13533176D01*
X12068528Y-13323652D02*
X12020909Y-13466509D01*
X12144719Y-13466509D01*
X12259005Y-13333176D02*
X12278052Y-13333176D01*
X12297100Y-13342700D01*
X12306624Y-13352224D01*
X12316148Y-13371271D01*
X12325671Y-13409367D01*
X12325671Y-13456986D01*
X12316148Y-13495081D01*
X12306624Y-13514128D01*
X12297100Y-13523652D01*
X12278052Y-13533176D01*
X12259005Y-13533176D01*
X12239957Y-13523652D01*
X12230433Y-13514128D01*
X12220909Y-13495081D01*
X12211386Y-13456986D01*
X12211386Y-13409367D01*
X12220909Y-13371271D01*
X12230433Y-13352224D01*
X12239957Y-13342700D01*
X12259005Y-13333176D01*
X12449481Y-13333176D02*
X12468528Y-13333176D01*
X12487576Y-13342700D01*
X12497100Y-13352224D01*
X12506624Y-13371271D01*
X12516148Y-13409367D01*
X12516148Y-13456986D01*
X12506624Y-13495081D01*
X12497100Y-13514128D01*
X12487576Y-13523652D01*
X12468528Y-13533176D01*
X12449481Y-13533176D01*
X12430433Y-13523652D01*
X12420909Y-13514128D01*
X12411386Y-13495081D01*
X12401862Y-13456986D01*
X12401862Y-13409367D01*
X12411386Y-13371271D01*
X12420909Y-13352224D01*
X12430433Y-13342700D01*
X12449481Y-13333176D01*
X12601862Y-13533176D02*
X12601862Y-13399843D01*
X12601862Y-13418890D02*
X12611386Y-13409367D01*
X12630433Y-13399843D01*
X12659005Y-13399843D01*
X12678052Y-13409367D01*
X12687576Y-13428414D01*
X12687576Y-13533176D01*
X12687576Y-13428414D02*
X12697100Y-13409367D01*
X12716148Y-13399843D01*
X12744719Y-13399843D01*
X12763767Y-13409367D01*
X12773290Y-13428414D01*
X12773290Y-13533176D01*
X12868528Y-13533176D02*
X12868528Y-13399843D01*
X12868528Y-13418890D02*
X12878052Y-13409367D01*
X12897100Y-13399843D01*
X12925671Y-13399843D01*
X12944719Y-13409367D01*
X12954243Y-13428414D01*
X12954243Y-13533176D01*
X12954243Y-13428414D02*
X12963767Y-13409367D01*
X12982814Y-13399843D01*
X13011386Y-13399843D01*
X13030433Y-13409367D01*
X13039957Y-13428414D01*
X13039957Y-13533176D01*
X13430433Y-13323652D02*
X13259005Y-13580795D01*
X13687576Y-13333176D02*
X13706624Y-13333176D01*
X13725671Y-13342700D01*
X13735195Y-13352224D01*
X13744719Y-13371271D01*
X13754243Y-13409367D01*
X13754243Y-13456986D01*
X13744719Y-13495081D01*
X13735195Y-13514128D01*
X13725671Y-13523652D01*
X13706624Y-13533176D01*
X13687576Y-13533176D01*
X13668528Y-13523652D01*
X13659005Y-13514128D01*
X13649481Y-13495081D01*
X13639957Y-13456986D01*
X13639957Y-13409367D01*
X13649481Y-13371271D01*
X13659005Y-13352224D01*
X13668528Y-13342700D01*
X13687576Y-13333176D01*
X13839957Y-13514128D02*
X13849481Y-13523652D01*
X13839957Y-13533176D01*
X13830433Y-13523652D01*
X13839957Y-13514128D01*
X13839957Y-13533176D01*
X13973290Y-13333176D02*
X13992338Y-13333176D01*
X14011386Y-13342700D01*
X14020909Y-13352224D01*
X14030433Y-13371271D01*
X14039957Y-13409367D01*
X14039957Y-13456986D01*
X14030433Y-13495081D01*
X14020909Y-13514128D01*
X14011386Y-13523652D01*
X13992338Y-13533176D01*
X13973290Y-13533176D01*
X13954243Y-13523652D01*
X13944719Y-13514128D01*
X13935195Y-13495081D01*
X13925671Y-13456986D01*
X13925671Y-13409367D01*
X13935195Y-13371271D01*
X13944719Y-13352224D01*
X13954243Y-13342700D01*
X13973290Y-13333176D01*
X14220909Y-13333176D02*
X14125671Y-13333176D01*
X14116148Y-13428414D01*
X14125671Y-13418890D01*
X14144719Y-13409367D01*
X14192338Y-13409367D01*
X14211386Y-13418890D01*
X14220909Y-13428414D01*
X14230433Y-13447462D01*
X14230433Y-13495081D01*
X14220909Y-13514128D01*
X14211386Y-13523652D01*
X14192338Y-13533176D01*
X14144719Y-13533176D01*
X14125671Y-13523652D01*
X14116148Y-13514128D01*
X14411386Y-13333176D02*
X14316148Y-13333176D01*
X14306624Y-13428414D01*
X14316148Y-13418890D01*
X14335195Y-13409367D01*
X14382814Y-13409367D01*
X14401862Y-13418890D01*
X14411386Y-13428414D01*
X14420909Y-13447462D01*
X14420909Y-13495081D01*
X14411386Y-13514128D01*
X14401862Y-13523652D01*
X14382814Y-13533176D01*
X14335195Y-13533176D01*
X14316148Y-13523652D01*
X14306624Y-13514128D01*
X14611386Y-13533176D02*
X14497100Y-13533176D01*
X14554243Y-13533176D02*
X14554243Y-13333176D01*
X14535195Y-13361748D01*
X14516148Y-13380795D01*
X14497100Y-13390319D01*
X14687576Y-13333176D02*
X14687576Y-13371271D01*
X14763767Y-13333176D02*
X14763767Y-13371271D01*
X15059005Y-13609367D02*
X15049481Y-13599843D01*
X15030433Y-13571271D01*
X15020909Y-13552224D01*
X15011386Y-13523652D01*
X15001862Y-13476033D01*
X15001862Y-13437938D01*
X15011386Y-13390319D01*
X15020909Y-13361748D01*
X15030433Y-13342700D01*
X15049481Y-13314128D01*
X15059005Y-13304605D01*
X15116148Y-13333176D02*
X15239957Y-13333176D01*
X15173290Y-13409367D01*
X15201862Y-13409367D01*
X15220909Y-13418890D01*
X15230433Y-13428414D01*
X15239957Y-13447462D01*
X15239957Y-13495081D01*
X15230433Y-13514128D01*
X15220909Y-13523652D01*
X15201862Y-13533176D01*
X15144719Y-13533176D01*
X15125671Y-13523652D01*
X15116148Y-13514128D01*
X15316148Y-13352224D02*
X15325671Y-13342700D01*
X15344719Y-13333176D01*
X15392338Y-13333176D01*
X15411386Y-13342700D01*
X15420909Y-13352224D01*
X15430433Y-13371271D01*
X15430433Y-13390319D01*
X15420909Y-13418890D01*
X15306624Y-13533176D01*
X15430433Y-13533176D01*
X15668528Y-13533176D02*
X15668528Y-13333176D01*
X15754243Y-13533176D02*
X15754243Y-13428414D01*
X15744719Y-13409367D01*
X15725671Y-13399843D01*
X15697100Y-13399843D01*
X15678052Y-13409367D01*
X15668528Y-13418890D01*
X15878052Y-13533176D02*
X15859005Y-13523652D01*
X15849481Y-13514128D01*
X15839957Y-13495081D01*
X15839957Y-13437938D01*
X15849481Y-13418890D01*
X15859005Y-13409367D01*
X15878052Y-13399843D01*
X15906624Y-13399843D01*
X15925671Y-13409367D01*
X15935195Y-13418890D01*
X15944719Y-13437938D01*
X15944719Y-13495081D01*
X15935195Y-13514128D01*
X15925671Y-13523652D01*
X15906624Y-13533176D01*
X15878052Y-13533176D01*
X16059005Y-13533176D02*
X16039957Y-13523652D01*
X16030433Y-13504605D01*
X16030433Y-13333176D01*
X16211386Y-13523652D02*
X16192338Y-13533176D01*
X16154243Y-13533176D01*
X16135195Y-13523652D01*
X16125671Y-13504605D01*
X16125671Y-13428414D01*
X16135195Y-13409367D01*
X16154243Y-13399843D01*
X16192338Y-13399843D01*
X16211386Y-13409367D01*
X16220909Y-13428414D01*
X16220909Y-13447462D01*
X16125671Y-13466509D01*
X16297100Y-13523652D02*
X16316148Y-13533176D01*
X16354243Y-13533176D01*
X16373290Y-13523652D01*
X16382814Y-13504605D01*
X16382814Y-13495081D01*
X16373290Y-13476033D01*
X16354243Y-13466509D01*
X16325671Y-13466509D01*
X16306624Y-13456986D01*
X16297100Y-13437938D01*
X16297100Y-13428414D01*
X16306624Y-13409367D01*
X16325671Y-13399843D01*
X16354243Y-13399843D01*
X16373290Y-13409367D01*
X16449481Y-13609367D02*
X16459005Y-13599843D01*
X16478052Y-13571271D01*
X16487576Y-13552224D01*
X16497100Y-13523652D01*
X16506624Y-13476033D01*
X16506624Y-13437938D01*
X16497100Y-13390319D01*
X16487576Y-13361748D01*
X16478052Y-13342700D01*
X16459005Y-13314128D01*
X16449481Y-13304605D01*
D16*
X11402100Y-13791700D02*
X11487100Y-13706700D01*
X11402100Y-13621700D01*
X11317100Y-13706700D01*
X11402100Y-13791700D01*
D11*
X11849481Y-13797176D02*
X11735195Y-13797176D01*
X11792338Y-13797176D02*
X11792338Y-13597176D01*
X11773290Y-13625748D01*
X11754243Y-13644795D01*
X11735195Y-13654319D01*
X11935195Y-13778128D02*
X11944719Y-13787652D01*
X11935195Y-13797176D01*
X11925671Y-13787652D01*
X11935195Y-13778128D01*
X11935195Y-13797176D01*
X12011386Y-13597176D02*
X12144719Y-13597176D01*
X12059005Y-13797176D01*
X12259005Y-13597176D02*
X12278052Y-13597176D01*
X12297100Y-13606700D01*
X12306624Y-13616224D01*
X12316148Y-13635271D01*
X12325671Y-13673367D01*
X12325671Y-13720986D01*
X12316148Y-13759081D01*
X12306624Y-13778128D01*
X12297100Y-13787652D01*
X12278052Y-13797176D01*
X12259005Y-13797176D01*
X12239957Y-13787652D01*
X12230433Y-13778128D01*
X12220909Y-13759081D01*
X12211386Y-13720986D01*
X12211386Y-13673367D01*
X12220909Y-13635271D01*
X12230433Y-13616224D01*
X12239957Y-13606700D01*
X12259005Y-13597176D01*
X12449481Y-13597176D02*
X12468528Y-13597176D01*
X12487576Y-13606700D01*
X12497100Y-13616224D01*
X12506624Y-13635271D01*
X12516148Y-13673367D01*
X12516148Y-13720986D01*
X12506624Y-13759081D01*
X12497100Y-13778128D01*
X12487576Y-13787652D01*
X12468528Y-13797176D01*
X12449481Y-13797176D01*
X12430433Y-13787652D01*
X12420909Y-13778128D01*
X12411386Y-13759081D01*
X12401862Y-13720986D01*
X12401862Y-13673367D01*
X12411386Y-13635271D01*
X12420909Y-13616224D01*
X12430433Y-13606700D01*
X12449481Y-13597176D01*
X12601862Y-13797176D02*
X12601862Y-13663843D01*
X12601862Y-13682890D02*
X12611386Y-13673367D01*
X12630433Y-13663843D01*
X12659005Y-13663843D01*
X12678052Y-13673367D01*
X12687576Y-13692414D01*
X12687576Y-13797176D01*
X12687576Y-13692414D02*
X12697100Y-13673367D01*
X12716148Y-13663843D01*
X12744719Y-13663843D01*
X12763767Y-13673367D01*
X12773290Y-13692414D01*
X12773290Y-13797176D01*
X12868528Y-13797176D02*
X12868528Y-13663843D01*
X12868528Y-13682890D02*
X12878052Y-13673367D01*
X12897100Y-13663843D01*
X12925671Y-13663843D01*
X12944719Y-13673367D01*
X12954243Y-13692414D01*
X12954243Y-13797176D01*
X12954243Y-13692414D02*
X12963767Y-13673367D01*
X12982814Y-13663843D01*
X13011386Y-13663843D01*
X13030433Y-13673367D01*
X13039957Y-13692414D01*
X13039957Y-13797176D01*
X13430433Y-13587652D02*
X13259005Y-13844795D01*
X13687576Y-13597176D02*
X13706624Y-13597176D01*
X13725671Y-13606700D01*
X13735195Y-13616224D01*
X13744719Y-13635271D01*
X13754243Y-13673367D01*
X13754243Y-13720986D01*
X13744719Y-13759081D01*
X13735195Y-13778128D01*
X13725671Y-13787652D01*
X13706624Y-13797176D01*
X13687576Y-13797176D01*
X13668528Y-13787652D01*
X13659005Y-13778128D01*
X13649481Y-13759081D01*
X13639957Y-13720986D01*
X13639957Y-13673367D01*
X13649481Y-13635271D01*
X13659005Y-13616224D01*
X13668528Y-13606700D01*
X13687576Y-13597176D01*
X13839957Y-13778128D02*
X13849481Y-13787652D01*
X13839957Y-13797176D01*
X13830433Y-13787652D01*
X13839957Y-13778128D01*
X13839957Y-13797176D01*
X13973290Y-13597176D02*
X13992338Y-13597176D01*
X14011386Y-13606700D01*
X14020909Y-13616224D01*
X14030433Y-13635271D01*
X14039957Y-13673367D01*
X14039957Y-13720986D01*
X14030433Y-13759081D01*
X14020909Y-13778128D01*
X14011386Y-13787652D01*
X13992338Y-13797176D01*
X13973290Y-13797176D01*
X13954243Y-13787652D01*
X13944719Y-13778128D01*
X13935195Y-13759081D01*
X13925671Y-13720986D01*
X13925671Y-13673367D01*
X13935195Y-13635271D01*
X13944719Y-13616224D01*
X13954243Y-13606700D01*
X13973290Y-13597176D01*
X14211386Y-13597176D02*
X14173290Y-13597176D01*
X14154243Y-13606700D01*
X14144719Y-13616224D01*
X14125671Y-13644795D01*
X14116148Y-13682890D01*
X14116148Y-13759081D01*
X14125671Y-13778128D01*
X14135195Y-13787652D01*
X14154243Y-13797176D01*
X14192338Y-13797176D01*
X14211386Y-13787652D01*
X14220909Y-13778128D01*
X14230433Y-13759081D01*
X14230433Y-13711462D01*
X14220909Y-13692414D01*
X14211386Y-13682890D01*
X14192338Y-13673367D01*
X14154243Y-13673367D01*
X14135195Y-13682890D01*
X14125671Y-13692414D01*
X14116148Y-13711462D01*
X14401862Y-13597176D02*
X14363767Y-13597176D01*
X14344719Y-13606700D01*
X14335195Y-13616224D01*
X14316148Y-13644795D01*
X14306624Y-13682890D01*
X14306624Y-13759081D01*
X14316148Y-13778128D01*
X14325671Y-13787652D01*
X14344719Y-13797176D01*
X14382814Y-13797176D01*
X14401862Y-13787652D01*
X14411386Y-13778128D01*
X14420909Y-13759081D01*
X14420909Y-13711462D01*
X14411386Y-13692414D01*
X14401862Y-13682890D01*
X14382814Y-13673367D01*
X14344719Y-13673367D01*
X14325671Y-13682890D01*
X14316148Y-13692414D01*
X14306624Y-13711462D01*
X14516148Y-13797176D02*
X14554243Y-13797176D01*
X14573290Y-13787652D01*
X14582814Y-13778128D01*
X14601862Y-13749557D01*
X14611386Y-13711462D01*
X14611386Y-13635271D01*
X14601862Y-13616224D01*
X14592338Y-13606700D01*
X14573290Y-13597176D01*
X14535195Y-13597176D01*
X14516148Y-13606700D01*
X14506624Y-13616224D01*
X14497100Y-13635271D01*
X14497100Y-13682890D01*
X14506624Y-13701938D01*
X14516148Y-13711462D01*
X14535195Y-13720986D01*
X14573290Y-13720986D01*
X14592338Y-13711462D01*
X14601862Y-13701938D01*
X14611386Y-13682890D01*
X14687576Y-13597176D02*
X14687576Y-13635271D01*
X14763767Y-13597176D02*
X14763767Y-13635271D01*
X15059005Y-13873367D02*
X15049481Y-13863843D01*
X15030433Y-13835271D01*
X15020909Y-13816224D01*
X15011386Y-13787652D01*
X15001862Y-13740033D01*
X15001862Y-13701938D01*
X15011386Y-13654319D01*
X15020909Y-13625748D01*
X15030433Y-13606700D01*
X15049481Y-13578128D01*
X15059005Y-13568605D01*
X15220909Y-13663843D02*
X15220909Y-13797176D01*
X15173290Y-13587652D02*
X15125671Y-13730509D01*
X15249481Y-13730509D01*
X15478052Y-13797176D02*
X15478052Y-13597176D01*
X15563767Y-13797176D02*
X15563767Y-13692414D01*
X15554243Y-13673367D01*
X15535195Y-13663843D01*
X15506624Y-13663843D01*
X15487576Y-13673367D01*
X15478052Y-13682890D01*
X15687576Y-13797176D02*
X15668528Y-13787652D01*
X15659005Y-13778128D01*
X15649481Y-13759081D01*
X15649481Y-13701938D01*
X15659005Y-13682890D01*
X15668528Y-13673367D01*
X15687576Y-13663843D01*
X15716148Y-13663843D01*
X15735195Y-13673367D01*
X15744719Y-13682890D01*
X15754243Y-13701938D01*
X15754243Y-13759081D01*
X15744719Y-13778128D01*
X15735195Y-13787652D01*
X15716148Y-13797176D01*
X15687576Y-13797176D01*
X15868528Y-13797176D02*
X15849481Y-13787652D01*
X15839957Y-13768605D01*
X15839957Y-13597176D01*
X16020909Y-13787652D02*
X16001862Y-13797176D01*
X15963767Y-13797176D01*
X15944719Y-13787652D01*
X15935195Y-13768605D01*
X15935195Y-13692414D01*
X15944719Y-13673367D01*
X15963767Y-13663843D01*
X16001862Y-13663843D01*
X16020909Y-13673367D01*
X16030433Y-13692414D01*
X16030433Y-13711462D01*
X15935195Y-13730509D01*
X16106624Y-13787652D02*
X16125671Y-13797176D01*
X16163767Y-13797176D01*
X16182814Y-13787652D01*
X16192338Y-13768605D01*
X16192338Y-13759081D01*
X16182814Y-13740033D01*
X16163767Y-13730509D01*
X16135195Y-13730509D01*
X16116148Y-13720986D01*
X16106624Y-13701938D01*
X16106624Y-13692414D01*
X16116148Y-13673367D01*
X16135195Y-13663843D01*
X16163767Y-13663843D01*
X16182814Y-13673367D01*
X16259005Y-13873367D02*
X16268528Y-13863843D01*
X16287576Y-13835271D01*
X16297100Y-13816224D01*
X16306624Y-13787652D01*
X16316148Y-13740033D01*
X16316148Y-13701938D01*
X16306624Y-13654319D01*
X16297100Y-13625748D01*
X16287576Y-13606700D01*
X16268528Y-13578128D01*
X16259005Y-13568605D01*
M02*
