%TF.GenerationSoftware,KiCad,Pcbnew,(6.0.9)*%
%TF.CreationDate,2023-11-09T13:22:23+05:30*%
%TF.ProjectId,Modular-I2C-4PxRJ45-Relay-Driver,4d6f6475-6c61-4722-9d49-32432d345078,2*%
%TF.SameCoordinates,Original*%
%TF.FileFunction,Other,Comment*%
%FSLAX46Y46*%
G04 Gerber Fmt 4.6, Leading zero omitted, Abs format (unit mm)*
G04 Created by KiCad (PCBNEW (6.0.9)) date 2023-11-09 13:22:23*
%MOMM*%
%LPD*%
G01*
G04 APERTURE LIST*
%ADD10C,0.150000*%
G04 APERTURE END LIST*
D10*
%TO.C,J14*%
X149848590Y-91146042D02*
X149800971Y-91193661D01*
X149658114Y-91241280D01*
X149562876Y-91241280D01*
X149420019Y-91193661D01*
X149324780Y-91098423D01*
X149277161Y-91003185D01*
X149229542Y-90812709D01*
X149229542Y-90669852D01*
X149277161Y-90479376D01*
X149324780Y-90384138D01*
X149420019Y-90288900D01*
X149562876Y-90241280D01*
X149658114Y-90241280D01*
X149800971Y-90288900D01*
X149848590Y-90336519D01*
X150229542Y-90336519D02*
X150277161Y-90288900D01*
X150372400Y-90241280D01*
X150610495Y-90241280D01*
X150705733Y-90288900D01*
X150753352Y-90336519D01*
X150800971Y-90431757D01*
X150800971Y-90526995D01*
X150753352Y-90669852D01*
X150181923Y-91241280D01*
X150800971Y-91241280D01*
X151277161Y-91241280D02*
X151467638Y-91241280D01*
X151562876Y-91193661D01*
X151610495Y-91146042D01*
X151705733Y-91003185D01*
X151753352Y-90812709D01*
X151753352Y-90431757D01*
X151705733Y-90336519D01*
X151658114Y-90288900D01*
X151562876Y-90241280D01*
X151372400Y-90241280D01*
X151277161Y-90288900D01*
X151229542Y-90336519D01*
X151181923Y-90431757D01*
X151181923Y-90669852D01*
X151229542Y-90765090D01*
X151277161Y-90812709D01*
X151372400Y-90860328D01*
X151562876Y-90860328D01*
X151658114Y-90812709D01*
X151705733Y-90765090D01*
X151753352Y-90669852D01*
X152372400Y-90241280D02*
X152467638Y-90241280D01*
X152562876Y-90288900D01*
X152610495Y-90336519D01*
X152658114Y-90431757D01*
X152705733Y-90622233D01*
X152705733Y-90860328D01*
X152658114Y-91050804D01*
X152610495Y-91146042D01*
X152562876Y-91193661D01*
X152467638Y-91241280D01*
X152372400Y-91241280D01*
X152277161Y-91193661D01*
X152229542Y-91146042D01*
X152181923Y-91050804D01*
X152134304Y-90860328D01*
X152134304Y-90622233D01*
X152181923Y-90431757D01*
X152229542Y-90336519D01*
X152277161Y-90288900D01*
X152372400Y-90241280D01*
X153277161Y-90669852D02*
X153181923Y-90622233D01*
X153134304Y-90574614D01*
X153086685Y-90479376D01*
X153086685Y-90431757D01*
X153134304Y-90336519D01*
X153181923Y-90288900D01*
X153277161Y-90241280D01*
X153467638Y-90241280D01*
X153562876Y-90288900D01*
X153610495Y-90336519D01*
X153658114Y-90431757D01*
X153658114Y-90479376D01*
X153610495Y-90574614D01*
X153562876Y-90622233D01*
X153467638Y-90669852D01*
X153277161Y-90669852D01*
X153181923Y-90717471D01*
X153134304Y-90765090D01*
X153086685Y-90860328D01*
X153086685Y-91050804D01*
X153134304Y-91146042D01*
X153181923Y-91193661D01*
X153277161Y-91241280D01*
X153467638Y-91241280D01*
X153562876Y-91193661D01*
X153610495Y-91146042D01*
X153658114Y-91050804D01*
X153658114Y-90860328D01*
X153610495Y-90765090D01*
X153562876Y-90717471D01*
X153467638Y-90669852D01*
X154515257Y-90574614D02*
X154515257Y-91241280D01*
X154277161Y-90193661D02*
X154039066Y-90907947D01*
X154658114Y-90907947D01*
X155562876Y-91241280D02*
X154991447Y-91241280D01*
X155277161Y-91241280D02*
X155277161Y-90241280D01*
X155181923Y-90384138D01*
X155086685Y-90479376D01*
X154991447Y-90526995D01*
X156181923Y-90241280D02*
X156277161Y-90241280D01*
X156372400Y-90288900D01*
X156420019Y-90336519D01*
X156467638Y-90431757D01*
X156515257Y-90622233D01*
X156515257Y-90860328D01*
X156467638Y-91050804D01*
X156420019Y-91146042D01*
X156372400Y-91193661D01*
X156277161Y-91241280D01*
X156181923Y-91241280D01*
X156086685Y-91193661D01*
X156039066Y-91146042D01*
X155991447Y-91050804D01*
X155943828Y-90860328D01*
X155943828Y-90622233D01*
X155991447Y-90431757D01*
X156039066Y-90336519D01*
X156086685Y-90288900D01*
X156181923Y-90241280D01*
%TO.C,J13*%
X134456190Y-91146042D02*
X134408571Y-91193661D01*
X134265714Y-91241280D01*
X134170476Y-91241280D01*
X134027619Y-91193661D01*
X133932380Y-91098423D01*
X133884761Y-91003185D01*
X133837142Y-90812709D01*
X133837142Y-90669852D01*
X133884761Y-90479376D01*
X133932380Y-90384138D01*
X134027619Y-90288900D01*
X134170476Y-90241280D01*
X134265714Y-90241280D01*
X134408571Y-90288900D01*
X134456190Y-90336519D01*
X134837142Y-90336519D02*
X134884761Y-90288900D01*
X134980000Y-90241280D01*
X135218095Y-90241280D01*
X135313333Y-90288900D01*
X135360952Y-90336519D01*
X135408571Y-90431757D01*
X135408571Y-90526995D01*
X135360952Y-90669852D01*
X134789523Y-91241280D01*
X135408571Y-91241280D01*
X135884761Y-91241280D02*
X136075238Y-91241280D01*
X136170476Y-91193661D01*
X136218095Y-91146042D01*
X136313333Y-91003185D01*
X136360952Y-90812709D01*
X136360952Y-90431757D01*
X136313333Y-90336519D01*
X136265714Y-90288900D01*
X136170476Y-90241280D01*
X135980000Y-90241280D01*
X135884761Y-90288900D01*
X135837142Y-90336519D01*
X135789523Y-90431757D01*
X135789523Y-90669852D01*
X135837142Y-90765090D01*
X135884761Y-90812709D01*
X135980000Y-90860328D01*
X136170476Y-90860328D01*
X136265714Y-90812709D01*
X136313333Y-90765090D01*
X136360952Y-90669852D01*
X136980000Y-90241280D02*
X137075238Y-90241280D01*
X137170476Y-90288900D01*
X137218095Y-90336519D01*
X137265714Y-90431757D01*
X137313333Y-90622233D01*
X137313333Y-90860328D01*
X137265714Y-91050804D01*
X137218095Y-91146042D01*
X137170476Y-91193661D01*
X137075238Y-91241280D01*
X136980000Y-91241280D01*
X136884761Y-91193661D01*
X136837142Y-91146042D01*
X136789523Y-91050804D01*
X136741904Y-90860328D01*
X136741904Y-90622233D01*
X136789523Y-90431757D01*
X136837142Y-90336519D01*
X136884761Y-90288900D01*
X136980000Y-90241280D01*
X137884761Y-90669852D02*
X137789523Y-90622233D01*
X137741904Y-90574614D01*
X137694285Y-90479376D01*
X137694285Y-90431757D01*
X137741904Y-90336519D01*
X137789523Y-90288900D01*
X137884761Y-90241280D01*
X138075238Y-90241280D01*
X138170476Y-90288900D01*
X138218095Y-90336519D01*
X138265714Y-90431757D01*
X138265714Y-90479376D01*
X138218095Y-90574614D01*
X138170476Y-90622233D01*
X138075238Y-90669852D01*
X137884761Y-90669852D01*
X137789523Y-90717471D01*
X137741904Y-90765090D01*
X137694285Y-90860328D01*
X137694285Y-91050804D01*
X137741904Y-91146042D01*
X137789523Y-91193661D01*
X137884761Y-91241280D01*
X138075238Y-91241280D01*
X138170476Y-91193661D01*
X138218095Y-91146042D01*
X138265714Y-91050804D01*
X138265714Y-90860328D01*
X138218095Y-90765090D01*
X138170476Y-90717471D01*
X138075238Y-90669852D01*
X139122857Y-90574614D02*
X139122857Y-91241280D01*
X138884761Y-90193661D02*
X138646666Y-90907947D01*
X139265714Y-90907947D01*
X140170476Y-91241280D02*
X139599047Y-91241280D01*
X139884761Y-91241280D02*
X139884761Y-90241280D01*
X139789523Y-90384138D01*
X139694285Y-90479376D01*
X139599047Y-90526995D01*
X140789523Y-90241280D02*
X140884761Y-90241280D01*
X140980000Y-90288900D01*
X141027619Y-90336519D01*
X141075238Y-90431757D01*
X141122857Y-90622233D01*
X141122857Y-90860328D01*
X141075238Y-91050804D01*
X141027619Y-91146042D01*
X140980000Y-91193661D01*
X140884761Y-91241280D01*
X140789523Y-91241280D01*
X140694285Y-91193661D01*
X140646666Y-91146042D01*
X140599047Y-91050804D01*
X140551428Y-90860328D01*
X140551428Y-90622233D01*
X140599047Y-90431757D01*
X140646666Y-90336519D01*
X140694285Y-90288900D01*
X140789523Y-90241280D01*
%TO.C,J12*%
X119114590Y-91044442D02*
X119066971Y-91092061D01*
X118924114Y-91139680D01*
X118828876Y-91139680D01*
X118686019Y-91092061D01*
X118590780Y-90996823D01*
X118543161Y-90901585D01*
X118495542Y-90711109D01*
X118495542Y-90568252D01*
X118543161Y-90377776D01*
X118590780Y-90282538D01*
X118686019Y-90187300D01*
X118828876Y-90139680D01*
X118924114Y-90139680D01*
X119066971Y-90187300D01*
X119114590Y-90234919D01*
X119495542Y-90234919D02*
X119543161Y-90187300D01*
X119638400Y-90139680D01*
X119876495Y-90139680D01*
X119971733Y-90187300D01*
X120019352Y-90234919D01*
X120066971Y-90330157D01*
X120066971Y-90425395D01*
X120019352Y-90568252D01*
X119447923Y-91139680D01*
X120066971Y-91139680D01*
X120543161Y-91139680D02*
X120733638Y-91139680D01*
X120828876Y-91092061D01*
X120876495Y-91044442D01*
X120971733Y-90901585D01*
X121019352Y-90711109D01*
X121019352Y-90330157D01*
X120971733Y-90234919D01*
X120924114Y-90187300D01*
X120828876Y-90139680D01*
X120638400Y-90139680D01*
X120543161Y-90187300D01*
X120495542Y-90234919D01*
X120447923Y-90330157D01*
X120447923Y-90568252D01*
X120495542Y-90663490D01*
X120543161Y-90711109D01*
X120638400Y-90758728D01*
X120828876Y-90758728D01*
X120924114Y-90711109D01*
X120971733Y-90663490D01*
X121019352Y-90568252D01*
X121638400Y-90139680D02*
X121733638Y-90139680D01*
X121828876Y-90187300D01*
X121876495Y-90234919D01*
X121924114Y-90330157D01*
X121971733Y-90520633D01*
X121971733Y-90758728D01*
X121924114Y-90949204D01*
X121876495Y-91044442D01*
X121828876Y-91092061D01*
X121733638Y-91139680D01*
X121638400Y-91139680D01*
X121543161Y-91092061D01*
X121495542Y-91044442D01*
X121447923Y-90949204D01*
X121400304Y-90758728D01*
X121400304Y-90520633D01*
X121447923Y-90330157D01*
X121495542Y-90234919D01*
X121543161Y-90187300D01*
X121638400Y-90139680D01*
X122543161Y-90568252D02*
X122447923Y-90520633D01*
X122400304Y-90473014D01*
X122352685Y-90377776D01*
X122352685Y-90330157D01*
X122400304Y-90234919D01*
X122447923Y-90187300D01*
X122543161Y-90139680D01*
X122733638Y-90139680D01*
X122828876Y-90187300D01*
X122876495Y-90234919D01*
X122924114Y-90330157D01*
X122924114Y-90377776D01*
X122876495Y-90473014D01*
X122828876Y-90520633D01*
X122733638Y-90568252D01*
X122543161Y-90568252D01*
X122447923Y-90615871D01*
X122400304Y-90663490D01*
X122352685Y-90758728D01*
X122352685Y-90949204D01*
X122400304Y-91044442D01*
X122447923Y-91092061D01*
X122543161Y-91139680D01*
X122733638Y-91139680D01*
X122828876Y-91092061D01*
X122876495Y-91044442D01*
X122924114Y-90949204D01*
X122924114Y-90758728D01*
X122876495Y-90663490D01*
X122828876Y-90615871D01*
X122733638Y-90568252D01*
X123781257Y-90473014D02*
X123781257Y-91139680D01*
X123543161Y-90092061D02*
X123305066Y-90806347D01*
X123924114Y-90806347D01*
X124828876Y-91139680D02*
X124257447Y-91139680D01*
X124543161Y-91139680D02*
X124543161Y-90139680D01*
X124447923Y-90282538D01*
X124352685Y-90377776D01*
X124257447Y-90425395D01*
X125447923Y-90139680D02*
X125543161Y-90139680D01*
X125638400Y-90187300D01*
X125686019Y-90234919D01*
X125733638Y-90330157D01*
X125781257Y-90520633D01*
X125781257Y-90758728D01*
X125733638Y-90949204D01*
X125686019Y-91044442D01*
X125638400Y-91092061D01*
X125543161Y-91139680D01*
X125447923Y-91139680D01*
X125352685Y-91092061D01*
X125305066Y-91044442D01*
X125257447Y-90949204D01*
X125209828Y-90758728D01*
X125209828Y-90520633D01*
X125257447Y-90330157D01*
X125305066Y-90234919D01*
X125352685Y-90187300D01*
X125447923Y-90139680D01*
%TO.C,J11*%
X103722190Y-91044442D02*
X103674571Y-91092061D01*
X103531714Y-91139680D01*
X103436476Y-91139680D01*
X103293619Y-91092061D01*
X103198380Y-90996823D01*
X103150761Y-90901585D01*
X103103142Y-90711109D01*
X103103142Y-90568252D01*
X103150761Y-90377776D01*
X103198380Y-90282538D01*
X103293619Y-90187300D01*
X103436476Y-90139680D01*
X103531714Y-90139680D01*
X103674571Y-90187300D01*
X103722190Y-90234919D01*
X104103142Y-90234919D02*
X104150761Y-90187300D01*
X104246000Y-90139680D01*
X104484095Y-90139680D01*
X104579333Y-90187300D01*
X104626952Y-90234919D01*
X104674571Y-90330157D01*
X104674571Y-90425395D01*
X104626952Y-90568252D01*
X104055523Y-91139680D01*
X104674571Y-91139680D01*
X105150761Y-91139680D02*
X105341238Y-91139680D01*
X105436476Y-91092061D01*
X105484095Y-91044442D01*
X105579333Y-90901585D01*
X105626952Y-90711109D01*
X105626952Y-90330157D01*
X105579333Y-90234919D01*
X105531714Y-90187300D01*
X105436476Y-90139680D01*
X105246000Y-90139680D01*
X105150761Y-90187300D01*
X105103142Y-90234919D01*
X105055523Y-90330157D01*
X105055523Y-90568252D01*
X105103142Y-90663490D01*
X105150761Y-90711109D01*
X105246000Y-90758728D01*
X105436476Y-90758728D01*
X105531714Y-90711109D01*
X105579333Y-90663490D01*
X105626952Y-90568252D01*
X106246000Y-90139680D02*
X106341238Y-90139680D01*
X106436476Y-90187300D01*
X106484095Y-90234919D01*
X106531714Y-90330157D01*
X106579333Y-90520633D01*
X106579333Y-90758728D01*
X106531714Y-90949204D01*
X106484095Y-91044442D01*
X106436476Y-91092061D01*
X106341238Y-91139680D01*
X106246000Y-91139680D01*
X106150761Y-91092061D01*
X106103142Y-91044442D01*
X106055523Y-90949204D01*
X106007904Y-90758728D01*
X106007904Y-90520633D01*
X106055523Y-90330157D01*
X106103142Y-90234919D01*
X106150761Y-90187300D01*
X106246000Y-90139680D01*
X107150761Y-90568252D02*
X107055523Y-90520633D01*
X107007904Y-90473014D01*
X106960285Y-90377776D01*
X106960285Y-90330157D01*
X107007904Y-90234919D01*
X107055523Y-90187300D01*
X107150761Y-90139680D01*
X107341238Y-90139680D01*
X107436476Y-90187300D01*
X107484095Y-90234919D01*
X107531714Y-90330157D01*
X107531714Y-90377776D01*
X107484095Y-90473014D01*
X107436476Y-90520633D01*
X107341238Y-90568252D01*
X107150761Y-90568252D01*
X107055523Y-90615871D01*
X107007904Y-90663490D01*
X106960285Y-90758728D01*
X106960285Y-90949204D01*
X107007904Y-91044442D01*
X107055523Y-91092061D01*
X107150761Y-91139680D01*
X107341238Y-91139680D01*
X107436476Y-91092061D01*
X107484095Y-91044442D01*
X107531714Y-90949204D01*
X107531714Y-90758728D01*
X107484095Y-90663490D01*
X107436476Y-90615871D01*
X107341238Y-90568252D01*
X108388857Y-90473014D02*
X108388857Y-91139680D01*
X108150761Y-90092061D02*
X107912666Y-90806347D01*
X108531714Y-90806347D01*
X109436476Y-91139680D02*
X108865047Y-91139680D01*
X109150761Y-91139680D02*
X109150761Y-90139680D01*
X109055523Y-90282538D01*
X108960285Y-90377776D01*
X108865047Y-90425395D01*
X110055523Y-90139680D02*
X110150761Y-90139680D01*
X110246000Y-90187300D01*
X110293619Y-90234919D01*
X110341238Y-90330157D01*
X110388857Y-90520633D01*
X110388857Y-90758728D01*
X110341238Y-90949204D01*
X110293619Y-91044442D01*
X110246000Y-91092061D01*
X110150761Y-91139680D01*
X110055523Y-91139680D01*
X109960285Y-91092061D01*
X109912666Y-91044442D01*
X109865047Y-90949204D01*
X109817428Y-90758728D01*
X109817428Y-90520633D01*
X109865047Y-90330157D01*
X109912666Y-90234919D01*
X109960285Y-90187300D01*
X110055523Y-90139680D01*
%TO.C,J4*%
X159153614Y-62253847D02*
X159963138Y-62253847D01*
X160058376Y-62301466D01*
X160105995Y-62349085D01*
X160153614Y-62444323D01*
X160153614Y-62587180D01*
X160105995Y-62682419D01*
X159772661Y-62253847D02*
X159820280Y-62349085D01*
X159820280Y-62539561D01*
X159772661Y-62634800D01*
X159725042Y-62682419D01*
X159629804Y-62730038D01*
X159344090Y-62730038D01*
X159248852Y-62682419D01*
X159201233Y-62634800D01*
X159153614Y-62539561D01*
X159153614Y-62349085D01*
X159201233Y-62253847D01*
X159153614Y-61349085D02*
X159963138Y-61349085D01*
X160058376Y-61396704D01*
X160105995Y-61444323D01*
X160153614Y-61539561D01*
X160153614Y-61682419D01*
X160105995Y-61777657D01*
X159772661Y-61349085D02*
X159820280Y-61444323D01*
X159820280Y-61634800D01*
X159772661Y-61730038D01*
X159725042Y-61777657D01*
X159629804Y-61825276D01*
X159344090Y-61825276D01*
X159248852Y-61777657D01*
X159201233Y-61730038D01*
X159153614Y-61634800D01*
X159153614Y-61444323D01*
X159201233Y-61349085D01*
X159772661Y-60491942D02*
X159820280Y-60587180D01*
X159820280Y-60777657D01*
X159772661Y-60872895D01*
X159677423Y-60920514D01*
X159296471Y-60920514D01*
X159201233Y-60872895D01*
X159153614Y-60777657D01*
X159153614Y-60587180D01*
X159201233Y-60491942D01*
X159296471Y-60444323D01*
X159391709Y-60444323D01*
X159486947Y-60920514D01*
X159820280Y-59968133D02*
X159820280Y-59777657D01*
X159772661Y-59682419D01*
X159725042Y-59634800D01*
X159582185Y-59539561D01*
X159391709Y-59491942D01*
X159010757Y-59491942D01*
X158915519Y-59539561D01*
X158867900Y-59587180D01*
X158820280Y-59682419D01*
X158820280Y-59872895D01*
X158867900Y-59968133D01*
X158915519Y-60015752D01*
X159010757Y-60063371D01*
X159248852Y-60063371D01*
X159344090Y-60015752D01*
X159391709Y-59968133D01*
X159439328Y-59872895D01*
X159439328Y-59682419D01*
X159391709Y-59587180D01*
X159344090Y-59539561D01*
X159248852Y-59491942D01*
X158820280Y-59158609D02*
X158820280Y-58491942D01*
X159820280Y-58920514D01*
%TO.C,J3*%
X99724514Y-62187847D02*
X100534038Y-62187847D01*
X100629276Y-62235466D01*
X100676895Y-62283085D01*
X100724514Y-62378323D01*
X100724514Y-62521180D01*
X100676895Y-62616419D01*
X100343561Y-62187847D02*
X100391180Y-62283085D01*
X100391180Y-62473561D01*
X100343561Y-62568800D01*
X100295942Y-62616419D01*
X100200704Y-62664038D01*
X99914990Y-62664038D01*
X99819752Y-62616419D01*
X99772133Y-62568800D01*
X99724514Y-62473561D01*
X99724514Y-62283085D01*
X99772133Y-62187847D01*
X99724514Y-61283085D02*
X100534038Y-61283085D01*
X100629276Y-61330704D01*
X100676895Y-61378323D01*
X100724514Y-61473561D01*
X100724514Y-61616419D01*
X100676895Y-61711657D01*
X100343561Y-61283085D02*
X100391180Y-61378323D01*
X100391180Y-61568800D01*
X100343561Y-61664038D01*
X100295942Y-61711657D01*
X100200704Y-61759276D01*
X99914990Y-61759276D01*
X99819752Y-61711657D01*
X99772133Y-61664038D01*
X99724514Y-61568800D01*
X99724514Y-61378323D01*
X99772133Y-61283085D01*
X100343561Y-60425942D02*
X100391180Y-60521180D01*
X100391180Y-60711657D01*
X100343561Y-60806895D01*
X100248323Y-60854514D01*
X99867371Y-60854514D01*
X99772133Y-60806895D01*
X99724514Y-60711657D01*
X99724514Y-60521180D01*
X99772133Y-60425942D01*
X99867371Y-60378323D01*
X99962609Y-60378323D01*
X100057847Y-60854514D01*
X100391180Y-59902133D02*
X100391180Y-59711657D01*
X100343561Y-59616419D01*
X100295942Y-59568800D01*
X100153085Y-59473561D01*
X99962609Y-59425942D01*
X99581657Y-59425942D01*
X99486419Y-59473561D01*
X99438800Y-59521180D01*
X99391180Y-59616419D01*
X99391180Y-59806895D01*
X99438800Y-59902133D01*
X99486419Y-59949752D01*
X99581657Y-59997371D01*
X99819752Y-59997371D01*
X99914990Y-59949752D01*
X99962609Y-59902133D01*
X100010228Y-59806895D01*
X100010228Y-59616419D01*
X99962609Y-59521180D01*
X99914990Y-59473561D01*
X99819752Y-59425942D01*
X99391180Y-59092609D02*
X99391180Y-58425942D01*
X100391180Y-58854514D01*
%TO.C,J14*%
G36*
X159372400Y-99788900D02*
G01*
X156372400Y-99788900D01*
X156372400Y-93788900D01*
X159372400Y-93788900D01*
X159372400Y-99788900D01*
G37*
G36*
X155872400Y-99788900D02*
G01*
X152872400Y-99788900D01*
X152872400Y-93788900D01*
X155872400Y-93788900D01*
X155872400Y-99788900D01*
G37*
G36*
X152372400Y-99788900D02*
G01*
X149372400Y-99788900D01*
X149372400Y-93788900D01*
X152372400Y-93788900D01*
X152372400Y-99788900D01*
G37*
G36*
X148872400Y-99788900D02*
G01*
X145872400Y-99788900D01*
X145872400Y-93788900D01*
X148872400Y-93788900D01*
X148872400Y-99788900D01*
G37*
%TO.C,J13*%
G36*
X143980000Y-99788900D02*
G01*
X140980000Y-99788900D01*
X140980000Y-93788900D01*
X143980000Y-93788900D01*
X143980000Y-99788900D01*
G37*
G36*
X140480000Y-99788900D02*
G01*
X137480000Y-99788900D01*
X137480000Y-93788900D01*
X140480000Y-93788900D01*
X140480000Y-99788900D01*
G37*
G36*
X136980000Y-99788900D02*
G01*
X133980000Y-99788900D01*
X133980000Y-93788900D01*
X136980000Y-93788900D01*
X136980000Y-99788900D01*
G37*
G36*
X133480000Y-99788900D02*
G01*
X130480000Y-99788900D01*
X130480000Y-93788900D01*
X133480000Y-93788900D01*
X133480000Y-99788900D01*
G37*
%TO.C,J12*%
G36*
X128638400Y-99687300D02*
G01*
X125638400Y-99687300D01*
X125638400Y-93687300D01*
X128638400Y-93687300D01*
X128638400Y-99687300D01*
G37*
G36*
X125138400Y-99687300D02*
G01*
X122138400Y-99687300D01*
X122138400Y-93687300D01*
X125138400Y-93687300D01*
X125138400Y-99687300D01*
G37*
G36*
X121638400Y-99687300D02*
G01*
X118638400Y-99687300D01*
X118638400Y-93687300D01*
X121638400Y-93687300D01*
X121638400Y-99687300D01*
G37*
G36*
X118138400Y-99687300D02*
G01*
X115138400Y-99687300D01*
X115138400Y-93687300D01*
X118138400Y-93687300D01*
X118138400Y-99687300D01*
G37*
%TO.C,J11*%
G36*
X113246000Y-99687300D02*
G01*
X110246000Y-99687300D01*
X110246000Y-93687300D01*
X113246000Y-93687300D01*
X113246000Y-99687300D01*
G37*
G36*
X109746000Y-99687300D02*
G01*
X106746000Y-99687300D01*
X106746000Y-93687300D01*
X109746000Y-93687300D01*
X109746000Y-99687300D01*
G37*
G36*
X106246000Y-99687300D02*
G01*
X103246000Y-99687300D01*
X103246000Y-93687300D01*
X106246000Y-93687300D01*
X106246000Y-99687300D01*
G37*
G36*
X102746000Y-99687300D02*
G01*
X99746000Y-99687300D01*
X99746000Y-93687300D01*
X102746000Y-93687300D01*
X102746000Y-99687300D01*
G37*
%TO.C,J4*%
G36*
X162034900Y-55808800D02*
G01*
X156573900Y-55808800D01*
X156573900Y-65333800D01*
X162161900Y-65333800D01*
X162161900Y-65460800D01*
X156446900Y-65460800D01*
X156446900Y-55681800D01*
X162034900Y-55681800D01*
X162034900Y-55808800D01*
G37*
%TO.C,J3*%
G36*
X102859800Y-65521800D02*
G01*
X97271800Y-65521800D01*
X97271800Y-65394800D01*
X102732800Y-65394800D01*
X102732800Y-55869800D01*
X97144800Y-55869800D01*
X97144800Y-55742800D01*
X102859800Y-55742800D01*
X102859800Y-65521800D01*
G37*
%TD*%
M02*
