M48
; DRILL file {KiCad (6.0.9)} date Fri Nov 10 22:20:32 2023
; FORMAT={-:-/ absolute / inch / decimal}
; #@! TF.CreationDate,2023-11-10T22:20:32+05:30
; #@! TF.GenerationSoftware,Kicad,Pcbnew,(6.0.9)
; #@! TF.FileFunction,Plated,1,2,PTH
FMAT,2
INCH
; #@! TA.AperFunction,Plated,PTH,ViaDrill
T1C0.0157
; #@! TA.AperFunction,Plated,PTH,ComponentDrill
T2C0.0354
; #@! TA.AperFunction,Plated,PTH,ComponentDrill
T3C0.0551
; #@! TA.AperFunction,Plated,PTH,ComponentDrill
T4C0.0630
%
G90
G05
T1
X3.7953Y-2.7843
X3.948Y-2.7843
X4.108Y-2.7843
X4.273Y-2.7843
X4.438Y-2.7843
X4.6146Y-2.7843
X4.7947Y-2.7843
X4.973Y-2.7843
X5.1552Y-2.786
X5.3248Y-2.7843
X5.4889Y-2.7843
X5.6586Y-2.7843
X5.8326Y-2.7843
X6.0036Y-2.7843
X6.1736Y-2.7843
X6.3439Y-2.7843
T2
X4.1086Y-2.4386
X4.1586Y-2.3386
X4.2086Y-2.4386
X4.2586Y-2.3386
X4.3086Y-2.4386
X4.3586Y-2.3386
X4.4086Y-2.4386
X4.4586Y-2.3386
X4.6586Y-2.4386
X4.7086Y-2.3386
X4.7586Y-2.4386
X4.8086Y-2.3386
X4.8586Y-2.4386
X4.9086Y-2.3386
X4.9586Y-2.4386
X5.0086Y-2.3386
X5.2086Y-2.4386
X5.2586Y-2.3386
X5.3086Y-2.4386
X5.3586Y-2.3386
X5.4086Y-2.4386
X5.4586Y-2.3386
X5.5086Y-2.4386
X5.5586Y-2.3386
X5.7586Y-2.4386
X5.8086Y-2.3386
X5.8586Y-2.4386
X5.9086Y-2.3386
X5.9586Y-2.4386
X6.0086Y-2.3386
X6.0586Y-2.4386
X6.1086Y-2.3386
T3
X3.9959Y-3.5212
X3.9959Y-3.6196
X4.1337Y-3.5212
X4.1337Y-3.6196
X4.2715Y-3.5212
X4.2715Y-3.6196
X4.4093Y-3.5212
X4.4093Y-3.6196
X4.6019Y-3.5212
X4.6019Y-3.6196
X4.7397Y-3.5212
X4.7397Y-3.6196
X4.8775Y-3.5212
X4.8775Y-3.6196
X5.0153Y-3.5212
X5.0153Y-3.6196
X5.2059Y-3.5252
X5.2059Y-3.6236
X5.3437Y-3.5252
X5.3437Y-3.6236
X5.4815Y-3.5252
X5.4815Y-3.6236
X5.6193Y-3.5252
X5.6193Y-3.6236
X5.8119Y-3.5252
X5.8119Y-3.6236
X5.9497Y-3.5252
X5.9497Y-3.6236
X6.0875Y-3.5252
X6.0875Y-3.6236
X6.2253Y-3.5252
X6.2253Y-3.6236
T4
X3.9511Y-1.9086
X4.5586Y-2.4886
X5.1086Y-2.4886
X5.6586Y-2.4886
X6.2661Y-1.9086
T0
M30
