M48
; DRILL file {KiCad (6.0.9)} date Fri Feb  2 01:57:23 2024
; FORMAT={-:-/ absolute / inch / decimal}
; #@! TF.CreationDate,2024-02-02T01:57:23+05:30
; #@! TF.GenerationSoftware,Kicad,Pcbnew,(6.0.9)
; #@! TF.FileFunction,Plated,1,2,PTH
FMAT,2
INCH
; #@! TA.AperFunction,Plated,PTH,ViaDrill
T1C0.0157
; #@! TA.AperFunction,Plated,PTH,ComponentDrill
T2C0.0354
; #@! TA.AperFunction,Plated,PTH,ComponentDrill
T3C0.0512
; #@! TA.AperFunction,Plated,PTH,ComponentDrill
T4C0.0551
; #@! TA.AperFunction,Plated,PTH,ComponentDrill
T5C0.0630
%
G90
G05
T1
X3.7953Y-2.7843
X3.948Y-2.7843
X4.108Y-2.7843
X4.1326Y-3.1876
X4.1906Y-3.1858
X4.273Y-2.7843
X4.2876Y-3.1864
X4.3676Y-3.1976
X4.438Y-2.7843
X4.6146Y-2.7843
X4.7726Y-3.1912
X4.7947Y-2.7843
X4.8688Y-3.1964
X4.9576Y-3.1885
X4.973Y-2.7843
X5.0626Y-3.1874
X5.1552Y-2.786
X5.3248Y-2.7843
X5.4889Y-2.7843
X5.4926Y-3.1946
X5.5726Y-3.1907
X5.6586Y-2.7843
X5.6826Y-3.1898
X5.7476Y-3.187
X5.8326Y-2.7843
X6.0036Y-2.7843
X6.1426Y-3.1861
X6.1736Y-2.7843
X6.2191Y-3.1911
X6.3026Y-3.1926
X6.3439Y-2.7843
X6.4126Y-3.1976
T2
X4.1086Y-2.4386
X4.1586Y-2.3386
X4.2086Y-2.4386
X4.2586Y-2.3386
X4.3086Y-2.4386
X4.3586Y-2.3386
X4.4086Y-2.4386
X4.4586Y-2.3386
X4.6586Y-2.4386
X4.7086Y-2.3386
X4.7586Y-2.4386
X4.8086Y-2.3386
X4.8586Y-2.4386
X4.9086Y-2.3386
X4.9586Y-2.4386
X5.0086Y-2.3386
X5.2086Y-2.4386
X5.2586Y-2.3386
X5.3086Y-2.4386
X5.3586Y-2.3386
X5.4086Y-2.4386
X5.4586Y-2.3386
X5.5086Y-2.4386
X5.5586Y-2.3386
X5.7586Y-2.4386
X5.8086Y-2.3386
X5.8586Y-2.4386
X5.9086Y-2.3386
X5.9586Y-2.4386
X6.0086Y-2.3386
X6.0586Y-2.4386
X6.1086Y-2.3386
T3
X3.9659Y-3.7236
X4.1037Y-3.7236
X4.2415Y-3.7236
X4.3793Y-3.7236
X4.5876Y-3.7236
X4.7254Y-3.7236
X4.8632Y-3.7236
X5.001Y-3.7236
X5.2092Y-3.7236
X5.347Y-3.7236
X5.4848Y-3.7236
X5.6226Y-3.7236
X5.8309Y-3.7236
X5.9687Y-3.7236
X6.1065Y-3.7236
X6.2443Y-3.7236
T4
X3.9659Y-3.5076
X4.1037Y-3.5076
X4.2415Y-3.5076
X4.3793Y-3.5076
X4.5876Y-3.5076
X4.7254Y-3.5076
X4.8632Y-3.5076
X5.001Y-3.5076
X5.2092Y-3.5076
X5.347Y-3.5076
X5.4848Y-3.5076
X5.6226Y-3.5076
X5.8309Y-3.5076
X5.9687Y-3.5076
X6.1065Y-3.5076
X6.2443Y-3.5076
T5
X3.9511Y-1.9086
X4.5586Y-2.4886
X5.1086Y-2.4886
X5.6586Y-2.4886
X6.2661Y-1.9086
T0
M30
