%TF.GenerationSoftware,KiCad,Pcbnew,(6.0.9)*%
%TF.CreationDate,2024-02-02T01:57:23+05:30*%
%TF.ProjectId,RJ45-To-Terminal,524a3435-2d54-46f2-9d54-65726d696e61,2*%
%TF.SameCoordinates,Original*%
%TF.FileFunction,Legend,Bot*%
%TF.FilePolarity,Positive*%
%FSLAX46Y46*%
G04 Gerber Fmt 4.6, Leading zero omitted, Abs format (unit mm)*
G04 Created by KiCad (PCBNEW (6.0.9)) date 2024-02-02 01:57:23*
%MOMM*%
%LPD*%
G01*
G04 APERTURE LIST*
%ADD10C,0.300000*%
%ADD11C,0.476000*%
%ADD12C,0.241808*%
%ADD13C,2.200000*%
%ADD14C,2.000000*%
%ADD15C,3.250000*%
%ADD16C,1.500000*%
%ADD17C,2.600000*%
G04 APERTURE END LIST*
D10*
X122908400Y-45642228D02*
X123836971Y-45642228D01*
X123336971Y-45070800D01*
X123551257Y-45070800D01*
X123694114Y-44999371D01*
X123765542Y-44927942D01*
X123836971Y-44785085D01*
X123836971Y-44427942D01*
X123765542Y-44285085D01*
X123694114Y-44213657D01*
X123551257Y-44142228D01*
X123122685Y-44142228D01*
X122979828Y-44213657D01*
X122908400Y-44285085D01*
D11*
X148429209Y-68519653D02*
X148429209Y-66195653D01*
X147762542Y-67855653D01*
X147095876Y-66195653D01*
X147095876Y-68519653D01*
X145857780Y-68519653D02*
X146048257Y-68408986D01*
X146143495Y-68298320D01*
X146238733Y-68076986D01*
X146238733Y-67412986D01*
X146143495Y-67191653D01*
X146048257Y-67080986D01*
X145857780Y-66970320D01*
X145572066Y-66970320D01*
X145381590Y-67080986D01*
X145286352Y-67191653D01*
X145191114Y-67412986D01*
X145191114Y-68076986D01*
X145286352Y-68298320D01*
X145381590Y-68408986D01*
X145572066Y-68519653D01*
X145857780Y-68519653D01*
X143476828Y-68519653D02*
X143476828Y-66195653D01*
X143476828Y-68408986D02*
X143667304Y-68519653D01*
X144048257Y-68519653D01*
X144238733Y-68408986D01*
X144333971Y-68298320D01*
X144429209Y-68076986D01*
X144429209Y-67412986D01*
X144333971Y-67191653D01*
X144238733Y-67080986D01*
X144048257Y-66970320D01*
X143667304Y-66970320D01*
X143476828Y-67080986D01*
X141667304Y-66970320D02*
X141667304Y-68519653D01*
X142524447Y-66970320D02*
X142524447Y-68187653D01*
X142429209Y-68408986D01*
X142238733Y-68519653D01*
X141953019Y-68519653D01*
X141762542Y-68408986D01*
X141667304Y-68298320D01*
X140429209Y-68519653D02*
X140619685Y-68408986D01*
X140714923Y-68187653D01*
X140714923Y-66195653D01*
X138810161Y-68519653D02*
X138810161Y-67302320D01*
X138905400Y-67080986D01*
X139095876Y-66970320D01*
X139476828Y-66970320D01*
X139667304Y-67080986D01*
X138810161Y-68408986D02*
X139000638Y-68519653D01*
X139476828Y-68519653D01*
X139667304Y-68408986D01*
X139762542Y-68187653D01*
X139762542Y-67966320D01*
X139667304Y-67744986D01*
X139476828Y-67634320D01*
X139000638Y-67634320D01*
X138810161Y-67523653D01*
X137857780Y-68519653D02*
X137857780Y-66970320D01*
X137857780Y-67412986D02*
X137762542Y-67191653D01*
X137667304Y-67080986D01*
X137476828Y-66970320D01*
X137286352Y-66970320D01*
X147572066Y-70711960D02*
X147572066Y-72261293D01*
X148048257Y-69826626D02*
X148524447Y-71486626D01*
X147286352Y-71486626D01*
X146524447Y-71375960D02*
X145000638Y-71375960D01*
X144048257Y-72261293D02*
X144048257Y-69937293D01*
X143286352Y-69937293D01*
X143095876Y-70047960D01*
X143000638Y-70158626D01*
X142905400Y-70379960D01*
X142905400Y-70711960D01*
X143000638Y-70933293D01*
X143095876Y-71043960D01*
X143286352Y-71154626D01*
X144048257Y-71154626D01*
X141762542Y-72261293D02*
X141953019Y-72150626D01*
X142048257Y-72039960D01*
X142143495Y-71818626D01*
X142143495Y-71154626D01*
X142048257Y-70933293D01*
X141953019Y-70822626D01*
X141762542Y-70711960D01*
X141476828Y-70711960D01*
X141286352Y-70822626D01*
X141191114Y-70933293D01*
X141095876Y-71154626D01*
X141095876Y-71818626D01*
X141191114Y-72039960D01*
X141286352Y-72150626D01*
X141476828Y-72261293D01*
X141762542Y-72261293D01*
X140238733Y-72261293D02*
X140238733Y-70711960D01*
X140238733Y-71154626D02*
X140143495Y-70933293D01*
X140048257Y-70822626D01*
X139857780Y-70711960D01*
X139667304Y-70711960D01*
X139286352Y-70711960D02*
X138524447Y-70711960D01*
X139000638Y-69937293D02*
X139000638Y-71929293D01*
X138905400Y-72150626D01*
X138714923Y-72261293D01*
X138524447Y-72261293D01*
X147286352Y-76002933D02*
X147953019Y-74896266D01*
X148429209Y-76002933D02*
X148429209Y-73678933D01*
X147667304Y-73678933D01*
X147476828Y-73789600D01*
X147381590Y-73900266D01*
X147286352Y-74121600D01*
X147286352Y-74453600D01*
X147381590Y-74674933D01*
X147476828Y-74785600D01*
X147667304Y-74896266D01*
X148429209Y-74896266D01*
X145857780Y-73678933D02*
X145857780Y-75338933D01*
X145953019Y-75670933D01*
X146143495Y-75892266D01*
X146429209Y-76002933D01*
X146619685Y-76002933D01*
X144048257Y-74453600D02*
X144048257Y-76002933D01*
X144524447Y-73568266D02*
X145000638Y-75228266D01*
X143762542Y-75228266D01*
X142048257Y-73678933D02*
X143000638Y-73678933D01*
X143095876Y-74785600D01*
X143000638Y-74674933D01*
X142810161Y-74564266D01*
X142333971Y-74564266D01*
X142143495Y-74674933D01*
X142048257Y-74785600D01*
X141953019Y-75006933D01*
X141953019Y-75560266D01*
X142048257Y-75781600D01*
X142143495Y-75892266D01*
X142333971Y-76002933D01*
X142810161Y-76002933D01*
X143000638Y-75892266D01*
X143095876Y-75781600D01*
X139857780Y-73678933D02*
X138714923Y-73678933D01*
X139286352Y-76002933D02*
X139286352Y-73678933D01*
X137762542Y-76002933D02*
X137953019Y-75892266D01*
X138048257Y-75781600D01*
X138143495Y-75560266D01*
X138143495Y-74896266D01*
X138048257Y-74674933D01*
X137953019Y-74564266D01*
X137762542Y-74453600D01*
X137476828Y-74453600D01*
X137286352Y-74564266D01*
X137191114Y-74674933D01*
X137095876Y-74896266D01*
X137095876Y-75560266D01*
X137191114Y-75781600D01*
X137286352Y-75892266D01*
X137476828Y-76002933D01*
X137762542Y-76002933D01*
X134714923Y-76002933D02*
X134714923Y-73678933D01*
X133953019Y-73678933D01*
X133762542Y-73789600D01*
X133667304Y-73900266D01*
X133572066Y-74121600D01*
X133572066Y-74453600D01*
X133667304Y-74674933D01*
X133762542Y-74785600D01*
X133953019Y-74896266D01*
X134714923Y-74896266D01*
X132429209Y-76002933D02*
X132619685Y-75892266D01*
X132714923Y-75670933D01*
X132714923Y-73678933D01*
X130810161Y-74453600D02*
X130810161Y-76002933D01*
X131667304Y-74453600D02*
X131667304Y-75670933D01*
X131572066Y-75892266D01*
X131381590Y-76002933D01*
X131095876Y-76002933D01*
X130905400Y-75892266D01*
X130810161Y-75781600D01*
X129000638Y-74453600D02*
X129000638Y-76334933D01*
X129095876Y-76556266D01*
X129191114Y-76666933D01*
X129381590Y-76777600D01*
X129667304Y-76777600D01*
X129857780Y-76666933D01*
X129000638Y-75892266D02*
X129191114Y-76002933D01*
X129572066Y-76002933D01*
X129762542Y-75892266D01*
X129857780Y-75781600D01*
X129953019Y-75560266D01*
X129953019Y-74896266D01*
X129857780Y-74674933D01*
X129762542Y-74564266D01*
X129572066Y-74453600D01*
X129191114Y-74453600D01*
X129000638Y-74564266D01*
X127191114Y-74453600D02*
X127191114Y-76334933D01*
X127286352Y-76556266D01*
X127381590Y-76666933D01*
X127572066Y-76777600D01*
X127857780Y-76777600D01*
X128048257Y-76666933D01*
X127191114Y-75892266D02*
X127381590Y-76002933D01*
X127762542Y-76002933D01*
X127953019Y-75892266D01*
X128048257Y-75781600D01*
X128143495Y-75560266D01*
X128143495Y-74896266D01*
X128048257Y-74674933D01*
X127953019Y-74564266D01*
X127762542Y-74453600D01*
X127381590Y-74453600D01*
X127191114Y-74564266D01*
X125381590Y-76002933D02*
X125381590Y-74785600D01*
X125476828Y-74564266D01*
X125667304Y-74453600D01*
X126048257Y-74453600D01*
X126238733Y-74564266D01*
X125381590Y-75892266D02*
X125572066Y-76002933D01*
X126048257Y-76002933D01*
X126238733Y-75892266D01*
X126333971Y-75670933D01*
X126333971Y-75449600D01*
X126238733Y-75228266D01*
X126048257Y-75117600D01*
X125572066Y-75117600D01*
X125381590Y-75006933D01*
X124429209Y-76002933D02*
X124429209Y-73678933D01*
X124429209Y-74564266D02*
X124238733Y-74453600D01*
X123857780Y-74453600D01*
X123667304Y-74564266D01*
X123572066Y-74674933D01*
X123476828Y-74896266D01*
X123476828Y-75560266D01*
X123572066Y-75781600D01*
X123667304Y-75892266D01*
X123857780Y-76002933D01*
X124238733Y-76002933D01*
X124429209Y-75892266D01*
X122333971Y-76002933D02*
X122524447Y-75892266D01*
X122619685Y-75670933D01*
X122619685Y-73678933D01*
X120810161Y-75892266D02*
X121000638Y-76002933D01*
X121381590Y-76002933D01*
X121572066Y-75892266D01*
X121667304Y-75670933D01*
X121667304Y-74785600D01*
X121572066Y-74564266D01*
X121381590Y-74453600D01*
X121000638Y-74453600D01*
X120810161Y-74564266D01*
X120714923Y-74785600D01*
X120714923Y-75006933D01*
X121667304Y-75228266D01*
X117667304Y-74785600D02*
X117381590Y-74896266D01*
X117286352Y-75006933D01*
X117191114Y-75228266D01*
X117191114Y-75560266D01*
X117286352Y-75781600D01*
X117381590Y-75892266D01*
X117572066Y-76002933D01*
X118333971Y-76002933D01*
X118333971Y-73678933D01*
X117667304Y-73678933D01*
X117476828Y-73789600D01*
X117381590Y-73900266D01*
X117286352Y-74121600D01*
X117286352Y-74342933D01*
X117381590Y-74564266D01*
X117476828Y-74674933D01*
X117667304Y-74785600D01*
X118333971Y-74785600D01*
X116333971Y-76002933D02*
X116333971Y-74453600D01*
X116333971Y-74896266D02*
X116238733Y-74674933D01*
X116143495Y-74564266D01*
X115953019Y-74453600D01*
X115762542Y-74453600D01*
X114333971Y-75892266D02*
X114524447Y-76002933D01*
X114905400Y-76002933D01*
X115095876Y-75892266D01*
X115191114Y-75670933D01*
X115191114Y-74785600D01*
X115095876Y-74564266D01*
X114905400Y-74453600D01*
X114524447Y-74453600D01*
X114333971Y-74564266D01*
X114238733Y-74785600D01*
X114238733Y-75006933D01*
X115191114Y-75228266D01*
X112524447Y-76002933D02*
X112524447Y-74785600D01*
X112619685Y-74564266D01*
X112810161Y-74453600D01*
X113191114Y-74453600D01*
X113381590Y-74564266D01*
X112524447Y-75892266D02*
X112714923Y-76002933D01*
X113191114Y-76002933D01*
X113381590Y-75892266D01*
X113476828Y-75670933D01*
X113476828Y-75449600D01*
X113381590Y-75228266D01*
X113191114Y-75117600D01*
X112714923Y-75117600D01*
X112524447Y-75006933D01*
X111572066Y-76002933D02*
X111572066Y-73678933D01*
X111381590Y-75117600D02*
X110810161Y-76002933D01*
X110810161Y-74453600D02*
X111572066Y-75338933D01*
X109667304Y-76002933D02*
X109857780Y-75892266D01*
X109953019Y-75781600D01*
X110048257Y-75560266D01*
X110048257Y-74896266D01*
X109953019Y-74674933D01*
X109857780Y-74564266D01*
X109667304Y-74453600D01*
X109381590Y-74453600D01*
X109191114Y-74564266D01*
X109095876Y-74674933D01*
X109000638Y-74896266D01*
X109000638Y-75560266D01*
X109095876Y-75781600D01*
X109191114Y-75892266D01*
X109381590Y-76002933D01*
X109667304Y-76002933D01*
X107286352Y-74453600D02*
X107286352Y-76002933D01*
X108143495Y-74453600D02*
X108143495Y-75670933D01*
X108048257Y-75892266D01*
X107857780Y-76002933D01*
X107572066Y-76002933D01*
X107381590Y-75892266D01*
X107286352Y-75781600D01*
X106619685Y-74453600D02*
X105857780Y-74453600D01*
X106333971Y-73678933D02*
X106333971Y-75670933D01*
X106238733Y-75892266D01*
X106048257Y-76002933D01*
X105857780Y-76002933D01*
D10*
X150887971Y-44142228D02*
X150030828Y-44142228D01*
X150459400Y-44142228D02*
X150459400Y-45642228D01*
X150316542Y-45427942D01*
X150173685Y-45285085D01*
X150030828Y-45213657D01*
X109343114Y-45142228D02*
X109343114Y-44142228D01*
X108985971Y-45713657D02*
X108628828Y-44642228D01*
X109557400Y-44642228D01*
X136822828Y-45499371D02*
X136894257Y-45570800D01*
X137037114Y-45642228D01*
X137394257Y-45642228D01*
X137537114Y-45570800D01*
X137608542Y-45499371D01*
X137679971Y-45356514D01*
X137679971Y-45213657D01*
X137608542Y-44999371D01*
X136751400Y-44142228D01*
X137679971Y-44142228D01*
D12*
X148383000Y-79511470D02*
X148214344Y-79567688D01*
X148158126Y-79623907D01*
X148101907Y-79736344D01*
X148101907Y-79905000D01*
X148158126Y-80017438D01*
X148214344Y-80073656D01*
X148326782Y-80129875D01*
X148776531Y-80129875D01*
X148776531Y-78949283D01*
X148383000Y-78949283D01*
X148270563Y-79005502D01*
X148214344Y-79061720D01*
X148158126Y-79174158D01*
X148158126Y-79286595D01*
X148214344Y-79399032D01*
X148270563Y-79455251D01*
X148383000Y-79511470D01*
X148776531Y-79511470D01*
X147089971Y-80129875D02*
X147089971Y-79511470D01*
X147146190Y-79399032D01*
X147258627Y-79342814D01*
X147483502Y-79342814D01*
X147595939Y-79399032D01*
X147089971Y-80073656D02*
X147202408Y-80129875D01*
X147483502Y-80129875D01*
X147595939Y-80073656D01*
X147652158Y-79961219D01*
X147652158Y-79848782D01*
X147595939Y-79736344D01*
X147483502Y-79680126D01*
X147202408Y-79680126D01*
X147089971Y-79623907D01*
X146584003Y-80073656D02*
X146471566Y-80129875D01*
X146246691Y-80129875D01*
X146134254Y-80073656D01*
X146078035Y-79961219D01*
X146078035Y-79905000D01*
X146134254Y-79792563D01*
X146246691Y-79736344D01*
X146415347Y-79736344D01*
X146527784Y-79680126D01*
X146584003Y-79567688D01*
X146584003Y-79511470D01*
X146527784Y-79399032D01*
X146415347Y-79342814D01*
X146246691Y-79342814D01*
X146134254Y-79399032D01*
X145122318Y-80073656D02*
X145234755Y-80129875D01*
X145459630Y-80129875D01*
X145572067Y-80073656D01*
X145628286Y-79961219D01*
X145628286Y-79511470D01*
X145572067Y-79399032D01*
X145459630Y-79342814D01*
X145234755Y-79342814D01*
X145122318Y-79399032D01*
X145066099Y-79511470D01*
X145066099Y-79623907D01*
X145628286Y-79736344D01*
X144054163Y-80129875D02*
X144054163Y-78949283D01*
X144054163Y-80073656D02*
X144166600Y-80129875D01*
X144391475Y-80129875D01*
X144503912Y-80073656D01*
X144560131Y-80017438D01*
X144616350Y-79905000D01*
X144616350Y-79567688D01*
X144560131Y-79455251D01*
X144503912Y-79399032D01*
X144391475Y-79342814D01*
X144166600Y-79342814D01*
X144054163Y-79399032D01*
X142423822Y-80129875D02*
X142536259Y-80073656D01*
X142592478Y-80017438D01*
X142648696Y-79905000D01*
X142648696Y-79567688D01*
X142592478Y-79455251D01*
X142536259Y-79399032D01*
X142423822Y-79342814D01*
X142255166Y-79342814D01*
X142142728Y-79399032D01*
X142086510Y-79455251D01*
X142030291Y-79567688D01*
X142030291Y-79905000D01*
X142086510Y-80017438D01*
X142142728Y-80073656D01*
X142255166Y-80129875D01*
X142423822Y-80129875D01*
X141524323Y-79342814D02*
X141524323Y-80129875D01*
X141524323Y-79455251D02*
X141468104Y-79399032D01*
X141355667Y-79342814D01*
X141187011Y-79342814D01*
X141074574Y-79399032D01*
X141018355Y-79511470D01*
X141018355Y-80129875D01*
X139050702Y-80129875D02*
X139050702Y-78949283D01*
X139050702Y-80073656D02*
X139163139Y-80129875D01*
X139388014Y-80129875D01*
X139500451Y-80073656D01*
X139556670Y-80017438D01*
X139612888Y-79905000D01*
X139612888Y-79567688D01*
X139556670Y-79455251D01*
X139500451Y-79399032D01*
X139388014Y-79342814D01*
X139163139Y-79342814D01*
X139050702Y-79399032D01*
X138038766Y-80073656D02*
X138151203Y-80129875D01*
X138376078Y-80129875D01*
X138488515Y-80073656D01*
X138544734Y-79961219D01*
X138544734Y-79511470D01*
X138488515Y-79399032D01*
X138376078Y-79342814D01*
X138151203Y-79342814D01*
X138038766Y-79399032D01*
X137982547Y-79511470D01*
X137982547Y-79623907D01*
X138544734Y-79736344D01*
X137532798Y-80073656D02*
X137420360Y-80129875D01*
X137195486Y-80129875D01*
X137083048Y-80073656D01*
X137026830Y-79961219D01*
X137026830Y-79905000D01*
X137083048Y-79792563D01*
X137195486Y-79736344D01*
X137364142Y-79736344D01*
X137476579Y-79680126D01*
X137532798Y-79567688D01*
X137532798Y-79511470D01*
X137476579Y-79399032D01*
X137364142Y-79342814D01*
X137195486Y-79342814D01*
X137083048Y-79399032D01*
X136520862Y-80129875D02*
X136520862Y-79342814D01*
X136520862Y-78949283D02*
X136577080Y-79005502D01*
X136520862Y-79061720D01*
X136464643Y-79005502D01*
X136520862Y-78949283D01*
X136520862Y-79061720D01*
X135452707Y-79342814D02*
X135452707Y-80298531D01*
X135508926Y-80410968D01*
X135565144Y-80467187D01*
X135677582Y-80523406D01*
X135846238Y-80523406D01*
X135958675Y-80467187D01*
X135452707Y-80073656D02*
X135565144Y-80129875D01*
X135790019Y-80129875D01*
X135902456Y-80073656D01*
X135958675Y-80017438D01*
X136014894Y-79905000D01*
X136014894Y-79567688D01*
X135958675Y-79455251D01*
X135902456Y-79399032D01*
X135790019Y-79342814D01*
X135565144Y-79342814D01*
X135452707Y-79399032D01*
X134890520Y-79342814D02*
X134890520Y-80129875D01*
X134890520Y-79455251D02*
X134834302Y-79399032D01*
X134721864Y-79342814D01*
X134553208Y-79342814D01*
X134440771Y-79399032D01*
X134384552Y-79511470D01*
X134384552Y-80129875D01*
X147877032Y-82030628D02*
X147877032Y-80850036D01*
X147877032Y-81299785D02*
X147764595Y-81243567D01*
X147539720Y-81243567D01*
X147427283Y-81299785D01*
X147371064Y-81356004D01*
X147314846Y-81468441D01*
X147314846Y-81805753D01*
X147371064Y-81918191D01*
X147427283Y-81974409D01*
X147539720Y-82030628D01*
X147764595Y-82030628D01*
X147877032Y-81974409D01*
X146921315Y-81243567D02*
X146640222Y-82030628D01*
X146359128Y-81243567D02*
X146640222Y-82030628D01*
X146752659Y-82311721D01*
X146808878Y-82367940D01*
X146921315Y-82424159D01*
X144672568Y-80850036D02*
X144672568Y-81693316D01*
X144728787Y-81861972D01*
X144841224Y-81974409D01*
X145009880Y-82030628D01*
X145122318Y-82030628D01*
X143941726Y-82030628D02*
X144054163Y-81974409D01*
X144110382Y-81918191D01*
X144166600Y-81805753D01*
X144166600Y-81468441D01*
X144110382Y-81356004D01*
X144054163Y-81299785D01*
X143941726Y-81243567D01*
X143773070Y-81243567D01*
X143660632Y-81299785D01*
X143604414Y-81356004D01*
X143548195Y-81468441D01*
X143548195Y-81805753D01*
X143604414Y-81918191D01*
X143660632Y-81974409D01*
X143773070Y-82030628D01*
X143941726Y-82030628D01*
X143042227Y-81243567D02*
X143042227Y-82030628D01*
X143042227Y-81356004D02*
X142986008Y-81299785D01*
X142873571Y-81243567D01*
X142704915Y-81243567D01*
X142592478Y-81299785D01*
X142536259Y-81412223D01*
X142536259Y-82030628D01*
X140849699Y-80850036D02*
X140624824Y-80850036D01*
X140512387Y-80906255D01*
X140399950Y-81018692D01*
X140343731Y-81243567D01*
X140343731Y-81637097D01*
X140399950Y-81861972D01*
X140512387Y-81974409D01*
X140624824Y-82030628D01*
X140849699Y-82030628D01*
X140962136Y-81974409D01*
X141074574Y-81861972D01*
X141130792Y-81637097D01*
X141130792Y-81243567D01*
X141074574Y-81018692D01*
X140962136Y-80906255D01*
X140849699Y-80850036D01*
X139950200Y-82030628D02*
X139331795Y-81243567D01*
X139950200Y-81243567D02*
X139331795Y-82030628D01*
X138432296Y-81974409D02*
X138544734Y-82030628D01*
X138769608Y-82030628D01*
X138882046Y-81974409D01*
X138938264Y-81861972D01*
X138938264Y-81412223D01*
X138882046Y-81299785D01*
X138769608Y-81243567D01*
X138544734Y-81243567D01*
X138432296Y-81299785D01*
X138376078Y-81412223D01*
X138376078Y-81524660D01*
X138938264Y-81637097D01*
X137870110Y-82030628D02*
X137870110Y-81243567D01*
X137870110Y-81468441D02*
X137813891Y-81356004D01*
X137757672Y-81299785D01*
X137645235Y-81243567D01*
X137532798Y-81243567D01*
X147877032Y-83931381D02*
X147877032Y-82750789D01*
X147877032Y-83200538D02*
X147764595Y-83144320D01*
X147539720Y-83144320D01*
X147427283Y-83200538D01*
X147371064Y-83256757D01*
X147314846Y-83369194D01*
X147314846Y-83706506D01*
X147371064Y-83818944D01*
X147427283Y-83875162D01*
X147539720Y-83931381D01*
X147764595Y-83931381D01*
X147877032Y-83875162D01*
X146921315Y-83144320D02*
X146640222Y-83931381D01*
X146359128Y-83144320D02*
X146640222Y-83931381D01*
X146752659Y-84212474D01*
X146808878Y-84268693D01*
X146921315Y-84324912D01*
X145066099Y-83594069D02*
X144503912Y-83594069D01*
X145178536Y-83931381D02*
X144785006Y-82750789D01*
X144391475Y-83931381D01*
X143491976Y-83144320D02*
X143491976Y-83931381D01*
X143997944Y-83144320D02*
X143997944Y-83762725D01*
X143941726Y-83875162D01*
X143829288Y-83931381D01*
X143660632Y-83931381D01*
X143548195Y-83875162D01*
X143491976Y-83818944D01*
X142986008Y-83875162D02*
X142873571Y-83931381D01*
X142648696Y-83931381D01*
X142536259Y-83875162D01*
X142480040Y-83762725D01*
X142480040Y-83706506D01*
X142536259Y-83594069D01*
X142648696Y-83537850D01*
X142817352Y-83537850D01*
X142929790Y-83481632D01*
X142986008Y-83369194D01*
X142986008Y-83312976D01*
X142929790Y-83200538D01*
X142817352Y-83144320D01*
X142648696Y-83144320D01*
X142536259Y-83200538D01*
X142142728Y-83144320D02*
X141692979Y-83144320D01*
X141974072Y-82750789D02*
X141974072Y-83762725D01*
X141917854Y-83875162D01*
X141805416Y-83931381D01*
X141692979Y-83931381D01*
X141299448Y-83931381D02*
X141299448Y-83144320D01*
X141299448Y-82750789D02*
X141355667Y-82807008D01*
X141299448Y-82863226D01*
X141243230Y-82807008D01*
X141299448Y-82750789D01*
X141299448Y-82863226D01*
X140737262Y-83144320D02*
X140737262Y-83931381D01*
X140737262Y-83256757D02*
X140681043Y-83200538D01*
X140568606Y-83144320D01*
X140399950Y-83144320D01*
X140287512Y-83200538D01*
X140231294Y-83312976D01*
X140231294Y-83931381D01*
X139612888Y-82750789D02*
X139725326Y-82975664D01*
X139163139Y-83875162D02*
X139050702Y-83931381D01*
X138825827Y-83931381D01*
X138713390Y-83875162D01*
X138657171Y-83762725D01*
X138657171Y-83706506D01*
X138713390Y-83594069D01*
X138825827Y-83537850D01*
X138994483Y-83537850D01*
X139106920Y-83481632D01*
X139163139Y-83369194D01*
X139163139Y-83312976D01*
X139106920Y-83200538D01*
X138994483Y-83144320D01*
X138825827Y-83144320D01*
X138713390Y-83200538D01*
X136577080Y-83818944D02*
X136633299Y-83875162D01*
X136801955Y-83931381D01*
X136914392Y-83931381D01*
X137083048Y-83875162D01*
X137195486Y-83762725D01*
X137251704Y-83650288D01*
X137307923Y-83425413D01*
X137307923Y-83256757D01*
X137251704Y-83031882D01*
X137195486Y-82919445D01*
X137083048Y-82807008D01*
X136914392Y-82750789D01*
X136801955Y-82750789D01*
X136633299Y-82807008D01*
X136577080Y-82863226D01*
X136071112Y-83931381D02*
X136071112Y-83144320D01*
X136071112Y-83369194D02*
X136014894Y-83256757D01*
X135958675Y-83200538D01*
X135846238Y-83144320D01*
X135733800Y-83144320D01*
X134890520Y-83875162D02*
X135002958Y-83931381D01*
X135227832Y-83931381D01*
X135340270Y-83875162D01*
X135396488Y-83762725D01*
X135396488Y-83312976D01*
X135340270Y-83200538D01*
X135227832Y-83144320D01*
X135002958Y-83144320D01*
X134890520Y-83200538D01*
X134834302Y-83312976D01*
X134834302Y-83425413D01*
X135396488Y-83537850D01*
X133822366Y-83931381D02*
X133822366Y-83312976D01*
X133878584Y-83200538D01*
X133991022Y-83144320D01*
X134215896Y-83144320D01*
X134328334Y-83200538D01*
X133822366Y-83875162D02*
X133934803Y-83931381D01*
X134215896Y-83931381D01*
X134328334Y-83875162D01*
X134384552Y-83762725D01*
X134384552Y-83650288D01*
X134328334Y-83537850D01*
X134215896Y-83481632D01*
X133934803Y-83481632D01*
X133822366Y-83425413D01*
X133428835Y-83144320D02*
X132979086Y-83144320D01*
X133260179Y-82750789D02*
X133260179Y-83762725D01*
X133203960Y-83875162D01*
X133091523Y-83931381D01*
X132979086Y-83931381D01*
X132585555Y-83931381D02*
X132585555Y-83144320D01*
X132585555Y-82750789D02*
X132641774Y-82807008D01*
X132585555Y-82863226D01*
X132529336Y-82807008D01*
X132585555Y-82750789D01*
X132585555Y-82863226D01*
X131854712Y-83931381D02*
X131967150Y-83875162D01*
X132023368Y-83818944D01*
X132079587Y-83706506D01*
X132079587Y-83369194D01*
X132023368Y-83256757D01*
X131967150Y-83200538D01*
X131854712Y-83144320D01*
X131686056Y-83144320D01*
X131573619Y-83200538D01*
X131517400Y-83256757D01*
X131461182Y-83369194D01*
X131461182Y-83706506D01*
X131517400Y-83818944D01*
X131573619Y-83875162D01*
X131686056Y-83931381D01*
X131854712Y-83931381D01*
X130955214Y-83144320D02*
X130955214Y-83931381D01*
X130955214Y-83256757D02*
X130898995Y-83200538D01*
X130786558Y-83144320D01*
X130617902Y-83144320D01*
X130505464Y-83200538D01*
X130449246Y-83312976D01*
X130449246Y-83931381D01*
X129943278Y-83875162D02*
X129830840Y-83931381D01*
X129605966Y-83931381D01*
X129493528Y-83875162D01*
X129437310Y-83762725D01*
X129437310Y-83706506D01*
X129493528Y-83594069D01*
X129605966Y-83537850D01*
X129774622Y-83537850D01*
X129887059Y-83481632D01*
X129943278Y-83369194D01*
X129943278Y-83312976D01*
X129887059Y-83200538D01*
X129774622Y-83144320D01*
X129605966Y-83144320D01*
X129493528Y-83200538D01*
%TO.C,G\u002A\u002A\u002A*%
G36*
X133475699Y-53474296D02*
G01*
X133416159Y-53533835D01*
X130425459Y-53533535D01*
X130015248Y-53533433D01*
X129628464Y-53533193D01*
X129279130Y-53532803D01*
X128965569Y-53532249D01*
X128686108Y-53531515D01*
X128439073Y-53530588D01*
X128222790Y-53529454D01*
X128035585Y-53528098D01*
X127875782Y-53526505D01*
X127741710Y-53524662D01*
X127631692Y-53522554D01*
X127544055Y-53520168D01*
X127477125Y-53517487D01*
X127429228Y-53514499D01*
X127398690Y-53511189D01*
X127383836Y-53507543D01*
X127380045Y-53505475D01*
X127338908Y-53466263D01*
X127308602Y-53411091D01*
X127308416Y-53410530D01*
X127304443Y-53387508D01*
X127300872Y-53343496D01*
X127297685Y-53276848D01*
X127294916Y-53187564D01*
X127627436Y-53187564D01*
X132292737Y-53187564D01*
X132291952Y-52968599D01*
X132291168Y-52749633D01*
X132227456Y-52708895D01*
X132215913Y-52701322D01*
X132136576Y-52631316D01*
X132092492Y-52548425D01*
X132078864Y-52444100D01*
X132079143Y-52428343D01*
X132254107Y-52428343D01*
X132259320Y-52491705D01*
X132287645Y-52539691D01*
X132313768Y-52559258D01*
X132353844Y-52580910D01*
X132359286Y-52582419D01*
X132409132Y-52579653D01*
X132463833Y-52559415D01*
X132500631Y-52529653D01*
X132507934Y-52514732D01*
X132516524Y-52455388D01*
X132506252Y-52391878D01*
X132479545Y-52345412D01*
X132463662Y-52333642D01*
X132402408Y-52314000D01*
X132336921Y-52319216D01*
X132285710Y-52348952D01*
X132272191Y-52367902D01*
X132254107Y-52428343D01*
X132079143Y-52428343D01*
X132079202Y-52424977D01*
X132095362Y-52330689D01*
X132140024Y-52252924D01*
X132219106Y-52180563D01*
X132223184Y-52177630D01*
X132297248Y-52146631D01*
X132387881Y-52136909D01*
X132478105Y-52148436D01*
X132550947Y-52181177D01*
X132627452Y-52254610D01*
X132680989Y-52345334D01*
X132700115Y-52439247D01*
X132699032Y-52455388D01*
X132697843Y-52473098D01*
X132669686Y-52568389D01*
X132615856Y-52652755D01*
X132544555Y-52711824D01*
X132476057Y-52748713D01*
X132476057Y-53187564D01*
X133188968Y-53187564D01*
X133188968Y-49521165D01*
X132813240Y-49521165D01*
X132686473Y-49646805D01*
X132559705Y-49772446D01*
X132571378Y-49897449D01*
X132573406Y-49930518D01*
X132571377Y-49948912D01*
X132560450Y-50047971D01*
X132515849Y-50143542D01*
X132441809Y-50213809D01*
X132340536Y-50255352D01*
X132311368Y-50260764D01*
X132206599Y-50258696D01*
X132115951Y-50225195D01*
X132042830Y-50166693D01*
X131990638Y-50089615D01*
X131962779Y-50000393D01*
X131962679Y-49921544D01*
X132133838Y-49921544D01*
X132136637Y-49986419D01*
X132176929Y-50047205D01*
X132222445Y-50077940D01*
X132269515Y-50091494D01*
X132304706Y-50082940D01*
X132356592Y-50048007D01*
X132398021Y-49998743D01*
X132414950Y-49948912D01*
X132405312Y-49913257D01*
X132370307Y-49863289D01*
X132322620Y-49822928D01*
X132276041Y-49806329D01*
X132275319Y-49806336D01*
X132232230Y-49818987D01*
X132183455Y-49848545D01*
X132168218Y-49862120D01*
X132133838Y-49921544D01*
X131962679Y-49921544D01*
X131962659Y-49905453D01*
X131993681Y-49811226D01*
X132059250Y-49724139D01*
X132079317Y-49705049D01*
X132115418Y-49676297D01*
X132152838Y-49660754D01*
X132204713Y-49654240D01*
X132284183Y-49652574D01*
X132436284Y-49651585D01*
X132583955Y-49504899D01*
X132731626Y-49358214D01*
X133188968Y-49358214D01*
X133188968Y-48685866D01*
X130892376Y-48691045D01*
X128595784Y-48696225D01*
X128590074Y-48944696D01*
X128588201Y-49035891D01*
X128588031Y-49111350D01*
X128591099Y-49159797D01*
X128598514Y-49188632D01*
X128611383Y-49205258D01*
X128630811Y-49217073D01*
X128699386Y-49261828D01*
X128771682Y-49342589D01*
X128811918Y-49436327D01*
X128816526Y-49503650D01*
X128818729Y-49535830D01*
X128790750Y-49633887D01*
X128726615Y-49723287D01*
X128673254Y-49766823D01*
X128575839Y-49808953D01*
X128473056Y-49814717D01*
X128372773Y-49784215D01*
X128282860Y-49717551D01*
X128244938Y-49670481D01*
X128202586Y-49574473D01*
X128196539Y-49497123D01*
X128361542Y-49497123D01*
X128361549Y-49497845D01*
X128374200Y-49540934D01*
X128403758Y-49589709D01*
X128417333Y-49604946D01*
X128476757Y-49639326D01*
X128541632Y-49636527D01*
X128602418Y-49596235D01*
X128633153Y-49550719D01*
X128646707Y-49503650D01*
X128638153Y-49468458D01*
X128603220Y-49416572D01*
X128553955Y-49375144D01*
X128504124Y-49358214D01*
X128468470Y-49367852D01*
X128418502Y-49402857D01*
X128378141Y-49450544D01*
X128361542Y-49497123D01*
X128196539Y-49497123D01*
X128194692Y-49473490D01*
X128219876Y-49375920D01*
X128276759Y-49290149D01*
X128363961Y-49224565D01*
X128423889Y-49193575D01*
X128418177Y-48944900D01*
X128412464Y-48696225D01*
X127638447Y-48696225D01*
X127638447Y-52158936D01*
X127870516Y-52164722D01*
X128102586Y-52170509D01*
X128402944Y-51870151D01*
X128370705Y-51792992D01*
X128349623Y-51701966D01*
X128354080Y-51662564D01*
X128527503Y-51662564D01*
X128529847Y-51723820D01*
X128565231Y-51782111D01*
X128574937Y-51790986D01*
X128637374Y-51820656D01*
X128703520Y-51817293D01*
X128761304Y-51783924D01*
X128798658Y-51723574D01*
X128800480Y-51716929D01*
X128797412Y-51654786D01*
X128767169Y-51595849D01*
X128718540Y-51558260D01*
X128658892Y-51548357D01*
X128598008Y-51566098D01*
X128552217Y-51607079D01*
X128527503Y-51662564D01*
X128354080Y-51662564D01*
X128360684Y-51604173D01*
X128402193Y-51515049D01*
X128469000Y-51442098D01*
X128555951Y-51392825D01*
X128657893Y-51374733D01*
X128751752Y-51389219D01*
X128849577Y-51439360D01*
X128926047Y-51520251D01*
X128928036Y-51523270D01*
X128958722Y-51579132D01*
X128970705Y-51633479D01*
X128968688Y-51706900D01*
X128967598Y-51716929D01*
X128965468Y-51736534D01*
X128937895Y-51834979D01*
X128882336Y-51909137D01*
X128792982Y-51967629D01*
X128776380Y-51975528D01*
X128698575Y-52000170D01*
X128619846Y-51999452D01*
X128587548Y-51995692D01*
X128556636Y-51997140D01*
X128526441Y-52009250D01*
X128489574Y-52036547D01*
X128438645Y-52083560D01*
X128366265Y-52154817D01*
X128197852Y-52321887D01*
X127918149Y-52332071D01*
X127638447Y-52342256D01*
X127632941Y-52764910D01*
X127627436Y-53187564D01*
X127294916Y-53187564D01*
X127294865Y-53185920D01*
X127292395Y-53069066D01*
X127290258Y-52924639D01*
X127288436Y-52750995D01*
X127286911Y-52546487D01*
X127285666Y-52309470D01*
X127284684Y-52038298D01*
X127283948Y-51731326D01*
X127283439Y-51386908D01*
X127283141Y-51003399D01*
X127281991Y-48666466D01*
X126840603Y-48660977D01*
X126399214Y-48655487D01*
X126978093Y-48239725D01*
X127075035Y-48170120D01*
X127215576Y-48069283D01*
X127348613Y-47973911D01*
X127469032Y-47887665D01*
X127571718Y-47814209D01*
X127651555Y-47757206D01*
X127703429Y-47720319D01*
X127849886Y-47616674D01*
X127862504Y-46129746D01*
X128962424Y-46129746D01*
X128972609Y-46468310D01*
X128982793Y-46806874D01*
X129685520Y-46301443D01*
X129768409Y-46241994D01*
X129913973Y-46138439D01*
X130048241Y-46043981D01*
X130167604Y-45961098D01*
X130268453Y-45892265D01*
X130347179Y-45839960D01*
X130400174Y-45806658D01*
X130423827Y-45794835D01*
X130425861Y-45795304D01*
X130454742Y-45811418D01*
X130513110Y-45848994D01*
X130598061Y-45906016D01*
X130706690Y-45980471D01*
X130836094Y-46070344D01*
X130983369Y-46173621D01*
X131145611Y-46288287D01*
X131319915Y-46412327D01*
X131503378Y-46543727D01*
X131623596Y-46630099D01*
X132004510Y-46903745D01*
X132358676Y-47158133D01*
X132685517Y-47392850D01*
X132984461Y-47607484D01*
X133254932Y-47801624D01*
X133496356Y-47974856D01*
X133708158Y-48126770D01*
X133889764Y-48256952D01*
X134040600Y-48364991D01*
X134160091Y-48450474D01*
X134247662Y-48512989D01*
X134302740Y-48552125D01*
X134448990Y-48655487D01*
X133992115Y-48660962D01*
X133535239Y-48666437D01*
X133535239Y-53414756D01*
X133475699Y-53474296D01*
G37*
G36*
X127842508Y-56782779D02*
G01*
X127804526Y-56887929D01*
X127735377Y-56979712D01*
X127638226Y-57052371D01*
X127516233Y-57100151D01*
X127425418Y-57109436D01*
X127306284Y-57091743D01*
X127185470Y-57045909D01*
X127074232Y-56975118D01*
X126998870Y-56914793D01*
X126965866Y-56984343D01*
X126929225Y-57037053D01*
X126868092Y-57081234D01*
X126850336Y-57087058D01*
X126789152Y-57097521D01*
X126712312Y-57103101D01*
X126633805Y-57103528D01*
X126567619Y-57098530D01*
X126527743Y-57087835D01*
X126523576Y-57081152D01*
X126515580Y-57041409D01*
X126510043Y-56975379D01*
X126507974Y-56892995D01*
X126508472Y-56813356D01*
X126511447Y-56755261D01*
X126518976Y-56721471D01*
X126533130Y-56703315D01*
X126555984Y-56692120D01*
X126568024Y-56687056D01*
X126585124Y-56674330D01*
X126596535Y-56651035D01*
X126600879Y-56626993D01*
X127078614Y-56626993D01*
X127080968Y-56662047D01*
X127102011Y-56711701D01*
X127153347Y-56749070D01*
X127202667Y-56766164D01*
X127275563Y-56772339D01*
X127343848Y-56761707D01*
X127390863Y-56735239D01*
X127419187Y-56688892D01*
X127419748Y-56635751D01*
X127387633Y-56590933D01*
X127327227Y-56559979D01*
X127242919Y-56548430D01*
X127163624Y-56551361D01*
X127111379Y-56563118D01*
X127085457Y-56587174D01*
X127078614Y-56626993D01*
X126600879Y-56626993D01*
X126604015Y-56609635D01*
X126609321Y-56542592D01*
X126614209Y-56442371D01*
X126623560Y-56320461D01*
X126650644Y-56175384D01*
X126696159Y-56061427D01*
X126762677Y-55974404D01*
X126852768Y-55910125D01*
X126969003Y-55864403D01*
X126977390Y-55862061D01*
X127090722Y-55842865D01*
X127225742Y-55837082D01*
X127367268Y-55844026D01*
X127500118Y-55863009D01*
X127609112Y-55893346D01*
X127662721Y-55914360D01*
X127730013Y-55944302D01*
X127766242Y-55972219D01*
X127775766Y-56006365D01*
X127762943Y-56054993D01*
X127732130Y-56126359D01*
X127727455Y-56136723D01*
X127697327Y-56200867D01*
X127674014Y-56246127D01*
X127662233Y-56263266D01*
X127649827Y-56258241D01*
X127610168Y-56237895D01*
X127554445Y-56207252D01*
X127504893Y-56181610D01*
X127449545Y-56162467D01*
X127385044Y-56153477D01*
X127295667Y-56151237D01*
X127250714Y-56151939D01*
X127166306Y-56160736D01*
X127113425Y-56182390D01*
X127086085Y-56220401D01*
X127078302Y-56278266D01*
X127078356Y-56285059D01*
X127083475Y-56311639D01*
X127105098Y-56318404D01*
X127154686Y-56310137D01*
X127222109Y-56299938D01*
X127349791Y-56297116D01*
X127474904Y-56312181D01*
X127579815Y-56343738D01*
X127586156Y-56346568D01*
X127688381Y-56403171D01*
X127760808Y-56470674D01*
X127813822Y-56558615D01*
X127836214Y-56635751D01*
X127846161Y-56670017D01*
X127842508Y-56782779D01*
G37*
G36*
X132516795Y-56463560D02*
G01*
X132516743Y-56515320D01*
X132515992Y-56664983D01*
X132514438Y-56799657D01*
X132512198Y-56914194D01*
X132509391Y-57003443D01*
X132506135Y-57062255D01*
X132502548Y-57085479D01*
X132489994Y-57089295D01*
X132443173Y-57093379D01*
X132371235Y-57095058D01*
X132283582Y-57093966D01*
X132078864Y-57088206D01*
X132068082Y-55855888D01*
X132516795Y-55855888D01*
X132516795Y-56463560D01*
G37*
G36*
X131881159Y-56003563D02*
G01*
X131875175Y-56151237D01*
X131615028Y-56156941D01*
X131354882Y-56162645D01*
X131630305Y-56489024D01*
X131905728Y-56815402D01*
X131905728Y-56943317D01*
X131904120Y-57004415D01*
X131899080Y-57058893D01*
X131891801Y-57085159D01*
X131878025Y-57087928D01*
X131828092Y-57090986D01*
X131747365Y-57093181D01*
X131641551Y-57094418D01*
X131516356Y-57094605D01*
X131377487Y-57093646D01*
X130877100Y-57088206D01*
X130871150Y-56930347D01*
X130865201Y-56772488D01*
X131141038Y-56772488D01*
X131170024Y-56772433D01*
X131266906Y-56771375D01*
X131345282Y-56769180D01*
X131397742Y-56766115D01*
X131416875Y-56762452D01*
X131416305Y-56761116D01*
X131398775Y-56737319D01*
X131359653Y-56688281D01*
X131302874Y-56618824D01*
X131232371Y-56533769D01*
X131152079Y-56437938D01*
X130887284Y-56123459D01*
X130887284Y-55855888D01*
X131887144Y-55855888D01*
X131881159Y-56003563D01*
G37*
G36*
X130683595Y-56463560D02*
G01*
X130683544Y-56515320D01*
X130682793Y-56664983D01*
X130681238Y-56799657D01*
X130678999Y-56914194D01*
X130676192Y-57003443D01*
X130672936Y-57062255D01*
X130669348Y-57085479D01*
X130656795Y-57089295D01*
X130609974Y-57093379D01*
X130538035Y-57095058D01*
X130450383Y-57093966D01*
X130245664Y-57088206D01*
X130234882Y-55855888D01*
X130683595Y-55855888D01*
X130683595Y-56463560D01*
G37*
G36*
X135276909Y-50824722D02*
G01*
X135183573Y-51243118D01*
X135054540Y-51653415D01*
X134891746Y-52050962D01*
X134697127Y-52431112D01*
X134472618Y-52789215D01*
X134220155Y-53120621D01*
X134213506Y-53128507D01*
X134095916Y-53260631D01*
X133958519Y-53403817D01*
X133810315Y-53549447D01*
X133660300Y-53688904D01*
X133517472Y-53813574D01*
X133390828Y-53914837D01*
X133298504Y-53982546D01*
X132919932Y-54229415D01*
X132525523Y-54438768D01*
X132115582Y-54610491D01*
X131690415Y-54744468D01*
X131250328Y-54840583D01*
X130795624Y-54898720D01*
X130771117Y-54900675D01*
X130552513Y-54909684D01*
X130309234Y-54906968D01*
X130053773Y-54893404D01*
X129798625Y-54869870D01*
X129556285Y-54837243D01*
X129339249Y-54796402D01*
X129032857Y-54717447D01*
X128618124Y-54575370D01*
X128219583Y-54397591D01*
X127839376Y-54185897D01*
X127479642Y-53942070D01*
X127142523Y-53667898D01*
X126830160Y-53365165D01*
X126544692Y-53035656D01*
X126288262Y-52681156D01*
X126063009Y-52303451D01*
X125871074Y-51904325D01*
X125807009Y-51747711D01*
X125697072Y-51435496D01*
X125612887Y-51124143D01*
X125552504Y-50804295D01*
X125513972Y-50466592D01*
X125495341Y-50101678D01*
X125493493Y-49978024D01*
X125494249Y-49953308D01*
X125708983Y-49953308D01*
X125714486Y-50236230D01*
X125733305Y-50507342D01*
X125765440Y-50753482D01*
X125780643Y-50838414D01*
X125879708Y-51256123D01*
X126016791Y-51665214D01*
X126189858Y-52060917D01*
X126396874Y-52438466D01*
X126635804Y-52793093D01*
X126682149Y-52853285D01*
X126791628Y-52985098D01*
X126918498Y-53127485D01*
X127054465Y-53271759D01*
X127191234Y-53409233D01*
X127320511Y-53531222D01*
X127434003Y-53629038D01*
X127594315Y-53751822D01*
X127875795Y-53942297D01*
X128175018Y-54117240D01*
X128482533Y-54271668D01*
X128788889Y-54400601D01*
X129084638Y-54499057D01*
X129121187Y-54509216D01*
X129339396Y-54562687D01*
X129574945Y-54610073D01*
X129809596Y-54648000D01*
X130025112Y-54673092D01*
X130335398Y-54689514D01*
X130762905Y-54677433D01*
X131189811Y-54625775D01*
X131612646Y-54535003D01*
X132027942Y-54405582D01*
X132037009Y-54402277D01*
X132190232Y-54341226D01*
X132361052Y-54265048D01*
X132538226Y-54179364D01*
X132710514Y-54089801D01*
X132866673Y-54001981D01*
X132995464Y-53921529D01*
X133001710Y-53917322D01*
X133367229Y-53647598D01*
X133700098Y-53353725D01*
X133999978Y-53036177D01*
X134266533Y-52695429D01*
X134499425Y-52331956D01*
X134698316Y-51946234D01*
X134862869Y-51538736D01*
X134992748Y-51109938D01*
X134997570Y-51090851D01*
X135062279Y-50769822D01*
X135103511Y-50425678D01*
X135121094Y-50068118D01*
X135114854Y-49706843D01*
X135084618Y-49351552D01*
X135030212Y-49011945D01*
X134974571Y-48772933D01*
X134849798Y-48375814D01*
X134688173Y-47989456D01*
X134491903Y-47617150D01*
X134263192Y-47262191D01*
X134004247Y-46927871D01*
X133717272Y-46617484D01*
X133404472Y-46334324D01*
X133068054Y-46081683D01*
X132885885Y-45963887D01*
X132510378Y-45756278D01*
X132120904Y-45585154D01*
X131720166Y-45450613D01*
X131310871Y-45352751D01*
X130895725Y-45291667D01*
X130477432Y-45267456D01*
X130058699Y-45280216D01*
X129642230Y-45330043D01*
X129230731Y-45417035D01*
X128826908Y-45541289D01*
X128433465Y-45702901D01*
X128053110Y-45901968D01*
X127835982Y-46036487D01*
X127481039Y-46293117D01*
X127154322Y-46577932D01*
X126857113Y-46889083D01*
X126590693Y-47224719D01*
X126356343Y-47582992D01*
X126155344Y-47962051D01*
X125988977Y-48360046D01*
X125858523Y-48775128D01*
X125765263Y-49205447D01*
X125737934Y-49404696D01*
X125716799Y-49671742D01*
X125708983Y-49953308D01*
X125494249Y-49953308D01*
X125506176Y-49563522D01*
X125549446Y-49169480D01*
X125624457Y-48789648D01*
X125732362Y-48417773D01*
X125874315Y-48047606D01*
X126023463Y-47730927D01*
X126244116Y-47344976D01*
X126496695Y-46982038D01*
X126779315Y-46644133D01*
X127090095Y-46333281D01*
X127427150Y-46051502D01*
X127788596Y-45800814D01*
X128172552Y-45583237D01*
X128453597Y-45451189D01*
X128868317Y-45292921D01*
X129292280Y-45172678D01*
X129722787Y-45090812D01*
X130157140Y-45047675D01*
X130592638Y-45043621D01*
X131026584Y-45079002D01*
X131456278Y-45154170D01*
X131634493Y-45197846D01*
X131951897Y-45293463D01*
X132268956Y-45410189D01*
X132575631Y-45543848D01*
X132861884Y-45690266D01*
X133117677Y-45845266D01*
X133176506Y-45885123D01*
X133482018Y-46114434D01*
X133777153Y-46372454D01*
X134054327Y-46651645D01*
X134305957Y-46944470D01*
X134524458Y-47243393D01*
X134693824Y-47517828D01*
X134892552Y-47905525D01*
X135056821Y-48310637D01*
X135185657Y-48729270D01*
X135278090Y-49157526D01*
X135333146Y-49591508D01*
X135349855Y-50027321D01*
X135347728Y-50068118D01*
X135327242Y-50461068D01*
X135276909Y-50824722D01*
G37*
G36*
X131035645Y-52263716D02*
G01*
X131030268Y-52319218D01*
X131032297Y-52372941D01*
X131041700Y-52445809D01*
X131042272Y-52449772D01*
X131042381Y-52451597D01*
X131045606Y-52505734D01*
X131030927Y-52546264D01*
X130991214Y-52591647D01*
X130928024Y-52638833D01*
X130851907Y-52667559D01*
X130828091Y-52672555D01*
X130793938Y-52689183D01*
X130777977Y-52696954D01*
X130744702Y-52745585D01*
X130740690Y-52753410D01*
X130698885Y-52809123D01*
X130644937Y-52856377D01*
X130608049Y-52877604D01*
X130561340Y-52893004D01*
X130499032Y-52900457D01*
X130408615Y-52902400D01*
X130401880Y-52902383D01*
X130280533Y-52893694D01*
X130190017Y-52866936D01*
X130123512Y-52818927D01*
X130074200Y-52746490D01*
X130061745Y-52724367D01*
X130026581Y-52690279D01*
X130248951Y-52690279D01*
X130251058Y-52702068D01*
X130265564Y-52711788D01*
X130314661Y-52725687D01*
X130380404Y-52731927D01*
X130451387Y-52730952D01*
X130516209Y-52723207D01*
X130563465Y-52709136D01*
X130581751Y-52689183D01*
X130578153Y-52687011D01*
X130544741Y-52682572D01*
X130483789Y-52679494D01*
X130404541Y-52678342D01*
X130331681Y-52679168D01*
X130274250Y-52682889D01*
X130248951Y-52690279D01*
X130026581Y-52690279D01*
X130023680Y-52687467D01*
X129962881Y-52669432D01*
X129897961Y-52648274D01*
X129812998Y-52585836D01*
X129797149Y-52569704D01*
X129762463Y-52527139D01*
X129750613Y-52489044D01*
X129753707Y-52454140D01*
X129933754Y-52454140D01*
X129938723Y-52472376D01*
X129941638Y-52474525D01*
X129975724Y-52481399D01*
X130041288Y-52486955D01*
X130131109Y-52491174D01*
X130237970Y-52494038D01*
X130354652Y-52495530D01*
X130473936Y-52495631D01*
X130588603Y-52494324D01*
X130691435Y-52491591D01*
X130775212Y-52487413D01*
X130832717Y-52481773D01*
X130856731Y-52474653D01*
X130859417Y-52469998D01*
X130863922Y-52451597D01*
X130852544Y-52437601D01*
X130821144Y-52427443D01*
X130765581Y-52420556D01*
X130681713Y-52416374D01*
X130565402Y-52414331D01*
X130412505Y-52413859D01*
X130412243Y-52413859D01*
X130252935Y-52414695D01*
X130130531Y-52417255D01*
X130041220Y-52422009D01*
X129981193Y-52429427D01*
X129946641Y-52439981D01*
X129933754Y-52454140D01*
X129753707Y-52454140D01*
X129755064Y-52438836D01*
X129759063Y-52414436D01*
X129766863Y-52349713D01*
X129765672Y-52297496D01*
X129755538Y-52236742D01*
X129753460Y-52224575D01*
X129754618Y-52205495D01*
X129935512Y-52205495D01*
X129952798Y-52232192D01*
X129970084Y-52235883D01*
X130023183Y-52240091D01*
X130103840Y-52243502D01*
X130204558Y-52246075D01*
X130317837Y-52247766D01*
X130436182Y-52248536D01*
X130552094Y-52248342D01*
X130658074Y-52247144D01*
X130746627Y-52244899D01*
X130810252Y-52241567D01*
X130841454Y-52237106D01*
X130851514Y-52230684D01*
X130866915Y-52197976D01*
X130864179Y-52191080D01*
X130848505Y-52183171D01*
X130814886Y-52177346D01*
X130758766Y-52173315D01*
X130675586Y-52170793D01*
X130560789Y-52169490D01*
X130409817Y-52169120D01*
X130249102Y-52169898D01*
X130115679Y-52172485D01*
X130020367Y-52176949D01*
X129961827Y-52183355D01*
X129938723Y-52191766D01*
X129935512Y-52205495D01*
X129754618Y-52205495D01*
X129757258Y-52161970D01*
X129788580Y-52089836D01*
X129799909Y-52069344D01*
X129814073Y-52039100D01*
X129822638Y-52007126D01*
X129826023Y-51965650D01*
X129824649Y-51906901D01*
X129818937Y-51823107D01*
X129809306Y-51706497D01*
X129808267Y-51694191D01*
X129797614Y-51574247D01*
X129786431Y-51483776D01*
X129770920Y-51412572D01*
X129747281Y-51350426D01*
X129711714Y-51287133D01*
X129660419Y-51212485D01*
X129589598Y-51116276D01*
X129563933Y-51081234D01*
X129499118Y-50989680D01*
X129438267Y-50900016D01*
X129391799Y-50827454D01*
X129390472Y-50825264D01*
X129296501Y-50634664D01*
X129240785Y-50439937D01*
X129226497Y-50283937D01*
X129403068Y-50283937D01*
X129423365Y-50448294D01*
X129469007Y-50600716D01*
X129483259Y-50634144D01*
X129505167Y-50680071D01*
X129532442Y-50730104D01*
X129568153Y-50789072D01*
X129615367Y-50861803D01*
X129677154Y-50953127D01*
X129756581Y-51067871D01*
X129856717Y-51210865D01*
X129956623Y-51353072D01*
X129983341Y-51643975D01*
X129986904Y-51682930D01*
X129996095Y-51785020D01*
X130003596Y-51870639D01*
X130008709Y-51931755D01*
X130010740Y-51960339D01*
X130011450Y-51963806D01*
X130032313Y-51976465D01*
X130085206Y-51983576D01*
X130174373Y-51985800D01*
X130337324Y-51985800D01*
X130337324Y-51288897D01*
X130202220Y-51006937D01*
X130193741Y-50989260D01*
X130143333Y-50885660D01*
X130105522Y-50812571D01*
X130076476Y-50764289D01*
X130052365Y-50735113D01*
X130029357Y-50719337D01*
X130003624Y-50711259D01*
X129890485Y-50674741D01*
X129797092Y-50617510D01*
X130202576Y-50617510D01*
X130203247Y-50668945D01*
X130219465Y-50725740D01*
X130254727Y-50802183D01*
X130255713Y-50804133D01*
X130288302Y-50865911D01*
X130314040Y-50909874D01*
X130327433Y-50926618D01*
X130332383Y-50908398D01*
X130335959Y-50859933D01*
X130337324Y-50791817D01*
X130336093Y-50728036D01*
X130334994Y-50719816D01*
X130461775Y-50719816D01*
X130463521Y-50791817D01*
X130463632Y-50796376D01*
X130469722Y-50936802D01*
X130535921Y-50796495D01*
X130543481Y-50780366D01*
X130579639Y-50697135D01*
X130597445Y-50639207D01*
X130598722Y-50598021D01*
X130585298Y-50565020D01*
X130578177Y-50557684D01*
X130553736Y-50561876D01*
X130513321Y-50597729D01*
X130509609Y-50601626D01*
X130481459Y-50635650D01*
X130466616Y-50670643D01*
X130461775Y-50719816D01*
X130334994Y-50719816D01*
X130328704Y-50672787D01*
X130310735Y-50631481D01*
X130277819Y-50589244D01*
X130246265Y-50553306D01*
X130733047Y-50553306D01*
X130747656Y-50570599D01*
X130790314Y-50577153D01*
X130849831Y-50561130D01*
X130917871Y-50525206D01*
X130986097Y-50472057D01*
X131009303Y-50445819D01*
X131045080Y-50393837D01*
X131081824Y-50331065D01*
X131114972Y-50266540D01*
X131139966Y-50209297D01*
X131152243Y-50168371D01*
X131147243Y-50152799D01*
X131129248Y-50156619D01*
X131080949Y-50173958D01*
X131019682Y-50200525D01*
X130956573Y-50236469D01*
X130879885Y-50296747D01*
X130812969Y-50366225D01*
X130762043Y-50437248D01*
X130733329Y-50502160D01*
X130733047Y-50553306D01*
X130246265Y-50553306D01*
X130218315Y-50521472D01*
X130215543Y-50537881D01*
X130205113Y-50599609D01*
X130202576Y-50617510D01*
X129797092Y-50617510D01*
X129763123Y-50596694D01*
X129654251Y-50482978D01*
X129563524Y-50333213D01*
X129504026Y-50181307D01*
X129649569Y-50181307D01*
X129663309Y-50228078D01*
X129688026Y-50288415D01*
X129718907Y-50350713D01*
X129751141Y-50403367D01*
X129769449Y-50425367D01*
X129823481Y-50475632D01*
X129886124Y-50521662D01*
X129951437Y-50557739D01*
X130016573Y-50577877D01*
X130057092Y-50570125D01*
X130071865Y-50537881D01*
X130059763Y-50484546D01*
X130019655Y-50413519D01*
X129950411Y-50328199D01*
X129917548Y-50296970D01*
X129857741Y-50251388D01*
X129791531Y-50209588D01*
X129728514Y-50176935D01*
X129678285Y-50158792D01*
X129650439Y-50160523D01*
X129649569Y-50181307D01*
X129504026Y-50181307D01*
X129490596Y-50147018D01*
X129473031Y-50088213D01*
X129464679Y-50045084D01*
X129469200Y-50018561D01*
X129486252Y-49996868D01*
X129495497Y-49988416D01*
X129516328Y-49978196D01*
X129547009Y-49978899D01*
X129597014Y-49991538D01*
X129675816Y-50017124D01*
X129703323Y-50026659D01*
X129867165Y-50097955D01*
X129997000Y-50182087D01*
X130089998Y-50277280D01*
X130148965Y-50357463D01*
X130156967Y-50196776D01*
X130286519Y-50196776D01*
X130294701Y-50321891D01*
X130327598Y-50426471D01*
X130359441Y-50481624D01*
X130391678Y-50510142D01*
X130423075Y-50500988D01*
X130458344Y-50455199D01*
X130497019Y-50363514D01*
X130517430Y-50246663D01*
X130514052Y-50125551D01*
X130507930Y-50092617D01*
X130489771Y-50025744D01*
X130465523Y-49954894D01*
X130439382Y-49890889D01*
X130415542Y-49844549D01*
X130398199Y-49826698D01*
X130384049Y-49843951D01*
X130361204Y-49889715D01*
X130334715Y-49954004D01*
X130302875Y-50062839D01*
X130286519Y-50196776D01*
X130156967Y-50196776D01*
X130157870Y-50178648D01*
X130159282Y-50152366D01*
X130167106Y-50064341D01*
X130181651Y-49992129D01*
X130207324Y-49918619D01*
X130248534Y-49826698D01*
X130279523Y-49762885D01*
X130328724Y-49674531D01*
X130370640Y-49624123D01*
X130408994Y-49611236D01*
X130447509Y-49635445D01*
X130489906Y-49696327D01*
X130539908Y-49793455D01*
X130578419Y-49880369D01*
X130630197Y-50032433D01*
X130655955Y-50168813D01*
X130654752Y-50246663D01*
X130654190Y-50283060D01*
X130640956Y-50366474D01*
X130703885Y-50281117D01*
X130721154Y-50259164D01*
X130817897Y-50169537D01*
X130950444Y-50089747D01*
X131120948Y-50018436D01*
X131159769Y-50004802D01*
X131224329Y-49984059D01*
X131264444Y-49976316D01*
X131289511Y-49980413D01*
X131308928Y-49995186D01*
X131312036Y-49998380D01*
X131328506Y-50024674D01*
X131329868Y-50061413D01*
X131317011Y-50122622D01*
X131306398Y-50161558D01*
X131303774Y-50168371D01*
X131245612Y-50319357D01*
X131163427Y-50458069D01*
X131064302Y-50572321D01*
X131030324Y-50598021D01*
X130952694Y-50656738D01*
X130833061Y-50705948D01*
X130715656Y-50734603D01*
X130587713Y-51008838D01*
X130459771Y-51283074D01*
X130459537Y-51985800D01*
X130783594Y-51985800D01*
X130793731Y-51919601D01*
X130798549Y-51883383D01*
X130806969Y-51811510D01*
X130817015Y-51719673D01*
X130827421Y-51619160D01*
X130835727Y-51540513D01*
X130847637Y-51455007D01*
X130863871Y-51385242D01*
X130888382Y-51321497D01*
X130925121Y-51254054D01*
X130978043Y-51173195D01*
X131051099Y-51069200D01*
X131066120Y-51047966D01*
X131182395Y-50874293D01*
X131270838Y-50721445D01*
X131333698Y-50583704D01*
X131373223Y-50455350D01*
X131391660Y-50330665D01*
X131391258Y-50203930D01*
X131386908Y-50157681D01*
X131345856Y-49975200D01*
X131268899Y-49810925D01*
X131157490Y-49667380D01*
X131013083Y-49547088D01*
X130924491Y-49493663D01*
X130749693Y-49418899D01*
X130567793Y-49376201D01*
X130383567Y-49364147D01*
X130201793Y-49381316D01*
X130027249Y-49426284D01*
X129864711Y-49497630D01*
X129718958Y-49593931D01*
X129594767Y-49713765D01*
X129496915Y-49855709D01*
X129430180Y-50018342D01*
X129409134Y-50122906D01*
X129403068Y-50283937D01*
X129226497Y-50283937D01*
X129222930Y-50244986D01*
X129242539Y-50053714D01*
X129299217Y-49870022D01*
X129392569Y-49697813D01*
X129522198Y-49540990D01*
X129586085Y-49481339D01*
X129760388Y-49356069D01*
X129953822Y-49266683D01*
X130166575Y-49213105D01*
X130398834Y-49195263D01*
X130432130Y-49195674D01*
X130537302Y-49201249D01*
X130637541Y-49211981D01*
X130714961Y-49226122D01*
X130803228Y-49251915D01*
X130998398Y-49335644D01*
X131170268Y-49448246D01*
X131315747Y-49586454D01*
X131431742Y-49747002D01*
X131515162Y-49926622D01*
X131562913Y-50122047D01*
X131568254Y-50165827D01*
X131571778Y-50315106D01*
X131569614Y-50330665D01*
X131550906Y-50465172D01*
X131503967Y-50620713D01*
X131429289Y-50786415D01*
X131325198Y-50966963D01*
X131190023Y-51167045D01*
X131025274Y-51397287D01*
X130993508Y-51707991D01*
X130961742Y-52018696D01*
X131008436Y-52081852D01*
X131024527Y-52105335D01*
X131045244Y-52158635D01*
X131043291Y-52197976D01*
X131042036Y-52223263D01*
X131035645Y-52263716D01*
G37*
G36*
X133249890Y-55942456D02*
G01*
X133287848Y-56072059D01*
X133325500Y-56198540D01*
X133358478Y-56307173D01*
X133385142Y-56392631D01*
X133403854Y-56449585D01*
X133412976Y-56472708D01*
X133413084Y-56472815D01*
X133422503Y-56457398D01*
X133441601Y-56407853D01*
X133468753Y-56329042D01*
X133502337Y-56225827D01*
X133540729Y-56103067D01*
X133582306Y-55965627D01*
X133582391Y-55965340D01*
X133623933Y-55826498D01*
X133661881Y-55700941D01*
X133694646Y-55593827D01*
X133720637Y-55510311D01*
X133738267Y-55455552D01*
X133745945Y-55434704D01*
X133765828Y-55432184D01*
X133818697Y-55430835D01*
X133896052Y-55430937D01*
X133989521Y-55432564D01*
X134225194Y-55438326D01*
X133924705Y-56243866D01*
X133890724Y-56334859D01*
X133828195Y-56501743D01*
X133770502Y-56655020D01*
X133719200Y-56790592D01*
X133675849Y-56904363D01*
X133642007Y-56992236D01*
X133619230Y-57050113D01*
X133609078Y-57073898D01*
X133595982Y-57081309D01*
X133549869Y-57090268D01*
X133482654Y-57096121D01*
X133406152Y-57098586D01*
X133332179Y-57097377D01*
X133272550Y-57092210D01*
X133239080Y-57082802D01*
X133235381Y-57077108D01*
X133218019Y-57038785D01*
X133189059Y-56968168D01*
X133150079Y-56869337D01*
X133102660Y-56746371D01*
X133048383Y-56603348D01*
X132988825Y-56444349D01*
X132925569Y-56273450D01*
X132895937Y-56192929D01*
X132834670Y-56026455D01*
X132778324Y-55873363D01*
X132728423Y-55737796D01*
X132686491Y-55623896D01*
X132654053Y-55535802D01*
X132632635Y-55477657D01*
X132623759Y-55453603D01*
X132623361Y-55448672D01*
X132637845Y-55438895D01*
X132678425Y-55432567D01*
X132749968Y-55429160D01*
X132857339Y-55428142D01*
X133100398Y-55428142D01*
X133249890Y-55942456D01*
G37*
G36*
X128712141Y-55657292D02*
G01*
X128717998Y-55845704D01*
X128784197Y-55852087D01*
X128850395Y-55858469D01*
X128850395Y-56202159D01*
X128712596Y-56202159D01*
X128704595Y-56533624D01*
X128701749Y-56636791D01*
X128697444Y-56738195D01*
X128691610Y-56811496D01*
X128683390Y-56863795D01*
X128671930Y-56902190D01*
X128656373Y-56933780D01*
X128622271Y-56983055D01*
X128535945Y-57058439D01*
X128429060Y-57099256D01*
X128414374Y-57101726D01*
X128337449Y-57107397D01*
X128259698Y-57104687D01*
X128230954Y-57101004D01*
X128155291Y-57087482D01*
X128075638Y-57069317D01*
X128003028Y-57049415D01*
X127948490Y-57030680D01*
X127923057Y-57016018D01*
X127922115Y-57012578D01*
X127924381Y-56978032D01*
X127934578Y-56917360D01*
X127951017Y-56841115D01*
X127988610Y-56681799D01*
X128108877Y-56681314D01*
X128229144Y-56680828D01*
X128234883Y-56441494D01*
X128240622Y-56202159D01*
X128015271Y-56202159D01*
X128015271Y-55858017D01*
X128122208Y-55851861D01*
X128229144Y-55845704D01*
X128235001Y-55657292D01*
X128240858Y-55468879D01*
X128706285Y-55468879D01*
X128712141Y-55657292D01*
G37*
G36*
X132516795Y-55754044D02*
G01*
X132068679Y-55754044D01*
X132068679Y-55387404D01*
X132516795Y-55387404D01*
X132516795Y-55754044D01*
G37*
G36*
X129652031Y-55844117D02*
G01*
X129748999Y-55867638D01*
X129832294Y-55910903D01*
X129911645Y-55976767D01*
X129993531Y-56076589D01*
X130039085Y-56180625D01*
X130046899Y-56283781D01*
X130016678Y-56382039D01*
X129948124Y-56471378D01*
X129946743Y-56472686D01*
X129898416Y-56512415D01*
X129841409Y-56545244D01*
X129765312Y-56576188D01*
X129659711Y-56610259D01*
X129619575Y-56622382D01*
X129515312Y-56654559D01*
X129442993Y-56678808D01*
X129397133Y-56697665D01*
X129372247Y-56713667D01*
X129362848Y-56729350D01*
X129363450Y-56747251D01*
X129364515Y-56751333D01*
X129393062Y-56777596D01*
X129451368Y-56789712D01*
X129531929Y-56787785D01*
X129627240Y-56771919D01*
X129729795Y-56742216D01*
X129742536Y-56737721D01*
X129816789Y-56711565D01*
X129876491Y-56690601D01*
X129909711Y-56679020D01*
X129933878Y-56685959D01*
X129969253Y-56725644D01*
X130016647Y-56801060D01*
X130022268Y-56810890D01*
X130058064Y-56876460D01*
X130083328Y-56927842D01*
X130092897Y-56954632D01*
X130087469Y-56965404D01*
X130050360Y-56989339D01*
X129984476Y-57016020D01*
X129897343Y-57043215D01*
X129796482Y-57068695D01*
X129689418Y-57090229D01*
X129583675Y-57105588D01*
X129502943Y-57109583D01*
X129384234Y-57102560D01*
X129269411Y-57083498D01*
X129176551Y-57054659D01*
X129070282Y-56995872D01*
X128989920Y-56917093D01*
X128943239Y-56818859D01*
X128927484Y-56697217D01*
X128928343Y-56660455D01*
X128940427Y-56587072D01*
X128969698Y-56524418D01*
X129020007Y-56469692D01*
X129095201Y-56420091D01*
X129199130Y-56372810D01*
X129335641Y-56325049D01*
X129508585Y-56274003D01*
X129554532Y-56260487D01*
X129599904Y-56242249D01*
X129619125Y-56222745D01*
X129620614Y-56196122D01*
X129606672Y-56168956D01*
X129560244Y-56147340D01*
X129487758Y-56143743D01*
X129395309Y-56158260D01*
X129288996Y-56190985D01*
X129282333Y-56193486D01*
X129213584Y-56218475D01*
X129161006Y-56236176D01*
X129135515Y-56242897D01*
X129130338Y-56240690D01*
X129106385Y-56213688D01*
X129073656Y-56164651D01*
X129038392Y-56104586D01*
X129006836Y-56044504D01*
X128985231Y-55995413D01*
X128979819Y-55968323D01*
X128980437Y-55966910D01*
X129010028Y-55942509D01*
X129070684Y-55916184D01*
X129153540Y-55890367D01*
X129249732Y-55867490D01*
X129350394Y-55849984D01*
X129446660Y-55840281D01*
X129531660Y-55837483D01*
X129652031Y-55844117D01*
G37*
G36*
X130683595Y-55754044D02*
G01*
X130235480Y-55754044D01*
X130235480Y-55387404D01*
X130683595Y-55387404D01*
X130683595Y-55754044D01*
G37*
%TD*%
%LPC*%
D13*
%TO.C,J18*%
X148105000Y-89093000D03*
X151605000Y-89093000D03*
X155105000Y-89093000D03*
X158605000Y-89093000D03*
%TD*%
D14*
%TO.C,J19*%
X148105000Y-94579000D03*
X151605000Y-94579000D03*
X155105000Y-94579000D03*
X158605000Y-94579000D03*
%TD*%
%TO.C,J17*%
X132314666Y-94579000D03*
X135814666Y-94579000D03*
X139314666Y-94579000D03*
X142814666Y-94579000D03*
%TD*%
D13*
%TO.C,J16*%
X132314666Y-89093000D03*
X135814666Y-89093000D03*
X139314666Y-89093000D03*
X142814666Y-89093000D03*
%TD*%
D14*
%TO.C,J14*%
X116524333Y-94579000D03*
X120024333Y-94579000D03*
X123524333Y-94579000D03*
X127024333Y-94579000D03*
%TD*%
D13*
%TO.C,J13*%
X127024333Y-89093000D03*
X123524333Y-89093000D03*
X120024333Y-89093000D03*
X116524333Y-89093000D03*
%TD*%
D14*
%TO.C,J12*%
X111234000Y-94579000D03*
X107734000Y-94579000D03*
X104234000Y-94579000D03*
X100734000Y-94579000D03*
%TD*%
D13*
%TO.C,J11*%
X111234000Y-89093000D03*
X107734000Y-89093000D03*
X104234000Y-89093000D03*
X100734000Y-89093000D03*
%TD*%
D15*
%TO.C,RJ45-1*%
X156428400Y-53049400D03*
X103088400Y-53049400D03*
D16*
X155158400Y-59399400D03*
X153888400Y-61939400D03*
X152618400Y-59399400D03*
X151348400Y-61939400D03*
X150078400Y-59399400D03*
X148808400Y-61939400D03*
X147538400Y-59399400D03*
X146268400Y-61939400D03*
X141188400Y-59399400D03*
X139918400Y-61939400D03*
X138648400Y-59399400D03*
X137378400Y-61939400D03*
X136108400Y-59399400D03*
X134838400Y-61939400D03*
X133568400Y-59399400D03*
X132298400Y-61939400D03*
X127218400Y-59399400D03*
X125948400Y-61939400D03*
X124678400Y-59399400D03*
X123408400Y-61939400D03*
X122138400Y-59399400D03*
X120868400Y-61939400D03*
X119598400Y-59399400D03*
X118328400Y-61939400D03*
X113248400Y-59399400D03*
X111978400Y-61939400D03*
X110708400Y-59399400D03*
X109438400Y-61939400D03*
X108168400Y-59399400D03*
X106898400Y-61939400D03*
X105628400Y-59399400D03*
X104358400Y-61939400D03*
D17*
X115788400Y-63209400D03*
X100358400Y-48479400D03*
X159158400Y-48479400D03*
X129758400Y-63209400D03*
X143728400Y-63209400D03*
%TD*%
M02*
