M48
METRIC,TZ
T1C0.350
T2C0.400
T3C0.900
T4C1.000
T5C1.600
T6C1.700
%
G90
G05
T1
X99126Y-37531
X100498Y-11933
X108577Y-19001
X110406Y-18170
X111434Y-23665
X111464Y-22700
X111485Y-21744
X111486Y-17303
X111572Y-20792
X111598Y-16247
X131646Y-19159
X131654Y-18103
X131756Y-16202
X131796Y-17157
X131839Y-21609
X131873Y-22564
X131877Y-20654
X131892Y-23629
X137378Y-30089
X140852Y-32458
X143271Y-31968
X144154Y-30902
X153990Y-14798
X154879Y-13983
T2
X96205Y-72710
X97094Y-74615
X97856Y-20259
X100294Y-72710
X101031Y-74615
X104333Y-72583
X105222Y-74742
X105984Y-11039
X106374Y-29022
X107177Y-31816
X107254Y-45024
X108524Y-72710
X109413Y-31181
X109413Y-74742
X109845Y-45176
X110556Y-33340
X112093Y-32464
X112334Y-45024
X112588Y-72710
X113604Y-74488
X114874Y-45024
X116772Y-29727
X117287Y-72710
X118176Y-74488
X119065Y-45024
X119319Y-32633
X119827Y-31054
X121605Y-45024
X121859Y-72710
X122063Y-33537
X122748Y-74615
X122926Y-31994
X124145Y-45024
X126304Y-72710
X126685Y-45024
X127320Y-74488
X127821Y-30108
X127968Y-63251
X130622Y-31181
X130632Y-33071
X130724Y-45278
X130978Y-72659
X131892Y-50561
X131892Y-52034
X131892Y-53355
X131892Y-54625
X131892Y-55895
X131892Y-57064
X131892Y-74488
X132857Y-50561
X132857Y-52034
X132857Y-53355
X132857Y-54625
X132857Y-55895
X132857Y-57064
X132857Y-58130
X133289Y-32959
X133289Y-45024
X133772Y-50561
X133772Y-52034
X133772Y-53355
X133772Y-54625
X133772Y-55895
X133772Y-57064
X133772Y-58130
X133797Y-9953
X133808Y-8713
X133873Y-31867
X133975Y-11344
X135321Y-72710
X135829Y-45024
X136210Y-74615
X136972Y-63922
X137937Y-63922
X138369Y-45024
X138852Y-31206
X138953Y-63922
X139385Y-72710
X140401Y-74488
X140426Y-57368
X140426Y-58435
X140426Y-59451
X140426Y-60569
X141392Y-57368
X141392Y-58435
X141392Y-59451
X141392Y-60569
X142052Y-45024
X142306Y-51933
X142306Y-53203
X142306Y-54574
X142357Y-50612
X142357Y-55743
X142357Y-57318
X142357Y-58384
X142357Y-59400
X142357Y-60518
X143271Y-51984
X143271Y-53254
X143271Y-54625
X143322Y-55794
X143322Y-57318
X143322Y-58384
X143322Y-59400
X143322Y-60518
X143703Y-72710
X144287Y-51984
X144287Y-53254
X144287Y-54625
X144338Y-55794
X144592Y-45024
X144592Y-74615
X147132Y-45024
X147887Y-7808
X147965Y-14995
X148148Y-72837
X149164Y-74615
X149774Y-45227
X150046Y-11312
X150078Y-63820
X150636Y-57565
X151951Y-27632
X152466Y-72837
X153355Y-74615
X156784Y-72710
X157673Y-74615
X161102Y-72761
X161991Y-74615
T3
X104206Y-86693
X105476Y-84152
X106746Y-86693
X108016Y-84152
X109286Y-86693
X110556Y-84152
X111826Y-86693
X113096Y-84152
X118176Y-86693
X119446Y-84152
X120716Y-86693
X121986Y-84152
X123256Y-86693
X124526Y-84152
X125796Y-86693
X127066Y-84152
X132146Y-86693
X133416Y-84152
X134686Y-86693
X135956Y-84152
X137226Y-86693
X138496Y-84152
X139766Y-86693
X141036Y-84152
X146116Y-86693
X147386Y-84152
X148656Y-86693
X149926Y-84152
X151196Y-86693
X152466Y-84152
X153736Y-86693
X155006Y-84152
T4
X99253Y-29784
X99253Y-32324
X99253Y-34864
X101793Y-29784
X101793Y-32324
X101793Y-34864
X157394Y-29784
X157394Y-32324
X157394Y-34864
X159934Y-29784
X159934Y-32324
X159934Y-34864
T5
X100206Y-97613
X115636Y-82883
X129606Y-82883
X143576Y-82883
X159006Y-97613
T6
X99939Y-58070
X99939Y-63068
X159368Y-58136
X159368Y-63134
T0
M30
