M48
; DRILL file {KiCad (6.0.9)} date Fri Nov 10 22:24:19 2023
; FORMAT={-:-/ absolute / metric / decimal}
; #@! TF.CreationDate,2023-11-10T22:24:19+05:30
; #@! TF.GenerationSoftware,Kicad,Pcbnew,(6.0.9)
; #@! TF.FileFunction,MixedPlating,1,2
FMAT,2
METRIC
; #@! TA.AperFunction,Plated,PTH,ViaDrill
T1C0.400
; #@! TA.AperFunction,Plated,PTH,ComponentDrill
T2C0.900
; #@! TA.AperFunction,Plated,PTH,ComponentDrill
T3C1.400
; #@! TA.AperFunction,Plated,PTH,ComponentDrill
T4C1.600
; #@! TA.AperFunction,NonPlated,NPTH,ComponentDrill
T5C3.250
%
G90
G05
T1
X96.401Y-70.722
X100.278Y-70.722
X104.343Y-70.722
X108.533Y-70.722
X112.724Y-70.722
X117.21Y-70.722
X121.785Y-70.722
X126.313Y-70.722
X130.943Y-70.764
X135.249Y-70.722
X139.417Y-70.722
X143.727Y-70.722
X148.149Y-70.722
X152.49Y-70.722
X156.808Y-70.722
X161.135Y-70.722
T2
X104.358Y-61.939
X105.628Y-59.399
X106.898Y-61.939
X108.168Y-59.399
X109.438Y-61.939
X110.708Y-59.399
X111.978Y-61.939
X113.248Y-59.399
X118.328Y-61.939
X119.598Y-59.399
X120.868Y-61.939
X122.138Y-59.399
X123.408Y-61.939
X124.678Y-59.399
X125.948Y-61.939
X127.218Y-59.399
X132.298Y-61.939
X133.568Y-59.399
X134.838Y-61.939
X136.108Y-59.399
X137.378Y-61.939
X138.648Y-59.399
X139.918Y-61.939
X141.188Y-59.399
X146.268Y-61.939
X147.538Y-59.399
X148.808Y-61.939
X150.078Y-59.399
X151.348Y-61.939
X152.618Y-59.399
X153.888Y-61.939
X155.158Y-59.399
T3
X101.496Y-89.437
X101.496Y-91.937
X104.996Y-89.437
X104.996Y-91.937
X108.496Y-89.437
X108.496Y-91.937
X111.996Y-89.437
X111.996Y-91.937
X116.888Y-89.437
X116.888Y-91.937
X120.388Y-89.437
X120.388Y-91.937
X123.888Y-89.437
X123.888Y-91.937
X127.388Y-89.437
X127.388Y-91.937
X132.23Y-89.539
X132.23Y-92.039
X135.73Y-89.539
X135.73Y-92.039
X139.23Y-89.539
X139.23Y-92.039
X142.73Y-89.539
X142.73Y-92.039
X147.622Y-89.539
X147.622Y-92.039
X151.122Y-89.539
X151.122Y-92.039
X154.622Y-89.539
X154.622Y-92.039
X158.122Y-89.539
X158.122Y-92.039
T4
X100.358Y-48.479
X115.788Y-63.209
X129.758Y-63.209
X143.728Y-63.209
X159.158Y-48.479
T5
X103.088Y-53.049
X156.428Y-53.049
T0
M30
