%TF.GenerationSoftware,KiCad,Pcbnew,(6.0.9)*%
%TF.CreationDate,2023-11-10T22:24:20+05:30*%
%TF.ProjectId,RJ45-To-Terminal,524a3435-2d54-46f2-9d54-65726d696e61,2*%
%TF.SameCoordinates,Original*%
%TF.FileFunction,Copper,L1,Top*%
%TF.FilePolarity,Positive*%
%FSLAX46Y46*%
G04 Gerber Fmt 4.6, Leading zero omitted, Abs format (unit mm)*
G04 Created by KiCad (PCBNEW (6.0.9)) date 2023-11-10 22:24:20*
%MOMM*%
%LPD*%
G01*
G04 APERTURE LIST*
G04 Aperture macros list*
%AMRoundRect*
0 Rectangle with rounded corners*
0 $1 Rounding radius*
0 $2 $3 $4 $5 $6 $7 $8 $9 X,Y pos of 4 corners*
0 Add a 4 corners polygon primitive as box body*
4,1,4,$2,$3,$4,$5,$6,$7,$8,$9,$2,$3,0*
0 Add four circle primitives for the rounded corners*
1,1,$1+$1,$2,$3*
1,1,$1+$1,$4,$5*
1,1,$1+$1,$6,$7*
1,1,$1+$1,$8,$9*
0 Add four rect primitives between the rounded corners*
20,1,$1+$1,$2,$3,$4,$5,0*
20,1,$1+$1,$4,$5,$6,$7,0*
20,1,$1+$1,$6,$7,$8,$9,0*
20,1,$1+$1,$8,$9,$2,$3,0*%
G04 Aperture macros list end*
%TA.AperFunction,ComponentPad*%
%ADD10C,2.600000*%
%TD*%
%TA.AperFunction,ComponentPad*%
%ADD11C,1.500000*%
%TD*%
%TA.AperFunction,SMDPad,CuDef*%
%ADD12RoundRect,0.218750X0.218750X0.256250X-0.218750X0.256250X-0.218750X-0.256250X0.218750X-0.256250X0*%
%TD*%
%TA.AperFunction,SMDPad,CuDef*%
%ADD13RoundRect,0.200000X-0.200000X-0.275000X0.200000X-0.275000X0.200000X0.275000X-0.200000X0.275000X0*%
%TD*%
%TA.AperFunction,ComponentPad*%
%ADD14C,2.000000*%
%TD*%
%TA.AperFunction,SMDPad,CuDef*%
%ADD15R,2.000000X1.100000*%
%TD*%
%TA.AperFunction,SMDPad,CuDef*%
%ADD16R,0.800000X0.800000*%
%TD*%
%TA.AperFunction,ViaPad*%
%ADD17C,0.800000*%
%TD*%
%TA.AperFunction,Conductor*%
%ADD18C,0.609600*%
%TD*%
%TA.AperFunction,Conductor*%
%ADD19C,0.406400*%
%TD*%
%ADD20C,0.350000*%
G04 APERTURE END LIST*
D10*
%TO.P,RJ45-1,EH,EH*%
%TO.N,GNDPWR*%
X163728400Y-83209400D03*
X149758400Y-83209400D03*
X179158400Y-68479400D03*
X120358400Y-68479400D03*
X135788400Y-83209400D03*
D11*
%TO.P,RJ45-1,D8,D8*%
%TO.N,IN16-*%
X124358400Y-81939400D03*
%TO.P,RJ45-1,D7,D7*%
%TO.N,IN16+*%
X125628400Y-79399400D03*
%TO.P,RJ45-1,D6,D6*%
%TO.N,IN14-*%
X126898400Y-81939400D03*
%TO.P,RJ45-1,D5,D5*%
%TO.N,IN15+*%
X128168400Y-79399400D03*
%TO.P,RJ45-1,D4,D4*%
%TO.N,IN15-*%
X129438400Y-81939400D03*
%TO.P,RJ45-1,D3,D3*%
%TO.N,IN14+*%
X130708400Y-79399400D03*
%TO.P,RJ45-1,D2,D2*%
%TO.N,IN13-*%
X131978400Y-81939400D03*
%TO.P,RJ45-1,D1,D1*%
%TO.N,IN13+*%
X133248400Y-79399400D03*
%TO.P,RJ45-1,C8,C8*%
%TO.N,IN12-*%
X138328400Y-81939400D03*
%TO.P,RJ45-1,C7,C7*%
%TO.N,IN12+*%
X139598400Y-79399400D03*
%TO.P,RJ45-1,C6,C6*%
%TO.N,IN10-*%
X140868400Y-81939400D03*
%TO.P,RJ45-1,C5,C5*%
%TO.N,IN11+*%
X142138400Y-79399400D03*
%TO.P,RJ45-1,C4,C4*%
%TO.N,IN11-*%
X143408400Y-81939400D03*
%TO.P,RJ45-1,C3,C3*%
%TO.N,IN10+*%
X144678400Y-79399400D03*
%TO.P,RJ45-1,C2,C2*%
%TO.N,IN9-*%
X145948400Y-81939400D03*
%TO.P,RJ45-1,C1,C1*%
%TO.N,IN9+*%
X147218400Y-79399400D03*
%TO.P,RJ45-1,B8,B8*%
%TO.N,IN8-*%
X152298400Y-81939400D03*
%TO.P,RJ45-1,B7,B7*%
%TO.N,IN8+*%
X153568400Y-79399400D03*
%TO.P,RJ45-1,B6,B6*%
%TO.N,IN6-*%
X154838400Y-81939400D03*
%TO.P,RJ45-1,B5,B5*%
%TO.N,IN7+*%
X156108400Y-79399400D03*
%TO.P,RJ45-1,B4,B4*%
%TO.N,IN7-*%
X157378400Y-81939400D03*
%TO.P,RJ45-1,B3,B3*%
%TO.N,IN6+*%
X158648400Y-79399400D03*
%TO.P,RJ45-1,B2,B2*%
%TO.N,IN5-*%
X159918400Y-81939400D03*
%TO.P,RJ45-1,B1,B1*%
%TO.N,IN5+*%
X161188400Y-79399400D03*
%TO.P,RJ45-1,A8,A8*%
%TO.N,IN4-*%
X166268400Y-81939400D03*
%TO.P,RJ45-1,A7,A7*%
%TO.N,IN4+*%
X167538400Y-79399400D03*
%TO.P,RJ45-1,A6,A6*%
%TO.N,IN2-*%
X168808400Y-81939400D03*
%TO.P,RJ45-1,A5,A5*%
%TO.N,IN3+*%
X170078400Y-79399400D03*
%TO.P,RJ45-1,A4,A4*%
%TO.N,IN3-*%
X171348400Y-81939400D03*
%TO.P,RJ45-1,A3,A3*%
%TO.N,IN2+*%
X172618400Y-79399400D03*
%TO.P,RJ45-1,A2,A2*%
%TO.N,IN1-*%
X173888400Y-81939400D03*
%TO.P,RJ45-1,A1,A1*%
%TO.N,IN1+*%
X175158400Y-79399400D03*
%TD*%
D12*
%TO.P,LED56,1,K*%
%TO.N,Net-(LED56-Pad1)*%
X138836500Y-88519000D03*
%TO.P,LED56,2,A*%
%TO.N,IN11+*%
X137261500Y-88519000D03*
%TD*%
D13*
%TO.P,TH59,1*%
%TO.N,IN8+*%
X150893000Y-97468400D03*
%TO.P,TH59,2*%
%TO.N,RC8-*%
X152543000Y-97468400D03*
%TD*%
D14*
%TO.P,J11,8,Pin_8*%
%TO.N,IN13-*%
X131996000Y-111937300D03*
%TO.P,J11,7,Pin_7*%
%TO.N,RC13-*%
X131996000Y-109437300D03*
%TO.P,J11,6,Pin_6*%
%TO.N,IN14-*%
X128496000Y-111937300D03*
%TO.P,J11,5,Pin_5*%
%TO.N,RC14-*%
X128496000Y-109437300D03*
%TO.P,J11,4,Pin_4*%
%TO.N,IN15-*%
X124996000Y-111937300D03*
%TO.P,J11,3,Pin_3*%
%TO.N,RC15-*%
X124996000Y-109437300D03*
%TO.P,J11,2,Pin_2*%
%TO.N,IN16-*%
X121496000Y-111937300D03*
%TO.P,J11,1,Pin_1*%
%TO.N,RC16-*%
X121496000Y-109437300D03*
%TD*%
D15*
%TO.P,D57,1,K*%
%TO.N,RC10-*%
X141982150Y-99441000D03*
D16*
%TO.P,D57,2,A*%
%TO.N,IN10-*%
X143882150Y-99441000D03*
%TD*%
D14*
%TO.P,J12,8,Pin_8*%
%TO.N,IN9-*%
X147388400Y-111937300D03*
%TO.P,J12,7,Pin_7*%
%TO.N,RC9-*%
X147388400Y-109437300D03*
%TO.P,J12,6,Pin_6*%
%TO.N,IN10-*%
X143888400Y-111937300D03*
%TO.P,J12,5,Pin_5*%
%TO.N,RC10-*%
X143888400Y-109437300D03*
%TO.P,J12,4,Pin_4*%
%TO.N,IN11-*%
X140388400Y-111937300D03*
%TO.P,J12,3,Pin_3*%
%TO.N,RC11-*%
X140388400Y-109437300D03*
%TO.P,J12,2,Pin_2*%
%TO.N,IN12-*%
X136888400Y-111937300D03*
%TO.P,J12,1,Pin_1*%
%TO.N,RC12-*%
X136888400Y-109437300D03*
%TD*%
D15*
%TO.P,D61,1,K*%
%TO.N,RC6-*%
X159607000Y-99441000D03*
D16*
%TO.P,D61,2,A*%
%TO.N,IN6-*%
X161507000Y-99441000D03*
%TD*%
D12*
%TO.P,LED66,1,K*%
%TO.N,Net-(LED66-Pad1)*%
X182767300Y-88519000D03*
%TO.P,LED66,2,A*%
%TO.N,IN1+*%
X181192300Y-88519000D03*
%TD*%
D15*
%TO.P,D63,1,K*%
%TO.N,RC4-*%
X168339300Y-99441000D03*
D16*
%TO.P,D63,2,A*%
%TO.N,IN4-*%
X170239300Y-99441000D03*
%TD*%
D12*
%TO.P,LED60,1,K*%
%TO.N,Net-(LED60-Pad1)*%
X156881800Y-88519000D03*
%TO.P,LED60,2,A*%
%TO.N,IN7+*%
X155306800Y-88519000D03*
%TD*%
D13*
%TO.P,R58,1*%
%TO.N,IN9-*%
X146313500Y-90721700D03*
%TO.P,R58,2*%
%TO.N,Net-(LED58-Pad1)*%
X147963500Y-90721700D03*
%TD*%
%TO.P,TH54,1*%
%TO.N,IN13+*%
X128533500Y-97468400D03*
%TO.P,TH54,2*%
%TO.N,RC13-*%
X130183500Y-97468400D03*
%TD*%
D12*
%TO.P,LED55,1,K*%
%TO.N,Net-(LED55-Pad1)*%
X134357000Y-88519000D03*
%TO.P,LED55,2,A*%
%TO.N,IN12+*%
X132782000Y-88519000D03*
%TD*%
D13*
%TO.P,TH61,1*%
%TO.N,IN6+*%
X159409500Y-97468400D03*
%TO.P,TH61,2*%
%TO.N,RC6-*%
X161059500Y-97468400D03*
%TD*%
D12*
%TO.P,LED58,1,K*%
%TO.N,Net-(LED58-Pad1)*%
X147946000Y-88519000D03*
%TO.P,LED58,2,A*%
%TO.N,IN9+*%
X146371000Y-88519000D03*
%TD*%
D13*
%TO.P,R61,1*%
%TO.N,IN6-*%
X159417000Y-90721700D03*
%TO.P,R61,2*%
%TO.N,Net-(LED61-Pad1)*%
X161067000Y-90721700D03*
%TD*%
D12*
%TO.P,LED63,1,K*%
%TO.N,Net-(LED63-Pad1)*%
X169781800Y-88519000D03*
%TO.P,LED63,2,A*%
%TO.N,IN4+*%
X168206800Y-88519000D03*
%TD*%
%TO.P,LED65,1,K*%
%TO.N,Net-(LED65-Pad1)*%
X178441000Y-88519000D03*
%TO.P,LED65,2,A*%
%TO.N,IN2+*%
X176866000Y-88519000D03*
%TD*%
D15*
%TO.P,D64,1,K*%
%TO.N,RC3-*%
X172680500Y-99441000D03*
D16*
%TO.P,D64,2,A*%
%TO.N,IN3-*%
X174580500Y-99441000D03*
%TD*%
D13*
%TO.P,R60,1*%
%TO.N,IN7-*%
X155249300Y-90721700D03*
%TO.P,R60,2*%
%TO.N,Net-(LED60-Pad1)*%
X156899300Y-90721700D03*
%TD*%
D12*
%TO.P,LED57,1,K*%
%TO.N,Net-(LED57-Pad1)*%
X143408500Y-88519000D03*
%TO.P,LED57,2,A*%
%TO.N,IN10+*%
X141833500Y-88519000D03*
%TD*%
D15*
%TO.P,D53,1,K*%
%TO.N,RC14-*%
X124540000Y-99441000D03*
D16*
%TO.P,D53,2,A*%
%TO.N,IN14-*%
X126440000Y-99441000D03*
%TD*%
D13*
%TO.P,TH60,1*%
%TO.N,IN7+*%
X155241800Y-97468400D03*
%TO.P,TH60,2*%
%TO.N,RC7-*%
X156891800Y-97468400D03*
%TD*%
%TO.P,R53,1*%
%TO.N,IN14-*%
X124342500Y-90721700D03*
%TO.P,R53,2*%
%TO.N,Net-(LED53-Pad1)*%
X125992500Y-90721700D03*
%TD*%
%TO.P,TH56,1*%
%TO.N,IN11+*%
X137210500Y-97468400D03*
%TO.P,TH56,2*%
%TO.N,RC11-*%
X138860500Y-97468400D03*
%TD*%
D12*
%TO.P,LED53,1,K*%
%TO.N,Net-(LED53-Pad1)*%
X126009500Y-88519000D03*
%TO.P,LED53,2,A*%
%TO.N,IN14+*%
X124434500Y-88519000D03*
%TD*%
D13*
%TO.P,R51,1*%
%TO.N,IN16-*%
X116401400Y-90721700D03*
%TO.P,R51,2*%
%TO.N,Net-(LED51-Pad1)*%
X118051400Y-90721700D03*
%TD*%
%TO.P,TH53,1*%
%TO.N,IN14+*%
X124342500Y-97468400D03*
%TO.P,TH53,2*%
%TO.N,RC14-*%
X125992500Y-97468400D03*
%TD*%
D12*
%TO.P,LED61,1,K*%
%TO.N,Net-(LED61-Pad1)*%
X161049500Y-88519000D03*
%TO.P,LED61,2,A*%
%TO.N,IN6+*%
X159474500Y-88519000D03*
%TD*%
%TO.P,LED64,1,K*%
%TO.N,Net-(LED64-Pad1)*%
X174123000Y-88519000D03*
%TO.P,LED64,2,A*%
%TO.N,IN3+*%
X172548000Y-88519000D03*
%TD*%
D13*
%TO.P,R54,1*%
%TO.N,IN13-*%
X128533500Y-90721700D03*
%TO.P,R54,2*%
%TO.N,Net-(LED54-Pad1)*%
X130183500Y-90721700D03*
%TD*%
%TO.P,TH57,1*%
%TO.N,IN10+*%
X141784650Y-97468400D03*
%TO.P,TH57,2*%
%TO.N,RC10-*%
X143434650Y-97468400D03*
%TD*%
D15*
%TO.P,D55,1,K*%
%TO.N,RC12-*%
X132922000Y-99441000D03*
D16*
%TO.P,D55,2,A*%
%TO.N,IN12-*%
X134822000Y-99441000D03*
%TD*%
D12*
%TO.P,LED52,1,K*%
%TO.N,Net-(LED52-Pad1)*%
X121911000Y-88519000D03*
%TO.P,LED52,2,A*%
%TO.N,IN15+*%
X120336000Y-88519000D03*
%TD*%
D13*
%TO.P,R65,1*%
%TO.N,IN2-*%
X176808500Y-90721700D03*
%TO.P,R65,2*%
%TO.N,Net-(LED65-Pad1)*%
X178458500Y-90721700D03*
%TD*%
%TO.P,TH66,1*%
%TO.N,IN1+*%
X181127300Y-97468400D03*
%TO.P,TH66,2*%
%TO.N,RC1-*%
X182777300Y-97468400D03*
%TD*%
%TO.P,TH55,1*%
%TO.N,IN12+*%
X132724500Y-97468400D03*
%TO.P,TH55,2*%
%TO.N,RC12-*%
X134374500Y-97468400D03*
%TD*%
%TO.P,TH58,1*%
%TO.N,IN9+*%
X146313500Y-97468400D03*
%TO.P,TH58,2*%
%TO.N,RC9-*%
X147963500Y-97468400D03*
%TD*%
%TO.P,R56,1*%
%TO.N,IN11-*%
X137210500Y-90721700D03*
%TO.P,R56,2*%
%TO.N,Net-(LED56-Pad1)*%
X138860500Y-90721700D03*
%TD*%
D12*
%TO.P,LED59,1,K*%
%TO.N,Net-(LED59-Pad1)*%
X152552500Y-88519000D03*
%TO.P,LED59,2,A*%
%TO.N,IN8+*%
X150977500Y-88519000D03*
%TD*%
%TO.P,LED51,1,K*%
%TO.N,Net-(LED51-Pad1)*%
X118033900Y-88519000D03*
%TO.P,LED51,2,A*%
%TO.N,IN16+*%
X116458900Y-88519000D03*
%TD*%
D13*
%TO.P,TH62,1*%
%TO.N,IN5+*%
X163720000Y-97468400D03*
%TO.P,TH62,2*%
%TO.N,RC5-*%
X165370000Y-97468400D03*
%TD*%
%TO.P,TH63,1*%
%TO.N,IN4+*%
X168141800Y-97468400D03*
%TO.P,TH63,2*%
%TO.N,RC4-*%
X169791800Y-97468400D03*
%TD*%
%TO.P,R64,1*%
%TO.N,IN3-*%
X172490500Y-90721700D03*
%TO.P,R64,2*%
%TO.N,Net-(LED64-Pad1)*%
X174140500Y-90721700D03*
%TD*%
D15*
%TO.P,D58,1,K*%
%TO.N,RC9-*%
X146511000Y-99441000D03*
D16*
%TO.P,D58,2,A*%
%TO.N,IN9-*%
X148411000Y-99441000D03*
%TD*%
D13*
%TO.P,R62,1*%
%TO.N,IN5-*%
X163727500Y-90721700D03*
%TO.P,R62,2*%
%TO.N,Net-(LED62-Pad1)*%
X165377500Y-90721700D03*
%TD*%
D15*
%TO.P,D65,1,K*%
%TO.N,RC2-*%
X176998500Y-99441000D03*
D16*
%TO.P,D65,2,A*%
%TO.N,IN2-*%
X178898500Y-99441000D03*
%TD*%
D15*
%TO.P,D60,1,K*%
%TO.N,RC7-*%
X155290500Y-99441000D03*
D16*
%TO.P,D60,2,A*%
%TO.N,IN7-*%
X157190500Y-99441000D03*
%TD*%
D15*
%TO.P,D52,1,K*%
%TO.N,RC15-*%
X120476000Y-99441000D03*
D16*
%TO.P,D52,2,A*%
%TO.N,IN15-*%
X122376000Y-99441000D03*
%TD*%
D13*
%TO.P,R66,1*%
%TO.N,IN1-*%
X181134800Y-90721700D03*
%TO.P,R66,2*%
%TO.N,Net-(LED66-Pad1)*%
X182784800Y-90721700D03*
%TD*%
D15*
%TO.P,D54,1,K*%
%TO.N,RC13-*%
X128731000Y-99441000D03*
D16*
%TO.P,D54,2,A*%
%TO.N,IN13-*%
X130631000Y-99441000D03*
%TD*%
D13*
%TO.P,R57,1*%
%TO.N,IN10-*%
X141784650Y-90721700D03*
%TO.P,R57,2*%
%TO.N,Net-(LED57-Pad1)*%
X143434650Y-90721700D03*
%TD*%
%TO.P,R59,1*%
%TO.N,IN8-*%
X150900500Y-90721700D03*
%TO.P,R59,2*%
%TO.N,Net-(LED59-Pad1)*%
X152550500Y-90721700D03*
%TD*%
D14*
%TO.P,J14,8,Pin_8*%
%TO.N,IN1-*%
X178122400Y-112038900D03*
%TO.P,J14,7,Pin_7*%
%TO.N,RC1-*%
X178122400Y-109538900D03*
%TO.P,J14,6,Pin_6*%
%TO.N,IN2-*%
X174622400Y-112038900D03*
%TO.P,J14,5,Pin_5*%
%TO.N,RC2-*%
X174622400Y-109538900D03*
%TO.P,J14,4,Pin_4*%
%TO.N,IN3-*%
X171122400Y-112038900D03*
%TO.P,J14,3,Pin_3*%
%TO.N,RC3-*%
X171122400Y-109538900D03*
%TO.P,J14,2,Pin_2*%
%TO.N,IN4-*%
X167622400Y-112038900D03*
%TO.P,J14,1,Pin_1*%
%TO.N,RC4-*%
X167622400Y-109538900D03*
%TD*%
%TO.P,J13,8,Pin_8*%
%TO.N,IN5-*%
X162730000Y-112038900D03*
%TO.P,J13,7,Pin_7*%
%TO.N,RC5-*%
X162730000Y-109538900D03*
%TO.P,J13,6,Pin_6*%
%TO.N,IN6-*%
X159230000Y-112038900D03*
%TO.P,J13,5,Pin_5*%
%TO.N,RC6-*%
X159230000Y-109538900D03*
%TO.P,J13,4,Pin_4*%
%TO.N,IN7-*%
X155730000Y-112038900D03*
%TO.P,J13,3,Pin_3*%
%TO.N,RC7-*%
X155730000Y-109538900D03*
%TO.P,J13,2,Pin_2*%
%TO.N,IN8-*%
X152230000Y-112038900D03*
%TO.P,J13,1,Pin_1*%
%TO.N,RC8-*%
X152230000Y-109538900D03*
%TD*%
D13*
%TO.P,R55,1*%
%TO.N,IN12-*%
X132724500Y-90721700D03*
%TO.P,R55,2*%
%TO.N,Net-(LED55-Pad1)*%
X134374500Y-90721700D03*
%TD*%
%TO.P,TH51,1*%
%TO.N,IN16+*%
X116142000Y-97468400D03*
%TO.P,TH51,2*%
%TO.N,RC16-*%
X117792000Y-97468400D03*
%TD*%
%TO.P,R52,1*%
%TO.N,IN15-*%
X120278500Y-90721700D03*
%TO.P,R52,2*%
%TO.N,Net-(LED52-Pad1)*%
X121928500Y-90721700D03*
%TD*%
D15*
%TO.P,D59,1,K*%
%TO.N,RC8-*%
X151090500Y-99441000D03*
D16*
%TO.P,D59,2,A*%
%TO.N,IN8-*%
X152990500Y-99441000D03*
%TD*%
D15*
%TO.P,D56,1,K*%
%TO.N,RC11-*%
X137408000Y-99441000D03*
D16*
%TO.P,D56,2,A*%
%TO.N,IN11-*%
X139308000Y-99441000D03*
%TD*%
D13*
%TO.P,R63,1*%
%TO.N,IN4-*%
X168149300Y-90721700D03*
%TO.P,R63,2*%
%TO.N,Net-(LED63-Pad1)*%
X169799300Y-90721700D03*
%TD*%
D12*
%TO.P,LED62,1,K*%
%TO.N,Net-(LED62-Pad1)*%
X165506500Y-88519000D03*
%TO.P,LED62,2,A*%
%TO.N,IN5+*%
X163931500Y-88519000D03*
%TD*%
%TO.P,LED54,1,K*%
%TO.N,Net-(LED54-Pad1)*%
X130166000Y-88519000D03*
%TO.P,LED54,2,A*%
%TO.N,IN13+*%
X128591000Y-88519000D03*
%TD*%
D13*
%TO.P,TH65,1*%
%TO.N,IN2+*%
X176801000Y-97468400D03*
%TO.P,TH65,2*%
%TO.N,RC2-*%
X178451000Y-97468400D03*
%TD*%
D15*
%TO.P,D51,1,K*%
%TO.N,RC16-*%
X116339500Y-99441000D03*
D16*
%TO.P,D51,2,A*%
%TO.N,IN16-*%
X118239500Y-99441000D03*
%TD*%
D13*
%TO.P,TH52,1*%
%TO.N,IN15+*%
X120278500Y-97468400D03*
%TO.P,TH52,2*%
%TO.N,RC15-*%
X121928500Y-97468400D03*
%TD*%
%TO.P,TH64,1*%
%TO.N,IN3+*%
X172483000Y-97468400D03*
%TO.P,TH64,2*%
%TO.N,RC3-*%
X174133000Y-97468400D03*
%TD*%
D15*
%TO.P,D66,1,K*%
%TO.N,RC1-*%
X181324800Y-99441000D03*
D16*
%TO.P,D66,2,A*%
%TO.N,IN1-*%
X183224800Y-99441000D03*
%TD*%
D15*
%TO.P,D62,1,K*%
%TO.N,RC5-*%
X163917500Y-99441000D03*
D16*
%TO.P,D62,2,A*%
%TO.N,IN5-*%
X165817500Y-99441000D03*
%TD*%
D17*
%TO.N,IN1-*%
X181134800Y-90721700D03*
%TO.N,IN2-*%
X176808500Y-90721700D03*
%TO.N,IN3-*%
X172490500Y-90721700D03*
%TO.N,IN4-*%
X168149300Y-90721700D03*
%TO.N,IN5-*%
X163727500Y-90721700D03*
%TO.N,IN6-*%
X159417000Y-90721700D03*
%TO.N,IN7-*%
X155249300Y-90721700D03*
%TO.N,IN8-*%
X150942600Y-90763800D03*
%TO.N,IN9-*%
X146313500Y-90721700D03*
%TO.N,IN10-*%
X141784650Y-90721700D03*
%TO.N,IN11-*%
X137210500Y-90721700D03*
%TO.N,IN12-*%
X132724500Y-90721700D03*
%TO.N,IN13-*%
X128533500Y-90721700D03*
%TO.N,IN14-*%
X124342500Y-90721700D03*
%TO.N,IN15-*%
X120278500Y-90721700D03*
%TO.N,IN16-*%
X116401400Y-90721700D03*
%TD*%
D18*
%TO.N,IN16+*%
X115316000Y-88696800D02*
X115316000Y-96642400D01*
X115316000Y-96642400D02*
X116142000Y-97468400D01*
X115493800Y-88519000D02*
X115316000Y-88696800D01*
X116199500Y-88519000D02*
X115493800Y-88519000D01*
%TO.N,IN16-*%
X118696800Y-98983700D02*
X118239500Y-99441000D01*
X117917000Y-93741475D02*
X118696800Y-94521275D01*
X117917000Y-92237300D02*
X117917000Y-93741475D01*
X116401400Y-90721700D02*
X117917000Y-92237300D01*
X118696800Y-94521275D02*
X118696800Y-98983700D01*
D19*
%TO.N,IN3+*%
X170439272Y-79399400D02*
X170078400Y-79399400D01*
X172548000Y-88519000D02*
X172548000Y-81508128D01*
X172548000Y-81508128D02*
X170439272Y-79399400D01*
%TO.N,IN7+*%
X156108400Y-82300272D02*
X156108400Y-79399400D01*
X155306800Y-83092600D02*
X155316072Y-83092600D01*
X155306800Y-88519000D02*
X155306800Y-83092600D01*
X155316072Y-83092600D02*
X156108400Y-82300272D01*
%TO.N,IN11+*%
X142138400Y-83209400D02*
X142138400Y-79399400D01*
X137261500Y-88086300D02*
X142138400Y-83209400D01*
X137261500Y-88519000D02*
X137261500Y-88086300D01*
%TO.N,IN15+*%
X128168400Y-82778100D02*
X128168400Y-79399400D01*
X124230900Y-86715600D02*
X128168400Y-82778100D01*
X122359830Y-86715600D02*
X124230900Y-86715600D01*
X120556430Y-88519000D02*
X122359830Y-86715600D01*
X120336000Y-88519000D02*
X120556430Y-88519000D01*
D18*
%TO.N,IN8-*%
X150942600Y-90763800D02*
X150900500Y-90721700D01*
%TO.N,IN1+*%
X180192700Y-96533800D02*
X181127300Y-97468400D01*
X181192300Y-88519000D02*
X180192700Y-89518600D01*
X180192700Y-89518600D02*
X180192700Y-96533800D01*
%TO.N,IN2+*%
X175903700Y-96571100D02*
X176801000Y-97468400D01*
X175903700Y-89481300D02*
X175903700Y-96571100D01*
X176866000Y-88519000D02*
X175903700Y-89481300D01*
%TO.N,IN3+*%
X171585700Y-96571100D02*
X172483000Y-97468400D01*
X171585700Y-89481300D02*
X171585700Y-96571100D01*
X172548000Y-88519000D02*
X171585700Y-89481300D01*
%TO.N,IN4+*%
X167244500Y-89481300D02*
X167244500Y-96571100D01*
X168206800Y-88519000D02*
X167244500Y-89481300D01*
X167244500Y-96571100D02*
X168141800Y-97468400D01*
%TO.N,IN5+*%
X162822700Y-96571100D02*
X163720000Y-97468400D01*
X162822700Y-89627800D02*
X162822700Y-96571100D01*
X163931500Y-88519000D02*
X162822700Y-89627800D01*
%TO.N,IN6+*%
X158512200Y-93945400D02*
X159409500Y-94842700D01*
X159409500Y-94842700D02*
X159409500Y-97468400D01*
X158512200Y-89481300D02*
X158512200Y-93945400D01*
X159474500Y-88519000D02*
X158512200Y-89481300D01*
%TO.N,IN7+*%
X155241800Y-94637400D02*
X155241800Y-97468400D01*
X154330400Y-93726000D02*
X155241800Y-94637400D01*
X154330400Y-89495400D02*
X154330400Y-93726000D01*
X155306800Y-88519000D02*
X154330400Y-89495400D01*
%TO.N,IN8+*%
X149961600Y-96537000D02*
X150893000Y-97468400D01*
X150977500Y-88519000D02*
X149961600Y-89534900D01*
X149961600Y-89534900D02*
X149961600Y-96537000D01*
%TO.N,IN15+*%
X119373700Y-93719700D02*
X120278500Y-94624500D01*
X119373700Y-89481300D02*
X119373700Y-93719700D01*
X120336000Y-88519000D02*
X119373700Y-89481300D01*
X120278500Y-94624500D02*
X120278500Y-97468400D01*
%TO.N,IN14+*%
X124358400Y-97452500D02*
X124342500Y-97468400D01*
X124358400Y-95707200D02*
X124358400Y-97452500D01*
X123393200Y-94742000D02*
X124358400Y-95707200D01*
X124434500Y-88519000D02*
X123393200Y-89560300D01*
X123393200Y-89560300D02*
X123393200Y-94742000D01*
%TO.N,IN13+*%
X128533500Y-94958028D02*
X128533500Y-97468400D01*
X127628700Y-94053228D02*
X128533500Y-94958028D01*
X128591000Y-88519000D02*
X127628700Y-89481300D01*
X127628700Y-89481300D02*
X127628700Y-94053228D01*
%TO.N,IN12+*%
X132724500Y-94624500D02*
X132724500Y-97468400D01*
X131819700Y-93719700D02*
X132724500Y-94624500D01*
X131819700Y-89481300D02*
X131819700Y-93719700D01*
X132782000Y-88519000D02*
X131819700Y-89481300D01*
%TO.N,IN11+*%
X136194800Y-89585700D02*
X136194800Y-96452700D01*
X137261500Y-88519000D02*
X136194800Y-89585700D01*
X136194800Y-96452700D02*
X137210500Y-97468400D01*
%TO.N,IN10+*%
X140879850Y-96563600D02*
X141784650Y-97468400D01*
X140879850Y-89472650D02*
X140879850Y-96563600D01*
X141833500Y-88519000D02*
X140879850Y-89472650D01*
D19*
%TO.N,IN12+*%
X139598400Y-83159600D02*
X139598400Y-79399400D01*
X136093200Y-86664800D02*
X139598400Y-83159600D01*
X134636200Y-86664800D02*
X136093200Y-86664800D01*
X132782000Y-88519000D02*
X134636200Y-86664800D01*
%TO.N,IN13+*%
X133248400Y-83820000D02*
X133248400Y-79399400D01*
X128591000Y-88477400D02*
X133248400Y-83820000D01*
X128591000Y-88519000D02*
X128591000Y-88477400D01*
%TO.N,IN16+*%
X125267528Y-79399400D02*
X125628400Y-79399400D01*
X116199500Y-88467428D02*
X125267528Y-79399400D01*
X116199500Y-88519000D02*
X116199500Y-88467428D01*
%TO.N,IN14+*%
X130708400Y-82300272D02*
X130708400Y-79399400D01*
X124489672Y-88519000D02*
X130708400Y-82300272D01*
X124434500Y-88519000D02*
X124489672Y-88519000D01*
%TO.N,IN10+*%
X144678400Y-85674100D02*
X144678400Y-79399400D01*
X141833500Y-88519000D02*
X144678400Y-85674100D01*
%TO.N,IN9+*%
X147218400Y-87671600D02*
X147218400Y-79399400D01*
X146371000Y-88519000D02*
X147218400Y-87671600D01*
%TO.N,IN8+*%
X150977500Y-88519000D02*
X153568400Y-85928100D01*
X153568400Y-85928100D02*
X153568400Y-79399400D01*
%TO.N,IN6+*%
X159474500Y-88519000D02*
X158648400Y-87692900D01*
X158648400Y-87692900D02*
X158648400Y-79399400D01*
%TO.N,IN5+*%
X161188400Y-85775900D02*
X161188400Y-79399400D01*
X163931500Y-88519000D02*
X161188400Y-85775900D01*
%TO.N,IN4+*%
X167538400Y-87850600D02*
X167538400Y-79399400D01*
X168206800Y-88519000D02*
X167538400Y-87850600D01*
%TO.N,IN2+*%
X172979272Y-79399400D02*
X172618400Y-79399400D01*
X176866000Y-83286128D02*
X172979272Y-79399400D01*
X176866000Y-88519000D02*
X176866000Y-83286128D01*
%TO.N,IN1+*%
X181192300Y-88519000D02*
X181192300Y-85433300D01*
X181192300Y-85433300D02*
X175158400Y-79399400D01*
%TO.N,RC7-*%
X154686000Y-100045500D02*
X154686000Y-108494900D01*
%TO.N,IN6-*%
X160884610Y-100869790D02*
X160884610Y-110384290D01*
D18*
%TO.N,IN16-*%
X123000800Y-104331800D02*
X123000800Y-110432500D01*
%TO.N,IN13-*%
X133500800Y-103020800D02*
X133500800Y-110432500D01*
D19*
%TO.N,IN12-*%
X138291600Y-102910600D02*
X138291600Y-110534100D01*
D18*
%TO.N,IN15-*%
X126500800Y-103894800D02*
X126500800Y-110432500D01*
%TO.N,IN14-*%
X130095600Y-103171600D02*
X130095600Y-110337700D01*
%TO.N,IN15-*%
X122376000Y-99770000D02*
X126500800Y-103894800D01*
%TO.N,IN16-*%
X118239500Y-99570500D02*
X123000800Y-104331800D01*
D19*
%TO.N,IN7-*%
X157378400Y-100435300D02*
X157378400Y-110390500D01*
%TO.N,IN10-*%
X145189600Y-100748450D02*
X145189600Y-108156400D01*
%TO.N,IN11-*%
X141791600Y-101924600D02*
X141791600Y-110534100D01*
%TO.N,IN9-*%
X149047200Y-101526200D02*
X149047200Y-110278500D01*
%TO.N,IN8-*%
X153924000Y-100374500D02*
X153924000Y-110344900D01*
D18*
%TO.N,RC16-*%
X116339500Y-99441000D02*
X121496000Y-104597500D01*
%TO.N,RC13-*%
X131826000Y-102536000D02*
X131826000Y-109267300D01*
D19*
%TO.N,RC11-*%
X140716000Y-102749000D02*
X140716000Y-109109700D01*
%TO.N,RC10-*%
X143256000Y-100714850D02*
X143256000Y-108804900D01*
D18*
%TO.N,RC14-*%
X129286000Y-103639972D02*
X129286000Y-108647300D01*
%TO.N,RC15-*%
X124764800Y-103682800D02*
X124764800Y-109206100D01*
%TO.N,RC16-*%
X121496000Y-104597500D02*
X121496000Y-109437300D01*
D19*
%TO.N,RC12-*%
X136093200Y-102616000D02*
X136093200Y-108642100D01*
%TO.N,RC8-*%
X152146000Y-102743000D02*
X152146000Y-109454900D01*
%TO.N,RC6-*%
X159562800Y-99485200D02*
X159562800Y-109206100D01*
%TO.N,RC3-*%
X171551600Y-100569900D02*
X171551600Y-109109700D01*
%TO.N,RC2-*%
X174853600Y-102463600D02*
X174853600Y-109307700D01*
%TO.N,RC5-*%
X162661600Y-99974400D02*
X162661600Y-109470500D01*
%TO.N,RC1-*%
X178460400Y-102768400D02*
X178460400Y-109200900D01*
%TO.N,RC9-*%
X146459600Y-99492400D02*
X146459600Y-108508500D01*
%TO.N,RC4-*%
X166116000Y-101664300D02*
X166116000Y-108032500D01*
%TO.N,IN5-*%
X164535600Y-101179300D02*
X164535600Y-110233300D01*
%TO.N,IN1-*%
X180187600Y-102934600D02*
X180187600Y-109973700D01*
%TO.N,IN2-*%
X176326800Y-102469100D02*
X176326800Y-110334500D01*
%TO.N,IN3-*%
X172974000Y-101853900D02*
X172974000Y-110187300D01*
%TO.N,IN4-*%
X169519600Y-100617100D02*
X169519600Y-110141700D01*
D18*
%TO.N,IN14-*%
X127419800Y-100495800D02*
X130095600Y-103171600D01*
D19*
%TO.N,IN12-*%
X134822000Y-99441000D02*
X138291600Y-102910600D01*
D18*
%TO.N,IN13-*%
X130631000Y-100151000D02*
X133500800Y-103020800D01*
D19*
%TO.N,RC11-*%
X137408000Y-99441000D02*
X140716000Y-102749000D01*
%TO.N,RC12-*%
X134660300Y-101183100D02*
X136093200Y-102616000D01*
D18*
%TO.N,RC15-*%
X121577800Y-100495800D02*
X124764800Y-103682800D01*
%TO.N,RC14-*%
X126951428Y-101305400D02*
X129286000Y-103639972D01*
%TO.N,RC13-*%
X128731000Y-99441000D02*
X131826000Y-102536000D01*
D19*
%TO.N,RC1-*%
X181324800Y-99904000D02*
X178460400Y-102768400D01*
%TO.N,RC2-*%
X176998500Y-100318700D02*
X174853600Y-102463600D01*
%TO.N,RC8-*%
X151090500Y-101687500D02*
X152146000Y-102743000D01*
%TO.N,IN2-*%
X178898500Y-99897400D02*
X176326800Y-102469100D01*
%TO.N,IN1-*%
X183224800Y-99897400D02*
X180187600Y-102934600D01*
D18*
%TO.N,IN16-*%
X118239500Y-99441000D02*
X118239500Y-99570500D01*
X123000800Y-110432500D02*
X121496000Y-111937300D01*
%TO.N,IN15-*%
X122376000Y-99441000D02*
X122376000Y-99770000D01*
X126500800Y-110432500D02*
X124996000Y-111937300D01*
%TO.N,IN14-*%
X127226200Y-100495800D02*
X127419800Y-100495800D01*
X126440000Y-99709600D02*
X127226200Y-100495800D01*
X126440000Y-99441000D02*
X126440000Y-99709600D01*
X130095600Y-110337700D02*
X128496000Y-111937300D01*
%TO.N,IN13-*%
X130631000Y-99441000D02*
X130631000Y-100151000D01*
X133500800Y-110432500D02*
X131996000Y-111937300D01*
D19*
%TO.N,IN12-*%
X138291600Y-110534100D02*
X136888400Y-111937300D01*
%TO.N,IN11-*%
X141791600Y-110534100D02*
X140388400Y-111937300D01*
X139308000Y-99441000D02*
X141791600Y-101924600D01*
%TO.N,IN10-*%
X145189600Y-108156400D02*
X145291600Y-108258400D01*
X143882150Y-99441000D02*
X145189600Y-100748450D01*
X145291600Y-108258400D02*
X145291600Y-110534100D01*
%TO.N,IN9-*%
X149047200Y-110278500D02*
X147388400Y-111937300D01*
X148411000Y-100890000D02*
X149047200Y-101526200D01*
%TO.N,IN8-*%
X153924000Y-110344900D02*
X152230000Y-112038900D01*
X152990500Y-99441000D02*
X153924000Y-100374500D01*
%TO.N,IN7-*%
X157190500Y-100247400D02*
X157378400Y-100435300D01*
X157378400Y-110390500D02*
X155730000Y-112038900D01*
%TO.N,IN5-*%
X164535600Y-110233300D02*
X162730000Y-112038900D01*
X165817500Y-99897400D02*
X164535600Y-101179300D01*
X165817500Y-99441000D02*
X165817500Y-99897400D01*
%TO.N,IN4-*%
X170239300Y-99897400D02*
X169519600Y-100617100D01*
X169519600Y-110141700D02*
X167622400Y-112038900D01*
X170239300Y-99441000D02*
X170239300Y-99897400D01*
%TO.N,IN3-*%
X174580500Y-100247400D02*
X172974000Y-101853900D01*
X172974000Y-110187300D02*
X171122400Y-112038900D01*
X174580500Y-99441000D02*
X174580500Y-100247400D01*
%TO.N,IN2-*%
X178898500Y-99441000D02*
X178898500Y-99897400D01*
X176326800Y-110334500D02*
X174622400Y-112038900D01*
%TO.N,IN1-*%
X183224800Y-99441000D02*
X183224800Y-99897400D01*
X180187600Y-109973700D02*
X178122400Y-112038900D01*
%TO.N,IN6-*%
X161507000Y-100247400D02*
X160884610Y-100869790D01*
X161507000Y-99441000D02*
X161507000Y-100247400D01*
X160884610Y-110384290D02*
X159230000Y-112038900D01*
%TO.N,RC7-*%
X154686000Y-108494900D02*
X155730000Y-109538900D01*
X155290500Y-99441000D02*
X154686000Y-100045500D01*
D18*
%TO.N,RC15-*%
X121530800Y-100495800D02*
X121577800Y-100495800D01*
X120476000Y-99441000D02*
X121530800Y-100495800D01*
%TO.N,RC14-*%
X126890852Y-101305400D02*
X126951428Y-101305400D01*
X125931252Y-100345800D02*
X126890852Y-101305400D01*
%TO.N,RC13-*%
X131826000Y-109267300D02*
X131996000Y-109437300D01*
D19*
%TO.N,RC12-*%
X136093200Y-108642100D02*
X136888400Y-109437300D01*
X134660300Y-101179300D02*
X134660300Y-101183100D01*
%TO.N,RC11-*%
X140716000Y-109109700D02*
X140388400Y-109437300D01*
%TO.N,RC10-*%
X141982150Y-99441000D02*
X143256000Y-100714850D01*
X143256000Y-108804900D02*
X143888400Y-109437300D01*
%TO.N,RC9-*%
X146459600Y-108508500D02*
X147388400Y-109437300D01*
X146511000Y-99441000D02*
X146459600Y-99492400D01*
%TO.N,RC8-*%
X152146000Y-109454900D02*
X152230000Y-109538900D01*
X151090500Y-99441000D02*
X151090500Y-101687500D01*
%TO.N,RC6-*%
X159562800Y-109206100D02*
X159230000Y-109538900D01*
X159607000Y-99441000D02*
X159562800Y-99485200D01*
%TO.N,RC5-*%
X162661600Y-109470500D02*
X162730000Y-109538900D01*
X163195000Y-99441000D02*
X162661600Y-99974400D01*
%TO.N,RC4-*%
X168339300Y-99441000D02*
X166116000Y-101664300D01*
X166116000Y-108032500D02*
X167622400Y-109538900D01*
%TO.N,RC3-*%
X172680500Y-99441000D02*
X171551600Y-100569900D01*
X171551600Y-109109700D02*
X171122400Y-109538900D01*
%TO.N,RC2-*%
X176998500Y-99441000D02*
X176998500Y-100318700D01*
X174853600Y-109307700D02*
X174622400Y-109538900D01*
%TO.N,RC1-*%
X181324800Y-99441000D02*
X181324800Y-99904000D01*
X178460400Y-109200900D02*
X178122400Y-109538900D01*
%TO.N,IN10-*%
X145291600Y-110534100D02*
X143888400Y-111937300D01*
%TO.N,IN9-*%
X148411000Y-99441000D02*
X148411000Y-100890000D01*
%TO.N,IN7-*%
X157190500Y-99441000D02*
X157190500Y-100247400D01*
D18*
%TO.N,RC15-*%
X124764800Y-109206100D02*
X124996000Y-109437300D01*
%TO.N,RC14-*%
X129286000Y-108647300D02*
X128496000Y-109437300D01*
X125444800Y-100345800D02*
X125931252Y-100345800D01*
X124540000Y-99441000D02*
X125444800Y-100345800D01*
D19*
%TO.N,RC12-*%
X132922000Y-99441000D02*
X134660300Y-101179300D01*
%TO.N,RC5-*%
X163917500Y-99441000D02*
X163195000Y-99441000D01*
D18*
%TO.N,IN15-*%
X122833300Y-96297062D02*
X122833300Y-98983700D01*
X120278500Y-90721700D02*
X120278500Y-90941500D01*
X120278500Y-90941500D02*
X122053500Y-92716500D01*
X122053500Y-92716500D02*
X122053500Y-95517262D01*
X122053500Y-95517262D02*
X122833300Y-96297062D01*
X122833300Y-98983700D02*
X122376000Y-99441000D01*
%TO.N,IN14-*%
X124342500Y-90721700D02*
X124342500Y-90941500D01*
X126117500Y-93686975D02*
X127000000Y-94569475D01*
X127000000Y-94569475D02*
X127000000Y-98881000D01*
X126117500Y-92716500D02*
X126117500Y-93686975D01*
X127000000Y-98881000D02*
X126440000Y-99441000D01*
X124342500Y-90941500D02*
X126117500Y-92716500D01*
%TO.N,IN13-*%
X130308500Y-93813975D02*
X131191000Y-94696475D01*
X131191000Y-94696475D02*
X131191000Y-98881000D01*
X130308500Y-92716500D02*
X130308500Y-93813975D01*
X128533500Y-90941500D02*
X130308500Y-92716500D01*
X128533500Y-90721700D02*
X128533500Y-90941500D01*
X131191000Y-98881000D02*
X130631000Y-99441000D01*
%TO.N,IN12-*%
X135382000Y-94179000D02*
X135382000Y-98881000D01*
X135382000Y-98881000D02*
X134822000Y-99441000D01*
X134372500Y-92716500D02*
X134372500Y-93169500D01*
X132724500Y-91068500D02*
X134372500Y-92716500D01*
X134372500Y-93169500D02*
X135382000Y-94179000D01*
X132724500Y-90721700D02*
X132724500Y-91068500D01*
%TO.N,IN11-*%
X137210500Y-90721700D02*
X137210500Y-90728500D01*
X139765300Y-98983700D02*
X139308000Y-99441000D01*
X138985500Y-92503500D02*
X138985500Y-93169500D01*
X137210500Y-90728500D02*
X138985500Y-92503500D01*
X139765300Y-93949300D02*
X139765300Y-98983700D01*
X138985500Y-93169500D02*
X139765300Y-93949300D01*
%TO.N,IN10-*%
X143559650Y-93169500D02*
X144339450Y-93949300D01*
X143559650Y-92496700D02*
X141784650Y-90721700D01*
X143559650Y-93169500D02*
X143559650Y-92496700D01*
X144339450Y-93949300D02*
X144339450Y-98983700D01*
X144339450Y-98983700D02*
X143882150Y-99441000D01*
%TO.N,IN9-*%
X146313500Y-91394500D02*
X148868300Y-93949300D01*
X146313500Y-90721700D02*
X146313500Y-91394500D01*
X148411000Y-99441000D02*
X148868300Y-98983700D01*
X148868300Y-98983700D02*
X148868300Y-93949300D01*
%TO.N,IN8-*%
X152668000Y-92489200D02*
X150942600Y-90763800D01*
X152668000Y-93867000D02*
X152668000Y-92489200D01*
X153797000Y-94996000D02*
X153797000Y-98634500D01*
X153797000Y-98634500D02*
X152990500Y-99441000D01*
X152668000Y-93867000D02*
X153797000Y-94996000D01*
%TO.N,IN7-*%
X157190500Y-99441000D02*
X157796600Y-98834900D01*
X157796600Y-94931600D02*
X157016800Y-94151800D01*
X157016800Y-94151800D02*
X157016800Y-92500800D01*
X155249300Y-90733300D02*
X157016800Y-92500800D01*
X155249300Y-90721700D02*
X155249300Y-90733300D01*
X157796600Y-98834900D02*
X157796600Y-94931600D01*
%TO.N,IN5-*%
X163727500Y-91402000D02*
X166274800Y-93949300D01*
X165817500Y-99441000D02*
X166274800Y-98983700D01*
X163727500Y-90721700D02*
X163727500Y-91402000D01*
X166274800Y-98983700D02*
X166274800Y-93949300D01*
%TO.N,IN4-*%
X168149300Y-91402000D02*
X170696600Y-93949300D01*
X170696600Y-98983700D02*
X170696600Y-93949300D01*
X168149300Y-90721700D02*
X168149300Y-91402000D01*
X170239300Y-99441000D02*
X170696600Y-98983700D01*
%TO.N,IN3-*%
X175037800Y-98983700D02*
X175037800Y-93949300D01*
X172490500Y-91402000D02*
X175037800Y-93949300D01*
X174580500Y-99441000D02*
X175037800Y-98983700D01*
X172490500Y-90721700D02*
X172490500Y-91402000D01*
%TO.N,IN2-*%
X179383100Y-98956400D02*
X179383100Y-93976600D01*
X176808500Y-91402000D02*
X179383100Y-93976600D01*
X178898500Y-99441000D02*
X179383100Y-98956400D01*
X176808500Y-90721700D02*
X176808500Y-91402000D01*
%TO.N,IN1-*%
X183224800Y-99441000D02*
X183682100Y-98983700D01*
X183682100Y-98983700D02*
X183682100Y-93949300D01*
X181134800Y-91402000D02*
X183682100Y-93949300D01*
X181134800Y-90721700D02*
X181134800Y-91402000D01*
%TO.N,Net-(LED51-Pad1)*%
X117774500Y-88519000D02*
X117774500Y-90528700D01*
X117774500Y-90528700D02*
X117792000Y-90546200D01*
%TO.N,Net-(LED52-Pad1)*%
X121911000Y-90577200D02*
X121928500Y-90594700D01*
X121911000Y-88519000D02*
X121911000Y-90577200D01*
%TO.N,Net-(LED53-Pad1)*%
X126009500Y-88519000D02*
X125992500Y-88536000D01*
X125992500Y-88536000D02*
X125992500Y-90594700D01*
%TO.N,Net-(LED54-Pad1)*%
X130166000Y-90577200D02*
X130183500Y-90594700D01*
X130166000Y-88519000D02*
X130166000Y-90577200D01*
%TO.N,Net-(LED55-Pad1)*%
X134357000Y-90704200D02*
X134374500Y-90721700D01*
X134357000Y-88519000D02*
X134357000Y-90704200D01*
%TO.N,Net-(LED56-Pad1)*%
X138836500Y-88519000D02*
X138836500Y-90697700D01*
X138836500Y-90697700D02*
X138860500Y-90721700D01*
%TO.N,Net-(LED57-Pad1)*%
X143408500Y-88519000D02*
X143408500Y-90738700D01*
%TO.N,Net-(LED58-Pad1)*%
X147946000Y-90704200D02*
X147963500Y-90721700D01*
X147946000Y-88519000D02*
X147946000Y-90704200D01*
%TO.N,Net-(LED59-Pad1)*%
X152550500Y-88521000D02*
X152550500Y-90721700D01*
X152552500Y-88519000D02*
X152550500Y-88521000D01*
%TO.N,Net-(LED60-Pad1)*%
X156881800Y-88519000D02*
X156881800Y-90704200D01*
X156881800Y-90704200D02*
X156899300Y-90721700D01*
%TO.N,Net-(LED61-Pad1)*%
X161049500Y-88519000D02*
X161049500Y-90704200D01*
X161049500Y-90704200D02*
X161067000Y-90721700D01*
%TO.N,Net-(LED62-Pad1)*%
X165481000Y-88544500D02*
X165481000Y-90618200D01*
X165506500Y-88519000D02*
X165481000Y-88544500D01*
X165481000Y-90618200D02*
X165377500Y-90721700D01*
%TO.N,Net-(LED63-Pad1)*%
X169781800Y-90704200D02*
X169799300Y-90721700D01*
X169781800Y-88519000D02*
X169781800Y-90704200D01*
%TO.N,Net-(LED64-Pad1)*%
X174123000Y-88519000D02*
X174123000Y-90704200D01*
X174123000Y-90704200D02*
X174140500Y-90721700D01*
%TO.N,Net-(LED65-Pad1)*%
X178441000Y-90704200D02*
X178458500Y-90721700D01*
X178441000Y-88519000D02*
X178441000Y-90704200D01*
%TO.N,Net-(LED66-Pad1)*%
X182767300Y-88519000D02*
X182767300Y-90704200D01*
X182767300Y-90704200D02*
X182784800Y-90721700D01*
%TO.N,IN6-*%
X161975800Y-98972200D02*
X161975800Y-93960800D01*
X159417000Y-90721700D02*
X159417000Y-91402000D01*
X159417000Y-91402000D02*
X161975800Y-93960800D01*
X161507000Y-99441000D02*
X161975800Y-98972200D01*
%TO.N,RC7-*%
X156891800Y-97839700D02*
X155290500Y-99441000D01*
X156891800Y-97468400D02*
X156891800Y-97839700D01*
%TO.N,IN9+*%
X146304000Y-97458900D02*
X146313500Y-97468400D01*
X146304000Y-94948527D02*
X146304000Y-97458900D01*
X145378900Y-94023427D02*
X146304000Y-94948527D01*
X146371000Y-88519000D02*
X145378900Y-89511100D01*
X145378900Y-89511100D02*
X145378900Y-94023427D01*
%TO.N,RC16-*%
X117792000Y-97468400D02*
X117792000Y-97988500D01*
X117792000Y-97988500D02*
X116339500Y-99441000D01*
%TO.N,RC15-*%
X121928500Y-97468400D02*
X121928500Y-97988500D01*
X121928500Y-97988500D02*
X120476000Y-99441000D01*
%TO.N,RC14-*%
X125992500Y-97468400D02*
X125992500Y-97988500D01*
X125992500Y-97988500D02*
X124540000Y-99441000D01*
%TO.N,RC13-*%
X130183500Y-97988500D02*
X128731000Y-99441000D01*
X130183500Y-97468400D02*
X130183500Y-97988500D01*
%TO.N,RC12-*%
X134374500Y-97988500D02*
X132922000Y-99441000D01*
X134374500Y-97468400D02*
X134374500Y-97988500D01*
%TO.N,RC11-*%
X138860500Y-97988500D02*
X137408000Y-99441000D01*
X138860500Y-97468400D02*
X138860500Y-97988500D01*
%TO.N,RC10-*%
X143434650Y-97988500D02*
X141982150Y-99441000D01*
X143434650Y-97468400D02*
X143434650Y-97988500D01*
%TO.N,RC9-*%
X147963500Y-97988500D02*
X146511000Y-99441000D01*
X147963500Y-97468400D02*
X147963500Y-97988500D01*
%TO.N,RC8-*%
X152543000Y-97468400D02*
X152543000Y-97988500D01*
X152543000Y-97988500D02*
X151090500Y-99441000D01*
%TO.N,RC6-*%
X161059500Y-97988500D02*
X159607000Y-99441000D01*
X161059500Y-97468400D02*
X161059500Y-97988500D01*
%TO.N,RC5-*%
X165370000Y-97468400D02*
X165370000Y-97988500D01*
X165370000Y-97988500D02*
X163917500Y-99441000D01*
%TO.N,RC4-*%
X169791800Y-97988500D02*
X168339300Y-99441000D01*
X169791800Y-97468400D02*
X169791800Y-97988500D01*
%TO.N,RC3-*%
X174133000Y-97988500D02*
X172680500Y-99441000D01*
X174133000Y-97468400D02*
X174133000Y-97988500D01*
%TO.N,RC2-*%
X178451000Y-97468400D02*
X178451000Y-97988500D01*
X178451000Y-97988500D02*
X176998500Y-99441000D01*
%TO.N,RC1-*%
X182777300Y-97468400D02*
X182777300Y-97988500D01*
X182777300Y-97988500D02*
X181324800Y-99441000D01*
%TD*%
%TA.AperFunction,Conductor*%
%TO.N,GNDPWR*%
G36*
X182273914Y-62274484D02*
G01*
X182454237Y-62292245D01*
X182473573Y-62296092D01*
X182628683Y-62343143D01*
X182642199Y-62347243D01*
X182660419Y-62354790D01*
X182815831Y-62437859D01*
X182832225Y-62448813D01*
X182968450Y-62560609D01*
X182982391Y-62574550D01*
X183094187Y-62710775D01*
X183105141Y-62727169D01*
X183188210Y-62882581D01*
X183195757Y-62900801D01*
X183246908Y-63069425D01*
X183250756Y-63088766D01*
X183268516Y-63269086D01*
X183269000Y-63278947D01*
X183269000Y-67123700D01*
X183249787Y-67182831D01*
X183210401Y-67215113D01*
X183142956Y-67246101D01*
X183142950Y-67246104D01*
X183141000Y-67247000D01*
X183139122Y-67248066D01*
X182956875Y-67351503D01*
X182956861Y-67351512D01*
X182956000Y-67352000D01*
X182955166Y-67352518D01*
X182955157Y-67352523D01*
X182812385Y-67441140D01*
X182812377Y-67441145D01*
X182811000Y-67442000D01*
X182809677Y-67442945D01*
X182740621Y-67492271D01*
X182671000Y-67542000D01*
X182586000Y-67612000D01*
X182441000Y-67737000D01*
X182301000Y-67872000D01*
X182186000Y-67997000D01*
X182041000Y-68177000D01*
X182039817Y-68178752D01*
X182039813Y-68178758D01*
X181936148Y-68332337D01*
X181906000Y-68377000D01*
X181905163Y-68378435D01*
X181839694Y-68490668D01*
X181836000Y-68497000D01*
X181761000Y-68632000D01*
X181676000Y-68812000D01*
X181606000Y-68992000D01*
X181605807Y-68992530D01*
X181605802Y-68992544D01*
X181591127Y-69032900D01*
X181566000Y-69102000D01*
X181565583Y-69103390D01*
X181565581Y-69103396D01*
X181545321Y-69170931D01*
X181536000Y-69202000D01*
X181506000Y-69312000D01*
X181466000Y-69502000D01*
X181451000Y-69607000D01*
X181450944Y-69607465D01*
X181450941Y-69607485D01*
X181431087Y-69771278D01*
X181431084Y-69771311D01*
X181431000Y-69772000D01*
X181421000Y-69882000D01*
X181416000Y-70057000D01*
X181416000Y-70157000D01*
X181426000Y-70312000D01*
X181436000Y-70442000D01*
X181461000Y-70612000D01*
X181491000Y-70752000D01*
X181516000Y-70867000D01*
X181546000Y-70977000D01*
X181546336Y-70978045D01*
X181546343Y-70978069D01*
X181568051Y-71045604D01*
X181591000Y-71117000D01*
X181631000Y-71227000D01*
X181631750Y-71228673D01*
X181631752Y-71228678D01*
X181696000Y-71372000D01*
X181721711Y-71429135D01*
X181741000Y-71472000D01*
X181796000Y-71577000D01*
X181846000Y-71667000D01*
X181886000Y-71732000D01*
X181910304Y-71771770D01*
X181940480Y-71821150D01*
X181940493Y-71821170D01*
X181941000Y-71822000D01*
X181991000Y-71897000D01*
X182031000Y-71952000D01*
X182081000Y-72017000D01*
X182141000Y-72092000D01*
X182221000Y-72187000D01*
X182221971Y-72188028D01*
X182221978Y-72188036D01*
X182305491Y-72276462D01*
X182305522Y-72276493D01*
X182306000Y-72277000D01*
X182411000Y-72382000D01*
X182481000Y-72447000D01*
X182581000Y-72532000D01*
X182581713Y-72532563D01*
X182581718Y-72532567D01*
X182674602Y-72605896D01*
X182676000Y-72607000D01*
X182676980Y-72607700D01*
X182676992Y-72607709D01*
X182745620Y-72656729D01*
X182745645Y-72656747D01*
X182746000Y-72657000D01*
X182841000Y-72722000D01*
X182936000Y-72782000D01*
X182936647Y-72782381D01*
X182936669Y-72782394D01*
X183020454Y-72831679D01*
X183021000Y-72832000D01*
X183021524Y-72832291D01*
X183021564Y-72832314D01*
X183087929Y-72869183D01*
X183111000Y-72882000D01*
X183191000Y-72922000D01*
X183191319Y-72922154D01*
X183191387Y-72922187D01*
X183212041Y-72932131D01*
X183256984Y-72975093D01*
X183269000Y-73022772D01*
X183269000Y-87768629D01*
X183249787Y-87827760D01*
X183199487Y-87864305D01*
X183137313Y-87864305D01*
X183127990Y-87860444D01*
X183125276Y-87859562D01*
X183118222Y-87855968D01*
X183110403Y-87854730D01*
X183110401Y-87854729D01*
X183063912Y-87847366D01*
X183019298Y-87840300D01*
X182515302Y-87840300D01*
X182470688Y-87847366D01*
X182424199Y-87854729D01*
X182424197Y-87854730D01*
X182416378Y-87855968D01*
X182297145Y-87916720D01*
X182202520Y-88011345D01*
X182141768Y-88130578D01*
X182140530Y-88138395D01*
X182140529Y-88138399D01*
X182138027Y-88154198D01*
X182126100Y-88229502D01*
X182126100Y-88808498D01*
X182141768Y-88907422D01*
X182202520Y-89026655D01*
X182229335Y-89053470D01*
X182257561Y-89108868D01*
X182258800Y-89124605D01*
X182258800Y-90173135D01*
X182247835Y-90218806D01*
X182196073Y-90320395D01*
X182181100Y-90414930D01*
X182181100Y-91028470D01*
X182181720Y-91032383D01*
X182194834Y-91115180D01*
X182196073Y-91123005D01*
X182254129Y-91236947D01*
X182344553Y-91327371D01*
X182458495Y-91385427D01*
X182466314Y-91386665D01*
X182466316Y-91386666D01*
X182510059Y-91393594D01*
X182553030Y-91400400D01*
X183016570Y-91400400D01*
X183059541Y-91393594D01*
X183103284Y-91386666D01*
X183103286Y-91386665D01*
X183111105Y-91385427D01*
X183122728Y-91379505D01*
X183184135Y-91369777D01*
X183239534Y-91398003D01*
X183267761Y-91453400D01*
X183269000Y-91469139D01*
X183269000Y-92574202D01*
X183249787Y-92633333D01*
X183199487Y-92669878D01*
X183137313Y-92669878D01*
X183097265Y-92645337D01*
X181725053Y-91273126D01*
X181696827Y-91217728D01*
X181706552Y-91156320D01*
X181719932Y-91130060D01*
X181723527Y-91123005D01*
X181738500Y-91028470D01*
X181738500Y-90767857D01*
X181739361Y-90754726D01*
X181742848Y-90728240D01*
X181743709Y-90721700D01*
X181739361Y-90688674D01*
X181738500Y-90675543D01*
X181738500Y-90414930D01*
X181723527Y-90320395D01*
X181665471Y-90206453D01*
X181575047Y-90116029D01*
X181461105Y-90057973D01*
X181453286Y-90056735D01*
X181453284Y-90056734D01*
X181397854Y-90047955D01*
X181366570Y-90043000D01*
X180903030Y-90043000D01*
X180817537Y-90056541D01*
X180756129Y-90046815D01*
X180712165Y-90002852D01*
X180701200Y-89957180D01*
X180701200Y-89770897D01*
X180720413Y-89711766D01*
X180730665Y-89699762D01*
X181203262Y-89227165D01*
X181258660Y-89198939D01*
X181274397Y-89197700D01*
X181444298Y-89197700D01*
X181494347Y-89189773D01*
X181535401Y-89183271D01*
X181535403Y-89183270D01*
X181543222Y-89182032D01*
X181662455Y-89121280D01*
X181757080Y-89026655D01*
X181817832Y-88907422D01*
X181833500Y-88808498D01*
X181833500Y-88229502D01*
X181821573Y-88154198D01*
X181819071Y-88138399D01*
X181819070Y-88138395D01*
X181817832Y-88130578D01*
X181757080Y-88011345D01*
X181662455Y-87916720D01*
X181654128Y-87912477D01*
X181653120Y-87911469D01*
X181648996Y-87908473D01*
X181649471Y-87907820D01*
X181610166Y-87868517D01*
X181599200Y-87822843D01*
X181599200Y-85401276D01*
X181599199Y-85401270D01*
X181599199Y-85368853D01*
X181591626Y-85345543D01*
X181587943Y-85330200D01*
X181585348Y-85313814D01*
X181585347Y-85313812D01*
X181584109Y-85305994D01*
X181572985Y-85284162D01*
X181566943Y-85269576D01*
X181561816Y-85253797D01*
X181559370Y-85246268D01*
X181544959Y-85226433D01*
X181536716Y-85212981D01*
X181529186Y-85198202D01*
X181529185Y-85198201D01*
X181525592Y-85191149D01*
X181502669Y-85168226D01*
X181502666Y-85168222D01*
X176100204Y-79765761D01*
X176071978Y-79710363D01*
X176075882Y-79662872D01*
X176091347Y-79616382D01*
X176091347Y-79616380D01*
X176092900Y-79611713D01*
X176116341Y-79426158D01*
X176116715Y-79399400D01*
X176098464Y-79213262D01*
X176097042Y-79208552D01*
X176097041Y-79208547D01*
X176045830Y-79038930D01*
X176045828Y-79038926D01*
X176044406Y-79034215D01*
X175956601Y-78869077D01*
X175838392Y-78724138D01*
X175831561Y-78718487D01*
X175698071Y-78608054D01*
X175698066Y-78608051D01*
X175694283Y-78604921D01*
X175529762Y-78515965D01*
X175525064Y-78514511D01*
X175525060Y-78514509D01*
X175355793Y-78462112D01*
X175351096Y-78460658D01*
X175165090Y-78441108D01*
X175160189Y-78441554D01*
X175160186Y-78441554D01*
X174983729Y-78457613D01*
X174983727Y-78457613D01*
X174978830Y-78458059D01*
X174799409Y-78510866D01*
X174633662Y-78597516D01*
X174487902Y-78714710D01*
X174484736Y-78718483D01*
X174484732Y-78718487D01*
X174370846Y-78854212D01*
X174367681Y-78857984D01*
X174365312Y-78862292D01*
X174365310Y-78862296D01*
X174359194Y-78873422D01*
X174277579Y-79021880D01*
X174221026Y-79200155D01*
X174220478Y-79205042D01*
X174220477Y-79205046D01*
X174219006Y-79218161D01*
X174200178Y-79386020D01*
X174215829Y-79572394D01*
X174241773Y-79662872D01*
X174255391Y-79710363D01*
X174267381Y-79752179D01*
X174286398Y-79789182D01*
X174352872Y-79918527D01*
X174351748Y-79919105D01*
X174366199Y-79973773D01*
X174343722Y-80031742D01*
X174291464Y-80065429D01*
X174229386Y-80061965D01*
X174194620Y-80039304D01*
X173604577Y-79449262D01*
X173575592Y-79387944D01*
X173558944Y-79218161D01*
X173558464Y-79213262D01*
X173557042Y-79208552D01*
X173557041Y-79208547D01*
X173505830Y-79038930D01*
X173505828Y-79038926D01*
X173504406Y-79034215D01*
X173416601Y-78869077D01*
X173298392Y-78724138D01*
X173291561Y-78718487D01*
X173158071Y-78608054D01*
X173158066Y-78608051D01*
X173154283Y-78604921D01*
X172989762Y-78515965D01*
X172985064Y-78514511D01*
X172985060Y-78514509D01*
X172815793Y-78462112D01*
X172811096Y-78460658D01*
X172625090Y-78441108D01*
X172620189Y-78441554D01*
X172620186Y-78441554D01*
X172443729Y-78457613D01*
X172443727Y-78457613D01*
X172438830Y-78458059D01*
X172259409Y-78510866D01*
X172093662Y-78597516D01*
X171947902Y-78714710D01*
X171944736Y-78718483D01*
X171944732Y-78718487D01*
X171830846Y-78854212D01*
X171827681Y-78857984D01*
X171825312Y-78862292D01*
X171825310Y-78862296D01*
X171819194Y-78873422D01*
X171737579Y-79021880D01*
X171681026Y-79200155D01*
X171680478Y-79205042D01*
X171680477Y-79205046D01*
X171679006Y-79218161D01*
X171660178Y-79386020D01*
X171675829Y-79572394D01*
X171701773Y-79662872D01*
X171715391Y-79710363D01*
X171727381Y-79752179D01*
X171746398Y-79789182D01*
X171812872Y-79918527D01*
X171811751Y-79919103D01*
X171826198Y-79973787D01*
X171803714Y-80031753D01*
X171751452Y-80065433D01*
X171689374Y-80061961D01*
X171654620Y-80039305D01*
X171064577Y-79449262D01*
X171035592Y-79387944D01*
X171018944Y-79218161D01*
X171018464Y-79213262D01*
X171017042Y-79208552D01*
X171017041Y-79208547D01*
X170965830Y-79038930D01*
X170965828Y-79038926D01*
X170964406Y-79034215D01*
X170876601Y-78869077D01*
X170758392Y-78724138D01*
X170751561Y-78718487D01*
X170618071Y-78608054D01*
X170618066Y-78608051D01*
X170614283Y-78604921D01*
X170449762Y-78515965D01*
X170445064Y-78514511D01*
X170445060Y-78514509D01*
X170275793Y-78462112D01*
X170271096Y-78460658D01*
X170085090Y-78441108D01*
X170080189Y-78441554D01*
X170080186Y-78441554D01*
X169903729Y-78457613D01*
X169903727Y-78457613D01*
X169898830Y-78458059D01*
X169719409Y-78510866D01*
X169553662Y-78597516D01*
X169407902Y-78714710D01*
X169404736Y-78718483D01*
X169404732Y-78718487D01*
X169290846Y-78854212D01*
X169287681Y-78857984D01*
X169285312Y-78862292D01*
X169285310Y-78862296D01*
X169279194Y-78873422D01*
X169197579Y-79021880D01*
X169141026Y-79200155D01*
X169140478Y-79205042D01*
X169140477Y-79205046D01*
X169139006Y-79218161D01*
X169120178Y-79386020D01*
X169135829Y-79572394D01*
X169161773Y-79662872D01*
X169175391Y-79710363D01*
X169187381Y-79752179D01*
X169272872Y-79918527D01*
X169389046Y-80065102D01*
X169531477Y-80186320D01*
X169694740Y-80277564D01*
X169699421Y-80279085D01*
X169867937Y-80333840D01*
X169867940Y-80333841D01*
X169872616Y-80335360D01*
X169877498Y-80335942D01*
X169877502Y-80335943D01*
X170053441Y-80356922D01*
X170053442Y-80356922D01*
X170058331Y-80357505D01*
X170244810Y-80343156D01*
X170249550Y-80341832D01*
X170249553Y-80341832D01*
X170420208Y-80294184D01*
X170424950Y-80292860D01*
X170580754Y-80214158D01*
X170642195Y-80204646D01*
X170697246Y-80232817D01*
X171286135Y-80821706D01*
X171314361Y-80877104D01*
X171304635Y-80938512D01*
X171260671Y-80982476D01*
X171224118Y-80993027D01*
X171173729Y-80997613D01*
X171173727Y-80997613D01*
X171168830Y-80998059D01*
X170989409Y-81050866D01*
X170823662Y-81137516D01*
X170677902Y-81254710D01*
X170674736Y-81258483D01*
X170674732Y-81258487D01*
X170562592Y-81392131D01*
X170557681Y-81397984D01*
X170555312Y-81402292D01*
X170555310Y-81402296D01*
X170542785Y-81425079D01*
X170467579Y-81561880D01*
X170411026Y-81740155D01*
X170410478Y-81745042D01*
X170410477Y-81745046D01*
X170400754Y-81831729D01*
X170390178Y-81926020D01*
X170405829Y-82112394D01*
X170457381Y-82292179D01*
X170542872Y-82458527D01*
X170659046Y-82605102D01*
X170801477Y-82726320D01*
X170964740Y-82817564D01*
X170969421Y-82819085D01*
X171137937Y-82873840D01*
X171137940Y-82873841D01*
X171142616Y-82875360D01*
X171147498Y-82875942D01*
X171147502Y-82875943D01*
X171323441Y-82896922D01*
X171323442Y-82896922D01*
X171328331Y-82897505D01*
X171467002Y-82886835D01*
X171509898Y-82883534D01*
X171514810Y-82883156D01*
X171519550Y-82881832D01*
X171519553Y-82881832D01*
X171690208Y-82834184D01*
X171694950Y-82832860D01*
X171861891Y-82748532D01*
X171921137Y-82702244D01*
X171978565Y-82657377D01*
X172036989Y-82636112D01*
X172096755Y-82653250D01*
X172135033Y-82702244D01*
X172141100Y-82736651D01*
X172141100Y-87822843D01*
X172121887Y-87881974D01*
X172091134Y-87908239D01*
X172091304Y-87908473D01*
X172088335Y-87910630D01*
X172086173Y-87912477D01*
X172077845Y-87916720D01*
X171983220Y-88011345D01*
X171922468Y-88130578D01*
X171921230Y-88138395D01*
X171921229Y-88138399D01*
X171918727Y-88154198D01*
X171906800Y-88229502D01*
X171906800Y-88399403D01*
X171887587Y-88458534D01*
X171877335Y-88470538D01*
X171274388Y-89073485D01*
X171264247Y-89081588D01*
X171264262Y-89081606D01*
X171258804Y-89086251D01*
X171252742Y-89090076D01*
X171227432Y-89118734D01*
X171216593Y-89131007D01*
X171212325Y-89135548D01*
X171200318Y-89147555D01*
X171193426Y-89156751D01*
X171188344Y-89162992D01*
X171156322Y-89199251D01*
X171153275Y-89205742D01*
X171151895Y-89208680D01*
X171141336Y-89226254D01*
X171135084Y-89234595D01*
X171132568Y-89241305D01*
X171132568Y-89241306D01*
X171118102Y-89279894D01*
X171114974Y-89287318D01*
X171094419Y-89331100D01*
X171092888Y-89340935D01*
X171092817Y-89341390D01*
X171087615Y-89361217D01*
X171086472Y-89364268D01*
X171086471Y-89364272D01*
X171083955Y-89370984D01*
X171083204Y-89381095D01*
X171080372Y-89419205D01*
X171079451Y-89427230D01*
X171078163Y-89435500D01*
X171077200Y-89441686D01*
X171077200Y-89458160D01*
X171076923Y-89465614D01*
X171073161Y-89516241D01*
X171074657Y-89523249D01*
X171074657Y-89523251D01*
X171074983Y-89524780D01*
X171077200Y-89545782D01*
X171077200Y-93367902D01*
X171057987Y-93427033D01*
X171007687Y-93463578D01*
X170945513Y-93463578D01*
X170905465Y-93439037D01*
X168739553Y-91273126D01*
X168711327Y-91217728D01*
X168721052Y-91156320D01*
X168734432Y-91130060D01*
X168738027Y-91123005D01*
X168753000Y-91028470D01*
X168753000Y-90767857D01*
X168753861Y-90754726D01*
X168757348Y-90728240D01*
X168758209Y-90721700D01*
X168753861Y-90688674D01*
X168753000Y-90675543D01*
X168753000Y-90414930D01*
X168738027Y-90320395D01*
X168679971Y-90206453D01*
X168589547Y-90116029D01*
X168475605Y-90057973D01*
X168467786Y-90056735D01*
X168467784Y-90056734D01*
X168412354Y-90047955D01*
X168381070Y-90043000D01*
X167917530Y-90043000D01*
X167886246Y-90047955D01*
X167869337Y-90050633D01*
X167807929Y-90040907D01*
X167763965Y-89996943D01*
X167753000Y-89951272D01*
X167753000Y-89733597D01*
X167772213Y-89674466D01*
X167782465Y-89662462D01*
X168217763Y-89227165D01*
X168273161Y-89198939D01*
X168288898Y-89197700D01*
X168458798Y-89197700D01*
X168508847Y-89189773D01*
X168549901Y-89183271D01*
X168549903Y-89183270D01*
X168557722Y-89182032D01*
X168676955Y-89121280D01*
X168771580Y-89026655D01*
X168832332Y-88907422D01*
X168848000Y-88808498D01*
X169140600Y-88808498D01*
X169156268Y-88907422D01*
X169217020Y-89026655D01*
X169243835Y-89053470D01*
X169272061Y-89108868D01*
X169273300Y-89124605D01*
X169273300Y-90173135D01*
X169262335Y-90218806D01*
X169210573Y-90320395D01*
X169195600Y-90414930D01*
X169195600Y-91028470D01*
X169196220Y-91032383D01*
X169209334Y-91115180D01*
X169210573Y-91123005D01*
X169268629Y-91236947D01*
X169359053Y-91327371D01*
X169472995Y-91385427D01*
X169480814Y-91386665D01*
X169480816Y-91386666D01*
X169524559Y-91393594D01*
X169567530Y-91400400D01*
X170031070Y-91400400D01*
X170074041Y-91393594D01*
X170117784Y-91386666D01*
X170117786Y-91386665D01*
X170125605Y-91385427D01*
X170239547Y-91327371D01*
X170329971Y-91236947D01*
X170388027Y-91123005D01*
X170389267Y-91115180D01*
X170402380Y-91032383D01*
X170403000Y-91028470D01*
X170403000Y-90414930D01*
X170388027Y-90320395D01*
X170329971Y-90206453D01*
X170319765Y-90196247D01*
X170291539Y-90140849D01*
X170290300Y-90125112D01*
X170290300Y-89124605D01*
X170309513Y-89065474D01*
X170319765Y-89053470D01*
X170346580Y-89026655D01*
X170407332Y-88907422D01*
X170423000Y-88808498D01*
X170423000Y-88229502D01*
X170411073Y-88154198D01*
X170408571Y-88138399D01*
X170408570Y-88138395D01*
X170407332Y-88130578D01*
X170346580Y-88011345D01*
X170251955Y-87916720D01*
X170132722Y-87855968D01*
X170124903Y-87854730D01*
X170124901Y-87854729D01*
X170078412Y-87847366D01*
X170033798Y-87840300D01*
X169529802Y-87840300D01*
X169485188Y-87847366D01*
X169438699Y-87854729D01*
X169438697Y-87854730D01*
X169430878Y-87855968D01*
X169311645Y-87916720D01*
X169217020Y-88011345D01*
X169156268Y-88130578D01*
X169155030Y-88138395D01*
X169155029Y-88138399D01*
X169152527Y-88154198D01*
X169140600Y-88229502D01*
X169140600Y-88808498D01*
X168848000Y-88808498D01*
X168848000Y-88229502D01*
X168836073Y-88154198D01*
X168833571Y-88138399D01*
X168833570Y-88138395D01*
X168832332Y-88130578D01*
X168771580Y-88011345D01*
X168676955Y-87916720D01*
X168557722Y-87855968D01*
X168549903Y-87854730D01*
X168549901Y-87854729D01*
X168503412Y-87847366D01*
X168458798Y-87840300D01*
X168145213Y-87840300D01*
X168086082Y-87821087D01*
X168074078Y-87810835D01*
X167974765Y-87711522D01*
X167946539Y-87656124D01*
X167945300Y-87640387D01*
X167945300Y-82673485D01*
X167964513Y-82614354D01*
X168014813Y-82577809D01*
X168076987Y-82577809D01*
X168117458Y-82603098D01*
X168119046Y-82605102D01*
X168122793Y-82608291D01*
X168122797Y-82608295D01*
X168175620Y-82653250D01*
X168261477Y-82726320D01*
X168424740Y-82817564D01*
X168429421Y-82819085D01*
X168597937Y-82873840D01*
X168597940Y-82873841D01*
X168602616Y-82875360D01*
X168607498Y-82875942D01*
X168607502Y-82875943D01*
X168783441Y-82896922D01*
X168783442Y-82896922D01*
X168788331Y-82897505D01*
X168927002Y-82886835D01*
X168969898Y-82883534D01*
X168974810Y-82883156D01*
X168979550Y-82881832D01*
X168979553Y-82881832D01*
X169150208Y-82834184D01*
X169154950Y-82832860D01*
X169321891Y-82748532D01*
X169469273Y-82633385D01*
X169494746Y-82603874D01*
X169588267Y-82495529D01*
X169588268Y-82495527D01*
X169591482Y-82491804D01*
X169612872Y-82454151D01*
X169681433Y-82333462D01*
X169681434Y-82333459D01*
X169683864Y-82329182D01*
X169742900Y-82151713D01*
X169743516Y-82146836D01*
X169743517Y-82146832D01*
X169761646Y-82003322D01*
X169766341Y-81966158D01*
X169766634Y-81945221D01*
X169766676Y-81942213D01*
X169766676Y-81942207D01*
X169766715Y-81939400D01*
X169748464Y-81753262D01*
X169747042Y-81748552D01*
X169747041Y-81748547D01*
X169695830Y-81578930D01*
X169695828Y-81578926D01*
X169694406Y-81574215D01*
X169606601Y-81409077D01*
X169488392Y-81264138D01*
X169481561Y-81258487D01*
X169348071Y-81148054D01*
X169348066Y-81148051D01*
X169344283Y-81144921D01*
X169179762Y-81055965D01*
X169175064Y-81054511D01*
X169175060Y-81054509D01*
X169005793Y-81002112D01*
X169001096Y-81000658D01*
X168815090Y-80981108D01*
X168810189Y-80981554D01*
X168810186Y-80981554D01*
X168633729Y-80997613D01*
X168633727Y-80997613D01*
X168628830Y-80998059D01*
X168449409Y-81050866D01*
X168283662Y-81137516D01*
X168137902Y-81254710D01*
X168134733Y-81258487D01*
X168134731Y-81258489D01*
X168122963Y-81272513D01*
X168070236Y-81305460D01*
X168008214Y-81301122D01*
X167960586Y-81261157D01*
X167945300Y-81207848D01*
X167945300Y-80324264D01*
X167964513Y-80265133D01*
X168000542Y-80234470D01*
X168051891Y-80208532D01*
X168199273Y-80093385D01*
X168220932Y-80068293D01*
X168318267Y-79955529D01*
X168318268Y-79955527D01*
X168321482Y-79951804D01*
X168413864Y-79789182D01*
X168472900Y-79611713D01*
X168496341Y-79426158D01*
X168496715Y-79399400D01*
X168478464Y-79213262D01*
X168477042Y-79208552D01*
X168477041Y-79208547D01*
X168425830Y-79038930D01*
X168425828Y-79038926D01*
X168424406Y-79034215D01*
X168336601Y-78869077D01*
X168218392Y-78724138D01*
X168211561Y-78718487D01*
X168078071Y-78608054D01*
X168078066Y-78608051D01*
X168074283Y-78604921D01*
X167909762Y-78515965D01*
X167905064Y-78514511D01*
X167905060Y-78514509D01*
X167735793Y-78462112D01*
X167731096Y-78460658D01*
X167545090Y-78441108D01*
X167540189Y-78441554D01*
X167540186Y-78441554D01*
X167363729Y-78457613D01*
X167363727Y-78457613D01*
X167358830Y-78458059D01*
X167179409Y-78510866D01*
X167013662Y-78597516D01*
X166867902Y-78714710D01*
X166864736Y-78718483D01*
X166864732Y-78718487D01*
X166750846Y-78854212D01*
X166747681Y-78857984D01*
X166745312Y-78862292D01*
X166745310Y-78862296D01*
X166739194Y-78873422D01*
X166657579Y-79021880D01*
X166601026Y-79200155D01*
X166600478Y-79205042D01*
X166600477Y-79205046D01*
X166599006Y-79218161D01*
X166580178Y-79386020D01*
X166595829Y-79572394D01*
X166621773Y-79662872D01*
X166635391Y-79710363D01*
X166647381Y-79752179D01*
X166732872Y-79918527D01*
X166849046Y-80065102D01*
X166991477Y-80186320D01*
X167041581Y-80214322D01*
X167079979Y-80235782D01*
X167122222Y-80281401D01*
X167131500Y-80323598D01*
X167131500Y-81206132D01*
X167112287Y-81265263D01*
X167061987Y-81301808D01*
X166999813Y-81301808D01*
X166955170Y-81271242D01*
X166954969Y-81271442D01*
X166953921Y-81270387D01*
X166952943Y-81269717D01*
X166951504Y-81267953D01*
X166951499Y-81267948D01*
X166948392Y-81264138D01*
X166941561Y-81258487D01*
X166808071Y-81148054D01*
X166808066Y-81148051D01*
X166804283Y-81144921D01*
X166639762Y-81055965D01*
X166635064Y-81054511D01*
X166635060Y-81054509D01*
X166465793Y-81002112D01*
X166461096Y-81000658D01*
X166275090Y-80981108D01*
X166270189Y-80981554D01*
X166270186Y-80981554D01*
X166093729Y-80997613D01*
X166093727Y-80997613D01*
X166088830Y-80998059D01*
X165909409Y-81050866D01*
X165743662Y-81137516D01*
X165597902Y-81254710D01*
X165594736Y-81258483D01*
X165594732Y-81258487D01*
X165482592Y-81392131D01*
X165477681Y-81397984D01*
X165475312Y-81402292D01*
X165475310Y-81402296D01*
X165462785Y-81425079D01*
X165387579Y-81561880D01*
X165331026Y-81740155D01*
X165330478Y-81745042D01*
X165330477Y-81745046D01*
X165320754Y-81831729D01*
X165310178Y-81926020D01*
X165325829Y-82112394D01*
X165377381Y-82292179D01*
X165462872Y-82458527D01*
X165579046Y-82605102D01*
X165721477Y-82726320D01*
X165884740Y-82817564D01*
X165889421Y-82819085D01*
X166057937Y-82873840D01*
X166057940Y-82873841D01*
X166062616Y-82875360D01*
X166067498Y-82875942D01*
X166067502Y-82875943D01*
X166243441Y-82896922D01*
X166243442Y-82896922D01*
X166248331Y-82897505D01*
X166387002Y-82886835D01*
X166429898Y-82883534D01*
X166434810Y-82883156D01*
X166439550Y-82881832D01*
X166439553Y-82881832D01*
X166610208Y-82834184D01*
X166614950Y-82832860D01*
X166781891Y-82748532D01*
X166929273Y-82633385D01*
X166954746Y-82603874D01*
X167007927Y-82571666D01*
X167069884Y-82576868D01*
X167116949Y-82617494D01*
X167131500Y-82669608D01*
X167131500Y-87915046D01*
X167139073Y-87938352D01*
X167142757Y-87953698D01*
X167146591Y-87977906D01*
X167150184Y-87984957D01*
X167150184Y-87984958D01*
X167157716Y-87999740D01*
X167163755Y-88014318D01*
X167171330Y-88037632D01*
X167175986Y-88044040D01*
X167185735Y-88057458D01*
X167193981Y-88070913D01*
X167205108Y-88092751D01*
X167488380Y-88376023D01*
X167516606Y-88431421D01*
X167506880Y-88492829D01*
X167488380Y-88518293D01*
X166933188Y-89073485D01*
X166923047Y-89081588D01*
X166923062Y-89081606D01*
X166917604Y-89086251D01*
X166911542Y-89090076D01*
X166886232Y-89118734D01*
X166875393Y-89131007D01*
X166871125Y-89135548D01*
X166859118Y-89147555D01*
X166852226Y-89156751D01*
X166847144Y-89162992D01*
X166815122Y-89199251D01*
X166812075Y-89205742D01*
X166810695Y-89208680D01*
X166800136Y-89226254D01*
X166793884Y-89234595D01*
X166791368Y-89241305D01*
X166791368Y-89241306D01*
X166776902Y-89279894D01*
X166773774Y-89287318D01*
X166753219Y-89331100D01*
X166751688Y-89340935D01*
X166751617Y-89341390D01*
X166746415Y-89361217D01*
X166745272Y-89364268D01*
X166745271Y-89364272D01*
X166742755Y-89370984D01*
X166742004Y-89381095D01*
X166739172Y-89419205D01*
X166738251Y-89427230D01*
X166736963Y-89435500D01*
X166736000Y-89441686D01*
X166736000Y-89458160D01*
X166735723Y-89465614D01*
X166731961Y-89516241D01*
X166733457Y-89523249D01*
X166733457Y-89523251D01*
X166733783Y-89524780D01*
X166736000Y-89545782D01*
X166736000Y-93448502D01*
X166716787Y-93507633D01*
X166666487Y-93544178D01*
X166604313Y-93544178D01*
X166564265Y-93519637D01*
X165441250Y-92396622D01*
X164317753Y-91273126D01*
X164289527Y-91217728D01*
X164299252Y-91156320D01*
X164312632Y-91130060D01*
X164316227Y-91123005D01*
X164331200Y-91028470D01*
X164773800Y-91028470D01*
X164774420Y-91032383D01*
X164787534Y-91115180D01*
X164788773Y-91123005D01*
X164846829Y-91236947D01*
X164937253Y-91327371D01*
X165051195Y-91385427D01*
X165059014Y-91386665D01*
X165059016Y-91386666D01*
X165102759Y-91393594D01*
X165145730Y-91400400D01*
X165609270Y-91400400D01*
X165652241Y-91393594D01*
X165695984Y-91386666D01*
X165695986Y-91386665D01*
X165703805Y-91385427D01*
X165817747Y-91327371D01*
X165908171Y-91236947D01*
X165966227Y-91123005D01*
X165967467Y-91115180D01*
X165980580Y-91032383D01*
X165981200Y-91028470D01*
X165981200Y-90741738D01*
X165982592Y-90728924D01*
X165982745Y-90728516D01*
X165983252Y-90721700D01*
X165986328Y-90680295D01*
X165987249Y-90672270D01*
X165988902Y-90661655D01*
X165988902Y-90661653D01*
X165989500Y-90657814D01*
X165989500Y-90641340D01*
X165989777Y-90633885D01*
X165993008Y-90590408D01*
X165993008Y-90590406D01*
X165993539Y-90583259D01*
X165991717Y-90574723D01*
X165989500Y-90553722D01*
X165989500Y-89150105D01*
X166008713Y-89090974D01*
X166018965Y-89078970D01*
X166071280Y-89026655D01*
X166132032Y-88907422D01*
X166147700Y-88808498D01*
X166147700Y-88229502D01*
X166135773Y-88154198D01*
X166133271Y-88138399D01*
X166133270Y-88138395D01*
X166132032Y-88130578D01*
X166071280Y-88011345D01*
X165976655Y-87916720D01*
X165857422Y-87855968D01*
X165849603Y-87854730D01*
X165849601Y-87854729D01*
X165803112Y-87847366D01*
X165758498Y-87840300D01*
X165254502Y-87840300D01*
X165209888Y-87847366D01*
X165163399Y-87854729D01*
X165163397Y-87854730D01*
X165155578Y-87855968D01*
X165036345Y-87916720D01*
X164941720Y-88011345D01*
X164880968Y-88130578D01*
X164879730Y-88138395D01*
X164879729Y-88138399D01*
X164877227Y-88154198D01*
X164865300Y-88229502D01*
X164865300Y-88808498D01*
X164880968Y-88907422D01*
X164941720Y-89026655D01*
X164947319Y-89032254D01*
X164951973Y-89038660D01*
X164949425Y-89040511D01*
X164971261Y-89083368D01*
X164972500Y-89099105D01*
X164972500Y-90040693D01*
X164953287Y-90099824D01*
X164937168Y-90115944D01*
X164937253Y-90116029D01*
X164846829Y-90206453D01*
X164788773Y-90320395D01*
X164773800Y-90414930D01*
X164773800Y-91028470D01*
X164331200Y-91028470D01*
X164331200Y-90767857D01*
X164332061Y-90754726D01*
X164335548Y-90728240D01*
X164336409Y-90721700D01*
X164332061Y-90688674D01*
X164331200Y-90675543D01*
X164331200Y-90414930D01*
X164316227Y-90320395D01*
X164258171Y-90206453D01*
X164167747Y-90116029D01*
X164053805Y-90057973D01*
X164045986Y-90056735D01*
X164045984Y-90056734D01*
X163990554Y-90047955D01*
X163959270Y-90043000D01*
X163495730Y-90043000D01*
X163464446Y-90047955D01*
X163447537Y-90050633D01*
X163386129Y-90040907D01*
X163342165Y-89996943D01*
X163331200Y-89951272D01*
X163331200Y-89880097D01*
X163350413Y-89820966D01*
X163360665Y-89808962D01*
X163942462Y-89227165D01*
X163997860Y-89198939D01*
X164013597Y-89197700D01*
X164183498Y-89197700D01*
X164233547Y-89189773D01*
X164274601Y-89183271D01*
X164274603Y-89183270D01*
X164282422Y-89182032D01*
X164401655Y-89121280D01*
X164496280Y-89026655D01*
X164557032Y-88907422D01*
X164572700Y-88808498D01*
X164572700Y-88229502D01*
X164560773Y-88154198D01*
X164558271Y-88138399D01*
X164558270Y-88138395D01*
X164557032Y-88130578D01*
X164496280Y-88011345D01*
X164401655Y-87916720D01*
X164282422Y-87855968D01*
X164274603Y-87854730D01*
X164274601Y-87854729D01*
X164228112Y-87847366D01*
X164183498Y-87840300D01*
X163869914Y-87840300D01*
X163810783Y-87821087D01*
X163798779Y-87810835D01*
X161624765Y-85636822D01*
X161596539Y-85581424D01*
X161595300Y-85565687D01*
X161595300Y-84466576D01*
X162907934Y-84466576D01*
X162914407Y-84473579D01*
X163040487Y-84550840D01*
X163047499Y-84554413D01*
X163258793Y-84641935D01*
X163266299Y-84644373D01*
X163488672Y-84697760D01*
X163496464Y-84698994D01*
X163724461Y-84716938D01*
X163732339Y-84716938D01*
X163960336Y-84698994D01*
X163968128Y-84697760D01*
X164190501Y-84644373D01*
X164198007Y-84641935D01*
X164409301Y-84554413D01*
X164416313Y-84550840D01*
X164540672Y-84474634D01*
X164549078Y-84464792D01*
X164544417Y-84456469D01*
X163739668Y-83651720D01*
X163727589Y-83645565D01*
X163722477Y-83646375D01*
X162913811Y-84455041D01*
X162907934Y-84466576D01*
X161595300Y-84466576D01*
X161595300Y-83213339D01*
X162220862Y-83213339D01*
X162238806Y-83441336D01*
X162240040Y-83449128D01*
X162293427Y-83671501D01*
X162295865Y-83679007D01*
X162383387Y-83890301D01*
X162386960Y-83897313D01*
X162463166Y-84021672D01*
X162473008Y-84030078D01*
X162481331Y-84025417D01*
X163286080Y-83220668D01*
X163291408Y-83210211D01*
X164164565Y-83210211D01*
X164165375Y-83215323D01*
X164974041Y-84023989D01*
X164985576Y-84029866D01*
X164992579Y-84023393D01*
X165069840Y-83897313D01*
X165073413Y-83890301D01*
X165160935Y-83679007D01*
X165163373Y-83671501D01*
X165216760Y-83449128D01*
X165217994Y-83441336D01*
X165235938Y-83213339D01*
X165235938Y-83205461D01*
X165217994Y-82977464D01*
X165216760Y-82969672D01*
X165163373Y-82747299D01*
X165160935Y-82739793D01*
X165073413Y-82528499D01*
X165069840Y-82521487D01*
X164993634Y-82397128D01*
X164983792Y-82388722D01*
X164975469Y-82393383D01*
X164170720Y-83198132D01*
X164164565Y-83210211D01*
X163291408Y-83210211D01*
X163292235Y-83208589D01*
X163291425Y-83203477D01*
X162482759Y-82394811D01*
X162471224Y-82388934D01*
X162464221Y-82395407D01*
X162386960Y-82521487D01*
X162383387Y-82528499D01*
X162295865Y-82739793D01*
X162293427Y-82747299D01*
X162240040Y-82969672D01*
X162238806Y-82977464D01*
X162220862Y-83205461D01*
X162220862Y-83213339D01*
X161595300Y-83213339D01*
X161595300Y-81954008D01*
X162907722Y-81954008D01*
X162912383Y-81962331D01*
X163717132Y-82767080D01*
X163729211Y-82773235D01*
X163734323Y-82772425D01*
X164542989Y-81963759D01*
X164548866Y-81952224D01*
X164542393Y-81945221D01*
X164416313Y-81867960D01*
X164409301Y-81864387D01*
X164198007Y-81776865D01*
X164190501Y-81774427D01*
X163968128Y-81721040D01*
X163960336Y-81719806D01*
X163732339Y-81701862D01*
X163724461Y-81701862D01*
X163496464Y-81719806D01*
X163488672Y-81721040D01*
X163266299Y-81774427D01*
X163258793Y-81776865D01*
X163047499Y-81864387D01*
X163040487Y-81867960D01*
X162916128Y-81944166D01*
X162907722Y-81954008D01*
X161595300Y-81954008D01*
X161595300Y-80324264D01*
X161614513Y-80265133D01*
X161650542Y-80234470D01*
X161701891Y-80208532D01*
X161849273Y-80093385D01*
X161870932Y-80068293D01*
X161968267Y-79955529D01*
X161968268Y-79955527D01*
X161971482Y-79951804D01*
X162063864Y-79789182D01*
X162122900Y-79611713D01*
X162146341Y-79426158D01*
X162146715Y-79399400D01*
X162128464Y-79213262D01*
X162127042Y-79208552D01*
X162127041Y-79208547D01*
X162075830Y-79038930D01*
X162075828Y-79038926D01*
X162074406Y-79034215D01*
X161986601Y-78869077D01*
X161868392Y-78724138D01*
X161861561Y-78718487D01*
X161728071Y-78608054D01*
X161728066Y-78608051D01*
X161724283Y-78604921D01*
X161559762Y-78515965D01*
X161555064Y-78514511D01*
X161555060Y-78514509D01*
X161385793Y-78462112D01*
X161381096Y-78460658D01*
X161195090Y-78441108D01*
X161190189Y-78441554D01*
X161190186Y-78441554D01*
X161013729Y-78457613D01*
X161013727Y-78457613D01*
X161008830Y-78458059D01*
X160829409Y-78510866D01*
X160663662Y-78597516D01*
X160517902Y-78714710D01*
X160514736Y-78718483D01*
X160514732Y-78718487D01*
X160400846Y-78854212D01*
X160397681Y-78857984D01*
X160395312Y-78862292D01*
X160395310Y-78862296D01*
X160389194Y-78873422D01*
X160307579Y-79021880D01*
X160251026Y-79200155D01*
X160250478Y-79205042D01*
X160250477Y-79205046D01*
X160249006Y-79218161D01*
X160230178Y-79386020D01*
X160245829Y-79572394D01*
X160271773Y-79662872D01*
X160285391Y-79710363D01*
X160297381Y-79752179D01*
X160382872Y-79918527D01*
X160499046Y-80065102D01*
X160641477Y-80186320D01*
X160691581Y-80214322D01*
X160729979Y-80235782D01*
X160772222Y-80281401D01*
X160781500Y-80323598D01*
X160781500Y-81206132D01*
X160762287Y-81265263D01*
X160711987Y-81301808D01*
X160649813Y-81301808D01*
X160605170Y-81271242D01*
X160604969Y-81271442D01*
X160603921Y-81270387D01*
X160602943Y-81269717D01*
X160601504Y-81267953D01*
X160601499Y-81267948D01*
X160598392Y-81264138D01*
X160591561Y-81258487D01*
X160458071Y-81148054D01*
X160458066Y-81148051D01*
X160454283Y-81144921D01*
X160289762Y-81055965D01*
X160285064Y-81054511D01*
X160285060Y-81054509D01*
X160115793Y-81002112D01*
X160111096Y-81000658D01*
X159925090Y-80981108D01*
X159920189Y-80981554D01*
X159920186Y-80981554D01*
X159743729Y-80997613D01*
X159743727Y-80997613D01*
X159738830Y-80998059D01*
X159559409Y-81050866D01*
X159393662Y-81137516D01*
X159247902Y-81254710D01*
X159244733Y-81258487D01*
X159244731Y-81258489D01*
X159232963Y-81272513D01*
X159180236Y-81305460D01*
X159118214Y-81301122D01*
X159070586Y-81261157D01*
X159055300Y-81207848D01*
X159055300Y-80324264D01*
X159074513Y-80265133D01*
X159110542Y-80234470D01*
X159161891Y-80208532D01*
X159309273Y-80093385D01*
X159330932Y-80068293D01*
X159428267Y-79955529D01*
X159428268Y-79955527D01*
X159431482Y-79951804D01*
X159523864Y-79789182D01*
X159582900Y-79611713D01*
X159606341Y-79426158D01*
X159606715Y-79399400D01*
X159588464Y-79213262D01*
X159587042Y-79208552D01*
X159587041Y-79208547D01*
X159535830Y-79038930D01*
X159535828Y-79038926D01*
X159534406Y-79034215D01*
X159446601Y-78869077D01*
X159328392Y-78724138D01*
X159321561Y-78718487D01*
X159188071Y-78608054D01*
X159188066Y-78608051D01*
X159184283Y-78604921D01*
X159019762Y-78515965D01*
X159015064Y-78514511D01*
X159015060Y-78514509D01*
X158845793Y-78462112D01*
X158841096Y-78460658D01*
X158655090Y-78441108D01*
X158650189Y-78441554D01*
X158650186Y-78441554D01*
X158473729Y-78457613D01*
X158473727Y-78457613D01*
X158468830Y-78458059D01*
X158289409Y-78510866D01*
X158123662Y-78597516D01*
X157977902Y-78714710D01*
X157974736Y-78718483D01*
X157974732Y-78718487D01*
X157860846Y-78854212D01*
X157857681Y-78857984D01*
X157855312Y-78862292D01*
X157855310Y-78862296D01*
X157849194Y-78873422D01*
X157767579Y-79021880D01*
X157711026Y-79200155D01*
X157710478Y-79205042D01*
X157710477Y-79205046D01*
X157709006Y-79218161D01*
X157690178Y-79386020D01*
X157705829Y-79572394D01*
X157731773Y-79662872D01*
X157745391Y-79710363D01*
X157757381Y-79752179D01*
X157842872Y-79918527D01*
X157959046Y-80065102D01*
X158101477Y-80186320D01*
X158151581Y-80214322D01*
X158189979Y-80235782D01*
X158232222Y-80281401D01*
X158241500Y-80323598D01*
X158241500Y-81206132D01*
X158222287Y-81265263D01*
X158171987Y-81301808D01*
X158109813Y-81301808D01*
X158065170Y-81271242D01*
X158064969Y-81271442D01*
X158063921Y-81270387D01*
X158062943Y-81269717D01*
X158061504Y-81267953D01*
X158061499Y-81267948D01*
X158058392Y-81264138D01*
X158051561Y-81258487D01*
X157918071Y-81148054D01*
X157918066Y-81148051D01*
X157914283Y-81144921D01*
X157749762Y-81055965D01*
X157745064Y-81054511D01*
X157745060Y-81054509D01*
X157575793Y-81002112D01*
X157571096Y-81000658D01*
X157385090Y-80981108D01*
X157380189Y-80981554D01*
X157380186Y-80981554D01*
X157203729Y-80997613D01*
X157203727Y-80997613D01*
X157198830Y-80998059D01*
X157019409Y-81050866D01*
X156853662Y-81137516D01*
X156707902Y-81254710D01*
X156704733Y-81258487D01*
X156704731Y-81258489D01*
X156692963Y-81272513D01*
X156640236Y-81305460D01*
X156578214Y-81301122D01*
X156530586Y-81261157D01*
X156515300Y-81207848D01*
X156515300Y-80324264D01*
X156534513Y-80265133D01*
X156570542Y-80234470D01*
X156621891Y-80208532D01*
X156769273Y-80093385D01*
X156790932Y-80068293D01*
X156888267Y-79955529D01*
X156888268Y-79955527D01*
X156891482Y-79951804D01*
X156983864Y-79789182D01*
X157042900Y-79611713D01*
X157066341Y-79426158D01*
X157066715Y-79399400D01*
X157048464Y-79213262D01*
X157047042Y-79208552D01*
X157047041Y-79208547D01*
X156995830Y-79038930D01*
X156995828Y-79038926D01*
X156994406Y-79034215D01*
X156906601Y-78869077D01*
X156788392Y-78724138D01*
X156781561Y-78718487D01*
X156648071Y-78608054D01*
X156648066Y-78608051D01*
X156644283Y-78604921D01*
X156479762Y-78515965D01*
X156475064Y-78514511D01*
X156475060Y-78514509D01*
X156305793Y-78462112D01*
X156301096Y-78460658D01*
X156115090Y-78441108D01*
X156110189Y-78441554D01*
X156110186Y-78441554D01*
X155933729Y-78457613D01*
X155933727Y-78457613D01*
X155928830Y-78458059D01*
X155749409Y-78510866D01*
X155583662Y-78597516D01*
X155437902Y-78714710D01*
X155434736Y-78718483D01*
X155434732Y-78718487D01*
X155320846Y-78854212D01*
X155317681Y-78857984D01*
X155315312Y-78862292D01*
X155315310Y-78862296D01*
X155309194Y-78873422D01*
X155227579Y-79021880D01*
X155171026Y-79200155D01*
X155170478Y-79205042D01*
X155170477Y-79205046D01*
X155169006Y-79218161D01*
X155150178Y-79386020D01*
X155165829Y-79572394D01*
X155191773Y-79662872D01*
X155205391Y-79710363D01*
X155217381Y-79752179D01*
X155302872Y-79918527D01*
X155419046Y-80065102D01*
X155561477Y-80186320D01*
X155611581Y-80214322D01*
X155649979Y-80235782D01*
X155692222Y-80281401D01*
X155701500Y-80323598D01*
X155701500Y-81206132D01*
X155682287Y-81265263D01*
X155631987Y-81301808D01*
X155569813Y-81301808D01*
X155525170Y-81271242D01*
X155524969Y-81271442D01*
X155523921Y-81270387D01*
X155522943Y-81269717D01*
X155521504Y-81267953D01*
X155521499Y-81267948D01*
X155518392Y-81264138D01*
X155511561Y-81258487D01*
X155378071Y-81148054D01*
X155378066Y-81148051D01*
X155374283Y-81144921D01*
X155209762Y-81055965D01*
X155205064Y-81054511D01*
X155205060Y-81054509D01*
X155035793Y-81002112D01*
X155031096Y-81000658D01*
X154845090Y-80981108D01*
X154840189Y-80981554D01*
X154840186Y-80981554D01*
X154663729Y-80997613D01*
X154663727Y-80997613D01*
X154658830Y-80998059D01*
X154479409Y-81050866D01*
X154313662Y-81137516D01*
X154167902Y-81254710D01*
X154164733Y-81258487D01*
X154164731Y-81258489D01*
X154152963Y-81272513D01*
X154100236Y-81305460D01*
X154038214Y-81301122D01*
X153990586Y-81261157D01*
X153975300Y-81207848D01*
X153975300Y-80324264D01*
X153994513Y-80265133D01*
X154030542Y-80234470D01*
X154081891Y-80208532D01*
X154229273Y-80093385D01*
X154250932Y-80068293D01*
X154348267Y-79955529D01*
X154348268Y-79955527D01*
X154351482Y-79951804D01*
X154443864Y-79789182D01*
X154502900Y-79611713D01*
X154526341Y-79426158D01*
X154526715Y-79399400D01*
X154508464Y-79213262D01*
X154507042Y-79208552D01*
X154507041Y-79208547D01*
X154455830Y-79038930D01*
X154455828Y-79038926D01*
X154454406Y-79034215D01*
X154366601Y-78869077D01*
X154248392Y-78724138D01*
X154241561Y-78718487D01*
X154108071Y-78608054D01*
X154108066Y-78608051D01*
X154104283Y-78604921D01*
X153939762Y-78515965D01*
X153935064Y-78514511D01*
X153935060Y-78514509D01*
X153765793Y-78462112D01*
X153761096Y-78460658D01*
X153575090Y-78441108D01*
X153570189Y-78441554D01*
X153570186Y-78441554D01*
X153393729Y-78457613D01*
X153393727Y-78457613D01*
X153388830Y-78458059D01*
X153209409Y-78510866D01*
X153043662Y-78597516D01*
X152897902Y-78714710D01*
X152894736Y-78718483D01*
X152894732Y-78718487D01*
X152780846Y-78854212D01*
X152777681Y-78857984D01*
X152775312Y-78862292D01*
X152775310Y-78862296D01*
X152769194Y-78873422D01*
X152687579Y-79021880D01*
X152631026Y-79200155D01*
X152630478Y-79205042D01*
X152630477Y-79205046D01*
X152629006Y-79218161D01*
X152610178Y-79386020D01*
X152625829Y-79572394D01*
X152651773Y-79662872D01*
X152665391Y-79710363D01*
X152677381Y-79752179D01*
X152762872Y-79918527D01*
X152879046Y-80065102D01*
X153021477Y-80186320D01*
X153071581Y-80214322D01*
X153109979Y-80235782D01*
X153152222Y-80281401D01*
X153161500Y-80323598D01*
X153161500Y-81206132D01*
X153142287Y-81265263D01*
X153091987Y-81301808D01*
X153029813Y-81301808D01*
X152985170Y-81271242D01*
X152984969Y-81271442D01*
X152983921Y-81270387D01*
X152982943Y-81269717D01*
X152981504Y-81267953D01*
X152981499Y-81267948D01*
X152978392Y-81264138D01*
X152971561Y-81258487D01*
X152838071Y-81148054D01*
X152838066Y-81148051D01*
X152834283Y-81144921D01*
X152669762Y-81055965D01*
X152665064Y-81054511D01*
X152665060Y-81054509D01*
X152495793Y-81002112D01*
X152491096Y-81000658D01*
X152305090Y-80981108D01*
X152300189Y-80981554D01*
X152300186Y-80981554D01*
X152123729Y-80997613D01*
X152123727Y-80997613D01*
X152118830Y-80998059D01*
X151939409Y-81050866D01*
X151773662Y-81137516D01*
X151627902Y-81254710D01*
X151624736Y-81258483D01*
X151624732Y-81258487D01*
X151512592Y-81392131D01*
X151507681Y-81397984D01*
X151505312Y-81402292D01*
X151505310Y-81402296D01*
X151492785Y-81425079D01*
X151417579Y-81561880D01*
X151361026Y-81740155D01*
X151360478Y-81745042D01*
X151360477Y-81745046D01*
X151350754Y-81831729D01*
X151340178Y-81926020D01*
X151355829Y-82112394D01*
X151407381Y-82292179D01*
X151492872Y-82458527D01*
X151609046Y-82605102D01*
X151751477Y-82726320D01*
X151914740Y-82817564D01*
X151919421Y-82819085D01*
X152087937Y-82873840D01*
X152087940Y-82873841D01*
X152092616Y-82875360D01*
X152097498Y-82875942D01*
X152097502Y-82875943D01*
X152273441Y-82896922D01*
X152273442Y-82896922D01*
X152278331Y-82897505D01*
X152417002Y-82886835D01*
X152459898Y-82883534D01*
X152464810Y-82883156D01*
X152469550Y-82881832D01*
X152469553Y-82881832D01*
X152640208Y-82834184D01*
X152644950Y-82832860D01*
X152811891Y-82748532D01*
X152959273Y-82633385D01*
X152984746Y-82603874D01*
X153037927Y-82571666D01*
X153099884Y-82576868D01*
X153146949Y-82617494D01*
X153161500Y-82669608D01*
X153161500Y-85717887D01*
X153142287Y-85777018D01*
X153132035Y-85789022D01*
X151110222Y-87810835D01*
X151054824Y-87839061D01*
X151039087Y-87840300D01*
X150725502Y-87840300D01*
X150680888Y-87847366D01*
X150634399Y-87854729D01*
X150634397Y-87854730D01*
X150626578Y-87855968D01*
X150507345Y-87916720D01*
X150412720Y-88011345D01*
X150351968Y-88130578D01*
X150350730Y-88138395D01*
X150350729Y-88138399D01*
X150348227Y-88154198D01*
X150336300Y-88229502D01*
X150336300Y-88399403D01*
X150317087Y-88458534D01*
X150306835Y-88470538D01*
X149650288Y-89127085D01*
X149640147Y-89135188D01*
X149640162Y-89135206D01*
X149634704Y-89139851D01*
X149628642Y-89143676D01*
X149604825Y-89170644D01*
X149592493Y-89184607D01*
X149588225Y-89189148D01*
X149576218Y-89201155D01*
X149569326Y-89210351D01*
X149564244Y-89216592D01*
X149532222Y-89252851D01*
X149529175Y-89259342D01*
X149527795Y-89262280D01*
X149517236Y-89279854D01*
X149510984Y-89288195D01*
X149508468Y-89294905D01*
X149508468Y-89294906D01*
X149494002Y-89333494D01*
X149490874Y-89340918D01*
X149470319Y-89384700D01*
X149468717Y-89394990D01*
X149463515Y-89414817D01*
X149462372Y-89417868D01*
X149462371Y-89417872D01*
X149459855Y-89424584D01*
X149458611Y-89441330D01*
X149456272Y-89472805D01*
X149455351Y-89480830D01*
X149453100Y-89495286D01*
X149453100Y-89511760D01*
X149452823Y-89519214D01*
X149449061Y-89569841D01*
X149450557Y-89576849D01*
X149450557Y-89576851D01*
X149450883Y-89578380D01*
X149453100Y-89599382D01*
X149453100Y-93578064D01*
X149433887Y-93637195D01*
X149383587Y-93673740D01*
X149321413Y-93673740D01*
X149276287Y-93643729D01*
X149269514Y-93635868D01*
X149264498Y-93629551D01*
X149255875Y-93617748D01*
X149244229Y-93606102D01*
X149239153Y-93600634D01*
X149210691Y-93567602D01*
X149210689Y-93567600D01*
X149206013Y-93562173D01*
X149198684Y-93557422D01*
X149182268Y-93544141D01*
X146906284Y-91268157D01*
X146878058Y-91212759D01*
X146887784Y-91151351D01*
X146890400Y-91146217D01*
X146902227Y-91123005D01*
X146903467Y-91115180D01*
X146916580Y-91032383D01*
X146917200Y-91028470D01*
X146917200Y-90767857D01*
X146918061Y-90754726D01*
X146921548Y-90728240D01*
X146922409Y-90721700D01*
X146918061Y-90688674D01*
X146917200Y-90675543D01*
X146917200Y-90414930D01*
X146902227Y-90320395D01*
X146844171Y-90206453D01*
X146753747Y-90116029D01*
X146639805Y-90057973D01*
X146631986Y-90056735D01*
X146631984Y-90056734D01*
X146576554Y-90047955D01*
X146545270Y-90043000D01*
X146081730Y-90043000D01*
X146003737Y-90055353D01*
X145942329Y-90045627D01*
X145898365Y-90001664D01*
X145887400Y-89955992D01*
X145887400Y-89763397D01*
X145906613Y-89704266D01*
X145916865Y-89692262D01*
X146381962Y-89227165D01*
X146437360Y-89198939D01*
X146453097Y-89197700D01*
X146622998Y-89197700D01*
X146673047Y-89189773D01*
X146714101Y-89183271D01*
X146714103Y-89183270D01*
X146721922Y-89182032D01*
X146841155Y-89121280D01*
X146935780Y-89026655D01*
X146996532Y-88907422D01*
X147012200Y-88808498D01*
X147012200Y-88494913D01*
X147031413Y-88435782D01*
X147041665Y-88423778D01*
X147133065Y-88332378D01*
X147188463Y-88304152D01*
X147249871Y-88313878D01*
X147293835Y-88357842D01*
X147304800Y-88403513D01*
X147304800Y-88808498D01*
X147320468Y-88907422D01*
X147381220Y-89026655D01*
X147408035Y-89053470D01*
X147436261Y-89108868D01*
X147437500Y-89124605D01*
X147437500Y-90173135D01*
X147426535Y-90218806D01*
X147374773Y-90320395D01*
X147359800Y-90414930D01*
X147359800Y-91028470D01*
X147360420Y-91032383D01*
X147373534Y-91115180D01*
X147374773Y-91123005D01*
X147432829Y-91236947D01*
X147523253Y-91327371D01*
X147637195Y-91385427D01*
X147645014Y-91386665D01*
X147645016Y-91386666D01*
X147688759Y-91393594D01*
X147731730Y-91400400D01*
X148195270Y-91400400D01*
X148238241Y-91393594D01*
X148281984Y-91386666D01*
X148281986Y-91386665D01*
X148289805Y-91385427D01*
X148403747Y-91327371D01*
X148494171Y-91236947D01*
X148552227Y-91123005D01*
X148553467Y-91115180D01*
X148566580Y-91032383D01*
X148567200Y-91028470D01*
X148567200Y-90414930D01*
X148552227Y-90320395D01*
X148494171Y-90206453D01*
X148483965Y-90196247D01*
X148455739Y-90140849D01*
X148454500Y-90125112D01*
X148454500Y-89124605D01*
X148473713Y-89065474D01*
X148483965Y-89053470D01*
X148510780Y-89026655D01*
X148571532Y-88907422D01*
X148587200Y-88808498D01*
X148587200Y-88229502D01*
X148575273Y-88154198D01*
X148572771Y-88138399D01*
X148572770Y-88138395D01*
X148571532Y-88130578D01*
X148510780Y-88011345D01*
X148416155Y-87916720D01*
X148296922Y-87855968D01*
X148289103Y-87854730D01*
X148289101Y-87854729D01*
X148242612Y-87847366D01*
X148197998Y-87840300D01*
X147725321Y-87840300D01*
X147666190Y-87821087D01*
X147629645Y-87770787D01*
X147626912Y-87736046D01*
X147625300Y-87736046D01*
X147625300Y-84466576D01*
X148937934Y-84466576D01*
X148944407Y-84473579D01*
X149070487Y-84550840D01*
X149077499Y-84554413D01*
X149288793Y-84641935D01*
X149296299Y-84644373D01*
X149518672Y-84697760D01*
X149526464Y-84698994D01*
X149754461Y-84716938D01*
X149762339Y-84716938D01*
X149990336Y-84698994D01*
X149998128Y-84697760D01*
X150220501Y-84644373D01*
X150228007Y-84641935D01*
X150439301Y-84554413D01*
X150446313Y-84550840D01*
X150570672Y-84474634D01*
X150579078Y-84464792D01*
X150574417Y-84456469D01*
X149769668Y-83651720D01*
X149757589Y-83645565D01*
X149752477Y-83646375D01*
X148943811Y-84455041D01*
X148937934Y-84466576D01*
X147625300Y-84466576D01*
X147625300Y-83213339D01*
X148250862Y-83213339D01*
X148268806Y-83441336D01*
X148270040Y-83449128D01*
X148323427Y-83671501D01*
X148325865Y-83679007D01*
X148413387Y-83890301D01*
X148416960Y-83897313D01*
X148493166Y-84021672D01*
X148503008Y-84030078D01*
X148511331Y-84025417D01*
X149316080Y-83220668D01*
X149321408Y-83210211D01*
X150194565Y-83210211D01*
X150195375Y-83215323D01*
X151004041Y-84023989D01*
X151015576Y-84029866D01*
X151022579Y-84023393D01*
X151099840Y-83897313D01*
X151103413Y-83890301D01*
X151190935Y-83679007D01*
X151193373Y-83671501D01*
X151246760Y-83449128D01*
X151247994Y-83441336D01*
X151265938Y-83213339D01*
X151265938Y-83205461D01*
X151247994Y-82977464D01*
X151246760Y-82969672D01*
X151193373Y-82747299D01*
X151190935Y-82739793D01*
X151103413Y-82528499D01*
X151099840Y-82521487D01*
X151023634Y-82397128D01*
X151013792Y-82388722D01*
X151005469Y-82393383D01*
X150200720Y-83198132D01*
X150194565Y-83210211D01*
X149321408Y-83210211D01*
X149322235Y-83208589D01*
X149321425Y-83203477D01*
X148512759Y-82394811D01*
X148501224Y-82388934D01*
X148494221Y-82395407D01*
X148416960Y-82521487D01*
X148413387Y-82528499D01*
X148325865Y-82739793D01*
X148323427Y-82747299D01*
X148270040Y-82969672D01*
X148268806Y-82977464D01*
X148250862Y-83205461D01*
X148250862Y-83213339D01*
X147625300Y-83213339D01*
X147625300Y-81954008D01*
X148937722Y-81954008D01*
X148942383Y-81962331D01*
X149747132Y-82767080D01*
X149759211Y-82773235D01*
X149764323Y-82772425D01*
X150572989Y-81963759D01*
X150578866Y-81952224D01*
X150572393Y-81945221D01*
X150446313Y-81867960D01*
X150439301Y-81864387D01*
X150228007Y-81776865D01*
X150220501Y-81774427D01*
X149998128Y-81721040D01*
X149990336Y-81719806D01*
X149762339Y-81701862D01*
X149754461Y-81701862D01*
X149526464Y-81719806D01*
X149518672Y-81721040D01*
X149296299Y-81774427D01*
X149288793Y-81776865D01*
X149077499Y-81864387D01*
X149070487Y-81867960D01*
X148946128Y-81944166D01*
X148937722Y-81954008D01*
X147625300Y-81954008D01*
X147625300Y-80324264D01*
X147644513Y-80265133D01*
X147680542Y-80234470D01*
X147731891Y-80208532D01*
X147879273Y-80093385D01*
X147900932Y-80068293D01*
X147998267Y-79955529D01*
X147998268Y-79955527D01*
X148001482Y-79951804D01*
X148093864Y-79789182D01*
X148152900Y-79611713D01*
X148176341Y-79426158D01*
X148176715Y-79399400D01*
X148158464Y-79213262D01*
X148157042Y-79208552D01*
X148157041Y-79208547D01*
X148105830Y-79038930D01*
X148105828Y-79038926D01*
X148104406Y-79034215D01*
X148016601Y-78869077D01*
X147898392Y-78724138D01*
X147891561Y-78718487D01*
X147758071Y-78608054D01*
X147758066Y-78608051D01*
X147754283Y-78604921D01*
X147589762Y-78515965D01*
X147585064Y-78514511D01*
X147585060Y-78514509D01*
X147415793Y-78462112D01*
X147411096Y-78460658D01*
X147225090Y-78441108D01*
X147220189Y-78441554D01*
X147220186Y-78441554D01*
X147043729Y-78457613D01*
X147043727Y-78457613D01*
X147038830Y-78458059D01*
X146859409Y-78510866D01*
X146693662Y-78597516D01*
X146547902Y-78714710D01*
X146544736Y-78718483D01*
X146544732Y-78718487D01*
X146430846Y-78854212D01*
X146427681Y-78857984D01*
X146425312Y-78862292D01*
X146425310Y-78862296D01*
X146419194Y-78873422D01*
X146337579Y-79021880D01*
X146281026Y-79200155D01*
X146280478Y-79205042D01*
X146280477Y-79205046D01*
X146279006Y-79218161D01*
X146260178Y-79386020D01*
X146275829Y-79572394D01*
X146301773Y-79662872D01*
X146315391Y-79710363D01*
X146327381Y-79752179D01*
X146412872Y-79918527D01*
X146529046Y-80065102D01*
X146671477Y-80186320D01*
X146721581Y-80214322D01*
X146759979Y-80235782D01*
X146802222Y-80281401D01*
X146811500Y-80323598D01*
X146811500Y-81206132D01*
X146792287Y-81265263D01*
X146741987Y-81301808D01*
X146679813Y-81301808D01*
X146635170Y-81271242D01*
X146634969Y-81271442D01*
X146633921Y-81270387D01*
X146632943Y-81269717D01*
X146631504Y-81267953D01*
X146631499Y-81267948D01*
X146628392Y-81264138D01*
X146621561Y-81258487D01*
X146488071Y-81148054D01*
X146488066Y-81148051D01*
X146484283Y-81144921D01*
X146319762Y-81055965D01*
X146315064Y-81054511D01*
X146315060Y-81054509D01*
X146145793Y-81002112D01*
X146141096Y-81000658D01*
X145955090Y-80981108D01*
X145950189Y-80981554D01*
X145950186Y-80981554D01*
X145773729Y-80997613D01*
X145773727Y-80997613D01*
X145768830Y-80998059D01*
X145589409Y-81050866D01*
X145423662Y-81137516D01*
X145277902Y-81254710D01*
X145274733Y-81258487D01*
X145274731Y-81258489D01*
X145262963Y-81272513D01*
X145210236Y-81305460D01*
X145148214Y-81301122D01*
X145100586Y-81261157D01*
X145085300Y-81207848D01*
X145085300Y-80324264D01*
X145104513Y-80265133D01*
X145140542Y-80234470D01*
X145191891Y-80208532D01*
X145339273Y-80093385D01*
X145360932Y-80068293D01*
X145458267Y-79955529D01*
X145458268Y-79955527D01*
X145461482Y-79951804D01*
X145553864Y-79789182D01*
X145612900Y-79611713D01*
X145636341Y-79426158D01*
X145636715Y-79399400D01*
X145618464Y-79213262D01*
X145617042Y-79208552D01*
X145617041Y-79208547D01*
X145565830Y-79038930D01*
X145565828Y-79038926D01*
X145564406Y-79034215D01*
X145476601Y-78869077D01*
X145358392Y-78724138D01*
X145351561Y-78718487D01*
X145218071Y-78608054D01*
X145218066Y-78608051D01*
X145214283Y-78604921D01*
X145049762Y-78515965D01*
X145045064Y-78514511D01*
X145045060Y-78514509D01*
X144875793Y-78462112D01*
X144871096Y-78460658D01*
X144685090Y-78441108D01*
X144680189Y-78441554D01*
X144680186Y-78441554D01*
X144503729Y-78457613D01*
X144503727Y-78457613D01*
X144498830Y-78458059D01*
X144319409Y-78510866D01*
X144153662Y-78597516D01*
X144007902Y-78714710D01*
X144004736Y-78718483D01*
X144004732Y-78718487D01*
X143890846Y-78854212D01*
X143887681Y-78857984D01*
X143885312Y-78862292D01*
X143885310Y-78862296D01*
X143879194Y-78873422D01*
X143797579Y-79021880D01*
X143741026Y-79200155D01*
X143740478Y-79205042D01*
X143740477Y-79205046D01*
X143739006Y-79218161D01*
X143720178Y-79386020D01*
X143735829Y-79572394D01*
X143761773Y-79662872D01*
X143775391Y-79710363D01*
X143787381Y-79752179D01*
X143872872Y-79918527D01*
X143989046Y-80065102D01*
X144131477Y-80186320D01*
X144181581Y-80214322D01*
X144219979Y-80235782D01*
X144262222Y-80281401D01*
X144271500Y-80323598D01*
X144271500Y-81206132D01*
X144252287Y-81265263D01*
X144201987Y-81301808D01*
X144139813Y-81301808D01*
X144095170Y-81271242D01*
X144094969Y-81271442D01*
X144093921Y-81270387D01*
X144092943Y-81269717D01*
X144091504Y-81267953D01*
X144091499Y-81267948D01*
X144088392Y-81264138D01*
X144081561Y-81258487D01*
X143948071Y-81148054D01*
X143948066Y-81148051D01*
X143944283Y-81144921D01*
X143779762Y-81055965D01*
X143775064Y-81054511D01*
X143775060Y-81054509D01*
X143605793Y-81002112D01*
X143601096Y-81000658D01*
X143415090Y-80981108D01*
X143410189Y-80981554D01*
X143410186Y-80981554D01*
X143233729Y-80997613D01*
X143233727Y-80997613D01*
X143228830Y-80998059D01*
X143049409Y-81050866D01*
X142883662Y-81137516D01*
X142737902Y-81254710D01*
X142734733Y-81258487D01*
X142734731Y-81258489D01*
X142722963Y-81272513D01*
X142670236Y-81305460D01*
X142608214Y-81301122D01*
X142560586Y-81261157D01*
X142545300Y-81207848D01*
X142545300Y-80324264D01*
X142564513Y-80265133D01*
X142600542Y-80234470D01*
X142651891Y-80208532D01*
X142799273Y-80093385D01*
X142820932Y-80068293D01*
X142918267Y-79955529D01*
X142918268Y-79955527D01*
X142921482Y-79951804D01*
X143013864Y-79789182D01*
X143072900Y-79611713D01*
X143096341Y-79426158D01*
X143096715Y-79399400D01*
X143078464Y-79213262D01*
X143077042Y-79208552D01*
X143077041Y-79208547D01*
X143025830Y-79038930D01*
X143025828Y-79038926D01*
X143024406Y-79034215D01*
X142936601Y-78869077D01*
X142818392Y-78724138D01*
X142811561Y-78718487D01*
X142678071Y-78608054D01*
X142678066Y-78608051D01*
X142674283Y-78604921D01*
X142509762Y-78515965D01*
X142505064Y-78514511D01*
X142505060Y-78514509D01*
X142335793Y-78462112D01*
X142331096Y-78460658D01*
X142145090Y-78441108D01*
X142140189Y-78441554D01*
X142140186Y-78441554D01*
X141963729Y-78457613D01*
X141963727Y-78457613D01*
X141958830Y-78458059D01*
X141779409Y-78510866D01*
X141613662Y-78597516D01*
X141467902Y-78714710D01*
X141464736Y-78718483D01*
X141464732Y-78718487D01*
X141350846Y-78854212D01*
X141347681Y-78857984D01*
X141345312Y-78862292D01*
X141345310Y-78862296D01*
X141339194Y-78873422D01*
X141257579Y-79021880D01*
X141201026Y-79200155D01*
X141200478Y-79205042D01*
X141200477Y-79205046D01*
X141199006Y-79218161D01*
X141180178Y-79386020D01*
X141195829Y-79572394D01*
X141221773Y-79662872D01*
X141235391Y-79710363D01*
X141247381Y-79752179D01*
X141332872Y-79918527D01*
X141449046Y-80065102D01*
X141591477Y-80186320D01*
X141641581Y-80214322D01*
X141679979Y-80235782D01*
X141722222Y-80281401D01*
X141731500Y-80323598D01*
X141731500Y-81206132D01*
X141712287Y-81265263D01*
X141661987Y-81301808D01*
X141599813Y-81301808D01*
X141555170Y-81271242D01*
X141554969Y-81271442D01*
X141553921Y-81270387D01*
X141552943Y-81269717D01*
X141551504Y-81267953D01*
X141551499Y-81267948D01*
X141548392Y-81264138D01*
X141541561Y-81258487D01*
X141408071Y-81148054D01*
X141408066Y-81148051D01*
X141404283Y-81144921D01*
X141239762Y-81055965D01*
X141235064Y-81054511D01*
X141235060Y-81054509D01*
X141065793Y-81002112D01*
X141061096Y-81000658D01*
X140875090Y-80981108D01*
X140870189Y-80981554D01*
X140870186Y-80981554D01*
X140693729Y-80997613D01*
X140693727Y-80997613D01*
X140688830Y-80998059D01*
X140509409Y-81050866D01*
X140343662Y-81137516D01*
X140197902Y-81254710D01*
X140194733Y-81258487D01*
X140194731Y-81258489D01*
X140182963Y-81272513D01*
X140130236Y-81305460D01*
X140068214Y-81301122D01*
X140020586Y-81261157D01*
X140005300Y-81207848D01*
X140005300Y-80324264D01*
X140024513Y-80265133D01*
X140060542Y-80234470D01*
X140111891Y-80208532D01*
X140259273Y-80093385D01*
X140280932Y-80068293D01*
X140378267Y-79955529D01*
X140378268Y-79955527D01*
X140381482Y-79951804D01*
X140473864Y-79789182D01*
X140532900Y-79611713D01*
X140556341Y-79426158D01*
X140556715Y-79399400D01*
X140538464Y-79213262D01*
X140537042Y-79208552D01*
X140537041Y-79208547D01*
X140485830Y-79038930D01*
X140485828Y-79038926D01*
X140484406Y-79034215D01*
X140396601Y-78869077D01*
X140278392Y-78724138D01*
X140271561Y-78718487D01*
X140138071Y-78608054D01*
X140138066Y-78608051D01*
X140134283Y-78604921D01*
X139969762Y-78515965D01*
X139965064Y-78514511D01*
X139965060Y-78514509D01*
X139795793Y-78462112D01*
X139791096Y-78460658D01*
X139605090Y-78441108D01*
X139600189Y-78441554D01*
X139600186Y-78441554D01*
X139423729Y-78457613D01*
X139423727Y-78457613D01*
X139418830Y-78458059D01*
X139239409Y-78510866D01*
X139073662Y-78597516D01*
X138927902Y-78714710D01*
X138924736Y-78718483D01*
X138924732Y-78718487D01*
X138810846Y-78854212D01*
X138807681Y-78857984D01*
X138805312Y-78862292D01*
X138805310Y-78862296D01*
X138799194Y-78873422D01*
X138717579Y-79021880D01*
X138661026Y-79200155D01*
X138660478Y-79205042D01*
X138660477Y-79205046D01*
X138659006Y-79218161D01*
X138640178Y-79386020D01*
X138655829Y-79572394D01*
X138681773Y-79662872D01*
X138695391Y-79710363D01*
X138707381Y-79752179D01*
X138792872Y-79918527D01*
X138909046Y-80065102D01*
X139051477Y-80186320D01*
X139101581Y-80214322D01*
X139139979Y-80235782D01*
X139182222Y-80281401D01*
X139191500Y-80323598D01*
X139191500Y-81206132D01*
X139172287Y-81265263D01*
X139121987Y-81301808D01*
X139059813Y-81301808D01*
X139015170Y-81271242D01*
X139014969Y-81271442D01*
X139013921Y-81270387D01*
X139012943Y-81269717D01*
X139011504Y-81267953D01*
X139011499Y-81267948D01*
X139008392Y-81264138D01*
X139001561Y-81258487D01*
X138868071Y-81148054D01*
X138868066Y-81148051D01*
X138864283Y-81144921D01*
X138699762Y-81055965D01*
X138695064Y-81054511D01*
X138695060Y-81054509D01*
X138525793Y-81002112D01*
X138521096Y-81000658D01*
X138335090Y-80981108D01*
X138330189Y-80981554D01*
X138330186Y-80981554D01*
X138153729Y-80997613D01*
X138153727Y-80997613D01*
X138148830Y-80998059D01*
X137969409Y-81050866D01*
X137803662Y-81137516D01*
X137657902Y-81254710D01*
X137654736Y-81258483D01*
X137654732Y-81258487D01*
X137542592Y-81392131D01*
X137537681Y-81397984D01*
X137535312Y-81402292D01*
X137535310Y-81402296D01*
X137522785Y-81425079D01*
X137447579Y-81561880D01*
X137391026Y-81740155D01*
X137390478Y-81745042D01*
X137390477Y-81745046D01*
X137380754Y-81831729D01*
X137370178Y-81926020D01*
X137385829Y-82112394D01*
X137437381Y-82292179D01*
X137522872Y-82458527D01*
X137639046Y-82605102D01*
X137781477Y-82726320D01*
X137944740Y-82817564D01*
X137949421Y-82819085D01*
X138117937Y-82873840D01*
X138117940Y-82873841D01*
X138122616Y-82875360D01*
X138127498Y-82875942D01*
X138127502Y-82875943D01*
X138303441Y-82896922D01*
X138303442Y-82896922D01*
X138308331Y-82897505D01*
X138447002Y-82886835D01*
X138489898Y-82883534D01*
X138494810Y-82883156D01*
X138499550Y-82881832D01*
X138499553Y-82881832D01*
X138670208Y-82834184D01*
X138674950Y-82832860D01*
X138841891Y-82748532D01*
X138989273Y-82633385D01*
X139014746Y-82603874D01*
X139067927Y-82571666D01*
X139129884Y-82576868D01*
X139176949Y-82617494D01*
X139191500Y-82669608D01*
X139191500Y-82949386D01*
X139172287Y-83008517D01*
X139162035Y-83020521D01*
X135954122Y-86228435D01*
X135898724Y-86256661D01*
X135882987Y-86257900D01*
X134571754Y-86257900D01*
X134548448Y-86265473D01*
X134533102Y-86269157D01*
X134508894Y-86272991D01*
X134501843Y-86276584D01*
X134501842Y-86276584D01*
X134487060Y-86284116D01*
X134472482Y-86290155D01*
X134449168Y-86297730D01*
X134442759Y-86302386D01*
X134442760Y-86302386D01*
X134429342Y-86312135D01*
X134415887Y-86320381D01*
X134394049Y-86331508D01*
X132914722Y-87810835D01*
X132859324Y-87839061D01*
X132843587Y-87840300D01*
X132530002Y-87840300D01*
X132485388Y-87847366D01*
X132438899Y-87854729D01*
X132438897Y-87854730D01*
X132431078Y-87855968D01*
X132311845Y-87916720D01*
X132217220Y-88011345D01*
X132156468Y-88130578D01*
X132155230Y-88138395D01*
X132155229Y-88138399D01*
X132152727Y-88154198D01*
X132140800Y-88229502D01*
X132140800Y-88399403D01*
X132121587Y-88458534D01*
X132111335Y-88470538D01*
X131508388Y-89073485D01*
X131498247Y-89081588D01*
X131498262Y-89081606D01*
X131492804Y-89086251D01*
X131486742Y-89090076D01*
X131461432Y-89118734D01*
X131450593Y-89131007D01*
X131446325Y-89135548D01*
X131434318Y-89147555D01*
X131427426Y-89156751D01*
X131422344Y-89162992D01*
X131390322Y-89199251D01*
X131387275Y-89205742D01*
X131385895Y-89208680D01*
X131375336Y-89226254D01*
X131369084Y-89234595D01*
X131366568Y-89241305D01*
X131366568Y-89241306D01*
X131352102Y-89279894D01*
X131348974Y-89287318D01*
X131328419Y-89331100D01*
X131326888Y-89340935D01*
X131326817Y-89341390D01*
X131321615Y-89361217D01*
X131320472Y-89364268D01*
X131320471Y-89364272D01*
X131317955Y-89370984D01*
X131317204Y-89381095D01*
X131314372Y-89419205D01*
X131313451Y-89427230D01*
X131312163Y-89435500D01*
X131311200Y-89441686D01*
X131311200Y-89458160D01*
X131310923Y-89465614D01*
X131307161Y-89516241D01*
X131308657Y-89523249D01*
X131308657Y-89523251D01*
X131308983Y-89524780D01*
X131311200Y-89545782D01*
X131311200Y-93651468D01*
X131309759Y-93664366D01*
X131309783Y-93664368D01*
X131309209Y-93671506D01*
X131307626Y-93678500D01*
X131308461Y-93691955D01*
X131311007Y-93732998D01*
X131311200Y-93739227D01*
X131311200Y-93756213D01*
X131311708Y-93759760D01*
X131311708Y-93759762D01*
X131312827Y-93767574D01*
X131313650Y-93775604D01*
X131316198Y-93816668D01*
X131316645Y-93823877D01*
X131319078Y-93830615D01*
X131319078Y-93830617D01*
X131320182Y-93833674D01*
X131325139Y-93853546D01*
X131325441Y-93855651D01*
X131314821Y-93916912D01*
X131270220Y-93960230D01*
X131208676Y-93969059D01*
X131154726Y-93941073D01*
X130846465Y-93632813D01*
X130818239Y-93577415D01*
X130817000Y-93561678D01*
X130817000Y-92784733D01*
X130818441Y-92771836D01*
X130818417Y-92771834D01*
X130818992Y-92764693D01*
X130820574Y-92757700D01*
X130817193Y-92703202D01*
X130817000Y-92696973D01*
X130817000Y-92679987D01*
X130815372Y-92668619D01*
X130814550Y-92660596D01*
X130811999Y-92619474D01*
X130811999Y-92619472D01*
X130811555Y-92612323D01*
X130808018Y-92602525D01*
X130803057Y-92582628D01*
X130802596Y-92579411D01*
X130801580Y-92572313D01*
X130781560Y-92528282D01*
X130778517Y-92520807D01*
X130764530Y-92482061D01*
X130764528Y-92482057D01*
X130762096Y-92475319D01*
X130757868Y-92469532D01*
X130757867Y-92469530D01*
X130755948Y-92466903D01*
X130745603Y-92449199D01*
X130744259Y-92446243D01*
X130744258Y-92446241D01*
X130741292Y-92439718D01*
X130709713Y-92403068D01*
X130704716Y-92396775D01*
X130696075Y-92384947D01*
X130684423Y-92373295D01*
X130679353Y-92367834D01*
X130646213Y-92329373D01*
X130640198Y-92325474D01*
X130638887Y-92324624D01*
X130622470Y-92311342D01*
X130266220Y-91955092D01*
X129883261Y-91572134D01*
X129855036Y-91516737D01*
X129864762Y-91455329D01*
X129908725Y-91411365D01*
X129954397Y-91400400D01*
X130415270Y-91400400D01*
X130458241Y-91393594D01*
X130501984Y-91386666D01*
X130501986Y-91386665D01*
X130509805Y-91385427D01*
X130623747Y-91327371D01*
X130714171Y-91236947D01*
X130772227Y-91123005D01*
X130773467Y-91115180D01*
X130786580Y-91032383D01*
X130787200Y-91028470D01*
X130787200Y-90414930D01*
X130772227Y-90320395D01*
X130714171Y-90206453D01*
X130703965Y-90196247D01*
X130675739Y-90140849D01*
X130674500Y-90125112D01*
X130674500Y-89124605D01*
X130693713Y-89065474D01*
X130703965Y-89053470D01*
X130730780Y-89026655D01*
X130791532Y-88907422D01*
X130807200Y-88808498D01*
X130807200Y-88229502D01*
X130795273Y-88154198D01*
X130792771Y-88138399D01*
X130792770Y-88138395D01*
X130791532Y-88130578D01*
X130730780Y-88011345D01*
X130636155Y-87916720D01*
X130516922Y-87855968D01*
X130509103Y-87854730D01*
X130509101Y-87854729D01*
X130462612Y-87847366D01*
X130417998Y-87840300D01*
X130046413Y-87840300D01*
X129987282Y-87821087D01*
X129950737Y-87770787D01*
X129950737Y-87708613D01*
X129975278Y-87668565D01*
X131659214Y-85984630D01*
X133177268Y-84466576D01*
X134967934Y-84466576D01*
X134974407Y-84473579D01*
X135100487Y-84550840D01*
X135107499Y-84554413D01*
X135318793Y-84641935D01*
X135326299Y-84644373D01*
X135548672Y-84697760D01*
X135556464Y-84698994D01*
X135784461Y-84716938D01*
X135792339Y-84716938D01*
X136020336Y-84698994D01*
X136028128Y-84697760D01*
X136250501Y-84644373D01*
X136258007Y-84641935D01*
X136469301Y-84554413D01*
X136476313Y-84550840D01*
X136600672Y-84474634D01*
X136609078Y-84464792D01*
X136604417Y-84456469D01*
X135799668Y-83651720D01*
X135787589Y-83645565D01*
X135782477Y-83646375D01*
X134973811Y-84455041D01*
X134967934Y-84466576D01*
X133177268Y-84466576D01*
X133558766Y-84085078D01*
X133558769Y-84085074D01*
X133581692Y-84062151D01*
X133592817Y-84040317D01*
X133601059Y-84026867D01*
X133615470Y-84007032D01*
X133623043Y-83983724D01*
X133629085Y-83969138D01*
X133636615Y-83954359D01*
X133640209Y-83947306D01*
X133644043Y-83923099D01*
X133647726Y-83907757D01*
X133655299Y-83884447D01*
X133655299Y-83852030D01*
X133655300Y-83852024D01*
X133655300Y-83213339D01*
X134280862Y-83213339D01*
X134298806Y-83441336D01*
X134300040Y-83449128D01*
X134353427Y-83671501D01*
X134355865Y-83679007D01*
X134443387Y-83890301D01*
X134446960Y-83897313D01*
X134523166Y-84021672D01*
X134533008Y-84030078D01*
X134541331Y-84025417D01*
X135346080Y-83220668D01*
X135351408Y-83210211D01*
X136224565Y-83210211D01*
X136225375Y-83215323D01*
X137034041Y-84023989D01*
X137045576Y-84029866D01*
X137052579Y-84023393D01*
X137129840Y-83897313D01*
X137133413Y-83890301D01*
X137220935Y-83679007D01*
X137223373Y-83671501D01*
X137276760Y-83449128D01*
X137277994Y-83441336D01*
X137295938Y-83213339D01*
X137295938Y-83205461D01*
X137277994Y-82977464D01*
X137276760Y-82969672D01*
X137223373Y-82747299D01*
X137220935Y-82739793D01*
X137133413Y-82528499D01*
X137129840Y-82521487D01*
X137053634Y-82397128D01*
X137043792Y-82388722D01*
X137035469Y-82393383D01*
X136230720Y-83198132D01*
X136224565Y-83210211D01*
X135351408Y-83210211D01*
X135352235Y-83208589D01*
X135351425Y-83203477D01*
X134542759Y-82394811D01*
X134531224Y-82388934D01*
X134524221Y-82395407D01*
X134446960Y-82521487D01*
X134443387Y-82528499D01*
X134355865Y-82739793D01*
X134353427Y-82747299D01*
X134300040Y-82969672D01*
X134298806Y-82977464D01*
X134280862Y-83205461D01*
X134280862Y-83213339D01*
X133655300Y-83213339D01*
X133655300Y-81954008D01*
X134967722Y-81954008D01*
X134972383Y-81962331D01*
X135777132Y-82767080D01*
X135789211Y-82773235D01*
X135794323Y-82772425D01*
X136602989Y-81963759D01*
X136608866Y-81952224D01*
X136602393Y-81945221D01*
X136476313Y-81867960D01*
X136469301Y-81864387D01*
X136258007Y-81776865D01*
X136250501Y-81774427D01*
X136028128Y-81721040D01*
X136020336Y-81719806D01*
X135792339Y-81701862D01*
X135784461Y-81701862D01*
X135556464Y-81719806D01*
X135548672Y-81721040D01*
X135326299Y-81774427D01*
X135318793Y-81776865D01*
X135107499Y-81864387D01*
X135100487Y-81867960D01*
X134976128Y-81944166D01*
X134967722Y-81954008D01*
X133655300Y-81954008D01*
X133655300Y-80324264D01*
X133674513Y-80265133D01*
X133710542Y-80234470D01*
X133761891Y-80208532D01*
X133909273Y-80093385D01*
X133930932Y-80068293D01*
X134028267Y-79955529D01*
X134028268Y-79955527D01*
X134031482Y-79951804D01*
X134123864Y-79789182D01*
X134182900Y-79611713D01*
X134206341Y-79426158D01*
X134206715Y-79399400D01*
X134188464Y-79213262D01*
X134187042Y-79208552D01*
X134187041Y-79208547D01*
X134135830Y-79038930D01*
X134135828Y-79038926D01*
X134134406Y-79034215D01*
X134046601Y-78869077D01*
X133928392Y-78724138D01*
X133921561Y-78718487D01*
X133788071Y-78608054D01*
X133788066Y-78608051D01*
X133784283Y-78604921D01*
X133619762Y-78515965D01*
X133615064Y-78514511D01*
X133615060Y-78514509D01*
X133445793Y-78462112D01*
X133441096Y-78460658D01*
X133255090Y-78441108D01*
X133250189Y-78441554D01*
X133250186Y-78441554D01*
X133073729Y-78457613D01*
X133073727Y-78457613D01*
X133068830Y-78458059D01*
X132889409Y-78510866D01*
X132723662Y-78597516D01*
X132577902Y-78714710D01*
X132574736Y-78718483D01*
X132574732Y-78718487D01*
X132460846Y-78854212D01*
X132457681Y-78857984D01*
X132455312Y-78862292D01*
X132455310Y-78862296D01*
X132449194Y-78873422D01*
X132367579Y-79021880D01*
X132311026Y-79200155D01*
X132310478Y-79205042D01*
X132310477Y-79205046D01*
X132309006Y-79218161D01*
X132290178Y-79386020D01*
X132305829Y-79572394D01*
X132331773Y-79662872D01*
X132345391Y-79710363D01*
X132357381Y-79752179D01*
X132442872Y-79918527D01*
X132559046Y-80065102D01*
X132701477Y-80186320D01*
X132751581Y-80214322D01*
X132789979Y-80235782D01*
X132832222Y-80281401D01*
X132841500Y-80323598D01*
X132841500Y-81206132D01*
X132822287Y-81265263D01*
X132771987Y-81301808D01*
X132709813Y-81301808D01*
X132665170Y-81271242D01*
X132664969Y-81271442D01*
X132663921Y-81270387D01*
X132662943Y-81269717D01*
X132661504Y-81267953D01*
X132661499Y-81267948D01*
X132658392Y-81264138D01*
X132651561Y-81258487D01*
X132518071Y-81148054D01*
X132518066Y-81148051D01*
X132514283Y-81144921D01*
X132349762Y-81055965D01*
X132345064Y-81054511D01*
X132345060Y-81054509D01*
X132175793Y-81002112D01*
X132171096Y-81000658D01*
X131985090Y-80981108D01*
X131980189Y-80981554D01*
X131980186Y-80981554D01*
X131803729Y-80997613D01*
X131803727Y-80997613D01*
X131798830Y-80998059D01*
X131619409Y-81050866D01*
X131453662Y-81137516D01*
X131307902Y-81254710D01*
X131304733Y-81258487D01*
X131304731Y-81258489D01*
X131292963Y-81272513D01*
X131240236Y-81305460D01*
X131178214Y-81301122D01*
X131130586Y-81261157D01*
X131115300Y-81207848D01*
X131115300Y-80324264D01*
X131134513Y-80265133D01*
X131170542Y-80234470D01*
X131221891Y-80208532D01*
X131369273Y-80093385D01*
X131390932Y-80068293D01*
X131488267Y-79955529D01*
X131488268Y-79955527D01*
X131491482Y-79951804D01*
X131583864Y-79789182D01*
X131642900Y-79611713D01*
X131666341Y-79426158D01*
X131666715Y-79399400D01*
X131648464Y-79213262D01*
X131647042Y-79208552D01*
X131647041Y-79208547D01*
X131595830Y-79038930D01*
X131595828Y-79038926D01*
X131594406Y-79034215D01*
X131506601Y-78869077D01*
X131388392Y-78724138D01*
X131381561Y-78718487D01*
X131248071Y-78608054D01*
X131248066Y-78608051D01*
X131244283Y-78604921D01*
X131079762Y-78515965D01*
X131075064Y-78514511D01*
X131075060Y-78514509D01*
X130905793Y-78462112D01*
X130901096Y-78460658D01*
X130715090Y-78441108D01*
X130710189Y-78441554D01*
X130710186Y-78441554D01*
X130533729Y-78457613D01*
X130533727Y-78457613D01*
X130528830Y-78458059D01*
X130349409Y-78510866D01*
X130183662Y-78597516D01*
X130037902Y-78714710D01*
X130034736Y-78718483D01*
X130034732Y-78718487D01*
X129920846Y-78854212D01*
X129917681Y-78857984D01*
X129915312Y-78862292D01*
X129915310Y-78862296D01*
X129909194Y-78873422D01*
X129827579Y-79021880D01*
X129771026Y-79200155D01*
X129770478Y-79205042D01*
X129770477Y-79205046D01*
X129769006Y-79218161D01*
X129750178Y-79386020D01*
X129765829Y-79572394D01*
X129791773Y-79662872D01*
X129805391Y-79710363D01*
X129817381Y-79752179D01*
X129902872Y-79918527D01*
X130019046Y-80065102D01*
X130161477Y-80186320D01*
X130211581Y-80214322D01*
X130249979Y-80235782D01*
X130292222Y-80281401D01*
X130301500Y-80323598D01*
X130301500Y-81206132D01*
X130282287Y-81265263D01*
X130231987Y-81301808D01*
X130169813Y-81301808D01*
X130125170Y-81271242D01*
X130124969Y-81271442D01*
X130123921Y-81270387D01*
X130122943Y-81269717D01*
X130121504Y-81267953D01*
X130121499Y-81267948D01*
X130118392Y-81264138D01*
X130111561Y-81258487D01*
X129978071Y-81148054D01*
X129978066Y-81148051D01*
X129974283Y-81144921D01*
X129809762Y-81055965D01*
X129805064Y-81054511D01*
X129805060Y-81054509D01*
X129635793Y-81002112D01*
X129631096Y-81000658D01*
X129445090Y-80981108D01*
X129440189Y-80981554D01*
X129440186Y-80981554D01*
X129263729Y-80997613D01*
X129263727Y-80997613D01*
X129258830Y-80998059D01*
X129079409Y-81050866D01*
X128913662Y-81137516D01*
X128767902Y-81254710D01*
X128764733Y-81258487D01*
X128764731Y-81258489D01*
X128752963Y-81272513D01*
X128700236Y-81305460D01*
X128638214Y-81301122D01*
X128590586Y-81261157D01*
X128575300Y-81207848D01*
X128575300Y-80324264D01*
X128594513Y-80265133D01*
X128630542Y-80234470D01*
X128681891Y-80208532D01*
X128829273Y-80093385D01*
X128850932Y-80068293D01*
X128948267Y-79955529D01*
X128948268Y-79955527D01*
X128951482Y-79951804D01*
X129043864Y-79789182D01*
X129102900Y-79611713D01*
X129126341Y-79426158D01*
X129126715Y-79399400D01*
X129108464Y-79213262D01*
X129107042Y-79208552D01*
X129107041Y-79208547D01*
X129055830Y-79038930D01*
X129055828Y-79038926D01*
X129054406Y-79034215D01*
X128966601Y-78869077D01*
X128848392Y-78724138D01*
X128841561Y-78718487D01*
X128708071Y-78608054D01*
X128708066Y-78608051D01*
X128704283Y-78604921D01*
X128539762Y-78515965D01*
X128535064Y-78514511D01*
X128535060Y-78514509D01*
X128365793Y-78462112D01*
X128361096Y-78460658D01*
X128175090Y-78441108D01*
X128170189Y-78441554D01*
X128170186Y-78441554D01*
X127993729Y-78457613D01*
X127993727Y-78457613D01*
X127988830Y-78458059D01*
X127809409Y-78510866D01*
X127643662Y-78597516D01*
X127497902Y-78714710D01*
X127494736Y-78718483D01*
X127494732Y-78718487D01*
X127380846Y-78854212D01*
X127377681Y-78857984D01*
X127375312Y-78862292D01*
X127375310Y-78862296D01*
X127369194Y-78873422D01*
X127287579Y-79021880D01*
X127231026Y-79200155D01*
X127230478Y-79205042D01*
X127230477Y-79205046D01*
X127229006Y-79218161D01*
X127210178Y-79386020D01*
X127225829Y-79572394D01*
X127251773Y-79662872D01*
X127265391Y-79710363D01*
X127277381Y-79752179D01*
X127362872Y-79918527D01*
X127479046Y-80065102D01*
X127621477Y-80186320D01*
X127671581Y-80214322D01*
X127709979Y-80235782D01*
X127752222Y-80281401D01*
X127761500Y-80323598D01*
X127761500Y-81206132D01*
X127742287Y-81265263D01*
X127691987Y-81301808D01*
X127629813Y-81301808D01*
X127585170Y-81271242D01*
X127584969Y-81271442D01*
X127583921Y-81270387D01*
X127582943Y-81269717D01*
X127581504Y-81267953D01*
X127581499Y-81267948D01*
X127578392Y-81264138D01*
X127571561Y-81258487D01*
X127438071Y-81148054D01*
X127438066Y-81148051D01*
X127434283Y-81144921D01*
X127269762Y-81055965D01*
X127265064Y-81054511D01*
X127265060Y-81054509D01*
X127095793Y-81002112D01*
X127091096Y-81000658D01*
X126905090Y-80981108D01*
X126900189Y-80981554D01*
X126900186Y-80981554D01*
X126723729Y-80997613D01*
X126723727Y-80997613D01*
X126718830Y-80998059D01*
X126539409Y-81050866D01*
X126373662Y-81137516D01*
X126227902Y-81254710D01*
X126224736Y-81258483D01*
X126224732Y-81258487D01*
X126112592Y-81392131D01*
X126107681Y-81397984D01*
X126105312Y-81402292D01*
X126105310Y-81402296D01*
X126092785Y-81425079D01*
X126017579Y-81561880D01*
X125961026Y-81740155D01*
X125960478Y-81745042D01*
X125960477Y-81745046D01*
X125950754Y-81831729D01*
X125940178Y-81926020D01*
X125955829Y-82112394D01*
X126007381Y-82292179D01*
X126092872Y-82458527D01*
X126209046Y-82605102D01*
X126351477Y-82726320D01*
X126514740Y-82817564D01*
X126519421Y-82819085D01*
X126687937Y-82873840D01*
X126687940Y-82873841D01*
X126692616Y-82875360D01*
X126697498Y-82875942D01*
X126697502Y-82875943D01*
X126873441Y-82896922D01*
X126873442Y-82896922D01*
X126878331Y-82897505D01*
X127017002Y-82886835D01*
X127059898Y-82883534D01*
X127064810Y-82883156D01*
X127069550Y-82881832D01*
X127069553Y-82881832D01*
X127240208Y-82834184D01*
X127244950Y-82832860D01*
X127276930Y-82816706D01*
X127338370Y-82807194D01*
X127393669Y-82835613D01*
X127421703Y-82891109D01*
X127411763Y-82952484D01*
X127393422Y-82977635D01*
X124091822Y-86279235D01*
X124036424Y-86307461D01*
X124020687Y-86308700D01*
X122295384Y-86308700D01*
X122272078Y-86316273D01*
X122256732Y-86319957D01*
X122232524Y-86323791D01*
X122225473Y-86327384D01*
X122225472Y-86327384D01*
X122210690Y-86334916D01*
X122196112Y-86340955D01*
X122172798Y-86348530D01*
X122166389Y-86353186D01*
X122166390Y-86353186D01*
X122152972Y-86362935D01*
X122139517Y-86371181D01*
X122117679Y-86382308D01*
X120686130Y-87813857D01*
X120630732Y-87842083D01*
X120599262Y-87842084D01*
X120587998Y-87840300D01*
X120084002Y-87840300D01*
X120039388Y-87847366D01*
X119992899Y-87854729D01*
X119992897Y-87854730D01*
X119985078Y-87855968D01*
X119865845Y-87916720D01*
X119771220Y-88011345D01*
X119710468Y-88130578D01*
X119709230Y-88138395D01*
X119709229Y-88138399D01*
X119706727Y-88154198D01*
X119694800Y-88229502D01*
X119694800Y-88399403D01*
X119675587Y-88458534D01*
X119665335Y-88470538D01*
X119062388Y-89073485D01*
X119052247Y-89081588D01*
X119052262Y-89081606D01*
X119046804Y-89086251D01*
X119040742Y-89090076D01*
X119015432Y-89118734D01*
X119004593Y-89131007D01*
X119000325Y-89135548D01*
X118988318Y-89147555D01*
X118981426Y-89156751D01*
X118976344Y-89162992D01*
X118944322Y-89199251D01*
X118941275Y-89205742D01*
X118939895Y-89208680D01*
X118929336Y-89226254D01*
X118923084Y-89234595D01*
X118920568Y-89241305D01*
X118920568Y-89241306D01*
X118906102Y-89279894D01*
X118902974Y-89287318D01*
X118882419Y-89331100D01*
X118880888Y-89340935D01*
X118880817Y-89341390D01*
X118875615Y-89361217D01*
X118874472Y-89364268D01*
X118874471Y-89364272D01*
X118871955Y-89370984D01*
X118871204Y-89381095D01*
X118868372Y-89419205D01*
X118867451Y-89427230D01*
X118866163Y-89435500D01*
X118865200Y-89441686D01*
X118865200Y-89458160D01*
X118864923Y-89465614D01*
X118861161Y-89516241D01*
X118862657Y-89523249D01*
X118862657Y-89523251D01*
X118862983Y-89524780D01*
X118865200Y-89545782D01*
X118865200Y-93651468D01*
X118863759Y-93664366D01*
X118863783Y-93664368D01*
X118863209Y-93671506D01*
X118861626Y-93678500D01*
X118862461Y-93691955D01*
X118864243Y-93720685D01*
X118848728Y-93780892D01*
X118800787Y-93820482D01*
X118738733Y-93824332D01*
X118692701Y-93798049D01*
X118454965Y-93560313D01*
X118426739Y-93504915D01*
X118425500Y-93489178D01*
X118425500Y-92305533D01*
X118426941Y-92292636D01*
X118426917Y-92292634D01*
X118427492Y-92285493D01*
X118429074Y-92278500D01*
X118425693Y-92224002D01*
X118425500Y-92217773D01*
X118425500Y-92200787D01*
X118423872Y-92189419D01*
X118423050Y-92181396D01*
X118420499Y-92140274D01*
X118420499Y-92140272D01*
X118420055Y-92133123D01*
X118416518Y-92123325D01*
X118411557Y-92103428D01*
X118411096Y-92100211D01*
X118410080Y-92093113D01*
X118390060Y-92049082D01*
X118387017Y-92041607D01*
X118373030Y-92002861D01*
X118373030Y-92002860D01*
X118370596Y-91996119D01*
X118366367Y-91990330D01*
X118364448Y-91987703D01*
X118354103Y-91969999D01*
X118352759Y-91967043D01*
X118352758Y-91967041D01*
X118349792Y-91960518D01*
X118318213Y-91923868D01*
X118313216Y-91917575D01*
X118304575Y-91905747D01*
X118292923Y-91894095D01*
X118287858Y-91888640D01*
X118254713Y-91850173D01*
X118248698Y-91846274D01*
X118247387Y-91845424D01*
X118230970Y-91832142D01*
X117970963Y-91572135D01*
X117942737Y-91516737D01*
X117952463Y-91455329D01*
X117996427Y-91411365D01*
X118042098Y-91400400D01*
X118283170Y-91400400D01*
X118326141Y-91393594D01*
X118369884Y-91386666D01*
X118369886Y-91386665D01*
X118377705Y-91385427D01*
X118491647Y-91327371D01*
X118582071Y-91236947D01*
X118640127Y-91123005D01*
X118641367Y-91115180D01*
X118654480Y-91032383D01*
X118655100Y-91028470D01*
X118655100Y-90414930D01*
X118640127Y-90320395D01*
X118582071Y-90206453D01*
X118491647Y-90116029D01*
X118377705Y-90057973D01*
X118367861Y-90056414D01*
X118366036Y-90055484D01*
X118362355Y-90054288D01*
X118362544Y-90053705D01*
X118312464Y-90028187D01*
X118284238Y-89972789D01*
X118283000Y-89957053D01*
X118283000Y-89284079D01*
X118302213Y-89224948D01*
X118352513Y-89188403D01*
X118367863Y-89184718D01*
X118377001Y-89183271D01*
X118377003Y-89183270D01*
X118384822Y-89182032D01*
X118504055Y-89121280D01*
X118598680Y-89026655D01*
X118659432Y-88907422D01*
X118675100Y-88808498D01*
X118675100Y-88229502D01*
X118663173Y-88154198D01*
X118660671Y-88138399D01*
X118660670Y-88138395D01*
X118659432Y-88130578D01*
X118598680Y-88011345D01*
X118504055Y-87916720D01*
X118384822Y-87855968D01*
X118377003Y-87854730D01*
X118377001Y-87854729D01*
X118330512Y-87847366D01*
X118285898Y-87840300D01*
X117781902Y-87840300D01*
X117737288Y-87847366D01*
X117690799Y-87854729D01*
X117690797Y-87854730D01*
X117682978Y-87855968D01*
X117644242Y-87875705D01*
X117582834Y-87885431D01*
X117527436Y-87857205D01*
X117499210Y-87801807D01*
X117508936Y-87740399D01*
X117527436Y-87714935D01*
X123240438Y-82001933D01*
X123295836Y-81973707D01*
X123357244Y-81983433D01*
X123401208Y-82027397D01*
X123411819Y-82064648D01*
X123415829Y-82112394D01*
X123467381Y-82292179D01*
X123552872Y-82458527D01*
X123669046Y-82605102D01*
X123811477Y-82726320D01*
X123974740Y-82817564D01*
X123979421Y-82819085D01*
X124147937Y-82873840D01*
X124147940Y-82873841D01*
X124152616Y-82875360D01*
X124157498Y-82875942D01*
X124157502Y-82875943D01*
X124333441Y-82896922D01*
X124333442Y-82896922D01*
X124338331Y-82897505D01*
X124477002Y-82886835D01*
X124519898Y-82883534D01*
X124524810Y-82883156D01*
X124529550Y-82881832D01*
X124529553Y-82881832D01*
X124700208Y-82834184D01*
X124704950Y-82832860D01*
X124871891Y-82748532D01*
X125019273Y-82633385D01*
X125044746Y-82603874D01*
X125138267Y-82495529D01*
X125138268Y-82495527D01*
X125141482Y-82491804D01*
X125162872Y-82454151D01*
X125231433Y-82333462D01*
X125231434Y-82333459D01*
X125233864Y-82329182D01*
X125292900Y-82151713D01*
X125293516Y-82146836D01*
X125293517Y-82146832D01*
X125311646Y-82003322D01*
X125316341Y-81966158D01*
X125316634Y-81945221D01*
X125316676Y-81942213D01*
X125316676Y-81942207D01*
X125316715Y-81939400D01*
X125298464Y-81753262D01*
X125297042Y-81748552D01*
X125297041Y-81748547D01*
X125245830Y-81578930D01*
X125245828Y-81578926D01*
X125244406Y-81574215D01*
X125156601Y-81409077D01*
X125038392Y-81264138D01*
X125031561Y-81258487D01*
X124898071Y-81148054D01*
X124898066Y-81148051D01*
X124894283Y-81144921D01*
X124729762Y-81055965D01*
X124725064Y-81054511D01*
X124725060Y-81054509D01*
X124555793Y-81002112D01*
X124551096Y-81000658D01*
X124480894Y-80993279D01*
X124424096Y-80967992D01*
X124393009Y-80914148D01*
X124399507Y-80852314D01*
X124420275Y-80822096D01*
X125011368Y-80231003D01*
X125066766Y-80202777D01*
X125131581Y-80214322D01*
X125244740Y-80277564D01*
X125249421Y-80279085D01*
X125417937Y-80333840D01*
X125417940Y-80333841D01*
X125422616Y-80335360D01*
X125427498Y-80335942D01*
X125427502Y-80335943D01*
X125603441Y-80356922D01*
X125603442Y-80356922D01*
X125608331Y-80357505D01*
X125794810Y-80343156D01*
X125799550Y-80341832D01*
X125799553Y-80341832D01*
X125970208Y-80294184D01*
X125974950Y-80292860D01*
X126141891Y-80208532D01*
X126289273Y-80093385D01*
X126310932Y-80068293D01*
X126408267Y-79955529D01*
X126408268Y-79955527D01*
X126411482Y-79951804D01*
X126503864Y-79789182D01*
X126562900Y-79611713D01*
X126586341Y-79426158D01*
X126586715Y-79399400D01*
X126568464Y-79213262D01*
X126567042Y-79208552D01*
X126567041Y-79208547D01*
X126515830Y-79038930D01*
X126515828Y-79038926D01*
X126514406Y-79034215D01*
X126426601Y-78869077D01*
X126308392Y-78724138D01*
X126301561Y-78718487D01*
X126168071Y-78608054D01*
X126168066Y-78608051D01*
X126164283Y-78604921D01*
X125999762Y-78515965D01*
X125995064Y-78514511D01*
X125995060Y-78514509D01*
X125825793Y-78462112D01*
X125821096Y-78460658D01*
X125635090Y-78441108D01*
X125630189Y-78441554D01*
X125630186Y-78441554D01*
X125453729Y-78457613D01*
X125453727Y-78457613D01*
X125448830Y-78458059D01*
X125269409Y-78510866D01*
X125103662Y-78597516D01*
X124957902Y-78714710D01*
X124954736Y-78718483D01*
X124954732Y-78718487D01*
X124840846Y-78854212D01*
X124837681Y-78857984D01*
X124835312Y-78862292D01*
X124835310Y-78862296D01*
X124829194Y-78873422D01*
X124747579Y-79021880D01*
X124691026Y-79200155D01*
X124690478Y-79205042D01*
X124690477Y-79205046D01*
X124689006Y-79218161D01*
X124670178Y-79386020D01*
X124668899Y-79385877D01*
X124650692Y-79439340D01*
X124641280Y-79450205D01*
X116280650Y-87810835D01*
X116225252Y-87839061D01*
X116214790Y-87839885D01*
X116214798Y-87839990D01*
X116210862Y-87840300D01*
X116206902Y-87840300D01*
X116162288Y-87847366D01*
X116115799Y-87854729D01*
X116115797Y-87854730D01*
X116107978Y-87855968D01*
X115988745Y-87916720D01*
X115940735Y-87964730D01*
X115885337Y-87992956D01*
X115823929Y-87983230D01*
X115779965Y-87939266D01*
X115769000Y-87893595D01*
X115769000Y-73142746D01*
X115785468Y-73092064D01*
X121208367Y-73092064D01*
X121208713Y-73095690D01*
X121208713Y-73095693D01*
X121216948Y-73182000D01*
X121234218Y-73363011D01*
X121235082Y-73366541D01*
X121235083Y-73366548D01*
X121278902Y-73545618D01*
X121298911Y-73627389D01*
X121401090Y-73879659D01*
X121538617Y-74114537D01*
X121708609Y-74327101D01*
X121711271Y-74329587D01*
X121711274Y-74329591D01*
X121814886Y-74426379D01*
X121907505Y-74512899D01*
X121910495Y-74514974D01*
X121910496Y-74514974D01*
X122068691Y-74624718D01*
X122131139Y-74668040D01*
X122252049Y-74728192D01*
X122371561Y-74787649D01*
X122371565Y-74787651D01*
X122374826Y-74789273D01*
X122378282Y-74790406D01*
X122378287Y-74790408D01*
X122629995Y-74872922D01*
X122630002Y-74872924D01*
X122633462Y-74874058D01*
X122637056Y-74874682D01*
X122637060Y-74874683D01*
X122819925Y-74906433D01*
X122901628Y-74920619D01*
X122945691Y-74922813D01*
X122986390Y-74924839D01*
X122986403Y-74924839D01*
X122987622Y-74924900D01*
X123157544Y-74924900D01*
X123159358Y-74924768D01*
X123159368Y-74924768D01*
X123356227Y-74910484D01*
X123356228Y-74910484D01*
X123359864Y-74910220D01*
X123363422Y-74909434D01*
X123363425Y-74909434D01*
X123622078Y-74852329D01*
X123622080Y-74852328D01*
X123625642Y-74851542D01*
X123880165Y-74755112D01*
X124118102Y-74622950D01*
X124334468Y-74457824D01*
X124524731Y-74263194D01*
X124526877Y-74260246D01*
X124526881Y-74260241D01*
X124682754Y-74046093D01*
X124684906Y-74043137D01*
X124811636Y-73802263D01*
X124873391Y-73627389D01*
X124901055Y-73549051D01*
X124901056Y-73549047D01*
X124902267Y-73545618D01*
X124954900Y-73278577D01*
X124964185Y-73092064D01*
X174548367Y-73092064D01*
X174548713Y-73095690D01*
X174548713Y-73095693D01*
X174556948Y-73182000D01*
X174574218Y-73363011D01*
X174575082Y-73366541D01*
X174575083Y-73366548D01*
X174618902Y-73545618D01*
X174638911Y-73627389D01*
X174741090Y-73879659D01*
X174878617Y-74114537D01*
X175048609Y-74327101D01*
X175051271Y-74329587D01*
X175051274Y-74329591D01*
X175154886Y-74426379D01*
X175247505Y-74512899D01*
X175250495Y-74514974D01*
X175250496Y-74514974D01*
X175408691Y-74624718D01*
X175471139Y-74668040D01*
X175592049Y-74728192D01*
X175711561Y-74787649D01*
X175711565Y-74787651D01*
X175714826Y-74789273D01*
X175718282Y-74790406D01*
X175718287Y-74790408D01*
X175969995Y-74872922D01*
X175970002Y-74872924D01*
X175973462Y-74874058D01*
X175977056Y-74874682D01*
X175977060Y-74874683D01*
X176159925Y-74906433D01*
X176241628Y-74920619D01*
X176285691Y-74922813D01*
X176326390Y-74924839D01*
X176326403Y-74924839D01*
X176327622Y-74924900D01*
X176497544Y-74924900D01*
X176499358Y-74924768D01*
X176499368Y-74924768D01*
X176696227Y-74910484D01*
X176696228Y-74910484D01*
X176699864Y-74910220D01*
X176703422Y-74909434D01*
X176703425Y-74909434D01*
X176962078Y-74852329D01*
X176962080Y-74852328D01*
X176965642Y-74851542D01*
X177220165Y-74755112D01*
X177458102Y-74622950D01*
X177674468Y-74457824D01*
X177864731Y-74263194D01*
X177866877Y-74260246D01*
X177866881Y-74260241D01*
X178022754Y-74046093D01*
X178024906Y-74043137D01*
X178151636Y-73802263D01*
X178213391Y-73627389D01*
X178241055Y-73549051D01*
X178241056Y-73549047D01*
X178242267Y-73545618D01*
X178294900Y-73278577D01*
X178308433Y-73006736D01*
X178306531Y-72986794D01*
X178282928Y-72739415D01*
X178282928Y-72739414D01*
X178282582Y-72735789D01*
X178279327Y-72722483D01*
X178218755Y-72474950D01*
X178217889Y-72471411D01*
X178115710Y-72219141D01*
X178075639Y-72150704D01*
X178021881Y-72058894D01*
X177978183Y-71984263D01*
X177857210Y-71832994D01*
X177810468Y-71774546D01*
X177810467Y-71774544D01*
X177808191Y-71771699D01*
X177805529Y-71769213D01*
X177805526Y-71769209D01*
X177671052Y-71643591D01*
X177609295Y-71585901D01*
X177596464Y-71577000D01*
X177388654Y-71432836D01*
X177388651Y-71432834D01*
X177385661Y-71430760D01*
X177197197Y-71337000D01*
X177145239Y-71311151D01*
X177145235Y-71311149D01*
X177141974Y-71309527D01*
X177138518Y-71308394D01*
X177138513Y-71308392D01*
X176886805Y-71225878D01*
X176886798Y-71225876D01*
X176883338Y-71224742D01*
X176879744Y-71224118D01*
X176879740Y-71224117D01*
X176696875Y-71192367D01*
X176615172Y-71178181D01*
X176571109Y-71175987D01*
X176530410Y-71173961D01*
X176530397Y-71173961D01*
X176529178Y-71173900D01*
X176359256Y-71173900D01*
X176357442Y-71174032D01*
X176357432Y-71174032D01*
X176160573Y-71188316D01*
X176160572Y-71188316D01*
X176156936Y-71188580D01*
X176153378Y-71189366D01*
X176153375Y-71189366D01*
X175894722Y-71246471D01*
X175894720Y-71246472D01*
X175891158Y-71247258D01*
X175636635Y-71343688D01*
X175398698Y-71475850D01*
X175395800Y-71478061D01*
X175395801Y-71478061D01*
X175266846Y-71576477D01*
X175182332Y-71640976D01*
X175095860Y-71729432D01*
X174995924Y-71831663D01*
X174992069Y-71835606D01*
X174989923Y-71838554D01*
X174989919Y-71838559D01*
X174907755Y-71951441D01*
X174831894Y-72055663D01*
X174705164Y-72296537D01*
X174703951Y-72299971D01*
X174703950Y-72299974D01*
X174622223Y-72531407D01*
X174614533Y-72553182D01*
X174561900Y-72820223D01*
X174548367Y-73092064D01*
X124964185Y-73092064D01*
X124968433Y-73006736D01*
X124966531Y-72986794D01*
X124942928Y-72739415D01*
X124942928Y-72739414D01*
X124942582Y-72735789D01*
X124939327Y-72722483D01*
X124878755Y-72474950D01*
X124877889Y-72471411D01*
X124775710Y-72219141D01*
X124735639Y-72150704D01*
X124681881Y-72058894D01*
X124638183Y-71984263D01*
X124517210Y-71832994D01*
X124470468Y-71774546D01*
X124470467Y-71774544D01*
X124468191Y-71771699D01*
X124465529Y-71769213D01*
X124465526Y-71769209D01*
X124331052Y-71643591D01*
X124269295Y-71585901D01*
X124256464Y-71577000D01*
X124048654Y-71432836D01*
X124048651Y-71432834D01*
X124045661Y-71430760D01*
X123857197Y-71337000D01*
X123805239Y-71311151D01*
X123805235Y-71311149D01*
X123801974Y-71309527D01*
X123798518Y-71308394D01*
X123798513Y-71308392D01*
X123546805Y-71225878D01*
X123546798Y-71225876D01*
X123543338Y-71224742D01*
X123539744Y-71224118D01*
X123539740Y-71224117D01*
X123356875Y-71192367D01*
X123275172Y-71178181D01*
X123231109Y-71175987D01*
X123190410Y-71173961D01*
X123190397Y-71173961D01*
X123189178Y-71173900D01*
X123019256Y-71173900D01*
X123017442Y-71174032D01*
X123017432Y-71174032D01*
X122820573Y-71188316D01*
X122820572Y-71188316D01*
X122816936Y-71188580D01*
X122813378Y-71189366D01*
X122813375Y-71189366D01*
X122554722Y-71246471D01*
X122554720Y-71246472D01*
X122551158Y-71247258D01*
X122296635Y-71343688D01*
X122058698Y-71475850D01*
X122055800Y-71478061D01*
X122055801Y-71478061D01*
X121926846Y-71576477D01*
X121842332Y-71640976D01*
X121755860Y-71729432D01*
X121655924Y-71831663D01*
X121652069Y-71835606D01*
X121649923Y-71838554D01*
X121649919Y-71838559D01*
X121567755Y-71951441D01*
X121491894Y-72055663D01*
X121365164Y-72296537D01*
X121363951Y-72299971D01*
X121363950Y-72299974D01*
X121282223Y-72531407D01*
X121274533Y-72553182D01*
X121221900Y-72820223D01*
X121208367Y-73092064D01*
X115785468Y-73092064D01*
X115788213Y-73083615D01*
X115829600Y-73050440D01*
X115893449Y-73022772D01*
X115976000Y-72987000D01*
X115976428Y-72986803D01*
X115976449Y-72986794D01*
X116159044Y-72902899D01*
X116159050Y-72902896D01*
X116161000Y-72902000D01*
X116283780Y-72832314D01*
X116345125Y-72797497D01*
X116345139Y-72797488D01*
X116346000Y-72797000D01*
X116370167Y-72782000D01*
X116489615Y-72707860D01*
X116489623Y-72707855D01*
X116491000Y-72707000D01*
X116561000Y-72657000D01*
X116629596Y-72608003D01*
X116629599Y-72608001D01*
X116631000Y-72607000D01*
X116716000Y-72537000D01*
X116861000Y-72412000D01*
X117001000Y-72277000D01*
X117054231Y-72219141D01*
X117114876Y-72153222D01*
X117114880Y-72153218D01*
X117116000Y-72152000D01*
X117248586Y-71987411D01*
X117259671Y-71973650D01*
X117259673Y-71973648D01*
X117261000Y-71972000D01*
X117274500Y-71952000D01*
X117395073Y-71773374D01*
X117395079Y-71773364D01*
X117396000Y-71772000D01*
X117457250Y-71667000D01*
X117465711Y-71652496D01*
X117465724Y-71652473D01*
X117466000Y-71652000D01*
X117541000Y-71517000D01*
X117626000Y-71337000D01*
X117636053Y-71311151D01*
X117647919Y-71280638D01*
X117696000Y-71157000D01*
X117710546Y-71117000D01*
X117735502Y-71048369D01*
X117736000Y-71047000D01*
X117736419Y-71045604D01*
X117765817Y-70947611D01*
X117765823Y-70947590D01*
X117766000Y-70947000D01*
X117796000Y-70837000D01*
X117836000Y-70647000D01*
X117851000Y-70542000D01*
X117862913Y-70443718D01*
X117870913Y-70377722D01*
X117870916Y-70377689D01*
X117871000Y-70377000D01*
X117881000Y-70267000D01*
X117886000Y-70092000D01*
X117886000Y-69992000D01*
X117885674Y-69986938D01*
X117876023Y-69837355D01*
X117876022Y-69837337D01*
X117876000Y-69837000D01*
X117868275Y-69736576D01*
X119537934Y-69736576D01*
X119544407Y-69743579D01*
X119670487Y-69820840D01*
X119677499Y-69824413D01*
X119888793Y-69911935D01*
X119896299Y-69914373D01*
X120118672Y-69967760D01*
X120126464Y-69968994D01*
X120354461Y-69986938D01*
X120362339Y-69986938D01*
X120590336Y-69968994D01*
X120598128Y-69967760D01*
X120820501Y-69914373D01*
X120828007Y-69911935D01*
X121039301Y-69824413D01*
X121046313Y-69820840D01*
X121170672Y-69744634D01*
X121177554Y-69736576D01*
X178337934Y-69736576D01*
X178344407Y-69743579D01*
X178470487Y-69820840D01*
X178477499Y-69824413D01*
X178688793Y-69911935D01*
X178696299Y-69914373D01*
X178918672Y-69967760D01*
X178926464Y-69968994D01*
X179154461Y-69986938D01*
X179162339Y-69986938D01*
X179390336Y-69968994D01*
X179398128Y-69967760D01*
X179620501Y-69914373D01*
X179628007Y-69911935D01*
X179839301Y-69824413D01*
X179846313Y-69820840D01*
X179970672Y-69744634D01*
X179979078Y-69734792D01*
X179974417Y-69726469D01*
X179169668Y-68921720D01*
X179157589Y-68915565D01*
X179152477Y-68916375D01*
X178343811Y-69725041D01*
X178337934Y-69736576D01*
X121177554Y-69736576D01*
X121179078Y-69734792D01*
X121174417Y-69726469D01*
X120369668Y-68921720D01*
X120357589Y-68915565D01*
X120352477Y-68916375D01*
X119543811Y-69725041D01*
X119537934Y-69736576D01*
X117868275Y-69736576D01*
X117866000Y-69707000D01*
X117841000Y-69537000D01*
X117833847Y-69503617D01*
X117811000Y-69397000D01*
X117786276Y-69283270D01*
X117786000Y-69282000D01*
X117756000Y-69172000D01*
X117755664Y-69170955D01*
X117755657Y-69170931D01*
X117711289Y-69032900D01*
X117711000Y-69032000D01*
X117671000Y-68922000D01*
X117668479Y-68916375D01*
X117606000Y-68777000D01*
X117605955Y-68776900D01*
X117605896Y-68776768D01*
X117561612Y-68678359D01*
X117561606Y-68678347D01*
X117561000Y-68677000D01*
X117506000Y-68572000D01*
X117456744Y-68483339D01*
X118850862Y-68483339D01*
X118868806Y-68711336D01*
X118870040Y-68719128D01*
X118923427Y-68941501D01*
X118925865Y-68949007D01*
X119013387Y-69160301D01*
X119016960Y-69167313D01*
X119093166Y-69291672D01*
X119103008Y-69300078D01*
X119111331Y-69295417D01*
X119916080Y-68490668D01*
X119921408Y-68480211D01*
X120794565Y-68480211D01*
X120795375Y-68485323D01*
X121604041Y-69293989D01*
X121615576Y-69299866D01*
X121622579Y-69293393D01*
X121699840Y-69167313D01*
X121703413Y-69160301D01*
X121790935Y-68949007D01*
X121793373Y-68941501D01*
X121846760Y-68719128D01*
X121847994Y-68711336D01*
X121865938Y-68483339D01*
X177650862Y-68483339D01*
X177668806Y-68711336D01*
X177670040Y-68719128D01*
X177723427Y-68941501D01*
X177725865Y-68949007D01*
X177813387Y-69160301D01*
X177816960Y-69167313D01*
X177893166Y-69291672D01*
X177903008Y-69300078D01*
X177911331Y-69295417D01*
X178716080Y-68490668D01*
X178721408Y-68480211D01*
X179594565Y-68480211D01*
X179595375Y-68485323D01*
X180404041Y-69293989D01*
X180415576Y-69299866D01*
X180422579Y-69293393D01*
X180499840Y-69167313D01*
X180503413Y-69160301D01*
X180590935Y-68949007D01*
X180593373Y-68941501D01*
X180646760Y-68719128D01*
X180647994Y-68711336D01*
X180665938Y-68483339D01*
X180665938Y-68475461D01*
X180647994Y-68247464D01*
X180646760Y-68239672D01*
X180593373Y-68017299D01*
X180590935Y-68009793D01*
X180503413Y-67798499D01*
X180499840Y-67791487D01*
X180423634Y-67667128D01*
X180413792Y-67658722D01*
X180405469Y-67663383D01*
X179600720Y-68468132D01*
X179594565Y-68480211D01*
X178721408Y-68480211D01*
X178722235Y-68478589D01*
X178721425Y-68473477D01*
X177912759Y-67664811D01*
X177901224Y-67658934D01*
X177894221Y-67665407D01*
X177816960Y-67791487D01*
X177813387Y-67798499D01*
X177725865Y-68009793D01*
X177723427Y-68017299D01*
X177670040Y-68239672D01*
X177668806Y-68247464D01*
X177650862Y-68475461D01*
X177650862Y-68483339D01*
X121865938Y-68483339D01*
X121865938Y-68475461D01*
X121847994Y-68247464D01*
X121846760Y-68239672D01*
X121793373Y-68017299D01*
X121790935Y-68009793D01*
X121703413Y-67798499D01*
X121699840Y-67791487D01*
X121623634Y-67667128D01*
X121613792Y-67658722D01*
X121605469Y-67663383D01*
X120800720Y-68468132D01*
X120794565Y-68480211D01*
X119921408Y-68480211D01*
X119922235Y-68478589D01*
X119921425Y-68473477D01*
X119112759Y-67664811D01*
X119101224Y-67658934D01*
X119094221Y-67665407D01*
X119016960Y-67791487D01*
X119013387Y-67798499D01*
X118925865Y-68009793D01*
X118923427Y-68017299D01*
X118870040Y-68239672D01*
X118868806Y-68247464D01*
X118850862Y-68475461D01*
X118850862Y-68483339D01*
X117456744Y-68483339D01*
X117456000Y-68482000D01*
X117416000Y-68417000D01*
X117390716Y-68375626D01*
X117361520Y-68327850D01*
X117361507Y-68327830D01*
X117361000Y-68327000D01*
X117311000Y-68252000D01*
X117271000Y-68197000D01*
X117221000Y-68132000D01*
X117161000Y-68057000D01*
X117081000Y-67962000D01*
X117080022Y-67960964D01*
X116996509Y-67872538D01*
X116996478Y-67872507D01*
X116996000Y-67872000D01*
X116891000Y-67767000D01*
X116821000Y-67702000D01*
X116779974Y-67667128D01*
X116721698Y-67617593D01*
X116721688Y-67617585D01*
X116721000Y-67617000D01*
X116714164Y-67611603D01*
X116626972Y-67542767D01*
X116626962Y-67542760D01*
X116626000Y-67542000D01*
X116625020Y-67541300D01*
X116625008Y-67541291D01*
X116556380Y-67492271D01*
X116556355Y-67492253D01*
X116556000Y-67492000D01*
X116461000Y-67427000D01*
X116366000Y-67367000D01*
X116365353Y-67366619D01*
X116365331Y-67366606D01*
X116281546Y-67317321D01*
X116281535Y-67317315D01*
X116281000Y-67317000D01*
X116280476Y-67316709D01*
X116280436Y-67316686D01*
X116191950Y-67267528D01*
X116191000Y-67267000D01*
X116111000Y-67227000D01*
X116104786Y-67224008D01*
X119537722Y-67224008D01*
X119542383Y-67232331D01*
X120347132Y-68037080D01*
X120359211Y-68043235D01*
X120364323Y-68042425D01*
X121172989Y-67233759D01*
X121177957Y-67224008D01*
X178337722Y-67224008D01*
X178342383Y-67232331D01*
X179147132Y-68037080D01*
X179159211Y-68043235D01*
X179164323Y-68042425D01*
X179972989Y-67233759D01*
X179978866Y-67222224D01*
X179972393Y-67215221D01*
X179846313Y-67137960D01*
X179839301Y-67134387D01*
X179628007Y-67046865D01*
X179620501Y-67044427D01*
X179398128Y-66991040D01*
X179390336Y-66989806D01*
X179162339Y-66971862D01*
X179154461Y-66971862D01*
X178926464Y-66989806D01*
X178918672Y-66991040D01*
X178696299Y-67044427D01*
X178688793Y-67046865D01*
X178477499Y-67134387D01*
X178470487Y-67137960D01*
X178346128Y-67214166D01*
X178337722Y-67224008D01*
X121177957Y-67224008D01*
X121178866Y-67222224D01*
X121172393Y-67215221D01*
X121046313Y-67137960D01*
X121039301Y-67134387D01*
X120828007Y-67046865D01*
X120820501Y-67044427D01*
X120598128Y-66991040D01*
X120590336Y-66989806D01*
X120362339Y-66971862D01*
X120354461Y-66971862D01*
X120126464Y-66989806D01*
X120118672Y-66991040D01*
X119896299Y-67044427D01*
X119888793Y-67046865D01*
X119677499Y-67134387D01*
X119670487Y-67137960D01*
X119546128Y-67214166D01*
X119537722Y-67224008D01*
X116104786Y-67224008D01*
X115976000Y-67162000D01*
X115974002Y-67161239D01*
X115973993Y-67161235D01*
X115873276Y-67122867D01*
X115868800Y-67121037D01*
X115829275Y-67103745D01*
X115782806Y-67062445D01*
X115769000Y-67011582D01*
X115769000Y-62640270D01*
X115788213Y-62581139D01*
X115813709Y-62556624D01*
X115976553Y-62447814D01*
X115987949Y-62441235D01*
X116186856Y-62343143D01*
X116199014Y-62338107D01*
X116372135Y-62279339D01*
X116404472Y-62274000D01*
X182264053Y-62274000D01*
X182273914Y-62274484D01*
G37*
%TD.AperFunction*%
%TD*%
D20*
X181134800Y-90721700D03*
X176808500Y-90721700D03*
X172490500Y-90721700D03*
X168149300Y-90721700D03*
X163727500Y-90721700D03*
X159417000Y-90721700D03*
X155249300Y-90721700D03*
X150942600Y-90763800D03*
X146313500Y-90721700D03*
X141784650Y-90721700D03*
X137210500Y-90721700D03*
X132724500Y-90721700D03*
X128533500Y-90721700D03*
X124342500Y-90721700D03*
X120278500Y-90721700D03*
X116401400Y-90721700D03*
X163728400Y-83209400D03*
X149758400Y-83209400D03*
X179158400Y-68479400D03*
X120358400Y-68479400D03*
X135788400Y-83209400D03*
X124358400Y-81939400D03*
X125628400Y-79399400D03*
X126898400Y-81939400D03*
X128168400Y-79399400D03*
X129438400Y-81939400D03*
X130708400Y-79399400D03*
X131978400Y-81939400D03*
X133248400Y-79399400D03*
X138328400Y-81939400D03*
X139598400Y-79399400D03*
X140868400Y-81939400D03*
X142138400Y-79399400D03*
X143408400Y-81939400D03*
X144678400Y-79399400D03*
X145948400Y-81939400D03*
X147218400Y-79399400D03*
X152298400Y-81939400D03*
X153568400Y-79399400D03*
X154838400Y-81939400D03*
X156108400Y-79399400D03*
X157378400Y-81939400D03*
X158648400Y-79399400D03*
X159918400Y-81939400D03*
X161188400Y-79399400D03*
X166268400Y-81939400D03*
X167538400Y-79399400D03*
X168808400Y-81939400D03*
X170078400Y-79399400D03*
X171348400Y-81939400D03*
X172618400Y-79399400D03*
X173888400Y-81939400D03*
X175158400Y-79399400D03*
X123088400Y-73049400D03*
X176428400Y-73049400D03*
X131996000Y-111937300D03*
X131996000Y-109437300D03*
X128496000Y-111937300D03*
X128496000Y-109437300D03*
X124996000Y-111937300D03*
X124996000Y-109437300D03*
X121496000Y-111937300D03*
X121496000Y-109437300D03*
X147388400Y-111937300D03*
X147388400Y-109437300D03*
X143888400Y-111937300D03*
X143888400Y-109437300D03*
X140388400Y-111937300D03*
X140388400Y-109437300D03*
X136888400Y-111937300D03*
X136888400Y-109437300D03*
X178122400Y-112038900D03*
X178122400Y-109538900D03*
X174622400Y-112038900D03*
X174622400Y-109538900D03*
X171122400Y-112038900D03*
X171122400Y-109538900D03*
X167622400Y-112038900D03*
X167622400Y-109538900D03*
X162730000Y-112038900D03*
X162730000Y-109538900D03*
X159230000Y-112038900D03*
X159230000Y-109538900D03*
X155730000Y-112038900D03*
X155730000Y-109538900D03*
X152230000Y-112038900D03*
X152230000Y-109538900D03*
M02*
