%TF.GenerationSoftware,KiCad,Pcbnew,(6.0.9)*%
%TF.CreationDate,2023-11-10T22:24:20+05:30*%
%TF.ProjectId,RJ45-To-Terminal,524a3435-2d54-46f2-9d54-65726d696e61,2*%
%TF.SameCoordinates,Original*%
%TF.FileFunction,Soldermask,Bot*%
%TF.FilePolarity,Negative*%
%FSLAX46Y46*%
G04 Gerber Fmt 4.6, Leading zero omitted, Abs format (unit mm)*
G04 Created by KiCad (PCBNEW (6.0.9)) date 2023-11-10 22:24:20*
%MOMM*%
%LPD*%
G01*
G04 APERTURE LIST*
%ADD10C,2.600000*%
%ADD11C,1.500000*%
%ADD12C,3.250000*%
%ADD13C,2.000000*%
G04 APERTURE END LIST*
D10*
%TO.C,RJ45-1*%
X163728400Y-83209400D03*
X149758400Y-83209400D03*
X179158400Y-68479400D03*
X120358400Y-68479400D03*
X135788400Y-83209400D03*
D11*
X124358400Y-81939400D03*
X125628400Y-79399400D03*
X126898400Y-81939400D03*
X128168400Y-79399400D03*
X129438400Y-81939400D03*
X130708400Y-79399400D03*
X131978400Y-81939400D03*
X133248400Y-79399400D03*
X138328400Y-81939400D03*
X139598400Y-79399400D03*
X140868400Y-81939400D03*
X142138400Y-79399400D03*
X143408400Y-81939400D03*
X144678400Y-79399400D03*
X145948400Y-81939400D03*
X147218400Y-79399400D03*
X152298400Y-81939400D03*
X153568400Y-79399400D03*
X154838400Y-81939400D03*
X156108400Y-79399400D03*
X157378400Y-81939400D03*
X158648400Y-79399400D03*
X159918400Y-81939400D03*
X161188400Y-79399400D03*
X166268400Y-81939400D03*
X167538400Y-79399400D03*
X168808400Y-81939400D03*
X170078400Y-79399400D03*
X171348400Y-81939400D03*
X172618400Y-79399400D03*
X173888400Y-81939400D03*
X175158400Y-79399400D03*
D12*
X123088400Y-73049400D03*
X176428400Y-73049400D03*
%TD*%
D13*
%TO.C,J11*%
X131996000Y-111937300D03*
X131996000Y-109437300D03*
X128496000Y-111937300D03*
X128496000Y-109437300D03*
X124996000Y-111937300D03*
X124996000Y-109437300D03*
X121496000Y-111937300D03*
X121496000Y-109437300D03*
%TD*%
%TO.C,J12*%
X147388400Y-111937300D03*
X147388400Y-109437300D03*
X143888400Y-111937300D03*
X143888400Y-109437300D03*
X140388400Y-111937300D03*
X140388400Y-109437300D03*
X136888400Y-111937300D03*
X136888400Y-109437300D03*
%TD*%
%TO.C,J14*%
X178122400Y-112038900D03*
X178122400Y-109538900D03*
X174622400Y-112038900D03*
X174622400Y-109538900D03*
X171122400Y-112038900D03*
X171122400Y-109538900D03*
X167622400Y-112038900D03*
X167622400Y-109538900D03*
%TD*%
%TO.C,J13*%
X162730000Y-112038900D03*
X162730000Y-109538900D03*
X159230000Y-112038900D03*
X159230000Y-109538900D03*
X155730000Y-112038900D03*
X155730000Y-109538900D03*
X152230000Y-112038900D03*
X152230000Y-109538900D03*
%TD*%
M02*
