M48
; DRILL file {KiCad (6.0.9)} date Fri Nov 10 22:24:20 2023
; FORMAT={-:-/ absolute / metric / decimal}
; #@! TF.CreationDate,2023-11-10T22:24:20+05:30
; #@! TF.GenerationSoftware,Kicad,Pcbnew,(6.0.9)
; #@! TF.FileFunction,Plated,1,2,PTH
FMAT,2
METRIC
; #@! TA.AperFunction,Plated,PTH,ViaDrill
T1C0.400
; #@! TA.AperFunction,Plated,PTH,ComponentDrill
T2C0.900
; #@! TA.AperFunction,Plated,PTH,ComponentDrill
T3C1.400
; #@! TA.AperFunction,Plated,PTH,ComponentDrill
T4C1.600
%
G90
G05
T1
X116.401Y-90.722
X120.278Y-90.722
X124.343Y-90.722
X128.534Y-90.722
X132.725Y-90.722
X137.21Y-90.722
X141.785Y-90.722
X146.314Y-90.722
X150.943Y-90.764
X155.249Y-90.722
X159.417Y-90.722
X163.727Y-90.722
X168.149Y-90.722
X172.49Y-90.722
X176.808Y-90.722
X181.135Y-90.722
T2
X124.358Y-81.939
X125.628Y-79.399
X126.898Y-81.939
X128.168Y-79.399
X129.438Y-81.939
X130.708Y-79.399
X131.978Y-81.939
X133.248Y-79.399
X138.328Y-81.939
X139.598Y-79.399
X140.868Y-81.939
X142.138Y-79.399
X143.408Y-81.939
X144.678Y-79.399
X145.948Y-81.939
X147.218Y-79.399
X152.298Y-81.939
X153.568Y-79.399
X154.838Y-81.939
X156.108Y-79.399
X157.378Y-81.939
X158.648Y-79.399
X159.918Y-81.939
X161.188Y-79.399
X166.268Y-81.939
X167.538Y-79.399
X168.808Y-81.939
X170.078Y-79.399
X171.348Y-81.939
X172.618Y-79.399
X173.888Y-81.939
X175.158Y-79.399
T3
X121.496Y-109.437
X121.496Y-111.937
X124.996Y-109.437
X124.996Y-111.937
X128.496Y-109.437
X128.496Y-111.937
X131.996Y-109.437
X131.996Y-111.937
X136.888Y-109.437
X136.888Y-111.937
X140.388Y-109.437
X140.388Y-111.937
X143.888Y-109.437
X143.888Y-111.937
X147.388Y-109.437
X147.388Y-111.937
X152.23Y-109.539
X152.23Y-112.039
X155.73Y-109.539
X155.73Y-112.039
X159.23Y-109.539
X159.23Y-112.039
X162.73Y-109.539
X162.73Y-112.039
X167.622Y-109.539
X167.622Y-112.039
X171.122Y-109.539
X171.122Y-112.039
X174.622Y-109.539
X174.622Y-112.039
X178.122Y-109.539
X178.122Y-112.039
T4
X120.358Y-68.479
X135.788Y-83.209
X149.758Y-83.209
X163.728Y-83.209
X179.158Y-68.479
T0
M30
