%TF.GenerationSoftware,KiCad,Pcbnew,(6.0.9)*%
%TF.CreationDate,2024-01-30T00:57:56+05:30*%
%TF.ProjectId,Modular-I2C-4PxRJ45-Relay-Driver,4d6f6475-6c61-4722-9d49-32432d345078,2*%
%TF.SameCoordinates,Original*%
%TF.FileFunction,Legend,Top*%
%TF.FilePolarity,Positive*%
%FSLAX46Y46*%
G04 Gerber Fmt 4.6, Leading zero omitted, Abs format (unit mm)*
G04 Created by KiCad (PCBNEW (6.0.9)) date 2024-01-30 00:57:56*
%MOMM*%
%LPD*%
G01*
G04 APERTURE LIST*
G04 Aperture macros list*
%AMRoundRect*
0 Rectangle with rounded corners*
0 $1 Rounding radius*
0 $2 $3 $4 $5 $6 $7 $8 $9 X,Y pos of 4 corners*
0 Add a 4 corners polygon primitive as box body*
4,1,4,$2,$3,$4,$5,$6,$7,$8,$9,$2,$3,0*
0 Add four circle primitives for the rounded corners*
1,1,$1+$1,$2,$3*
1,1,$1+$1,$4,$5*
1,1,$1+$1,$6,$7*
1,1,$1+$1,$8,$9*
0 Add four rect primitives between the rounded corners*
20,1,$1+$1,$2,$3,$4,$5,0*
20,1,$1+$1,$4,$5,$6,$7,0*
20,1,$1+$1,$6,$7,$8,$9,0*
20,1,$1+$1,$8,$9,$2,$3,0*%
G04 Aperture macros list end*
%ADD10C,0.150000*%
%ADD11C,0.200000*%
%ADD12C,0.125000*%
%ADD13C,0.300000*%
%ADD14C,0.120000*%
%ADD15C,0.254000*%
%ADD16C,0.100000*%
%ADD17RoundRect,0.250000X0.600000X0.600000X-0.600000X0.600000X-0.600000X-0.600000X0.600000X-0.600000X0*%
%ADD18C,1.700000*%
%ADD19RoundRect,0.218750X0.218750X0.256250X-0.218750X0.256250X-0.218750X-0.256250X0.218750X-0.256250X0*%
%ADD20RoundRect,0.200000X-0.200000X-0.275000X0.200000X-0.275000X0.200000X0.275000X-0.200000X0.275000X0*%
%ADD21R,2.000000X1.100000*%
%ADD22R,0.800000X0.800000*%
%ADD23RoundRect,0.150000X-0.150000X0.837500X-0.150000X-0.837500X0.150000X-0.837500X0.150000X0.837500X0*%
%ADD24R,0.650000X0.400000*%
%ADD25RoundRect,0.150000X-0.150000X0.587500X-0.150000X-0.587500X0.150000X-0.587500X0.150000X0.587500X0*%
%ADD26C,3.000000*%
%ADD27R,0.800000X0.500000*%
%ADD28R,0.800000X0.400000*%
%ADD29RoundRect,0.200000X-0.275000X0.200000X-0.275000X-0.200000X0.275000X-0.200000X0.275000X0.200000X0*%
%ADD30RoundRect,0.218750X-0.218750X-0.256250X0.218750X-0.256250X0.218750X0.256250X-0.218750X0.256250X0*%
%ADD31RoundRect,0.225000X0.250000X-0.225000X0.250000X0.225000X-0.250000X0.225000X-0.250000X-0.225000X0*%
%ADD32R,0.500000X0.800000*%
%ADD33R,0.400000X0.800000*%
%ADD34RoundRect,0.225000X0.225000X0.250000X-0.225000X0.250000X-0.225000X-0.250000X0.225000X-0.250000X0*%
%ADD35RoundRect,0.200000X0.200000X0.275000X-0.200000X0.275000X-0.200000X-0.275000X0.200000X-0.275000X0*%
%ADD36RoundRect,0.150000X0.150000X-0.512500X0.150000X0.512500X-0.150000X0.512500X-0.150000X-0.512500X0*%
%ADD37RoundRect,0.225000X-0.225000X-0.250000X0.225000X-0.250000X0.225000X0.250000X-0.225000X0.250000X0*%
%ADD38R,1.500000X2.400000*%
%ADD39RoundRect,0.250000X1.000000X-1.750000X1.000000X1.750000X-1.000000X1.750000X-1.000000X-1.750000X0*%
%ADD40RoundRect,0.150000X0.875000X0.150000X-0.875000X0.150000X-0.875000X-0.150000X0.875000X-0.150000X0*%
%ADD41R,1.200000X3.300000*%
%ADD42R,3.300000X1.200000*%
%ADD43RoundRect,0.200000X0.275000X-0.200000X0.275000X0.200000X-0.275000X0.200000X-0.275000X-0.200000X0*%
%ADD44R,1.100000X1.100000*%
%ADD45C,3.250000*%
%ADD46C,1.500000*%
%ADD47C,2.600000*%
%ADD48RoundRect,0.225000X-0.250000X0.225000X-0.250000X-0.225000X0.250000X-0.225000X0.250000X0.225000X0*%
G04 APERTURE END LIST*
D10*
X106244900Y-64379400D02*
G75*
G03*
X106744900Y-63879400I0J500000D01*
G01*
X150992047Y-64489153D02*
G75*
G03*
X151492047Y-64989153I499953J-47D01*
G01*
X108244900Y-56564400D02*
G75*
G03*
X107744900Y-56064400I-500000J0D01*
G01*
X154492047Y-61989153D02*
X154492047Y-64489153D01*
X153992047Y-59989153D02*
X152992047Y-59989153D01*
X107744900Y-59564400D02*
X105244900Y-59564400D01*
X105244900Y-60879400D02*
G75*
G03*
X104744900Y-61379400I0J-500000D01*
G01*
X105244900Y-56064400D02*
X107744900Y-56064400D01*
X106744900Y-61379400D02*
G75*
G03*
X106244900Y-60879400I-500000J0D01*
G01*
X154492047Y-61989153D02*
G75*
G03*
X153992047Y-61489153I-500047J-47D01*
G01*
X153992047Y-59989247D02*
G75*
G03*
X154492047Y-59489153I-47J500047D01*
G01*
X151492047Y-61489247D02*
G75*
G03*
X150992047Y-61989153I-47J-499953D01*
G01*
X152492047Y-59489153D02*
G75*
G03*
X152992047Y-59989153I499953J-47D01*
G01*
X150992047Y-64489153D02*
X150992047Y-61989153D01*
X106744900Y-61379400D02*
X106744900Y-63879400D01*
X152492047Y-59489153D02*
X152492047Y-56989153D01*
X104744900Y-59064400D02*
X104744900Y-56564400D01*
X105244900Y-60879400D02*
X106244900Y-60879400D01*
X153992047Y-64989247D02*
G75*
G03*
X154492047Y-64489153I-47J500047D01*
G01*
X107744900Y-59564400D02*
G75*
G03*
X108244900Y-59064400I0J500000D01*
G01*
X104744900Y-63879400D02*
G75*
G03*
X105244900Y-64379400I500000J0D01*
G01*
X152992047Y-56489247D02*
G75*
G03*
X152492047Y-56989153I-47J-499953D01*
G01*
X153992047Y-56489153D02*
X152992047Y-56489153D01*
X153992047Y-64989153D02*
X151492047Y-64989153D01*
X151492047Y-61489153D02*
X153992047Y-61489153D01*
X154492047Y-59489153D02*
X154492047Y-56989153D01*
X104744900Y-61379400D02*
X104744900Y-63879400D01*
X105244900Y-64379400D02*
X106244900Y-64379400D01*
X104744900Y-59064400D02*
G75*
G03*
X105244900Y-59564400I500000J0D01*
G01*
X108244900Y-56564400D02*
X108244900Y-59064400D01*
X154492047Y-56989153D02*
G75*
G03*
X153992047Y-56489153I-500047J-47D01*
G01*
X105244900Y-56064400D02*
G75*
G03*
X104744900Y-56564400I0J-500000D01*
G01*
D11*
X103927095Y-82215904D02*
X103469952Y-82215904D01*
X103698523Y-82215904D02*
X103698523Y-81415904D01*
X103622333Y-81530190D01*
X103546142Y-81606380D01*
X103469952Y-81644476D01*
X104841380Y-81492095D02*
X104879476Y-81454000D01*
X104955666Y-81415904D01*
X105146142Y-81415904D01*
X105222333Y-81454000D01*
X105260428Y-81492095D01*
X105298523Y-81568285D01*
X105298523Y-81644476D01*
X105260428Y-81758761D01*
X104803285Y-82215904D01*
X105298523Y-82215904D01*
X106174714Y-81415904D02*
X106669952Y-81415904D01*
X106403285Y-81720666D01*
X106517571Y-81720666D01*
X106593761Y-81758761D01*
X106631857Y-81796857D01*
X106669952Y-81873047D01*
X106669952Y-82063523D01*
X106631857Y-82139714D01*
X106593761Y-82177809D01*
X106517571Y-82215904D01*
X106289000Y-82215904D01*
X106212809Y-82177809D01*
X106174714Y-82139714D01*
X107965190Y-81682571D02*
X107965190Y-82215904D01*
X107774714Y-81377809D02*
X107584238Y-81949238D01*
X108079476Y-81949238D01*
X109374714Y-81415904D02*
X108993761Y-81415904D01*
X108955666Y-81796857D01*
X108993761Y-81758761D01*
X109069952Y-81720666D01*
X109260428Y-81720666D01*
X109336619Y-81758761D01*
X109374714Y-81796857D01*
X109412809Y-81873047D01*
X109412809Y-82063523D01*
X109374714Y-82139714D01*
X109336619Y-82177809D01*
X109260428Y-82215904D01*
X109069952Y-82215904D01*
X108993761Y-82177809D01*
X108955666Y-82139714D01*
X110708047Y-81415904D02*
X110555666Y-81415904D01*
X110479476Y-81454000D01*
X110441380Y-81492095D01*
X110365190Y-81606380D01*
X110327095Y-81758761D01*
X110327095Y-82063523D01*
X110365190Y-82139714D01*
X110403285Y-82177809D01*
X110479476Y-82215904D01*
X110631857Y-82215904D01*
X110708047Y-82177809D01*
X110746142Y-82139714D01*
X110784238Y-82063523D01*
X110784238Y-81873047D01*
X110746142Y-81796857D01*
X110708047Y-81758761D01*
X110631857Y-81720666D01*
X110479476Y-81720666D01*
X110403285Y-81758761D01*
X110365190Y-81796857D01*
X110327095Y-81873047D01*
X111660428Y-81415904D02*
X112193761Y-81415904D01*
X111850904Y-82215904D01*
X113222333Y-81758761D02*
X113146142Y-81720666D01*
X113108047Y-81682571D01*
X113069952Y-81606380D01*
X113069952Y-81568285D01*
X113108047Y-81492095D01*
X113146142Y-81454000D01*
X113222333Y-81415904D01*
X113374714Y-81415904D01*
X113450904Y-81454000D01*
X113489000Y-81492095D01*
X113527095Y-81568285D01*
X113527095Y-81606380D01*
X113489000Y-81682571D01*
X113450904Y-81720666D01*
X113374714Y-81758761D01*
X113222333Y-81758761D01*
X113146142Y-81796857D01*
X113108047Y-81834952D01*
X113069952Y-81911142D01*
X113069952Y-82063523D01*
X113108047Y-82139714D01*
X113146142Y-82177809D01*
X113222333Y-82215904D01*
X113374714Y-82215904D01*
X113450904Y-82177809D01*
X113489000Y-82139714D01*
X113527095Y-82063523D01*
X113527095Y-81911142D01*
X113489000Y-81834952D01*
X113450904Y-81796857D01*
X113374714Y-81758761D01*
D12*
X98197380Y-13599380D02*
X97864047Y-13123190D01*
X97625952Y-13599380D02*
X97625952Y-12599380D01*
X98006904Y-12599380D01*
X98102142Y-12647000D01*
X98149761Y-12694619D01*
X98197380Y-12789857D01*
X98197380Y-12932714D01*
X98149761Y-13027952D01*
X98102142Y-13075571D01*
X98006904Y-13123190D01*
X97625952Y-13123190D01*
X98578333Y-13551761D02*
X98721190Y-13599380D01*
X98959285Y-13599380D01*
X99054523Y-13551761D01*
X99102142Y-13504142D01*
X99149761Y-13408904D01*
X99149761Y-13313666D01*
X99102142Y-13218428D01*
X99054523Y-13170809D01*
X98959285Y-13123190D01*
X98768809Y-13075571D01*
X98673571Y-13027952D01*
X98625952Y-12980333D01*
X98578333Y-12885095D01*
X98578333Y-12789857D01*
X98625952Y-12694619D01*
X98673571Y-12647000D01*
X98768809Y-12599380D01*
X99006904Y-12599380D01*
X99149761Y-12647000D01*
X99435476Y-12599380D02*
X100006904Y-12599380D01*
X99721190Y-13599380D02*
X99721190Y-12599380D01*
X128151885Y-10789619D02*
X128199504Y-10742000D01*
X128294742Y-10694380D01*
X128532838Y-10694380D01*
X128628076Y-10742000D01*
X128675695Y-10789619D01*
X128723314Y-10884857D01*
X128723314Y-10980095D01*
X128675695Y-11122952D01*
X128104266Y-11694380D01*
X128723314Y-11694380D01*
X98903714Y-8355180D02*
X98332285Y-8355180D01*
X98618000Y-8355180D02*
X98618000Y-7355180D01*
X98522761Y-7498038D01*
X98427523Y-7593276D01*
X98332285Y-7640895D01*
D13*
X160022571Y-83993142D02*
X161165428Y-83993142D01*
D10*
X153992047Y-57477248D02*
X154039666Y-57382010D01*
X154039666Y-57239153D01*
X153992047Y-57096295D01*
X153896808Y-57001057D01*
X153801570Y-56953438D01*
X153611094Y-56905819D01*
X153468237Y-56905819D01*
X153277761Y-56953438D01*
X153182523Y-57001057D01*
X153087285Y-57096295D01*
X153039666Y-57239153D01*
X153039666Y-57334391D01*
X153087285Y-57477248D01*
X153134904Y-57524867D01*
X153468237Y-57524867D01*
X153468237Y-57334391D01*
X153039666Y-57953438D02*
X154039666Y-57953438D01*
X153039666Y-58524867D01*
X154039666Y-58524867D01*
X153039666Y-59001057D02*
X154039666Y-59001057D01*
X154039666Y-59239153D01*
X153992047Y-59382010D01*
X153896808Y-59477248D01*
X153801570Y-59524867D01*
X153611094Y-59572486D01*
X153468237Y-59572486D01*
X153277761Y-59524867D01*
X153182523Y-59477248D01*
X153087285Y-59382010D01*
X153039666Y-59239153D01*
X153039666Y-59001057D01*
X106741180Y-21692438D02*
X106741180Y-22263866D01*
X106741180Y-21978152D02*
X105741180Y-21978152D01*
X105884038Y-22073390D01*
X105979276Y-22168628D01*
X106026895Y-22263866D01*
X105741180Y-21073390D02*
X105741180Y-20978152D01*
X105788800Y-20882914D01*
X105836419Y-20835295D01*
X105931657Y-20787676D01*
X106122133Y-20740057D01*
X106360228Y-20740057D01*
X106550704Y-20787676D01*
X106645942Y-20835295D01*
X106693561Y-20882914D01*
X106741180Y-20978152D01*
X106741180Y-21073390D01*
X106693561Y-21168628D01*
X106645942Y-21216247D01*
X106550704Y-21263866D01*
X106360228Y-21311485D01*
X106122133Y-21311485D01*
X105931657Y-21263866D01*
X105836419Y-21216247D01*
X105788800Y-21168628D01*
X105741180Y-21073390D01*
X106741180Y-20311485D02*
X105741180Y-20311485D01*
X106360228Y-20216247D02*
X106741180Y-19930533D01*
X106074514Y-19930533D02*
X106455466Y-20311485D01*
X152816780Y-10539961D02*
X151816780Y-10539961D01*
X151912019Y-10111390D02*
X151864400Y-10063771D01*
X151816780Y-9968533D01*
X151816780Y-9730438D01*
X151864400Y-9635200D01*
X151912019Y-9587580D01*
X152007257Y-9539961D01*
X152102495Y-9539961D01*
X152245352Y-9587580D01*
X152816780Y-10159009D01*
X152816780Y-9539961D01*
X152721542Y-8539961D02*
X152769161Y-8587580D01*
X152816780Y-8730438D01*
X152816780Y-8825676D01*
X152769161Y-8968533D01*
X152673923Y-9063771D01*
X152578685Y-9111390D01*
X152388209Y-9159009D01*
X152245352Y-9159009D01*
X152054876Y-9111390D01*
X151959638Y-9063771D01*
X151864400Y-8968533D01*
X151816780Y-8825676D01*
X151816780Y-8730438D01*
X151864400Y-8587580D01*
X151912019Y-8539961D01*
X152816780Y-7349485D02*
X151816780Y-7349485D01*
X151816780Y-6968533D01*
X151864400Y-6873295D01*
X151912019Y-6825676D01*
X152007257Y-6778057D01*
X152150114Y-6778057D01*
X152245352Y-6825676D01*
X152292971Y-6873295D01*
X152340590Y-6968533D01*
X152340590Y-7349485D01*
X151769161Y-5635200D02*
X153054876Y-6492342D01*
X151816780Y-5301866D02*
X152626304Y-5301866D01*
X152721542Y-5254247D01*
X152769161Y-5206628D01*
X152816780Y-5111390D01*
X152816780Y-4920914D01*
X152769161Y-4825676D01*
X152721542Y-4778057D01*
X152626304Y-4730438D01*
X151816780Y-4730438D01*
D13*
X146274714Y-81278571D02*
X146274714Y-82278571D01*
X145917571Y-80707142D02*
X145560428Y-81778571D01*
X146489000Y-81778571D01*
D10*
X154094666Y-62143914D02*
X153094666Y-62477248D01*
X154094666Y-62810581D01*
X153094666Y-63143914D02*
X154094666Y-63143914D01*
X153094666Y-63620105D02*
X154094666Y-63620105D01*
X153094666Y-64191533D01*
X154094666Y-64191533D01*
X151484666Y-62667724D02*
X151484666Y-62096295D01*
X151484666Y-62382010D02*
X152484666Y-62382010D01*
X152341808Y-62286772D01*
X152246570Y-62191533D01*
X152198951Y-62096295D01*
X152389427Y-63048676D02*
X152437047Y-63096295D01*
X152484666Y-63191533D01*
X152484666Y-63429629D01*
X152437047Y-63524867D01*
X152389427Y-63572486D01*
X152294189Y-63620105D01*
X152198951Y-63620105D01*
X152056094Y-63572486D01*
X151484666Y-63001057D01*
X151484666Y-63620105D01*
X152151332Y-63953438D02*
X151484666Y-64191533D01*
X152151332Y-64429629D01*
D13*
X160022571Y-86660142D02*
X161165428Y-86660142D01*
X160594000Y-87231571D02*
X160594000Y-86088714D01*
D10*
X105142280Y-58909638D02*
X106142280Y-58576304D01*
X105142280Y-58242971D01*
X106142280Y-57909638D02*
X105142280Y-57909638D01*
X106142280Y-57433447D02*
X105142280Y-57433447D01*
X106142280Y-56862019D01*
X105142280Y-56862019D01*
X107752280Y-58385828D02*
X107752280Y-58957257D01*
X107752280Y-58671542D02*
X106752280Y-58671542D01*
X106895138Y-58766780D01*
X106990376Y-58862019D01*
X107037995Y-58957257D01*
X106847519Y-58004876D02*
X106799900Y-57957257D01*
X106752280Y-57862019D01*
X106752280Y-57623923D01*
X106799900Y-57528685D01*
X106847519Y-57481066D01*
X106942757Y-57433447D01*
X107037995Y-57433447D01*
X107180852Y-57481066D01*
X107752280Y-58052495D01*
X107752280Y-57433447D01*
X107085614Y-57100114D02*
X107752280Y-56862019D01*
X107085614Y-56623923D01*
D12*
X126660730Y-4955180D02*
X126755969Y-4955180D01*
X126851207Y-5002800D01*
X126898826Y-5050419D01*
X126946445Y-5145657D01*
X126994064Y-5336133D01*
X126994064Y-5574228D01*
X126946445Y-5764704D01*
X126898826Y-5859942D01*
X126851207Y-5907561D01*
X126755969Y-5955180D01*
X126660730Y-5955180D01*
X126565492Y-5907561D01*
X126517873Y-5859942D01*
X126470254Y-5764704D01*
X126422635Y-5574228D01*
X126422635Y-5336133D01*
X126470254Y-5145657D01*
X126517873Y-5050419D01*
X126565492Y-5002800D01*
X126660730Y-4955180D01*
D13*
X101078571Y-82151571D02*
X100221428Y-82151571D01*
X100650000Y-82151571D02*
X100650000Y-80651571D01*
X100507142Y-80865857D01*
X100364285Y-81008714D01*
X100221428Y-81080142D01*
D12*
X98205285Y-9950419D02*
X98252904Y-9902800D01*
X98348142Y-9855180D01*
X98586238Y-9855180D01*
X98681476Y-9902800D01*
X98729095Y-9950419D01*
X98776714Y-10045657D01*
X98776714Y-10140895D01*
X98729095Y-10283752D01*
X98157666Y-10855180D01*
X98776714Y-10855180D01*
X128570914Y-8087580D02*
X127999485Y-8087580D01*
X128285200Y-8087580D02*
X128285200Y-7087580D01*
X128189961Y-7230438D01*
X128094723Y-7325676D01*
X127999485Y-7373295D01*
D10*
X105244900Y-63391304D02*
X105197280Y-63486542D01*
X105197280Y-63629400D01*
X105244900Y-63772257D01*
X105340138Y-63867495D01*
X105435376Y-63915114D01*
X105625852Y-63962733D01*
X105768709Y-63962733D01*
X105959185Y-63915114D01*
X106054423Y-63867495D01*
X106149661Y-63772257D01*
X106197280Y-63629400D01*
X106197280Y-63534161D01*
X106149661Y-63391304D01*
X106102042Y-63343685D01*
X105768709Y-63343685D01*
X105768709Y-63534161D01*
X106197280Y-62915114D02*
X105197280Y-62915114D01*
X106197280Y-62343685D01*
X105197280Y-62343685D01*
X106197280Y-61867495D02*
X105197280Y-61867495D01*
X105197280Y-61629400D01*
X105244900Y-61486542D01*
X105340138Y-61391304D01*
X105435376Y-61343685D01*
X105625852Y-61296066D01*
X105768709Y-61296066D01*
X105959185Y-61343685D01*
X106054423Y-61391304D01*
X106149661Y-61486542D01*
X106197280Y-61629400D01*
X106197280Y-61867495D01*
D12*
X129058380Y-15250380D02*
X128725047Y-14774190D01*
X128486952Y-15250380D02*
X128486952Y-14250380D01*
X128867904Y-14250380D01*
X128963142Y-14298000D01*
X129010761Y-14345619D01*
X129058380Y-14440857D01*
X129058380Y-14583714D01*
X129010761Y-14678952D01*
X128963142Y-14726571D01*
X128867904Y-14774190D01*
X128486952Y-14774190D01*
X129439333Y-15202761D02*
X129582190Y-15250380D01*
X129820285Y-15250380D01*
X129915523Y-15202761D01*
X129963142Y-15155142D01*
X130010761Y-15059904D01*
X130010761Y-14964666D01*
X129963142Y-14869428D01*
X129915523Y-14821809D01*
X129820285Y-14774190D01*
X129629809Y-14726571D01*
X129534571Y-14678952D01*
X129486952Y-14631333D01*
X129439333Y-14536095D01*
X129439333Y-14440857D01*
X129486952Y-14345619D01*
X129534571Y-14298000D01*
X129629809Y-14250380D01*
X129867904Y-14250380D01*
X130010761Y-14298000D01*
X130296476Y-14250380D02*
X130867904Y-14250380D01*
X130582190Y-15250380D02*
X130582190Y-14250380D01*
D13*
X117620428Y-80794428D02*
X117691857Y-80723000D01*
X117834714Y-80651571D01*
X118191857Y-80651571D01*
X118334714Y-80723000D01*
X118406142Y-80794428D01*
X118477571Y-80937285D01*
X118477571Y-81080142D01*
X118406142Y-81294428D01*
X117549000Y-82151571D01*
X118477571Y-82151571D01*
X97919571Y-86787142D02*
X99062428Y-86787142D01*
X98491000Y-87358571D02*
X98491000Y-86215714D01*
X97919571Y-84120142D02*
X99062428Y-84120142D01*
X131646000Y-80651571D02*
X132574571Y-80651571D01*
X132074571Y-81223000D01*
X132288857Y-81223000D01*
X132431714Y-81294428D01*
X132503142Y-81365857D01*
X132574571Y-81508714D01*
X132574571Y-81865857D01*
X132503142Y-82008714D01*
X132431714Y-82080142D01*
X132288857Y-82151571D01*
X131860285Y-82151571D01*
X131717428Y-82080142D01*
X131646000Y-82008714D01*
D12*
X98443380Y-4855180D02*
X98538619Y-4855180D01*
X98633857Y-4902800D01*
X98681476Y-4950419D01*
X98729095Y-5045657D01*
X98776714Y-5236133D01*
X98776714Y-5474228D01*
X98729095Y-5664704D01*
X98681476Y-5759942D01*
X98633857Y-5807561D01*
X98538619Y-5855180D01*
X98443380Y-5855180D01*
X98348142Y-5807561D01*
X98300523Y-5759942D01*
X98252904Y-5664704D01*
X98205285Y-5474228D01*
X98205285Y-5236133D01*
X98252904Y-5045657D01*
X98300523Y-4950419D01*
X98348142Y-4902800D01*
X98443380Y-4855180D01*
D10*
%TO.C,D3*%
X145341371Y-64424780D02*
X144769942Y-64424780D01*
X145055657Y-64424780D02*
X145055657Y-63424780D01*
X144960419Y-63567638D01*
X144865180Y-63662876D01*
X144769942Y-63710495D01*
X145722323Y-63520019D02*
X145769942Y-63472400D01*
X145865180Y-63424780D01*
X146103276Y-63424780D01*
X146198514Y-63472400D01*
X146246133Y-63520019D01*
X146293752Y-63615257D01*
X146293752Y-63710495D01*
X146246133Y-63853352D01*
X145674704Y-64424780D01*
X146293752Y-64424780D01*
X146627085Y-63758114D02*
X146865180Y-64424780D01*
X147103276Y-63758114D01*
%TO.C,RN9*%
X109484380Y-25908838D02*
X109484380Y-26480266D01*
X109484380Y-26194552D02*
X108484380Y-26194552D01*
X108627238Y-26289790D01*
X108722476Y-26385028D01*
X108770095Y-26480266D01*
X108484380Y-25289790D02*
X108484380Y-25194552D01*
X108532000Y-25099314D01*
X108579619Y-25051695D01*
X108674857Y-25004076D01*
X108865333Y-24956457D01*
X109103428Y-24956457D01*
X109293904Y-25004076D01*
X109389142Y-25051695D01*
X109436761Y-25099314D01*
X109484380Y-25194552D01*
X109484380Y-25289790D01*
X109436761Y-25385028D01*
X109389142Y-25432647D01*
X109293904Y-25480266D01*
X109103428Y-25527885D01*
X108865333Y-25527885D01*
X108674857Y-25480266D01*
X108579619Y-25432647D01*
X108532000Y-25385028D01*
X108484380Y-25289790D01*
X109484380Y-24527885D02*
X108484380Y-24527885D01*
X109103428Y-24432647D02*
X109484380Y-24146933D01*
X108817714Y-24146933D02*
X109198666Y-24527885D01*
%TO.C,R5*%
X148522180Y-60503638D02*
X148522180Y-61075066D01*
X148522180Y-60789352D02*
X147522180Y-60789352D01*
X147665038Y-60884590D01*
X147760276Y-60979828D01*
X147807895Y-61075066D01*
X147522180Y-59884590D02*
X147522180Y-59789352D01*
X147569800Y-59694114D01*
X147617419Y-59646495D01*
X147712657Y-59598876D01*
X147903133Y-59551257D01*
X148141228Y-59551257D01*
X148331704Y-59598876D01*
X148426942Y-59646495D01*
X148474561Y-59694114D01*
X148522180Y-59789352D01*
X148522180Y-59884590D01*
X148474561Y-59979828D01*
X148426942Y-60027447D01*
X148331704Y-60075066D01*
X148141228Y-60122685D01*
X147903133Y-60122685D01*
X147712657Y-60075066D01*
X147617419Y-60027447D01*
X147569800Y-59979828D01*
X147522180Y-59884590D01*
X148522180Y-59122685D02*
X147522180Y-59122685D01*
X148141228Y-59027447D02*
X148522180Y-58741733D01*
X147855514Y-58741733D02*
X148236466Y-59122685D01*
%TO.C,D2*%
X130631542Y-63424780D02*
X130155352Y-63424780D01*
X130107733Y-63900971D01*
X130155352Y-63853352D01*
X130250590Y-63805733D01*
X130488685Y-63805733D01*
X130583923Y-63853352D01*
X130631542Y-63900971D01*
X130679161Y-63996209D01*
X130679161Y-64234304D01*
X130631542Y-64329542D01*
X130583923Y-64377161D01*
X130488685Y-64424780D01*
X130250590Y-64424780D01*
X130155352Y-64377161D01*
X130107733Y-64329542D01*
X131012495Y-63758114D02*
X131250590Y-64424780D01*
X131488685Y-63758114D01*
%TO.C,C1*%
X120374380Y-5527561D02*
X120374380Y-6098990D01*
X120374380Y-5813276D02*
X119374380Y-5813276D01*
X119517238Y-5908514D01*
X119612476Y-6003752D01*
X119660095Y-6098990D01*
X119374380Y-4908514D02*
X119374380Y-4813276D01*
X119422000Y-4718038D01*
X119469619Y-4670419D01*
X119564857Y-4622800D01*
X119755333Y-4575180D01*
X119993428Y-4575180D01*
X120183904Y-4622800D01*
X120279142Y-4670419D01*
X120326761Y-4718038D01*
X120374380Y-4813276D01*
X120374380Y-4908514D01*
X120326761Y-5003752D01*
X120279142Y-5051371D01*
X120183904Y-5098990D01*
X119993428Y-5146609D01*
X119755333Y-5146609D01*
X119564857Y-5098990D01*
X119469619Y-5051371D01*
X119422000Y-5003752D01*
X119374380Y-4908514D01*
X119374380Y-3956133D02*
X119374380Y-3860895D01*
X119422000Y-3765657D01*
X119469619Y-3718038D01*
X119564857Y-3670419D01*
X119755333Y-3622800D01*
X119993428Y-3622800D01*
X120183904Y-3670419D01*
X120279142Y-3718038D01*
X120326761Y-3765657D01*
X120374380Y-3860895D01*
X120374380Y-3956133D01*
X120326761Y-4051371D01*
X120279142Y-4098990D01*
X120183904Y-4146609D01*
X119993428Y-4194228D01*
X119755333Y-4194228D01*
X119564857Y-4146609D01*
X119469619Y-4098990D01*
X119422000Y-4051371D01*
X119374380Y-3956133D01*
X119707714Y-3194228D02*
X120374380Y-3194228D01*
X119802952Y-3194228D02*
X119755333Y-3146609D01*
X119707714Y-3051371D01*
X119707714Y-2908514D01*
X119755333Y-2813276D01*
X119850571Y-2765657D01*
X120374380Y-2765657D01*
X119707714Y-2432323D02*
X119707714Y-2051371D01*
X120374380Y-2289466D02*
X119517238Y-2289466D01*
X119422000Y-2241847D01*
X119374380Y-2146609D01*
X119374380Y-2051371D01*
%TO.C,RN1*%
X114278761Y-2282380D02*
X113707333Y-2282380D01*
X113993047Y-2282380D02*
X113993047Y-1282380D01*
X113897809Y-1425238D01*
X113802571Y-1520476D01*
X113707333Y-1568095D01*
X114897809Y-1282380D02*
X114993047Y-1282380D01*
X115088285Y-1330000D01*
X115135904Y-1377619D01*
X115183523Y-1472857D01*
X115231142Y-1663333D01*
X115231142Y-1901428D01*
X115183523Y-2091904D01*
X115135904Y-2187142D01*
X115088285Y-2234761D01*
X114993047Y-2282380D01*
X114897809Y-2282380D01*
X114802571Y-2234761D01*
X114754952Y-2187142D01*
X114707333Y-2091904D01*
X114659714Y-1901428D01*
X114659714Y-1663333D01*
X114707333Y-1472857D01*
X114754952Y-1377619D01*
X114802571Y-1330000D01*
X114897809Y-1282380D01*
X115659714Y-2282380D02*
X115659714Y-1282380D01*
X115754952Y-1901428D02*
X116040666Y-2282380D01*
X116040666Y-1615714D02*
X115659714Y-1996666D01*
%TO.C,C9*%
X141132971Y-64475580D02*
X140561542Y-64475580D01*
X140847257Y-64475580D02*
X140847257Y-63475580D01*
X140752019Y-63618438D01*
X140656780Y-63713676D01*
X140561542Y-63761295D01*
X141752019Y-63475580D02*
X141847257Y-63475580D01*
X141942495Y-63523200D01*
X141990114Y-63570819D01*
X142037733Y-63666057D01*
X142085352Y-63856533D01*
X142085352Y-64094628D01*
X142037733Y-64285104D01*
X141990114Y-64380342D01*
X141942495Y-64427961D01*
X141847257Y-64475580D01*
X141752019Y-64475580D01*
X141656780Y-64427961D01*
X141609161Y-64380342D01*
X141561542Y-64285104D01*
X141513923Y-64094628D01*
X141513923Y-63856533D01*
X141561542Y-63666057D01*
X141609161Y-63570819D01*
X141656780Y-63523200D01*
X141752019Y-63475580D01*
X142942495Y-63808914D02*
X142942495Y-64475580D01*
X142513923Y-63808914D02*
X142513923Y-64332723D01*
X142561542Y-64427961D01*
X142656780Y-64475580D01*
X142799638Y-64475580D01*
X142894876Y-64427961D01*
X142942495Y-64380342D01*
X143752019Y-63951771D02*
X143418685Y-63951771D01*
X143418685Y-64475580D02*
X143418685Y-63475580D01*
X143894876Y-63475580D01*
%TO.C,R4*%
X153028111Y-16848680D02*
X152456683Y-16848680D01*
X152742397Y-16848680D02*
X152742397Y-15848680D01*
X152647159Y-15991538D01*
X152551921Y-16086776D01*
X152456683Y-16134395D01*
X153647159Y-15848680D02*
X153742397Y-15848680D01*
X153837635Y-15896300D01*
X153885254Y-15943919D01*
X153932873Y-16039157D01*
X153980492Y-16229633D01*
X153980492Y-16467728D01*
X153932873Y-16658204D01*
X153885254Y-16753442D01*
X153837635Y-16801061D01*
X153742397Y-16848680D01*
X153647159Y-16848680D01*
X153551921Y-16801061D01*
X153504302Y-16753442D01*
X153456683Y-16658204D01*
X153409064Y-16467728D01*
X153409064Y-16229633D01*
X153456683Y-16039157D01*
X153504302Y-15943919D01*
X153551921Y-15896300D01*
X153647159Y-15848680D01*
X154409064Y-16848680D02*
X154409064Y-15848680D01*
X154504302Y-16467728D02*
X154790016Y-16848680D01*
X154790016Y-16182014D02*
X154409064Y-16562966D01*
%TO.C,U2*%
X135368342Y-57290380D02*
X134892152Y-57290380D01*
X134844533Y-57766571D01*
X134892152Y-57718952D01*
X134987390Y-57671333D01*
X135225485Y-57671333D01*
X135320723Y-57718952D01*
X135368342Y-57766571D01*
X135415961Y-57861809D01*
X135415961Y-58099904D01*
X135368342Y-58195142D01*
X135320723Y-58242761D01*
X135225485Y-58290380D01*
X134987390Y-58290380D01*
X134892152Y-58242761D01*
X134844533Y-58195142D01*
X135749295Y-57623714D02*
X135987390Y-58290380D01*
X136225485Y-57623714D01*
%TO.C,C7*%
X132738342Y-60593619D02*
X132785961Y-60546000D01*
X132881200Y-60498380D01*
X133119295Y-60498380D01*
X133214533Y-60546000D01*
X133262152Y-60593619D01*
X133309771Y-60688857D01*
X133309771Y-60784095D01*
X133262152Y-60926952D01*
X132690723Y-61498380D01*
X133309771Y-61498380D01*
X133690723Y-60593619D02*
X133738342Y-60546000D01*
X133833580Y-60498380D01*
X134071676Y-60498380D01*
X134166914Y-60546000D01*
X134214533Y-60593619D01*
X134262152Y-60688857D01*
X134262152Y-60784095D01*
X134214533Y-60926952D01*
X133643104Y-61498380D01*
X134262152Y-61498380D01*
X135119295Y-60831714D02*
X135119295Y-61498380D01*
X134690723Y-60831714D02*
X134690723Y-61355523D01*
X134738342Y-61450761D01*
X134833580Y-61498380D01*
X134976438Y-61498380D01*
X135071676Y-61450761D01*
X135119295Y-61403142D01*
X135928819Y-60974571D02*
X135595485Y-60974571D01*
X135595485Y-61498380D02*
X135595485Y-60498380D01*
X136071676Y-60498380D01*
%TO.C,C8*%
X132725342Y-63387619D02*
X132772961Y-63340000D01*
X132868200Y-63292380D01*
X133106295Y-63292380D01*
X133201533Y-63340000D01*
X133249152Y-63387619D01*
X133296771Y-63482857D01*
X133296771Y-63578095D01*
X133249152Y-63720952D01*
X132677723Y-64292380D01*
X133296771Y-64292380D01*
X133677723Y-63387619D02*
X133725342Y-63340000D01*
X133820580Y-63292380D01*
X134058676Y-63292380D01*
X134153914Y-63340000D01*
X134201533Y-63387619D01*
X134249152Y-63482857D01*
X134249152Y-63578095D01*
X134201533Y-63720952D01*
X133630104Y-64292380D01*
X134249152Y-64292380D01*
X135106295Y-63625714D02*
X135106295Y-64292380D01*
X134677723Y-63625714D02*
X134677723Y-64149523D01*
X134725342Y-64244761D01*
X134820580Y-64292380D01*
X134963438Y-64292380D01*
X135058676Y-64244761D01*
X135106295Y-64197142D01*
X135915819Y-63768571D02*
X135582485Y-63768571D01*
X135582485Y-64292380D02*
X135582485Y-63292380D01*
X136058676Y-63292380D01*
%TO.C,L1*%
X135265485Y-48220714D02*
X135265485Y-48887380D01*
X135027390Y-47839761D02*
X134789295Y-48554047D01*
X135408342Y-48554047D01*
X135789295Y-48792142D02*
X135836914Y-48839761D01*
X135789295Y-48887380D01*
X135741676Y-48839761D01*
X135789295Y-48792142D01*
X135789295Y-48887380D01*
X136170247Y-47887380D02*
X136836914Y-47887380D01*
X136408342Y-48887380D01*
X137646438Y-48220714D02*
X137646438Y-48887380D01*
X137217866Y-48220714D02*
X137217866Y-48744523D01*
X137265485Y-48839761D01*
X137360723Y-48887380D01*
X137503580Y-48887380D01*
X137598819Y-48839761D01*
X137646438Y-48792142D01*
X138122628Y-48887380D02*
X138122628Y-47887380D01*
X138122628Y-48363571D02*
X138694057Y-48363571D01*
X138694057Y-48887380D02*
X138694057Y-47887380D01*
X139836914Y-47887380D02*
X140455961Y-47887380D01*
X140122628Y-48268333D01*
X140265485Y-48268333D01*
X140360723Y-48315952D01*
X140408342Y-48363571D01*
X140455961Y-48458809D01*
X140455961Y-48696904D01*
X140408342Y-48792142D01*
X140360723Y-48839761D01*
X140265485Y-48887380D01*
X139979771Y-48887380D01*
X139884533Y-48839761D01*
X139836914Y-48792142D01*
X140836914Y-48601666D02*
X141313104Y-48601666D01*
X140741676Y-48887380D02*
X141075009Y-47887380D01*
X141408342Y-48887380D01*
%TO.C,C5*%
X118297904Y-51301980D02*
X118916952Y-51301980D01*
X118583619Y-51682933D01*
X118726476Y-51682933D01*
X118821714Y-51730552D01*
X118869333Y-51778171D01*
X118916952Y-51873409D01*
X118916952Y-52111504D01*
X118869333Y-52206742D01*
X118821714Y-52254361D01*
X118726476Y-52301980D01*
X118440761Y-52301980D01*
X118345523Y-52254361D01*
X118297904Y-52206742D01*
X119250285Y-51301980D02*
X119869333Y-51301980D01*
X119536000Y-51682933D01*
X119678857Y-51682933D01*
X119774095Y-51730552D01*
X119821714Y-51778171D01*
X119869333Y-51873409D01*
X119869333Y-52111504D01*
X119821714Y-52206742D01*
X119774095Y-52254361D01*
X119678857Y-52301980D01*
X119393142Y-52301980D01*
X119297904Y-52254361D01*
X119250285Y-52206742D01*
X120488380Y-51301980D02*
X120583619Y-51301980D01*
X120678857Y-51349600D01*
X120726476Y-51397219D01*
X120774095Y-51492457D01*
X120821714Y-51682933D01*
X120821714Y-51921028D01*
X120774095Y-52111504D01*
X120726476Y-52206742D01*
X120678857Y-52254361D01*
X120583619Y-52301980D01*
X120488380Y-52301980D01*
X120393142Y-52254361D01*
X120345523Y-52206742D01*
X120297904Y-52111504D01*
X120250285Y-51921028D01*
X120250285Y-51682933D01*
X120297904Y-51492457D01*
X120345523Y-51397219D01*
X120393142Y-51349600D01*
X120488380Y-51301980D01*
X121678857Y-51635314D02*
X121678857Y-52301980D01*
X121250285Y-51635314D02*
X121250285Y-52159123D01*
X121297904Y-52254361D01*
X121393142Y-52301980D01*
X121536000Y-52301980D01*
X121631238Y-52254361D01*
X121678857Y-52206742D01*
X122012190Y-51635314D02*
X122393142Y-51635314D01*
X122155047Y-52301980D02*
X122155047Y-51444838D01*
X122202666Y-51349600D01*
X122297904Y-51301980D01*
X122393142Y-51301980D01*
X123964571Y-51301980D02*
X123488380Y-51301980D01*
X123440761Y-51778171D01*
X123488380Y-51730552D01*
X123583619Y-51682933D01*
X123821714Y-51682933D01*
X123916952Y-51730552D01*
X123964571Y-51778171D01*
X124012190Y-51873409D01*
X124012190Y-52111504D01*
X123964571Y-52206742D01*
X123916952Y-52254361D01*
X123821714Y-52301980D01*
X123583619Y-52301980D01*
X123488380Y-52254361D01*
X123440761Y-52206742D01*
X124631238Y-51301980D02*
X124726476Y-51301980D01*
X124821714Y-51349600D01*
X124869333Y-51397219D01*
X124916952Y-51492457D01*
X124964571Y-51682933D01*
X124964571Y-51921028D01*
X124916952Y-52111504D01*
X124869333Y-52206742D01*
X124821714Y-52254361D01*
X124726476Y-52301980D01*
X124631238Y-52301980D01*
X124536000Y-52254361D01*
X124488380Y-52206742D01*
X124440761Y-52111504D01*
X124393142Y-51921028D01*
X124393142Y-51682933D01*
X124440761Y-51492457D01*
X124488380Y-51397219D01*
X124536000Y-51349600D01*
X124631238Y-51301980D01*
X125297904Y-51635314D02*
X125536000Y-52301980D01*
X125774095Y-51635314D01*
%TO.C,R3*%
X153028111Y-18753680D02*
X152456683Y-18753680D01*
X152742397Y-18753680D02*
X152742397Y-17753680D01*
X152647159Y-17896538D01*
X152551921Y-17991776D01*
X152456683Y-18039395D01*
X153647159Y-17753680D02*
X153742397Y-17753680D01*
X153837635Y-17801300D01*
X153885254Y-17848919D01*
X153932873Y-17944157D01*
X153980492Y-18134633D01*
X153980492Y-18372728D01*
X153932873Y-18563204D01*
X153885254Y-18658442D01*
X153837635Y-18706061D01*
X153742397Y-18753680D01*
X153647159Y-18753680D01*
X153551921Y-18706061D01*
X153504302Y-18658442D01*
X153456683Y-18563204D01*
X153409064Y-18372728D01*
X153409064Y-18134633D01*
X153456683Y-17944157D01*
X153504302Y-17848919D01*
X153551921Y-17801300D01*
X153647159Y-17753680D01*
X154409064Y-18753680D02*
X154409064Y-17753680D01*
X154504302Y-18372728D02*
X154790016Y-18753680D01*
X154790016Y-18087014D02*
X154409064Y-18467966D01*
%TO.C,U1*%
X116554761Y-26353380D02*
X116554761Y-25353380D01*
X116888095Y-26067666D01*
X117221428Y-25353380D01*
X117221428Y-26353380D01*
X118269047Y-26258142D02*
X118221428Y-26305761D01*
X118078571Y-26353380D01*
X117983333Y-26353380D01*
X117840476Y-26305761D01*
X117745238Y-26210523D01*
X117697619Y-26115285D01*
X117650000Y-25924809D01*
X117650000Y-25781952D01*
X117697619Y-25591476D01*
X117745238Y-25496238D01*
X117840476Y-25401000D01*
X117983333Y-25353380D01*
X118078571Y-25353380D01*
X118221428Y-25401000D01*
X118269047Y-25448619D01*
X118697619Y-26353380D02*
X118697619Y-25353380D01*
X119078571Y-25353380D01*
X119173809Y-25401000D01*
X119221428Y-25448619D01*
X119269047Y-25543857D01*
X119269047Y-25686714D01*
X119221428Y-25781952D01*
X119173809Y-25829571D01*
X119078571Y-25877190D01*
X118697619Y-25877190D01*
X119650000Y-25448619D02*
X119697619Y-25401000D01*
X119792857Y-25353380D01*
X120030952Y-25353380D01*
X120126190Y-25401000D01*
X120173809Y-25448619D01*
X120221428Y-25543857D01*
X120221428Y-25639095D01*
X120173809Y-25781952D01*
X119602380Y-26353380D01*
X120221428Y-26353380D01*
X120554761Y-25353380D02*
X121173809Y-25353380D01*
X120840476Y-25734333D01*
X120983333Y-25734333D01*
X121078571Y-25781952D01*
X121126190Y-25829571D01*
X121173809Y-25924809D01*
X121173809Y-26162904D01*
X121126190Y-26258142D01*
X121078571Y-26305761D01*
X120983333Y-26353380D01*
X120697619Y-26353380D01*
X120602380Y-26305761D01*
X120554761Y-26258142D01*
X121792857Y-25353380D02*
X121888095Y-25353380D01*
X121983333Y-25401000D01*
X122030952Y-25448619D01*
X122078571Y-25543857D01*
X122126190Y-25734333D01*
X122126190Y-25972428D01*
X122078571Y-26162904D01*
X122030952Y-26258142D01*
X121983333Y-26305761D01*
X121888095Y-26353380D01*
X121792857Y-26353380D01*
X121697619Y-26305761D01*
X121650000Y-26258142D01*
X121602380Y-26162904D01*
X121554761Y-25972428D01*
X121554761Y-25734333D01*
X121602380Y-25543857D01*
X121650000Y-25448619D01*
X121697619Y-25401000D01*
X121792857Y-25353380D01*
X123078571Y-26353380D02*
X122507142Y-26353380D01*
X122792857Y-26353380D02*
X122792857Y-25353380D01*
X122697619Y-25496238D01*
X122602380Y-25591476D01*
X122507142Y-25639095D01*
X123411904Y-25353380D02*
X124078571Y-25353380D01*
X123650000Y-26353380D01*
X124221428Y-26448619D02*
X124983333Y-26448619D01*
X125173809Y-26305761D02*
X125316666Y-26353380D01*
X125554761Y-26353380D01*
X125650000Y-26305761D01*
X125697619Y-26258142D01*
X125745238Y-26162904D01*
X125745238Y-26067666D01*
X125697619Y-25972428D01*
X125650000Y-25924809D01*
X125554761Y-25877190D01*
X125364285Y-25829571D01*
X125269047Y-25781952D01*
X125221428Y-25734333D01*
X125173809Y-25639095D01*
X125173809Y-25543857D01*
X125221428Y-25448619D01*
X125269047Y-25401000D01*
X125364285Y-25353380D01*
X125602380Y-25353380D01*
X125745238Y-25401000D01*
X126364285Y-25353380D02*
X126554761Y-25353380D01*
X126650000Y-25401000D01*
X126745238Y-25496238D01*
X126792857Y-25686714D01*
X126792857Y-26020047D01*
X126745238Y-26210523D01*
X126650000Y-26305761D01*
X126554761Y-26353380D01*
X126364285Y-26353380D01*
X126269047Y-26305761D01*
X126173809Y-26210523D01*
X126126190Y-26020047D01*
X126126190Y-25686714D01*
X126173809Y-25496238D01*
X126269047Y-25401000D01*
X126364285Y-25353380D01*
%TO.C,RN3*%
X134528780Y-26059238D02*
X134528780Y-26630666D01*
X134528780Y-26344952D02*
X133528780Y-26344952D01*
X133671638Y-26440190D01*
X133766876Y-26535428D01*
X133814495Y-26630666D01*
X133528780Y-25440190D02*
X133528780Y-25344952D01*
X133576400Y-25249714D01*
X133624019Y-25202095D01*
X133719257Y-25154476D01*
X133909733Y-25106857D01*
X134147828Y-25106857D01*
X134338304Y-25154476D01*
X134433542Y-25202095D01*
X134481161Y-25249714D01*
X134528780Y-25344952D01*
X134528780Y-25440190D01*
X134481161Y-25535428D01*
X134433542Y-25583047D01*
X134338304Y-25630666D01*
X134147828Y-25678285D01*
X133909733Y-25678285D01*
X133719257Y-25630666D01*
X133624019Y-25583047D01*
X133576400Y-25535428D01*
X133528780Y-25440190D01*
X134528780Y-24678285D02*
X133528780Y-24678285D01*
X134147828Y-24583047D02*
X134528780Y-24297333D01*
X133862114Y-24297333D02*
X134243066Y-24678285D01*
%TO.C,RN11*%
X129931380Y-25083035D02*
X129931380Y-25654464D01*
X129931380Y-25368749D02*
X128931380Y-25368749D01*
X129074238Y-25463988D01*
X129169476Y-25559226D01*
X129217095Y-25654464D01*
X129931380Y-24654464D02*
X128931380Y-24654464D01*
X129550428Y-24559226D02*
X129931380Y-24273511D01*
X129264714Y-24273511D02*
X129645666Y-24654464D01*
%TO.C,RN12*%
X114107180Y-24981447D02*
X114107180Y-25552876D01*
X114107180Y-25267161D02*
X113107180Y-25267161D01*
X113250038Y-25362400D01*
X113345276Y-25457638D01*
X113392895Y-25552876D01*
X114107180Y-24552876D02*
X113107180Y-24552876D01*
X113726228Y-24457638D02*
X114107180Y-24171923D01*
X113440514Y-24171923D02*
X113821466Y-24552876D01*
%TO.C,C6*%
X136770580Y-57261980D02*
X136199152Y-57261980D01*
X136484866Y-57261980D02*
X136484866Y-56261980D01*
X136389628Y-56404838D01*
X136294390Y-56500076D01*
X136199152Y-56547695D01*
X137389628Y-56261980D02*
X137484866Y-56261980D01*
X137580104Y-56309600D01*
X137627723Y-56357219D01*
X137675342Y-56452457D01*
X137722961Y-56642933D01*
X137722961Y-56881028D01*
X137675342Y-57071504D01*
X137627723Y-57166742D01*
X137580104Y-57214361D01*
X137484866Y-57261980D01*
X137389628Y-57261980D01*
X137294390Y-57214361D01*
X137246771Y-57166742D01*
X137199152Y-57071504D01*
X137151533Y-56881028D01*
X137151533Y-56642933D01*
X137199152Y-56452457D01*
X137246771Y-56357219D01*
X137294390Y-56309600D01*
X137389628Y-56261980D01*
X138342009Y-56261980D02*
X138437247Y-56261980D01*
X138532485Y-56309600D01*
X138580104Y-56357219D01*
X138627723Y-56452457D01*
X138675342Y-56642933D01*
X138675342Y-56881028D01*
X138627723Y-57071504D01*
X138580104Y-57166742D01*
X138532485Y-57214361D01*
X138437247Y-57261980D01*
X138342009Y-57261980D01*
X138246771Y-57214361D01*
X138199152Y-57166742D01*
X138151533Y-57071504D01*
X138103914Y-56881028D01*
X138103914Y-56642933D01*
X138151533Y-56452457D01*
X138199152Y-56357219D01*
X138246771Y-56309600D01*
X138342009Y-56261980D01*
X139103914Y-56595314D02*
X139103914Y-57261980D01*
X139103914Y-56690552D02*
X139151533Y-56642933D01*
X139246771Y-56595314D01*
X139389628Y-56595314D01*
X139484866Y-56642933D01*
X139532485Y-56738171D01*
X139532485Y-57261980D01*
X140342009Y-56738171D02*
X140008676Y-56738171D01*
X140008676Y-57261980D02*
X140008676Y-56261980D01*
X140484866Y-56261980D01*
%TO.C,C3*%
X132217380Y-10043761D02*
X132217380Y-10615190D01*
X132217380Y-10329476D02*
X131217380Y-10329476D01*
X131360238Y-10424714D01*
X131455476Y-10519952D01*
X131503095Y-10615190D01*
X131217380Y-9424714D02*
X131217380Y-9329476D01*
X131265000Y-9234238D01*
X131312619Y-9186619D01*
X131407857Y-9139000D01*
X131598333Y-9091380D01*
X131836428Y-9091380D01*
X132026904Y-9139000D01*
X132122142Y-9186619D01*
X132169761Y-9234238D01*
X132217380Y-9329476D01*
X132217380Y-9424714D01*
X132169761Y-9519952D01*
X132122142Y-9567571D01*
X132026904Y-9615190D01*
X131836428Y-9662809D01*
X131598333Y-9662809D01*
X131407857Y-9615190D01*
X131312619Y-9567571D01*
X131265000Y-9519952D01*
X131217380Y-9424714D01*
X131217380Y-8472333D02*
X131217380Y-8377095D01*
X131265000Y-8281857D01*
X131312619Y-8234238D01*
X131407857Y-8186619D01*
X131598333Y-8139000D01*
X131836428Y-8139000D01*
X132026904Y-8186619D01*
X132122142Y-8234238D01*
X132169761Y-8281857D01*
X132217380Y-8377095D01*
X132217380Y-8472333D01*
X132169761Y-8567571D01*
X132122142Y-8615190D01*
X132026904Y-8662809D01*
X131836428Y-8710428D01*
X131598333Y-8710428D01*
X131407857Y-8662809D01*
X131312619Y-8615190D01*
X131265000Y-8567571D01*
X131217380Y-8472333D01*
X131550714Y-7710428D02*
X132217380Y-7710428D01*
X131645952Y-7710428D02*
X131598333Y-7662809D01*
X131550714Y-7567571D01*
X131550714Y-7424714D01*
X131598333Y-7329476D01*
X131693571Y-7281857D01*
X132217380Y-7281857D01*
X131550714Y-6948523D02*
X131550714Y-6567571D01*
X132217380Y-6805666D02*
X131360238Y-6805666D01*
X131265000Y-6758047D01*
X131217380Y-6662809D01*
X131217380Y-6567571D01*
%TO.C,R1*%
X128418914Y-60887771D02*
X129085580Y-60887771D01*
X128037961Y-61125866D02*
X128752247Y-61363961D01*
X128752247Y-60744914D01*
X128990342Y-60363961D02*
X129037961Y-60316342D01*
X129085580Y-60363961D01*
X129037961Y-60411580D01*
X128990342Y-60363961D01*
X129085580Y-60363961D01*
X128085580Y-59983009D02*
X128085580Y-59316342D01*
X129085580Y-59744914D01*
X129085580Y-58935390D02*
X128085580Y-58935390D01*
X128704628Y-58840152D02*
X129085580Y-58554438D01*
X128418914Y-58554438D02*
X128799866Y-58935390D01*
D14*
%TO.C,J1*%
X163223600Y-24574000D02*
X163223600Y-40074000D01*
X161913600Y-25874000D02*
X161913600Y-30274000D01*
X154103600Y-24574000D02*
X163223600Y-24574000D01*
X161913600Y-38774000D02*
X155413600Y-38774000D01*
X161913600Y-30274000D02*
X161913600Y-30274000D01*
X163223600Y-40074000D02*
X154103600Y-40074000D01*
X155413600Y-25874000D02*
X161913600Y-25874000D01*
X161913600Y-34374000D02*
X161913600Y-38774000D01*
X154103600Y-40074000D02*
X154103600Y-24574000D01*
X155413600Y-38774000D02*
X155413600Y-25874000D01*
X161913600Y-30274000D02*
X163223600Y-30274000D01*
X163223600Y-34374000D02*
X161913600Y-34374000D01*
%TO.C,LED56*%
X117249000Y-69254000D02*
X119534000Y-69254000D01*
X119534000Y-69254000D02*
X119534000Y-67784000D01*
X119534000Y-67784000D02*
X117249000Y-67784000D01*
%TO.C,TH59*%
X131480742Y-77990900D02*
X131955258Y-77990900D01*
X131480742Y-76945900D02*
X131955258Y-76945900D01*
%TO.C,D57*%
X120722150Y-78631000D02*
X123962150Y-78631000D01*
X120722150Y-78631000D02*
X120722150Y-80251000D01*
X120722150Y-80251000D02*
X123962150Y-80251000D01*
%TO.C,D61*%
X138347000Y-78631000D02*
X141587000Y-78631000D01*
X138347000Y-78631000D02*
X138347000Y-80251000D01*
X138347000Y-80251000D02*
X141587000Y-80251000D01*
%TO.C,U5*%
X140404000Y-38200000D02*
X140199000Y-38200000D01*
X129984000Y-40960000D02*
X129984000Y-38200000D01*
X129984000Y-43720000D02*
X130189000Y-43720000D01*
X140404000Y-40960000D02*
X140404000Y-38200000D01*
X129984000Y-38200000D02*
X130189000Y-38200000D01*
X140404000Y-43720000D02*
X140199000Y-43720000D01*
X140199000Y-38200000D02*
X140199000Y-36510000D01*
X129984000Y-40960000D02*
X129984000Y-43720000D01*
X140404000Y-40960000D02*
X140404000Y-43720000D01*
%TO.C,LED66*%
X161179800Y-69254000D02*
X163464800Y-69254000D01*
X163464800Y-69254000D02*
X163464800Y-67784000D01*
X163464800Y-67784000D02*
X161179800Y-67784000D01*
%TO.C,D8*%
X110113000Y-29963800D02*
X108213000Y-29963800D01*
X108713000Y-32283800D02*
X110113000Y-32283800D01*
%TO.C,U4*%
X118300000Y-43720000D02*
X118505000Y-43720000D01*
X128515000Y-38200000D02*
X128515000Y-36510000D01*
X128720000Y-40960000D02*
X128720000Y-43720000D01*
X128720000Y-43720000D02*
X128515000Y-43720000D01*
X118300000Y-38200000D02*
X118505000Y-38200000D01*
X118300000Y-40960000D02*
X118300000Y-38200000D01*
X128720000Y-38200000D02*
X128515000Y-38200000D01*
X128720000Y-40960000D02*
X128720000Y-38200000D01*
X118300000Y-40960000D02*
X118300000Y-43720000D01*
%TO.C,D63*%
X147079300Y-80251000D02*
X150319300Y-80251000D01*
X147079300Y-78631000D02*
X150319300Y-78631000D01*
X147079300Y-78631000D02*
X147079300Y-80251000D01*
%TO.C,LED60*%
X135294300Y-69254000D02*
X137579300Y-69254000D01*
X137579300Y-69254000D02*
X137579300Y-67784000D01*
X137579300Y-67784000D02*
X135294300Y-67784000D01*
%TO.C,D3*%
X144960400Y-63132600D02*
X147245400Y-63132600D01*
X147245400Y-63132600D02*
X147245400Y-61662600D01*
X147245400Y-61662600D02*
X144960400Y-61662600D01*
%TO.C,R58*%
X126901242Y-70199200D02*
X127375758Y-70199200D01*
X126901242Y-71244200D02*
X127375758Y-71244200D01*
%TO.C,Q54*%
X110918500Y-74107000D02*
X110918500Y-74757000D01*
X107798500Y-74107000D02*
X107798500Y-73457000D01*
X107798500Y-74107000D02*
X107798500Y-74757000D01*
X110918500Y-74107000D02*
X110918500Y-72432000D01*
%TO.C,D7*%
X141736000Y-29640000D02*
X139836000Y-29640000D01*
X140336000Y-31960000D02*
X141736000Y-31960000D01*
%TO.C,TH54*%
X109121242Y-77990900D02*
X109595758Y-77990900D01*
X109121242Y-76945900D02*
X109595758Y-76945900D01*
%TO.C,LED55*%
X115054500Y-67784000D02*
X112769500Y-67784000D01*
X115054500Y-69254000D02*
X115054500Y-67784000D01*
X112769500Y-69254000D02*
X115054500Y-69254000D01*
%TO.C,TH61*%
X139997242Y-76945900D02*
X140471758Y-76945900D01*
X139997242Y-77990900D02*
X140471758Y-77990900D01*
%TO.C,LED58*%
X128643500Y-67784000D02*
X126358500Y-67784000D01*
X128643500Y-69254000D02*
X128643500Y-67784000D01*
X126358500Y-69254000D02*
X128643500Y-69254000D01*
%TO.C,R61*%
X140004742Y-70199200D02*
X140479258Y-70199200D01*
X140004742Y-71244200D02*
X140479258Y-71244200D01*
%TO.C,Q53*%
X103607500Y-74092762D02*
X103607500Y-73442762D01*
X106727500Y-74092762D02*
X106727500Y-72417762D01*
X106727500Y-74092762D02*
X106727500Y-74742762D01*
X103607500Y-74092762D02*
X103607500Y-74742762D01*
%TO.C,Q63*%
X150526800Y-74107000D02*
X150526800Y-74757000D01*
X150526800Y-74107000D02*
X150526800Y-72432000D01*
X147406800Y-74107000D02*
X147406800Y-74757000D01*
X147406800Y-74107000D02*
X147406800Y-73457000D01*
%TO.C,LED63*%
X150479300Y-67784000D02*
X148194300Y-67784000D01*
X148194300Y-69254000D02*
X150479300Y-69254000D01*
X150479300Y-69254000D02*
X150479300Y-67784000D01*
%TO.C,LED65*%
X156853500Y-69254000D02*
X159138500Y-69254000D01*
X159138500Y-67784000D02*
X156853500Y-67784000D01*
X159138500Y-69254000D02*
X159138500Y-67784000D01*
D15*
%TO.C,J4*%
X156573900Y-65333800D02*
X162161900Y-65333800D01*
X162206900Y-61396800D02*
X162206900Y-59699800D01*
X162161900Y-65333800D02*
X162161900Y-64825800D01*
X163267900Y-66664800D02*
X155176900Y-66664800D01*
X162161900Y-64825800D02*
X162161900Y-64698800D01*
X162206900Y-56397800D02*
X162206900Y-55808800D01*
X163267900Y-54538800D02*
X163267900Y-66664800D01*
X155176900Y-66664800D02*
X155176900Y-54538800D01*
X155176900Y-54538800D02*
X163267900Y-54538800D01*
X156573900Y-55808800D02*
X156573900Y-65333800D01*
X162206900Y-55808800D02*
X156573900Y-55808800D01*
X162206814Y-59699873D02*
G75*
G03*
X162206900Y-56397800I-1406914J1651073D01*
G01*
X162206814Y-64698873D02*
G75*
G03*
X162206900Y-61396800I-1406913J1651073D01*
G01*
D14*
%TO.C,J2*%
X105083000Y-24574000D02*
X105083000Y-40074000D01*
X103773000Y-30274000D02*
X103773000Y-30274000D01*
X97273000Y-25874000D02*
X103773000Y-25874000D01*
X95963000Y-40074000D02*
X95963000Y-24574000D01*
X95963000Y-24574000D02*
X105083000Y-24574000D01*
X103773000Y-38774000D02*
X97273000Y-38774000D01*
X103773000Y-30274000D02*
X105083000Y-30274000D01*
X97273000Y-38774000D02*
X97273000Y-25874000D01*
X105083000Y-34374000D02*
X103773000Y-34374000D01*
X105083000Y-40074000D02*
X95963000Y-40074000D01*
X103773000Y-34374000D02*
X103773000Y-38774000D01*
X103773000Y-25874000D02*
X103773000Y-30274000D01*
%TO.C,RN9*%
X109582800Y-20331600D02*
X108582800Y-20331600D01*
X109582800Y-23691600D02*
X108582800Y-23691600D01*
%TO.C,R5*%
X145898300Y-59671142D02*
X145898300Y-60145658D01*
X146943300Y-59671142D02*
X146943300Y-60145658D01*
%TO.C,D2*%
X131574400Y-61713400D02*
X129289400Y-61713400D01*
X129289400Y-61713400D02*
X129289400Y-63183400D01*
X129289400Y-63183400D02*
X131574400Y-63183400D01*
%TO.C,C1*%
X117412000Y-4213380D02*
X117412000Y-3932220D01*
X118432000Y-4213380D02*
X118432000Y-3932220D01*
%TO.C,RN1*%
X116554000Y-4630000D02*
X116554000Y-3630000D01*
X113194000Y-4630000D02*
X113194000Y-3630000D01*
%TO.C,D64*%
X151420500Y-78631000D02*
X151420500Y-80251000D01*
X151420500Y-80251000D02*
X154660500Y-80251000D01*
X151420500Y-78631000D02*
X154660500Y-78631000D01*
%TO.C,C9*%
X142294180Y-62907600D02*
X142013020Y-62907600D01*
X142294180Y-61887600D02*
X142013020Y-61887600D01*
%TO.C,R4*%
X156760608Y-15873800D02*
X156286092Y-15873800D01*
X156760608Y-16918800D02*
X156286092Y-16918800D01*
%TO.C,R60*%
X135837042Y-70199200D02*
X136311558Y-70199200D01*
X135837042Y-71244200D02*
X136311558Y-71244200D01*
%TO.C,LED57*%
X121821000Y-69254000D02*
X124106000Y-69254000D01*
X124106000Y-67784000D02*
X121821000Y-67784000D01*
X124106000Y-69254000D02*
X124106000Y-67784000D01*
%TO.C,RN7*%
X106890400Y-19475200D02*
X105890400Y-19475200D01*
X106890400Y-16115200D02*
X105890400Y-16115200D01*
%TO.C,U2*%
X139751200Y-61267000D02*
X139751200Y-62067000D01*
X139751200Y-61267000D02*
X139751200Y-60467000D01*
X136631200Y-61267000D02*
X136631200Y-60467000D01*
X136631200Y-61267000D02*
X136631200Y-63067000D01*
%TO.C,D53*%
X103280000Y-80251000D02*
X106520000Y-80251000D01*
X103280000Y-78631000D02*
X103280000Y-80251000D01*
X103280000Y-78631000D02*
X106520000Y-78631000D01*
%TO.C,TH60*%
X135829542Y-77990900D02*
X136304058Y-77990900D01*
X135829542Y-76945900D02*
X136304058Y-76945900D01*
%TO.C,C7*%
X134240620Y-59106000D02*
X134521780Y-59106000D01*
X134240620Y-60126000D02*
X134521780Y-60126000D01*
%TO.C,C8*%
X134227620Y-62920000D02*
X134508780Y-62920000D01*
X134227620Y-61900000D02*
X134508780Y-61900000D01*
%TO.C,R53*%
X104930242Y-71244200D02*
X105404758Y-71244200D01*
X104930242Y-70199200D02*
X105404758Y-70199200D01*
%TO.C,D6*%
X129981350Y-32268800D02*
X131381350Y-32268800D01*
X131381350Y-29948800D02*
X129481350Y-29948800D01*
%TO.C,TH56*%
X117798242Y-76945900D02*
X118272758Y-76945900D01*
X117798242Y-77990900D02*
X118272758Y-77990900D01*
%TO.C,LED53*%
X106707000Y-69254000D02*
X106707000Y-67784000D01*
X104422000Y-69254000D02*
X106707000Y-69254000D01*
X106707000Y-67784000D02*
X104422000Y-67784000D01*
%TO.C,RN16*%
X114154800Y-16022800D02*
X113154800Y-16022800D01*
X114154800Y-19382800D02*
X113154800Y-19382800D01*
%TO.C,U3*%
X106489000Y-40960000D02*
X106489000Y-43720000D01*
X116909000Y-40960000D02*
X116909000Y-38200000D01*
X106489000Y-40960000D02*
X106489000Y-38200000D01*
X116909000Y-43720000D02*
X116704000Y-43720000D01*
X116909000Y-38200000D02*
X116704000Y-38200000D01*
X106489000Y-43720000D02*
X106694000Y-43720000D01*
X116909000Y-40960000D02*
X116909000Y-43720000D01*
X106489000Y-38200000D02*
X106694000Y-38200000D01*
X116704000Y-38200000D02*
X116704000Y-36510000D01*
%TO.C,Q58*%
X128698500Y-74107000D02*
X128698500Y-72432000D01*
X128698500Y-74107000D02*
X128698500Y-74757000D01*
X125578500Y-74107000D02*
X125578500Y-74757000D01*
X125578500Y-74107000D02*
X125578500Y-73457000D01*
%TO.C,R51*%
X96729742Y-71244200D02*
X97204258Y-71244200D01*
X96729742Y-70199200D02*
X97204258Y-70199200D01*
%TO.C,TH53*%
X104930242Y-77990900D02*
X105404758Y-77990900D01*
X104930242Y-76945900D02*
X105404758Y-76945900D01*
%TO.C,LED61*%
X141747000Y-69254000D02*
X141747000Y-67784000D01*
X141747000Y-67784000D02*
X139462000Y-67784000D01*
X139462000Y-69254000D02*
X141747000Y-69254000D01*
%TO.C,LED64*%
X154820500Y-69254000D02*
X154820500Y-67784000D01*
X152535500Y-69254000D02*
X154820500Y-69254000D01*
X154820500Y-67784000D02*
X152535500Y-67784000D01*
%TO.C,L1*%
X134751200Y-51385000D02*
X134751200Y-49685000D01*
X141351200Y-49685000D02*
X141351200Y-51385000D01*
X134751200Y-49685000D02*
X141351200Y-49685000D01*
X141351200Y-54385000D02*
X141351200Y-56085000D01*
X141351200Y-56085000D02*
X134751200Y-56085000D01*
X134751200Y-56085000D02*
X134751200Y-54385000D01*
%TO.C,R54*%
X109121242Y-71244200D02*
X109595758Y-71244200D01*
X109121242Y-70199200D02*
X109595758Y-70199200D01*
%TO.C,TH57*%
X122372392Y-76945900D02*
X122846908Y-76945900D01*
X122372392Y-77990900D02*
X122846908Y-77990900D01*
%TO.C,D55*%
X111662000Y-78631000D02*
X111662000Y-80251000D01*
X111662000Y-78631000D02*
X114902000Y-78631000D01*
X111662000Y-80251000D02*
X114902000Y-80251000D01*
%TO.C,LED52*%
X100323500Y-69254000D02*
X102608500Y-69254000D01*
X102608500Y-67784000D02*
X100323500Y-67784000D01*
X102608500Y-69254000D02*
X102608500Y-67784000D01*
%TO.C,R65*%
X157396242Y-71244200D02*
X157870758Y-71244200D01*
X157396242Y-70199200D02*
X157870758Y-70199200D01*
%TO.C,TH66*%
X161715042Y-77990900D02*
X162189558Y-77990900D01*
X161715042Y-76945900D02*
X162189558Y-76945900D01*
%TO.C,C5*%
X126181563Y-64609600D02*
X127246000Y-63545163D01*
X117790437Y-64609600D02*
X120476000Y-64609600D01*
X126181563Y-64609600D02*
X123496000Y-64609600D01*
X116726000Y-63545163D02*
X116726000Y-54089600D01*
X118601000Y-65474600D02*
X119851000Y-65474600D01*
X117790437Y-64609600D02*
X116726000Y-63545163D01*
X116726000Y-54089600D02*
X120476000Y-54089600D01*
X127246000Y-54089600D02*
X123496000Y-54089600D01*
X127246000Y-63545163D02*
X127246000Y-54089600D01*
X119226000Y-66099600D02*
X119226000Y-64849600D01*
%TO.C,RN15*%
X128979000Y-19272000D02*
X129979000Y-19272000D01*
X128979000Y-15912000D02*
X129979000Y-15912000D01*
%TO.C,TH55*%
X113312242Y-77990900D02*
X113786758Y-77990900D01*
X113312242Y-76945900D02*
X113786758Y-76945900D01*
%TO.C,TH58*%
X126901242Y-76945900D02*
X127375758Y-76945900D01*
X126901242Y-77990900D02*
X127375758Y-77990900D01*
%TO.C,R56*%
X117798242Y-71244200D02*
X118272758Y-71244200D01*
X117798242Y-70199200D02*
X118272758Y-70199200D01*
%TO.C,R3*%
X156760608Y-18823800D02*
X156286092Y-18823800D01*
X156760608Y-17778800D02*
X156286092Y-17778800D01*
%TO.C,G\u002A\u002A\u002A*%
G36*
X139113685Y-12262762D02*
G01*
X138656810Y-12257287D01*
X138803060Y-12153925D01*
X138858138Y-12114789D01*
X138945709Y-12052274D01*
X139065200Y-11966791D01*
X139216036Y-11858752D01*
X139397642Y-11728570D01*
X139609444Y-11576656D01*
X139850868Y-11403424D01*
X140121339Y-11209284D01*
X140420283Y-10994650D01*
X140747124Y-10759933D01*
X141101290Y-10505545D01*
X141482204Y-10231899D01*
X141602422Y-10145527D01*
X141785885Y-10014127D01*
X141960189Y-9890087D01*
X142122431Y-9775421D01*
X142269706Y-9672144D01*
X142399110Y-9582271D01*
X142507739Y-9507816D01*
X142592690Y-9450794D01*
X142651058Y-9413218D01*
X142679939Y-9397104D01*
X142681973Y-9396635D01*
X142705626Y-9408458D01*
X142758621Y-9441760D01*
X142837347Y-9494065D01*
X142938196Y-9562898D01*
X143057559Y-9645781D01*
X143191827Y-9740239D01*
X143337391Y-9843794D01*
X143420280Y-9903243D01*
X144123007Y-10408674D01*
X144133191Y-10070110D01*
X144143376Y-9731546D01*
X145243296Y-9731546D01*
X145255914Y-11218474D01*
X145402371Y-11322119D01*
X145454245Y-11359006D01*
X145534082Y-11416009D01*
X145636768Y-11489465D01*
X145757187Y-11575711D01*
X145890224Y-11671083D01*
X146030765Y-11771920D01*
X146127707Y-11841525D01*
X146706586Y-12257287D01*
X146265197Y-12262777D01*
X145823809Y-12268266D01*
X145822659Y-14605199D01*
X145822361Y-14988708D01*
X145821852Y-15333126D01*
X145821116Y-15640098D01*
X145820134Y-15911270D01*
X145818889Y-16148287D01*
X145817364Y-16352795D01*
X145815542Y-16526439D01*
X145813405Y-16670866D01*
X145810935Y-16787720D01*
X145808115Y-16878648D01*
X145804928Y-16945296D01*
X145801357Y-16989308D01*
X145797384Y-17012330D01*
X145797198Y-17012891D01*
X145766892Y-17068063D01*
X145725755Y-17107275D01*
X145721964Y-17109343D01*
X145707110Y-17112989D01*
X145676572Y-17116299D01*
X145628675Y-17119287D01*
X145561745Y-17121968D01*
X145474108Y-17124354D01*
X145364090Y-17126462D01*
X145230018Y-17128305D01*
X145070215Y-17129898D01*
X144883010Y-17131254D01*
X144666727Y-17132388D01*
X144419692Y-17133315D01*
X144140231Y-17134049D01*
X143826670Y-17134603D01*
X143477336Y-17134993D01*
X143090552Y-17135233D01*
X142680341Y-17135335D01*
X139689641Y-17135635D01*
X139630101Y-17076096D01*
X139570561Y-17016556D01*
X139570561Y-12960014D01*
X139916832Y-12960014D01*
X140374174Y-12960014D01*
X140521845Y-13106699D01*
X140669516Y-13253385D01*
X140821617Y-13254374D01*
X140901087Y-13256040D01*
X140952962Y-13262554D01*
X140990382Y-13278097D01*
X141026483Y-13306849D01*
X141046550Y-13325939D01*
X141112119Y-13413026D01*
X141143141Y-13507253D01*
X141143021Y-13602193D01*
X141115162Y-13691415D01*
X141062970Y-13768493D01*
X140989849Y-13826995D01*
X140899201Y-13860496D01*
X140794432Y-13862564D01*
X140765264Y-13857152D01*
X140663991Y-13815609D01*
X140589951Y-13745342D01*
X140545350Y-13649771D01*
X140534423Y-13550712D01*
X140690850Y-13550712D01*
X140707779Y-13600543D01*
X140749208Y-13649807D01*
X140801094Y-13684740D01*
X140836285Y-13693294D01*
X140883355Y-13679740D01*
X140928871Y-13649005D01*
X140969163Y-13588219D01*
X140971962Y-13523344D01*
X140937582Y-13463920D01*
X140922345Y-13450345D01*
X140873570Y-13420787D01*
X140830481Y-13408136D01*
X140829759Y-13408129D01*
X140783180Y-13424728D01*
X140735493Y-13465089D01*
X140700488Y-13515057D01*
X140690850Y-13550712D01*
X140534423Y-13550712D01*
X140532394Y-13532318D01*
X140534422Y-13499249D01*
X140546095Y-13374246D01*
X140419327Y-13248605D01*
X140292560Y-13122965D01*
X139916832Y-13122965D01*
X139916832Y-16789364D01*
X140629743Y-16789364D01*
X140629743Y-16350513D01*
X140561245Y-16313624D01*
X140489944Y-16254555D01*
X140436114Y-16170189D01*
X140407957Y-16074898D01*
X140406768Y-16057188D01*
X140589276Y-16057188D01*
X140597866Y-16116532D01*
X140605169Y-16131453D01*
X140641967Y-16161215D01*
X140696668Y-16181453D01*
X140746514Y-16184219D01*
X140751956Y-16182710D01*
X140792032Y-16161058D01*
X140818155Y-16141491D01*
X140846480Y-16093505D01*
X140851693Y-16030143D01*
X140833609Y-15969702D01*
X140820090Y-15950752D01*
X140768879Y-15921016D01*
X140703392Y-15915800D01*
X140642138Y-15935442D01*
X140626255Y-15947212D01*
X140599548Y-15993678D01*
X140589276Y-16057188D01*
X140406768Y-16057188D01*
X140405685Y-16041047D01*
X140424811Y-15947134D01*
X140478348Y-15856410D01*
X140554853Y-15782977D01*
X140627695Y-15750236D01*
X140717919Y-15738709D01*
X140808552Y-15748431D01*
X140882616Y-15779430D01*
X140886694Y-15782363D01*
X140965776Y-15854724D01*
X141010438Y-15932489D01*
X141026598Y-16026777D01*
X141026936Y-16045900D01*
X141013308Y-16150225D01*
X140969224Y-16233116D01*
X140889887Y-16303122D01*
X140878344Y-16310695D01*
X140814632Y-16351433D01*
X140813848Y-16570399D01*
X140813063Y-16789364D01*
X145478364Y-16789364D01*
X145472859Y-16366710D01*
X145467353Y-15944056D01*
X145187651Y-15933871D01*
X144907948Y-15923687D01*
X144739535Y-15756617D01*
X144667155Y-15685360D01*
X144616226Y-15638347D01*
X144579359Y-15611050D01*
X144549164Y-15598940D01*
X144518252Y-15597492D01*
X144485954Y-15601252D01*
X144407225Y-15601970D01*
X144329420Y-15577328D01*
X144312818Y-15569429D01*
X144223464Y-15510937D01*
X144167905Y-15436779D01*
X144140332Y-15338334D01*
X144138202Y-15318729D01*
X144305320Y-15318729D01*
X144307142Y-15325374D01*
X144344496Y-15385724D01*
X144402280Y-15419093D01*
X144468426Y-15422456D01*
X144530863Y-15392786D01*
X144540569Y-15383911D01*
X144575953Y-15325620D01*
X144578297Y-15264364D01*
X144553583Y-15208879D01*
X144507792Y-15167898D01*
X144446908Y-15150157D01*
X144387260Y-15160060D01*
X144338631Y-15197649D01*
X144308388Y-15256586D01*
X144305320Y-15318729D01*
X144138202Y-15318729D01*
X144137112Y-15308700D01*
X144135095Y-15235279D01*
X144147078Y-15180932D01*
X144177764Y-15125070D01*
X144179753Y-15122051D01*
X144256223Y-15041160D01*
X144354048Y-14991019D01*
X144447907Y-14976533D01*
X144549849Y-14994625D01*
X144636800Y-15043898D01*
X144703607Y-15116849D01*
X144745116Y-15205973D01*
X144756177Y-15303766D01*
X144735095Y-15394792D01*
X144702856Y-15471951D01*
X145003214Y-15772309D01*
X145235284Y-15766522D01*
X145467353Y-15760736D01*
X145467353Y-12298025D01*
X144693336Y-12298025D01*
X144687623Y-12546700D01*
X144681911Y-12795375D01*
X144741839Y-12826365D01*
X144829041Y-12891949D01*
X144885924Y-12977720D01*
X144911108Y-13075290D01*
X144903214Y-13176273D01*
X144860862Y-13272281D01*
X144822940Y-13319351D01*
X144733027Y-13386015D01*
X144632744Y-13416517D01*
X144529961Y-13410753D01*
X144432546Y-13368623D01*
X144379185Y-13325087D01*
X144315050Y-13235687D01*
X144287071Y-13137630D01*
X144289274Y-13105450D01*
X144459093Y-13105450D01*
X144472647Y-13152519D01*
X144503382Y-13198035D01*
X144564168Y-13238327D01*
X144629043Y-13241126D01*
X144688467Y-13206746D01*
X144702042Y-13191509D01*
X144731600Y-13142734D01*
X144744251Y-13099645D01*
X144744258Y-13098923D01*
X144727659Y-13052344D01*
X144687298Y-13004657D01*
X144637330Y-12969652D01*
X144601676Y-12960014D01*
X144551845Y-12976944D01*
X144502580Y-13018372D01*
X144467647Y-13070258D01*
X144459093Y-13105450D01*
X144289274Y-13105450D01*
X144293882Y-13038127D01*
X144334118Y-12944389D01*
X144406414Y-12863628D01*
X144474989Y-12818873D01*
X144494417Y-12807058D01*
X144507286Y-12790432D01*
X144514701Y-12761597D01*
X144517769Y-12713150D01*
X144517599Y-12637691D01*
X144515726Y-12546496D01*
X144510016Y-12298025D01*
X142213424Y-12292845D01*
X139916832Y-12287666D01*
X139916832Y-12960014D01*
X139570561Y-12960014D01*
X139570561Y-12268237D01*
X139113685Y-12262762D01*
G37*
G36*
X145344992Y-20072474D02*
G01*
X145417419Y-20004971D01*
X145519644Y-19948368D01*
X145525985Y-19945538D01*
X145630896Y-19913981D01*
X145756009Y-19898916D01*
X145883691Y-19901738D01*
X145951114Y-19911937D01*
X146000702Y-19920204D01*
X146022325Y-19913439D01*
X146027444Y-19886859D01*
X146027498Y-19880066D01*
X146019715Y-19822201D01*
X145992375Y-19784190D01*
X145939494Y-19762536D01*
X145855086Y-19753739D01*
X145810133Y-19753037D01*
X145720756Y-19755277D01*
X145656255Y-19764267D01*
X145600907Y-19783410D01*
X145551355Y-19809052D01*
X145495632Y-19839695D01*
X145455973Y-19860041D01*
X145443567Y-19865066D01*
X145431786Y-19847927D01*
X145408473Y-19802667D01*
X145378345Y-19738523D01*
X145373670Y-19728159D01*
X145342857Y-19656793D01*
X145330034Y-19608165D01*
X145339558Y-19574019D01*
X145375787Y-19546102D01*
X145443079Y-19516160D01*
X145496688Y-19495146D01*
X145605682Y-19464809D01*
X145738532Y-19445826D01*
X145880058Y-19438882D01*
X146015078Y-19444665D01*
X146128410Y-19463861D01*
X146136797Y-19466203D01*
X146253032Y-19511925D01*
X146343123Y-19576204D01*
X146409641Y-19663227D01*
X146455156Y-19777184D01*
X146482240Y-19922261D01*
X146491591Y-20044171D01*
X146496479Y-20144392D01*
X146501785Y-20211435D01*
X146509265Y-20252835D01*
X146520676Y-20276130D01*
X146537776Y-20288856D01*
X146549816Y-20293920D01*
X146572670Y-20305115D01*
X146586824Y-20323271D01*
X146594353Y-20357061D01*
X146597328Y-20415156D01*
X146597826Y-20494795D01*
X146595757Y-20577179D01*
X146590220Y-20643209D01*
X146582224Y-20682952D01*
X146578057Y-20689635D01*
X146538181Y-20700330D01*
X146471995Y-20705328D01*
X146393488Y-20704901D01*
X146316648Y-20699321D01*
X146255464Y-20688858D01*
X146237708Y-20683034D01*
X146176575Y-20638853D01*
X146139934Y-20586143D01*
X146106930Y-20516593D01*
X146031568Y-20576918D01*
X145920330Y-20647709D01*
X145799516Y-20693543D01*
X145680382Y-20711236D01*
X145589567Y-20701951D01*
X145467574Y-20654171D01*
X145370423Y-20581512D01*
X145301274Y-20489729D01*
X145263292Y-20384579D01*
X145259639Y-20271817D01*
X145269586Y-20237551D01*
X145686052Y-20237551D01*
X145686613Y-20290692D01*
X145714937Y-20337039D01*
X145761952Y-20363507D01*
X145830237Y-20374139D01*
X145903133Y-20367964D01*
X145952453Y-20350870D01*
X146003789Y-20313501D01*
X146024832Y-20263847D01*
X146027186Y-20228793D01*
X146020343Y-20188974D01*
X145994421Y-20164918D01*
X145942176Y-20153161D01*
X145862881Y-20150230D01*
X145778573Y-20161779D01*
X145718167Y-20192733D01*
X145686052Y-20237551D01*
X145269586Y-20237551D01*
X145291978Y-20160415D01*
X145344992Y-20072474D01*
G37*
G36*
X141026936Y-20690006D02*
G01*
X140822218Y-20695766D01*
X140734565Y-20696858D01*
X140662627Y-20695179D01*
X140615806Y-20691095D01*
X140603252Y-20687279D01*
X140599665Y-20664055D01*
X140596409Y-20605243D01*
X140593602Y-20515994D01*
X140591362Y-20401457D01*
X140589808Y-20266783D01*
X140589057Y-20117120D01*
X140589005Y-20065360D01*
X140589005Y-19457688D01*
X141037718Y-19457688D01*
X141026936Y-20690006D01*
G37*
G36*
X142218516Y-19725259D02*
G01*
X141953721Y-20039738D01*
X141873429Y-20135569D01*
X141802926Y-20220624D01*
X141746147Y-20290081D01*
X141707025Y-20339119D01*
X141689495Y-20362916D01*
X141688925Y-20364252D01*
X141708058Y-20367915D01*
X141760518Y-20370980D01*
X141838894Y-20373175D01*
X141935776Y-20374233D01*
X141964762Y-20374288D01*
X142240599Y-20374288D01*
X142234650Y-20532147D01*
X142228700Y-20690006D01*
X141728313Y-20695446D01*
X141589444Y-20696405D01*
X141464249Y-20696218D01*
X141358435Y-20694981D01*
X141277708Y-20692786D01*
X141227775Y-20689728D01*
X141213999Y-20686959D01*
X141206720Y-20660693D01*
X141201680Y-20606215D01*
X141200072Y-20545117D01*
X141200072Y-20417202D01*
X141475495Y-20090824D01*
X141750918Y-19764445D01*
X141490772Y-19758741D01*
X141230625Y-19753037D01*
X141224641Y-19605363D01*
X141218656Y-19457688D01*
X142218516Y-19457688D01*
X142218516Y-19725259D01*
G37*
G36*
X142860136Y-20690006D02*
G01*
X142655417Y-20695766D01*
X142567765Y-20696858D01*
X142495826Y-20695179D01*
X142449005Y-20691095D01*
X142436452Y-20687279D01*
X142432864Y-20664055D01*
X142429608Y-20605243D01*
X142426801Y-20515994D01*
X142424562Y-20401457D01*
X142423007Y-20266783D01*
X142422256Y-20117120D01*
X142422205Y-20065360D01*
X142422205Y-19457688D01*
X142870918Y-19457688D01*
X142860136Y-20690006D01*
G37*
G36*
X137772654Y-13193308D02*
G01*
X137827710Y-12759326D01*
X137920143Y-12331070D01*
X138048979Y-11912437D01*
X138213248Y-11507325D01*
X138411976Y-11119628D01*
X138581342Y-10845193D01*
X138799843Y-10546270D01*
X139051473Y-10253445D01*
X139328647Y-9974254D01*
X139623782Y-9716234D01*
X139929294Y-9486923D01*
X139988123Y-9447066D01*
X140243916Y-9292066D01*
X140530169Y-9145648D01*
X140836844Y-9011989D01*
X141153903Y-8895263D01*
X141471307Y-8799646D01*
X141649522Y-8755970D01*
X142079216Y-8680802D01*
X142513162Y-8645421D01*
X142948660Y-8649475D01*
X143383013Y-8692612D01*
X143813520Y-8774478D01*
X144237483Y-8894721D01*
X144652203Y-9052989D01*
X144933248Y-9185037D01*
X145317204Y-9402614D01*
X145678650Y-9653302D01*
X146015705Y-9935081D01*
X146326485Y-10245933D01*
X146609105Y-10583838D01*
X146861684Y-10946776D01*
X147082337Y-11332727D01*
X147231485Y-11649406D01*
X147373438Y-12019573D01*
X147481343Y-12391448D01*
X147556354Y-12771280D01*
X147599624Y-13165322D01*
X147612307Y-13579824D01*
X147610459Y-13703478D01*
X147591828Y-14068392D01*
X147553296Y-14406095D01*
X147492913Y-14725943D01*
X147408728Y-15037296D01*
X147298791Y-15349511D01*
X147234726Y-15506125D01*
X147042791Y-15905251D01*
X146817538Y-16282956D01*
X146561108Y-16637456D01*
X146275640Y-16966965D01*
X145963277Y-17269698D01*
X145626158Y-17543870D01*
X145266424Y-17787697D01*
X144886217Y-17999391D01*
X144487676Y-18177170D01*
X144072943Y-18319247D01*
X143766551Y-18398202D01*
X143549515Y-18439043D01*
X143307175Y-18471670D01*
X143052027Y-18495204D01*
X142796566Y-18508768D01*
X142553287Y-18511484D01*
X142334683Y-18502475D01*
X142310176Y-18500520D01*
X141855472Y-18442383D01*
X141415385Y-18346268D01*
X140990218Y-18212291D01*
X140580277Y-18040568D01*
X140185868Y-17831215D01*
X139807296Y-17584346D01*
X139714972Y-17516637D01*
X139588328Y-17415374D01*
X139445500Y-17290704D01*
X139295485Y-17151247D01*
X139147281Y-17005617D01*
X139009884Y-16862431D01*
X138892294Y-16730307D01*
X138885645Y-16722421D01*
X138633182Y-16391015D01*
X138408673Y-16032912D01*
X138214054Y-15652762D01*
X138051260Y-15255215D01*
X137922227Y-14844918D01*
X137828891Y-14426522D01*
X137778558Y-14062868D01*
X137758072Y-13669918D01*
X137984706Y-13669918D01*
X138002289Y-14027478D01*
X138043521Y-14371622D01*
X138108230Y-14692651D01*
X138113052Y-14711738D01*
X138242931Y-15140536D01*
X138407484Y-15548034D01*
X138606375Y-15933756D01*
X138839267Y-16297229D01*
X139105822Y-16637977D01*
X139405702Y-16955525D01*
X139738571Y-17249398D01*
X140104090Y-17519122D01*
X140110336Y-17523329D01*
X140239127Y-17603781D01*
X140395286Y-17691601D01*
X140567574Y-17781164D01*
X140744748Y-17866848D01*
X140915568Y-17943026D01*
X141068791Y-18004077D01*
X141077858Y-18007382D01*
X141493154Y-18136803D01*
X141915989Y-18227575D01*
X142342895Y-18279233D01*
X142770402Y-18291314D01*
X143080688Y-18274892D01*
X143296204Y-18249800D01*
X143530855Y-18211873D01*
X143766404Y-18164487D01*
X143984613Y-18111016D01*
X144021162Y-18100857D01*
X144316911Y-18002401D01*
X144623267Y-17873468D01*
X144930782Y-17719040D01*
X145230005Y-17544097D01*
X145511485Y-17353622D01*
X145671797Y-17230838D01*
X145785289Y-17133022D01*
X145914566Y-17011033D01*
X146051335Y-16873559D01*
X146187302Y-16729285D01*
X146314172Y-16586898D01*
X146423651Y-16455085D01*
X146469996Y-16394893D01*
X146708926Y-16040266D01*
X146915942Y-15662717D01*
X147089009Y-15267014D01*
X147226092Y-14857923D01*
X147325157Y-14440214D01*
X147340360Y-14355282D01*
X147372495Y-14109142D01*
X147391314Y-13838030D01*
X147396817Y-13555108D01*
X147389001Y-13273542D01*
X147367866Y-13006496D01*
X147340537Y-12807247D01*
X147247277Y-12376928D01*
X147116823Y-11961846D01*
X146950456Y-11563851D01*
X146749457Y-11184792D01*
X146515107Y-10826519D01*
X146248687Y-10490883D01*
X145951478Y-10179732D01*
X145624761Y-9894917D01*
X145269818Y-9638287D01*
X145052690Y-9503768D01*
X144672335Y-9304701D01*
X144278892Y-9143089D01*
X143875069Y-9018835D01*
X143463570Y-8931843D01*
X143047101Y-8882016D01*
X142628368Y-8869256D01*
X142210075Y-8893467D01*
X141794929Y-8954551D01*
X141385634Y-9052413D01*
X140984896Y-9186954D01*
X140595422Y-9358078D01*
X140219915Y-9565687D01*
X140037746Y-9683483D01*
X139701328Y-9936124D01*
X139388528Y-10219284D01*
X139101553Y-10529671D01*
X138842608Y-10863991D01*
X138613897Y-11218950D01*
X138417627Y-11591256D01*
X138256002Y-11977614D01*
X138131229Y-12374733D01*
X138075588Y-12613745D01*
X138021182Y-12953352D01*
X137990946Y-13308643D01*
X137984706Y-13669918D01*
X137758072Y-13669918D01*
X137755945Y-13629121D01*
X137772654Y-13193308D01*
G37*
G36*
X142253893Y-16269359D02*
G01*
X142177776Y-16240633D01*
X142114586Y-16193447D01*
X142074873Y-16148064D01*
X142060194Y-16107534D01*
X142063419Y-16053397D01*
X142241878Y-16053397D01*
X142246383Y-16071798D01*
X142249069Y-16076453D01*
X142273083Y-16083573D01*
X142330588Y-16089213D01*
X142414365Y-16093391D01*
X142517197Y-16096124D01*
X142631864Y-16097431D01*
X142751148Y-16097330D01*
X142867830Y-16095838D01*
X142974691Y-16092974D01*
X143064512Y-16088755D01*
X143130076Y-16083199D01*
X143164162Y-16076325D01*
X143167077Y-16074176D01*
X143172046Y-16055940D01*
X143159159Y-16041781D01*
X143124607Y-16031227D01*
X143064580Y-16023809D01*
X142975269Y-16019055D01*
X142852865Y-16016495D01*
X142693557Y-16015659D01*
X142693295Y-16015659D01*
X142540398Y-16016131D01*
X142424087Y-16018174D01*
X142340219Y-16022356D01*
X142284656Y-16029243D01*
X142253256Y-16039401D01*
X142241878Y-16053397D01*
X142063419Y-16053397D01*
X142063528Y-16051572D01*
X142064100Y-16047609D01*
X142073503Y-15974741D01*
X142075532Y-15921018D01*
X142070155Y-15865516D01*
X142063764Y-15825063D01*
X142062509Y-15799776D01*
X142238885Y-15799776D01*
X142254286Y-15832484D01*
X142264346Y-15838906D01*
X142295548Y-15843367D01*
X142359173Y-15846699D01*
X142447726Y-15848944D01*
X142553706Y-15850142D01*
X142669618Y-15850336D01*
X142787963Y-15849566D01*
X142901242Y-15847875D01*
X143001960Y-15845302D01*
X143082617Y-15841891D01*
X143135716Y-15837683D01*
X143153002Y-15833992D01*
X143170288Y-15807295D01*
X143167077Y-15793566D01*
X143143973Y-15785155D01*
X143085433Y-15778749D01*
X142990121Y-15774285D01*
X142856698Y-15771698D01*
X142695983Y-15770920D01*
X142545011Y-15771290D01*
X142430214Y-15772593D01*
X142347034Y-15775115D01*
X142290914Y-15779146D01*
X142257295Y-15784971D01*
X142241621Y-15792880D01*
X142238885Y-15799776D01*
X142062509Y-15799776D01*
X142060556Y-15760435D01*
X142081273Y-15707135D01*
X142097364Y-15683652D01*
X142144058Y-15620496D01*
X142112292Y-15309791D01*
X142080526Y-14999087D01*
X141915777Y-14768845D01*
X141780602Y-14568763D01*
X141676511Y-14388215D01*
X141601833Y-14222513D01*
X141554894Y-14066972D01*
X141536186Y-13932465D01*
X141714140Y-13932465D01*
X141732577Y-14057150D01*
X141772102Y-14185504D01*
X141834962Y-14323245D01*
X141923405Y-14476093D01*
X142039680Y-14649766D01*
X142054701Y-14671000D01*
X142127757Y-14774995D01*
X142180679Y-14855854D01*
X142217418Y-14923297D01*
X142241929Y-14987042D01*
X142258163Y-15056807D01*
X142270073Y-15142313D01*
X142278379Y-15220960D01*
X142288785Y-15321473D01*
X142298831Y-15413310D01*
X142307251Y-15485183D01*
X142312069Y-15521401D01*
X142322206Y-15587600D01*
X142646263Y-15587600D01*
X142646029Y-14884874D01*
X142518087Y-14610638D01*
X142390144Y-14336403D01*
X142272739Y-14307748D01*
X142153106Y-14258538D01*
X142075476Y-14199821D01*
X142507078Y-14199821D01*
X142508355Y-14241007D01*
X142526161Y-14298935D01*
X142562319Y-14382166D01*
X142569879Y-14398295D01*
X142636078Y-14538602D01*
X142642168Y-14398176D01*
X142642279Y-14393617D01*
X142768476Y-14393617D01*
X142769841Y-14461733D01*
X142773417Y-14510198D01*
X142778367Y-14528418D01*
X142791760Y-14511674D01*
X142817498Y-14467711D01*
X142850087Y-14405933D01*
X142851073Y-14403983D01*
X142886335Y-14327540D01*
X142902553Y-14270745D01*
X142903224Y-14219310D01*
X142900687Y-14201409D01*
X142890257Y-14139681D01*
X143033935Y-14139681D01*
X143048708Y-14171925D01*
X143089227Y-14179677D01*
X143154363Y-14159539D01*
X143219676Y-14123462D01*
X143282319Y-14077432D01*
X143336351Y-14027167D01*
X143354659Y-14005167D01*
X143386893Y-13952513D01*
X143417774Y-13890215D01*
X143442491Y-13829878D01*
X143456231Y-13783107D01*
X143455361Y-13762323D01*
X143427515Y-13760592D01*
X143377286Y-13778735D01*
X143314269Y-13811388D01*
X143248059Y-13853188D01*
X143188252Y-13898770D01*
X143155389Y-13929999D01*
X143086145Y-14015319D01*
X143046037Y-14086346D01*
X143033935Y-14139681D01*
X142890257Y-14139681D01*
X142887485Y-14123272D01*
X142827981Y-14191044D01*
X142795065Y-14233281D01*
X142777096Y-14274587D01*
X142769707Y-14329836D01*
X142768476Y-14393617D01*
X142642279Y-14393617D01*
X142644025Y-14321616D01*
X142639184Y-14272443D01*
X142624341Y-14237450D01*
X142596191Y-14203426D01*
X142592479Y-14199529D01*
X142552064Y-14163676D01*
X142527623Y-14159484D01*
X142520502Y-14166820D01*
X142507078Y-14199821D01*
X142075476Y-14199821D01*
X142041498Y-14174121D01*
X141942373Y-14059869D01*
X141860188Y-13921157D01*
X141802026Y-13770171D01*
X141953557Y-13770171D01*
X141965834Y-13811097D01*
X141990828Y-13868340D01*
X142023976Y-13932865D01*
X142060720Y-13995637D01*
X142096497Y-14047619D01*
X142119703Y-14073857D01*
X142187929Y-14127006D01*
X142255969Y-14162930D01*
X142315486Y-14178953D01*
X142358144Y-14172399D01*
X142372753Y-14155106D01*
X142372471Y-14103960D01*
X142343757Y-14039048D01*
X142292831Y-13968025D01*
X142225915Y-13898547D01*
X142149227Y-13838269D01*
X142086118Y-13802325D01*
X142024851Y-13775758D01*
X141976552Y-13758419D01*
X141958557Y-13754599D01*
X141953557Y-13770171D01*
X141802026Y-13770171D01*
X141799402Y-13763358D01*
X141788789Y-13724422D01*
X141775932Y-13663213D01*
X141777294Y-13626474D01*
X141793764Y-13600180D01*
X141796872Y-13596986D01*
X141816289Y-13582213D01*
X141841356Y-13578116D01*
X141881471Y-13585859D01*
X141946031Y-13606602D01*
X141984852Y-13620236D01*
X142155356Y-13691547D01*
X142287903Y-13771337D01*
X142384646Y-13860964D01*
X142401915Y-13882917D01*
X142464844Y-13968274D01*
X142451610Y-13884860D01*
X142451048Y-13848463D01*
X142588370Y-13848463D01*
X142608781Y-13965314D01*
X142647456Y-14056999D01*
X142682725Y-14102788D01*
X142714122Y-14111942D01*
X142746359Y-14083424D01*
X142778202Y-14028271D01*
X142811099Y-13923691D01*
X142819281Y-13798576D01*
X142802925Y-13664639D01*
X142771085Y-13555804D01*
X142744596Y-13491515D01*
X142721751Y-13445751D01*
X142707601Y-13428498D01*
X142690258Y-13446349D01*
X142666418Y-13492689D01*
X142640277Y-13556694D01*
X142616029Y-13627544D01*
X142597870Y-13694417D01*
X142591748Y-13727351D01*
X142588370Y-13848463D01*
X142451048Y-13848463D01*
X142449845Y-13770613D01*
X142475603Y-13634233D01*
X142527381Y-13482169D01*
X142565892Y-13395255D01*
X142615894Y-13298127D01*
X142658291Y-13237245D01*
X142696806Y-13213036D01*
X142735160Y-13225923D01*
X142777076Y-13276331D01*
X142826277Y-13364685D01*
X142857266Y-13428498D01*
X142898476Y-13520419D01*
X142924149Y-13593929D01*
X142938694Y-13666141D01*
X142946518Y-13754166D01*
X142947930Y-13780448D01*
X142956835Y-13959263D01*
X143015802Y-13879080D01*
X143108800Y-13783887D01*
X143238635Y-13699755D01*
X143402477Y-13628459D01*
X143429984Y-13618924D01*
X143508786Y-13593338D01*
X143558791Y-13580699D01*
X143589472Y-13579996D01*
X143610303Y-13590216D01*
X143619548Y-13598668D01*
X143636600Y-13620361D01*
X143641121Y-13646884D01*
X143632769Y-13690013D01*
X143615204Y-13748818D01*
X143542276Y-13935013D01*
X143451549Y-14084778D01*
X143342677Y-14198494D01*
X143215315Y-14276541D01*
X143102176Y-14313059D01*
X143076443Y-14321137D01*
X143053435Y-14336913D01*
X143029324Y-14366089D01*
X143000278Y-14414371D01*
X142962467Y-14487460D01*
X142912059Y-14591060D01*
X142903580Y-14608737D01*
X142768476Y-14890697D01*
X142768476Y-15587600D01*
X142931427Y-15587600D01*
X143020594Y-15585376D01*
X143073487Y-15578265D01*
X143094350Y-15565606D01*
X143095060Y-15562139D01*
X143097091Y-15533555D01*
X143102204Y-15472439D01*
X143109705Y-15386820D01*
X143118896Y-15284730D01*
X143122459Y-15245775D01*
X143149177Y-14954872D01*
X143249083Y-14812665D01*
X143349219Y-14669671D01*
X143428646Y-14554927D01*
X143490433Y-14463603D01*
X143537647Y-14390872D01*
X143573358Y-14331904D01*
X143600633Y-14281871D01*
X143622541Y-14235944D01*
X143636793Y-14202516D01*
X143682435Y-14050094D01*
X143702732Y-13885737D01*
X143696666Y-13724706D01*
X143675620Y-13620142D01*
X143608885Y-13457509D01*
X143511033Y-13315565D01*
X143386842Y-13195731D01*
X143241089Y-13099430D01*
X143078551Y-13028084D01*
X142904007Y-12983116D01*
X142722233Y-12965947D01*
X142538007Y-12978001D01*
X142356107Y-13020699D01*
X142181309Y-13095463D01*
X142092717Y-13148888D01*
X141948310Y-13269180D01*
X141836901Y-13412725D01*
X141759944Y-13577000D01*
X141718892Y-13759481D01*
X141714542Y-13805730D01*
X141714140Y-13932465D01*
X141536186Y-13932465D01*
X141534022Y-13916906D01*
X141537546Y-13767627D01*
X141542887Y-13723847D01*
X141590638Y-13528422D01*
X141674058Y-13348802D01*
X141790053Y-13188254D01*
X141935532Y-13050046D01*
X142107402Y-12937444D01*
X142302572Y-12853715D01*
X142390839Y-12827922D01*
X142468259Y-12813781D01*
X142568498Y-12803049D01*
X142673670Y-12797474D01*
X142706966Y-12797063D01*
X142939225Y-12814905D01*
X143151978Y-12868483D01*
X143345412Y-12957869D01*
X143519715Y-13083139D01*
X143583602Y-13142790D01*
X143713231Y-13299613D01*
X143806583Y-13471822D01*
X143863261Y-13655514D01*
X143882870Y-13846786D01*
X143865015Y-14041737D01*
X143809299Y-14236464D01*
X143715328Y-14427064D01*
X143714001Y-14429254D01*
X143667533Y-14501816D01*
X143606682Y-14591480D01*
X143541867Y-14683034D01*
X143516202Y-14718076D01*
X143445381Y-14814285D01*
X143394086Y-14888933D01*
X143358519Y-14952226D01*
X143334880Y-15014372D01*
X143319369Y-15085576D01*
X143308186Y-15176047D01*
X143297533Y-15295991D01*
X143296494Y-15308297D01*
X143286863Y-15424907D01*
X143281151Y-15508701D01*
X143279777Y-15567450D01*
X143283162Y-15608926D01*
X143291727Y-15640900D01*
X143305891Y-15671144D01*
X143317220Y-15691636D01*
X143348542Y-15763770D01*
X143352340Y-15826375D01*
X143350262Y-15838542D01*
X143340128Y-15899296D01*
X143338937Y-15951513D01*
X143346737Y-16016236D01*
X143350736Y-16040636D01*
X143355187Y-16090844D01*
X143343337Y-16128939D01*
X143308651Y-16171504D01*
X143292802Y-16187636D01*
X143207839Y-16250074D01*
X143142919Y-16271232D01*
X143082120Y-16289267D01*
X143044055Y-16326167D01*
X143031600Y-16348290D01*
X142982288Y-16420727D01*
X142915783Y-16468736D01*
X142825267Y-16495494D01*
X142703920Y-16504183D01*
X142697185Y-16504200D01*
X142606768Y-16502257D01*
X142544460Y-16494804D01*
X142497751Y-16479404D01*
X142460863Y-16458177D01*
X142406915Y-16410923D01*
X142365110Y-16355210D01*
X142361098Y-16347385D01*
X142327823Y-16298754D01*
X142311862Y-16290983D01*
X142524049Y-16290983D01*
X142542335Y-16310936D01*
X142589591Y-16325007D01*
X142654413Y-16332752D01*
X142725396Y-16333727D01*
X142791139Y-16327487D01*
X142840236Y-16313588D01*
X142854742Y-16303868D01*
X142856849Y-16292079D01*
X142831550Y-16284689D01*
X142774119Y-16280968D01*
X142701259Y-16280142D01*
X142622011Y-16281294D01*
X142561059Y-16284372D01*
X142527647Y-16288811D01*
X142524049Y-16290983D01*
X142311862Y-16290983D01*
X142277709Y-16274355D01*
X142253893Y-16269359D01*
G37*
G36*
X140355832Y-19030960D02*
G01*
X140427375Y-19034367D01*
X140467955Y-19040695D01*
X140482439Y-19050472D01*
X140482041Y-19055403D01*
X140473165Y-19079457D01*
X140451747Y-19137602D01*
X140419309Y-19225696D01*
X140377377Y-19339596D01*
X140327476Y-19475163D01*
X140271130Y-19628255D01*
X140209863Y-19794729D01*
X140180231Y-19875250D01*
X140116975Y-20046149D01*
X140057417Y-20205148D01*
X140003140Y-20348171D01*
X139955721Y-20471137D01*
X139916741Y-20569968D01*
X139887781Y-20640585D01*
X139870419Y-20678908D01*
X139866720Y-20684602D01*
X139833250Y-20694010D01*
X139773621Y-20699177D01*
X139699648Y-20700386D01*
X139623146Y-20697921D01*
X139555931Y-20692068D01*
X139509818Y-20683109D01*
X139496722Y-20675698D01*
X139486570Y-20651913D01*
X139463793Y-20594036D01*
X139429951Y-20506163D01*
X139386600Y-20392392D01*
X139335298Y-20256820D01*
X139277605Y-20103543D01*
X139215076Y-19936659D01*
X139181095Y-19845666D01*
X138880606Y-19040126D01*
X139116279Y-19034364D01*
X139209748Y-19032737D01*
X139287103Y-19032635D01*
X139339972Y-19033984D01*
X139359855Y-19036504D01*
X139367533Y-19057352D01*
X139385163Y-19112111D01*
X139411154Y-19195627D01*
X139443919Y-19302741D01*
X139481867Y-19428298D01*
X139523409Y-19567140D01*
X139523494Y-19567427D01*
X139565071Y-19704867D01*
X139603463Y-19827627D01*
X139637047Y-19930842D01*
X139664199Y-20009653D01*
X139683297Y-20059198D01*
X139692716Y-20074615D01*
X139692824Y-20074508D01*
X139701946Y-20051385D01*
X139720658Y-19994431D01*
X139747322Y-19908973D01*
X139780300Y-19800340D01*
X139817952Y-19673859D01*
X139855910Y-19544256D01*
X140005402Y-19029942D01*
X140248461Y-19029942D01*
X140355832Y-19030960D01*
G37*
G36*
X144870799Y-19259092D02*
G01*
X144876656Y-19447504D01*
X144983592Y-19453661D01*
X145090529Y-19459817D01*
X145090529Y-19803959D01*
X144865178Y-19803959D01*
X144870917Y-20043294D01*
X144876656Y-20282628D01*
X144996923Y-20283114D01*
X145117190Y-20283599D01*
X145154783Y-20442915D01*
X145171222Y-20519160D01*
X145181419Y-20579832D01*
X145183685Y-20614378D01*
X145182743Y-20617818D01*
X145157310Y-20632480D01*
X145102772Y-20651215D01*
X145030162Y-20671117D01*
X144950509Y-20689282D01*
X144874846Y-20702804D01*
X144846102Y-20706487D01*
X144768351Y-20709197D01*
X144691426Y-20703526D01*
X144676740Y-20701056D01*
X144569855Y-20660239D01*
X144483529Y-20584855D01*
X144449427Y-20535580D01*
X144433870Y-20503990D01*
X144422410Y-20465595D01*
X144414190Y-20413296D01*
X144408356Y-20339995D01*
X144404051Y-20238591D01*
X144401205Y-20135424D01*
X144393204Y-19803959D01*
X144255405Y-19803959D01*
X144255405Y-19460269D01*
X144321603Y-19453887D01*
X144387802Y-19447504D01*
X144393659Y-19259092D01*
X144399515Y-19070679D01*
X144864942Y-19070679D01*
X144870799Y-19259092D01*
G37*
G36*
X141037121Y-19355844D02*
G01*
X140589005Y-19355844D01*
X140589005Y-18989204D01*
X141037121Y-18989204D01*
X141037121Y-19355844D01*
G37*
G36*
X143659140Y-19442081D02*
G01*
X143755406Y-19451784D01*
X143856068Y-19469290D01*
X143952260Y-19492167D01*
X144035116Y-19517984D01*
X144095772Y-19544309D01*
X144125363Y-19568710D01*
X144125981Y-19570123D01*
X144120569Y-19597213D01*
X144098964Y-19646304D01*
X144067408Y-19706386D01*
X144032144Y-19766451D01*
X143999415Y-19815488D01*
X143975462Y-19842490D01*
X143970285Y-19844697D01*
X143944794Y-19837976D01*
X143892216Y-19820275D01*
X143823467Y-19795286D01*
X143816804Y-19792785D01*
X143710491Y-19760060D01*
X143618042Y-19745543D01*
X143545556Y-19749140D01*
X143499128Y-19770756D01*
X143485186Y-19797922D01*
X143486675Y-19824545D01*
X143505896Y-19844049D01*
X143551268Y-19862287D01*
X143597215Y-19875803D01*
X143770159Y-19926849D01*
X143906670Y-19974610D01*
X144010599Y-20021891D01*
X144085793Y-20071492D01*
X144136102Y-20126218D01*
X144165373Y-20188872D01*
X144177457Y-20262255D01*
X144178316Y-20299017D01*
X144162561Y-20420659D01*
X144115880Y-20518893D01*
X144035518Y-20597672D01*
X143929249Y-20656459D01*
X143836389Y-20685298D01*
X143721566Y-20704360D01*
X143602857Y-20711383D01*
X143522125Y-20707388D01*
X143416382Y-20692029D01*
X143309318Y-20670495D01*
X143208457Y-20645015D01*
X143121324Y-20617820D01*
X143055440Y-20591139D01*
X143018331Y-20567204D01*
X143012903Y-20556432D01*
X143022472Y-20529642D01*
X143047736Y-20478260D01*
X143083532Y-20412690D01*
X143089153Y-20402860D01*
X143136547Y-20327444D01*
X143171922Y-20287759D01*
X143196089Y-20280820D01*
X143229309Y-20292401D01*
X143289011Y-20313365D01*
X143363264Y-20339521D01*
X143376005Y-20344016D01*
X143478560Y-20373719D01*
X143573871Y-20389585D01*
X143654432Y-20391512D01*
X143712738Y-20379396D01*
X143741285Y-20353133D01*
X143742350Y-20349051D01*
X143742952Y-20331150D01*
X143733553Y-20315467D01*
X143708667Y-20299465D01*
X143662807Y-20280608D01*
X143590488Y-20256359D01*
X143486225Y-20224182D01*
X143446089Y-20212059D01*
X143340488Y-20177988D01*
X143264391Y-20147044D01*
X143207384Y-20114215D01*
X143159057Y-20074486D01*
X143157676Y-20073178D01*
X143089122Y-19983839D01*
X143058901Y-19885581D01*
X143066715Y-19782425D01*
X143112269Y-19678389D01*
X143194155Y-19578567D01*
X143273506Y-19512703D01*
X143356801Y-19469438D01*
X143453769Y-19445917D01*
X143574140Y-19439283D01*
X143659140Y-19442081D01*
G37*
G36*
X142870320Y-19355844D02*
G01*
X142422205Y-19355844D01*
X142422205Y-18989204D01*
X142870320Y-18989204D01*
X142870320Y-19355844D01*
G37*
%TO.C,LED59*%
X130965000Y-69254000D02*
X133250000Y-69254000D01*
X133250000Y-67784000D02*
X130965000Y-67784000D01*
X133250000Y-69254000D02*
X133250000Y-67784000D01*
%TO.C,Q65*%
X159186000Y-74107000D02*
X159186000Y-74757000D01*
X159186000Y-74107000D02*
X159186000Y-72432000D01*
X156066000Y-74107000D02*
X156066000Y-73457000D01*
X156066000Y-74107000D02*
X156066000Y-74757000D01*
%TO.C,LED51*%
X98472000Y-67784000D02*
X96187000Y-67784000D01*
X98472000Y-69254000D02*
X98472000Y-67784000D01*
X96187000Y-69254000D02*
X98472000Y-69254000D01*
%TO.C,D4*%
X157380000Y-22010000D02*
X157380000Y-20540000D01*
X155095000Y-22010000D02*
X157380000Y-22010000D01*
X157380000Y-20540000D02*
X155095000Y-20540000D01*
%TO.C,TH62*%
X144307742Y-77990900D02*
X144782258Y-77990900D01*
X144307742Y-76945900D02*
X144782258Y-76945900D01*
%TO.C,TH63*%
X148729542Y-77990900D02*
X149204058Y-77990900D01*
X148729542Y-76945900D02*
X149204058Y-76945900D01*
%TO.C,R64*%
X153078242Y-71244200D02*
X153552758Y-71244200D01*
X153078242Y-70199200D02*
X153552758Y-70199200D01*
%TO.C,D58*%
X125251000Y-78631000D02*
X128491000Y-78631000D01*
X125251000Y-80251000D02*
X128491000Y-80251000D01*
X125251000Y-78631000D02*
X125251000Y-80251000D01*
%TO.C,R62*%
X144315242Y-70199200D02*
X144789758Y-70199200D01*
X144315242Y-71244200D02*
X144789758Y-71244200D01*
%TO.C,RN5*%
X133576400Y-19424400D02*
X134576400Y-19424400D01*
X133576400Y-16064400D02*
X134576400Y-16064400D01*
%TO.C,D65*%
X155738500Y-80251000D02*
X158978500Y-80251000D01*
X155738500Y-78631000D02*
X158978500Y-78631000D01*
X155738500Y-78631000D02*
X155738500Y-80251000D01*
%TO.C,D60*%
X134030500Y-78631000D02*
X137270500Y-78631000D01*
X134030500Y-78631000D02*
X134030500Y-80251000D01*
X134030500Y-80251000D02*
X137270500Y-80251000D01*
%TO.C,Q57*%
X121049650Y-74107000D02*
X121049650Y-74757000D01*
X121049650Y-74107000D02*
X121049650Y-73457000D01*
X124169650Y-74107000D02*
X124169650Y-74757000D01*
X124169650Y-74107000D02*
X124169650Y-72432000D01*
%TO.C,D52*%
X99216000Y-78631000D02*
X102456000Y-78631000D01*
X99216000Y-80251000D02*
X102456000Y-80251000D01*
X99216000Y-78631000D02*
X99216000Y-80251000D01*
%TO.C,R66*%
X161722542Y-71244200D02*
X162197058Y-71244200D01*
X161722542Y-70199200D02*
X162197058Y-70199200D01*
%TO.C,Q61*%
X138674500Y-74107000D02*
X138674500Y-74757000D01*
X141794500Y-74107000D02*
X141794500Y-74757000D01*
X138674500Y-74107000D02*
X138674500Y-73457000D01*
X141794500Y-74107000D02*
X141794500Y-72432000D01*
%TO.C,U1*%
X117745000Y-6627000D02*
X117745000Y-6872000D01*
X121605000Y-6627000D02*
X125465000Y-6627000D01*
X121605000Y-24747000D02*
X117745000Y-24747000D01*
X121605000Y-24747000D02*
X125465000Y-24747000D01*
X125465000Y-6627000D02*
X125465000Y-6872000D01*
X125465000Y-24747000D02*
X125465000Y-24502000D01*
X117745000Y-24747000D02*
X117745000Y-24502000D01*
X125465000Y-24502000D02*
X127280000Y-24502000D01*
X121605000Y-6627000D02*
X117745000Y-6627000D01*
%TO.C,D54*%
X107471000Y-78631000D02*
X110711000Y-78631000D01*
X107471000Y-80251000D02*
X110711000Y-80251000D01*
X107471000Y-78631000D02*
X107471000Y-80251000D01*
%TO.C,R57*%
X122372392Y-71244200D02*
X122846908Y-71244200D01*
X122372392Y-70199200D02*
X122846908Y-70199200D01*
%TO.C,R59*%
X131488242Y-71244200D02*
X131962758Y-71244200D01*
X131488242Y-70199200D02*
X131962758Y-70199200D01*
%TO.C,Q60*%
X137626800Y-74107000D02*
X137626800Y-74757000D01*
X137626800Y-74107000D02*
X137626800Y-72432000D01*
X134506800Y-74107000D02*
X134506800Y-74757000D01*
X134506800Y-74107000D02*
X134506800Y-73457000D01*
%TO.C,RN3*%
X133576400Y-20484000D02*
X134576400Y-20484000D01*
X133576400Y-23844000D02*
X134576400Y-23844000D01*
%TO.C,RN11*%
X128979000Y-23844000D02*
X129979000Y-23844000D01*
X128979000Y-20484000D02*
X129979000Y-20484000D01*
%TO.C,Q52*%
X99543500Y-74107000D02*
X99543500Y-74757000D01*
X102663500Y-74107000D02*
X102663500Y-74757000D01*
X99543500Y-74107000D02*
X99543500Y-73457000D01*
X102663500Y-74107000D02*
X102663500Y-72432000D01*
%TO.C,Q59*%
X130158000Y-74107000D02*
X130158000Y-74757000D01*
X133278000Y-74107000D02*
X133278000Y-72432000D01*
X130158000Y-74107000D02*
X130158000Y-73457000D01*
X133278000Y-74107000D02*
X133278000Y-74757000D01*
%TO.C,Q56*%
X116475500Y-74107000D02*
X116475500Y-74757000D01*
X116475500Y-74107000D02*
X116475500Y-73457000D01*
X119595500Y-74107000D02*
X119595500Y-74757000D01*
X119595500Y-74107000D02*
X119595500Y-72432000D01*
%TO.C,R55*%
X113312242Y-70199200D02*
X113786758Y-70199200D01*
X113312242Y-71244200D02*
X113786758Y-71244200D01*
%TO.C,TH51*%
X96729742Y-77990900D02*
X97204258Y-77990900D01*
X96729742Y-76945900D02*
X97204258Y-76945900D01*
D15*
%TO.C,J3*%
X97099800Y-65394800D02*
X102732800Y-65394800D01*
X96038800Y-54538800D02*
X104129800Y-54538800D01*
X97099800Y-59806800D02*
X97099800Y-61503800D01*
X97144800Y-55869800D02*
X97144800Y-56377800D01*
X96038800Y-66664800D02*
X96038800Y-54538800D01*
X102732800Y-55869800D02*
X97144800Y-55869800D01*
X97099800Y-64805800D02*
X97099800Y-65394800D01*
X97144800Y-56377800D02*
X97144800Y-56504800D01*
X104129800Y-54538800D02*
X104129800Y-66664800D01*
X104129800Y-66664800D02*
X96038800Y-66664800D01*
X102732800Y-65394800D02*
X102732800Y-55869800D01*
X97099886Y-56504727D02*
G75*
G03*
X97099800Y-59806800I1406913J-1651073D01*
G01*
X97099886Y-61503727D02*
G75*
G03*
X97099800Y-64805800I1406914J-1651073D01*
G01*
D14*
%TO.C,R52*%
X100866242Y-70199200D02*
X101340758Y-70199200D01*
X100866242Y-71244200D02*
X101340758Y-71244200D01*
D16*
%TO.C,SW5*%
X153343000Y-9806300D02*
X153343000Y-4206300D01*
X153343000Y-4206300D02*
X154343000Y-4206300D01*
X159403000Y-4206300D02*
X159403000Y-10806300D01*
X156943000Y-10806300D02*
X155843000Y-10806300D01*
X159393000Y-4206300D02*
X158393000Y-4206300D01*
X159393000Y-10806300D02*
X158393000Y-10806300D01*
X155843000Y-4206300D02*
X156943000Y-4206300D01*
X154343000Y-10806300D02*
X153343000Y-9806300D01*
D14*
%TO.C,U6*%
X151707000Y-40960000D02*
X151707000Y-38200000D01*
X151707000Y-38200000D02*
X151502000Y-38200000D01*
X151707000Y-40960000D02*
X151707000Y-43720000D01*
X151502000Y-38200000D02*
X151502000Y-36510000D01*
X141287000Y-40960000D02*
X141287000Y-38200000D01*
X141287000Y-38200000D02*
X141492000Y-38200000D01*
X141287000Y-43720000D02*
X141492000Y-43720000D01*
X151707000Y-43720000D02*
X151502000Y-43720000D01*
X141287000Y-40960000D02*
X141287000Y-43720000D01*
%TO.C,RN12*%
X114154800Y-20382400D02*
X113154800Y-20382400D01*
X114154800Y-23742400D02*
X113154800Y-23742400D01*
%TO.C,Q62*%
X142985000Y-74107000D02*
X142985000Y-74757000D01*
X146105000Y-74107000D02*
X146105000Y-74757000D01*
X142985000Y-74107000D02*
X142985000Y-73457000D01*
X146105000Y-74107000D02*
X146105000Y-72432000D01*
D16*
%TO.C,SW1*%
X109665000Y-14810000D02*
X109665000Y-13810000D01*
X104065000Y-3610000D02*
X109665000Y-3610000D01*
X109665000Y-6110000D02*
X109665000Y-7210000D01*
X103065000Y-7210000D02*
X103065000Y-6110000D01*
X103065000Y-12310000D02*
X103065000Y-11210000D01*
X103065000Y-4610000D02*
X104065000Y-3610000D01*
X103065000Y-14810000D02*
X103065000Y-13810000D01*
X109665000Y-3610000D02*
X109665000Y-4610000D01*
X109665000Y-14810000D02*
X103065000Y-14810000D01*
X109665000Y-9710000D02*
X109665000Y-8710000D01*
X103065000Y-9710000D02*
X103065000Y-8710000D01*
X109665000Y-12310000D02*
X109665000Y-11210000D01*
D14*
%TO.C,D59*%
X129830500Y-80251000D02*
X133070500Y-80251000D01*
X129830500Y-78631000D02*
X133070500Y-78631000D01*
X129830500Y-78631000D02*
X129830500Y-80251000D01*
%TO.C,D56*%
X116148000Y-78631000D02*
X119388000Y-78631000D01*
X116148000Y-80251000D02*
X119388000Y-80251000D01*
X116148000Y-78631000D02*
X116148000Y-80251000D01*
%TO.C,C6*%
X138458780Y-58602000D02*
X138177620Y-58602000D01*
X138458780Y-57582000D02*
X138177620Y-57582000D01*
%TO.C,Q55*%
X114982500Y-74107000D02*
X114982500Y-74757000D01*
X114982500Y-74107000D02*
X114982500Y-72432000D01*
X111862500Y-74107000D02*
X111862500Y-74757000D01*
X111862500Y-74107000D02*
X111862500Y-73457000D01*
%TO.C,R6*%
X157912500Y-21004258D02*
X157912500Y-20529742D01*
X158957500Y-21004258D02*
X158957500Y-20529742D01*
%TO.C,R63*%
X148737042Y-70199200D02*
X149211558Y-70199200D01*
X148737042Y-71244200D02*
X149211558Y-71244200D01*
%TO.C,LED62*%
X146204000Y-67784000D02*
X143919000Y-67784000D01*
X143919000Y-69254000D02*
X146204000Y-69254000D01*
X146204000Y-69254000D02*
X146204000Y-67784000D01*
%TO.C,Q51*%
X98527000Y-74107000D02*
X98527000Y-74757000D01*
X95407000Y-74107000D02*
X95407000Y-73457000D01*
X95407000Y-74107000D02*
X95407000Y-74757000D01*
X98527000Y-74107000D02*
X98527000Y-72432000D01*
%TO.C,D1*%
X114858000Y-14458000D02*
X114858000Y-10608000D01*
X112858000Y-14458000D02*
X112858000Y-10608000D01*
X112858000Y-14458000D02*
X114858000Y-14458000D01*
D15*
%TO.C,RJ45-1*%
X100156000Y-82702500D02*
X113856000Y-82702500D01*
X100156000Y-103842500D02*
X100156000Y-99342500D01*
X145356000Y-82702500D02*
X159056000Y-82702500D01*
X131371000Y-82702500D02*
X141871000Y-82702500D01*
X117341000Y-82702500D02*
X127841000Y-82702500D01*
X159056000Y-103842500D02*
X159056000Y-99342500D01*
X100156000Y-95902500D02*
X100156000Y-82702500D01*
X159056000Y-95902500D02*
X159056000Y-82702500D01*
X100156000Y-103842500D02*
X159056000Y-103842500D01*
D14*
%TO.C,C3*%
X131255000Y-12498420D02*
X131255000Y-12779580D01*
X132275000Y-12498420D02*
X132275000Y-12779580D01*
%TO.C,LED54*%
X110863500Y-69254000D02*
X110863500Y-67784000D01*
X110863500Y-67784000D02*
X108578500Y-67784000D01*
X108578500Y-69254000D02*
X110863500Y-69254000D01*
%TO.C,R1*%
X130585700Y-59721942D02*
X130585700Y-60196458D01*
X129540700Y-59721942D02*
X129540700Y-60196458D01*
%TO.C,TH65*%
X157388742Y-76945900D02*
X157863258Y-76945900D01*
X157388742Y-77990900D02*
X157863258Y-77990900D01*
%TO.C,Q66*%
X163512300Y-74107000D02*
X163512300Y-72432000D01*
X160392300Y-74107000D02*
X160392300Y-74757000D01*
X163512300Y-74107000D02*
X163512300Y-74757000D01*
X160392300Y-74107000D02*
X160392300Y-73457000D01*
%TO.C,D51*%
X95079500Y-78631000D02*
X98319500Y-78631000D01*
X95079500Y-80251000D02*
X98319500Y-80251000D01*
X95079500Y-78631000D02*
X95079500Y-80251000D01*
%TO.C,TH52*%
X100866242Y-76945900D02*
X101340758Y-76945900D01*
X100866242Y-77990900D02*
X101340758Y-77990900D01*
%TO.C,TH64*%
X153070742Y-76945900D02*
X153545258Y-76945900D01*
X153070742Y-77990900D02*
X153545258Y-77990900D01*
%TO.C,D66*%
X160064800Y-80251000D02*
X163304800Y-80251000D01*
X160064800Y-78631000D02*
X163304800Y-78631000D01*
X160064800Y-78631000D02*
X160064800Y-80251000D01*
%TO.C,D62*%
X142657500Y-80251000D02*
X145897500Y-80251000D01*
X142657500Y-78631000D02*
X142657500Y-80251000D01*
X142657500Y-78631000D02*
X145897500Y-78631000D01*
%TO.C,D5*%
X120520350Y-29963800D02*
X118620350Y-29963800D01*
X119120350Y-32283800D02*
X120520350Y-32283800D01*
%TO.C,Q64*%
X154868000Y-74107000D02*
X154868000Y-74757000D01*
X154868000Y-74107000D02*
X154868000Y-72432000D01*
X151748000Y-74107000D02*
X151748000Y-73457000D01*
X151748000Y-74107000D02*
X151748000Y-74757000D01*
%TD*%
%LPC*%
D17*
%TO.C,J1*%
X159933600Y-34864000D03*
D18*
X157393600Y-34864000D03*
X159933600Y-32324000D03*
X157393600Y-32324000D03*
X159933600Y-29784000D03*
X157393600Y-29784000D03*
%TD*%
D19*
%TO.C,LED56*%
X118836500Y-68519000D03*
X117261500Y-68519000D03*
%TD*%
D20*
%TO.C,TH59*%
X130893000Y-77468400D03*
X132543000Y-77468400D03*
%TD*%
D21*
%TO.C,D57*%
X121982150Y-79441000D03*
D22*
X123882150Y-79441000D03*
%TD*%
D21*
%TO.C,D61*%
X139607000Y-79441000D03*
D22*
X141507000Y-79441000D03*
%TD*%
D23*
%TO.C,U5*%
X139639000Y-37497500D03*
X138369000Y-37497500D03*
X137099000Y-37497500D03*
X135829000Y-37497500D03*
X134559000Y-37497500D03*
X133289000Y-37497500D03*
X132019000Y-37497500D03*
X130749000Y-37497500D03*
X130749000Y-44422500D03*
X132019000Y-44422500D03*
X133289000Y-44422500D03*
X134559000Y-44422500D03*
X135829000Y-44422500D03*
X137099000Y-44422500D03*
X138369000Y-44422500D03*
X139639000Y-44422500D03*
%TD*%
D19*
%TO.C,LED66*%
X162767300Y-68519000D03*
X161192300Y-68519000D03*
%TD*%
D24*
%TO.C,D8*%
X108463000Y-30473800D03*
X108463000Y-31123800D03*
X108463000Y-31773800D03*
X110363000Y-31773800D03*
X110363000Y-31123800D03*
X110363000Y-30473800D03*
%TD*%
D23*
%TO.C,U4*%
X127955000Y-37497500D03*
X126685000Y-37497500D03*
X125415000Y-37497500D03*
X124145000Y-37497500D03*
X122875000Y-37497500D03*
X121605000Y-37497500D03*
X120335000Y-37497500D03*
X119065000Y-37497500D03*
X119065000Y-44422500D03*
X120335000Y-44422500D03*
X121605000Y-44422500D03*
X122875000Y-44422500D03*
X124145000Y-44422500D03*
X125415000Y-44422500D03*
X126685000Y-44422500D03*
X127955000Y-44422500D03*
%TD*%
D21*
%TO.C,D63*%
X148339300Y-79441000D03*
D22*
X150239300Y-79441000D03*
%TD*%
D19*
%TO.C,LED60*%
X136881800Y-68519000D03*
X135306800Y-68519000D03*
%TD*%
%TO.C,D3*%
X146547900Y-62397600D03*
X144972900Y-62397600D03*
%TD*%
D20*
%TO.C,R58*%
X126313500Y-70721700D03*
X127963500Y-70721700D03*
%TD*%
D25*
%TO.C,Q54*%
X110308500Y-73169500D03*
X108408500Y-73169500D03*
X109358500Y-75044500D03*
%TD*%
D24*
%TO.C,D7*%
X140086000Y-30150000D03*
X140086000Y-30800000D03*
X140086000Y-31450000D03*
X141986000Y-31450000D03*
X141986000Y-30800000D03*
X141986000Y-30150000D03*
%TD*%
D20*
%TO.C,TH54*%
X108533500Y-77468400D03*
X110183500Y-77468400D03*
%TD*%
D19*
%TO.C,LED55*%
X114357000Y-68519000D03*
X112782000Y-68519000D03*
%TD*%
D20*
%TO.C,TH61*%
X139409500Y-77468400D03*
X141059500Y-77468400D03*
%TD*%
D19*
%TO.C,LED58*%
X127946000Y-68519000D03*
X126371000Y-68519000D03*
%TD*%
D20*
%TO.C,R61*%
X139417000Y-70721700D03*
X141067000Y-70721700D03*
%TD*%
D25*
%TO.C,Q53*%
X106117500Y-73155262D03*
X104217500Y-73155262D03*
X105167500Y-75030262D03*
%TD*%
%TO.C,Q63*%
X149916800Y-73169500D03*
X148016800Y-73169500D03*
X148966800Y-75044500D03*
%TD*%
D19*
%TO.C,LED63*%
X149781800Y-68519000D03*
X148206800Y-68519000D03*
%TD*%
%TO.C,LED65*%
X158441000Y-68519000D03*
X156866000Y-68519000D03*
%TD*%
D26*
%TO.C,J4*%
X159367900Y-63133800D03*
X159367900Y-58135800D03*
%TD*%
D17*
%TO.C,J2*%
X101793000Y-34864000D03*
D18*
X99253000Y-34864000D03*
X101793000Y-32324000D03*
X99253000Y-32324000D03*
X101793000Y-29784000D03*
X99253000Y-29784000D03*
%TD*%
D27*
%TO.C,RN9*%
X108182800Y-20811600D03*
D28*
X108182800Y-21611600D03*
X108182800Y-22411600D03*
D27*
X108182800Y-23211600D03*
X109982800Y-23211600D03*
D28*
X109982800Y-22411600D03*
X109982800Y-21611600D03*
D27*
X109982800Y-20811600D03*
%TD*%
D29*
%TO.C,R5*%
X146420800Y-59083400D03*
X146420800Y-60733400D03*
%TD*%
D30*
%TO.C,D2*%
X129986900Y-62448400D03*
X131561900Y-62448400D03*
%TD*%
D31*
%TO.C,C1*%
X117922000Y-4847800D03*
X117922000Y-3297800D03*
%TD*%
D32*
%TO.C,RN1*%
X116074000Y-3230000D03*
D33*
X115274000Y-3230000D03*
X114474000Y-3230000D03*
D32*
X113674000Y-3230000D03*
X113674000Y-5030000D03*
D33*
X114474000Y-5030000D03*
X115274000Y-5030000D03*
D32*
X116074000Y-5030000D03*
%TD*%
D21*
%TO.C,D64*%
X152680500Y-79441000D03*
D22*
X154580500Y-79441000D03*
%TD*%
D34*
%TO.C,C9*%
X142928600Y-62397600D03*
X141378600Y-62397600D03*
%TD*%
D35*
%TO.C,R4*%
X157348350Y-16396300D03*
X155698350Y-16396300D03*
%TD*%
D20*
%TO.C,R60*%
X135249300Y-70721700D03*
X136899300Y-70721700D03*
%TD*%
D19*
%TO.C,LED57*%
X123408500Y-68519000D03*
X121833500Y-68519000D03*
%TD*%
D27*
%TO.C,RN7*%
X105490400Y-16595200D03*
D28*
X105490400Y-17395200D03*
X105490400Y-18195200D03*
D27*
X105490400Y-18995200D03*
X107290400Y-18995200D03*
D28*
X107290400Y-18195200D03*
X107290400Y-17395200D03*
D27*
X107290400Y-16595200D03*
%TD*%
D36*
%TO.C,U2*%
X137241200Y-62404500D03*
X138191200Y-62404500D03*
X139141200Y-62404500D03*
X139141200Y-60129500D03*
X138191200Y-60129500D03*
X137241200Y-60129500D03*
%TD*%
D21*
%TO.C,D53*%
X104540000Y-79441000D03*
D22*
X106440000Y-79441000D03*
%TD*%
D20*
%TO.C,TH60*%
X135241800Y-77468400D03*
X136891800Y-77468400D03*
%TD*%
D37*
%TO.C,C7*%
X133606200Y-59616000D03*
X135156200Y-59616000D03*
%TD*%
%TO.C,C8*%
X133593200Y-62410000D03*
X135143200Y-62410000D03*
%TD*%
D20*
%TO.C,R53*%
X104342500Y-70721700D03*
X105992500Y-70721700D03*
%TD*%
D24*
%TO.C,D6*%
X129731350Y-30458800D03*
X129731350Y-31108800D03*
X129731350Y-31758800D03*
X131631350Y-31758800D03*
X131631350Y-31108800D03*
X131631350Y-30458800D03*
%TD*%
D20*
%TO.C,TH56*%
X117210500Y-77468400D03*
X118860500Y-77468400D03*
%TD*%
D19*
%TO.C,LED53*%
X106009500Y-68519000D03*
X104434500Y-68519000D03*
%TD*%
D27*
%TO.C,RN16*%
X112754800Y-16502800D03*
D28*
X112754800Y-17302800D03*
X112754800Y-18102800D03*
D27*
X112754800Y-18902800D03*
X114554800Y-18902800D03*
D28*
X114554800Y-18102800D03*
X114554800Y-17302800D03*
D27*
X114554800Y-16502800D03*
%TD*%
D23*
%TO.C,U3*%
X116144000Y-37497500D03*
X114874000Y-37497500D03*
X113604000Y-37497500D03*
X112334000Y-37497500D03*
X111064000Y-37497500D03*
X109794000Y-37497500D03*
X108524000Y-37497500D03*
X107254000Y-37497500D03*
X107254000Y-44422500D03*
X108524000Y-44422500D03*
X109794000Y-44422500D03*
X111064000Y-44422500D03*
X112334000Y-44422500D03*
X113604000Y-44422500D03*
X114874000Y-44422500D03*
X116144000Y-44422500D03*
%TD*%
D25*
%TO.C,Q58*%
X128088500Y-73169500D03*
X126188500Y-73169500D03*
X127138500Y-75044500D03*
%TD*%
D20*
%TO.C,R51*%
X96142000Y-70721700D03*
X97792000Y-70721700D03*
%TD*%
%TO.C,TH53*%
X104342500Y-77468400D03*
X105992500Y-77468400D03*
%TD*%
D19*
%TO.C,LED61*%
X141049500Y-68519000D03*
X139474500Y-68519000D03*
%TD*%
%TO.C,LED64*%
X154123000Y-68519000D03*
X152548000Y-68519000D03*
%TD*%
D38*
%TO.C,L1*%
X140801200Y-52885000D03*
X135301200Y-52885000D03*
%TD*%
D20*
%TO.C,R54*%
X108533500Y-70721700D03*
X110183500Y-70721700D03*
%TD*%
%TO.C,TH57*%
X121784650Y-77468400D03*
X123434650Y-77468400D03*
%TD*%
D21*
%TO.C,D55*%
X112922000Y-79441000D03*
D22*
X114822000Y-79441000D03*
%TD*%
D19*
%TO.C,LED52*%
X101911000Y-68519000D03*
X100336000Y-68519000D03*
%TD*%
D20*
%TO.C,R65*%
X156808500Y-70721700D03*
X158458500Y-70721700D03*
%TD*%
%TO.C,TH66*%
X161127300Y-77468400D03*
X162777300Y-77468400D03*
%TD*%
D39*
%TO.C,C5*%
X121986000Y-63349600D03*
X121986000Y-55349600D03*
%TD*%
D27*
%TO.C,RN15*%
X130379000Y-18792000D03*
D28*
X130379000Y-17992000D03*
X130379000Y-17192000D03*
D27*
X130379000Y-16392000D03*
X128579000Y-16392000D03*
D28*
X128579000Y-17192000D03*
X128579000Y-17992000D03*
D27*
X128579000Y-18792000D03*
%TD*%
D20*
%TO.C,TH55*%
X112724500Y-77468400D03*
X114374500Y-77468400D03*
%TD*%
%TO.C,TH58*%
X126313500Y-77468400D03*
X127963500Y-77468400D03*
%TD*%
%TO.C,R56*%
X117210500Y-70721700D03*
X118860500Y-70721700D03*
%TD*%
D35*
%TO.C,R3*%
X157348350Y-18301300D03*
X155698350Y-18301300D03*
%TD*%
D19*
%TO.C,LED59*%
X132552500Y-68519000D03*
X130977500Y-68519000D03*
%TD*%
D25*
%TO.C,Q65*%
X158576000Y-73169500D03*
X156676000Y-73169500D03*
X157626000Y-75044500D03*
%TD*%
D19*
%TO.C,LED51*%
X97774500Y-68519000D03*
X96199500Y-68519000D03*
%TD*%
%TO.C,D4*%
X156682500Y-21275000D03*
X155107500Y-21275000D03*
%TD*%
D20*
%TO.C,TH62*%
X143720000Y-77468400D03*
X145370000Y-77468400D03*
%TD*%
%TO.C,TH63*%
X148141800Y-77468400D03*
X149791800Y-77468400D03*
%TD*%
%TO.C,R64*%
X152490500Y-70721700D03*
X154140500Y-70721700D03*
%TD*%
D21*
%TO.C,D58*%
X126511000Y-79441000D03*
D22*
X128411000Y-79441000D03*
%TD*%
D20*
%TO.C,R62*%
X143727500Y-70721700D03*
X145377500Y-70721700D03*
%TD*%
D27*
%TO.C,RN5*%
X134976400Y-18944400D03*
D28*
X134976400Y-18144400D03*
X134976400Y-17344400D03*
D27*
X134976400Y-16544400D03*
X133176400Y-16544400D03*
D28*
X133176400Y-17344400D03*
X133176400Y-18144400D03*
D27*
X133176400Y-18944400D03*
%TD*%
D21*
%TO.C,D65*%
X156998500Y-79441000D03*
D22*
X158898500Y-79441000D03*
%TD*%
D21*
%TO.C,D60*%
X135290500Y-79441000D03*
D22*
X137190500Y-79441000D03*
%TD*%
D25*
%TO.C,Q57*%
X123559650Y-73169500D03*
X121659650Y-73169500D03*
X122609650Y-75044500D03*
%TD*%
D21*
%TO.C,D52*%
X100476000Y-79441000D03*
D22*
X102376000Y-79441000D03*
%TD*%
D20*
%TO.C,R66*%
X161134800Y-70721700D03*
X162784800Y-70721700D03*
%TD*%
D25*
%TO.C,Q61*%
X141184500Y-73169500D03*
X139284500Y-73169500D03*
X140234500Y-75044500D03*
%TD*%
D40*
%TO.C,U1*%
X126255000Y-23942000D03*
X126255000Y-22672000D03*
X126255000Y-21402000D03*
X126255000Y-20132000D03*
X126255000Y-18862000D03*
X126255000Y-17592000D03*
X126255000Y-16322000D03*
X126255000Y-15052000D03*
X126255000Y-13782000D03*
X126255000Y-12512000D03*
X126255000Y-11242000D03*
X126255000Y-9972000D03*
X126255000Y-8702000D03*
X126255000Y-7432000D03*
X116955000Y-7432000D03*
X116955000Y-8702000D03*
X116955000Y-9972000D03*
X116955000Y-11242000D03*
X116955000Y-12512000D03*
X116955000Y-13782000D03*
X116955000Y-15052000D03*
X116955000Y-16322000D03*
X116955000Y-17592000D03*
X116955000Y-18862000D03*
X116955000Y-20132000D03*
X116955000Y-21402000D03*
X116955000Y-22672000D03*
X116955000Y-23942000D03*
%TD*%
D21*
%TO.C,D54*%
X108731000Y-79441000D03*
D22*
X110631000Y-79441000D03*
%TD*%
D20*
%TO.C,R57*%
X121784650Y-70721700D03*
X123434650Y-70721700D03*
%TD*%
%TO.C,R59*%
X130900500Y-70721700D03*
X132550500Y-70721700D03*
%TD*%
D25*
%TO.C,Q60*%
X137016800Y-73169500D03*
X135116800Y-73169500D03*
X136066800Y-75044500D03*
%TD*%
D27*
%TO.C,RN3*%
X134976400Y-23364000D03*
D28*
X134976400Y-22564000D03*
X134976400Y-21764000D03*
D27*
X134976400Y-20964000D03*
X133176400Y-20964000D03*
D28*
X133176400Y-21764000D03*
X133176400Y-22564000D03*
D27*
X133176400Y-23364000D03*
%TD*%
%TO.C,RN11*%
X130379000Y-23364000D03*
D28*
X130379000Y-22564000D03*
X130379000Y-21764000D03*
D27*
X130379000Y-20964000D03*
X128579000Y-20964000D03*
D28*
X128579000Y-21764000D03*
X128579000Y-22564000D03*
D27*
X128579000Y-23364000D03*
%TD*%
D25*
%TO.C,Q52*%
X102053500Y-73169500D03*
X100153500Y-73169500D03*
X101103500Y-75044500D03*
%TD*%
%TO.C,Q59*%
X132668000Y-73169500D03*
X130768000Y-73169500D03*
X131718000Y-75044500D03*
%TD*%
%TO.C,Q56*%
X118985500Y-73169500D03*
X117085500Y-73169500D03*
X118035500Y-75044500D03*
%TD*%
D20*
%TO.C,R55*%
X112724500Y-70721700D03*
X114374500Y-70721700D03*
%TD*%
%TO.C,TH51*%
X96142000Y-77468400D03*
X97792000Y-77468400D03*
%TD*%
D26*
%TO.C,J3*%
X99938800Y-58069800D03*
X99938800Y-63067800D03*
%TD*%
D20*
%TO.C,R52*%
X100278500Y-70721700D03*
X101928500Y-70721700D03*
%TD*%
D41*
%TO.C,SW5*%
X155133000Y-11456300D03*
X157673000Y-11456300D03*
X157673000Y-3556300D03*
X155133000Y-3556300D03*
%TD*%
D23*
%TO.C,U6*%
X150942000Y-37497500D03*
X149672000Y-37497500D03*
X148402000Y-37497500D03*
X147132000Y-37497500D03*
X145862000Y-37497500D03*
X144592000Y-37497500D03*
X143322000Y-37497500D03*
X142052000Y-37497500D03*
X142052000Y-44422500D03*
X143322000Y-44422500D03*
X144592000Y-44422500D03*
X145862000Y-44422500D03*
X147132000Y-44422500D03*
X148402000Y-44422500D03*
X149672000Y-44422500D03*
X150942000Y-44422500D03*
%TD*%
D27*
%TO.C,RN12*%
X112754800Y-20862400D03*
D28*
X112754800Y-21662400D03*
X112754800Y-22462400D03*
D27*
X112754800Y-23262400D03*
X114554800Y-23262400D03*
D28*
X114554800Y-22462400D03*
X114554800Y-21662400D03*
D27*
X114554800Y-20862400D03*
%TD*%
D25*
%TO.C,Q62*%
X145495000Y-73169500D03*
X143595000Y-73169500D03*
X144545000Y-75044500D03*
%TD*%
D42*
%TO.C,SW1*%
X102415000Y-5400000D03*
X102415000Y-7940000D03*
X102415000Y-10480000D03*
X102415000Y-13020000D03*
X110315000Y-13020000D03*
X110315000Y-10480000D03*
X110315000Y-7940000D03*
X110315000Y-5400000D03*
%TD*%
D21*
%TO.C,D59*%
X131090500Y-79441000D03*
D22*
X132990500Y-79441000D03*
%TD*%
D21*
%TO.C,D56*%
X117408000Y-79441000D03*
D22*
X119308000Y-79441000D03*
%TD*%
D34*
%TO.C,C6*%
X139093200Y-58092000D03*
X137543200Y-58092000D03*
%TD*%
D25*
%TO.C,Q55*%
X114372500Y-73169500D03*
X112472500Y-73169500D03*
X113422500Y-75044500D03*
%TD*%
D43*
%TO.C,R6*%
X158435000Y-21592000D03*
X158435000Y-19942000D03*
%TD*%
D20*
%TO.C,R63*%
X148149300Y-70721700D03*
X149799300Y-70721700D03*
%TD*%
D19*
%TO.C,LED62*%
X145506500Y-68519000D03*
X143931500Y-68519000D03*
%TD*%
D25*
%TO.C,Q51*%
X97917000Y-73169500D03*
X96017000Y-73169500D03*
X96967000Y-75044500D03*
%TD*%
D44*
%TO.C,D1*%
X113858000Y-13658000D03*
X113858000Y-10858000D03*
%TD*%
D45*
%TO.C,RJ45-1*%
X102936000Y-93042500D03*
X156276000Y-93042500D03*
D46*
X104206000Y-86692500D03*
X105476000Y-84152500D03*
X106746000Y-86692500D03*
X108016000Y-84152500D03*
X109286000Y-86692500D03*
X110556000Y-84152500D03*
X111826000Y-86692500D03*
X113096000Y-84152500D03*
X118176000Y-86692500D03*
X119446000Y-84152500D03*
X120716000Y-86692500D03*
X121986000Y-84152500D03*
X123256000Y-86692500D03*
X124526000Y-84152500D03*
X125796000Y-86692500D03*
X127066000Y-84152500D03*
X132146000Y-86692500D03*
X133416000Y-84152500D03*
X134686000Y-86692500D03*
X135956000Y-84152500D03*
X137226000Y-86692500D03*
X138496000Y-84152500D03*
X139766000Y-86692500D03*
X141036000Y-84152500D03*
X146116000Y-86692500D03*
X147386000Y-84152500D03*
X148656000Y-86692500D03*
X149926000Y-84152500D03*
X151196000Y-86692500D03*
X152466000Y-84152500D03*
X153736000Y-86692500D03*
X155006000Y-84152500D03*
D47*
X143576000Y-82882500D03*
X159006000Y-97612500D03*
X100206000Y-97612500D03*
X129606000Y-82882500D03*
X115636000Y-82882500D03*
%TD*%
D48*
%TO.C,C3*%
X131765000Y-11864000D03*
X131765000Y-13414000D03*
%TD*%
D19*
%TO.C,LED54*%
X110166000Y-68519000D03*
X108591000Y-68519000D03*
%TD*%
D29*
%TO.C,R1*%
X130063200Y-59134200D03*
X130063200Y-60784200D03*
%TD*%
D20*
%TO.C,TH65*%
X156801000Y-77468400D03*
X158451000Y-77468400D03*
%TD*%
D25*
%TO.C,Q66*%
X162902300Y-73169500D03*
X161002300Y-73169500D03*
X161952300Y-75044500D03*
%TD*%
D21*
%TO.C,D51*%
X96339500Y-79441000D03*
D22*
X98239500Y-79441000D03*
%TD*%
D20*
%TO.C,TH52*%
X100278500Y-77468400D03*
X101928500Y-77468400D03*
%TD*%
%TO.C,TH64*%
X152483000Y-77468400D03*
X154133000Y-77468400D03*
%TD*%
D21*
%TO.C,D66*%
X161324800Y-79441000D03*
D22*
X163224800Y-79441000D03*
%TD*%
D21*
%TO.C,D62*%
X143917500Y-79441000D03*
D22*
X145817500Y-79441000D03*
%TD*%
D24*
%TO.C,D5*%
X118870350Y-30473800D03*
X118870350Y-31123800D03*
X118870350Y-31773800D03*
X120770350Y-31773800D03*
X120770350Y-31123800D03*
X120770350Y-30473800D03*
%TD*%
D25*
%TO.C,Q64*%
X154258000Y-73169500D03*
X152358000Y-73169500D03*
X153308000Y-75044500D03*
%TD*%
M02*
