%TF.GenerationSoftware,KiCad,Pcbnew,(6.0.9)*%
%TF.CreationDate,2024-01-30T00:57:56+05:30*%
%TF.ProjectId,Modular-I2C-4PxRJ45-Relay-Driver,4d6f6475-6c61-4722-9d49-32432d345078,2*%
%TF.SameCoordinates,Original*%
%TF.FileFunction,Soldermask,Bot*%
%TF.FilePolarity,Negative*%
%FSLAX46Y46*%
G04 Gerber Fmt 4.6, Leading zero omitted, Abs format (unit mm)*
G04 Created by KiCad (PCBNEW (6.0.9)) date 2024-01-30 00:57:56*
%MOMM*%
%LPD*%
G01*
G04 APERTURE LIST*
G04 Aperture macros list*
%AMRoundRect*
0 Rectangle with rounded corners*
0 $1 Rounding radius*
0 $2 $3 $4 $5 $6 $7 $8 $9 X,Y pos of 4 corners*
0 Add a 4 corners polygon primitive as box body*
4,1,4,$2,$3,$4,$5,$6,$7,$8,$9,$2,$3,0*
0 Add four circle primitives for the rounded corners*
1,1,$1+$1,$2,$3*
1,1,$1+$1,$4,$5*
1,1,$1+$1,$6,$7*
1,1,$1+$1,$8,$9*
0 Add four rect primitives between the rounded corners*
20,1,$1+$1,$2,$3,$4,$5,0*
20,1,$1+$1,$4,$5,$6,$7,0*
20,1,$1+$1,$6,$7,$8,$9,0*
20,1,$1+$1,$8,$9,$2,$3,0*%
G04 Aperture macros list end*
%ADD10RoundRect,0.250000X0.600000X0.600000X-0.600000X0.600000X-0.600000X-0.600000X0.600000X-0.600000X0*%
%ADD11C,1.700000*%
%ADD12C,3.000000*%
%ADD13C,3.250000*%
%ADD14C,1.500000*%
%ADD15C,2.600000*%
G04 APERTURE END LIST*
D10*
%TO.C,J1*%
X159933600Y-34864000D03*
D11*
X157393600Y-34864000D03*
X159933600Y-32324000D03*
X157393600Y-32324000D03*
X159933600Y-29784000D03*
X157393600Y-29784000D03*
%TD*%
D12*
%TO.C,J4*%
X159367900Y-63133800D03*
X159367900Y-58135800D03*
%TD*%
D10*
%TO.C,J2*%
X101793000Y-34864000D03*
D11*
X99253000Y-34864000D03*
X101793000Y-32324000D03*
X99253000Y-32324000D03*
X101793000Y-29784000D03*
X99253000Y-29784000D03*
%TD*%
D12*
%TO.C,J3*%
X99938800Y-58069800D03*
X99938800Y-63067800D03*
%TD*%
D13*
%TO.C,RJ45-1*%
X102936000Y-93042500D03*
X156276000Y-93042500D03*
D14*
X104206000Y-86692500D03*
X105476000Y-84152500D03*
X106746000Y-86692500D03*
X108016000Y-84152500D03*
X109286000Y-86692500D03*
X110556000Y-84152500D03*
X111826000Y-86692500D03*
X113096000Y-84152500D03*
X118176000Y-86692500D03*
X119446000Y-84152500D03*
X120716000Y-86692500D03*
X121986000Y-84152500D03*
X123256000Y-86692500D03*
X124526000Y-84152500D03*
X125796000Y-86692500D03*
X127066000Y-84152500D03*
X132146000Y-86692500D03*
X133416000Y-84152500D03*
X134686000Y-86692500D03*
X135956000Y-84152500D03*
X137226000Y-86692500D03*
X138496000Y-84152500D03*
X139766000Y-86692500D03*
X141036000Y-84152500D03*
X146116000Y-86692500D03*
X147386000Y-84152500D03*
X148656000Y-86692500D03*
X149926000Y-84152500D03*
X151196000Y-86692500D03*
X152466000Y-84152500D03*
X153736000Y-86692500D03*
X155006000Y-84152500D03*
D15*
X143576000Y-82882500D03*
X159006000Y-97612500D03*
X100206000Y-97612500D03*
X129606000Y-82882500D03*
X115636000Y-82882500D03*
%TD*%
M02*
