M48
; DRILL file {KiCad (6.0.9)} date Thu Nov  9 13:28:12 2023
; FORMAT={-:-/ absolute / inch / decimal}
; #@! TF.CreationDate,2023-11-09T13:28:12+05:30
; #@! TF.GenerationSoftware,Kicad,Pcbnew,(6.0.9)
; #@! TF.FileFunction,Plated,1,2,PTH
FMAT,2
INCH
; #@! TA.AperFunction,Plated,PTH,ViaDrill
T1C0.0138
; #@! TA.AperFunction,Plated,PTH,ViaDrill
T2C0.0157
; #@! TA.AperFunction,Plated,PTH,ComponentDrill
T3C0.0354
; #@! TA.AperFunction,Plated,PTH,ComponentDrill
T4C0.0394
; #@! TA.AperFunction,Plated,PTH,ComponentDrill
T5C0.0630
; #@! TA.AperFunction,Plated,PTH,ComponentDrill
T6C0.0669
%
G90
G05
T1
X3.9026Y-1.4776
X3.9566Y-0.4698
X4.2747Y-0.7481
X4.3467Y-0.7153
X4.3872Y-0.9317
X4.3884Y-0.8937
X4.3892Y-0.8561
X4.3892Y-0.6812
X4.3926Y-0.8186
X4.3936Y-0.6396
X5.1829Y-0.7543
X5.1832Y-0.7127
X5.1872Y-0.6379
X5.1888Y-0.6755
X5.1905Y-0.8507
X5.1919Y-0.8883
X5.192Y-0.8131
X5.1926Y-0.9303
X5.4086Y-1.1846
X5.5453Y-1.2779
X5.6406Y-1.2586
X5.6753Y-1.2166
X6.0626Y-0.5826
X6.0976Y-0.5505
T2
X3.7876Y-2.8626
X3.8226Y-2.9376
X3.8526Y-0.7976
X3.9486Y-2.8626
X3.9776Y-2.9376
X4.1076Y-2.8576
X4.1426Y-2.9426
X4.1726Y-0.4346
X4.1879Y-1.1426
X4.2196Y-1.2526
X4.2226Y-1.7726
X4.2726Y-2.8626
X4.3076Y-1.2276
X4.3076Y-2.9426
X4.3246Y-1.7786
X4.3526Y-1.3126
X4.4131Y-1.2781
X4.4226Y-1.7726
X4.4326Y-2.8626
X4.4726Y-2.9326
X4.5226Y-1.7726
X4.5973Y-1.1703
X4.6176Y-2.8626
X4.6526Y-2.9326
X4.6876Y-1.7726
X4.6976Y-1.2847
X4.7176Y-1.2226
X4.7876Y-1.7726
X4.7976Y-2.8626
X4.8056Y-1.3203
X4.8326Y-2.9376
X4.8396Y-1.2596
X4.8876Y-1.7726
X4.9726Y-2.8626
X4.9876Y-1.7726
X5.0126Y-2.9326
X5.0323Y-1.1853
X5.0381Y-2.4902
X5.1426Y-1.2276
X5.143Y-1.302
X5.1466Y-1.7826
X5.1566Y-2.8606
X5.1926Y-1.9906
X5.1926Y-2.0486
X5.1926Y-2.1006
X5.1926Y-2.1506
X5.1926Y-2.2006
X5.1926Y-2.2466
X5.1926Y-2.9326
X5.2306Y-1.9906
X5.2306Y-2.0486
X5.2306Y-2.1006
X5.2306Y-2.1506
X5.2306Y-2.2006
X5.2306Y-2.2466
X5.2306Y-2.2886
X5.2476Y-1.2976
X5.2476Y-1.7726
X5.2666Y-1.9906
X5.2666Y-2.0486
X5.2666Y-2.1006
X5.2666Y-2.1506
X5.2666Y-2.2006
X5.2666Y-2.2466
X5.2666Y-2.2886
X5.2676Y-0.3918
X5.268Y-0.343
X5.2706Y-1.2546
X5.2746Y-0.4466
X5.3276Y-2.8626
X5.3476Y-1.7726
X5.3626Y-2.9376
X5.3926Y-2.5166
X5.4306Y-2.5166
X5.4476Y-1.7726
X5.4666Y-1.2286
X5.4706Y-2.5166
X5.4876Y-2.8626
X5.5276Y-2.9326
X5.5286Y-2.2586
X5.5286Y-2.3006
X5.5286Y-2.3406
X5.5286Y-2.3846
X5.5666Y-2.2586
X5.5666Y-2.3006
X5.5666Y-2.3406
X5.5666Y-2.3846
X5.5926Y-1.7726
X5.6026Y-2.0446
X5.6026Y-2.0946
X5.6026Y-2.1486
X5.6046Y-1.9926
X5.6046Y-2.1946
X5.6046Y-2.2566
X5.6046Y-2.2986
X5.6046Y-2.3386
X5.6046Y-2.3826
X5.6406Y-2.0466
X5.6406Y-2.0966
X5.6406Y-2.1506
X5.6426Y-2.1966
X5.6426Y-2.2566
X5.6426Y-2.2986
X5.6426Y-2.3386
X5.6426Y-2.3826
X5.6576Y-2.8626
X5.6806Y-2.0466
X5.6806Y-2.0966
X5.6806Y-2.1506
X5.6826Y-2.1966
X5.6926Y-1.7726
X5.6926Y-2.9376
X5.7926Y-1.7726
X5.8223Y-0.3074
X5.8254Y-0.5903
X5.8326Y-2.8676
X5.8726Y-2.9376
X5.8966Y-1.7806
X5.9073Y-0.4453
X5.9086Y-2.5126
X5.9306Y-2.2663
X5.9823Y-1.0879
X6.0026Y-2.8676
X6.0376Y-2.9376
X6.1726Y-2.8626
X6.2076Y-2.9376
X6.3426Y-2.8646
X6.3776Y-2.9376
T3
X4.1026Y-3.4131
X4.1526Y-3.3131
X4.2026Y-3.4131
X4.2526Y-3.3131
X4.3026Y-3.4131
X4.3526Y-3.3131
X4.4026Y-3.4131
X4.4526Y-3.3131
X4.6526Y-3.4131
X4.7026Y-3.3131
X4.7526Y-3.4131
X4.8026Y-3.3131
X4.8526Y-3.4131
X4.9026Y-3.3131
X4.9526Y-3.4131
X5.0026Y-3.3131
X5.2026Y-3.4131
X5.2526Y-3.3131
X5.3026Y-3.4131
X5.3526Y-3.3131
X5.4026Y-3.4131
X5.4526Y-3.3131
X5.5026Y-3.4131
X5.5526Y-3.3131
X5.7526Y-3.4131
X5.8026Y-3.3131
X5.8526Y-3.4131
X5.9026Y-3.3131
X5.9526Y-3.4131
X6.0026Y-3.3131
X6.0526Y-3.4131
X6.1026Y-3.3131
T4
X3.9076Y-1.1726
X3.9076Y-1.2726
X3.9076Y-1.3726
X4.0076Y-1.1726
X4.0076Y-1.2726
X4.0076Y-1.3726
X6.1966Y-1.1726
X6.1966Y-1.2726
X6.1966Y-1.3726
X6.2966Y-1.1726
X6.2966Y-1.2726
X6.2966Y-1.3726
T5
X3.9451Y-3.843
X4.5526Y-3.2631
X5.1026Y-3.2631
X5.6526Y-3.2631
X6.2601Y-3.843
T6
X3.9346Y-2.2862
X3.9346Y-2.483
X6.2743Y-2.2888
X6.2743Y-2.4856
T0
M30
