%TF.GenerationSoftware,KiCad,Pcbnew,(6.0.9)*%
%TF.CreationDate,2024-01-30T00:57:56+05:30*%
%TF.ProjectId,Modular-I2C-4PxRJ45-Relay-Driver,4d6f6475-6c61-4722-9d49-32432d345078,2*%
%TF.SameCoordinates,Original*%
%TF.FileFunction,Legend,Bot*%
%TF.FilePolarity,Positive*%
%FSLAX46Y46*%
G04 Gerber Fmt 4.6, Leading zero omitted, Abs format (unit mm)*
G04 Created by KiCad (PCBNEW (6.0.9)) date 2024-01-30 00:57:56*
%MOMM*%
%LPD*%
G01*
G04 APERTURE LIST*
G04 Aperture macros list*
%AMRoundRect*
0 Rectangle with rounded corners*
0 $1 Rounding radius*
0 $2 $3 $4 $5 $6 $7 $8 $9 X,Y pos of 4 corners*
0 Add a 4 corners polygon primitive as box body*
4,1,4,$2,$3,$4,$5,$6,$7,$8,$9,$2,$3,0*
0 Add four circle primitives for the rounded corners*
1,1,$1+$1,$2,$3*
1,1,$1+$1,$4,$5*
1,1,$1+$1,$6,$7*
1,1,$1+$1,$8,$9*
0 Add four rect primitives between the rounded corners*
20,1,$1+$1,$2,$3,$4,$5,0*
20,1,$1+$1,$4,$5,$6,$7,0*
20,1,$1+$1,$6,$7,$8,$9,0*
20,1,$1+$1,$8,$9,$2,$3,0*%
G04 Aperture macros list end*
%ADD10C,0.254000*%
%ADD11C,0.406400*%
%ADD12C,0.300000*%
%ADD13C,0.241808*%
%ADD14C,0.200000*%
%ADD15C,0.476000*%
%ADD16RoundRect,0.250000X0.600000X0.600000X-0.600000X0.600000X-0.600000X-0.600000X0.600000X-0.600000X0*%
%ADD17C,1.700000*%
%ADD18C,3.000000*%
%ADD19C,3.250000*%
%ADD20C,1.500000*%
%ADD21C,2.600000*%
G04 APERTURE END LIST*
D10*
X153688351Y-36130800D02*
X150894351Y-34352800D01*
X153180351Y-35876800D02*
X152926351Y-35876800D01*
X149116351Y-35876800D02*
X150894351Y-34606800D01*
X148354351Y-36130800D02*
X153688351Y-36130800D01*
D11*
X150132351Y-35368800D02*
X151402351Y-35368800D01*
D10*
X150894351Y-34352800D02*
X148354351Y-36130800D01*
D11*
X151402351Y-35368800D02*
X150894351Y-35114800D01*
X152418351Y-35622800D02*
X150894351Y-34860800D01*
D10*
X150894351Y-34606800D02*
X152926351Y-35876800D01*
X152926351Y-35876800D02*
X149116351Y-35876800D01*
D11*
X150894351Y-34860800D02*
X150132351Y-35368800D01*
X149624351Y-35622800D02*
X152418351Y-35622800D01*
D12*
X150021285Y-97661571D02*
X150021285Y-98661571D01*
X150378428Y-97090142D02*
X150735571Y-98161571D01*
X149807000Y-98161571D01*
D13*
X131568200Y-28101870D02*
X131399544Y-28158088D01*
X131343326Y-28214307D01*
X131287107Y-28326744D01*
X131287107Y-28495400D01*
X131343326Y-28607838D01*
X131399544Y-28664056D01*
X131511982Y-28720275D01*
X131961731Y-28720275D01*
X131961731Y-27539683D01*
X131568200Y-27539683D01*
X131455763Y-27595902D01*
X131399544Y-27652120D01*
X131343326Y-27764558D01*
X131343326Y-27876995D01*
X131399544Y-27989432D01*
X131455763Y-28045651D01*
X131568200Y-28101870D01*
X131961731Y-28101870D01*
X130275171Y-28720275D02*
X130275171Y-28101870D01*
X130331390Y-27989432D01*
X130443827Y-27933214D01*
X130668702Y-27933214D01*
X130781139Y-27989432D01*
X130275171Y-28664056D02*
X130387608Y-28720275D01*
X130668702Y-28720275D01*
X130781139Y-28664056D01*
X130837358Y-28551619D01*
X130837358Y-28439182D01*
X130781139Y-28326744D01*
X130668702Y-28270526D01*
X130387608Y-28270526D01*
X130275171Y-28214307D01*
X129769203Y-28664056D02*
X129656766Y-28720275D01*
X129431891Y-28720275D01*
X129319454Y-28664056D01*
X129263235Y-28551619D01*
X129263235Y-28495400D01*
X129319454Y-28382963D01*
X129431891Y-28326744D01*
X129600547Y-28326744D01*
X129712984Y-28270526D01*
X129769203Y-28158088D01*
X129769203Y-28101870D01*
X129712984Y-27989432D01*
X129600547Y-27933214D01*
X129431891Y-27933214D01*
X129319454Y-27989432D01*
X128307518Y-28664056D02*
X128419955Y-28720275D01*
X128644830Y-28720275D01*
X128757267Y-28664056D01*
X128813486Y-28551619D01*
X128813486Y-28101870D01*
X128757267Y-27989432D01*
X128644830Y-27933214D01*
X128419955Y-27933214D01*
X128307518Y-27989432D01*
X128251299Y-28101870D01*
X128251299Y-28214307D01*
X128813486Y-28326744D01*
X127239363Y-28720275D02*
X127239363Y-27539683D01*
X127239363Y-28664056D02*
X127351800Y-28720275D01*
X127576675Y-28720275D01*
X127689112Y-28664056D01*
X127745331Y-28607838D01*
X127801550Y-28495400D01*
X127801550Y-28158088D01*
X127745331Y-28045651D01*
X127689112Y-27989432D01*
X127576675Y-27933214D01*
X127351800Y-27933214D01*
X127239363Y-27989432D01*
X125609022Y-28720275D02*
X125721459Y-28664056D01*
X125777678Y-28607838D01*
X125833896Y-28495400D01*
X125833896Y-28158088D01*
X125777678Y-28045651D01*
X125721459Y-27989432D01*
X125609022Y-27933214D01*
X125440366Y-27933214D01*
X125327928Y-27989432D01*
X125271710Y-28045651D01*
X125215491Y-28158088D01*
X125215491Y-28495400D01*
X125271710Y-28607838D01*
X125327928Y-28664056D01*
X125440366Y-28720275D01*
X125609022Y-28720275D01*
X124709523Y-27933214D02*
X124709523Y-28720275D01*
X124709523Y-28045651D02*
X124653304Y-27989432D01*
X124540867Y-27933214D01*
X124372211Y-27933214D01*
X124259774Y-27989432D01*
X124203555Y-28101870D01*
X124203555Y-28720275D01*
X122235902Y-28720275D02*
X122235902Y-27539683D01*
X122235902Y-28664056D02*
X122348339Y-28720275D01*
X122573214Y-28720275D01*
X122685651Y-28664056D01*
X122741870Y-28607838D01*
X122798088Y-28495400D01*
X122798088Y-28158088D01*
X122741870Y-28045651D01*
X122685651Y-27989432D01*
X122573214Y-27933214D01*
X122348339Y-27933214D01*
X122235902Y-27989432D01*
X121223966Y-28664056D02*
X121336403Y-28720275D01*
X121561278Y-28720275D01*
X121673715Y-28664056D01*
X121729934Y-28551619D01*
X121729934Y-28101870D01*
X121673715Y-27989432D01*
X121561278Y-27933214D01*
X121336403Y-27933214D01*
X121223966Y-27989432D01*
X121167747Y-28101870D01*
X121167747Y-28214307D01*
X121729934Y-28326744D01*
X120717998Y-28664056D02*
X120605560Y-28720275D01*
X120380686Y-28720275D01*
X120268248Y-28664056D01*
X120212030Y-28551619D01*
X120212030Y-28495400D01*
X120268248Y-28382963D01*
X120380686Y-28326744D01*
X120549342Y-28326744D01*
X120661779Y-28270526D01*
X120717998Y-28158088D01*
X120717998Y-28101870D01*
X120661779Y-27989432D01*
X120549342Y-27933214D01*
X120380686Y-27933214D01*
X120268248Y-27989432D01*
X119706062Y-28720275D02*
X119706062Y-27933214D01*
X119706062Y-27539683D02*
X119762280Y-27595902D01*
X119706062Y-27652120D01*
X119649843Y-27595902D01*
X119706062Y-27539683D01*
X119706062Y-27652120D01*
X118637907Y-27933214D02*
X118637907Y-28888931D01*
X118694126Y-29001368D01*
X118750344Y-29057587D01*
X118862782Y-29113806D01*
X119031438Y-29113806D01*
X119143875Y-29057587D01*
X118637907Y-28664056D02*
X118750344Y-28720275D01*
X118975219Y-28720275D01*
X119087656Y-28664056D01*
X119143875Y-28607838D01*
X119200094Y-28495400D01*
X119200094Y-28158088D01*
X119143875Y-28045651D01*
X119087656Y-27989432D01*
X118975219Y-27933214D01*
X118750344Y-27933214D01*
X118637907Y-27989432D01*
X118075720Y-27933214D02*
X118075720Y-28720275D01*
X118075720Y-28045651D02*
X118019502Y-27989432D01*
X117907064Y-27933214D01*
X117738408Y-27933214D01*
X117625971Y-27989432D01*
X117569752Y-28101870D01*
X117569752Y-28720275D01*
X131062232Y-30621028D02*
X131062232Y-29440436D01*
X131062232Y-29890185D02*
X130949795Y-29833967D01*
X130724920Y-29833967D01*
X130612483Y-29890185D01*
X130556264Y-29946404D01*
X130500046Y-30058841D01*
X130500046Y-30396153D01*
X130556264Y-30508591D01*
X130612483Y-30564809D01*
X130724920Y-30621028D01*
X130949795Y-30621028D01*
X131062232Y-30564809D01*
X130106515Y-29833967D02*
X129825422Y-30621028D01*
X129544328Y-29833967D02*
X129825422Y-30621028D01*
X129937859Y-30902121D01*
X129994078Y-30958340D01*
X130106515Y-31014559D01*
X127857768Y-29440436D02*
X127857768Y-30283716D01*
X127913987Y-30452372D01*
X128026424Y-30564809D01*
X128195080Y-30621028D01*
X128307518Y-30621028D01*
X127126926Y-30621028D02*
X127239363Y-30564809D01*
X127295582Y-30508591D01*
X127351800Y-30396153D01*
X127351800Y-30058841D01*
X127295582Y-29946404D01*
X127239363Y-29890185D01*
X127126926Y-29833967D01*
X126958270Y-29833967D01*
X126845832Y-29890185D01*
X126789614Y-29946404D01*
X126733395Y-30058841D01*
X126733395Y-30396153D01*
X126789614Y-30508591D01*
X126845832Y-30564809D01*
X126958270Y-30621028D01*
X127126926Y-30621028D01*
X126227427Y-29833967D02*
X126227427Y-30621028D01*
X126227427Y-29946404D02*
X126171208Y-29890185D01*
X126058771Y-29833967D01*
X125890115Y-29833967D01*
X125777678Y-29890185D01*
X125721459Y-30002623D01*
X125721459Y-30621028D01*
X124034899Y-29440436D02*
X123810024Y-29440436D01*
X123697587Y-29496655D01*
X123585150Y-29609092D01*
X123528931Y-29833967D01*
X123528931Y-30227497D01*
X123585150Y-30452372D01*
X123697587Y-30564809D01*
X123810024Y-30621028D01*
X124034899Y-30621028D01*
X124147336Y-30564809D01*
X124259774Y-30452372D01*
X124315992Y-30227497D01*
X124315992Y-29833967D01*
X124259774Y-29609092D01*
X124147336Y-29496655D01*
X124034899Y-29440436D01*
X123135400Y-30621028D02*
X122516995Y-29833967D01*
X123135400Y-29833967D02*
X122516995Y-30621028D01*
X121617496Y-30564809D02*
X121729934Y-30621028D01*
X121954808Y-30621028D01*
X122067246Y-30564809D01*
X122123464Y-30452372D01*
X122123464Y-30002623D01*
X122067246Y-29890185D01*
X121954808Y-29833967D01*
X121729934Y-29833967D01*
X121617496Y-29890185D01*
X121561278Y-30002623D01*
X121561278Y-30115060D01*
X122123464Y-30227497D01*
X121055310Y-30621028D02*
X121055310Y-29833967D01*
X121055310Y-30058841D02*
X120999091Y-29946404D01*
X120942872Y-29890185D01*
X120830435Y-29833967D01*
X120717998Y-29833967D01*
X131062232Y-32521781D02*
X131062232Y-31341189D01*
X131062232Y-31790938D02*
X130949795Y-31734720D01*
X130724920Y-31734720D01*
X130612483Y-31790938D01*
X130556264Y-31847157D01*
X130500046Y-31959594D01*
X130500046Y-32296906D01*
X130556264Y-32409344D01*
X130612483Y-32465562D01*
X130724920Y-32521781D01*
X130949795Y-32521781D01*
X131062232Y-32465562D01*
X130106515Y-31734720D02*
X129825422Y-32521781D01*
X129544328Y-31734720D02*
X129825422Y-32521781D01*
X129937859Y-32802874D01*
X129994078Y-32859093D01*
X130106515Y-32915312D01*
X128251299Y-32184469D02*
X127689112Y-32184469D01*
X128363736Y-32521781D02*
X127970206Y-31341189D01*
X127576675Y-32521781D01*
X126677176Y-31734720D02*
X126677176Y-32521781D01*
X127183144Y-31734720D02*
X127183144Y-32353125D01*
X127126926Y-32465562D01*
X127014488Y-32521781D01*
X126845832Y-32521781D01*
X126733395Y-32465562D01*
X126677176Y-32409344D01*
X126171208Y-32465562D02*
X126058771Y-32521781D01*
X125833896Y-32521781D01*
X125721459Y-32465562D01*
X125665240Y-32353125D01*
X125665240Y-32296906D01*
X125721459Y-32184469D01*
X125833896Y-32128250D01*
X126002552Y-32128250D01*
X126114990Y-32072032D01*
X126171208Y-31959594D01*
X126171208Y-31903376D01*
X126114990Y-31790938D01*
X126002552Y-31734720D01*
X125833896Y-31734720D01*
X125721459Y-31790938D01*
X125327928Y-31734720D02*
X124878179Y-31734720D01*
X125159272Y-31341189D02*
X125159272Y-32353125D01*
X125103054Y-32465562D01*
X124990616Y-32521781D01*
X124878179Y-32521781D01*
X124484648Y-32521781D02*
X124484648Y-31734720D01*
X124484648Y-31341189D02*
X124540867Y-31397408D01*
X124484648Y-31453626D01*
X124428430Y-31397408D01*
X124484648Y-31341189D01*
X124484648Y-31453626D01*
X123922462Y-31734720D02*
X123922462Y-32521781D01*
X123922462Y-31847157D02*
X123866243Y-31790938D01*
X123753806Y-31734720D01*
X123585150Y-31734720D01*
X123472712Y-31790938D01*
X123416494Y-31903376D01*
X123416494Y-32521781D01*
X122798088Y-31341189D02*
X122910526Y-31566064D01*
X122348339Y-32465562D02*
X122235902Y-32521781D01*
X122011027Y-32521781D01*
X121898590Y-32465562D01*
X121842371Y-32353125D01*
X121842371Y-32296906D01*
X121898590Y-32184469D01*
X122011027Y-32128250D01*
X122179683Y-32128250D01*
X122292120Y-32072032D01*
X122348339Y-31959594D01*
X122348339Y-31903376D01*
X122292120Y-31790938D01*
X122179683Y-31734720D01*
X122011027Y-31734720D01*
X121898590Y-31790938D01*
X119762280Y-32409344D02*
X119818499Y-32465562D01*
X119987155Y-32521781D01*
X120099592Y-32521781D01*
X120268248Y-32465562D01*
X120380686Y-32353125D01*
X120436904Y-32240688D01*
X120493123Y-32015813D01*
X120493123Y-31847157D01*
X120436904Y-31622282D01*
X120380686Y-31509845D01*
X120268248Y-31397408D01*
X120099592Y-31341189D01*
X119987155Y-31341189D01*
X119818499Y-31397408D01*
X119762280Y-31453626D01*
X119256312Y-32521781D02*
X119256312Y-31734720D01*
X119256312Y-31959594D02*
X119200094Y-31847157D01*
X119143875Y-31790938D01*
X119031438Y-31734720D01*
X118919000Y-31734720D01*
X118075720Y-32465562D02*
X118188158Y-32521781D01*
X118413032Y-32521781D01*
X118525470Y-32465562D01*
X118581688Y-32353125D01*
X118581688Y-31903376D01*
X118525470Y-31790938D01*
X118413032Y-31734720D01*
X118188158Y-31734720D01*
X118075720Y-31790938D01*
X118019502Y-31903376D01*
X118019502Y-32015813D01*
X118581688Y-32128250D01*
X117007566Y-32521781D02*
X117007566Y-31903376D01*
X117063784Y-31790938D01*
X117176222Y-31734720D01*
X117401096Y-31734720D01*
X117513534Y-31790938D01*
X117007566Y-32465562D02*
X117120003Y-32521781D01*
X117401096Y-32521781D01*
X117513534Y-32465562D01*
X117569752Y-32353125D01*
X117569752Y-32240688D01*
X117513534Y-32128250D01*
X117401096Y-32072032D01*
X117120003Y-32072032D01*
X117007566Y-32015813D01*
X116614035Y-31734720D02*
X116164286Y-31734720D01*
X116445379Y-31341189D02*
X116445379Y-32353125D01*
X116389160Y-32465562D01*
X116276723Y-32521781D01*
X116164286Y-32521781D01*
X115770755Y-32521781D02*
X115770755Y-31734720D01*
X115770755Y-31341189D02*
X115826974Y-31397408D01*
X115770755Y-31453626D01*
X115714536Y-31397408D01*
X115770755Y-31341189D01*
X115770755Y-31453626D01*
X115039912Y-32521781D02*
X115152350Y-32465562D01*
X115208568Y-32409344D01*
X115264787Y-32296906D01*
X115264787Y-31959594D01*
X115208568Y-31847157D01*
X115152350Y-31790938D01*
X115039912Y-31734720D01*
X114871256Y-31734720D01*
X114758819Y-31790938D01*
X114702600Y-31847157D01*
X114646382Y-31959594D01*
X114646382Y-32296906D01*
X114702600Y-32409344D01*
X114758819Y-32465562D01*
X114871256Y-32521781D01*
X115039912Y-32521781D01*
X114140414Y-31734720D02*
X114140414Y-32521781D01*
X114140414Y-31847157D02*
X114084195Y-31790938D01*
X113971758Y-31734720D01*
X113803102Y-31734720D01*
X113690664Y-31790938D01*
X113634446Y-31903376D01*
X113634446Y-32521781D01*
X113128478Y-32465562D02*
X113016040Y-32521781D01*
X112791166Y-32521781D01*
X112678728Y-32465562D01*
X112622510Y-32353125D01*
X112622510Y-32296906D01*
X112678728Y-32184469D01*
X112791166Y-32128250D01*
X112959822Y-32128250D01*
X113072259Y-32072032D01*
X113128478Y-31959594D01*
X113128478Y-31903376D01*
X113072259Y-31790938D01*
X112959822Y-31734720D01*
X112791166Y-31734720D01*
X112678728Y-31790938D01*
D14*
X102005095Y-28263666D02*
X101205095Y-27997000D01*
X102005095Y-27730333D01*
X101281285Y-27006523D02*
X101243190Y-27044619D01*
X101205095Y-27158904D01*
X101205095Y-27235095D01*
X101243190Y-27349380D01*
X101319380Y-27425571D01*
X101395571Y-27463666D01*
X101547952Y-27501761D01*
X101662238Y-27501761D01*
X101814619Y-27463666D01*
X101890809Y-27425571D01*
X101967000Y-27349380D01*
X102005095Y-27235095D01*
X102005095Y-27158904D01*
X101967000Y-27044619D01*
X101928904Y-27006523D01*
X101281285Y-26206523D02*
X101243190Y-26244619D01*
X101205095Y-26358904D01*
X101205095Y-26435095D01*
X101243190Y-26549380D01*
X101319380Y-26625571D01*
X101395571Y-26663666D01*
X101547952Y-26701761D01*
X101662238Y-26701761D01*
X101814619Y-26663666D01*
X101890809Y-26625571D01*
X101967000Y-26549380D01*
X102005095Y-26435095D01*
X102005095Y-26358904D01*
X101967000Y-26244619D01*
X101928904Y-26206523D01*
D15*
X131614409Y-13368413D02*
X131614409Y-11044413D01*
X130947742Y-12704413D01*
X130281076Y-11044413D01*
X130281076Y-13368413D01*
X129042980Y-13368413D02*
X129233457Y-13257746D01*
X129328695Y-13147080D01*
X129423933Y-12925746D01*
X129423933Y-12261746D01*
X129328695Y-12040413D01*
X129233457Y-11929746D01*
X129042980Y-11819080D01*
X128757266Y-11819080D01*
X128566790Y-11929746D01*
X128471552Y-12040413D01*
X128376314Y-12261746D01*
X128376314Y-12925746D01*
X128471552Y-13147080D01*
X128566790Y-13257746D01*
X128757266Y-13368413D01*
X129042980Y-13368413D01*
X126662028Y-13368413D02*
X126662028Y-11044413D01*
X126662028Y-13257746D02*
X126852504Y-13368413D01*
X127233457Y-13368413D01*
X127423933Y-13257746D01*
X127519171Y-13147080D01*
X127614409Y-12925746D01*
X127614409Y-12261746D01*
X127519171Y-12040413D01*
X127423933Y-11929746D01*
X127233457Y-11819080D01*
X126852504Y-11819080D01*
X126662028Y-11929746D01*
X124852504Y-11819080D02*
X124852504Y-13368413D01*
X125709647Y-11819080D02*
X125709647Y-13036413D01*
X125614409Y-13257746D01*
X125423933Y-13368413D01*
X125138219Y-13368413D01*
X124947742Y-13257746D01*
X124852504Y-13147080D01*
X123614409Y-13368413D02*
X123804885Y-13257746D01*
X123900123Y-13036413D01*
X123900123Y-11044413D01*
X121995361Y-13368413D02*
X121995361Y-12151080D01*
X122090600Y-11929746D01*
X122281076Y-11819080D01*
X122662028Y-11819080D01*
X122852504Y-11929746D01*
X121995361Y-13257746D02*
X122185838Y-13368413D01*
X122662028Y-13368413D01*
X122852504Y-13257746D01*
X122947742Y-13036413D01*
X122947742Y-12815080D01*
X122852504Y-12593746D01*
X122662028Y-12483080D01*
X122185838Y-12483080D01*
X121995361Y-12372413D01*
X121042980Y-13368413D02*
X121042980Y-11819080D01*
X121042980Y-12261746D02*
X120947742Y-12040413D01*
X120852504Y-11929746D01*
X120662028Y-11819080D01*
X120471552Y-11819080D01*
X130757266Y-15560720D02*
X130757266Y-17110053D01*
X131233457Y-14675386D02*
X131709647Y-16335386D01*
X130471552Y-16335386D01*
X129709647Y-16224720D02*
X128185838Y-16224720D01*
X127233457Y-17110053D02*
X127233457Y-14786053D01*
X126471552Y-14786053D01*
X126281076Y-14896720D01*
X126185838Y-15007386D01*
X126090600Y-15228720D01*
X126090600Y-15560720D01*
X126185838Y-15782053D01*
X126281076Y-15892720D01*
X126471552Y-16003386D01*
X127233457Y-16003386D01*
X124947742Y-17110053D02*
X125138219Y-16999386D01*
X125233457Y-16888720D01*
X125328695Y-16667386D01*
X125328695Y-16003386D01*
X125233457Y-15782053D01*
X125138219Y-15671386D01*
X124947742Y-15560720D01*
X124662028Y-15560720D01*
X124471552Y-15671386D01*
X124376314Y-15782053D01*
X124281076Y-16003386D01*
X124281076Y-16667386D01*
X124376314Y-16888720D01*
X124471552Y-16999386D01*
X124662028Y-17110053D01*
X124947742Y-17110053D01*
X123423933Y-17110053D02*
X123423933Y-15560720D01*
X123423933Y-16003386D02*
X123328695Y-15782053D01*
X123233457Y-15671386D01*
X123042980Y-15560720D01*
X122852504Y-15560720D01*
X122471552Y-15560720D02*
X121709647Y-15560720D01*
X122185838Y-14786053D02*
X122185838Y-16778053D01*
X122090600Y-16999386D01*
X121900123Y-17110053D01*
X121709647Y-17110053D01*
X131614409Y-20851693D02*
X131614409Y-18527693D01*
X130757266Y-18749026D02*
X130662028Y-18638360D01*
X130471552Y-18527693D01*
X129995361Y-18527693D01*
X129804885Y-18638360D01*
X129709647Y-18749026D01*
X129614409Y-18970360D01*
X129614409Y-19191693D01*
X129709647Y-19523693D01*
X130852504Y-20851693D01*
X129614409Y-20851693D01*
X127614409Y-20630360D02*
X127709647Y-20741026D01*
X127995361Y-20851693D01*
X128185838Y-20851693D01*
X128471552Y-20741026D01*
X128662028Y-20519693D01*
X128757266Y-20298360D01*
X128852504Y-19855693D01*
X128852504Y-19523693D01*
X128757266Y-19081026D01*
X128662028Y-18859693D01*
X128471552Y-18638360D01*
X128185838Y-18527693D01*
X127995361Y-18527693D01*
X127709647Y-18638360D01*
X127614409Y-18749026D01*
X124090600Y-20851693D02*
X124757266Y-19745026D01*
X125233457Y-20851693D02*
X125233457Y-18527693D01*
X124471552Y-18527693D01*
X124281076Y-18638360D01*
X124185838Y-18749026D01*
X124090600Y-18970360D01*
X124090600Y-19302360D01*
X124185838Y-19523693D01*
X124281076Y-19634360D01*
X124471552Y-19745026D01*
X125233457Y-19745026D01*
X122662028Y-18527693D02*
X122662028Y-20187693D01*
X122757266Y-20519693D01*
X122947742Y-20741026D01*
X123233457Y-20851693D01*
X123423933Y-20851693D01*
X120852504Y-19302360D02*
X120852504Y-20851693D01*
X121328695Y-18417026D02*
X121804885Y-20077026D01*
X120566790Y-20077026D01*
X118852504Y-18527693D02*
X119804885Y-18527693D01*
X119900123Y-19634360D01*
X119804885Y-19523693D01*
X119614409Y-19413026D01*
X119138219Y-19413026D01*
X118947742Y-19523693D01*
X118852504Y-19634360D01*
X118757266Y-19855693D01*
X118757266Y-20409026D01*
X118852504Y-20630360D01*
X118947742Y-20741026D01*
X119138219Y-20851693D01*
X119614409Y-20851693D01*
X119804885Y-20741026D01*
X119900123Y-20630360D01*
X130471552Y-24593333D02*
X131138219Y-23486666D01*
X131614409Y-24593333D02*
X131614409Y-22269333D01*
X130852504Y-22269333D01*
X130662028Y-22380000D01*
X130566790Y-22490666D01*
X130471552Y-22712000D01*
X130471552Y-23044000D01*
X130566790Y-23265333D01*
X130662028Y-23376000D01*
X130852504Y-23486666D01*
X131614409Y-23486666D01*
X128852504Y-24482666D02*
X129042980Y-24593333D01*
X129423933Y-24593333D01*
X129614409Y-24482666D01*
X129709647Y-24261333D01*
X129709647Y-23376000D01*
X129614409Y-23154666D01*
X129423933Y-23044000D01*
X129042980Y-23044000D01*
X128852504Y-23154666D01*
X128757266Y-23376000D01*
X128757266Y-23597333D01*
X129709647Y-23818666D01*
X127614409Y-24593333D02*
X127804885Y-24482666D01*
X127900123Y-24261333D01*
X127900123Y-22269333D01*
X125995361Y-24593333D02*
X125995361Y-23376000D01*
X126090600Y-23154666D01*
X126281076Y-23044000D01*
X126662028Y-23044000D01*
X126852504Y-23154666D01*
X125995361Y-24482666D02*
X126185838Y-24593333D01*
X126662028Y-24593333D01*
X126852504Y-24482666D01*
X126947742Y-24261333D01*
X126947742Y-24040000D01*
X126852504Y-23818666D01*
X126662028Y-23708000D01*
X126185838Y-23708000D01*
X125995361Y-23597333D01*
X125233457Y-23044000D02*
X124757266Y-24593333D01*
X124281076Y-23044000D02*
X124757266Y-24593333D01*
X124947742Y-25146666D01*
X125042980Y-25257333D01*
X125233457Y-25368000D01*
X121995361Y-24593333D02*
X121995361Y-22269333D01*
X121519171Y-22269333D01*
X121233457Y-22380000D01*
X121042980Y-22601333D01*
X120947742Y-22822666D01*
X120852504Y-23265333D01*
X120852504Y-23597333D01*
X120947742Y-24040000D01*
X121042980Y-24261333D01*
X121233457Y-24482666D01*
X121519171Y-24593333D01*
X121995361Y-24593333D01*
X119995361Y-24593333D02*
X119995361Y-23044000D01*
X119995361Y-23486666D02*
X119900123Y-23265333D01*
X119804885Y-23154666D01*
X119614409Y-23044000D01*
X119423933Y-23044000D01*
X118757266Y-24593333D02*
X118757266Y-23044000D01*
X118757266Y-22269333D02*
X118852504Y-22380000D01*
X118757266Y-22490666D01*
X118662028Y-22380000D01*
X118757266Y-22269333D01*
X118757266Y-22490666D01*
X117995361Y-23044000D02*
X117519171Y-24593333D01*
X117042980Y-23044000D01*
X115519171Y-24482666D02*
X115709647Y-24593333D01*
X116090600Y-24593333D01*
X116281076Y-24482666D01*
X116376314Y-24261333D01*
X116376314Y-23376000D01*
X116281076Y-23154666D01*
X116090600Y-23044000D01*
X115709647Y-23044000D01*
X115519171Y-23154666D01*
X115423933Y-23376000D01*
X115423933Y-23597333D01*
X116376314Y-23818666D01*
X114566790Y-24593333D02*
X114566790Y-23044000D01*
X114566790Y-23486666D02*
X114471552Y-23265333D01*
X114376314Y-23154666D01*
X114185838Y-23044000D01*
X113995361Y-23044000D01*
X111138219Y-23376000D02*
X110852504Y-23486666D01*
X110757266Y-23597333D01*
X110662028Y-23818666D01*
X110662028Y-24150666D01*
X110757266Y-24372000D01*
X110852504Y-24482666D01*
X111042980Y-24593333D01*
X111804885Y-24593333D01*
X111804885Y-22269333D01*
X111138219Y-22269333D01*
X110947742Y-22380000D01*
X110852504Y-22490666D01*
X110757266Y-22712000D01*
X110757266Y-22933333D01*
X110852504Y-23154666D01*
X110947742Y-23265333D01*
X111138219Y-23376000D01*
X111804885Y-23376000D01*
X109804885Y-24593333D02*
X109804885Y-23044000D01*
X109804885Y-23486666D02*
X109709647Y-23265333D01*
X109614409Y-23154666D01*
X109423933Y-23044000D01*
X109233457Y-23044000D01*
X107804885Y-24482666D02*
X107995361Y-24593333D01*
X108376314Y-24593333D01*
X108566790Y-24482666D01*
X108662028Y-24261333D01*
X108662028Y-23376000D01*
X108566790Y-23154666D01*
X108376314Y-23044000D01*
X107995361Y-23044000D01*
X107804885Y-23154666D01*
X107709647Y-23376000D01*
X107709647Y-23597333D01*
X108662028Y-23818666D01*
X105995361Y-24593333D02*
X105995361Y-23376000D01*
X106090600Y-23154666D01*
X106281076Y-23044000D01*
X106662028Y-23044000D01*
X106852504Y-23154666D01*
X105995361Y-24482666D02*
X106185838Y-24593333D01*
X106662028Y-24593333D01*
X106852504Y-24482666D01*
X106947742Y-24261333D01*
X106947742Y-24040000D01*
X106852504Y-23818666D01*
X106662028Y-23708000D01*
X106185838Y-23708000D01*
X105995361Y-23597333D01*
X105042980Y-24593333D02*
X105042980Y-22269333D01*
X104852504Y-23708000D02*
X104281076Y-24593333D01*
X104281076Y-23044000D02*
X105042980Y-23929333D01*
X103138219Y-24593333D02*
X103328695Y-24482666D01*
X103423933Y-24372000D01*
X103519171Y-24150666D01*
X103519171Y-23486666D01*
X103423933Y-23265333D01*
X103328695Y-23154666D01*
X103138219Y-23044000D01*
X102852504Y-23044000D01*
X102662028Y-23154666D01*
X102566790Y-23265333D01*
X102471552Y-23486666D01*
X102471552Y-24150666D01*
X102566790Y-24372000D01*
X102662028Y-24482666D01*
X102852504Y-24593333D01*
X103138219Y-24593333D01*
X100757266Y-23044000D02*
X100757266Y-24593333D01*
X101614409Y-23044000D02*
X101614409Y-24261333D01*
X101519171Y-24482666D01*
X101328695Y-24593333D01*
X101042980Y-24593333D01*
X100852504Y-24482666D01*
X100757266Y-24372000D01*
X100090600Y-23044000D02*
X99328695Y-23044000D01*
X99804885Y-22269333D02*
X99804885Y-24261333D01*
X99709647Y-24482666D01*
X99519171Y-24593333D01*
X99328695Y-24593333D01*
D14*
X98705095Y-27835095D02*
X99086047Y-28101761D01*
X98705095Y-28292238D02*
X99505095Y-28292238D01*
X99505095Y-27987476D01*
X99467000Y-27911285D01*
X99428904Y-27873190D01*
X99352714Y-27835095D01*
X99238428Y-27835095D01*
X99162238Y-27873190D01*
X99124142Y-27911285D01*
X99086047Y-27987476D01*
X99086047Y-28292238D01*
X98743190Y-27530333D02*
X98705095Y-27416047D01*
X98705095Y-27225571D01*
X98743190Y-27149380D01*
X98781285Y-27111285D01*
X98857476Y-27073190D01*
X98933666Y-27073190D01*
X99009857Y-27111285D01*
X99047952Y-27149380D01*
X99086047Y-27225571D01*
X99124142Y-27377952D01*
X99162238Y-27454142D01*
X99200333Y-27492238D01*
X99276523Y-27530333D01*
X99352714Y-27530333D01*
X99428904Y-27492238D01*
X99467000Y-27454142D01*
X99505095Y-27377952D01*
X99505095Y-27187476D01*
X99467000Y-27073190D01*
X99505095Y-26844619D02*
X99505095Y-26387476D01*
X98705095Y-26616047D02*
X99505095Y-26616047D01*
X157140904Y-27112904D02*
X156759952Y-26846238D01*
X157140904Y-26655761D02*
X156340904Y-26655761D01*
X156340904Y-26960523D01*
X156379000Y-27036714D01*
X156417095Y-27074809D01*
X156493285Y-27112904D01*
X156607571Y-27112904D01*
X156683761Y-27074809D01*
X156721857Y-27036714D01*
X156759952Y-26960523D01*
X156759952Y-26655761D01*
X157102809Y-27417666D02*
X157140904Y-27531952D01*
X157140904Y-27722428D01*
X157102809Y-27798619D01*
X157064714Y-27836714D01*
X156988523Y-27874809D01*
X156912333Y-27874809D01*
X156836142Y-27836714D01*
X156798047Y-27798619D01*
X156759952Y-27722428D01*
X156721857Y-27570047D01*
X156683761Y-27493857D01*
X156645666Y-27455761D01*
X156569476Y-27417666D01*
X156493285Y-27417666D01*
X156417095Y-27455761D01*
X156379000Y-27493857D01*
X156340904Y-27570047D01*
X156340904Y-27760523D01*
X156379000Y-27874809D01*
X156340904Y-28103380D02*
X156340904Y-28560523D01*
X157140904Y-28331952D02*
X156340904Y-28331952D01*
X97367000Y-32806523D02*
X97405095Y-32882714D01*
X97405095Y-32997000D01*
X97367000Y-33111285D01*
X97290809Y-33187476D01*
X97214619Y-33225571D01*
X97062238Y-33263666D01*
X96947952Y-33263666D01*
X96795571Y-33225571D01*
X96719380Y-33187476D01*
X96643190Y-33111285D01*
X96605095Y-32997000D01*
X96605095Y-32920809D01*
X96643190Y-32806523D01*
X96681285Y-32768428D01*
X96947952Y-32768428D01*
X96947952Y-32920809D01*
X96605095Y-32425571D02*
X97405095Y-32425571D01*
X96605095Y-31968428D01*
X97405095Y-31968428D01*
X96605095Y-31587476D02*
X97405095Y-31587476D01*
X97405095Y-31397000D01*
X97367000Y-31282714D01*
X97290809Y-31206523D01*
X97214619Y-31168428D01*
X97062238Y-31130333D01*
X96947952Y-31130333D01*
X96795571Y-31168428D01*
X96719380Y-31206523D01*
X96643190Y-31282714D01*
X96605095Y-31397000D01*
X96605095Y-31587476D01*
X98643190Y-38068428D02*
X98605095Y-37954142D01*
X98605095Y-37763666D01*
X98643190Y-37687476D01*
X98681285Y-37649380D01*
X98757476Y-37611285D01*
X98833666Y-37611285D01*
X98909857Y-37649380D01*
X98947952Y-37687476D01*
X98986047Y-37763666D01*
X99024142Y-37916047D01*
X99062238Y-37992238D01*
X99100333Y-38030333D01*
X99176523Y-38068428D01*
X99252714Y-38068428D01*
X99328904Y-38030333D01*
X99367000Y-37992238D01*
X99405095Y-37916047D01*
X99405095Y-37725571D01*
X99367000Y-37611285D01*
X98605095Y-37268428D02*
X99405095Y-37268428D01*
X99405095Y-37077952D01*
X99367000Y-36963666D01*
X99290809Y-36887476D01*
X99214619Y-36849380D01*
X99062238Y-36811285D01*
X98947952Y-36811285D01*
X98795571Y-36849380D01*
X98719380Y-36887476D01*
X98643190Y-36963666D01*
X98605095Y-37077952D01*
X98605095Y-37268428D01*
X98833666Y-36506523D02*
X98833666Y-36125571D01*
X98605095Y-36582714D02*
X99405095Y-36316047D01*
X98605095Y-36049380D01*
D12*
X122541571Y-97304428D02*
X122470142Y-97233000D01*
X122327285Y-97161571D01*
X121970142Y-97161571D01*
X121827285Y-97233000D01*
X121755857Y-97304428D01*
X121684428Y-97447285D01*
X121684428Y-97590142D01*
X121755857Y-97804428D01*
X122613000Y-98661571D01*
X121684428Y-98661571D01*
D14*
X101343190Y-38049380D02*
X101305095Y-37935095D01*
X101305095Y-37744619D01*
X101343190Y-37668428D01*
X101381285Y-37630333D01*
X101457476Y-37592238D01*
X101533666Y-37592238D01*
X101609857Y-37630333D01*
X101647952Y-37668428D01*
X101686047Y-37744619D01*
X101724142Y-37897000D01*
X101762238Y-37973190D01*
X101800333Y-38011285D01*
X101876523Y-38049380D01*
X101952714Y-38049380D01*
X102028904Y-38011285D01*
X102067000Y-37973190D01*
X102105095Y-37897000D01*
X102105095Y-37706523D01*
X102067000Y-37592238D01*
X101381285Y-36792238D02*
X101343190Y-36830333D01*
X101305095Y-36944619D01*
X101305095Y-37020809D01*
X101343190Y-37135095D01*
X101419380Y-37211285D01*
X101495571Y-37249380D01*
X101647952Y-37287476D01*
X101762238Y-37287476D01*
X101914619Y-37249380D01*
X101990809Y-37211285D01*
X102067000Y-37135095D01*
X102105095Y-37020809D01*
X102105095Y-36944619D01*
X102067000Y-36830333D01*
X102028904Y-36792238D01*
X101305095Y-36068428D02*
X101305095Y-36449380D01*
X102105095Y-36449380D01*
X159602809Y-36398619D02*
X159640904Y-36512904D01*
X159640904Y-36703380D01*
X159602809Y-36779571D01*
X159564714Y-36817666D01*
X159488523Y-36855761D01*
X159412333Y-36855761D01*
X159336142Y-36817666D01*
X159298047Y-36779571D01*
X159259952Y-36703380D01*
X159221857Y-36551000D01*
X159183761Y-36474809D01*
X159145666Y-36436714D01*
X159069476Y-36398619D01*
X158993285Y-36398619D01*
X158917095Y-36436714D01*
X158879000Y-36474809D01*
X158840904Y-36551000D01*
X158840904Y-36741476D01*
X158879000Y-36855761D01*
X159564714Y-37655761D02*
X159602809Y-37617666D01*
X159640904Y-37503380D01*
X159640904Y-37427190D01*
X159602809Y-37312904D01*
X159526619Y-37236714D01*
X159450428Y-37198619D01*
X159298047Y-37160523D01*
X159183761Y-37160523D01*
X159031380Y-37198619D01*
X158955190Y-37236714D01*
X158879000Y-37312904D01*
X158840904Y-37427190D01*
X158840904Y-37503380D01*
X158879000Y-37617666D01*
X158917095Y-37655761D01*
X159640904Y-38379571D02*
X159640904Y-37998619D01*
X158840904Y-37998619D01*
D12*
X108476428Y-98661571D02*
X109333571Y-98661571D01*
X108905000Y-98661571D02*
X108905000Y-97161571D01*
X109047857Y-97375857D01*
X109190714Y-97518714D01*
X109333571Y-97590142D01*
D14*
X157002809Y-36379571D02*
X157040904Y-36493857D01*
X157040904Y-36684333D01*
X157002809Y-36760523D01*
X156964714Y-36798619D01*
X156888523Y-36836714D01*
X156812333Y-36836714D01*
X156736142Y-36798619D01*
X156698047Y-36760523D01*
X156659952Y-36684333D01*
X156621857Y-36531952D01*
X156583761Y-36455761D01*
X156545666Y-36417666D01*
X156469476Y-36379571D01*
X156393285Y-36379571D01*
X156317095Y-36417666D01*
X156279000Y-36455761D01*
X156240904Y-36531952D01*
X156240904Y-36722428D01*
X156279000Y-36836714D01*
X157040904Y-37179571D02*
X156240904Y-37179571D01*
X156240904Y-37370047D01*
X156279000Y-37484333D01*
X156355190Y-37560523D01*
X156431380Y-37598619D01*
X156583761Y-37636714D01*
X156698047Y-37636714D01*
X156850428Y-37598619D01*
X156926619Y-37560523D01*
X157002809Y-37484333D01*
X157040904Y-37370047D01*
X157040904Y-37179571D01*
X156812333Y-37941476D02*
X156812333Y-38322428D01*
X157040904Y-37865285D02*
X156240904Y-38131952D01*
X157040904Y-38398619D01*
D12*
X136456000Y-97161571D02*
X135527428Y-97161571D01*
X136027428Y-97733000D01*
X135813142Y-97733000D01*
X135670285Y-97804428D01*
X135598857Y-97875857D01*
X135527428Y-98018714D01*
X135527428Y-98375857D01*
X135598857Y-98518714D01*
X135670285Y-98590142D01*
X135813142Y-98661571D01*
X136241714Y-98661571D01*
X136384571Y-98590142D01*
X136456000Y-98518714D01*
D14*
X154479000Y-31841476D02*
X154440904Y-31765285D01*
X154440904Y-31651000D01*
X154479000Y-31536714D01*
X154555190Y-31460523D01*
X154631380Y-31422428D01*
X154783761Y-31384333D01*
X154898047Y-31384333D01*
X155050428Y-31422428D01*
X155126619Y-31460523D01*
X155202809Y-31536714D01*
X155240904Y-31651000D01*
X155240904Y-31727190D01*
X155202809Y-31841476D01*
X155164714Y-31879571D01*
X154898047Y-31879571D01*
X154898047Y-31727190D01*
X155240904Y-32222428D02*
X154440904Y-32222428D01*
X155240904Y-32679571D01*
X154440904Y-32679571D01*
X155240904Y-33060523D02*
X154440904Y-33060523D01*
X154440904Y-33251000D01*
X154479000Y-33365285D01*
X154555190Y-33441476D01*
X154631380Y-33479571D01*
X154783761Y-33517666D01*
X154898047Y-33517666D01*
X155050428Y-33479571D01*
X155126619Y-33441476D01*
X155202809Y-33365285D01*
X155240904Y-33251000D01*
X155240904Y-33060523D01*
X158840904Y-26484333D02*
X159640904Y-26751000D01*
X158840904Y-27017666D01*
X159564714Y-27741476D02*
X159602809Y-27703380D01*
X159640904Y-27589095D01*
X159640904Y-27512904D01*
X159602809Y-27398619D01*
X159526619Y-27322428D01*
X159450428Y-27284333D01*
X159298047Y-27246238D01*
X159183761Y-27246238D01*
X159031380Y-27284333D01*
X158955190Y-27322428D01*
X158879000Y-27398619D01*
X158840904Y-27512904D01*
X158840904Y-27589095D01*
X158879000Y-27703380D01*
X158917095Y-27741476D01*
X159564714Y-28541476D02*
X159602809Y-28503380D01*
X159640904Y-28389095D01*
X159640904Y-28312904D01*
X159602809Y-28198619D01*
X159526619Y-28122428D01*
X159450428Y-28084333D01*
X159298047Y-28046238D01*
X159183761Y-28046238D01*
X159031380Y-28084333D01*
X158955190Y-28122428D01*
X158879000Y-28198619D01*
X158840904Y-28312904D01*
X158840904Y-28389095D01*
X158879000Y-28503380D01*
X158917095Y-28541476D01*
%TO.C,G\u002A\u002A\u002A*%
G36*
X143092667Y-28041674D02*
G01*
X143225171Y-28054450D01*
X143357675Y-28067225D01*
X143357675Y-28755157D01*
X143081855Y-28755157D01*
X143065839Y-29418619D01*
X143060142Y-29625119D01*
X143051526Y-29828088D01*
X143039848Y-29974809D01*
X143023396Y-30079491D01*
X143000457Y-30156343D01*
X142969318Y-30219574D01*
X142901060Y-30318201D01*
X142728269Y-30469091D01*
X142514328Y-30550791D01*
X142484932Y-30555735D01*
X142330958Y-30567086D01*
X142175331Y-30561661D01*
X142117797Y-30554289D01*
X141966349Y-30527224D01*
X141806917Y-30490865D01*
X141661579Y-30451028D01*
X141552417Y-30413528D01*
X141501510Y-30384181D01*
X141499624Y-30377296D01*
X141504160Y-30308148D01*
X141524569Y-30186706D01*
X141557474Y-30034095D01*
X141632720Y-29715207D01*
X141873448Y-29714235D01*
X142114175Y-29713263D01*
X142125662Y-29234210D01*
X142137148Y-28755157D01*
X141686086Y-28755157D01*
X141686086Y-28066320D01*
X141900130Y-28053997D01*
X142114175Y-28041674D01*
X142137621Y-27287420D01*
X143069221Y-27287420D01*
X143092667Y-28041674D01*
G37*
G36*
X147731682Y-20871948D02*
G01*
X147720919Y-20983042D01*
X147724979Y-21090573D01*
X147743801Y-21236426D01*
X147744945Y-21244360D01*
X147745163Y-21248012D01*
X147751619Y-21356374D01*
X147722238Y-21437498D01*
X147642748Y-21528337D01*
X147516267Y-21622784D01*
X147363911Y-21680283D01*
X147316240Y-21690283D01*
X147247880Y-21723565D01*
X147215932Y-21739119D01*
X147149328Y-21836460D01*
X147141299Y-21852123D01*
X147057621Y-21963637D01*
X146949639Y-22058222D01*
X146875804Y-22100710D01*
X146782309Y-22131534D01*
X146657595Y-22146453D01*
X146476615Y-22150342D01*
X146463135Y-22150307D01*
X146220246Y-22132917D01*
X146039068Y-22079356D01*
X145905952Y-21983262D01*
X145807249Y-21838271D01*
X145782319Y-21793990D01*
X145711931Y-21725759D01*
X146157032Y-21725759D01*
X146161248Y-21749356D01*
X146190283Y-21768812D01*
X146288556Y-21796632D01*
X146420147Y-21809121D01*
X146562228Y-21807170D01*
X146691976Y-21791667D01*
X146786563Y-21763503D01*
X146823164Y-21723565D01*
X146815963Y-21719218D01*
X146749086Y-21710333D01*
X146627084Y-21704172D01*
X146468461Y-21701866D01*
X146322624Y-21703520D01*
X146207669Y-21710967D01*
X146157032Y-21725759D01*
X145711931Y-21725759D01*
X145706126Y-21720132D01*
X145584431Y-21684032D01*
X145454488Y-21641682D01*
X145284425Y-21516706D01*
X145252702Y-21484415D01*
X145183274Y-21399217D01*
X145159555Y-21322967D01*
X145165748Y-21253103D01*
X145526132Y-21253103D01*
X145536077Y-21289604D01*
X145541911Y-21293904D01*
X145610138Y-21307665D01*
X145741370Y-21318785D01*
X145921158Y-21327230D01*
X146135051Y-21332963D01*
X146368602Y-21335949D01*
X146607361Y-21336152D01*
X146836880Y-21333535D01*
X147042708Y-21328064D01*
X147210398Y-21319702D01*
X147325500Y-21308413D01*
X147373565Y-21294162D01*
X147378943Y-21284843D01*
X147387960Y-21248012D01*
X147365186Y-21219997D01*
X147302336Y-21199665D01*
X147191119Y-21185881D01*
X147023250Y-21177510D01*
X146790440Y-21173420D01*
X146484402Y-21172475D01*
X146483878Y-21172475D01*
X146165006Y-21174149D01*
X145920000Y-21179273D01*
X145741235Y-21188788D01*
X145621085Y-21203637D01*
X145551926Y-21224761D01*
X145526132Y-21253103D01*
X145165748Y-21253103D01*
X145168463Y-21222470D01*
X145176468Y-21173630D01*
X145192081Y-21044082D01*
X145189696Y-20939563D01*
X145169413Y-20817957D01*
X145165254Y-20793603D01*
X145167570Y-20755414D01*
X145529649Y-20755414D01*
X145564249Y-20808850D01*
X145598849Y-20816237D01*
X145705133Y-20824661D01*
X145866576Y-20831489D01*
X146068173Y-20836637D01*
X146294914Y-20840024D01*
X146531793Y-20841564D01*
X146763803Y-20841177D01*
X146975934Y-20838778D01*
X147153181Y-20834285D01*
X147280534Y-20827615D01*
X147342988Y-20818685D01*
X147363125Y-20805833D01*
X147393951Y-20740363D01*
X147388474Y-20726560D01*
X147357100Y-20710730D01*
X147289809Y-20699069D01*
X147177479Y-20691002D01*
X147010986Y-20685953D01*
X146781208Y-20683346D01*
X146479021Y-20682605D01*
X146157333Y-20684161D01*
X145890273Y-20689339D01*
X145699495Y-20698275D01*
X145582322Y-20711097D01*
X145536077Y-20727934D01*
X145529649Y-20755414D01*
X145167570Y-20755414D01*
X145172855Y-20668293D01*
X145235549Y-20523910D01*
X145258226Y-20482892D01*
X145286577Y-20422356D01*
X145303720Y-20358357D01*
X145310496Y-20275338D01*
X145307746Y-20157745D01*
X145296312Y-19990023D01*
X145277035Y-19756616D01*
X145274956Y-19731985D01*
X145253632Y-19491905D01*
X145231249Y-19310818D01*
X145200202Y-19168294D01*
X145152885Y-19043903D01*
X145081694Y-18917215D01*
X144979023Y-18767800D01*
X144837267Y-18575228D01*
X144785895Y-18505086D01*
X144656162Y-18321832D01*
X144534362Y-18142359D01*
X144441351Y-17997118D01*
X144438695Y-17992736D01*
X144250602Y-17611230D01*
X144139081Y-17221463D01*
X144110483Y-16909214D01*
X144463906Y-16909214D01*
X144504533Y-17238190D01*
X144595892Y-17543279D01*
X144624418Y-17610188D01*
X144668269Y-17702117D01*
X144722863Y-17802264D01*
X144794342Y-17920294D01*
X144888846Y-18065873D01*
X145012518Y-18248666D01*
X145171500Y-18478339D01*
X145371933Y-18764557D01*
X145571905Y-19049199D01*
X145625383Y-19631472D01*
X145632515Y-19709444D01*
X145650913Y-19913789D01*
X145665926Y-20085163D01*
X145676161Y-20207494D01*
X145680227Y-20264708D01*
X145681648Y-20271647D01*
X145723408Y-20296986D01*
X145829278Y-20311220D01*
X146007755Y-20315671D01*
X146333919Y-20315671D01*
X146333919Y-18920746D01*
X146063494Y-18356374D01*
X146046523Y-18320991D01*
X145945626Y-18113624D01*
X145869942Y-17967328D01*
X145811803Y-17870689D01*
X145763542Y-17812289D01*
X145717491Y-17780712D01*
X145665982Y-17764543D01*
X145439523Y-17691447D01*
X145252588Y-17576895D01*
X146064206Y-17576895D01*
X146065550Y-17679846D01*
X146098011Y-17793529D01*
X146168591Y-17946536D01*
X146170565Y-17950440D01*
X146235795Y-18074094D01*
X146287313Y-18162091D01*
X146314120Y-18195606D01*
X146324029Y-18159138D01*
X146331187Y-18062129D01*
X146333919Y-17925788D01*
X146331455Y-17798123D01*
X146329254Y-17781670D01*
X146583020Y-17781670D01*
X146586516Y-17925788D01*
X146586737Y-17934913D01*
X146598927Y-18215992D01*
X146731431Y-17935152D01*
X146746562Y-17902868D01*
X146818938Y-17736273D01*
X146854577Y-17620323D01*
X146857134Y-17537886D01*
X146830264Y-17471830D01*
X146816011Y-17457146D01*
X146767090Y-17465536D01*
X146686195Y-17537301D01*
X146678765Y-17545102D01*
X146622420Y-17613203D01*
X146592710Y-17683246D01*
X146583020Y-17781670D01*
X146329254Y-17781670D01*
X146316664Y-17687536D01*
X146280699Y-17604858D01*
X146214814Y-17520317D01*
X146151656Y-17448384D01*
X147125999Y-17448384D01*
X147155241Y-17482998D01*
X147240625Y-17496116D01*
X147359755Y-17464044D01*
X147495944Y-17392138D01*
X147632507Y-17285755D01*
X147678955Y-17233236D01*
X147750567Y-17129189D01*
X147824113Y-17003545D01*
X147890464Y-16874391D01*
X147940491Y-16759812D01*
X147965065Y-16677895D01*
X147955057Y-16646727D01*
X147919037Y-16654373D01*
X147822363Y-16689078D01*
X147699729Y-16742256D01*
X147573411Y-16814201D01*
X147419912Y-16934854D01*
X147285971Y-17073922D01*
X147184039Y-17216081D01*
X147126565Y-17346009D01*
X147125999Y-17448384D01*
X146151656Y-17448384D01*
X146095708Y-17384663D01*
X146090159Y-17417509D01*
X146069285Y-17541064D01*
X146064206Y-17576895D01*
X145252588Y-17576895D01*
X145184594Y-17535229D01*
X144966675Y-17307615D01*
X144785076Y-17007843D01*
X144665986Y-16703788D01*
X144957304Y-16703788D01*
X144984807Y-16797406D01*
X145034281Y-16918176D01*
X145096093Y-17042871D01*
X145160611Y-17148264D01*
X145197257Y-17192300D01*
X145305408Y-17292911D01*
X145430793Y-17385045D01*
X145561525Y-17457256D01*
X145691901Y-17497565D01*
X145773005Y-17482048D01*
X145802575Y-17417509D01*
X145778351Y-17310753D01*
X145698070Y-17168585D01*
X145559472Y-16997809D01*
X145493692Y-16935301D01*
X145373982Y-16844062D01*
X145241456Y-16760395D01*
X145115321Y-16695037D01*
X145014782Y-16658722D01*
X144959046Y-16662186D01*
X144957304Y-16703788D01*
X144665986Y-16703788D01*
X144639104Y-16635155D01*
X144603944Y-16517450D01*
X144587228Y-16431123D01*
X144596277Y-16378035D01*
X144630408Y-16334613D01*
X144648914Y-16317697D01*
X144690609Y-16297240D01*
X144752021Y-16298647D01*
X144852110Y-16323945D01*
X145009840Y-16375159D01*
X145064898Y-16394244D01*
X145392846Y-16536950D01*
X145652724Y-16705350D01*
X145838870Y-16895888D01*
X145956898Y-17056382D01*
X145972915Y-16734751D01*
X146232227Y-16734751D01*
X146248604Y-16985182D01*
X146314450Y-17194510D01*
X146378188Y-17304905D01*
X146442714Y-17361986D01*
X146505558Y-17343664D01*
X146576153Y-17252012D01*
X146653565Y-17068494D01*
X146694420Y-16834606D01*
X146687657Y-16592187D01*
X146675404Y-16526267D01*
X146639057Y-16392413D01*
X146590522Y-16250599D01*
X146538198Y-16122485D01*
X146490479Y-16029732D01*
X146455765Y-15994001D01*
X146427444Y-16028534D01*
X146381716Y-16120136D01*
X146328697Y-16248817D01*
X146264964Y-16466662D01*
X146232227Y-16734751D01*
X145972915Y-16734751D01*
X145974722Y-16698466D01*
X145977550Y-16645860D01*
X145993210Y-16469669D01*
X146022322Y-16325129D01*
X146073710Y-16177990D01*
X146156195Y-15994001D01*
X146218225Y-15866273D01*
X146316705Y-15689423D01*
X146400604Y-15588526D01*
X146477374Y-15562731D01*
X146554465Y-15611189D01*
X146639327Y-15733049D01*
X146739412Y-15927461D01*
X146816496Y-16101429D01*
X146920134Y-16405801D01*
X146971693Y-16678780D01*
X146969285Y-16834606D01*
X146968159Y-16907458D01*
X146941670Y-17074419D01*
X147067629Y-16903568D01*
X147102194Y-16859628D01*
X147295837Y-16680230D01*
X147561143Y-16520521D01*
X147902425Y-16377785D01*
X147980128Y-16350496D01*
X148109352Y-16308975D01*
X148189646Y-16293477D01*
X148239821Y-16301677D01*
X148278686Y-16331247D01*
X148284907Y-16337640D01*
X148317874Y-16390271D01*
X148320600Y-16463808D01*
X148294864Y-16586324D01*
X148273621Y-16664258D01*
X148268368Y-16677895D01*
X148151953Y-16980110D01*
X147987451Y-17257757D01*
X147789041Y-17486444D01*
X147721030Y-17537886D01*
X147565646Y-17655414D01*
X147326189Y-17753913D01*
X147091190Y-17811267D01*
X146835099Y-18360179D01*
X146579009Y-18909090D01*
X146578775Y-19612380D01*
X146578541Y-20315671D01*
X147227174Y-20315671D01*
X147247464Y-20183167D01*
X147257108Y-20110673D01*
X147273962Y-19966812D01*
X147294070Y-19782990D01*
X147314899Y-19581802D01*
X147331525Y-19424381D01*
X147355364Y-19253233D01*
X147387858Y-19113590D01*
X147436918Y-18985997D01*
X147510456Y-18851004D01*
X147616384Y-18689155D01*
X147762614Y-18481000D01*
X147792681Y-18438498D01*
X148025417Y-18090873D01*
X148202446Y-17784932D01*
X148328266Y-17509227D01*
X148407378Y-17252314D01*
X148444283Y-17002743D01*
X148443479Y-16749070D01*
X148434771Y-16656497D01*
X148352600Y-16291244D01*
X148198563Y-15962430D01*
X147975567Y-15675109D01*
X147686522Y-15434332D01*
X147509195Y-15327397D01*
X147159319Y-15177748D01*
X146795226Y-15092283D01*
X146426478Y-15068157D01*
X146062639Y-15102521D01*
X145713270Y-15192530D01*
X145387934Y-15335336D01*
X145096194Y-15528093D01*
X144847613Y-15767953D01*
X144651752Y-16052069D01*
X144518175Y-16377596D01*
X144476048Y-16586892D01*
X144463906Y-16909214D01*
X144110483Y-16909214D01*
X144103342Y-16831249D01*
X144142592Y-16448396D01*
X144256039Y-16080718D01*
X144442892Y-15736024D01*
X144702359Y-15422126D01*
X144830235Y-15302728D01*
X145179120Y-15051988D01*
X145566298Y-14873072D01*
X145992145Y-14765831D01*
X146457037Y-14730117D01*
X146523682Y-14730940D01*
X146734194Y-14742100D01*
X146934833Y-14763580D01*
X147089799Y-14791885D01*
X147266475Y-14843513D01*
X147657127Y-15011104D01*
X148001144Y-15236489D01*
X148292335Y-15513128D01*
X148524512Y-15834481D01*
X148691484Y-16194009D01*
X148787063Y-16585173D01*
X148797755Y-16672803D01*
X148804808Y-16971600D01*
X148800477Y-17002743D01*
X148763031Y-17271975D01*
X148669078Y-17583306D01*
X148519600Y-17914975D01*
X148311252Y-18276361D01*
X148040686Y-18676845D01*
X147710923Y-19137699D01*
X147647340Y-19759607D01*
X147583757Y-20381516D01*
X147677219Y-20507929D01*
X147709427Y-20554933D01*
X147750894Y-20661618D01*
X147746986Y-20740363D01*
X147744474Y-20790978D01*
X147731682Y-20871948D01*
G37*
G36*
X150696358Y-27858207D02*
G01*
X149799408Y-27858207D01*
X149799408Y-27124338D01*
X150696358Y-27124338D01*
X150696358Y-27858207D01*
G37*
G36*
X144962233Y-28038498D02*
G01*
X145156325Y-28085578D01*
X145323047Y-28172177D01*
X145481878Y-28304010D01*
X145645781Y-28503815D01*
X145736962Y-28712053D01*
X145752603Y-28918532D01*
X145692111Y-29115204D01*
X145554893Y-29294026D01*
X145552130Y-29296645D01*
X145455397Y-29376167D01*
X145341293Y-29441878D01*
X145188976Y-29503814D01*
X144977604Y-29572011D01*
X144897269Y-29596276D01*
X144688574Y-29660683D01*
X144543821Y-29709219D01*
X144452028Y-29746964D01*
X144402215Y-29778993D01*
X144383402Y-29810384D01*
X144384608Y-29846216D01*
X144386739Y-29854387D01*
X144443879Y-29906953D01*
X144560585Y-29931205D01*
X144721837Y-29927348D01*
X144912611Y-29895590D01*
X145117885Y-29836137D01*
X145143387Y-29827140D01*
X145292013Y-29774785D01*
X145411512Y-29732824D01*
X145478006Y-29709643D01*
X145526379Y-29723533D01*
X145597185Y-29802966D01*
X145692050Y-29953920D01*
X145703301Y-29973595D01*
X145774950Y-30104841D01*
X145825519Y-30207687D01*
X145844673Y-30261311D01*
X145833807Y-30282872D01*
X145759529Y-30330781D01*
X145627657Y-30384184D01*
X145453250Y-30438618D01*
X145251367Y-30489619D01*
X145037067Y-30532723D01*
X144825411Y-30563464D01*
X144663817Y-30571461D01*
X144426208Y-30557403D01*
X144196379Y-30519249D01*
X144010510Y-30461525D01*
X143797801Y-30343855D01*
X143636948Y-30186172D01*
X143543510Y-29989546D01*
X143511975Y-29746068D01*
X143513696Y-29672485D01*
X143537882Y-29525599D01*
X143596472Y-29400192D01*
X143697170Y-29290652D01*
X143847679Y-29191369D01*
X144055703Y-29096733D01*
X144328946Y-29001133D01*
X144675110Y-28898959D01*
X144767079Y-28871907D01*
X144857894Y-28835401D01*
X144896367Y-28796361D01*
X144899347Y-28743073D01*
X144871441Y-28688696D01*
X144778512Y-28645430D01*
X144633423Y-28638231D01*
X144448377Y-28667288D01*
X144235579Y-28732791D01*
X144222244Y-28737797D01*
X144084635Y-28787815D01*
X143979395Y-28823245D01*
X143928372Y-28836698D01*
X143918008Y-28832280D01*
X143870066Y-28778234D01*
X143804554Y-28680080D01*
X143733969Y-28559854D01*
X143670807Y-28439593D01*
X143627561Y-28341333D01*
X143616729Y-28287109D01*
X143617967Y-28284281D01*
X143677195Y-28235439D01*
X143798605Y-28182748D01*
X143964451Y-28131073D01*
X144156988Y-28085282D01*
X144358473Y-28050242D01*
X144551161Y-28030820D01*
X144721298Y-28025218D01*
X144962233Y-28038498D01*
G37*
G36*
X150696358Y-29278378D02*
G01*
X150696255Y-29381981D01*
X150694752Y-29681547D01*
X150691641Y-29951112D01*
X150687158Y-30180369D01*
X150681540Y-30359011D01*
X150675022Y-30476728D01*
X150667842Y-30523214D01*
X150642714Y-30530851D01*
X150548997Y-30539028D01*
X150405004Y-30542387D01*
X150229559Y-30540201D01*
X149819793Y-30528672D01*
X149809003Y-29295366D01*
X149798213Y-28062059D01*
X150696358Y-28062059D01*
X150696358Y-29278378D01*
G37*
G36*
X147027017Y-27858207D02*
G01*
X146130066Y-27858207D01*
X146130066Y-27124338D01*
X147027017Y-27124338D01*
X147027017Y-27858207D01*
G37*
G36*
X152615706Y-23295051D02*
G01*
X152496531Y-23414226D01*
X146510329Y-23413625D01*
X145689249Y-23413421D01*
X144915062Y-23412941D01*
X144215831Y-23412160D01*
X143588206Y-23411050D01*
X143028836Y-23409582D01*
X142534370Y-23407727D01*
X142101456Y-23405456D01*
X141726745Y-23402741D01*
X141406884Y-23399554D01*
X141138523Y-23395865D01*
X140918311Y-23391646D01*
X140742897Y-23386868D01*
X140608930Y-23381504D01*
X140513059Y-23375523D01*
X140451933Y-23368897D01*
X140422201Y-23361599D01*
X140414613Y-23357459D01*
X140332274Y-23278972D01*
X140271613Y-23168540D01*
X140271241Y-23167418D01*
X140263288Y-23121336D01*
X140256140Y-23033241D01*
X140249761Y-22899840D01*
X140244220Y-22721128D01*
X140909792Y-22721128D01*
X150247883Y-22721128D01*
X150246313Y-22282846D01*
X150244742Y-21844563D01*
X150117216Y-21763022D01*
X150094112Y-21747862D01*
X149935311Y-21607739D01*
X149847072Y-21441825D01*
X149819793Y-21233006D01*
X149820352Y-21201467D01*
X150170560Y-21201467D01*
X150180995Y-21328293D01*
X150237691Y-21424342D01*
X150289979Y-21463507D01*
X150370195Y-21506845D01*
X150381088Y-21509867D01*
X150480861Y-21504329D01*
X150590349Y-21463822D01*
X150664005Y-21404250D01*
X150678622Y-21374384D01*
X150695816Y-21255600D01*
X150675256Y-21128479D01*
X150621800Y-21035473D01*
X150590007Y-21011913D01*
X150467401Y-20972597D01*
X150336322Y-20983037D01*
X150233817Y-21042557D01*
X150206759Y-21080488D01*
X150170560Y-21201467D01*
X149820352Y-21201467D01*
X149820471Y-21194730D01*
X149852816Y-21006002D01*
X149942213Y-20850346D01*
X150100503Y-20705509D01*
X150108666Y-20699639D01*
X150256913Y-20637590D01*
X150438323Y-20618132D01*
X150618917Y-20641203D01*
X150764717Y-20706739D01*
X150917850Y-20853723D01*
X151025011Y-21035316D01*
X151063293Y-21223292D01*
X151061124Y-21255600D01*
X151058745Y-21291049D01*
X151002386Y-21481783D01*
X150894639Y-21650651D01*
X150751922Y-21768885D01*
X150614817Y-21842721D01*
X150614817Y-22721128D01*
X152041784Y-22721128D01*
X152041784Y-15382444D01*
X151289724Y-15382444D01*
X151035986Y-15633927D01*
X150782248Y-15885409D01*
X150805613Y-16135615D01*
X150809672Y-16201807D01*
X150805611Y-16238624D01*
X150783740Y-16436903D01*
X150694466Y-16628197D01*
X150546267Y-16768844D01*
X150343557Y-16851998D01*
X150285176Y-16862830D01*
X150075469Y-16858689D01*
X149894028Y-16791635D01*
X149747667Y-16674536D01*
X149643199Y-16520258D01*
X149587438Y-16341669D01*
X149587239Y-16183846D01*
X149929830Y-16183846D01*
X149935433Y-16313700D01*
X150016081Y-16435370D01*
X150107187Y-16496889D01*
X150201401Y-16524017D01*
X150271840Y-16506896D01*
X150375696Y-16436975D01*
X150458619Y-16338366D01*
X150492506Y-16238624D01*
X150473215Y-16167258D01*
X150403148Y-16067241D01*
X150307697Y-15986455D01*
X150214464Y-15953231D01*
X150213019Y-15953245D01*
X150126773Y-15978566D01*
X150029144Y-16037731D01*
X149998646Y-16064902D01*
X149929830Y-16183846D01*
X149587239Y-16183846D01*
X149587198Y-16151638D01*
X149649292Y-15963031D01*
X149780534Y-15788718D01*
X149820701Y-15750508D01*
X149892961Y-15692958D01*
X149967860Y-15661847D01*
X150071694Y-15648807D01*
X150230762Y-15645473D01*
X150535208Y-15643493D01*
X151126366Y-15056281D01*
X152041784Y-15056281D01*
X152041784Y-13710505D01*
X147444914Y-13720873D01*
X142848044Y-13731240D01*
X142836613Y-14228582D01*
X142832866Y-14411117D01*
X142832524Y-14562156D01*
X142838666Y-14659128D01*
X142853508Y-14716845D01*
X142879266Y-14750122D01*
X142918154Y-14773772D01*
X143055413Y-14863354D01*
X143200122Y-15025006D01*
X143280659Y-15212632D01*
X143289882Y-15347386D01*
X143294291Y-15411799D01*
X143238287Y-15608070D01*
X143109916Y-15787013D01*
X143003108Y-15874155D01*
X142808122Y-15958482D01*
X142602390Y-15970019D01*
X142401664Y-15908968D01*
X142221693Y-15775532D01*
X142145787Y-15681316D01*
X142061015Y-15489145D01*
X142048912Y-15334322D01*
X142379183Y-15334322D01*
X142379198Y-15335767D01*
X142404519Y-15422014D01*
X142463683Y-15519643D01*
X142490855Y-15550141D01*
X142609798Y-15618956D01*
X142739653Y-15613354D01*
X142861322Y-15532706D01*
X142922842Y-15441600D01*
X142949970Y-15347386D01*
X142932849Y-15276946D01*
X142862927Y-15173091D01*
X142764319Y-15090167D01*
X142664577Y-15056281D01*
X142593210Y-15075572D01*
X142493194Y-15145639D01*
X142412408Y-15241090D01*
X142379183Y-15334322D01*
X142048912Y-15334322D01*
X142045214Y-15287018D01*
X142095624Y-15091721D01*
X142209481Y-14920043D01*
X142384025Y-14788769D01*
X142503977Y-14726739D01*
X142492544Y-14228990D01*
X142481110Y-13731240D01*
X140931832Y-13731240D01*
X140931832Y-20662220D01*
X141396343Y-20673802D01*
X141860854Y-20685385D01*
X142462053Y-20084186D01*
X142397524Y-19929745D01*
X142355325Y-19747548D01*
X142364245Y-19668680D01*
X142711372Y-19668680D01*
X142716063Y-19791289D01*
X142786888Y-19907966D01*
X142806316Y-19925729D01*
X142931290Y-19985118D01*
X143063687Y-19978386D01*
X143179348Y-19911594D01*
X143254116Y-19790798D01*
X143257764Y-19777498D01*
X143251624Y-19653110D01*
X143191087Y-19535143D01*
X143093752Y-19459903D01*
X142974361Y-19440082D01*
X142852494Y-19475593D01*
X142760840Y-19557620D01*
X142711372Y-19668680D01*
X142364245Y-19668680D01*
X142377465Y-19551803D01*
X142460551Y-19373412D01*
X142594271Y-19227394D01*
X142768312Y-19128769D01*
X142972362Y-19092557D01*
X143160229Y-19121551D01*
X143356036Y-19221913D01*
X143509099Y-19383826D01*
X143513079Y-19389869D01*
X143574501Y-19501681D01*
X143598486Y-19610463D01*
X143594450Y-19757423D01*
X143592269Y-19777498D01*
X143588005Y-19816739D01*
X143532813Y-20013786D01*
X143421607Y-20162221D01*
X143242755Y-20279300D01*
X143209525Y-20295109D01*
X143053789Y-20344433D01*
X142896207Y-20342997D01*
X142831557Y-20335470D01*
X142769684Y-20338369D01*
X142709247Y-20362607D01*
X142635454Y-20417246D01*
X142533514Y-20511348D01*
X142388636Y-20653976D01*
X142051540Y-20988383D01*
X141491686Y-21008769D01*
X140931832Y-21029154D01*
X140909792Y-22721128D01*
X140244220Y-22721128D01*
X140244118Y-22717838D01*
X140239174Y-22483941D01*
X140234896Y-22194856D01*
X140231248Y-21847288D01*
X140228196Y-21437944D01*
X140225704Y-20963530D01*
X140223739Y-20420751D01*
X140222265Y-19806315D01*
X140221246Y-19116926D01*
X140220650Y-18349291D01*
X140218349Y-13671675D01*
X139334863Y-13660687D01*
X138451377Y-13649700D01*
X139610064Y-12817509D01*
X139804105Y-12678186D01*
X140085412Y-12476350D01*
X140351700Y-12285452D01*
X140592731Y-12112822D01*
X140798267Y-11965793D01*
X140958069Y-11851696D01*
X141061900Y-11777862D01*
X141355050Y-11570406D01*
X141367678Y-10082284D01*
X141380307Y-8594162D01*
X143581912Y-8594162D01*
X143602297Y-9271834D01*
X143622683Y-9949506D01*
X145029264Y-8937832D01*
X145195176Y-8818839D01*
X145486537Y-8611562D01*
X145755288Y-8422495D01*
X145994206Y-8256596D01*
X146196066Y-8118820D01*
X146353645Y-8014125D01*
X146459719Y-7947467D01*
X146507064Y-7923803D01*
X146511134Y-7924742D01*
X146568943Y-7956996D01*
X146685773Y-8032207D01*
X146855811Y-8146344D01*
X147073244Y-8295373D01*
X147332260Y-8475264D01*
X147627046Y-8681983D01*
X147951790Y-8911498D01*
X148300678Y-9159778D01*
X148667899Y-9422789D01*
X148908526Y-9595671D01*
X149670967Y-10143403D01*
X150379866Y-10652586D01*
X151034075Y-11122398D01*
X151632441Y-11552011D01*
X152173817Y-11940602D01*
X152657052Y-12287345D01*
X153080997Y-12591416D01*
X153444501Y-12851989D01*
X153746414Y-13068240D01*
X153985588Y-13239344D01*
X154160872Y-13364475D01*
X154271116Y-13442809D01*
X154563851Y-13649700D01*
X153649366Y-13660658D01*
X152734882Y-13671616D01*
X152734882Y-23175876D01*
X152615706Y-23295051D01*
G37*
G36*
X141340282Y-29917328D02*
G01*
X141264257Y-30127797D01*
X141125849Y-30311510D01*
X140931389Y-30456945D01*
X140687209Y-30552582D01*
X140505433Y-30571166D01*
X140266974Y-30535752D01*
X140025151Y-30444011D01*
X139802496Y-30302316D01*
X139651652Y-30181567D01*
X139585591Y-30320780D01*
X139512250Y-30426284D01*
X139389886Y-30514718D01*
X139354345Y-30526375D01*
X139231879Y-30547317D01*
X139078076Y-30558487D01*
X138920936Y-30559341D01*
X138788458Y-30549336D01*
X138708641Y-30527930D01*
X138700302Y-30514554D01*
X138684296Y-30435004D01*
X138673214Y-30302838D01*
X138669071Y-30137938D01*
X138670068Y-29978531D01*
X138676024Y-29862248D01*
X138691093Y-29794615D01*
X138719425Y-29758273D01*
X138765168Y-29735864D01*
X138789269Y-29725729D01*
X138823496Y-29700256D01*
X138846337Y-29653629D01*
X138855031Y-29605506D01*
X139811268Y-29605506D01*
X139815980Y-29675671D01*
X139858099Y-29775058D01*
X139960853Y-29849856D01*
X140059572Y-29884072D01*
X140205483Y-29896432D01*
X140342162Y-29875151D01*
X140436267Y-29822171D01*
X140492960Y-29729404D01*
X140494084Y-29623035D01*
X140429801Y-29533328D01*
X140308893Y-29471371D01*
X140140142Y-29448255D01*
X139981425Y-29454121D01*
X139876851Y-29477653D01*
X139824965Y-29525804D01*
X139811268Y-29605506D01*
X138855031Y-29605506D01*
X138861308Y-29570762D01*
X138871928Y-29436569D01*
X138881713Y-29235965D01*
X138900430Y-28991951D01*
X138954641Y-28701563D01*
X139045744Y-28473467D01*
X139178886Y-28299280D01*
X139359213Y-28170619D01*
X139591871Y-28079102D01*
X139608658Y-28074414D01*
X139835504Y-28035992D01*
X140105760Y-28024417D01*
X140389039Y-28038315D01*
X140654953Y-28076312D01*
X140873115Y-28137034D01*
X140980419Y-28179096D01*
X141115111Y-28239029D01*
X141187627Y-28294907D01*
X141206691Y-28363253D01*
X141181024Y-28460589D01*
X141119348Y-28603435D01*
X141109992Y-28624180D01*
X141049687Y-28752570D01*
X141003024Y-28843162D01*
X140979443Y-28877468D01*
X140954610Y-28867410D01*
X140875228Y-28826686D01*
X140763693Y-28765350D01*
X140664511Y-28714026D01*
X140553725Y-28675709D01*
X140424619Y-28657715D01*
X140245721Y-28653231D01*
X140155744Y-28654636D01*
X139986792Y-28672243D01*
X139880945Y-28715587D01*
X139826223Y-28791670D01*
X139810644Y-28907493D01*
X139810751Y-28921089D01*
X139820998Y-28974291D01*
X139864278Y-28987833D01*
X139963533Y-28971287D01*
X140098487Y-28950872D01*
X140354057Y-28945224D01*
X140604484Y-28975377D01*
X140814474Y-29038541D01*
X140827166Y-29044207D01*
X141031781Y-29157504D01*
X141176750Y-29292617D01*
X141282864Y-29468640D01*
X141327683Y-29623035D01*
X141347594Y-29691624D01*
X141340282Y-29917328D01*
G37*
G36*
X152163725Y-28235334D02*
G01*
X152239703Y-28494748D01*
X152315067Y-28747912D01*
X152381075Y-28965353D01*
X152434447Y-29136406D01*
X152471901Y-29250406D01*
X152490158Y-29296690D01*
X152490376Y-29296904D01*
X152509229Y-29266045D01*
X152547455Y-29166875D01*
X152601803Y-29009127D01*
X152669025Y-28802529D01*
X152745871Y-28556814D01*
X152829091Y-28281712D01*
X152829262Y-28281139D01*
X152912413Y-28003231D01*
X152988369Y-27751916D01*
X153053951Y-27537515D01*
X153105976Y-27370350D01*
X153141263Y-27260743D01*
X153156631Y-27219015D01*
X153196430Y-27213970D01*
X153302253Y-27211269D01*
X153457087Y-27211474D01*
X153644174Y-27214731D01*
X154115900Y-27226265D01*
X153514438Y-28838638D01*
X153446422Y-29020769D01*
X153321265Y-29354805D01*
X153205784Y-29661605D01*
X153103099Y-29932967D01*
X153016328Y-30160692D01*
X152948589Y-30336579D01*
X152902999Y-30452426D01*
X152882679Y-30500034D01*
X152856464Y-30514867D01*
X152764164Y-30532799D01*
X152629626Y-30544516D01*
X152476500Y-30549449D01*
X152328435Y-30547029D01*
X152209082Y-30536688D01*
X152142088Y-30517855D01*
X152134684Y-30506459D01*
X152099933Y-30429751D01*
X152041966Y-30288404D01*
X151963944Y-30090583D01*
X151869030Y-29844454D01*
X151760387Y-29558179D01*
X151641177Y-29239924D01*
X151514564Y-28897854D01*
X151455252Y-28736682D01*
X151332620Y-28403466D01*
X151219837Y-28097037D01*
X151119954Y-27825686D01*
X151036023Y-27597701D01*
X150971096Y-27421373D01*
X150928224Y-27304990D01*
X150910459Y-27256842D01*
X150909661Y-27246974D01*
X150938653Y-27227402D01*
X151019878Y-27214737D01*
X151163079Y-27207917D01*
X151377994Y-27205879D01*
X151864502Y-27205879D01*
X152163725Y-28235334D01*
G37*
G36*
X149424067Y-28357645D02*
G01*
X149412089Y-28653231D01*
X148370667Y-28676065D01*
X148921956Y-29329346D01*
X149473244Y-29982627D01*
X149473244Y-30238662D01*
X149470025Y-30360957D01*
X149459937Y-30470000D01*
X149445368Y-30522573D01*
X149417794Y-30528115D01*
X149317848Y-30534236D01*
X149156264Y-30538630D01*
X148944465Y-30541108D01*
X148693874Y-30541481D01*
X148415914Y-30539561D01*
X147414336Y-30528672D01*
X147402428Y-30212701D01*
X147390521Y-29896730D01*
X147942637Y-29896730D01*
X148000655Y-29896619D01*
X148194575Y-29894502D01*
X148351453Y-29890108D01*
X148456456Y-29883975D01*
X148494753Y-29876642D01*
X148493612Y-29873967D01*
X148458524Y-29826335D01*
X148380217Y-29728180D01*
X148266568Y-29589155D01*
X148125450Y-29418909D01*
X147964737Y-29227093D01*
X147434721Y-28597631D01*
X147434721Y-28062059D01*
X149436046Y-28062059D01*
X149424067Y-28357645D01*
G37*
G36*
X156221018Y-17991651D02*
G01*
X156034195Y-18829115D01*
X155775922Y-19650366D01*
X155450074Y-20446100D01*
X155060524Y-21207010D01*
X154611145Y-21923789D01*
X154105812Y-22587133D01*
X154092504Y-22602920D01*
X153857135Y-22867379D01*
X153582122Y-23153980D01*
X153285475Y-23445473D01*
X152985204Y-23724613D01*
X152699319Y-23974152D01*
X152445829Y-24176842D01*
X152261032Y-24312368D01*
X151503280Y-24806501D01*
X150713829Y-25225544D01*
X149893290Y-25569266D01*
X149042273Y-25837434D01*
X148161391Y-26029818D01*
X147251254Y-26146185D01*
X147202200Y-26150099D01*
X146764643Y-26168133D01*
X146277693Y-26162696D01*
X145766361Y-26135546D01*
X145255655Y-26088439D01*
X144770587Y-26023134D01*
X144336166Y-25941386D01*
X143722891Y-25783349D01*
X142892759Y-25498967D01*
X142095037Y-25143125D01*
X141334012Y-24719395D01*
X140613968Y-24231351D01*
X139939189Y-23682567D01*
X139313960Y-23076615D01*
X138742567Y-22417067D01*
X138229295Y-21707499D01*
X137778427Y-20951481D01*
X137394249Y-20152589D01*
X137266016Y-19839109D01*
X137045966Y-19214179D01*
X136877461Y-18590974D01*
X136756598Y-17950764D01*
X136679472Y-17274817D01*
X136642180Y-16544403D01*
X136638482Y-16296897D01*
X136639996Y-16247425D01*
X137069808Y-16247425D01*
X137080822Y-16813721D01*
X137118491Y-17356382D01*
X137182812Y-17849057D01*
X137213242Y-18019056D01*
X137411531Y-18855145D01*
X137685918Y-19673983D01*
X138032329Y-20466026D01*
X138446694Y-21221730D01*
X138924938Y-21931552D01*
X139017701Y-22052032D01*
X139236835Y-22315870D01*
X139490778Y-22600873D01*
X139762930Y-22889652D01*
X140036688Y-23164822D01*
X140295451Y-23408995D01*
X140522616Y-23604785D01*
X140843498Y-23850549D01*
X141406910Y-24231806D01*
X142005835Y-24581971D01*
X142621358Y-24891075D01*
X143234564Y-25149148D01*
X143826535Y-25346219D01*
X143899693Y-25366552D01*
X144336460Y-25473580D01*
X144807936Y-25568429D01*
X145277615Y-25644344D01*
X145708993Y-25694568D01*
X146330064Y-25727439D01*
X147185765Y-25703257D01*
X148040261Y-25599858D01*
X148886610Y-25418169D01*
X149717867Y-25159118D01*
X149736016Y-25152502D01*
X150042710Y-25030304D01*
X150384623Y-24877824D01*
X150739256Y-24706320D01*
X151084108Y-24527050D01*
X151396677Y-24351269D01*
X151654464Y-24190236D01*
X151666967Y-24181815D01*
X152398592Y-23641935D01*
X153064864Y-23053716D01*
X153665106Y-22418110D01*
X154198643Y-21736068D01*
X154664800Y-21008539D01*
X155062902Y-20236474D01*
X155392273Y-19420825D01*
X155652238Y-18562541D01*
X155661892Y-18524335D01*
X155791412Y-17881763D01*
X155873943Y-17192922D01*
X155909136Y-16477228D01*
X155896646Y-15754098D01*
X155836126Y-15042945D01*
X155727228Y-14363186D01*
X155615857Y-13884779D01*
X155366109Y-13089905D01*
X155042600Y-12316567D01*
X154649745Y-11571358D01*
X154191956Y-10860870D01*
X153673650Y-10191693D01*
X153099239Y-9570422D01*
X152473138Y-9003647D01*
X151799761Y-8497960D01*
X151435132Y-8262179D01*
X150683515Y-7846627D01*
X149903941Y-7504104D01*
X149101822Y-7234806D01*
X148282576Y-7038926D01*
X147451617Y-6916659D01*
X146614360Y-6868198D01*
X145776221Y-6893738D01*
X144942614Y-6993473D01*
X144118956Y-7167597D01*
X143310661Y-7416303D01*
X142523145Y-7739787D01*
X141761823Y-8138241D01*
X141327220Y-8407496D01*
X140616763Y-8921167D01*
X139962806Y-9491254D01*
X139367911Y-10114055D01*
X138834643Y-10785867D01*
X138365567Y-11502987D01*
X137963246Y-12261713D01*
X137630244Y-13058343D01*
X137369127Y-13889173D01*
X137182458Y-14750502D01*
X137127756Y-15149320D01*
X137085451Y-15683841D01*
X137069808Y-16247425D01*
X136639996Y-16247425D01*
X136663867Y-15467227D01*
X136750477Y-14678511D01*
X136900619Y-13918236D01*
X137116603Y-13173890D01*
X137400737Y-12432961D01*
X137699271Y-11799096D01*
X138140932Y-11026573D01*
X138646495Y-10300115D01*
X139212190Y-9623763D01*
X139834248Y-9001560D01*
X140508898Y-8437549D01*
X141232372Y-7935770D01*
X142000899Y-7500267D01*
X142563440Y-7235960D01*
X143393546Y-6919170D01*
X144242153Y-6678490D01*
X145103858Y-6514626D01*
X145973260Y-6428284D01*
X146844957Y-6420169D01*
X147713545Y-6490987D01*
X148573623Y-6641445D01*
X148930339Y-6728867D01*
X149565656Y-6920254D01*
X150200282Y-7153893D01*
X150814125Y-7421427D01*
X151387091Y-7714497D01*
X151899087Y-8024746D01*
X152016840Y-8104525D01*
X152628354Y-8563514D01*
X153219098Y-9079968D01*
X153773891Y-9638798D01*
X154277554Y-10224919D01*
X154714907Y-10823245D01*
X155053912Y-11372555D01*
X155451687Y-12148570D01*
X155780487Y-12959446D01*
X156038367Y-13797383D01*
X156223380Y-14654583D01*
X156333582Y-15523244D01*
X156367025Y-16395569D01*
X156362768Y-16477228D01*
X156321765Y-17263759D01*
X156221018Y-17991651D01*
G37*
G36*
X147027017Y-29278378D02*
G01*
X147026913Y-29381981D01*
X147025410Y-29681547D01*
X147022299Y-29951112D01*
X147017816Y-30180369D01*
X147012198Y-30359011D01*
X147005680Y-30476728D01*
X146998500Y-30523214D01*
X146973372Y-30530851D01*
X146879655Y-30539028D01*
X146735662Y-30542387D01*
X146560217Y-30540201D01*
X146150451Y-30528672D01*
X146139661Y-29295366D01*
X146128871Y-28062059D01*
X147027017Y-28062059D01*
X147027017Y-29278378D01*
G37*
%TD*%
%LPC*%
D16*
%TO.C,J1*%
X159933600Y-34864000D03*
D17*
X157393600Y-34864000D03*
X159933600Y-32324000D03*
X157393600Y-32324000D03*
X159933600Y-29784000D03*
X157393600Y-29784000D03*
%TD*%
D18*
%TO.C,J4*%
X159367900Y-63133800D03*
X159367900Y-58135800D03*
%TD*%
D16*
%TO.C,J2*%
X101793000Y-34864000D03*
D17*
X99253000Y-34864000D03*
X101793000Y-32324000D03*
X99253000Y-32324000D03*
X101793000Y-29784000D03*
X99253000Y-29784000D03*
%TD*%
D18*
%TO.C,J3*%
X99938800Y-58069800D03*
X99938800Y-63067800D03*
%TD*%
D19*
%TO.C,RJ45-1*%
X102936000Y-93042500D03*
X156276000Y-93042500D03*
D20*
X104206000Y-86692500D03*
X105476000Y-84152500D03*
X106746000Y-86692500D03*
X108016000Y-84152500D03*
X109286000Y-86692500D03*
X110556000Y-84152500D03*
X111826000Y-86692500D03*
X113096000Y-84152500D03*
X118176000Y-86692500D03*
X119446000Y-84152500D03*
X120716000Y-86692500D03*
X121986000Y-84152500D03*
X123256000Y-86692500D03*
X124526000Y-84152500D03*
X125796000Y-86692500D03*
X127066000Y-84152500D03*
X132146000Y-86692500D03*
X133416000Y-84152500D03*
X134686000Y-86692500D03*
X135956000Y-84152500D03*
X137226000Y-86692500D03*
X138496000Y-84152500D03*
X139766000Y-86692500D03*
X141036000Y-84152500D03*
X146116000Y-86692500D03*
X147386000Y-84152500D03*
X148656000Y-86692500D03*
X149926000Y-84152500D03*
X151196000Y-86692500D03*
X152466000Y-84152500D03*
X153736000Y-86692500D03*
X155006000Y-84152500D03*
D21*
X143576000Y-82882500D03*
X159006000Y-97612500D03*
X100206000Y-97612500D03*
X129606000Y-82882500D03*
X115636000Y-82882500D03*
%TD*%
M02*
