M48
INCH,TZ
T1C0.0138
T2C0.0157
T3C0.0354
T4C0.0394
T5C0.0512
T6C0.0630
%
G90
G05
T1
X46000Y-25367
X47350Y-30012
X47543Y-18793
X47862Y-16182
X48596Y-21256
X48596Y-21638
X48598Y-20867
X48607Y-20491
X50039Y-23409
X50135Y-22263
X50145Y-14923
X50150Y-22639
X50185Y-23033
X57704Y-12718
X58216Y-20509
X58216Y-20885
X58216Y-21261
X58216Y-21638
X58216Y-22268
X58216Y-22645
X58216Y-23021
X58216Y-23397
X60106Y-12639
X60972Y-16734
X64276Y-26474
X65050Y-26550
X66576Y-27324
X67551Y-27599
X69240Y-18387
X69248Y-18003
X70539Y-15828
T2
X45850Y-35050
X46080Y-34054
X46150Y-35600
X46799Y-25355
X47450Y-27548
X47488Y-10434
X47730Y-34104
X47797Y-34500
X47800Y-35550
X48778Y-19098
X49051Y-19663
X49150Y-29598
X49330Y-34098
X49355Y-34551
X49450Y-35500
X49800Y-29698
X50025Y-27273
X50381Y-27948
X50400Y-29992
X50737Y-28448
X50834Y-10434
X50980Y-34104
X51047Y-34550
X51050Y-35550
X51056Y-28898
X52200Y-29698
X52616Y-34081
X52629Y-34550
X52700Y-35550
X52900Y-29698
X53393Y-18598
X53393Y-19686
X53550Y-29698
X53950Y-25798
X54100Y-26548
X54100Y-27298
X54125Y-27973
X54400Y-34100
X54450Y-34550
X54500Y-35550
X55200Y-18553
X55200Y-19648
X56201Y-34099
X56250Y-34550
X56350Y-35550
X57285Y-18013
X57300Y-17525
X57450Y-29598
X57600Y-19098
X57991Y-34106
X58029Y-34550
X58100Y-29648
X58100Y-35550
X58300Y-25948
X58550Y-26798
X58650Y-27698
X58750Y-29798
X59250Y-29198
X59480Y-19698
X59795Y-16667
X59795Y-34105
X59809Y-34551
X59900Y-35550
X60649Y-19545
X60984Y-18509
X61501Y-34099
X61562Y-34550
X61650Y-35550
X62100Y-30398
X63130Y-34204
X63250Y-35550
X63500Y-35050
X64800Y-30348
X64894Y-34153
X64900Y-35500
X65177Y-18454
X65198Y-34998
X65950Y-20848
X65950Y-23248
X66200Y-17169
X66231Y-19998
X66580Y-34254
X66650Y-35550
X66850Y-14248
X66950Y-35050
X67074Y-20174
X67468Y-9549
X67700Y-18698
X67800Y-26298
X68280Y-34304
X68400Y-35550
X68656Y-35050
X69830Y-9549
X69980Y-34304
X70100Y-35550
X70350Y-27598
X70356Y-35050
X71750Y-34231
X71800Y-25448
X71850Y-22798
X71850Y-35550
X72050Y-35000
T3
X48900Y-42005
X49400Y-41005
X49900Y-42005
X50400Y-41005
X50900Y-42005
X51400Y-41005
X51900Y-42005
X52400Y-41005
X54400Y-42005
X54900Y-41005
X55400Y-42005
X55900Y-41005
X56400Y-42005
X56900Y-41005
X57400Y-42005
X57900Y-41005
X59900Y-42005
X60400Y-41005
X60900Y-42005
X61400Y-41005
X61900Y-42005
X62400Y-41005
X62900Y-42005
X63400Y-41005
X65400Y-42005
X65900Y-41005
X66400Y-42005
X66900Y-41005
X67400Y-42005
X67900Y-41005
X68400Y-42005
X68900Y-41005
T4
X46960Y-27068
X46960Y-28068
X46960Y-29068
X47960Y-27068
X47960Y-28068
X47960Y-29068
X69834Y-27068
X69834Y-28068
X69834Y-29068
X70834Y-27068
X70834Y-28068
X70834Y-29068
T5
X52704Y-10198
X54673Y-10198
X63137Y-10198
X65106Y-10198
T6
X47325Y-46304
X53400Y-40505
X58900Y-40505
X64400Y-40505
X70475Y-46304
T0
M30
