G04 #@! TF.GenerationSoftware,KiCad,Pcbnew,6.0.11+dfsg-1*
G04 #@! TF.CreationDate,2023-11-01T17:04:38+00:00*
G04 #@! TF.ProjectId,Modular-I2C-4PxRJ45-Relay-Driver,4d6f6475-6c61-4722-9d49-32432d345078,rev?*
G04 #@! TF.SameCoordinates,Original*
G04 #@! TF.FileFunction,Legend,Top*
G04 #@! TF.FilePolarity,Positive*
%FSLAX46Y46*%
G04 Gerber Fmt 4.6, Leading zero omitted, Abs format (unit mm)*
G04 Created by KiCad (PCBNEW 6.0.11+dfsg-1) date 2023-11-01 17:04:38*
%MOMM*%
%LPD*%
G01*
G04 APERTURE LIST*
%ADD10C,0.150000*%
%ADD11C,0.125000*%
%ADD12C,0.391000*%
%ADD13C,0.120000*%
%ADD14C,0.203200*%
%ADD15C,0.100000*%
%ADD16C,0.254000*%
G04 APERTURE END LIST*
D10*
X132119000Y-32253500D02*
G75*
G03*
X132619000Y-32753500I500000J0D01*
G01*
X166619000Y-34253500D02*
G75*
G03*
X167119000Y-33753500I0J500000D01*
G01*
X139934000Y-34253500D02*
G75*
G03*
X140434000Y-33753500I0J500000D01*
G01*
X164119000Y-30753500D02*
X166619000Y-30753500D01*
X162119000Y-31253500D02*
X162119000Y-32253500D01*
X136934000Y-33753500D02*
X136934000Y-31253500D01*
X135619000Y-31253500D02*
G75*
G03*
X135119000Y-30753500I-500000J0D01*
G01*
X140434000Y-31253500D02*
X140434000Y-33753500D01*
X135119000Y-32753500D02*
G75*
G03*
X135619000Y-32253500I0J500000D01*
G01*
X164119000Y-30753500D02*
G75*
G03*
X163619000Y-31253500I0J-500000D01*
G01*
X162119000Y-31253500D02*
G75*
G03*
X161619000Y-30753500I-500000J0D01*
G01*
X163619000Y-33753500D02*
G75*
G03*
X164119000Y-34253500I500000J0D01*
G01*
X161619000Y-32753500D02*
G75*
G03*
X162119000Y-32253500I0J500000D01*
G01*
X166619000Y-34253500D02*
X164119000Y-34253500D01*
X135119000Y-32753500D02*
X132619000Y-32753500D01*
X161619000Y-32753500D02*
X159119000Y-32753500D01*
X137434000Y-30753500D02*
X139934000Y-30753500D01*
X135619000Y-31253500D02*
X135619000Y-32253500D01*
X167119000Y-31253500D02*
G75*
G03*
X166619000Y-30753500I-500000J0D01*
G01*
X136934000Y-33753500D02*
G75*
G03*
X137434000Y-34253500I500000J0D01*
G01*
X132619000Y-30753500D02*
G75*
G03*
X132119000Y-31253500I0J-500000D01*
G01*
X158619000Y-32253500D02*
G75*
G03*
X159119000Y-32753500I500000J0D01*
G01*
X158619000Y-31253500D02*
X158619000Y-32253500D01*
X167119000Y-31253500D02*
X167119000Y-33753500D01*
X163619000Y-33753500D02*
X163619000Y-31253500D01*
X161619000Y-30753500D02*
X159119000Y-30753500D01*
X135119000Y-30753500D02*
X132619000Y-30753500D01*
X132119000Y-31253500D02*
X132119000Y-32253500D01*
X137434000Y-30753500D02*
G75*
G03*
X136934000Y-31253500I0J-500000D01*
G01*
X139934000Y-34253500D02*
X137434000Y-34253500D01*
X159119000Y-30753500D02*
G75*
G03*
X158619000Y-31253500I0J-500000D01*
G01*
X140434000Y-31253500D02*
G75*
G03*
X139934000Y-30753500I-500000J0D01*
G01*
D11*
X117321380Y-50955880D02*
X116988047Y-50479690D01*
X116749952Y-50955880D02*
X116749952Y-49955880D01*
X117130904Y-49955880D01*
X117226142Y-50003500D01*
X117273761Y-50051119D01*
X117321380Y-50146357D01*
X117321380Y-50289214D01*
X117273761Y-50384452D01*
X117226142Y-50432071D01*
X117130904Y-50479690D01*
X116749952Y-50479690D01*
X117702333Y-50908261D02*
X117845190Y-50955880D01*
X118083285Y-50955880D01*
X118178523Y-50908261D01*
X118226142Y-50860642D01*
X118273761Y-50765404D01*
X118273761Y-50670166D01*
X118226142Y-50574928D01*
X118178523Y-50527309D01*
X118083285Y-50479690D01*
X117892809Y-50432071D01*
X117797571Y-50384452D01*
X117749952Y-50336833D01*
X117702333Y-50241595D01*
X117702333Y-50146357D01*
X117749952Y-50051119D01*
X117797571Y-50003500D01*
X117892809Y-49955880D01*
X118130904Y-49955880D01*
X118273761Y-50003500D01*
X118559476Y-49955880D02*
X119130904Y-49955880D01*
X118845190Y-50955880D02*
X118845190Y-49955880D01*
X146783285Y-45851119D02*
X146830904Y-45803500D01*
X146926142Y-45755880D01*
X147164238Y-45755880D01*
X147259476Y-45803500D01*
X147307095Y-45851119D01*
X147354714Y-45946357D01*
X147354714Y-46041595D01*
X147307095Y-46184452D01*
X146735666Y-46755880D01*
X147354714Y-46755880D01*
X116954714Y-44155880D02*
X116383285Y-44155880D01*
X116669000Y-44155880D02*
X116669000Y-43155880D01*
X116573761Y-43298738D01*
X116478523Y-43393976D01*
X116383285Y-43441595D01*
D10*
X159607095Y-31253500D02*
X159511857Y-31205880D01*
X159369000Y-31205880D01*
X159226142Y-31253500D01*
X159130904Y-31348738D01*
X159083285Y-31443976D01*
X159035666Y-31634452D01*
X159035666Y-31777309D01*
X159083285Y-31967785D01*
X159130904Y-32063023D01*
X159226142Y-32158261D01*
X159369000Y-32205880D01*
X159464238Y-32205880D01*
X159607095Y-32158261D01*
X159654714Y-32110642D01*
X159654714Y-31777309D01*
X159464238Y-31777309D01*
X160083285Y-32205880D02*
X160083285Y-31205880D01*
X160654714Y-32205880D01*
X160654714Y-31205880D01*
X161130904Y-32205880D02*
X161130904Y-31205880D01*
X161369000Y-31205880D01*
X161511857Y-31253500D01*
X161607095Y-31348738D01*
X161654714Y-31443976D01*
X161702333Y-31634452D01*
X161702333Y-31777309D01*
X161654714Y-31967785D01*
X161607095Y-32063023D01*
X161511857Y-32158261D01*
X161369000Y-32205880D01*
X161130904Y-32205880D01*
X121991380Y-57486738D02*
X121991380Y-58058166D01*
X121991380Y-57772452D02*
X120991380Y-57772452D01*
X121134238Y-57867690D01*
X121229476Y-57962928D01*
X121277095Y-58058166D01*
X120991380Y-56867690D02*
X120991380Y-56772452D01*
X121039000Y-56677214D01*
X121086619Y-56629595D01*
X121181857Y-56581976D01*
X121372333Y-56534357D01*
X121610428Y-56534357D01*
X121800904Y-56581976D01*
X121896142Y-56629595D01*
X121943761Y-56677214D01*
X121991380Y-56772452D01*
X121991380Y-56867690D01*
X121943761Y-56962928D01*
X121896142Y-57010547D01*
X121800904Y-57058166D01*
X121610428Y-57105785D01*
X121372333Y-57105785D01*
X121181857Y-57058166D01*
X121086619Y-57010547D01*
X121039000Y-56962928D01*
X120991380Y-56867690D01*
X121991380Y-56105785D02*
X120991380Y-56105785D01*
X121610428Y-56010547D02*
X121991380Y-55724833D01*
X121324714Y-55724833D02*
X121705666Y-56105785D01*
X176321380Y-42908261D02*
X175321380Y-42908261D01*
X175416619Y-42479690D02*
X175369000Y-42432071D01*
X175321380Y-42336833D01*
X175321380Y-42098738D01*
X175369000Y-42003500D01*
X175416619Y-41955880D01*
X175511857Y-41908261D01*
X175607095Y-41908261D01*
X175749952Y-41955880D01*
X176321380Y-42527309D01*
X176321380Y-41908261D01*
X176226142Y-40908261D02*
X176273761Y-40955880D01*
X176321380Y-41098738D01*
X176321380Y-41193976D01*
X176273761Y-41336833D01*
X176178523Y-41432071D01*
X176083285Y-41479690D01*
X175892809Y-41527309D01*
X175749952Y-41527309D01*
X175559476Y-41479690D01*
X175464238Y-41432071D01*
X175369000Y-41336833D01*
X175321380Y-41193976D01*
X175321380Y-41098738D01*
X175369000Y-40955880D01*
X175416619Y-40908261D01*
X176321380Y-39717785D02*
X175321380Y-39717785D01*
X175321380Y-39336833D01*
X175369000Y-39241595D01*
X175416619Y-39193976D01*
X175511857Y-39146357D01*
X175654714Y-39146357D01*
X175749952Y-39193976D01*
X175797571Y-39241595D01*
X175845190Y-39336833D01*
X175845190Y-39717785D01*
X175273761Y-38003500D02*
X176559476Y-38860642D01*
X175321380Y-37670166D02*
X176130904Y-37670166D01*
X176226142Y-37622547D01*
X176273761Y-37574928D01*
X176321380Y-37479690D01*
X176321380Y-37289214D01*
X176273761Y-37193976D01*
X176226142Y-37146357D01*
X176130904Y-37098738D01*
X175321380Y-37098738D01*
X164273761Y-31150880D02*
X164607095Y-32150880D01*
X164940428Y-31150880D01*
X165273761Y-32150880D02*
X165273761Y-31150880D01*
X165749952Y-32150880D02*
X165749952Y-31150880D01*
X166321380Y-32150880D01*
X166321380Y-31150880D01*
X164797571Y-33760880D02*
X164226142Y-33760880D01*
X164511857Y-33760880D02*
X164511857Y-32760880D01*
X164416619Y-32903738D01*
X164321380Y-32998976D01*
X164226142Y-33046595D01*
X165178523Y-32856119D02*
X165226142Y-32808500D01*
X165321380Y-32760880D01*
X165559476Y-32760880D01*
X165654714Y-32808500D01*
X165702333Y-32856119D01*
X165749952Y-32951357D01*
X165749952Y-33046595D01*
X165702333Y-33189452D01*
X165130904Y-33760880D01*
X165749952Y-33760880D01*
X166083285Y-33094214D02*
X166321380Y-33760880D01*
X166559476Y-33094214D01*
D12*
X205453976Y-46619605D02*
X205453976Y-44710605D01*
X206090309Y-46074176D01*
X206726642Y-44710605D01*
X206726642Y-46619605D01*
X207908404Y-46619605D02*
X207726595Y-46528700D01*
X207635690Y-46437795D01*
X207544785Y-46255986D01*
X207544785Y-45710557D01*
X207635690Y-45528748D01*
X207726595Y-45437843D01*
X207908404Y-45346938D01*
X208181119Y-45346938D01*
X208362928Y-45437843D01*
X208453833Y-45528748D01*
X208544738Y-45710557D01*
X208544738Y-46255986D01*
X208453833Y-46437795D01*
X208362928Y-46528700D01*
X208181119Y-46619605D01*
X207908404Y-46619605D01*
X210181023Y-46619605D02*
X210181023Y-44710605D01*
X210181023Y-46528700D02*
X209999214Y-46619605D01*
X209635595Y-46619605D01*
X209453785Y-46528700D01*
X209362880Y-46437795D01*
X209271976Y-46255986D01*
X209271976Y-45710557D01*
X209362880Y-45528748D01*
X209453785Y-45437843D01*
X209635595Y-45346938D01*
X209999214Y-45346938D01*
X210181023Y-45437843D01*
X211908214Y-45346938D02*
X211908214Y-46619605D01*
X211090071Y-45346938D02*
X211090071Y-46346890D01*
X211180976Y-46528700D01*
X211362785Y-46619605D01*
X211635500Y-46619605D01*
X211817309Y-46528700D01*
X211908214Y-46437795D01*
X213089976Y-46619605D02*
X212908166Y-46528700D01*
X212817261Y-46346890D01*
X212817261Y-44710605D01*
X214635357Y-46619605D02*
X214635357Y-45619652D01*
X214544452Y-45437843D01*
X214362642Y-45346938D01*
X213999023Y-45346938D01*
X213817214Y-45437843D01*
X214635357Y-46528700D02*
X214453547Y-46619605D01*
X213999023Y-46619605D01*
X213817214Y-46528700D01*
X213726309Y-46346890D01*
X213726309Y-46165081D01*
X213817214Y-45983271D01*
X213999023Y-45892367D01*
X214453547Y-45892367D01*
X214635357Y-45801462D01*
X215544404Y-46619605D02*
X215544404Y-45346938D01*
X215544404Y-45710557D02*
X215635309Y-45528748D01*
X215726214Y-45437843D01*
X215908023Y-45346938D01*
X216089833Y-45346938D01*
X218998785Y-45346938D02*
X218998785Y-46619605D01*
X218544261Y-44619700D02*
X218089738Y-45983271D01*
X219271500Y-45983271D01*
X219998738Y-45892367D02*
X221453214Y-45892367D01*
X222362261Y-46619605D02*
X222362261Y-44710605D01*
X223089500Y-44710605D01*
X223271309Y-44801510D01*
X223362214Y-44892414D01*
X223453119Y-45074224D01*
X223453119Y-45346938D01*
X223362214Y-45528748D01*
X223271309Y-45619652D01*
X223089500Y-45710557D01*
X222362261Y-45710557D01*
X224543976Y-46619605D02*
X224362166Y-46528700D01*
X224271261Y-46437795D01*
X224180357Y-46255986D01*
X224180357Y-45710557D01*
X224271261Y-45528748D01*
X224362166Y-45437843D01*
X224543976Y-45346938D01*
X224816690Y-45346938D01*
X224998500Y-45437843D01*
X225089404Y-45528748D01*
X225180309Y-45710557D01*
X225180309Y-46255986D01*
X225089404Y-46437795D01*
X224998500Y-46528700D01*
X224816690Y-46619605D01*
X224543976Y-46619605D01*
X225998452Y-46619605D02*
X225998452Y-45346938D01*
X225998452Y-45710557D02*
X226089357Y-45528748D01*
X226180261Y-45437843D01*
X226362071Y-45346938D01*
X226543880Y-45346938D01*
X226907500Y-45346938D02*
X227634738Y-45346938D01*
X227180214Y-44710605D02*
X227180214Y-46346890D01*
X227271119Y-46528700D01*
X227452928Y-46619605D01*
X227634738Y-46619605D01*
X194590857Y-49693095D02*
X194590857Y-47784095D01*
X195408999Y-47965904D02*
X195499904Y-47875000D01*
X195681714Y-47784095D01*
X196136238Y-47784095D01*
X196318047Y-47875000D01*
X196408952Y-47965904D01*
X196499857Y-48147714D01*
X196499857Y-48329523D01*
X196408952Y-48602238D01*
X195318095Y-49693095D01*
X196499857Y-49693095D01*
X198408857Y-49511285D02*
X198317952Y-49602190D01*
X198045238Y-49693095D01*
X197863428Y-49693095D01*
X197590714Y-49602190D01*
X197408904Y-49420380D01*
X197317999Y-49238571D01*
X197227095Y-48874952D01*
X197227095Y-48602238D01*
X197317999Y-48238619D01*
X197408904Y-48056809D01*
X197590714Y-47875000D01*
X197863428Y-47784095D01*
X198045238Y-47784095D01*
X198317952Y-47875000D01*
X198408857Y-47965904D01*
X200317857Y-49693095D02*
X199681523Y-48784047D01*
X199226999Y-49693095D02*
X199226999Y-47784095D01*
X199954238Y-47784095D01*
X200136047Y-47875000D01*
X200226952Y-47965904D01*
X200317857Y-48147714D01*
X200317857Y-48420428D01*
X200226952Y-48602238D01*
X200136047Y-48693142D01*
X199954238Y-48784047D01*
X199226999Y-48784047D01*
X201681428Y-47784095D02*
X201681428Y-49147666D01*
X201590523Y-49420380D01*
X201408714Y-49602190D01*
X201135999Y-49693095D01*
X200954190Y-49693095D01*
X203408619Y-48420428D02*
X203408619Y-49693095D01*
X202954095Y-47693190D02*
X202499571Y-49056761D01*
X203681333Y-49056761D01*
X205317619Y-47784095D02*
X204408571Y-47784095D01*
X204317666Y-48693142D01*
X204408571Y-48602238D01*
X204590380Y-48511333D01*
X205044904Y-48511333D01*
X205226714Y-48602238D01*
X205317619Y-48693142D01*
X205408523Y-48874952D01*
X205408523Y-49329476D01*
X205317619Y-49511285D01*
X205226714Y-49602190D01*
X205044904Y-49693095D01*
X204590380Y-49693095D01*
X204408571Y-49602190D01*
X204317666Y-49511285D01*
X208771999Y-49693095D02*
X208135666Y-48784047D01*
X207681142Y-49693095D02*
X207681142Y-47784095D01*
X208408380Y-47784095D01*
X208590190Y-47875000D01*
X208681095Y-47965904D01*
X208771999Y-48147714D01*
X208771999Y-48420428D01*
X208681095Y-48602238D01*
X208590190Y-48693142D01*
X208408380Y-48784047D01*
X207681142Y-48784047D01*
X210317380Y-49602190D02*
X210135571Y-49693095D01*
X209771952Y-49693095D01*
X209590142Y-49602190D01*
X209499238Y-49420380D01*
X209499238Y-48693142D01*
X209590142Y-48511333D01*
X209771952Y-48420428D01*
X210135571Y-48420428D01*
X210317380Y-48511333D01*
X210408285Y-48693142D01*
X210408285Y-48874952D01*
X209499238Y-49056761D01*
X211499142Y-49693095D02*
X211317333Y-49602190D01*
X211226428Y-49420380D01*
X211226428Y-47784095D01*
X213044523Y-49693095D02*
X213044523Y-48693142D01*
X212953619Y-48511333D01*
X212771809Y-48420428D01*
X212408190Y-48420428D01*
X212226380Y-48511333D01*
X213044523Y-49602190D02*
X212862714Y-49693095D01*
X212408190Y-49693095D01*
X212226380Y-49602190D01*
X212135476Y-49420380D01*
X212135476Y-49238571D01*
X212226380Y-49056761D01*
X212408190Y-48965857D01*
X212862714Y-48965857D01*
X213044523Y-48874952D01*
X213771761Y-48420428D02*
X214226285Y-49693095D01*
X214680809Y-48420428D02*
X214226285Y-49693095D01*
X214044476Y-50147619D01*
X213953571Y-50238523D01*
X213771761Y-50329428D01*
X216862523Y-49693095D02*
X216862523Y-47784095D01*
X217317047Y-47784095D01*
X217589761Y-47875000D01*
X217771571Y-48056809D01*
X217862476Y-48238619D01*
X217953380Y-48602238D01*
X217953380Y-48874952D01*
X217862476Y-49238571D01*
X217771571Y-49420380D01*
X217589761Y-49602190D01*
X217317047Y-49693095D01*
X216862523Y-49693095D01*
X218771523Y-49693095D02*
X218771523Y-48420428D01*
X218771523Y-48784047D02*
X218862428Y-48602238D01*
X218953333Y-48511333D01*
X219135142Y-48420428D01*
X219316952Y-48420428D01*
X219953285Y-49693095D02*
X219953285Y-48420428D01*
X219953285Y-47784095D02*
X219862380Y-47875000D01*
X219953285Y-47965904D01*
X220044190Y-47875000D01*
X219953285Y-47784095D01*
X219953285Y-47965904D01*
X220680523Y-48420428D02*
X221135047Y-49693095D01*
X221589571Y-48420428D01*
X223044047Y-49602190D02*
X222862238Y-49693095D01*
X222498619Y-49693095D01*
X222316809Y-49602190D01*
X222225904Y-49420380D01*
X222225904Y-48693142D01*
X222316809Y-48511333D01*
X222498619Y-48420428D01*
X222862238Y-48420428D01*
X223044047Y-48511333D01*
X223134952Y-48693142D01*
X223134952Y-48874952D01*
X222225904Y-49056761D01*
X223953095Y-49693095D02*
X223953095Y-48420428D01*
X223953095Y-48784047D02*
X224043999Y-48602238D01*
X224134904Y-48511333D01*
X224316714Y-48420428D01*
X224498523Y-48420428D01*
X227225666Y-48693142D02*
X227498380Y-48784047D01*
X227589285Y-48874952D01*
X227680190Y-49056761D01*
X227680190Y-49329476D01*
X227589285Y-49511285D01*
X227498380Y-49602190D01*
X227316571Y-49693095D01*
X226589333Y-49693095D01*
X226589333Y-47784095D01*
X227225666Y-47784095D01*
X227407476Y-47875000D01*
X227498380Y-47965904D01*
X227589285Y-48147714D01*
X227589285Y-48329523D01*
X227498380Y-48511333D01*
X227407476Y-48602238D01*
X227225666Y-48693142D01*
X226589333Y-48693142D01*
X228498333Y-49693095D02*
X228498333Y-48420428D01*
X228498333Y-48784047D02*
X228589238Y-48602238D01*
X228680142Y-48511333D01*
X228861952Y-48420428D01*
X229043761Y-48420428D01*
X230407333Y-49602190D02*
X230225523Y-49693095D01*
X229861904Y-49693095D01*
X229680095Y-49602190D01*
X229589190Y-49420380D01*
X229589190Y-48693142D01*
X229680095Y-48511333D01*
X229861904Y-48420428D01*
X230225523Y-48420428D01*
X230407333Y-48511333D01*
X230498238Y-48693142D01*
X230498238Y-48874952D01*
X229589190Y-49056761D01*
X232134523Y-49693095D02*
X232134523Y-48693142D01*
X232043619Y-48511333D01*
X231861809Y-48420428D01*
X231498190Y-48420428D01*
X231316380Y-48511333D01*
X232134523Y-49602190D02*
X231952714Y-49693095D01*
X231498190Y-49693095D01*
X231316380Y-49602190D01*
X231225476Y-49420380D01*
X231225476Y-49238571D01*
X231316380Y-49056761D01*
X231498190Y-48965857D01*
X231952714Y-48965857D01*
X232134523Y-48874952D01*
X233043571Y-49693095D02*
X233043571Y-47784095D01*
X233225380Y-48965857D02*
X233770809Y-49693095D01*
X233770809Y-48420428D02*
X233043571Y-49147666D01*
X234861666Y-49693095D02*
X234679857Y-49602190D01*
X234588952Y-49511285D01*
X234498047Y-49329476D01*
X234498047Y-48784047D01*
X234588952Y-48602238D01*
X234679857Y-48511333D01*
X234861666Y-48420428D01*
X235134380Y-48420428D01*
X235316190Y-48511333D01*
X235407095Y-48602238D01*
X235497999Y-48784047D01*
X235497999Y-49329476D01*
X235407095Y-49511285D01*
X235316190Y-49602190D01*
X235134380Y-49693095D01*
X234861666Y-49693095D01*
X237134285Y-48420428D02*
X237134285Y-49693095D01*
X236316142Y-48420428D02*
X236316142Y-49420380D01*
X236407047Y-49602190D01*
X236588857Y-49693095D01*
X236861571Y-49693095D01*
X237043380Y-49602190D01*
X237134285Y-49511285D01*
X237770619Y-48420428D02*
X238497857Y-48420428D01*
X238043333Y-47784095D02*
X238043333Y-49420380D01*
X238134238Y-49602190D01*
X238316047Y-49693095D01*
X238497857Y-49693095D01*
D10*
X137588761Y-31150880D02*
X137922095Y-32150880D01*
X138255428Y-31150880D01*
X138588761Y-32150880D02*
X138588761Y-31150880D01*
X139064952Y-32150880D02*
X139064952Y-31150880D01*
X139636380Y-32150880D01*
X139636380Y-31150880D01*
X138112571Y-33760880D02*
X137541142Y-33760880D01*
X137826857Y-33760880D02*
X137826857Y-32760880D01*
X137731619Y-32903738D01*
X137636380Y-32998976D01*
X137541142Y-33046595D01*
X138493523Y-32856119D02*
X138541142Y-32808500D01*
X138636380Y-32760880D01*
X138874476Y-32760880D01*
X138969714Y-32808500D01*
X139017333Y-32856119D01*
X139064952Y-32951357D01*
X139064952Y-33046595D01*
X139017333Y-33189452D01*
X138445904Y-33760880D01*
X139064952Y-33760880D01*
X139398285Y-33094214D02*
X139636380Y-33760880D01*
X139874476Y-33094214D01*
D11*
X146921380Y-40755880D02*
X147016619Y-40755880D01*
X147111857Y-40803500D01*
X147159476Y-40851119D01*
X147207095Y-40946357D01*
X147254714Y-41136833D01*
X147254714Y-41374928D01*
X147207095Y-41565404D01*
X147159476Y-41660642D01*
X147111857Y-41708261D01*
X147016619Y-41755880D01*
X146921380Y-41755880D01*
X146826142Y-41708261D01*
X146778523Y-41660642D01*
X146730904Y-41565404D01*
X146683285Y-41374928D01*
X146683285Y-41136833D01*
X146730904Y-40946357D01*
X146778523Y-40851119D01*
X146826142Y-40803500D01*
X146921380Y-40755880D01*
X116383285Y-45751119D02*
X116430904Y-45703500D01*
X116526142Y-45655880D01*
X116764238Y-45655880D01*
X116859476Y-45703500D01*
X116907095Y-45751119D01*
X116954714Y-45846357D01*
X116954714Y-45941595D01*
X116907095Y-46084452D01*
X116335666Y-46655880D01*
X116954714Y-46655880D01*
X147354714Y-44255880D02*
X146783285Y-44255880D01*
X147069000Y-44255880D02*
X147069000Y-43255880D01*
X146973761Y-43398738D01*
X146878523Y-43493976D01*
X146783285Y-43541595D01*
D10*
X133107095Y-31253500D02*
X133011857Y-31205880D01*
X132869000Y-31205880D01*
X132726142Y-31253500D01*
X132630904Y-31348738D01*
X132583285Y-31443976D01*
X132535666Y-31634452D01*
X132535666Y-31777309D01*
X132583285Y-31967785D01*
X132630904Y-32063023D01*
X132726142Y-32158261D01*
X132869000Y-32205880D01*
X132964238Y-32205880D01*
X133107095Y-32158261D01*
X133154714Y-32110642D01*
X133154714Y-31777309D01*
X132964238Y-31777309D01*
X133583285Y-32205880D02*
X133583285Y-31205880D01*
X134154714Y-32205880D01*
X134154714Y-31205880D01*
X134630904Y-32205880D02*
X134630904Y-31205880D01*
X134869000Y-31205880D01*
X135011857Y-31253500D01*
X135107095Y-31348738D01*
X135154714Y-31443976D01*
X135202333Y-31634452D01*
X135202333Y-31777309D01*
X135154714Y-31967785D01*
X135107095Y-32063023D01*
X135011857Y-32158261D01*
X134869000Y-32205880D01*
X134630904Y-32205880D01*
D11*
X147921380Y-51055880D02*
X147588047Y-50579690D01*
X147349952Y-51055880D02*
X147349952Y-50055880D01*
X147730904Y-50055880D01*
X147826142Y-50103500D01*
X147873761Y-50151119D01*
X147921380Y-50246357D01*
X147921380Y-50389214D01*
X147873761Y-50484452D01*
X147826142Y-50532071D01*
X147730904Y-50579690D01*
X147349952Y-50579690D01*
X148302333Y-51008261D02*
X148445190Y-51055880D01*
X148683285Y-51055880D01*
X148778523Y-51008261D01*
X148826142Y-50960642D01*
X148873761Y-50865404D01*
X148873761Y-50770166D01*
X148826142Y-50674928D01*
X148778523Y-50627309D01*
X148683285Y-50579690D01*
X148492809Y-50532071D01*
X148397571Y-50484452D01*
X148349952Y-50436833D01*
X148302333Y-50341595D01*
X148302333Y-50246357D01*
X148349952Y-50151119D01*
X148397571Y-50103500D01*
X148492809Y-50055880D01*
X148730904Y-50055880D01*
X148873761Y-50103500D01*
X149159476Y-50055880D02*
X149730904Y-50055880D01*
X149445190Y-51055880D02*
X149445190Y-50055880D01*
X116521380Y-40655880D02*
X116616619Y-40655880D01*
X116711857Y-40703500D01*
X116759476Y-40751119D01*
X116807095Y-40846357D01*
X116854714Y-41036833D01*
X116854714Y-41274928D01*
X116807095Y-41465404D01*
X116759476Y-41560642D01*
X116711857Y-41608261D01*
X116616619Y-41655880D01*
X116521380Y-41655880D01*
X116426142Y-41608261D01*
X116378523Y-41560642D01*
X116330904Y-41465404D01*
X116283285Y-41274928D01*
X116283285Y-41036833D01*
X116330904Y-40846357D01*
X116378523Y-40751119D01*
X116426142Y-40703500D01*
X116521380Y-40655880D01*
D10*
X128928904Y-67408880D02*
X128928904Y-66408880D01*
X129167000Y-66408880D01*
X129309857Y-66456500D01*
X129405095Y-66551738D01*
X129452714Y-66646976D01*
X129500333Y-66837452D01*
X129500333Y-66980309D01*
X129452714Y-67170785D01*
X129405095Y-67266023D01*
X129309857Y-67361261D01*
X129167000Y-67408880D01*
X128928904Y-67408880D01*
X130071761Y-66837452D02*
X129976523Y-66789833D01*
X129928904Y-66742214D01*
X129881285Y-66646976D01*
X129881285Y-66599357D01*
X129928904Y-66504119D01*
X129976523Y-66456500D01*
X130071761Y-66408880D01*
X130262238Y-66408880D01*
X130357476Y-66456500D01*
X130405095Y-66504119D01*
X130452714Y-66599357D01*
X130452714Y-66646976D01*
X130405095Y-66742214D01*
X130357476Y-66789833D01*
X130262238Y-66837452D01*
X130071761Y-66837452D01*
X129976523Y-66885071D01*
X129928904Y-66932690D01*
X129881285Y-67027928D01*
X129881285Y-67218404D01*
X129928904Y-67313642D01*
X129976523Y-67361261D01*
X130071761Y-67408880D01*
X130262238Y-67408880D01*
X130357476Y-67361261D01*
X130405095Y-67313642D01*
X130452714Y-67218404D01*
X130452714Y-67027928D01*
X130405095Y-66932690D01*
X130357476Y-66885071D01*
X130262238Y-66837452D01*
X168171904Y-65376880D02*
X168171904Y-64376880D01*
X168410000Y-64376880D01*
X168552857Y-64424500D01*
X168648095Y-64519738D01*
X168695714Y-64614976D01*
X168743333Y-64805452D01*
X168743333Y-64948309D01*
X168695714Y-65138785D01*
X168648095Y-65234023D01*
X168552857Y-65329261D01*
X168410000Y-65376880D01*
X168171904Y-65376880D01*
X169076666Y-64376880D02*
X169743333Y-64376880D01*
X169314761Y-65376880D01*
X125321380Y-61898738D02*
X125321380Y-62470166D01*
X125321380Y-62184452D02*
X124321380Y-62184452D01*
X124464238Y-62279690D01*
X124559476Y-62374928D01*
X124607095Y-62470166D01*
X124321380Y-61279690D02*
X124321380Y-61184452D01*
X124369000Y-61089214D01*
X124416619Y-61041595D01*
X124511857Y-60993976D01*
X124702333Y-60946357D01*
X124940428Y-60946357D01*
X125130904Y-60993976D01*
X125226142Y-61041595D01*
X125273761Y-61089214D01*
X125321380Y-61184452D01*
X125321380Y-61279690D01*
X125273761Y-61374928D01*
X125226142Y-61422547D01*
X125130904Y-61470166D01*
X124940428Y-61517785D01*
X124702333Y-61517785D01*
X124511857Y-61470166D01*
X124416619Y-61422547D01*
X124369000Y-61374928D01*
X124321380Y-61279690D01*
X125321380Y-60517785D02*
X124321380Y-60517785D01*
X124940428Y-60422547D02*
X125321380Y-60136833D01*
X124654714Y-60136833D02*
X125035666Y-60517785D01*
X138088380Y-41328261D02*
X138088380Y-41899690D01*
X138088380Y-41613976D02*
X137088380Y-41613976D01*
X137231238Y-41709214D01*
X137326476Y-41804452D01*
X137374095Y-41899690D01*
X137088380Y-40709214D02*
X137088380Y-40613976D01*
X137136000Y-40518738D01*
X137183619Y-40471119D01*
X137278857Y-40423500D01*
X137469333Y-40375880D01*
X137707428Y-40375880D01*
X137897904Y-40423500D01*
X137993142Y-40471119D01*
X138040761Y-40518738D01*
X138088380Y-40613976D01*
X138088380Y-40709214D01*
X138040761Y-40804452D01*
X137993142Y-40852071D01*
X137897904Y-40899690D01*
X137707428Y-40947309D01*
X137469333Y-40947309D01*
X137278857Y-40899690D01*
X137183619Y-40852071D01*
X137136000Y-40804452D01*
X137088380Y-40709214D01*
X137088380Y-39756833D02*
X137088380Y-39661595D01*
X137136000Y-39566357D01*
X137183619Y-39518738D01*
X137278857Y-39471119D01*
X137469333Y-39423500D01*
X137707428Y-39423500D01*
X137897904Y-39471119D01*
X137993142Y-39518738D01*
X138040761Y-39566357D01*
X138088380Y-39661595D01*
X138088380Y-39756833D01*
X138040761Y-39852071D01*
X137993142Y-39899690D01*
X137897904Y-39947309D01*
X137707428Y-39994928D01*
X137469333Y-39994928D01*
X137278857Y-39947309D01*
X137183619Y-39899690D01*
X137136000Y-39852071D01*
X137088380Y-39756833D01*
X137421714Y-38994928D02*
X138088380Y-38994928D01*
X137516952Y-38994928D02*
X137469333Y-38947309D01*
X137421714Y-38852071D01*
X137421714Y-38709214D01*
X137469333Y-38613976D01*
X137564571Y-38566357D01*
X138088380Y-38566357D01*
X137421714Y-38233023D02*
X137421714Y-37852071D01*
X138088380Y-38090166D02*
X137231238Y-38090166D01*
X137136000Y-38042547D01*
X137088380Y-37947309D01*
X137088380Y-37852071D01*
X131865761Y-38152880D02*
X131294333Y-38152880D01*
X131580047Y-38152880D02*
X131580047Y-37152880D01*
X131484809Y-37295738D01*
X131389571Y-37390976D01*
X131294333Y-37438595D01*
X132484809Y-37152880D02*
X132580047Y-37152880D01*
X132675285Y-37200500D01*
X132722904Y-37248119D01*
X132770523Y-37343357D01*
X132818142Y-37533833D01*
X132818142Y-37771928D01*
X132770523Y-37962404D01*
X132722904Y-38057642D01*
X132675285Y-38105261D01*
X132580047Y-38152880D01*
X132484809Y-38152880D01*
X132389571Y-38105261D01*
X132341952Y-38057642D01*
X132294333Y-37962404D01*
X132246714Y-37771928D01*
X132246714Y-37533833D01*
X132294333Y-37343357D01*
X132341952Y-37248119D01*
X132389571Y-37200500D01*
X132484809Y-37152880D01*
X133246714Y-38152880D02*
X133246714Y-37152880D01*
X133341952Y-37771928D02*
X133627666Y-38152880D01*
X133627666Y-37486214D02*
X133246714Y-37867166D01*
X176273761Y-48355880D02*
X175702333Y-48355880D01*
X175988047Y-48355880D02*
X175988047Y-47355880D01*
X175892809Y-47498738D01*
X175797571Y-47593976D01*
X175702333Y-47641595D01*
X176892809Y-47355880D02*
X176988047Y-47355880D01*
X177083285Y-47403500D01*
X177130904Y-47451119D01*
X177178523Y-47546357D01*
X177226142Y-47736833D01*
X177226142Y-47974928D01*
X177178523Y-48165404D01*
X177130904Y-48260642D01*
X177083285Y-48308261D01*
X176988047Y-48355880D01*
X176892809Y-48355880D01*
X176797571Y-48308261D01*
X176749952Y-48260642D01*
X176702333Y-48165404D01*
X176654714Y-47974928D01*
X176654714Y-47736833D01*
X176702333Y-47546357D01*
X176749952Y-47451119D01*
X176797571Y-47403500D01*
X176892809Y-47355880D01*
X177654714Y-48355880D02*
X177654714Y-47355880D01*
X177749952Y-47974928D02*
X178035666Y-48355880D01*
X178035666Y-47689214D02*
X177654714Y-48070166D01*
X150203904Y-65361880D02*
X150203904Y-64361880D01*
X150442000Y-64361880D01*
X150584857Y-64409500D01*
X150680095Y-64504738D01*
X150727714Y-64599976D01*
X150775333Y-64790452D01*
X150775333Y-64933309D01*
X150727714Y-65123785D01*
X150680095Y-65219023D01*
X150584857Y-65314261D01*
X150442000Y-65361880D01*
X150203904Y-65361880D01*
X151632476Y-64361880D02*
X151442000Y-64361880D01*
X151346761Y-64409500D01*
X151299142Y-64457119D01*
X151203904Y-64599976D01*
X151156285Y-64790452D01*
X151156285Y-65171404D01*
X151203904Y-65266642D01*
X151251523Y-65314261D01*
X151346761Y-65361880D01*
X151537238Y-65361880D01*
X151632476Y-65314261D01*
X151680095Y-65266642D01*
X151727714Y-65171404D01*
X151727714Y-64933309D01*
X151680095Y-64838071D01*
X151632476Y-64790452D01*
X151537238Y-64742833D01*
X151346761Y-64742833D01*
X151251523Y-64790452D01*
X151203904Y-64838071D01*
X151156285Y-64933309D01*
X176273761Y-50055880D02*
X175702333Y-50055880D01*
X175988047Y-50055880D02*
X175988047Y-49055880D01*
X175892809Y-49198738D01*
X175797571Y-49293976D01*
X175702333Y-49341595D01*
X176892809Y-49055880D02*
X176988047Y-49055880D01*
X177083285Y-49103500D01*
X177130904Y-49151119D01*
X177178523Y-49246357D01*
X177226142Y-49436833D01*
X177226142Y-49674928D01*
X177178523Y-49865404D01*
X177130904Y-49960642D01*
X177083285Y-50008261D01*
X176988047Y-50055880D01*
X176892809Y-50055880D01*
X176797571Y-50008261D01*
X176749952Y-49960642D01*
X176702333Y-49865404D01*
X176654714Y-49674928D01*
X176654714Y-49436833D01*
X176702333Y-49246357D01*
X176749952Y-49151119D01*
X176797571Y-49103500D01*
X176892809Y-49055880D01*
X177654714Y-50055880D02*
X177654714Y-49055880D01*
X177749952Y-49674928D02*
X178035666Y-50055880D01*
X178035666Y-49389214D02*
X177654714Y-49770166D01*
X132318761Y-62169880D02*
X132318761Y-61169880D01*
X132652095Y-61884166D01*
X132985428Y-61169880D01*
X132985428Y-62169880D01*
X134033047Y-62074642D02*
X133985428Y-62122261D01*
X133842571Y-62169880D01*
X133747333Y-62169880D01*
X133604476Y-62122261D01*
X133509238Y-62027023D01*
X133461619Y-61931785D01*
X133414000Y-61741309D01*
X133414000Y-61598452D01*
X133461619Y-61407976D01*
X133509238Y-61312738D01*
X133604476Y-61217500D01*
X133747333Y-61169880D01*
X133842571Y-61169880D01*
X133985428Y-61217500D01*
X134033047Y-61265119D01*
X134461619Y-62169880D02*
X134461619Y-61169880D01*
X134842571Y-61169880D01*
X134937809Y-61217500D01*
X134985428Y-61265119D01*
X135033047Y-61360357D01*
X135033047Y-61503214D01*
X134985428Y-61598452D01*
X134937809Y-61646071D01*
X134842571Y-61693690D01*
X134461619Y-61693690D01*
X135414000Y-61265119D02*
X135461619Y-61217500D01*
X135556857Y-61169880D01*
X135794952Y-61169880D01*
X135890190Y-61217500D01*
X135937809Y-61265119D01*
X135985428Y-61360357D01*
X135985428Y-61455595D01*
X135937809Y-61598452D01*
X135366380Y-62169880D01*
X135985428Y-62169880D01*
X136318761Y-61169880D02*
X136937809Y-61169880D01*
X136604476Y-61550833D01*
X136747333Y-61550833D01*
X136842571Y-61598452D01*
X136890190Y-61646071D01*
X136937809Y-61741309D01*
X136937809Y-61979404D01*
X136890190Y-62074642D01*
X136842571Y-62122261D01*
X136747333Y-62169880D01*
X136461619Y-62169880D01*
X136366380Y-62122261D01*
X136318761Y-62074642D01*
X137556857Y-61169880D02*
X137652095Y-61169880D01*
X137747333Y-61217500D01*
X137794952Y-61265119D01*
X137842571Y-61360357D01*
X137890190Y-61550833D01*
X137890190Y-61788928D01*
X137842571Y-61979404D01*
X137794952Y-62074642D01*
X137747333Y-62122261D01*
X137652095Y-62169880D01*
X137556857Y-62169880D01*
X137461619Y-62122261D01*
X137414000Y-62074642D01*
X137366380Y-61979404D01*
X137318761Y-61788928D01*
X137318761Y-61550833D01*
X137366380Y-61360357D01*
X137414000Y-61265119D01*
X137461619Y-61217500D01*
X137556857Y-61169880D01*
X138842571Y-62169880D02*
X138271142Y-62169880D01*
X138556857Y-62169880D02*
X138556857Y-61169880D01*
X138461619Y-61312738D01*
X138366380Y-61407976D01*
X138271142Y-61455595D01*
X139175904Y-61169880D02*
X139842571Y-61169880D01*
X139414000Y-62169880D01*
X139985428Y-62265119D02*
X140747333Y-62265119D01*
X140937809Y-62122261D02*
X141080666Y-62169880D01*
X141318761Y-62169880D01*
X141414000Y-62122261D01*
X141461619Y-62074642D01*
X141509238Y-61979404D01*
X141509238Y-61884166D01*
X141461619Y-61788928D01*
X141414000Y-61741309D01*
X141318761Y-61693690D01*
X141128285Y-61646071D01*
X141033047Y-61598452D01*
X140985428Y-61550833D01*
X140937809Y-61455595D01*
X140937809Y-61360357D01*
X140985428Y-61265119D01*
X141033047Y-61217500D01*
X141128285Y-61169880D01*
X141366380Y-61169880D01*
X141509238Y-61217500D01*
X142128285Y-61169880D02*
X142318761Y-61169880D01*
X142414000Y-61217500D01*
X142509238Y-61312738D01*
X142556857Y-61503214D01*
X142556857Y-61836547D01*
X142509238Y-62027023D01*
X142414000Y-62122261D01*
X142318761Y-62169880D01*
X142128285Y-62169880D01*
X142033047Y-62122261D01*
X141937809Y-62027023D01*
X141890190Y-61836547D01*
X141890190Y-61503214D01*
X141937809Y-61312738D01*
X142033047Y-61217500D01*
X142128285Y-61169880D01*
X150321380Y-61898738D02*
X150321380Y-62470166D01*
X150321380Y-62184452D02*
X149321380Y-62184452D01*
X149464238Y-62279690D01*
X149559476Y-62374928D01*
X149607095Y-62470166D01*
X149321380Y-61279690D02*
X149321380Y-61184452D01*
X149369000Y-61089214D01*
X149416619Y-61041595D01*
X149511857Y-60993976D01*
X149702333Y-60946357D01*
X149940428Y-60946357D01*
X150130904Y-60993976D01*
X150226142Y-61041595D01*
X150273761Y-61089214D01*
X150321380Y-61184452D01*
X150321380Y-61279690D01*
X150273761Y-61374928D01*
X150226142Y-61422547D01*
X150130904Y-61470166D01*
X149940428Y-61517785D01*
X149702333Y-61517785D01*
X149511857Y-61470166D01*
X149416619Y-61422547D01*
X149369000Y-61374928D01*
X149321380Y-61279690D01*
X150321380Y-60517785D02*
X149321380Y-60517785D01*
X149940428Y-60422547D02*
X150321380Y-60136833D01*
X149654714Y-60136833D02*
X150035666Y-60517785D01*
X146321380Y-60922547D02*
X146321380Y-61493976D01*
X146321380Y-61208261D02*
X145321380Y-61208261D01*
X145464238Y-61303500D01*
X145559476Y-61398738D01*
X145607095Y-61493976D01*
X146321380Y-60493976D02*
X145321380Y-60493976D01*
X145940428Y-60398738D02*
X146321380Y-60113023D01*
X145654714Y-60113023D02*
X146035666Y-60493976D01*
X129611380Y-60922559D02*
X129611380Y-61493988D01*
X129611380Y-61208273D02*
X128611380Y-61208273D01*
X128754238Y-61303512D01*
X128849476Y-61398750D01*
X128897095Y-61493988D01*
X129611380Y-60493988D02*
X128611380Y-60493988D01*
X129230428Y-60398750D02*
X129611380Y-60113035D01*
X128944714Y-60113035D02*
X129325666Y-60493988D01*
X144771380Y-45908261D02*
X144771380Y-46479690D01*
X144771380Y-46193976D02*
X143771380Y-46193976D01*
X143914238Y-46289214D01*
X144009476Y-46384452D01*
X144057095Y-46479690D01*
X143771380Y-45289214D02*
X143771380Y-45193976D01*
X143819000Y-45098738D01*
X143866619Y-45051119D01*
X143961857Y-45003500D01*
X144152333Y-44955880D01*
X144390428Y-44955880D01*
X144580904Y-45003500D01*
X144676142Y-45051119D01*
X144723761Y-45098738D01*
X144771380Y-45193976D01*
X144771380Y-45289214D01*
X144723761Y-45384452D01*
X144676142Y-45432071D01*
X144580904Y-45479690D01*
X144390428Y-45527309D01*
X144152333Y-45527309D01*
X143961857Y-45479690D01*
X143866619Y-45432071D01*
X143819000Y-45384452D01*
X143771380Y-45289214D01*
X143771380Y-44336833D02*
X143771380Y-44241595D01*
X143819000Y-44146357D01*
X143866619Y-44098738D01*
X143961857Y-44051119D01*
X144152333Y-44003500D01*
X144390428Y-44003500D01*
X144580904Y-44051119D01*
X144676142Y-44098738D01*
X144723761Y-44146357D01*
X144771380Y-44241595D01*
X144771380Y-44336833D01*
X144723761Y-44432071D01*
X144676142Y-44479690D01*
X144580904Y-44527309D01*
X144390428Y-44574928D01*
X144152333Y-44574928D01*
X143961857Y-44527309D01*
X143866619Y-44479690D01*
X143819000Y-44432071D01*
X143771380Y-44336833D01*
X144104714Y-43574928D02*
X144771380Y-43574928D01*
X144199952Y-43574928D02*
X144152333Y-43527309D01*
X144104714Y-43432071D01*
X144104714Y-43289214D01*
X144152333Y-43193976D01*
X144247571Y-43146357D01*
X144771380Y-43146357D01*
X144104714Y-42813023D02*
X144104714Y-42432071D01*
X144771380Y-42670166D02*
X143914238Y-42670166D01*
X143819000Y-42622547D01*
X143771380Y-42527309D01*
X143771380Y-42432071D01*
X139342904Y-65376880D02*
X139342904Y-64376880D01*
X139581000Y-64376880D01*
X139723857Y-64424500D01*
X139819095Y-64519738D01*
X139866714Y-64614976D01*
X139914333Y-64805452D01*
X139914333Y-64948309D01*
X139866714Y-65138785D01*
X139819095Y-65234023D01*
X139723857Y-65329261D01*
X139581000Y-65376880D01*
X139342904Y-65376880D01*
X140819095Y-64376880D02*
X140342904Y-64376880D01*
X140295285Y-64853071D01*
X140342904Y-64805452D01*
X140438142Y-64757833D01*
X140676238Y-64757833D01*
X140771476Y-64805452D01*
X140819095Y-64853071D01*
X140866714Y-64948309D01*
X140866714Y-65186404D01*
X140819095Y-65281642D01*
X140771476Y-65329261D01*
X140676238Y-65376880D01*
X140438142Y-65376880D01*
X140342904Y-65329261D01*
X140295285Y-65281642D01*
D13*
X183208995Y-63541501D02*
X183208995Y-79041501D01*
X181898995Y-64841501D02*
X181898995Y-69241501D01*
X174088995Y-63541501D02*
X183208995Y-63541501D01*
X181898995Y-77741501D02*
X175398995Y-77741501D01*
X181898995Y-69241501D02*
X181898995Y-69241501D01*
X183208995Y-79041501D02*
X174088995Y-79041501D01*
X175398995Y-64841501D02*
X181898995Y-64841501D01*
X181898995Y-73341501D02*
X181898995Y-77741501D01*
X174088995Y-79041501D02*
X174088995Y-63541501D01*
X175398995Y-77741501D02*
X175398995Y-64841501D01*
X181898995Y-69241501D02*
X183208995Y-69241501D01*
X183208995Y-73341501D02*
X181898995Y-73341501D01*
X137503000Y-83153500D02*
X139788000Y-83153500D01*
X139788000Y-83153500D02*
X139788000Y-81683500D01*
X139788000Y-81683500D02*
X137503000Y-81683500D01*
X151734742Y-91890400D02*
X152209258Y-91890400D01*
X151734742Y-90845400D02*
X152209258Y-90845400D01*
X140976150Y-92530500D02*
X144216150Y-92530500D01*
X140976150Y-92530500D02*
X140976150Y-94150500D01*
X140976150Y-94150500D02*
X144216150Y-94150500D01*
X158601000Y-92530500D02*
X161841000Y-92530500D01*
X158601000Y-92530500D02*
X158601000Y-94150500D01*
X158601000Y-94150500D02*
X161841000Y-94150500D01*
X181433800Y-83153500D02*
X183718800Y-83153500D01*
X183718800Y-83153500D02*
X183718800Y-81683500D01*
X183718800Y-81683500D02*
X181433800Y-81683500D01*
X130367000Y-67796500D02*
X128467000Y-67796500D01*
X128967000Y-70116500D02*
X130367000Y-70116500D01*
X167333300Y-94150500D02*
X170573300Y-94150500D01*
X167333300Y-92530500D02*
X170573300Y-92530500D01*
X167333300Y-92530500D02*
X167333300Y-94150500D01*
X155548300Y-83153500D02*
X157833300Y-83153500D01*
X157833300Y-83153500D02*
X157833300Y-81683500D01*
X157833300Y-81683500D02*
X155548300Y-81683500D01*
X162268000Y-37268500D02*
X164553000Y-37268500D01*
X164553000Y-37268500D02*
X164553000Y-35798500D01*
X164553000Y-35798500D02*
X162268000Y-35798500D01*
X147155242Y-84098700D02*
X147629758Y-84098700D01*
X147155242Y-85143700D02*
X147629758Y-85143700D01*
X131172500Y-88006500D02*
X131172500Y-88656500D01*
X128052500Y-88006500D02*
X128052500Y-87356500D01*
X128052500Y-88006500D02*
X128052500Y-88656500D01*
X131172500Y-88006500D02*
X131172500Y-86331500D01*
X169610000Y-65764500D02*
X167710000Y-65764500D01*
X168210000Y-68084500D02*
X169610000Y-68084500D01*
X129375242Y-91890400D02*
X129849758Y-91890400D01*
X129375242Y-90845400D02*
X129849758Y-90845400D01*
X135308500Y-81683500D02*
X133023500Y-81683500D01*
X135308500Y-83153500D02*
X135308500Y-81683500D01*
X133023500Y-83153500D02*
X135308500Y-83153500D01*
X160251242Y-90845400D02*
X160725758Y-90845400D01*
X160251242Y-91890400D02*
X160725758Y-91890400D01*
X148897500Y-81683500D02*
X146612500Y-81683500D01*
X148897500Y-83153500D02*
X148897500Y-81683500D01*
X146612500Y-83153500D02*
X148897500Y-83153500D01*
X160258742Y-84098700D02*
X160733258Y-84098700D01*
X160258742Y-85143700D02*
X160733258Y-85143700D01*
X123861500Y-87992262D02*
X123861500Y-87342262D01*
X126981500Y-87992262D02*
X126981500Y-86317262D01*
X126981500Y-87992262D02*
X126981500Y-88642262D01*
X123861500Y-87992262D02*
X123861500Y-88642262D01*
X170780800Y-88006500D02*
X170780800Y-88656500D01*
X170780800Y-88006500D02*
X170780800Y-86331500D01*
X167660800Y-88006500D02*
X167660800Y-88656500D01*
X167660800Y-88006500D02*
X167660800Y-87356500D01*
X170733300Y-81683500D02*
X168448300Y-81683500D01*
X168448300Y-83153500D02*
X170733300Y-83153500D01*
X170733300Y-83153500D02*
X170733300Y-81683500D01*
X177107500Y-83153500D02*
X179392500Y-83153500D01*
X179392500Y-81683500D02*
X177107500Y-81683500D01*
X179392500Y-83153500D02*
X179392500Y-81683500D01*
D14*
X157269000Y-30103500D02*
X157269000Y-23603500D01*
X157269000Y-23603500D02*
X157269000Y-22603500D01*
X157269000Y-22603500D02*
X168469000Y-22603500D01*
X168469000Y-23603500D02*
X168469000Y-30103500D01*
X168469000Y-30103500D02*
X157269000Y-30103500D01*
X157269000Y-23603500D02*
X168469000Y-23603500D01*
X168469000Y-22603500D02*
X168469000Y-23603500D01*
D13*
X125109010Y-63541501D02*
X125109010Y-79041501D01*
X123799010Y-69241501D02*
X123799010Y-69241501D01*
X117299010Y-64841501D02*
X123799010Y-64841501D01*
X115989010Y-79041501D02*
X115989010Y-63541501D01*
X115989010Y-63541501D02*
X125109010Y-63541501D01*
X123799010Y-77741501D02*
X117299010Y-77741501D01*
X123799010Y-69241501D02*
X125109010Y-69241501D01*
X117299010Y-77741501D02*
X117299010Y-64841501D01*
X125109010Y-73341501D02*
X123799010Y-73341501D01*
X125109010Y-79041501D02*
X115989010Y-79041501D01*
X123799010Y-73341501D02*
X123799010Y-77741501D01*
X123799010Y-64841501D02*
X123799010Y-69241501D01*
X125369000Y-56323500D02*
X124369000Y-56323500D01*
X125369000Y-59683500D02*
X124369000Y-59683500D01*
X165339500Y-37096242D02*
X165339500Y-37570758D01*
X166384500Y-37096242D02*
X166384500Y-37570758D01*
X135126000Y-40014080D02*
X135126000Y-39732920D01*
X136146000Y-40014080D02*
X136146000Y-39732920D01*
X134141000Y-40500500D02*
X134141000Y-39500500D01*
X130781000Y-40500500D02*
X130781000Y-39500500D01*
X171674500Y-92530500D02*
X171674500Y-94150500D01*
X171674500Y-94150500D02*
X174914500Y-94150500D01*
X171674500Y-92530500D02*
X174914500Y-92530500D01*
X180006258Y-47381000D02*
X179531742Y-47381000D01*
X180006258Y-48426000D02*
X179531742Y-48426000D01*
X156091042Y-84098700D02*
X156565558Y-84098700D01*
X156091042Y-85143700D02*
X156565558Y-85143700D01*
X142075000Y-83153500D02*
X144360000Y-83153500D01*
X144360000Y-81683500D02*
X142075000Y-81683500D01*
X144360000Y-83153500D02*
X144360000Y-81683500D01*
X121912000Y-55269500D02*
X120912000Y-55269500D01*
X121912000Y-51909500D02*
X120912000Y-51909500D01*
X123534000Y-94150500D02*
X126774000Y-94150500D01*
X123534000Y-92530500D02*
X123534000Y-94150500D01*
X123534000Y-92530500D02*
X126774000Y-92530500D01*
X156083542Y-91890400D02*
X156558058Y-91890400D01*
X156083542Y-90845400D02*
X156558058Y-90845400D01*
X125184242Y-85143700D02*
X125658758Y-85143700D01*
X125184242Y-84098700D02*
X125658758Y-84098700D01*
X150242000Y-68069500D02*
X151642000Y-68069500D01*
X151642000Y-65749500D02*
X149742000Y-65749500D01*
X138052242Y-90845400D02*
X138526758Y-90845400D01*
X138052242Y-91890400D02*
X138526758Y-91890400D01*
X126961000Y-83153500D02*
X126961000Y-81683500D01*
X124676000Y-83153500D02*
X126961000Y-83153500D01*
X126961000Y-81683500D02*
X124676000Y-81683500D01*
X129369000Y-51823500D02*
X128369000Y-51823500D01*
X129369000Y-55183500D02*
X128369000Y-55183500D01*
X148952500Y-88006500D02*
X148952500Y-86331500D01*
X148952500Y-88006500D02*
X148952500Y-88656500D01*
X145832500Y-88006500D02*
X145832500Y-88656500D01*
X145832500Y-88006500D02*
X145832500Y-87356500D01*
X116983742Y-85143700D02*
X117458258Y-85143700D01*
X116983742Y-84098700D02*
X117458258Y-84098700D01*
X125184242Y-91890400D02*
X125658758Y-91890400D01*
X125184242Y-90845400D02*
X125658758Y-90845400D01*
X162001000Y-83153500D02*
X162001000Y-81683500D01*
X162001000Y-81683500D02*
X159716000Y-81683500D01*
X159716000Y-83153500D02*
X162001000Y-83153500D01*
X175074500Y-83153500D02*
X175074500Y-81683500D01*
X172789500Y-83153500D02*
X175074500Y-83153500D01*
X175074500Y-81683500D02*
X172789500Y-81683500D01*
X129375242Y-85143700D02*
X129849758Y-85143700D01*
X129375242Y-84098700D02*
X129849758Y-84098700D01*
X142626392Y-90845400D02*
X143100908Y-90845400D01*
X142626392Y-91890400D02*
X143100908Y-91890400D01*
X131916000Y-92530500D02*
X131916000Y-94150500D01*
X131916000Y-92530500D02*
X135156000Y-92530500D01*
X131916000Y-94150500D02*
X135156000Y-94150500D01*
X120577500Y-83153500D02*
X122862500Y-83153500D01*
X122862500Y-81683500D02*
X120577500Y-81683500D01*
X122862500Y-83153500D02*
X122862500Y-81683500D01*
X177650242Y-85143700D02*
X178124758Y-85143700D01*
X177650242Y-84098700D02*
X178124758Y-84098700D01*
X181969042Y-91890400D02*
X182443558Y-91890400D01*
X181969042Y-90845400D02*
X182443558Y-90845400D01*
X145423437Y-23743500D02*
X144359000Y-24807937D01*
X153814563Y-23743500D02*
X151129000Y-23743500D01*
X145423437Y-23743500D02*
X148109000Y-23743500D01*
X154879000Y-24807937D02*
X154879000Y-34263500D01*
X153004000Y-22878500D02*
X151754000Y-22878500D01*
X153814563Y-23743500D02*
X154879000Y-24807937D01*
X154879000Y-34263500D02*
X151129000Y-34263500D01*
X144359000Y-34263500D02*
X148109000Y-34263500D01*
X144359000Y-24807937D02*
X144359000Y-34263500D01*
X152379000Y-22253500D02*
X152379000Y-23503500D01*
X145369000Y-55183500D02*
X146369000Y-55183500D01*
X145369000Y-51823500D02*
X146369000Y-51823500D01*
X133566242Y-91890400D02*
X134040758Y-91890400D01*
X133566242Y-90845400D02*
X134040758Y-90845400D01*
X147155242Y-90845400D02*
X147629758Y-90845400D01*
X147155242Y-91890400D02*
X147629758Y-91890400D01*
X138052242Y-85143700D02*
X138526758Y-85143700D01*
X138052242Y-84098700D02*
X138526758Y-84098700D01*
X180006258Y-50126000D02*
X179531742Y-50126000D01*
X180006258Y-49081000D02*
X179531742Y-49081000D01*
X151219000Y-83153500D02*
X153504000Y-83153500D01*
X153504000Y-81683500D02*
X151219000Y-81683500D01*
X153504000Y-83153500D02*
X153504000Y-81683500D01*
X179440000Y-88006500D02*
X179440000Y-88656500D01*
X179440000Y-88006500D02*
X179440000Y-86331500D01*
X176320000Y-88006500D02*
X176320000Y-87356500D01*
X176320000Y-88006500D02*
X176320000Y-88656500D01*
X118726000Y-81683500D02*
X116441000Y-81683500D01*
X118726000Y-83153500D02*
X118726000Y-81683500D01*
X116441000Y-83153500D02*
X118726000Y-83153500D01*
X179666000Y-62198500D02*
X179666000Y-60728500D01*
X177381000Y-62198500D02*
X179666000Y-62198500D01*
X179666000Y-60728500D02*
X177381000Y-60728500D01*
X164561742Y-91890400D02*
X165036258Y-91890400D01*
X164561742Y-90845400D02*
X165036258Y-90845400D01*
X168983542Y-91890400D02*
X169458058Y-91890400D01*
X168983542Y-90845400D02*
X169458058Y-90845400D01*
X173332242Y-85143700D02*
X173806758Y-85143700D01*
X173332242Y-84098700D02*
X173806758Y-84098700D01*
X145505000Y-92530500D02*
X148745000Y-92530500D01*
X145505000Y-94150500D02*
X148745000Y-94150500D01*
X145505000Y-92530500D02*
X145505000Y-94150500D01*
X164569242Y-84098700D02*
X165043758Y-84098700D01*
X164569242Y-85143700D02*
X165043758Y-85143700D01*
X149360000Y-55269500D02*
X150360000Y-55269500D01*
X149360000Y-51909500D02*
X150360000Y-51909500D01*
X175992500Y-94150500D02*
X179232500Y-94150500D01*
X175992500Y-92530500D02*
X179232500Y-92530500D01*
X175992500Y-92530500D02*
X175992500Y-94150500D01*
X154284500Y-92530500D02*
X157524500Y-92530500D01*
X154284500Y-92530500D02*
X154284500Y-94150500D01*
X154284500Y-94150500D02*
X157524500Y-94150500D01*
X141303650Y-88006500D02*
X141303650Y-88656500D01*
X141303650Y-88006500D02*
X141303650Y-87356500D01*
X144423650Y-88006500D02*
X144423650Y-88656500D01*
X144423650Y-88006500D02*
X144423650Y-86331500D01*
X119470000Y-92530500D02*
X122710000Y-92530500D01*
X119470000Y-94150500D02*
X122710000Y-94150500D01*
X119470000Y-92530500D02*
X119470000Y-94150500D01*
X181976542Y-85143700D02*
X182451058Y-85143700D01*
X181976542Y-84098700D02*
X182451058Y-84098700D01*
X158928500Y-88006500D02*
X158928500Y-88656500D01*
X162048500Y-88006500D02*
X162048500Y-88656500D01*
X158928500Y-88006500D02*
X158928500Y-87356500D01*
X162048500Y-88006500D02*
X162048500Y-86331500D01*
X133509000Y-42443500D02*
X133509000Y-42688500D01*
X137369000Y-42443500D02*
X141229000Y-42443500D01*
X137369000Y-60563500D02*
X133509000Y-60563500D01*
X137369000Y-60563500D02*
X141229000Y-60563500D01*
X141229000Y-42443500D02*
X141229000Y-42688500D01*
X141229000Y-60563500D02*
X141229000Y-60318500D01*
X133509000Y-60563500D02*
X133509000Y-60318500D01*
X141229000Y-60318500D02*
X143044000Y-60318500D01*
X137369000Y-42443500D02*
X133509000Y-42443500D01*
X127725000Y-92530500D02*
X130965000Y-92530500D01*
X127725000Y-94150500D02*
X130965000Y-94150500D01*
X127725000Y-92530500D02*
X127725000Y-94150500D01*
X142626392Y-85143700D02*
X143100908Y-85143700D01*
X142626392Y-84098700D02*
X143100908Y-84098700D01*
X151742242Y-85143700D02*
X152216758Y-85143700D01*
X151742242Y-84098700D02*
X152216758Y-84098700D01*
X157880800Y-88006500D02*
X157880800Y-88656500D01*
X157880800Y-88006500D02*
X157880800Y-86331500D01*
X154760800Y-88006500D02*
X154760800Y-88656500D01*
X154760800Y-88006500D02*
X154760800Y-87356500D01*
X149369000Y-56323500D02*
X150369000Y-56323500D01*
X149369000Y-59683500D02*
X150369000Y-59683500D01*
X145369000Y-59683512D02*
X146369000Y-59683512D01*
X145369000Y-56323512D02*
X146369000Y-56323512D01*
X119797500Y-88006500D02*
X119797500Y-88656500D01*
X122917500Y-88006500D02*
X122917500Y-88656500D01*
X119797500Y-88006500D02*
X119797500Y-87356500D01*
X122917500Y-88006500D02*
X122917500Y-86331500D01*
X150412000Y-88006500D02*
X150412000Y-88656500D01*
X153532000Y-88006500D02*
X153532000Y-86331500D01*
X150412000Y-88006500D02*
X150412000Y-87356500D01*
X153532000Y-88006500D02*
X153532000Y-88656500D01*
X136729500Y-88006500D02*
X136729500Y-88656500D01*
X136729500Y-88006500D02*
X136729500Y-87356500D01*
X139849500Y-88006500D02*
X139849500Y-88656500D01*
X139849500Y-88006500D02*
X139849500Y-86331500D01*
X133566242Y-84098700D02*
X134040758Y-84098700D01*
X133566242Y-85143700D02*
X134040758Y-85143700D01*
X116983742Y-91890400D02*
X117458258Y-91890400D01*
X116983742Y-90845400D02*
X117458258Y-90845400D01*
D14*
X130769000Y-30103500D02*
X130769000Y-23603500D01*
X141969000Y-30103500D02*
X130769000Y-30103500D01*
X141969000Y-23603500D02*
X141969000Y-30103500D01*
X130769000Y-23603500D02*
X130769000Y-22603500D01*
X130769000Y-22603500D02*
X141969000Y-22603500D01*
X141969000Y-22603500D02*
X141969000Y-23603500D01*
X130769000Y-23603500D02*
X141969000Y-23603500D01*
D13*
X121120242Y-84098700D02*
X121594758Y-84098700D01*
X121120242Y-85143700D02*
X121594758Y-85143700D01*
D15*
X176809000Y-42803500D02*
X176809000Y-37203500D01*
X176809000Y-37203500D02*
X177809000Y-37203500D01*
X182869000Y-37203500D02*
X182869000Y-43803500D01*
X180409000Y-43803500D02*
X179309000Y-43803500D01*
X182859000Y-37203500D02*
X181859000Y-37203500D01*
X182859000Y-43803500D02*
X181859000Y-43803500D01*
X179309000Y-37203500D02*
X180409000Y-37203500D01*
X177809000Y-43803500D02*
X176809000Y-42803500D01*
D13*
X129659000Y-56323512D02*
X128659000Y-56323512D01*
X129659000Y-59683512D02*
X128659000Y-59683512D01*
X163239000Y-88006500D02*
X163239000Y-88656500D01*
X166359000Y-88006500D02*
X166359000Y-88656500D01*
X163239000Y-88006500D02*
X163239000Y-87356500D01*
X166359000Y-88006500D02*
X166359000Y-86331500D01*
D15*
X126169000Y-50603500D02*
X126169000Y-49603500D01*
X120569000Y-39403500D02*
X126169000Y-39403500D01*
X126169000Y-41903500D02*
X126169000Y-43003500D01*
X119569000Y-43003500D02*
X119569000Y-41903500D01*
X119569000Y-48103500D02*
X119569000Y-47003500D01*
X119569000Y-40403500D02*
X120569000Y-39403500D01*
X119569000Y-50603500D02*
X119569000Y-49603500D01*
X126169000Y-39403500D02*
X126169000Y-40403500D01*
X126169000Y-50603500D02*
X119569000Y-50603500D01*
X126169000Y-45503500D02*
X126169000Y-44503500D01*
X119569000Y-45503500D02*
X119569000Y-44503500D01*
X126169000Y-48103500D02*
X126169000Y-47003500D01*
D13*
X150084500Y-94150500D02*
X153324500Y-94150500D01*
X150084500Y-92530500D02*
X153324500Y-92530500D01*
X150084500Y-92530500D02*
X150084500Y-94150500D01*
X136402000Y-92530500D02*
X139642000Y-92530500D01*
X136402000Y-94150500D02*
X139642000Y-94150500D01*
X136402000Y-92530500D02*
X136402000Y-94150500D01*
X135236500Y-88006500D02*
X135236500Y-88656500D01*
X135236500Y-88006500D02*
X135236500Y-86331500D01*
X132116500Y-88006500D02*
X132116500Y-88656500D01*
X132116500Y-88006500D02*
X132116500Y-87356500D01*
X181595500Y-61827758D02*
X181595500Y-61353242D01*
X182640500Y-61827758D02*
X182640500Y-61353242D01*
X168991042Y-84098700D02*
X169465558Y-84098700D01*
X168991042Y-85143700D02*
X169465558Y-85143700D01*
X166458000Y-81683500D02*
X164173000Y-81683500D01*
X164173000Y-83153500D02*
X166458000Y-83153500D01*
X166458000Y-83153500D02*
X166458000Y-81683500D01*
X118781000Y-88006500D02*
X118781000Y-88656500D01*
X115661000Y-88006500D02*
X115661000Y-87356500D01*
X115661000Y-88006500D02*
X115661000Y-88656500D01*
X118781000Y-88006500D02*
X118781000Y-86331500D01*
X131069000Y-50203500D02*
X131069000Y-46353500D01*
X129069000Y-50203500D02*
X129069000Y-46353500D01*
X129069000Y-50203500D02*
X131069000Y-50203500D01*
D16*
X120156000Y-102702500D02*
X133856000Y-102702500D01*
X120156000Y-123842500D02*
X120156000Y-119342500D01*
X165356000Y-102702500D02*
X179056000Y-102702500D01*
X151371000Y-102702500D02*
X161871000Y-102702500D01*
X137341000Y-102702500D02*
X147841000Y-102702500D01*
X179056000Y-123842500D02*
X179056000Y-119342500D01*
X120156000Y-115902500D02*
X120156000Y-102702500D01*
X179056000Y-115902500D02*
X179056000Y-102702500D01*
X120156000Y-123842500D02*
X179056000Y-123842500D01*
D13*
X143809000Y-48362920D02*
X143809000Y-48644080D01*
X144829000Y-48362920D02*
X144829000Y-48644080D01*
X131117500Y-83153500D02*
X131117500Y-81683500D01*
X131117500Y-81683500D02*
X128832500Y-81683500D01*
X128832500Y-83153500D02*
X131117500Y-83153500D01*
X177642742Y-90845400D02*
X178117258Y-90845400D01*
X177642742Y-91890400D02*
X178117258Y-91890400D01*
X183766300Y-88006500D02*
X183766300Y-86331500D01*
X180646300Y-88006500D02*
X180646300Y-88656500D01*
X183766300Y-88006500D02*
X183766300Y-88656500D01*
X180646300Y-88006500D02*
X180646300Y-87356500D01*
X115333500Y-92530500D02*
X118573500Y-92530500D01*
X115333500Y-94150500D02*
X118573500Y-94150500D01*
X115333500Y-92530500D02*
X115333500Y-94150500D01*
X121120242Y-90845400D02*
X121594758Y-90845400D01*
X121120242Y-91890400D02*
X121594758Y-91890400D01*
X173324742Y-90845400D02*
X173799258Y-90845400D01*
X173324742Y-91890400D02*
X173799258Y-91890400D01*
X180318800Y-94150500D02*
X183558800Y-94150500D01*
X180318800Y-92530500D02*
X183558800Y-92530500D01*
X180318800Y-92530500D02*
X180318800Y-94150500D01*
X162911500Y-94150500D02*
X166151500Y-94150500D01*
X162911500Y-92530500D02*
X162911500Y-94150500D01*
X162911500Y-92530500D02*
X166151500Y-92530500D01*
X140781000Y-65764500D02*
X138881000Y-65764500D01*
X139381000Y-68084500D02*
X140781000Y-68084500D01*
X175122000Y-88006500D02*
X175122000Y-88656500D01*
X175122000Y-88006500D02*
X175122000Y-86331500D01*
X172002000Y-88006500D02*
X172002000Y-87356500D01*
X172002000Y-88006500D02*
X172002000Y-88656500D01*
M02*
