%TF.GenerationSoftware,KiCad,Pcbnew,(6.0.9)*%
%TF.CreationDate,2023-11-05T17:37:45+05:30*%
%TF.ProjectId,Modular-I2C-4PxRJ45-Relay-Driver,4d6f6475-6c61-4722-9d49-32432d345078,2*%
%TF.SameCoordinates,Original*%
%TF.FileFunction,Other,Comment*%
%FSLAX46Y46*%
G04 Gerber Fmt 4.6, Leading zero omitted, Abs format (unit mm)*
G04 Created by KiCad (PCBNEW (6.0.9)) date 2023-11-05 17:37:45*
%MOMM*%
%LPD*%
G01*
G04 APERTURE LIST*
%ADD10C,0.150000*%
%ADD11C,1.500000*%
G04 APERTURE END LIST*
D10*
%TO.C,J4*%
X159153614Y-62086247D02*
X159963138Y-62086247D01*
X160058376Y-62133866D01*
X160105995Y-62181485D01*
X160153614Y-62276723D01*
X160153614Y-62419580D01*
X160105995Y-62514819D01*
X159772661Y-62086247D02*
X159820280Y-62181485D01*
X159820280Y-62371961D01*
X159772661Y-62467200D01*
X159725042Y-62514819D01*
X159629804Y-62562438D01*
X159344090Y-62562438D01*
X159248852Y-62514819D01*
X159201233Y-62467200D01*
X159153614Y-62371961D01*
X159153614Y-62181485D01*
X159201233Y-62086247D01*
X159153614Y-61181485D02*
X159963138Y-61181485D01*
X160058376Y-61229104D01*
X160105995Y-61276723D01*
X160153614Y-61371961D01*
X160153614Y-61514819D01*
X160105995Y-61610057D01*
X159772661Y-61181485D02*
X159820280Y-61276723D01*
X159820280Y-61467200D01*
X159772661Y-61562438D01*
X159725042Y-61610057D01*
X159629804Y-61657676D01*
X159344090Y-61657676D01*
X159248852Y-61610057D01*
X159201233Y-61562438D01*
X159153614Y-61467200D01*
X159153614Y-61276723D01*
X159201233Y-61181485D01*
X159772661Y-60324342D02*
X159820280Y-60419580D01*
X159820280Y-60610057D01*
X159772661Y-60705295D01*
X159677423Y-60752914D01*
X159296471Y-60752914D01*
X159201233Y-60705295D01*
X159153614Y-60610057D01*
X159153614Y-60419580D01*
X159201233Y-60324342D01*
X159296471Y-60276723D01*
X159391709Y-60276723D01*
X159486947Y-60752914D01*
X159820280Y-59800533D02*
X159820280Y-59610057D01*
X159772661Y-59514819D01*
X159725042Y-59467200D01*
X159582185Y-59371961D01*
X159391709Y-59324342D01*
X159010757Y-59324342D01*
X158915519Y-59371961D01*
X158867900Y-59419580D01*
X158820280Y-59514819D01*
X158820280Y-59705295D01*
X158867900Y-59800533D01*
X158915519Y-59848152D01*
X159010757Y-59895771D01*
X159248852Y-59895771D01*
X159344090Y-59848152D01*
X159391709Y-59800533D01*
X159439328Y-59705295D01*
X159439328Y-59514819D01*
X159391709Y-59419580D01*
X159344090Y-59371961D01*
X159248852Y-59324342D01*
X158820280Y-58991009D02*
X158820280Y-58324342D01*
X159820280Y-58752914D01*
%TO.C,J3*%
X99680614Y-61748447D02*
X100490138Y-61748447D01*
X100585376Y-61796066D01*
X100632995Y-61843685D01*
X100680614Y-61938923D01*
X100680614Y-62081780D01*
X100632995Y-62177019D01*
X100299661Y-61748447D02*
X100347280Y-61843685D01*
X100347280Y-62034161D01*
X100299661Y-62129400D01*
X100252042Y-62177019D01*
X100156804Y-62224638D01*
X99871090Y-62224638D01*
X99775852Y-62177019D01*
X99728233Y-62129400D01*
X99680614Y-62034161D01*
X99680614Y-61843685D01*
X99728233Y-61748447D01*
X99680614Y-60843685D02*
X100490138Y-60843685D01*
X100585376Y-60891304D01*
X100632995Y-60938923D01*
X100680614Y-61034161D01*
X100680614Y-61177019D01*
X100632995Y-61272257D01*
X100299661Y-60843685D02*
X100347280Y-60938923D01*
X100347280Y-61129400D01*
X100299661Y-61224638D01*
X100252042Y-61272257D01*
X100156804Y-61319876D01*
X99871090Y-61319876D01*
X99775852Y-61272257D01*
X99728233Y-61224638D01*
X99680614Y-61129400D01*
X99680614Y-60938923D01*
X99728233Y-60843685D01*
X100299661Y-59986542D02*
X100347280Y-60081780D01*
X100347280Y-60272257D01*
X100299661Y-60367495D01*
X100204423Y-60415114D01*
X99823471Y-60415114D01*
X99728233Y-60367495D01*
X99680614Y-60272257D01*
X99680614Y-60081780D01*
X99728233Y-59986542D01*
X99823471Y-59938923D01*
X99918709Y-59938923D01*
X100013947Y-60415114D01*
X100347280Y-59462733D02*
X100347280Y-59272257D01*
X100299661Y-59177019D01*
X100252042Y-59129400D01*
X100109185Y-59034161D01*
X99918709Y-58986542D01*
X99537757Y-58986542D01*
X99442519Y-59034161D01*
X99394900Y-59081780D01*
X99347280Y-59177019D01*
X99347280Y-59367495D01*
X99394900Y-59462733D01*
X99442519Y-59510352D01*
X99537757Y-59557971D01*
X99775852Y-59557971D01*
X99871090Y-59510352D01*
X99918709Y-59462733D01*
X99966328Y-59367495D01*
X99966328Y-59177019D01*
X99918709Y-59081780D01*
X99871090Y-59034161D01*
X99775852Y-58986542D01*
X99347280Y-58653209D02*
X99347280Y-57986542D01*
X100347280Y-58415114D01*
%TO.C,RJ45-1*%
X127534571Y-90604642D02*
X127486952Y-90652261D01*
X127344095Y-90699880D01*
X127248857Y-90699880D01*
X127106000Y-90652261D01*
X127010761Y-90557023D01*
X126963142Y-90461785D01*
X126915523Y-90271309D01*
X126915523Y-90128452D01*
X126963142Y-89937976D01*
X127010761Y-89842738D01*
X127106000Y-89747500D01*
X127248857Y-89699880D01*
X127344095Y-89699880D01*
X127486952Y-89747500D01*
X127534571Y-89795119D01*
X127867904Y-89699880D02*
X128534571Y-89699880D01*
X128106000Y-90699880D01*
X128820285Y-89699880D02*
X129486952Y-89699880D01*
X129058380Y-90699880D01*
X130010761Y-90128452D02*
X129915523Y-90080833D01*
X129867904Y-90033214D01*
X129820285Y-89937976D01*
X129820285Y-89890357D01*
X129867904Y-89795119D01*
X129915523Y-89747500D01*
X130010761Y-89699880D01*
X130201238Y-89699880D01*
X130296476Y-89747500D01*
X130344095Y-89795119D01*
X130391714Y-89890357D01*
X130391714Y-89937976D01*
X130344095Y-90033214D01*
X130296476Y-90080833D01*
X130201238Y-90128452D01*
X130010761Y-90128452D01*
X129915523Y-90176071D01*
X129867904Y-90223690D01*
X129820285Y-90318928D01*
X129820285Y-90509404D01*
X129867904Y-90604642D01*
X129915523Y-90652261D01*
X130010761Y-90699880D01*
X130201238Y-90699880D01*
X130296476Y-90652261D01*
X130344095Y-90604642D01*
X130391714Y-90509404D01*
X130391714Y-90318928D01*
X130344095Y-90223690D01*
X130296476Y-90176071D01*
X130201238Y-90128452D01*
X131296476Y-89699880D02*
X130820285Y-89699880D01*
X130772666Y-90176071D01*
X130820285Y-90128452D01*
X130915523Y-90080833D01*
X131153619Y-90080833D01*
X131248857Y-90128452D01*
X131296476Y-90176071D01*
X131344095Y-90271309D01*
X131344095Y-90509404D01*
X131296476Y-90604642D01*
X131248857Y-90652261D01*
X131153619Y-90699880D01*
X130915523Y-90699880D01*
X130820285Y-90652261D01*
X130772666Y-90604642D01*
X131725047Y-89795119D02*
X131772666Y-89747500D01*
X131867904Y-89699880D01*
X132106000Y-89699880D01*
X132201238Y-89747500D01*
X132248857Y-89795119D01*
X132296476Y-89890357D01*
X132296476Y-89985595D01*
X132248857Y-90128452D01*
X131677428Y-90699880D01*
X132296476Y-90699880D01*
%TO.C,J4*%
G36*
X162034900Y-55641200D02*
G01*
X156573900Y-55641200D01*
X156573900Y-65166200D01*
X162161900Y-65166200D01*
X162161900Y-65293200D01*
X156446900Y-65293200D01*
X156446900Y-55514200D01*
X162034900Y-55514200D01*
X162034900Y-55641200D01*
G37*
%TO.C,J3*%
G36*
X102815900Y-65082400D02*
G01*
X97227900Y-65082400D01*
X97227900Y-64955400D01*
X102688900Y-64955400D01*
X102688900Y-55430400D01*
X97100900Y-55430400D01*
X97100900Y-55303400D01*
X102815900Y-55303400D01*
X102815900Y-65082400D01*
G37*
D11*
%TO.C,RJ45-1*%
X157026000Y-93042500D02*
G75*
G03*
X157026000Y-93042500I-750000J0D01*
G01*
X103686000Y-93042500D02*
G75*
G03*
X103686000Y-93042500I-750000J0D01*
G01*
G36*
X137226000Y-102312500D02*
G01*
X121986000Y-102312500D01*
X129606000Y-97867500D01*
X137226000Y-102312500D01*
G37*
%TD*%
M02*
