%TF.GenerationSoftware,KiCad,Pcbnew,(6.0.9)*%
%TF.CreationDate,2023-11-09T13:38:23+05:30*%
%TF.ProjectId,Modular-I2C-4PxRJ45-Relay-Driver,4d6f6475-6c61-4722-9d49-32432d345078,2*%
%TF.SameCoordinates,Original*%
%TF.FileFunction,Drillmap*%
%TF.FilePolarity,Positive*%
%FSLAX45Y45*%
G04 Gerber Fmt 4.5, Leading zero omitted, Abs format (unit mm)*
G04 Created by KiCad (PCBNEW (6.0.9)) date 2023-11-09 13:38:23*
%MOMM*%
%LPD*%
G01*
G04 APERTURE LIST*
%ADD10C,0.050000*%
%ADD11C,0.200000*%
G04 APERTURE END LIST*
D10*
X18439600Y-7168200D02*
X18439600Y-11048200D01*
X18439600Y-11368200D02*
X18439600Y-11808200D01*
X18239600Y-12008200D02*
X11689600Y-12008200D01*
X11689600Y-2008200D02*
G75*
G03*
X11489600Y-2208200I0J-200000D01*
G01*
X18239600Y-12008200D02*
G75*
G03*
X18439600Y-11808200I0J200000D01*
G01*
X11689600Y-2008200D02*
X18239600Y-2008200D01*
X11489600Y-2968200D02*
G75*
G03*
X11489600Y-2648200I-20070J160000D01*
G01*
X18439600Y-2648200D02*
G75*
G03*
X18439600Y-2968200I20070J-160000D01*
G01*
X18439600Y-6848200D02*
G75*
G03*
X18439600Y-7168200I20070J-160000D01*
G01*
X18439600Y-2208200D02*
X18439600Y-2648200D01*
X11489600Y-11808200D02*
X11489600Y-11368200D01*
X11489600Y-11368200D02*
G75*
G03*
X11489600Y-11048200I-20070J160000D01*
G01*
X11489600Y-2208200D02*
X11489600Y-2648200D01*
X11489600Y-2968200D02*
X11489600Y-6848200D01*
X18439600Y-11048200D02*
G75*
G03*
X18439600Y-11368200I20070J-160000D01*
G01*
X18439600Y-6848200D02*
X18439600Y-2968200D01*
X11489600Y-7168200D02*
G75*
G03*
X11489600Y-6848200I-20070J160000D01*
G01*
X18439600Y-2208200D02*
G75*
G03*
X18239600Y-2008200I-200000J0D01*
G01*
X11489600Y-11808200D02*
G75*
G03*
X11689600Y-12008200I200000J0D01*
G01*
X11489600Y-7168200D02*
X11489600Y-11048200D01*
D11*
X11744719Y-12321176D02*
X11744719Y-12121176D01*
X11792338Y-12121176D01*
X11820909Y-12130700D01*
X11839957Y-12149748D01*
X11849481Y-12168795D01*
X11859005Y-12206890D01*
X11859005Y-12235462D01*
X11849481Y-12273557D01*
X11839957Y-12292605D01*
X11820909Y-12311652D01*
X11792338Y-12321176D01*
X11744719Y-12321176D01*
X11944719Y-12321176D02*
X11944719Y-12187843D01*
X11944719Y-12225938D02*
X11954243Y-12206890D01*
X11963767Y-12197367D01*
X11982814Y-12187843D01*
X12001862Y-12187843D01*
X12068528Y-12321176D02*
X12068528Y-12187843D01*
X12068528Y-12121176D02*
X12059005Y-12130700D01*
X12068528Y-12140224D01*
X12078052Y-12130700D01*
X12068528Y-12121176D01*
X12068528Y-12140224D01*
X12192338Y-12321176D02*
X12173290Y-12311652D01*
X12163767Y-12292605D01*
X12163767Y-12121176D01*
X12297100Y-12321176D02*
X12278052Y-12311652D01*
X12268528Y-12292605D01*
X12268528Y-12121176D01*
X12525671Y-12321176D02*
X12525671Y-12121176D01*
X12592338Y-12264033D01*
X12659005Y-12121176D01*
X12659005Y-12321176D01*
X12839957Y-12321176D02*
X12839957Y-12216414D01*
X12830433Y-12197367D01*
X12811386Y-12187843D01*
X12773290Y-12187843D01*
X12754243Y-12197367D01*
X12839957Y-12311652D02*
X12820909Y-12321176D01*
X12773290Y-12321176D01*
X12754243Y-12311652D01*
X12744719Y-12292605D01*
X12744719Y-12273557D01*
X12754243Y-12254509D01*
X12773290Y-12244986D01*
X12820909Y-12244986D01*
X12839957Y-12235462D01*
X12935195Y-12187843D02*
X12935195Y-12387843D01*
X12935195Y-12197367D02*
X12954243Y-12187843D01*
X12992338Y-12187843D01*
X13011386Y-12197367D01*
X13020909Y-12206890D01*
X13030433Y-12225938D01*
X13030433Y-12283081D01*
X13020909Y-12302128D01*
X13011386Y-12311652D01*
X12992338Y-12321176D01*
X12954243Y-12321176D01*
X12935195Y-12311652D01*
X13116148Y-12302128D02*
X13125671Y-12311652D01*
X13116148Y-12321176D01*
X13106624Y-12311652D01*
X13116148Y-12302128D01*
X13116148Y-12321176D01*
X13116148Y-12197367D02*
X13125671Y-12206890D01*
X13116148Y-12216414D01*
X13106624Y-12206890D01*
X13116148Y-12197367D01*
X13116148Y-12216414D01*
M02*
