%TF.GenerationSoftware,KiCad,Pcbnew,(6.0.9)*%
%TF.CreationDate,2023-11-10T22:24:20+05:30*%
%TF.ProjectId,RJ45-To-Terminal,524a3435-2d54-46f2-9d54-65726d696e61,2*%
%TF.SameCoordinates,Original*%
%TF.FileFunction,Soldermask,Top*%
%TF.FilePolarity,Negative*%
%FSLAX46Y46*%
G04 Gerber Fmt 4.6, Leading zero omitted, Abs format (unit mm)*
G04 Created by KiCad (PCBNEW (6.0.9)) date 2023-11-10 22:24:20*
%MOMM*%
%LPD*%
G01*
G04 APERTURE LIST*
G04 Aperture macros list*
%AMRoundRect*
0 Rectangle with rounded corners*
0 $1 Rounding radius*
0 $2 $3 $4 $5 $6 $7 $8 $9 X,Y pos of 4 corners*
0 Add a 4 corners polygon primitive as box body*
4,1,4,$2,$3,$4,$5,$6,$7,$8,$9,$2,$3,0*
0 Add four circle primitives for the rounded corners*
1,1,$1+$1,$2,$3*
1,1,$1+$1,$4,$5*
1,1,$1+$1,$6,$7*
1,1,$1+$1,$8,$9*
0 Add four rect primitives between the rounded corners*
20,1,$1+$1,$2,$3,$4,$5,0*
20,1,$1+$1,$4,$5,$6,$7,0*
20,1,$1+$1,$6,$7,$8,$9,0*
20,1,$1+$1,$8,$9,$2,$3,0*%
G04 Aperture macros list end*
%ADD10C,2.600000*%
%ADD11C,1.500000*%
%ADD12C,3.250000*%
%ADD13RoundRect,0.218750X0.218750X0.256250X-0.218750X0.256250X-0.218750X-0.256250X0.218750X-0.256250X0*%
%ADD14RoundRect,0.200000X-0.200000X-0.275000X0.200000X-0.275000X0.200000X0.275000X-0.200000X0.275000X0*%
%ADD15C,2.000000*%
%ADD16R,2.000000X1.100000*%
%ADD17R,0.800000X0.800000*%
G04 APERTURE END LIST*
D10*
%TO.C,RJ45-1*%
X163728400Y-83209400D03*
X149758400Y-83209400D03*
X179158400Y-68479400D03*
X120358400Y-68479400D03*
X135788400Y-83209400D03*
D11*
X124358400Y-81939400D03*
X125628400Y-79399400D03*
X126898400Y-81939400D03*
X128168400Y-79399400D03*
X129438400Y-81939400D03*
X130708400Y-79399400D03*
X131978400Y-81939400D03*
X133248400Y-79399400D03*
X138328400Y-81939400D03*
X139598400Y-79399400D03*
X140868400Y-81939400D03*
X142138400Y-79399400D03*
X143408400Y-81939400D03*
X144678400Y-79399400D03*
X145948400Y-81939400D03*
X147218400Y-79399400D03*
X152298400Y-81939400D03*
X153568400Y-79399400D03*
X154838400Y-81939400D03*
X156108400Y-79399400D03*
X157378400Y-81939400D03*
X158648400Y-79399400D03*
X159918400Y-81939400D03*
X161188400Y-79399400D03*
X166268400Y-81939400D03*
X167538400Y-79399400D03*
X168808400Y-81939400D03*
X170078400Y-79399400D03*
X171348400Y-81939400D03*
X172618400Y-79399400D03*
X173888400Y-81939400D03*
X175158400Y-79399400D03*
D12*
X123088400Y-73049400D03*
X176428400Y-73049400D03*
%TD*%
D13*
%TO.C,LED56*%
X138836500Y-88519000D03*
X137261500Y-88519000D03*
%TD*%
D14*
%TO.C,TH59*%
X150893000Y-97468400D03*
X152543000Y-97468400D03*
%TD*%
D15*
%TO.C,J11*%
X131996000Y-111937300D03*
X131996000Y-109437300D03*
X128496000Y-111937300D03*
X128496000Y-109437300D03*
X124996000Y-111937300D03*
X124996000Y-109437300D03*
X121496000Y-111937300D03*
X121496000Y-109437300D03*
%TD*%
D16*
%TO.C,D57*%
X141982150Y-99441000D03*
D17*
X143882150Y-99441000D03*
%TD*%
D15*
%TO.C,J12*%
X147388400Y-111937300D03*
X147388400Y-109437300D03*
X143888400Y-111937300D03*
X143888400Y-109437300D03*
X140388400Y-111937300D03*
X140388400Y-109437300D03*
X136888400Y-111937300D03*
X136888400Y-109437300D03*
%TD*%
D16*
%TO.C,D61*%
X159607000Y-99441000D03*
D17*
X161507000Y-99441000D03*
%TD*%
D13*
%TO.C,LED66*%
X182767300Y-88519000D03*
X181192300Y-88519000D03*
%TD*%
D16*
%TO.C,D63*%
X168339300Y-99441000D03*
D17*
X170239300Y-99441000D03*
%TD*%
D13*
%TO.C,LED60*%
X156881800Y-88519000D03*
X155306800Y-88519000D03*
%TD*%
D14*
%TO.C,R58*%
X146313500Y-90721700D03*
X147963500Y-90721700D03*
%TD*%
%TO.C,TH54*%
X128533500Y-97468400D03*
X130183500Y-97468400D03*
%TD*%
D13*
%TO.C,LED55*%
X134357000Y-88519000D03*
X132782000Y-88519000D03*
%TD*%
D14*
%TO.C,TH61*%
X159409500Y-97468400D03*
X161059500Y-97468400D03*
%TD*%
D13*
%TO.C,LED58*%
X147946000Y-88519000D03*
X146371000Y-88519000D03*
%TD*%
D14*
%TO.C,R61*%
X159417000Y-90721700D03*
X161067000Y-90721700D03*
%TD*%
D13*
%TO.C,LED63*%
X169781800Y-88519000D03*
X168206800Y-88519000D03*
%TD*%
%TO.C,LED65*%
X178441000Y-88519000D03*
X176866000Y-88519000D03*
%TD*%
D16*
%TO.C,D64*%
X172680500Y-99441000D03*
D17*
X174580500Y-99441000D03*
%TD*%
D14*
%TO.C,R60*%
X155249300Y-90721700D03*
X156899300Y-90721700D03*
%TD*%
D13*
%TO.C,LED57*%
X143408500Y-88519000D03*
X141833500Y-88519000D03*
%TD*%
D16*
%TO.C,D53*%
X124540000Y-99441000D03*
D17*
X126440000Y-99441000D03*
%TD*%
D14*
%TO.C,TH60*%
X155241800Y-97468400D03*
X156891800Y-97468400D03*
%TD*%
%TO.C,R53*%
X124342500Y-90721700D03*
X125992500Y-90721700D03*
%TD*%
%TO.C,TH56*%
X137210500Y-97468400D03*
X138860500Y-97468400D03*
%TD*%
D13*
%TO.C,LED53*%
X126009500Y-88519000D03*
X124434500Y-88519000D03*
%TD*%
D14*
%TO.C,R51*%
X116401400Y-90721700D03*
X118051400Y-90721700D03*
%TD*%
%TO.C,TH53*%
X124342500Y-97468400D03*
X125992500Y-97468400D03*
%TD*%
D13*
%TO.C,LED61*%
X161049500Y-88519000D03*
X159474500Y-88519000D03*
%TD*%
%TO.C,LED64*%
X174123000Y-88519000D03*
X172548000Y-88519000D03*
%TD*%
D14*
%TO.C,R54*%
X128533500Y-90721700D03*
X130183500Y-90721700D03*
%TD*%
%TO.C,TH57*%
X141784650Y-97468400D03*
X143434650Y-97468400D03*
%TD*%
D16*
%TO.C,D55*%
X132922000Y-99441000D03*
D17*
X134822000Y-99441000D03*
%TD*%
D13*
%TO.C,LED52*%
X121911000Y-88519000D03*
X120336000Y-88519000D03*
%TD*%
D14*
%TO.C,R65*%
X176808500Y-90721700D03*
X178458500Y-90721700D03*
%TD*%
%TO.C,TH66*%
X181127300Y-97468400D03*
X182777300Y-97468400D03*
%TD*%
%TO.C,TH55*%
X132724500Y-97468400D03*
X134374500Y-97468400D03*
%TD*%
%TO.C,TH58*%
X146313500Y-97468400D03*
X147963500Y-97468400D03*
%TD*%
%TO.C,R56*%
X137210500Y-90721700D03*
X138860500Y-90721700D03*
%TD*%
D13*
%TO.C,LED59*%
X152552500Y-88519000D03*
X150977500Y-88519000D03*
%TD*%
%TO.C,LED51*%
X118033900Y-88519000D03*
X116458900Y-88519000D03*
%TD*%
D14*
%TO.C,TH62*%
X163720000Y-97468400D03*
X165370000Y-97468400D03*
%TD*%
%TO.C,TH63*%
X168141800Y-97468400D03*
X169791800Y-97468400D03*
%TD*%
%TO.C,R64*%
X172490500Y-90721700D03*
X174140500Y-90721700D03*
%TD*%
D16*
%TO.C,D58*%
X146511000Y-99441000D03*
D17*
X148411000Y-99441000D03*
%TD*%
D14*
%TO.C,R62*%
X163727500Y-90721700D03*
X165377500Y-90721700D03*
%TD*%
D16*
%TO.C,D65*%
X176998500Y-99441000D03*
D17*
X178898500Y-99441000D03*
%TD*%
D16*
%TO.C,D60*%
X155290500Y-99441000D03*
D17*
X157190500Y-99441000D03*
%TD*%
D16*
%TO.C,D52*%
X120476000Y-99441000D03*
D17*
X122376000Y-99441000D03*
%TD*%
D14*
%TO.C,R66*%
X181134800Y-90721700D03*
X182784800Y-90721700D03*
%TD*%
D16*
%TO.C,D54*%
X128731000Y-99441000D03*
D17*
X130631000Y-99441000D03*
%TD*%
D14*
%TO.C,R57*%
X141784650Y-90721700D03*
X143434650Y-90721700D03*
%TD*%
%TO.C,R59*%
X150900500Y-90721700D03*
X152550500Y-90721700D03*
%TD*%
D15*
%TO.C,J14*%
X178122400Y-112038900D03*
X178122400Y-109538900D03*
X174622400Y-112038900D03*
X174622400Y-109538900D03*
X171122400Y-112038900D03*
X171122400Y-109538900D03*
X167622400Y-112038900D03*
X167622400Y-109538900D03*
%TD*%
%TO.C,J13*%
X162730000Y-112038900D03*
X162730000Y-109538900D03*
X159230000Y-112038900D03*
X159230000Y-109538900D03*
X155730000Y-112038900D03*
X155730000Y-109538900D03*
X152230000Y-112038900D03*
X152230000Y-109538900D03*
%TD*%
D14*
%TO.C,R55*%
X132724500Y-90721700D03*
X134374500Y-90721700D03*
%TD*%
%TO.C,TH51*%
X116142000Y-97468400D03*
X117792000Y-97468400D03*
%TD*%
%TO.C,R52*%
X120278500Y-90721700D03*
X121928500Y-90721700D03*
%TD*%
D16*
%TO.C,D59*%
X151090500Y-99441000D03*
D17*
X152990500Y-99441000D03*
%TD*%
D16*
%TO.C,D56*%
X137408000Y-99441000D03*
D17*
X139308000Y-99441000D03*
%TD*%
D14*
%TO.C,R63*%
X168149300Y-90721700D03*
X169799300Y-90721700D03*
%TD*%
D13*
%TO.C,LED62*%
X165506500Y-88519000D03*
X163931500Y-88519000D03*
%TD*%
%TO.C,LED54*%
X130166000Y-88519000D03*
X128591000Y-88519000D03*
%TD*%
D14*
%TO.C,TH65*%
X176801000Y-97468400D03*
X178451000Y-97468400D03*
%TD*%
D16*
%TO.C,D51*%
X116339500Y-99441000D03*
D17*
X118239500Y-99441000D03*
%TD*%
D14*
%TO.C,TH52*%
X120278500Y-97468400D03*
X121928500Y-97468400D03*
%TD*%
%TO.C,TH64*%
X172483000Y-97468400D03*
X174133000Y-97468400D03*
%TD*%
D16*
%TO.C,D66*%
X181324800Y-99441000D03*
D17*
X183224800Y-99441000D03*
%TD*%
D16*
%TO.C,D62*%
X163917500Y-99441000D03*
D17*
X165817500Y-99441000D03*
%TD*%
M02*
